<svg width="25" height="25" viewBox="0 0 25 25" fill="none" xmlns="http://www.w3.org/2000/svg">
<path d="M12.6021 20.8257H23.7449" stroke="#BE3A34" stroke-width="1.5"/>
<path d="M20.5613 17.6421L23.7451 20.8258L20.5613 24.0094" stroke="#BE3A34" stroke-linecap="round" stroke-linejoin="round"/>
<path d="M8.62311 6.49963C9.94196 6.49963 11.0111 5.43049 11.0111 4.11163C11.0111 2.79278 9.94196 1.72363 8.62311 1.72363C7.30425 1.72363 6.23511 2.79278 6.23511 4.11163C6.23511 5.43049 7.30425 6.49963 8.62311 6.49963Z" fill="#BE3A34" stroke="#BE3A34" stroke-width="1.5"/>
<path d="M14.9901 14.4591C16.3089 14.4591 17.3781 13.39 17.3781 12.0711C17.3781 10.7522 16.3089 9.68311 14.9901 9.68311C13.6712 9.68311 12.6021 10.7522 12.6021 12.0711C12.6021 13.39 13.6712 14.4591 14.9901 14.4591Z" fill="#BE3A34" stroke="#BE3A34" stroke-width="1.5"/>
<path d="M10.2142 23.214C11.533 23.214 12.6022 22.1448 12.6022 20.826C12.6022 19.5071 11.533 18.438 10.2142 18.438C8.89532 18.438 7.82617 19.5071 7.82617 20.826C7.82617 22.1448 8.89532 23.214 10.2142 23.214Z" fill="#BE3A34" stroke="#BE3A34" stroke-width="1.5"/>
<path d="M12.6021 12.0713H5.83679C3.41914 12.0713 1.45923 14.0312 1.45923 16.4489C1.45923 18.8665 3.41914 20.8264 5.83679 20.8264H7.8266" stroke="#BE3A34" stroke-width="1.5"/>
<path d="M17.3776 12.071H19.7654C21.9633 12.071 23.745 10.2893 23.745 8.09141C23.745 5.89354 21.9633 4.11182 19.7654 4.11182H11.0103" stroke="#BE3A34" stroke-width="1.5"/>
<path d="M6.23477 4.11182H1.45923" stroke="#BE3A34" stroke-width="1.5"/>
</svg>
