<svg width="25" height="25" viewBox="0 0 25 25" fill="none" xmlns="http://www.w3.org/2000/svg">
<path d="M3.39551 11.3361C3.39551 10.3772 3.85394 9.47601 4.62902 8.91136L11.7486 3.72464C12.4504 3.21333 13.402 3.21333 14.1039 3.72464L21.2234 8.91136C21.9985 9.47602 22.4569 10.3772 22.4569 11.3361V20.8667C22.4569 21.9713 21.5615 22.8667 20.4569 22.8667H5.39551C4.29094 22.8667 3.39551 21.9713 3.39551 20.8667V11.3361Z" fill="#BE3A34" stroke="#BE3A34" stroke-width="1.5" stroke-linejoin="round"/>
<path d="M16.1078 23.6172V18.8669C16.1078 17.1096 14.6832 15.6851 12.926 15.6851V15.6851C11.1687 15.6851 9.74414 17.1096 9.74414 18.8669V23.6172" stroke="white" stroke-width="1.5" stroke-linejoin="round"/>
<path d="M16.1078 23.6172V18.8669C16.1078 17.1096 14.6832 15.6851 12.926 15.6851V15.6851C11.1687 15.6851 9.74414 17.1096 9.74414 18.8669V23.6172" stroke="#E5DECF" stroke-opacity="0.2" stroke-width="1.5" stroke-linejoin="round"/>
<path d="M10.9263 10.5288H14.9263" stroke="white" stroke-width="1.5" stroke-linecap="round" stroke-linejoin="round"/>
<path d="M10.9263 10.5288H14.9263" stroke="#E5DECF" stroke-opacity="0.2" stroke-width="1.5" stroke-linecap="round" stroke-linejoin="round"/>
</svg>
