<svg width="21" height="22" viewBox="0 0 21 22" fill="none" xmlns="http://www.w3.org/2000/svg">
<path d="M16.2438 6.57128C16.2438 10.1207 12.7786 14.3921 11.3588 15.9804C11.0459 16.3293 10.4925 16.3293 10.1796 15.9804C8.77188 14.3801 5.30664 10.1207 5.30664 6.57128C5.30664 3.55123 7.76119 1.09668 10.7812 1.09668C13.8013 1.09668 16.2438 3.55123 16.2438 6.57128Z" fill="#BE3A34" stroke="#BE3A34" stroke-width="1.5" stroke-miterlimit="10" stroke-linecap="round" stroke-linejoin="round"/>
<path d="M12.7765 6.83337C12.849 5.72596 12.0101 4.7694 10.9027 4.69682C9.79532 4.62424 8.83875 5.46314 8.76618 6.57055C8.6936 7.67795 9.5325 8.63452 10.6399 8.7071C11.7473 8.77967 12.7039 7.94078 12.7765 6.83337Z" stroke="white" stroke-width="1.5" stroke-miterlimit="10" stroke-linecap="round" stroke-linejoin="round"/>
<path d="M12.7765 6.83337C12.849 5.72596 12.0101 4.7694 10.9027 4.69682C9.79532 4.62424 8.83875 5.46314 8.76618 6.57055C8.6936 7.67795 9.5325 8.63452 10.6399 8.7071C11.7473 8.77967 12.7039 7.94078 12.7765 6.83337Z" stroke="#E5DECF" stroke-opacity="0.2" stroke-width="1.5" stroke-miterlimit="10" stroke-linecap="round" stroke-linejoin="round"/>
<path d="M3.76929 12.8521L1.5552 18.5974C1.17652 19.5801 1.90178 20.6368 2.95487 20.6368H18.5837C19.6368 20.6368 20.3621 19.5801 19.9834 18.5974L17.7693 12.8521" stroke="#BE3A34" stroke-width="1.5" stroke-miterlimit="10" stroke-linecap="round" stroke-linejoin="round"/>
</svg>
