<svg width="24" height="25" viewBox="0 0 24 25" fill="none" xmlns="http://www.w3.org/2000/svg">
<path d="M2.46924 11.3361C2.46924 10.3772 2.92767 9.47601 3.70275 8.91136L10.8223 3.72464C11.5241 3.21333 12.4758 3.21333 13.1776 3.72464L20.2972 8.91136C21.0722 9.47602 21.5307 10.3772 21.5307 11.3361V20.8667C21.5307 21.9713 20.6352 22.8667 19.5307 22.8667H4.46924C3.36467 22.8667 2.46924 21.9713 2.46924 20.8667V11.3361Z" stroke="#BE3A34" stroke-width="1.5" stroke-linejoin="round"/>
<path d="M8.81836 17.8669C8.81836 16.1096 10.2429 14.6851 12.0002 14.6851V14.6851C13.7574 14.6851 15.182 16.1096 15.182 17.8669V22.8669H8.81836V17.8669Z" stroke="#BE3A34" stroke-width="1.5" stroke-linejoin="round"/>
<path d="M10 10.5288H14" stroke="#BE3A34" stroke-width="1.5" stroke-linecap="round" stroke-linejoin="round"/>
</svg>
