<?xml version="1.0" encoding="UTF-8" standalone="no"?>
<!-- Created with Inkscape (http://www.inkscape.org/) -->

<svg
   width="155.71521mm"
   height="123.78263mm"
   viewBox="0 0 155.71521 123.78263"
   version="1.1"
   id="svg599"
   xmlns="http://www.w3.org/2000/svg"
   xmlns:svg="http://www.w3.org/2000/svg">
  <defs
     id="defs596" />
  <g
     id="layer1"
     transform="translate(-33.472665,-88.095998)">
    <path
       d="m 124.78831,211.6352 c 0,-0.1323 -0.10848,-0.24077 -0.24077,-0.24077 H 98.11567 c -0.13229,0 -0.24077,0.10847 -0.24077,0.24077 0,0.13229 0.10848,0.24077 0.24077,0.24077 h 26.43187 c 0.13229,-0.003 0.24077,-0.10848 0.24077,-0.24077 z m 0,-1.44198 c 0,-0.13229 -0.10848,-0.24077 -0.24077,-0.24077 H 98.11567 c -0.13229,0 -0.24077,0.10848 -0.24077,0.24077 0,0.13229 0.10848,0.24077 0.24077,0.24077 h 26.43187 c 0.13229,-0.003 0.24077,-0.10848 0.24077,-0.24077 z m 0,-1.44198 c 0,-0.13229 -0.10848,-0.24077 -0.24077,-0.24077 H 98.11567 c -0.13229,0 -0.24077,0.10848 -0.24077,0.24077 0,0.13229 0.10848,0.24077 0.24077,0.24077 h 26.43187 c 0.13229,-0.003 0.24077,-0.10848 0.24077,-0.24077 z m 0,-1.44198 c 0,-0.13229 -0.10848,-0.24077 -0.24077,-0.24077 H 98.11567 c -0.13229,0 -0.24077,0.10848 -0.24077,0.24077 0,0.13229 0.10848,0.24077 0.24077,0.24077 h 26.43187 c 0.13229,0 0.24077,-0.10848 0.24077,-0.24077 z m 0,-1.44198 c 0,-0.13229 -0.10848,-0.24077 -0.24077,-0.24077 H 98.11567 c -0.13229,0 -0.24077,0.10848 -0.24077,0.24077 0,0.13229 0.10848,0.24077 0.24077,0.24077 h 26.43187 c 0.13229,0 0.24077,-0.10848 0.24077,-0.24077 z m 0,-1.44198 c 0,-0.13229 -0.10848,-0.24077 -0.24077,-0.24077 H 98.11567 c -0.13229,0 -0.24077,0.10848 -0.24077,0.24077 0,0.13229 0.10848,0.24077 0.24077,0.24077 h 26.43187 c 0.13229,0 0.24077,-0.10848 0.24077,-0.24077 z m 0,-1.44198 c 0,-0.13229 -0.10848,-0.24077 -0.24077,-0.24077 H 98.11567 c -0.13229,0 -0.24077,0.10848 -0.24077,0.24077 0,0.13229 0.10848,0.24077 0.24077,0.24077 h 26.43187 c 0.13229,0 0.24077,-0.10848 0.24077,-0.24077 z m 0,-2.88396 c 0,-0.13229 -0.10848,-0.24077 -0.24077,-0.24077 H 98.11567 c -0.13229,0 -0.24077,0.10848 -0.24077,0.24077 0,0.13229 0.10848,0.24077 0.24077,0.24077 h 26.43187 c 0.13229,0 0.24077,-0.10848 0.24077,-0.24077 z m 0,-14.87223 c 0,-0.13229 -0.10848,-0.24077 -0.24077,-0.24077 H 98.11567 c -0.13229,0 -0.24077,0.10848 -0.24077,0.24077 0,0.1323 0.10848,0.24077 0.24077,0.24077 h 26.43187 c 0.13229,-0.003 0.24077,-0.10847 0.24077,-0.24077 z m -24.99254,14.1023 v -13.84036 c 0,-0.13229 -0.10848,-0.24077 -0.24077,-0.24077 -0.13229,0 -0.24077,0.10848 -0.24077,0.24077 v 13.84036 c 0,0.13229 0.10848,0.24077 0.24077,0.24077 0.13229,0 0.24077,-0.10584 0.24077,-0.24077 z m 2.40242,0 v -13.93825 c 0,-0.1323 -0.10848,-0.24078 -0.24077,-0.24078 -0.13229,0 -0.24077,0.10848 -0.24077,0.24078 v 13.93825 c 0,0.13229 0.10848,0.24077 0.24077,0.24077 0.13229,0 0.24077,-0.10584 0.24077,-0.24077 z m 3.84704,0 v -13.93825 c 0,-0.1323 -0.10848,-0.24078 -0.24077,-0.24078 -0.13229,0 -0.24077,0.10848 -0.24077,0.24078 v 13.93825 c 0,0.13229 0.10848,0.24077 0.24077,0.24077 0.13229,0 0.24077,-0.10584 0.24077,-0.24077 z m 2.40242,0 v -13.93825 c 0,-0.1323 -0.10848,-0.24078 -0.24077,-0.24078 -0.1323,0 -0.24077,0.10848 -0.24077,0.24078 v 13.93825 c 0,0.13229 0.10847,0.24077 0.24077,0.24077 0.13229,0 0.24077,-0.10584 0.24077,-0.24077 z M 44.336459,188.56618 v -6.48759 c 0,-0.13229 -0.10848,-0.24077 -0.240771,-0.24077 -0.132292,0 -0.240771,0.10848 -0.240771,0.24077 v 6.48759 c 0,0.13229 0.108479,0.24077 0.240771,0.24077 0.132291,0 0.240771,-0.10848 0.240771,-0.24077 z m 20.857099,-10.09386 c 0,-0.13229 -0.10847,-0.24077 -0.24077,-0.24077 h -9.130767 c -0.132292,0 -0.240771,0.10848 -0.240771,0.24077 0,0.13229 0.108479,0.24077 0.240771,0.24077 h 9.130767 c 0.1323,0 0.24077,-0.10848 0.24077,-0.24077 z m -2.59556,-1.92087 c 0,-0.1323 -0.10848,-0.24077 -0.24077,-0.24077 h -3.84439 c -0.1323,0 -0.24078,0.10847 -0.24078,0.24077 0,0.13229 0.10848,0.24077 0.24078,0.24077 h 3.84439 c 0.13229,-0.003 0.24077,-0.10848 0.24077,-0.24077 z m -0.96044,1.92087 v -1.92352 c 0,-0.13229 -0.10847,-0.24077 -0.24077,-0.24077 -0.13229,0 -0.24077,0.10848 -0.24077,0.24077 v 1.92352 c 0,0.13229 0.10848,0.24077 0.24077,0.24077 0.1323,0 0.24077,-0.10848 0.24077,-0.24077 z m -1.92352,0 v -1.92352 c 0,-0.13229 -0.10848,-0.24077 -0.24077,-0.24077 -0.13229,0 -0.24077,0.10848 -0.24077,0.24077 v 1.92352 c 0,0.13229 0.10848,0.24077 0.24077,0.24077 0.13494,0 0.24077,-0.10848 0.24077,-0.24077 z m 2.84957,-5.52714 c 0.13229,-0.008 0.23283,-0.12171 0.22489,-0.254 l -0.24077,-4.08517 c 0,-0.0185 -0.005,-0.037 -0.0106,-0.0556 l -0.96044,-3.12473 c -0.0317,-0.10054 -0.12435,-0.16934 -0.23019,-0.16934 h -1.87325 c -0.13229,0 -0.24077,0.10848 -0.24077,0.24077 0,0.1323 0.10848,0.24078 0.24077,0.24078 h 1.69598 l 0.89959,2.92629 0.23812,4.05606 c 0.008,0.127 0.11377,0.2249 0.24077,0.2249 z m 1.69333,0.48154 c 0.13229,-0.0132 0.22754,-0.12965 0.21431,-0.26194 l -0.48154,-4.80483 c 0,-0.0106 -0.003,-0.0238 -0.005,-0.0344 l -0.86783,-3.47398 c -0.003,-0.0106 -0.005,-0.0212 -0.0106,-0.0344 l -1.53723,-3.73328 c -0.0503,-0.1217 -0.1905,-0.18256 -0.31485,-0.12964 -0.12171,0.0503 -0.18256,0.1905 -0.12965,0.31485 l 1.52929,3.7174 0.85725,3.44223 0.4789,4.78896 c 0.0132,0.12435 0.11642,0.21695 0.23813,0.21695 0.0132,-0.008 0.0212,-0.008 0.0291,-0.008 z m -3.10092,-8.89 c 0,-0.13229 -0.10848,-0.24077 -0.24077,-0.24077 h -0.96044 c -0.13229,0 -0.24077,0.10848 -0.24077,0.24077 0,0.13229 0.10848,0.24077 0.24077,0.24077 h 0.96044 c 0.13494,-0.003 0.24077,-0.10848 0.24077,-0.24077 z m -0.28839,-0.96309 c 0,-0.13229 -0.10848,-0.24077 -0.24077,-0.24077 h -0.48155 c -0.13229,0 -0.24077,0.10848 -0.24077,0.24077 0,0.1323 0.10848,0.24077 0.24077,0.24077 h 0.48155 c 0.13493,0 0.24077,-0.10847 0.24077,-0.24077 z m 0,-5.95841 c 0,-0.13229 -0.10848,-0.24077 -0.24077,-0.24077 h -0.48155 c -0.13229,0 -0.24077,0.10848 -0.24077,0.24077 0,0.13229 0.10848,0.24077 0.24077,0.24077 h 0.48155 c 0.13493,0 0.24077,-0.10848 0.24077,-0.24077 z m 55.512232,-49.04317 h -10.12032 c -0.0926,0 -0.17727,-0.0556 -0.21696,-0.14023 l -0.45508,-0.9816 c -0.0317,-0.0661 -0.0291,-0.14288 0.003,-0.20638 l 0.46566,-0.94191 c 0.0397,-0.082 0.12436,-0.13494 0.21432,-0.13494 h 10.10973 c 0.0952,0 0.17991,0.0556 0.2196,0.14287 l 0.4789,1.0795 c 0.0318,0.0688 0.0265,0.15082 -0.0106,0.21696 l -0.47889,0.84138 c -0.045,0.0767 -0.12436,0.12435 -0.20902,0.12435 z m -9.96686,-0.48154 h 9.82663 l 0.34925,-0.61648 -0.36513,-0.8255 h -9.80546 l -0.34925,0.70379 z m 7.65704,-3.10092 h -5.4901 c -0.10054,0 -0.18786,-0.0609 -0.2249,-0.15346 l -0.24606,-0.63764 c -0.0212,-0.0582 -0.0212,-0.12171 0.003,-0.17727 l 0.25135,-0.61119 c 0.037,-0.09 0.12435,-0.14817 0.22225,-0.14817 h 5.48481 c 0.10054,0 0.1905,0.0635 0.2249,0.15611 l 0.25929,0.70114 c 0.0212,0.0609 0.0185,0.127 -0.008,0.18521 l -0.25929,0.54769 c -0.0397,0.0847 -0.12435,0.13758 -0.21696,0.13758 z m -5.32606,-0.47889 h 5.17525 l 0.15081,-0.32015 -0.16668,-0.44979 h -5.15673 l -0.15346,0.37306 z m -31.535692,79.248 v -1.73038 c 0,-0.13229 -0.10848,-0.24077 -0.24077,-0.24077 -0.13229,0 -0.24077,0.10848 -0.24077,0.24077 v 1.73038 c 0,0.13229 0.10848,0.24077 0.24077,0.24077 0.13229,0 0.24077,-0.10848 0.24077,-0.24077 z m -4.32593,0 v -1.73038 c 0,-0.13229 -0.10848,-0.24077 -0.24077,-0.24077 -0.1323,0 -0.24078,0.10848 -0.24078,0.24077 v 1.73038 c 0,0.13229 0.10848,0.24077 0.24078,0.24077 0.13493,0 0.24077,-0.10848 0.24077,-0.24077 z m 60.295892,-38.44661 c 0,-0.13229 -0.10848,-0.24077 -0.24077,-0.24077 H 89.683398 c -0.13229,0 -0.24077,0.10848 -0.24077,0.24077 0,0.13229 0.10848,0.24077 0.24077,0.24077 h 43.254082 c 0.13229,0 0.24077,-0.10848 0.24077,-0.24077 z m 0,-1.63512 c 0,-0.13229 -0.10848,-0.24077 -0.24077,-0.24077 H 89.683398 c -0.13229,0 -0.24077,0.10848 -0.24077,0.24077 0,0.13229 0.10848,0.24077 0.24077,0.24077 h 43.254082 c 0.13229,0 0.24077,-0.10583 0.24077,-0.24077 z m -1.68275,-3.1459 c 0,-0.13229 -0.10848,-0.24077 -0.24077,-0.24077 H 91.384668 c -0.13229,0 -0.24077,0.10848 -0.24077,0.24077 0,0.13229 0.10848,0.24077 0.24077,0.24077 h 39.870062 c 0.13229,0 0.24077,-0.10848 0.24077,-0.24077 z m 1.68275,10.09121 c 0,-0.13229 -0.10848,-0.24077 -0.24077,-0.24077 H 89.683398 c -0.13229,0 -0.24077,0.10848 -0.24077,0.24077 0,0.13229 0.10848,0.24077 0.24077,0.24077 h 43.254082 c 0.13229,0 0.24077,-0.10848 0.24077,-0.24077 z m -28.11462,2.3786 c 0,-0.13229 -0.10848,-0.24077 -0.24077,-0.24077 H 91.847688 c -0.13229,0 -0.24077,0.10848 -0.24077,0.24077 0,0.1323 0.10848,0.24077 0.24077,0.24077 h 12.975172 c 0.13229,0 0.24077,-0.10847 0.24077,-0.24077 z m 4.80483,-10.07533 v -1.63512 c 0,-0.1323 -0.10848,-0.24077 -0.24077,-0.24077 -0.13229,0 -0.24077,0.10847 -0.24077,0.24077 v 1.63512 c 0,0.13229 0.10848,0.24077 0.24077,0.24077 0.13229,0 0.24077,-0.10848 0.24077,-0.24077 z m -1.44198,6.97706 v -3.84439 c 0,-0.13229 -0.10848,-0.24077 -0.24077,-0.24077 -0.13229,0 -0.24077,0.10848 -0.24077,0.24077 v 3.84439 c 0,0.13229 0.10848,0.24077 0.24077,0.24077 0.13229,0 0.24077,-0.10848 0.24077,-0.24077 z m -8.14917,6.46377 c 0,-0.13229 -0.10848,-0.24077 -0.24077,-0.24077 h -6.246812 c -0.13229,0 -0.24077,0.10848 -0.24077,0.24077 0,0.1323 0.10848,0.24077 0.24077,0.24077 h 6.246812 c 0.13229,0 0.24077,-0.10847 0.24077,-0.24077 z m 14.63675,-17.9996 c 0,-0.13229 -0.10848,-0.24077 -0.24077,-0.24077 h -6.53521 c -0.13229,0 -0.24077,0.10848 -0.24077,0.24077 0,0.13229 0.10848,0.24077 0.24077,0.24077 h 6.53521 c 0.13494,0 0.24077,-0.10583 0.24077,-0.24077 z m -1.6801,-9.60967 c 0,-0.13229 -0.10848,-0.24077 -0.24077,-0.24077 h -3.36286 c -0.13229,0 -0.24077,0.10848 -0.24077,0.24077 0,0.1323 0.10848,0.24077 0.24077,0.24077 h 3.36286 c 0.13229,-0.003 0.24077,-0.10847 0.24077,-0.24077 z m -4.49792,9.41917 v -3.15119 l 0.89959,-5.06677 h 1.7436 c 0.13229,0 0.24077,-0.10848 0.24077,-0.24077 0,-0.13229 -0.10848,-0.24077 -0.24077,-0.24077 h -1.94733 c -0.11642,0 -0.21696,0.0847 -0.23548,0.19844 l -0.93663,5.28637 c -0.003,0.0132 -0.003,0.0291 -0.003,0.0423 v 3.17235 c 0,0.13229 0.10848,0.24077 0.24077,0.24077 0.12964,0 0.23812,-0.10848 0.23812,-0.24077 z m -1.97114,-3.40254 0.24077,-6.10394 1.43669,-6.37381 c 0.0291,-0.12965 -0.0529,-0.25929 -0.18257,-0.2884 -0.12964,-0.0291 -0.25929,0.0529 -0.28839,0.18257 l -1.44198,6.39497 c -0.003,0.0132 -0.005,0.0291 -0.005,0.0423 l -0.24077,6.1251 c -0.005,0.13229 0.0979,0.24342 0.23018,0.24871 h 0.0106 c 0.12964,0.003 0.23548,-0.0979 0.24077,-0.22754 z m -3.31523,-14.93308 c 0,-0.1323 -0.10848,-0.24078 -0.24077,-0.24078 h -1.92352 c -0.1323,0 -0.24077,0.10848 -0.24077,0.24078 0,0.13229 0.10847,0.24077 0.24077,0.24077 h 1.92352 c 0.13229,0 0.24077,-0.10848 0.24077,-0.24077 z m -4.13279,14.65791 v -3.28612 -3.67242 l 2.15106,-6.42144 c 0.0423,-0.127 -0.0265,-0.26193 -0.15081,-0.30427 -0.127,-0.0423 -0.26194,0.0265 -0.30427,0.15081 l -2.16165,6.45848 c -0.008,0.0238 -0.0132,0.0503 -0.0132,0.0767 v 3.71211 3.28612 c 0,0.13229 0.10848,0.24077 0.24077,0.24077 0.12965,0 0.23813,-0.10848 0.23813,-0.24077 z m -7.691442,6.00869 v -2.05581 l 2.80458,-2.57175 c 0.0979,-0.09 0.10319,-0.24077 0.0159,-0.33867 -0.09,-0.0979 -0.24077,-0.10319 -0.33867,-0.0159 l -2.88396,2.64318 c -0.0503,0.045 -0.0767,0.10848 -0.0767,0.17727 v 2.16165 c 0,0.13229 0.10848,0.24077 0.24077,0.24077 0.1323,-0.003 0.23813,-0.10848 0.23813,-0.24077 z m 4.325942,-1.63513 c 0,-0.13229 -0.10848,-0.24077 -0.24077,-0.24077 h -2.883962 c -0.13229,0 -0.24077,0.10848 -0.24077,0.24077 0,0.1323 0.10848,0.24078 0.24077,0.24078 h 2.883962 c 0.13229,0 0.24077,-0.10848 0.24077,-0.24078 z m 4.13279,-4.13279 c 0,-0.13229 -0.10848,-0.24077 -0.24077,-0.24077 h -1.44198 c -0.13229,0 -0.24077,0.10848 -0.24077,0.24077 0,0.13229 0.10848,0.24077 0.24077,0.24077 h 1.44198 c 0.13493,0 0.24077,-0.10848 0.24077,-0.24077 z m 4.51908,3.65125 v -3.39196 l 0.93398,-5.2652 c 0.0238,-0.12965 -0.0635,-0.25665 -0.19579,-0.27782 -0.12965,-0.0238 -0.25665,0.0635 -0.27781,0.1958 l -0.93663,5.28637 c -0.003,0.0132 -0.003,0.0291 -0.003,0.0423 v 3.41313 c 0,0.13229 0.10847,0.24077 0.24077,0.24077 0.12964,-0.003 0.23812,-0.11113 0.23812,-0.24342 z m 3.8444,-3.62743 c 0,-0.1323 -0.10848,-0.24078 -0.24077,-0.24078 h -1.63513 c -0.13229,0 -0.24077,0.10848 -0.24077,0.24078 0,0.13229 0.10848,0.24077 0.24077,0.24077 h 1.63513 c 0.13229,0 0.24077,-0.10848 0.24077,-0.24077 z m 4.064,0 c 0,-0.1323 -0.10848,-0.24078 -0.24077,-0.24078 h -1.92352 c -0.1323,0 -0.24078,0.10848 -0.24078,0.24078 0,0.13229 0.10848,0.24077 0.24078,0.24077 h 1.92352 c 0.13229,0 0.24077,-0.10848 0.24077,-0.24077 z m -42.031712,25.92652 c 0,-0.1323 -0.10848,-0.24078 -0.24077,-0.24078 h -5.76792 c -0.13229,0 -0.24077,0.10848 -0.24077,0.24078 0,0.13229 0.10848,0.24077 0.24077,0.24077 h 5.76792 c 0.13229,0 0.24077,-0.10584 0.24077,-0.24077 z m 37.004622,2.88395 c 0,-0.13229 -0.10848,-0.24077 -0.24077,-0.24077 h -9.13077 c -0.13229,0 -0.24077,0.10848 -0.24077,0.24077 0,0.1323 0.10848,0.24077 0.24077,0.24077 h 9.13077 c 0.13494,0 0.24077,-0.10847 0.24077,-0.24077 z m 1.44198,-2.88395 c 0,-0.1323 -0.10848,-0.24078 -0.24077,-0.24078 h -8.65187 c -0.13229,0 -0.24077,0.10848 -0.24077,0.24078 0,0.13229 0.10848,0.24077 0.24077,0.24077 h 8.65187 c 0.13494,0 0.24077,-0.10584 0.24077,-0.24077 z m 10.5754,-4.3233 c 0,-0.13229 -0.10848,-0.24077 -0.24077,-0.24077 h -15.85913 c -0.13229,0 -0.24077,0.10848 -0.24077,0.24077 0,0.1323 0.10848,0.24077 0.24077,0.24077 h 15.85913 c 0.13229,0 0.24077,-0.10847 0.24077,-0.24077 z m -5.76792,-5.7441 c 0,-0.13229 -0.10848,-0.24077 -0.24077,-0.24077 h -4.32594 c -0.13229,0 -0.24077,0.10848 -0.24077,0.24077 0,0.13229 0.10848,0.24077 0.24077,0.24077 h 4.32594 c 0.13229,0 0.24077,-0.10848 0.24077,-0.24077 z m -40.851662,12.95135 c 0,-0.13229 -0.10848,-0.24077 -0.24077,-0.24077 h -7.20725 c -0.1323,0 -0.24078,0.10848 -0.24078,0.24077 0,0.1323 0.10848,0.24077 0.24078,0.24077 h 7.20989 c 0.13229,0 0.23813,-0.10847 0.23813,-0.24077 z m 12.97781,-2.88395 c 0,-0.1323 -0.10848,-0.24078 -0.24077,-0.24078 h -6.24681 c -0.1323,0 -0.24078,0.10848 -0.24078,0.24078 0,0.13229 0.10848,0.24077 0.24078,0.24077 h 6.24681 c 0.13229,0 0.24077,-0.10584 0.24077,-0.24077 z m -0.48154,-2.59292 c 0,-0.13229 -0.10848,-0.24077 -0.24077,-0.24077 h -7.6888 c -0.13229,0 -0.24077,0.10848 -0.24077,0.24077 0,0.13229 0.10848,0.24077 0.24077,0.24077 h 7.6888 c 0.13229,-0.003 0.24077,-0.10848 0.24077,-0.24077 z m -12.97517,0 c 0,-0.13229 -0.10848,-0.24077 -0.24077,-0.24077 h -7.30515 c -0.13229,0 -0.24077,0.10848 -0.24077,0.24077 0,0.13229 0.10848,0.24077 0.24077,0.24077 h 7.30515 c 0.13229,-0.003 0.24077,-0.10848 0.24077,-0.24077 z m 10.09121,-2.69346 c 0,-0.13229 -0.10848,-0.24077 -0.24077,-0.24077 h -14.89869 c -0.13229,0 -0.24077,0.10848 -0.24077,0.24077 0,0.13229 0.10848,0.24077 0.24077,0.24077 h 14.89869 c 0.13229,0 0.24077,-0.10583 0.24077,-0.24077 z m -1.44198,-2.11402 c 0,-0.13229 -0.10848,-0.24077 -0.24077,-0.24077 h -12.01473 c -0.13229,0 -0.24077,0.10848 -0.24077,0.24077 0,0.13229 0.10848,0.24077 0.24077,0.24077 h 12.01473 c 0.13494,0 0.24077,-0.10848 0.24077,-0.24077 z m -4.54025,11.05429 c 0,-0.13229 -0.10848,-0.24077 -0.24077,-0.24077 h -2.88396 c -0.13229,0 -0.24077,0.10848 -0.24077,0.24077 0,0.13229 0.10848,0.24077 0.24077,0.24077 h 2.88396 c 0.13229,0 0.24077,-0.10848 0.24077,-0.24077 z m -0.48154,-1.92352 c 0,-0.13229 -0.10848,-0.24077 -0.24077,-0.24077 h -1.92352 c -0.1323,0 -0.24077,0.10848 -0.24077,0.24077 0,0.13229 0.10847,0.24077 0.24077,0.24077 h 1.92352 c 0.13229,0 0.24077,-0.10583 0.24077,-0.24077 z m -0.48154,-2.20927 c 0,-0.13229 -0.10848,-0.24077 -0.24077,-0.24077 h -0.96044 c -0.13229,0 -0.24077,0.10848 -0.24077,0.24077 0,0.13229 0.10848,0.24077 0.24077,0.24077 h 0.96044 c 0.13493,0 0.24077,-0.10848 0.24077,-0.24077 z m -6.5114,9.41917 v -1.48961 h 1.68275 c 0.13229,0 0.24077,-0.10848 0.24077,-0.24077 0,-0.13229 -0.10848,-0.24077 -0.24077,-0.24077 h -1.92352 c -0.13229,0 -0.24077,0.10848 -0.24077,0.24077 v 1.73038 c 0,0.13229 0.10848,0.24077 0.24077,0.24077 0.13229,0 0.24077,-0.10848 0.24077,-0.24077 z m 15.66863,-1.73038 c 0,-0.13229 -0.10848,-0.24077 -0.24078,-0.24077 h -5.57477 c -0.13229,0 -0.24077,0.10848 -0.24077,0.24077 0,0.13229 0.10848,0.24077 0.24077,0.24077 h 5.57477 c 0.1323,0 0.24078,-0.10848 0.24078,-0.24077 z m -1.25148,1.94733 c 0,-0.13229 -0.10848,-0.24077 -0.24077,-0.24077 h -2.88396 c -0.13229,0 -0.24077,0.10848 -0.24077,0.24077 0,0.1323 0.10848,0.24078 0.24077,0.24078 h 2.88396 c 0.13493,0 0.24077,-0.10848 0.24077,-0.24078 z m -14.89869,1.73038 c 0,-0.13229 -0.10848,-0.24077 -0.24077,-0.24077 h -1.68275 l 0.62441,-1.24883 h 2.01878 c 0.13229,0 0.24077,-0.10848 0.24077,-0.24078 0,-0.13229 -0.10848,-0.24077 -0.24077,-0.24077 h -2.16694 c -0.09,0 -0.17463,0.0503 -0.21431,0.1323 l -0.86519,1.73037 c -0.037,0.0741 -0.0344,0.16404 0.0106,0.23283 0.045,0.0714 0.12171,0.11377 0.20373,0.11377 h 2.07169 c 0.13494,0.003 0.24077,-0.10583 0.24077,-0.23812 z m 12.97781,6.89504 c 0,-0.13229 -0.10848,-0.24077 -0.24077,-0.24077 h -13.64985 c -0.1323,0 -0.24077,0.10848 -0.24077,0.24077 0,0.13229 0.10847,0.24077 0.24077,0.24077 h 13.64985 c 0.13229,0 0.24077,-0.10848 0.24077,-0.24077 z m -13.64985,1.25148 v -7.97719 c 0,-0.13229 -0.10848,-0.24077 -0.24077,-0.24077 -0.1323,0 -0.24077,0.10848 -0.24077,0.24077 v 7.97719 c 0,0.13229 0.10847,0.24077 0.24077,0.24077 0.13229,0 0.24077,-0.10848 0.24077,-0.24077 z m 8.84237,-4.80748 c 0,-0.13229 -0.10848,-0.24077 -0.24077,-0.24077 h -3.36285 c -0.13229,0 -0.24077,0.10848 -0.24077,0.24077 0,0.13229 0.10848,0.24077 0.24077,0.24077 h 3.36285 c 0.13494,0 0.24077,-0.10848 0.24077,-0.24077 z m 4.34975,-2.18546 c 0,-0.13229 -0.10848,-0.24077 -0.24077,-0.24077 h -12.01473 c -0.13229,0 -0.24077,0.10848 -0.24077,0.24077 0,0.13229 0.10848,0.24077 0.24077,0.24077 h 12.01473 c 0.13494,0 0.24077,-0.10848 0.24077,-0.24077 z m -7.23106,4.78102 v -2.59556 c 0,-0.13229 -0.10848,-0.24077 -0.24077,-0.24077 -0.13229,0 -0.24077,0.10848 -0.24077,0.24077 v 2.59556 c 0,0.1323 0.10848,0.24077 0.24077,0.24077 0.13229,0 0.24077,-0.10847 0.24077,-0.24077 z m 2.40242,0 v -2.59556 c 0,-0.13229 -0.10848,-0.24077 -0.24077,-0.24077 -0.1323,0 -0.24078,0.10848 -0.24078,0.24077 v 2.59556 c 0,0.1323 0.10848,0.24077 0.24078,0.24077 0.13229,0 0.24077,-0.10847 0.24077,-0.24077 z M 111.62,166.45759 c 0,-0.13229 -0.10848,-0.24077 -0.24077,-0.24077 h -2.21192 c -0.13229,0 -0.24077,0.10848 -0.24077,0.24077 0,0.13229 0.10848,0.24077 0.24077,0.24077 h 2.21192 c 0.13229,0 0.24077,-0.10848 0.24077,-0.24077 z m -1.25148,1.24884 v -1.24884 c 0,-0.13229 -0.10848,-0.24077 -0.24077,-0.24077 -0.13229,0 -0.24077,0.10848 -0.24077,0.24077 v 1.24884 c 0,0.13229 0.10848,0.24077 0.24077,0.24077 0.13494,0 0.24077,-0.10584 0.24077,-0.24077 z m -1.92087,-1.24884 c 0,-0.13229 -0.10848,-0.24077 -0.24077,-0.24077 H 94.750168 c -0.13229,0 -0.24077,0.10848 -0.24077,0.24077 0,0.13229 0.10848,0.24077 0.24077,0.24077 h 13.456712 c 0.13229,0 0.24077,-0.10848 0.24077,-0.24077 z M 96.91181,211.6352 c 0,-0.1323 -0.10848,-0.24077 -0.24077,-0.24077 H 33.713438 c -0.132292,0 -0.240771,0.10847 -0.240771,0.24077 0,0.13229 0.108479,0.24077 0.240771,0.24077 H 96.67104 c 0.13494,-0.003 0.24077,-0.10848 0.24077,-0.24077 z m 0,-11.53584 c 0,-0.13229 -0.10848,-0.24077 -0.24077,-0.24077 H 33.713438 c -0.132292,0 -0.240771,0.10848 -0.240771,0.24077 0,0.13229 0.108479,0.24077 0.240771,0.24077 H 96.67104 c 0.13494,0 0.24077,-0.10848 0.24077,-0.24077 z m -54.305726,10.0965 v -8.65187 c 0,-0.13229 -0.10848,-0.24077 -0.240771,-0.24077 -0.132292,0 -0.240771,0.10848 -0.240771,0.24077 v 8.65187 c 0,0.13229 0.108479,0.24077 0.240771,0.24077 0.132291,-0.003 0.240771,-0.10848 0.240771,-0.24077 z m 13.935604,0 v -8.65187 c 0,-0.13229 -0.10848,-0.24077 -0.240771,-0.24077 -0.132292,0 -0.240771,0.10848 -0.240771,0.24077 v 8.65187 c 0,0.13229 0.108479,0.24077 0.240771,0.24077 0.132291,0 0.240771,-0.10848 0.240771,-0.24077 z m 14.89869,0 v -8.65187 c 0,-0.13229 -0.10848,-0.24077 -0.24077,-0.24077 -0.1323,0 -0.24077,0.10848 -0.24077,0.24077 v 8.65187 c 0,0.13229 0.10847,0.24077 0.24077,0.24077 0.13229,0 0.24077,-0.10848 0.24077,-0.24077 z m 10.09385,0 v -8.65187 c 0,-0.13229 -0.10848,-0.24077 -0.24077,-0.24077 -0.13229,0 -0.24077,0.10848 -0.24077,0.24077 v 8.65187 c 0,0.13229 0.10848,0.24077 0.24077,0.24077 0.13229,-0.003 0.24077,-0.10848 0.24077,-0.24077 z m 14.417152,0 v -8.65187 c 0,-0.13229 -0.10848,-0.24077 -0.24077,-0.24077 -0.1323,0 -0.240782,0.10848 -0.240782,0.24077 v 8.65187 c 0,0.13229 0.108482,0.24077 0.240782,0.24077 0.13229,-0.003 0.24077,-0.10848 0.24077,-0.24077 z m -61.997171,1.44198 v -11.53319 c 0,-0.13229 -0.108479,-0.24077 -0.240771,-0.24077 -0.132292,0 -0.240771,0.10848 -0.240771,0.24077 v 11.53319 c 0,0.13229 0.108479,0.24077 0.240771,0.24077 0.134937,-0.003 0.240771,-0.10848 0.240771,-0.24077 z M 82.494668,197.5038 v -14.89869 c 0,-0.13229 -0.10848,-0.24077 -0.24077,-0.24077 -0.13229,0 -0.24077,0.10848 -0.24077,0.24077 v 14.89869 c 0,0.13229 0.10848,0.24077 0.24077,0.24077 0.13229,0 0.24077,-0.10848 0.24077,-0.24077 z m -14.89869,0.19315 v -15.09184 c 0,-0.13229 -0.10848,-0.24077 -0.24077,-0.24077 -0.13229,0 -0.24077,0.10848 -0.24077,0.24077 v 15.09184 c 0,0.13229 0.10848,0.24077 0.24077,0.24077 0.13494,0 0.24077,-0.10848 0.24077,-0.24077 z M 43.566521,197.5038 v -5.57477 c 0,-0.13229 -0.108479,-0.24077 -0.240771,-0.24077 -0.132291,0 -0.240771,0.10848 -0.240771,0.24077 v 5.57477 c 0,0.13229 0.10848,0.24077 0.240771,0.24077 0.132292,0 0.240771,-0.10848 0.240771,-0.24077 z m 53.826839,0.19315 v -15.85913 c 0,-0.13229 -0.10848,-0.24077 -0.24078,-0.24077 -0.13229,0 -0.24077,0.10848 -0.24077,0.24077 v 15.85913 c 0,0.13229 0.10848,0.24077 0.24077,0.24077 0.1323,0 0.24078,-0.10848 0.24078,-0.24077 z m 82.90189,-15.85913 c 0,-0.13229 -0.10848,-0.24077 -0.24077,-0.24077 H 42.365313 c -0.132292,0 -0.240771,0.10848 -0.240771,0.24077 0,0.13229 0.108479,0.24077 0.240771,0.24077 H 180.05448 c 0.13494,0 0.24077,-0.10848 0.24077,-0.24077 z m -1.2356,-1.92352 c 0,-0.13229 -0.10848,-0.24077 -0.24077,-0.24077 H 43.630021 c -0.132292,0 -0.240771,0.10848 -0.240771,0.24077 0,0.13229 0.108479,0.24077 0.240771,0.24077 H 178.81888 c 0.13229,0 0.24077,-0.10848 0.24077,-0.24077 z m -136.3689,1.97644 1.143,-1.80711 c 0.07144,-0.11112 0.03704,-0.25929 -0.07408,-0.33073 -0.111125,-0.0714 -0.259292,-0.037 -0.330729,0.0741 l -1.143,1.8071 c -0.07144,0.11113 -0.03704,0.25929 0.07408,0.33073 0.03969,0.0238 0.08467,0.037 0.127,0.037 0.07937,0 0.15875,-0.037 0.203729,-0.11112 z m 9.046104,-10.81881 c 0,-0.1323 -0.108479,-0.24078 -0.24077,-0.24078 h -1.44198 c -0.132291,0 -0.24077,0.10848 -0.24077,0.24078 0,0.13229 0.108479,0.24077 0.24077,0.24077 h 1.44198 c 0.132291,0 0.24077,-0.10848 0.24077,-0.24077 z m -0.481541,-0.96044 c 0,-0.13229 -0.108479,-0.24077 -0.240771,-0.24077 H 50.533 c -0.132291,0 -0.240771,0.10848 -0.240771,0.24077 0,0.13229 0.10848,0.24077 0.240771,0.24077 h 0.481542 c 0.134937,-0.003 0.240771,-0.10848 0.240771,-0.24077 z m 46.138047,21.81754 c 0,-0.13229 -0.10848,-0.24077 -0.24078,-0.24077 H 43.32575 c -0.132291,0 -0.240771,0.10848 -0.240771,0.24077 0,0.13229 0.10848,0.24077 0.240771,0.24077 h 53.82683 c 0.1323,0 0.24078,-0.10848 0.24078,-0.24077 z m -19.224632,-3.36285 c 0,-0.1323 -0.10848,-0.24078 -0.24077,-0.24078 h -6.24681 c -0.13229,0 -0.24077,0.10848 -0.24077,0.24078 0,0.13229 0.10848,0.24077 0.24077,0.24077 h 6.24681 c 0.13494,0 0.24077,-0.10848 0.24077,-0.24077 z m -0.96044,3.36285 v -3.17235 c 0,-0.1323 -0.10848,-0.24078 -0.24077,-0.24078 -0.13229,0 -0.24077,0.10848 -0.24077,0.24078 v 3.17235 c 0,0.13229 0.10848,0.24077 0.24077,0.24077 0.13229,0 0.24077,-0.10848 0.24077,-0.24077 z m -4.32593,0 v -3.17235 c 0,-0.1323 -0.10848,-0.24078 -0.24077,-0.24078 -0.1323,0 -0.24078,0.10848 -0.24078,0.24078 v 3.17235 c 0,0.13229 0.10848,0.24077 0.24078,0.24077 0.13493,0 0.24077,-0.10848 0.24077,-0.24077 z m 4.80748,5.40544 v -5.11704 c 0,-0.1323 -0.10848,-0.24078 -0.24078,-0.24078 -0.13229,0 -0.24077,0.10848 -0.24077,0.24078 v 5.11704 c 0,0.13229 0.10848,0.24077 0.24077,0.24077 0.1323,0 0.24078,-0.10848 0.24078,-0.24077 z m -5.28638,0 v -5.11704 c 0,-0.1323 -0.10848,-0.24078 -0.24077,-0.24078 -0.13229,0 -0.24077,0.10848 -0.24077,0.24078 v 5.11704 c 0,0.13229 0.10848,0.24077 0.24077,0.24077 0.13229,0 0.24077,-0.10848 0.24077,-0.24077 z m 18.26154,-8.76829 c 0,-0.1323 -0.10848,-0.24078 -0.24077,-0.24078 h -2.64319 c -0.13229,0 -0.24077,0.10848 -0.24077,0.24078 0,0.13229 0.10848,0.24077 0.24077,0.24077 h 2.64319 c 0.13229,0 0.24077,-0.10848 0.24077,-0.24077 z m -0.48154,2.64318 v -2.50031 c 0,-0.13229 -0.10848,-0.24077 -0.24077,-0.24077 -0.13229,0 -0.24077,0.10848 -0.24077,0.24077 v 2.50031 c 0,0.13229 0.10848,0.24077 0.24077,0.24077 0.13229,0 0.24077,-0.10848 0.24077,-0.24077 z m -1.6801,0 v -2.50031 c 0,-0.13229 -0.10848,-0.24077 -0.24077,-0.24077 -0.1323,0 -0.24078,0.10848 -0.24078,0.24077 v 2.50031 c 0,0.13229 0.10848,0.24077 0.24078,0.24077 0.13229,0 0.24077,-0.10848 0.24077,-0.24077 z m 2.16164,5.52715 v -4.61433 c 0,-0.1323 -0.10848,-0.24078 -0.24077,-0.24078 -0.13229,0 -0.24077,0.10848 -0.24077,0.24078 v 4.61433 c 0,0.13229 0.10848,0.24077 0.24077,0.24077 0.13229,0 0.24077,-0.10848 0.24077,-0.24077 z m -2.64319,0 v -4.80483 c 0,-0.1323 -0.10847,-0.24078 -0.24077,-0.24078 -0.13229,0 -0.24077,0.10848 -0.24077,0.24078 v 4.80483 c 0,0.13229 0.10848,0.24077 0.24077,0.24077 0.1323,0 0.24077,-0.10848 0.24077,-0.24077 z m -25.95297,-8.17033 c 0,-0.1323 -0.10848,-0.24078 -0.24078,-0.24078 h -2.64318 c -0.13229,0 -0.24077,0.10848 -0.24077,0.24078 0,0.13229 0.10848,0.24077 0.24077,0.24077 h 2.64318 c 0.13494,0 0.24078,-0.10848 0.24078,-0.24077 z m -0.4789,2.69081 v -2.69081 c 0,-0.1323 -0.10848,-0.24078 -0.24077,-0.24078 -0.13229,0 -0.24077,0.10848 -0.24077,0.24078 v 2.69081 c 0,0.13229 0.10848,0.24077 0.24077,0.24077 0.13229,0 0.24077,-0.10848 0.24077,-0.24077 z m -1.68275,0 v -2.40242 c 0,-0.13229 -0.10848,-0.24077 -0.24077,-0.24077 -0.13229,0 -0.24077,0.10848 -0.24077,0.24077 v 2.40242 c 0,0.13229 0.10848,0.24077 0.24077,0.24077 0.13229,0 0.24077,-0.10848 0.24077,-0.24077 z m 2.16165,6.32354 v -5.3631 c 0,-0.1323 -0.10848,-0.24078 -0.24078,-0.24078 -0.13229,0 -0.24077,0.10848 -0.24077,0.24078 v 5.3631 c 0,0.13229 0.10848,0.24077 0.24077,0.24077 0.1323,0 0.24078,-0.10848 0.24078,-0.24077 z m -2.64319,0 v -5.3631 c 0,-0.1323 -0.10848,-0.24078 -0.24077,-0.24078 -0.13229,0 -0.24077,0.10848 -0.24077,0.24078 v 5.3631 c 0,0.13229 0.10848,0.24077 0.24077,0.24077 0.13229,0 0.24077,-0.10848 0.24077,-0.24077 z m -24.02946,10.69181 v -4.80483 c 0,-0.13229 -0.108479,-0.24077 -0.240771,-0.24077 -0.132292,0 -0.240771,0.10848 -0.240771,0.24077 v 4.80483 c 0,0.13229 0.108479,0.24077 0.240771,0.24077 0.134938,0 0.240771,-0.10848 0.240771,-0.24077 z m 5.527146,-0.24077 h -4.325938 c -0.132291,0 -0.240771,-0.10848 -0.240771,-0.24077 v -3.8444 c 0,-0.13229 0.10848,-0.24077 0.240771,-0.24077 h 4.325938 c 0.132291,0 0.240771,0.10848 0.240771,0.24077 v 3.8444 c 0,0.13494 -0.10848,0.24077 -0.240771,0.24077 z m -4.085167,-0.47889 h 3.844396 v -3.36286 H 36.838167 Z M 106.68023,106.65647 c -0.13229,0 -0.23812,-0.10584 -0.23812,-0.23813 v -13.570482 -0.003 -4.51115 c 0,-0.0979 0.0608,-0.18785 0.15345,-0.22225 0.0926,-0.0344 0.1958,-0.0106 0.26194,0.0635 l 3.79942,4.27567 c 0.0556,0.0635 0.0741,0.15346 0.0476,0.23283 -0.0265,0.0794 -0.0952,0.14023 -0.17727,0.15875 l -1.49754,0.30692 0.49477,2.25954 c 0.0238,0.10319 -0.0265,0.20902 -0.11906,0.25929 -0.0926,0.0503 -0.20638,0.0344 -0.28311,-0.0397 l -2.20662,-2.20662 v 12.998982 c 0,0.12964 -0.10583,0.23548 -0.23548,0.23548 z m 0.23548,-13.906502 1.9685,1.9685 -0.37306,-1.70392 c -0.0132,-0.0609 -0.003,-0.127 0.0317,-0.17992 0.0344,-0.0529 0.09,-0.09 0.15081,-0.10318 l 1.33085,-0.27252 -3.1115,-3.50044 v 3.79148 z M 105.85208,197.2154 c 0,-0.13229 -0.10847,-0.24077 -0.24077,-0.24077 h -3.36285 c -0.13229,0 -0.24077,0.10848 -0.24077,0.24077 0,0.1323 0.10848,0.24078 0.24077,0.24078 h 3.36285 c 0.1323,0 0.24077,-0.10848 0.24077,-0.24078 z m 8.60161,0 c 0,-0.13229 -0.10848,-0.24077 -0.24077,-0.24077 h -5.72029 c -0.1323,0 -0.24077,0.10848 -0.24077,0.24077 0,0.1323 0.10847,0.24078 0.24077,0.24078 h 5.72029 c 0.13494,0 0.24077,-0.10848 0.24077,-0.24078 z m -70.405627,11.05694 v -4.80483 c 0,-0.13229 -0.108479,-0.24077 -0.240771,-0.24077 -0.132292,0 -0.240771,0.10848 -0.240771,0.24077 v 4.80483 c 0,0.13229 0.108479,0.24077 0.240771,0.24077 0.132292,0 0.240771,-0.10848 0.240771,-0.24077 z m 1.441979,0 v -4.80483 c 0,-0.13229 -0.108479,-0.24077 -0.240771,-0.24077 -0.132292,0 -0.240771,0.10848 -0.240771,0.24077 v 4.80483 c 0,0.13229 0.108479,0.24077 0.240771,0.24077 0.132292,0 0.240771,-0.10848 0.240771,-0.24077 z m 1.441979,0 v -4.80483 c 0,-0.13229 -0.108479,-0.24077 -0.240771,-0.24077 -0.132291,0 -0.240771,0.10848 -0.240771,0.24077 v 4.80483 c 0,0.13229 0.10848,0.24077 0.240771,0.24077 0.132292,0 0.240771,-0.10848 0.240771,-0.24077 z m 1.441979,0 v -4.80483 c 0,-0.13229 -0.108479,-0.24077 -0.240771,-0.24077 -0.132291,0 -0.24077,0.10848 -0.24077,0.24077 v 4.80483 c 0,0.13229 0.108479,0.24077 0.24077,0.24077 0.132292,0 0.240771,-0.10848 0.240771,-0.24077 z m 6.006042,-0.24077 h -4.325938 c -0.132291,0 -0.24077,-0.10848 -0.24077,-0.24077 v -3.8444 c 0,-0.13229 0.108479,-0.24077 0.24077,-0.24077 h 4.325938 c 0.132292,0 0.240771,0.10848 0.240771,0.24077 v 3.8444 c 0,0.13494 -0.108479,0.24077 -0.240771,0.24077 z m -4.085167,-0.47889 h 3.844396 v -3.36286 h -3.844396 z m 8.651873,0.71966 v -4.80483 c 0,-0.13229 -0.10848,-0.24077 -0.24077,-0.24077 -0.13229,0 -0.24077,0.10848 -0.24077,0.24077 v 4.80483 c 0,0.13229 0.10848,0.24077 0.24077,0.24077 0.13229,0 0.24077,-0.10848 0.24077,-0.24077 z m 1.44198,0 v -4.80483 c 0,-0.13229 -0.10848,-0.24077 -0.24077,-0.24077 -0.13229,0 -0.24077,0.10848 -0.24077,0.24077 v 4.80483 c 0,0.13229 0.10848,0.24077 0.24077,0.24077 0.13229,0 0.24077,-0.10848 0.24077,-0.24077 z m 1.44198,0 v -4.80483 c 0,-0.13229 -0.10848,-0.24077 -0.24077,-0.24077 -0.13229,0 -0.24077,0.10848 -0.24077,0.24077 v 4.80483 c 0,0.13229 0.10848,0.24077 0.24077,0.24077 0.13229,0 0.24077,-0.10848 0.24077,-0.24077 z m 1.43933,0 v -4.80483 c 0,-0.13229 -0.10848,-0.24077 -0.24077,-0.24077 -0.13229,0 -0.24077,0.10848 -0.24077,0.24077 v 4.80483 c 0,0.13229 0.10848,0.24077 0.24077,0.24077 0.13494,0 0.24077,-0.10848 0.24077,-0.24077 z m 6.00869,-0.24077 h -4.32594 c -0.13229,0 -0.24077,-0.10848 -0.24077,-0.24077 v -3.8444 c 0,-0.13229 0.10848,-0.24077 0.24077,-0.24077 h 4.32594 c 0.13229,0 0.24077,0.10848 0.24077,0.24077 v 3.8444 c 0,0.13494 -0.10848,0.24077 -0.24077,0.24077 z m -4.08517,-0.47889 h 3.8444 v -3.36286 h -3.8444 z m 9.13078,0.71966 v -4.80483 c 0,-0.13229 -0.10848,-0.24077 -0.24078,-0.24077 -0.13229,0 -0.24077,0.10848 -0.24077,0.24077 v 4.80483 c 0,0.13229 0.10848,0.24077 0.24077,0.24077 0.13494,0 0.24078,-0.10848 0.24078,-0.24077 z m 1.44197,0 v -4.80483 c 0,-0.13229 -0.10847,-0.24077 -0.24077,-0.24077 -0.13229,0 -0.24077,0.10848 -0.24077,0.24077 v 4.80483 c 0,0.13229 0.10848,0.24077 0.24077,0.24077 0.1323,0 0.24077,-0.10848 0.24077,-0.24077 z m 1.44198,0 v -4.80483 c 0,-0.13229 -0.10848,-0.24077 -0.24077,-0.24077 -0.13229,0 -0.24077,0.10848 -0.24077,0.24077 v 4.80483 c 0,0.13229 0.10848,0.24077 0.24077,0.24077 0.13229,0 0.24077,-0.10848 0.24077,-0.24077 z m 1.44198,0 v -4.80483 c 0,-0.13229 -0.10848,-0.24077 -0.24077,-0.24077 -0.13229,0 -0.24077,0.10848 -0.24077,0.24077 v 4.80483 c 0,0.13229 0.10848,0.24077 0.24077,0.24077 0.13229,0 0.24077,-0.10848 0.24077,-0.24077 z m 4.80484,0 v -4.80483 c 0,-0.13229 -0.10848,-0.24077 -0.24077,-0.24077 -0.1323,0 -0.24078,0.10848 -0.24078,0.24077 v 4.80483 c 0,0.13229 0.10848,0.24077 0.24078,0.24077 0.13493,0 0.24077,-0.10848 0.24077,-0.24077 z m 1.44198,0 v -4.80483 c 0,-0.13229 -0.10848,-0.24077 -0.24078,-0.24077 -0.13229,0 -0.24077,0.10848 -0.24077,0.24077 v 4.80483 c 0,0.13229 0.10848,0.24077 0.24077,0.24077 0.13494,0 0.24078,-0.10848 0.24078,-0.24077 z m 8.17033,0 v -4.80483 c 0,-0.13229 -0.10848,-0.24077 -0.24077,-0.24077 -0.13229,0 -0.24077,0.10848 -0.24077,0.24077 v 4.80483 c 0,0.13229 0.10848,0.24077 0.24077,0.24077 0.13494,0 0.24077,-0.10848 0.24077,-0.24077 z m 1.44198,0 v -4.80483 c 0,-0.13229 -0.10848,-0.24077 -0.24077,-0.24077 -0.13229,0 -0.24077,0.10848 -0.24077,0.24077 v 4.80483 c 0,0.13229 0.10848,0.24077 0.24077,0.24077 0.13229,0 0.24077,-0.10848 0.24077,-0.24077 z m -3.60363,-0.24077 h -4.32593 c -0.1323,0 -0.24078,-0.10848 -0.24078,-0.24077 v -3.8444 c 0,-0.13229 0.10848,-0.24077 0.24078,-0.24077 h 4.32593 c 0.13229,0 0.24077,0.10848 0.24077,0.24077 v 3.8444 c 0,0.13494 -0.10848,0.24077 -0.24077,0.24077 z m -4.08516,-0.47889 h 3.84439 v -3.36286 h -3.84439 z m 10.572752,-9.85573 c 0,-0.1323 -0.10848,-0.24077 -0.24078,-0.24077 H 42.365313 c -0.132292,0 -0.240771,0.10847 -0.240771,0.24077 0,0.13229 0.108479,0.24077 0.240771,0.24077 H 97.15258 c 0.1323,0 0.24078,-0.10848 0.24078,-0.24077 z m 27.39495,3.84439 c 0,-0.13229 -0.10848,-0.24077 -0.24077,-0.24077 H 98.11567 c -0.13229,0 -0.24077,0.10848 -0.24077,0.24077 0,0.13229 0.10848,0.24077 0.24077,0.24077 h 26.43187 c 0.13229,0 0.24077,-0.10848 0.24077,-0.24077 z m -82.182226,-1.63512 v -2.21192 c 0,-0.13229 -0.10848,-0.24077 -0.240771,-0.24077 -0.132292,0 -0.240771,0.10848 -0.240771,0.24077 v 2.21192 c 0,0.13229 0.108479,0.24077 0.240771,0.24077 0.132291,0 0.240771,-0.10584 0.240771,-0.24077 z m 4.804833,-8.1915 v -6.99294 c 0,-0.13229 -0.108479,-0.24077 -0.240771,-0.24077 -0.132292,0 -0.240771,0.10848 -0.240771,0.24077 v 6.99294 c 0,0.13229 0.108479,0.24077 0.240771,0.24077 0.134938,0 0.240771,-0.10848 0.240771,-0.24077 z m -1.441979,0.21431 v -7.2099 c 0,-0.13229 -0.108479,-0.24077 -0.240771,-0.24077 -0.132292,0 -0.240771,0.10848 -0.240771,0.24077 v 7.2099 c 0,0.13229 0.108479,0.24077 0.240771,0.24077 0.134937,0 0.240771,-0.10848 0.240771,-0.24077 z m 51.424422,-7.4004 c 0,-0.13229 -0.10848,-0.24077 -0.24078,-0.24077 H 44.288834 c -0.132292,0 -0.240771,0.10848 -0.240771,0.24077 0,0.1323 0.108479,0.24077 0.240771,0.24077 H 97.15523 c 0.12965,0 0.23813,-0.10847 0.23813,-0.24077 z m -42.772547,13.16832 v -15.09184 c 0,-0.13229 -0.108479,-0.24077 -0.240771,-0.24077 -0.132292,0 -0.240771,0.10848 -0.240771,0.24077 v 15.09184 c 0,0.13229 0.108479,0.24077 0.240771,0.24077 0.132292,0 0.240771,-0.10848 0.240771,-0.24077 z m 23.069025,-9.32392 v -3.65125 c 0,-0.13229 -0.10848,-0.24077 -0.24078,-0.24077 -0.13229,0 -0.24077,0.10848 -0.24077,0.24077 v 3.65125 c 0,0.13229 0.10848,0.24077 0.24077,0.24077 0.1323,0 0.24078,-0.10848 0.24078,-0.24077 z m -5.30755,0 v -3.65125 c 0,-0.13229 -0.10848,-0.24077 -0.24077,-0.24077 -0.13229,0 -0.24077,0.10848 -0.24077,0.24077 v 3.65125 c 0,0.13229 0.10848,0.24077 0.24077,0.24077 0.13229,0 0.24077,-0.10848 0.24077,-0.24077 z m -19.203454,-4.13279 v -2.21192 c 0,-0.13229 -0.10848,-0.24077 -0.240771,-0.24077 -0.132292,0 -0.240771,0.10848 -0.240771,0.24077 v 2.21192 c 0,0.13229 0.108479,0.24077 0.240771,0.24077 0.132291,0 0.240771,-0.10848 0.240771,-0.24077 z m -4.325938,0 v -2.21192 c 0,-0.13229 -0.108479,-0.24077 -0.240771,-0.24077 -0.132291,0 -0.240771,0.10848 -0.240771,0.24077 v 2.21192 c 0,0.13229 0.10848,0.24077 0.240771,0.24077 0.134938,0 0.240771,-0.10848 0.240771,-0.24077 z m 5.286375,4.32594 c 0,-0.1323 -0.108479,-0.24078 -0.240771,-0.24078 h -6.246812 c -0.132292,0 -0.240771,0.10848 -0.240771,0.24078 0,0.13229 0.108479,0.24077 0.240771,0.24077 H 53.8985 c 0.134938,0 0.240771,-0.10848 0.240771,-0.24077 z m -0.960437,3.36285 v -3.17235 c 0,-0.1323 -0.10848,-0.24078 -0.240771,-0.24078 -0.132292,0 -0.240771,0.10848 -0.240771,0.24078 v 3.17235 c 0,0.13229 0.108479,0.24077 0.240771,0.24077 0.132291,0 0.240771,-0.10848 0.240771,-0.24077 z m -4.325938,0 v -3.17235 c 0,-0.1323 -0.108479,-0.24078 -0.240771,-0.24078 -0.132291,0 -0.240771,0.10848 -0.240771,0.24078 v 3.17235 c 0,0.13229 0.10848,0.24077 0.240771,0.24077 0.134938,0 0.240771,-0.10848 0.240771,-0.24077 z m 4.807479,5.57742 v -5.28638 c 0,-0.13229 -0.108479,-0.24077 -0.240771,-0.24077 -0.132291,0 -0.24077,0.10848 -0.24077,0.24077 v 5.28638 c 0,0.13229 0.108479,0.24077 0.24077,0.24077 0.132292,0 0.240771,-0.10848 0.240771,-0.24077 z m -5.286375,0 v -5.28638 c 0,-0.13229 -0.108479,-0.24077 -0.240771,-0.24077 -0.132291,0 -0.24077,0.10848 -0.24077,0.24077 v 5.28638 c 0,0.13229 0.108479,0.24077 0.24077,0.24077 0.132292,0 0.240771,-0.10848 0.240771,-0.24077 z m 5.286375,-9.13342 v -3.65125 c 0,-0.13229 -0.108479,-0.24077 -0.240771,-0.24077 -0.132291,0 -0.24077,0.10848 -0.24077,0.24077 v 3.65125 c 0,0.13229 0.108479,0.24077 0.24077,0.24077 0.132292,0 0.240771,-0.10848 0.240771,-0.24077 z m -5.286375,0 v -3.65125 c 0,-0.13229 -0.108479,-0.24077 -0.240771,-0.24077 -0.132291,0 -0.24077,0.10848 -0.24077,0.24077 v 3.65125 c 0,0.13229 0.108479,0.24077 0.24077,0.24077 0.132292,0 0.240771,-0.10848 0.240771,-0.24077 z m 57.61831,0.34131 c 0.082,-0.10319 0.0661,-0.254 -0.037,-0.33866 l -1.20121,-0.96044 c -0.0423,-0.0344 -0.0952,-0.0529 -0.15081,-0.0529 h -1.44198 c -0.0556,0 -0.10848,0.0185 -0.15081,0.0529 l -1.20121,0.96044 c -0.10319,0.082 -0.12171,0.23283 -0.037,0.33866 0.082,0.10319 0.23548,0.12171 0.33867,0.037 l 1.13506,-0.90752 h 1.27264 l 1.13507,0.90752 c 0.045,0.0344 0.0979,0.0529 0.15081,0.0529 0.0688,0.003 0.14023,-0.0291 0.18785,-0.09 z m 8.37671,0.0847 c 0.10319,-0.0847 0.11642,-0.23548 0.0318,-0.33867 l -1.80181,-2.16164 c -0.045,-0.0556 -0.11377,-0.0873 -0.18521,-0.0873 h -2.16164 c -0.0714,0 -0.14023,0.0317 -0.18521,0.0873 l -1.80182,2.16164 c -0.0847,0.10319 -0.0714,0.254 0.0317,0.33867 0.10319,0.0847 0.254,0.0714 0.33867,-0.0317 l 1.73038,-2.07698 h 1.93675 l 1.73037,2.07698 c 0.0476,0.0582 0.11642,0.0873 0.18521,0.0873 0.0503,0 0.10583,-0.0185 0.15081,-0.0556 z m -69.842061,-9.12548 v -2.78077 l 4.606395,-4.42648 h 2.844271 c 0.132292,0 0.240771,-0.10848 0.240771,-0.24077 0,-0.13229 -0.108479,-0.24077 -0.240771,-0.24077 h -2.939521 c -0.06085,0 -0.121708,0.0238 -0.166687,0.0661 l -4.749271,4.56671 c -0.04762,0.045 -0.07408,0.10848 -0.07408,0.17198 v 2.88396 c 0,0.13229 0.108479,0.24077 0.240771,0.24077 0.132291,0 0.238125,-0.10848 0.238125,-0.24077 z m 8.170333,-0.43127 v -3.62215 l 1.182687,-4.72546 1.889125,-2.36272 c 0.02646,-0.0344 0.04498,-0.0741 0.05027,-0.11642 l 0.478896,-3.33111 2.323038,-5.11439 h 3.53484 l 2.32569,5.11704 0.59266,3.302 c 0.003,0.0212 0.0106,0.0423 0.0212,0.0635 l 0.84402,1.7145 c 0.0582,0.11906 0.20373,0.16933 0.32279,0.10848 0.11906,-0.0582 0.16933,-0.20373 0.10848,-0.32279 l -0.82815,-1.68275 -0.59266,-3.29936 c -0.003,-0.0185 -0.0106,-0.0397 -0.0185,-0.0556 l -2.40242,-5.28637 c -0.0397,-0.0847 -0.12435,-0.14023 -0.2196,-0.14023 h -3.8444 c -0.0953,0 -0.17992,0.0556 -0.2196,0.14023 l -2.399776,5.28637 c -0.01058,0.0212 -0.01587,0.0423 -0.01852,0.0661 l -0.473605,3.29935 -1.881187,2.35215 c -0.02117,0.0265 -0.03704,0.0582 -0.04498,0.0926 l -1.201208,4.80483 c -0.0053,0.0185 -0.0079,0.0397 -0.0079,0.0582 v 3.65125 c 0,0.13229 0.108479,0.24077 0.240771,0.24077 0.132292,0.003 0.238125,-0.10583 0.238125,-0.23812 z m 8.651876,-20.66661 c 0,-0.13229 -0.10848,-0.24077 -0.24077,-0.24077 h -1.44198 c -0.13229,0 -0.24077,0.10848 -0.24077,0.24077 0,0.1323 0.10848,0.24078 0.24077,0.24078 h 1.44198 c 0.13229,0 0.24077,-0.10848 0.24077,-0.24078 z m 23.06902,4.99798 c 0,-0.13229 -0.10848,-0.24077 -0.24077,-0.24077 h -7.2099 c -0.13229,0 -0.24077,0.10848 -0.24077,0.24077 0,0.1323 0.10848,0.24077 0.24077,0.24077 h 7.2099 c 0.13229,0 0.24077,-0.10847 0.24077,-0.24077 z m -3.58246,7.95602 c 0,-0.13229 -0.10848,-0.24077 -0.24077,-0.24077 h -11.53319 c -0.13229,0 -0.24077,0.10848 -0.24077,0.24077 0,0.1323 0.10848,0.24078 0.24077,0.24078 h 11.53319 c 0.13494,0 0.24077,-0.10848 0.24077,-0.24078 z m -2.16164,-1.68275 c 0,-0.13229 -0.10848,-0.24077 -0.24078,-0.24077 h -7.20989 c -0.13229,0 -0.24077,0.10848 -0.24077,0.24077 0,0.1323 0.10848,0.24078 0.24077,0.24078 h 7.20989 c 0.1323,0 0.24078,-0.10848 0.24078,-0.24078 z m -0.48155,-1.94733 c 0,-0.13229 -0.10848,-0.24077 -0.24077,-0.24077 h -6.24681 c -0.13229,0 -0.24077,0.10848 -0.24077,0.24077 0,0.13229 0.10848,0.24077 0.24077,0.24077 h 6.24681 c 0.13494,0 0.24077,-0.10848 0.24077,-0.24077 z m -0.47889,-1.63248 c 0,-0.13229 -0.10848,-0.24077 -0.24077,-0.24077 h -5.28638 c -0.13229,0 -0.24077,0.10848 -0.24077,0.24077 0,0.13229 0.10848,0.24077 0.24077,0.24077 h 5.28638 c 0.13229,-0.003 0.24077,-0.10848 0.24077,-0.24077 z m -5.20436,-13.77156 c 0.11907,-0.0582 0.16669,-0.20373 0.10848,-0.32279 l -0.40216,-0.80698 1.79916,-1.79917 c 0.082,-0.082 0.0926,-0.20902 0.0291,-0.30427 l -0.381,-0.5715 0.90223,-1.08214 0.90223,1.08214 -0.381,0.5715 c -0.0741,0.11113 -0.045,0.25929 0.0661,0.33338 0.11113,0.0741 0.25929,0.045 0.33338,-0.0661 l 0.48154,-0.71967 c 0.0582,-0.0873 0.0529,-0.20637 -0.0159,-0.28839 l -1.20121,-1.44198 c -0.09,-0.10848 -0.27781,-0.10848 -0.37041,0 l -1.20121,1.44198 c -0.0688,0.082 -0.0741,0.19844 -0.0159,0.28839 l 0.37042,0.55828 -1.78329,1.78329 c -0.0741,0.0741 -0.0926,0.1852 -0.045,0.27781 l 0.48154,0.96044 c 0.0423,0.0847 0.127,0.13229 0.21431,0.13229 0.0371,0 0.0741,-0.008 0.10848,-0.0265 z m 39.761592,-50.8926 c 0,-0.1323 -0.10848,-0.24077 -0.24077,-0.24077 h -1.58221 l -0.85196,-0.85196 -0.35719,-1.071572 h 0.86783 c 0.082,0 0.1614,-0.0423 0.20373,-0.11377 0.045,-0.0714 0.0476,-0.15875 0.0106,-0.23283 l -0.43657,-0.87312 0.43392,-1.3044 0.9869,-1.18533 0.98689,1.18533 0.43392,1.3044 -0.43656,0.87312 c -0.037,0.0741 -0.0344,0.16404 0.0106,0.23283 0.045,0.0714 0.12171,0.11377 0.20373,0.11377 h 0.86783 l -0.37571,1.124482 c -0.0423,0.127 0.0265,0.26194 0.15082,0.30427 0.127,0.0423 0.26193,-0.0264 0.30427,-0.15081 l 0.48154,-1.441982 c 0.0238,-0.0741 0.0132,-0.15346 -0.0318,-0.21696 -0.045,-0.0635 -0.11642,-0.10054 -0.19579,-0.10054 h -0.80434 l 0.30692,-0.61383 c 0.0291,-0.0582 0.0344,-0.12171 0.0132,-0.18256 l -0.48154,-1.44198 c -0.0106,-0.0291 -0.0238,-0.0556 -0.0423,-0.0767 l -1.20121,-1.44198 c -0.09,-0.10848 -0.27782,-0.10848 -0.37042,0 l -1.20121,1.44198 c -0.0185,0.0238 -0.0344,0.0503 -0.0423,0.0767 l -0.48154,1.44198 c -0.0212,0.0609 -0.0159,0.127 0.0132,0.18256 l 0.30691,0.61383 H 108.908 c -0.0767,0 -0.15081,0.037 -0.19579,0.10054 -0.045,0.0635 -0.0582,0.14288 -0.0317,0.21696 l 0.48154,1.441982 c 0.0106,0.0344 0.0317,0.0688 0.0582,0.0926 l 0.96044,0.96043 c 0.045,0.045 0.10583,0.0714 0.16933,0.0714 h 1.68275 c 0.13229,0.003 0.23813,-0.10583 0.23813,-0.23812 z m -18.243022,76.86939 c 0,-0.13229 -0.10848,-0.24077 -0.24077,-0.24077 h -9.13078 c -0.13229,0 -0.24077,0.10848 -0.24077,0.24077 0,0.13229 0.10848,0.24077 0.24077,0.24077 h 9.13078 c 0.13493,0 0.24077,-0.10848 0.24077,-0.24077 z m -2.59292,-1.92087 c 0,-0.1323 -0.10848,-0.24077 -0.24077,-0.24077 h -3.8444 c -0.13229,0 -0.24077,0.10847 -0.24077,0.24077 0,0.13229 0.10848,0.24077 0.24077,0.24077 h 3.8444 c 0.13229,-0.003 0.24077,-0.10848 0.24077,-0.24077 z m -0.96308,1.92087 v -1.92355 c 0,-0.13229 -0.10848,-0.24077 -0.24077,-0.24077 -0.1323,0 -0.24078,0.10848 -0.24078,0.24077 v 1.92352 c 0,0.13229 0.10848,0.24077 0.24078,0.24077 0.13493,0 0.24077,-0.10848 0.24077,-0.24077 z m -1.92088,0 v -1.92355 c 0,-0.13229 -0.10848,-0.24077 -0.24077,-0.24077 -0.13229,0 -0.24077,0.10848 -0.24077,0.24077 v 1.92352 c 0,0.13229 0.10848,0.24077 0.24077,0.24077 0.13229,0 0.24077,-0.10848 0.24077,-0.24077 z m 2.84956,-5.52714 c 0.1323,-0.008 0.23284,-0.12171 0.2249,-0.254 l -0.24077,-4.08517 c 0,-0.0185 -0.005,-0.037 -0.0106,-0.0556 l -0.96044,-3.12473 c -0.0318,-0.10054 -0.12436,-0.16934 -0.23019,-0.16934 h -1.87325 c -0.13229,0 -0.24077,0.10848 -0.24077,0.24077 0,0.1323 0.10848,0.24078 0.24077,0.24078 h 1.69598 l 0.89958,2.92629 0.23813,4.05606 c 0.008,0.127 0.11377,0.2249 0.24077,0.2249 z m 1.69069,0.48154 c 0.13229,-0.0132 0.22754,-0.12965 0.21431,-0.26194 l -0.48154,-4.80483 c 0,-0.0106 -0.003,-0.0238 -0.005,-0.0344 l -0.86783,-3.47398 c -0.003,-0.0106 -0.005,-0.0212 -0.0106,-0.0344 l -1.53723,-3.73328 c -0.0503,-0.1217 -0.1905,-0.18256 -0.31485,-0.12964 -0.12171,0.0503 -0.18256,0.1905 -0.12965,0.31485 l 1.5293,3.7174 0.85725,3.44223 0.47889,4.78896 c 0.0132,0.12435 0.11642,0.21695 0.23813,0.21695 0.0132,-0.008 0.0212,-0.008 0.0291,-0.008 z m -3.09827,-8.89 c 0,-0.13229 -0.10848,-0.24077 -0.24077,-0.24077 h -0.96044 c -0.13229,0 -0.24077,0.10848 -0.24077,0.24077 0,0.13229 0.10848,0.24077 0.24077,0.24077 h 0.96044 c 0.13229,-0.003 0.24077,-0.10848 0.24077,-0.24077 z m -0.2884,-0.96309 c 0,-0.13229 -0.10847,-0.24077 -0.24077,-0.24077 h -0.48154 c -0.13229,0 -0.24077,0.10848 -0.24077,0.24077 0,0.1323 0.10848,0.24077 0.24077,0.24077 h 0.48154 c 0.1323,0 0.24077,-0.10847 0.24077,-0.24077 z m 0,-5.95841 c 0,-0.13229 -0.10847,-0.24077 -0.24077,-0.24077 h -0.48154 c -0.13229,0 -0.24077,0.10848 -0.24077,0.24077 0,0.13229 0.10848,0.24077 0.24077,0.24077 h 0.48154 c 0.1323,0 0.24077,-0.10848 0.24077,-0.24077 z m 7.400402,21.62704 v -3.65125 c 0,-0.0238 -0.003,-0.0476 -0.0106,-0.0688 l -1.43669,-4.80484 c -0.005,-0.0159 -0.0106,-0.0318 -0.0185,-0.045 l -1.301752,-2.40241 -0.59002,-3.29406 c -0.003,-0.0185 -0.0106,-0.0397 -0.0185,-0.0582 l -2.39448,-5.28638 c -0.0397,-0.0847 -0.12436,-0.14023 -0.21961,-0.14023 h -3.83381 c -0.0952,0 -0.17992,0.0556 -0.2196,0.14023 l -2.39448,5.28638 c -0.0106,0.0212 -0.0159,0.0423 -0.0185,0.0661 l -0.47096,3.29936 -1.8759,2.35214 c -0.0212,0.0265 -0.037,0.0582 -0.045,0.0926 l -1.19856,4.80483 c -0.005,0.0185 -0.008,0.0397 -0.008,0.0582 v 3.65125 c 0,0.13229 0.10848,0.24077 0.24077,0.24077 0.1323,0 0.24078,-0.10848 0.24078,-0.24077 v -3.62215 l 1.17739,-4.72546 1.88383,-2.36272 c 0.0265,-0.0344 0.045,-0.0741 0.0503,-0.11642 l 0.47625,-3.33111 2.3151,-5.11439 h 3.52425 l 2.3204,5.11704 0.59002,3.302 c 0.005,0.0265 0.0132,0.0503 0.0265,0.0714 l 1.30705,2.413 1.420812,4.74927 v 3.61685 c 0,0.13229 0.10848,0.24077 0.24077,0.24077 0.13229,0 0.24077,-0.10583 0.24077,-0.23812 z m -6.921502,-20.66661 c 0,-0.13229 -0.10848,-0.24077 -0.24077,-0.24077 h -1.44198 c -0.13229,0 -0.24077,0.10848 -0.24077,0.24077 0,0.1323 0.10848,0.24078 0.24077,0.24078 h 1.44198 c 0.13494,0 0.24077,-0.10848 0.24077,-0.24078 z m 13.430252,-40.60031 1.19856,-4.92654 1.43669,-3.69358 c 0.0476,-0.12436 -0.0132,-0.26194 -0.13758,-0.31221 -0.12436,-0.0476 -0.26194,0.0132 -0.31221,0.13758 l -1.44198,3.70682 c -0.003,0.0106 -0.008,0.0212 -0.0106,0.0291 l -1.20121,4.94242 c -0.0318,0.12964 0.0476,0.25929 0.17727,0.29104 0.0185,0.005 0.037,0.008 0.0582,0.008 0.10848,0 0.20637,-0.0741 0.23283,-0.18257 z m 10.45633,2.89984 h -5.4901 c -0.10054,0 -0.18786,-0.0609 -0.2249,-0.15346 l -0.24606,-0.63765 c -0.0212,-0.0582 -0.0212,-0.12171 0.003,-0.17727 l 0.25135,-0.61119 c 0.037,-0.0899 0.12435,-0.14816 0.22225,-0.14816 h 5.48481 c 0.10054,0 0.1905,0.0635 0.2249,0.1561 l 0.25929,0.70115 c 0.0212,0.0609 0.0185,0.127 -0.008,0.18521 l -0.25929,0.54768 c -0.0397,0.082 -0.12435,0.13759 -0.21696,0.13759 z m -5.32606,-0.48155 h 5.17525 l 0.15081,-0.32014 -0.16668,-0.44979 h -5.15673 l -0.15346,0.37306 z m 1.60073,-1.62189 0.48154,-0.96044 c 0.0265,-0.0503 0.0317,-0.11112 0.0185,-0.16669 l -0.21431,-0.85725 0.70115,-1.05304 0.70114,1.05304 -0.21431,0.85725 c -0.0317,0.12965 0.045,0.2593 0.17462,0.29105 0.12965,0.0318 0.2593,-0.045 0.29105,-0.17463 l 0.24077,-0.96044 c 0.0159,-0.0661 0.005,-0.13493 -0.0344,-0.1905 l -0.96044,-1.44198 c -0.045,-0.0661 -0.11906,-0.10583 -0.20108,-0.10583 -0.0794,0 -0.1561,0.0397 -0.20108,0.10583 l -0.96044,1.44198 c -0.037,0.0556 -0.0503,0.127 -0.0344,0.1905 l 0.21961,0.87577 -0.44186,0.88107 c -0.0582,0.11906 -0.0106,0.26193 0.10848,0.32279 0.0344,0.0185 0.0714,0.0265 0.10848,0.0265 0.09,-0.003 0.17463,-0.0503 0.21696,-0.13494 z m 2.40771,8.78417 c 0,-0.1323 -0.10848,-0.24078 -0.24077,-0.24078 h -2.40242 c -0.13229,0 -0.24077,0.10848 -0.24077,0.24078 0,0.13229 0.10848,0.24077 0.24077,0.24077 h 2.40242 c 0.13229,-0.003 0.24077,-0.10848 0.24077,-0.24077 z m -11.70781,10.83468 v -3.39196 l 0.93397,-5.2652 c 0.0238,-0.12965 -0.0635,-0.25665 -0.19579,-0.27782 -0.12964,-0.0238 -0.25664,0.0635 -0.27781,0.1958 l -0.93662,5.28637 c -0.003,0.0132 -0.003,0.0291 -0.003,0.0423 v 3.41313 c 0,0.13229 0.10848,0.24077 0.24077,0.24077 0.13229,0 0.23813,-0.11113 0.23813,-0.24342 z m -3.65125,0 v -3.39196 l 0.93397,-5.2652 c 0.0238,-0.12965 -0.0635,-0.25665 -0.19579,-0.27782 -0.12964,-0.0238 -0.25664,0.0635 -0.27781,0.1958 l -0.93662,5.28637 c -0.003,0.0132 -0.003,0.0291 -0.003,0.0423 v 3.41313 c 0,0.13229 0.10848,0.24077 0.24077,0.24077 0.12965,-0.003 0.23813,-0.11113 0.23813,-0.24342 z m -5.066772,4.53496 v -1.63512 c 0,-0.1323 -0.10848,-0.24077 -0.24078,-0.24077 -0.13229,0 -0.24077,0.10847 -0.24077,0.24077 v 1.63512 c 0,0.13229 0.10848,0.24077 0.24077,0.24077 0.1323,0 0.24078,-0.10848 0.24078,-0.24077 z m 1.63512,0 v -1.63512 c 0,-0.1323 -0.10848,-0.24077 -0.24077,-0.24077 -0.13229,0 -0.24077,0.10847 -0.24077,0.24077 v 1.63512 c 0,0.13229 0.10848,0.24077 0.24077,0.24077 0.13229,0 0.24077,-0.10848 0.24077,-0.24077 z m -1.15358,6.97706 v -3.84439 c 0,-0.13229 -0.10848,-0.24077 -0.24077,-0.24077 -0.1323,0 -0.24077,0.10848 -0.24077,0.24077 v 3.84439 c 0,0.13229 0.10847,0.24077 0.24077,0.24077 0.13229,0 0.24077,-0.10848 0.24077,-0.24077 z m 1.63248,0 v -3.84439 c 0,-0.13229 -0.10848,-0.24077 -0.24077,-0.24077 -0.1323,0 -0.24078,0.10848 -0.24078,0.24077 v 3.84439 c 0,0.13229 0.10848,0.24077 0.24078,0.24077 0.13493,0 0.24077,-0.10848 0.24077,-0.24077 z m -3.07446,0 v -3.84439 c 0,-0.13229 -0.10848,-0.24077 -0.24077,-0.24077 -0.13229,0 -0.24077,0.10848 -0.24077,0.24077 v 3.84439 c 0,0.13229 0.10848,0.24077 0.24077,0.24077 0.13229,0 0.24077,-0.10848 0.24077,-0.24077 z m 18.978562,0.082 0.48154,-0.96043 c 0.0265,-0.0503 0.0317,-0.11113 0.0185,-0.16669 l -0.21431,-0.85725 0.70115,-1.05304 0.70114,1.05304 -0.21431,0.85725 c -0.0317,0.12965 0.045,0.25929 0.17462,0.29104 0.12965,0.0317 0.2593,-0.045 0.29105,-0.17462 l 0.24077,-0.96044 c 0.0159,-0.0661 0.005,-0.13494 -0.0344,-0.1905 l -0.96044,-1.44198 c -0.045,-0.0661 -0.11906,-0.10583 -0.20108,-0.10583 -0.0794,0 -0.1561,0.0397 -0.20108,0.10583 l -0.96044,1.44198 c -0.037,0.0556 -0.0503,0.127 -0.0344,0.1905 l 0.21961,0.87577 -0.44186,0.88106 c -0.0582,0.11906 -0.0106,0.26194 0.10848,0.32279 0.0344,0.0185 0.0714,0.0265 0.10848,0.0265 0.09,-0.003 0.17463,-0.0503 0.21696,-0.13494 z m -1.06892,14.04409 c 0.11907,-0.0582 0.16669,-0.20373 0.10848,-0.32279 l -0.40216,-0.80698 1.79916,-1.79917 c 0.082,-0.082 0.0926,-0.20902 0.0291,-0.30427 l -0.381,-0.5715 0.90223,-1.08215 0.90222,1.08215 -0.381,0.5715 c -0.0741,0.11112 -0.045,0.25929 0.0661,0.33337 0.11113,0.0741 0.25929,0.045 0.33338,-0.0661 l 0.48154,-0.71967 c 0.0582,-0.0873 0.0529,-0.20637 -0.0159,-0.28839 l -1.20121,-1.44198 c -0.09,-0.10848 -0.27781,-0.10848 -0.37041,0 l -1.20121,1.44198 c -0.0688,0.082 -0.0741,0.19843 -0.0159,0.28839 l 0.37042,0.55827 -1.78329,1.78329 c -0.0741,0.0741 -0.0926,0.18521 -0.045,0.27782 l 0.48154,0.96043 c 0.0423,0.0847 0.127,0.1323 0.21431,0.1323 0.037,0 0.0741,-0.008 0.10848,-0.0265 z m -14.784912,-2.37596 v -4.99798 c 0,-0.13229 -0.10848,-0.24077 -0.24077,-0.24077 -0.1323,0 -0.24077,0.10848 -0.24077,0.24077 v 4.99798 c 0,0.13229 0.10847,0.24077 0.24077,0.24077 0.13229,0 0.24077,-0.10848 0.24077,-0.24077 z m 14.917202,8.64923 c 0,-0.13229 -0.10847,-0.24077 -0.24077,-0.24077 H 96.19215 c -0.13229,0 -0.24077,0.10848 -0.24077,0.24077 0,0.13229 0.10848,0.24077 0.24077,0.24077 h 12.97516 c 0.1323,0 0.24077,-0.10848 0.24077,-0.24077 z m -2.66435,8.65187 v -3.51631 l 4.74927,-5.69912 c 0.0847,-0.10319 0.0714,-0.254 -0.0318,-0.33867 -0.10319,-0.0847 -0.254,-0.0714 -0.33867,0.0318 l -4.80483,5.76792 c -0.037,0.0423 -0.0556,0.0979 -0.0556,0.15345 v 3.60363 c 0,0.13229 0.10848,0.24077 0.24077,0.24077 0.13229,0 0.24077,-0.11113 0.24077,-0.24342 z m -5.76527,-0.19314 v -2.37067 l 2.83633,-3.7809 c 0.0794,-0.10583 0.0582,-0.25664 -0.0476,-0.33602 -0.10584,-0.0794 -0.25665,-0.0582 -0.33602,0.0476 l -2.88396,3.84439 c -0.0317,0.0423 -0.0476,0.0926 -0.0476,0.14288 v 2.45004 c 0,0.13229 0.10848,0.24077 0.24077,0.24077 0.1323,0 0.23813,-0.10583 0.23813,-0.23812 z m 4.32329,-0.74348 c 0,-0.13229 -0.10848,-0.24077 -0.24077,-0.24077 h -2.69081 c -0.13229,0 -0.24077,0.10848 -0.24077,0.24077 0,0.13229 0.10848,0.24077 0.24077,0.24077 h 2.69081 c 0.13494,0 0.24077,-0.10848 0.24077,-0.24077 z m -59.332812,10.78971 c 0,-0.1323 -0.108479,-0.24077 -0.240771,-0.24077 h -3.124729 c -0.132292,0 -0.240771,0.10847 -0.240771,0.24077 0,0.13229 0.108479,0.24077 0.240771,0.24077 h 3.124729 c 0.134937,-0.003 0.240771,-0.10848 0.240771,-0.24077 z m 133.103942,2.88131 v -9.85308 c 0,-0.1323 -0.10848,-0.24078 -0.24078,-0.24078 -0.13229,0 -0.24077,0.10848 -0.24077,0.24078 v 9.85308 c 0,0.13229 0.10848,0.24077 0.24077,0.24077 0.1323,0 0.24078,-0.10583 0.24078,-0.24077 z m -3.34169,-0.1905 v -6.99294 c 0,-0.13229 -0.10848,-0.24077 -0.24077,-0.24077 -0.13229,0 -0.24077,0.10848 -0.24077,0.24077 v 6.99294 c 0,0.13229 0.10848,0.24077 0.24077,0.24077 0.13229,0 0.24077,-0.10848 0.24077,-0.24077 z m 1.44198,0.21696 v -7.2099 c 0,-0.13229 -0.10848,-0.24077 -0.24077,-0.24077 -0.1323,0 -0.24077,0.10848 -0.24077,0.24077 v 7.2099 c 0,0.13229 0.10847,0.24077 0.24077,0.24077 0.13229,0 0.24077,-0.10848 0.24077,-0.24077 z m 3.50837,-3.14854 c 0,-0.1323 -0.10848,-0.24078 -0.24077,-0.24078 h -3.52954 c -0.13229,0 -0.24077,0.10848 -0.24077,0.24078 0,0.13229 0.10848,0.24077 0.24077,0.24077 h 3.52954 c 0.13229,0 0.24077,-0.10848 0.24077,-0.24077 z m -64.5451,-10.62303 c 0,-0.13229 -0.10848,-0.24077 -0.24077,-0.24077 h -9.13077 c -0.13229,0 -0.24077,0.10848 -0.24077,0.24077 0,0.1323 0.10848,0.24078 0.24077,0.24078 h 9.13077 c 0.13229,0 0.24077,-0.10584 0.24077,-0.24078 z m -2.88396,-3.556 c 0,-0.13229 -0.10848,-0.24077 -0.24077,-0.24077 h -3.36285 c -0.1323,0 -0.24078,0.10848 -0.24078,0.24077 0,0.1323 0.10848,0.24078 0.24078,0.24078 h 3.36285 c 0.13494,0 0.24077,-0.10848 0.24077,-0.24078 z m -2.88396,2.59557 v -2.59557 c 0,-0.13229 -0.10848,-0.24077 -0.24077,-0.24077 -0.13229,0 -0.24077,0.10848 -0.24077,0.24077 v 2.59557 c 0,0.13229 0.10848,0.24077 0.24077,0.24077 0.13494,0 0.24077,-0.10848 0.24077,-0.24077 z m 2.40506,0 v -2.59557 c 0,-0.13229 -0.10847,-0.24077 -0.24077,-0.24077 -0.13229,0 -0.24077,0.10848 -0.24077,0.24077 v 2.59557 c 0,0.13229 0.10848,0.24077 0.24077,0.24077 0.1323,0 0.24077,-0.10848 0.24077,-0.24077 z m 12.01473,34.65248 c 0,-0.1323 -0.10848,-0.24077 -0.24077,-0.24077 H 98.11567 c -0.13229,0 -0.24077,0.10847 -0.24077,0.24077 0,0.13229 0.10848,0.24077 0.24077,0.24077 h 26.43187 c 0.13229,-0.003 0.24077,-0.10848 0.24077,-0.24077 z m 0,-1.44198 c 0,-0.13229 -0.10848,-0.24077 -0.24077,-0.24077 H 98.11567 c -0.13229,0 -0.24077,0.10848 -0.24077,0.24077 0,0.13229 0.10848,0.24077 0.24077,0.24077 h 26.43187 c 0.13229,-0.003 0.24077,-0.10848 0.24077,-0.24077 z m 0,-1.44198 c 0,-0.13229 -0.10848,-0.24077 -0.24077,-0.24077 H 98.11567 c -0.13229,0 -0.24077,0.10848 -0.24077,0.24077 0,0.13229 0.10848,0.24077 0.24077,0.24077 h 26.43187 c 0.13229,-0.003 0.24077,-0.10848 0.24077,-0.24077 z m 0,-1.44198 c 0,-0.13229 -0.10848,-0.24077 -0.24077,-0.24077 H 98.11567 c -0.13229,0 -0.24077,0.10848 -0.24077,0.24077 0,0.13229 0.10848,0.24077 0.24077,0.24077 h 26.43187 c 0.13229,0 0.24077,-0.10848 0.24077,-0.24077 z m 0,-1.44198 c 0,-0.13229 -0.10848,-0.24077 -0.24077,-0.24077 H 98.11567 c -0.13229,0 -0.24077,0.10848 -0.24077,0.24077 0,0.13229 0.10848,0.24077 0.24077,0.24077 h 26.43187 c 0.13229,0 0.24077,-0.10848 0.24077,-0.24077 z m 0,-1.44198 c 0,-0.13229 -0.10848,-0.24077 -0.24077,-0.24077 H 98.11567 c -0.13229,0 -0.24077,0.10848 -0.24077,0.24077 0,0.13229 0.10848,0.24077 0.24077,0.24077 h 26.43187 c 0.13229,0 0.24077,-0.10848 0.24077,-0.24077 z m 0,-1.44198 c 0,-0.13229 -0.10848,-0.24077 -0.24077,-0.24077 H 98.11567 c -0.13229,0 -0.24077,0.10848 -0.24077,0.24077 0,0.13229 0.10848,0.24077 0.24077,0.24077 h 26.43187 c 0.13229,0 0.24077,-0.10848 0.24077,-0.24077 z m 0,-2.88396 c 0,-0.13229 -0.10848,-0.24077 -0.24077,-0.24077 H 98.11567 c -0.13229,0 -0.24077,0.10848 -0.24077,0.24077 0,0.13229 0.10848,0.24077 0.24077,0.24077 h 26.43187 c 0.13229,0 0.24077,-0.10848 0.24077,-0.24077 z m -1.53987,-0.76993 V 185.5367 c 0,-0.1323 -0.10848,-0.24077 -0.24077,-0.24077 -0.13229,0 -0.24077,0.10847 -0.24077,0.24077 v 13.79273 c 0,0.13229 0.10848,0.24077 0.24077,0.24077 0.13494,0 0.24077,-0.10584 0.24077,-0.24077 z m -2.30717,0 v -13.88798 c 0,-0.1323 -0.10848,-0.24077 -0.24077,-0.24077 -0.13229,0 -0.24077,0.10847 -0.24077,0.24077 v 13.88798 c 0,0.13229 0.10848,0.24077 0.24077,0.24077 0.13229,0 0.24077,-0.10584 0.24077,-0.24077 z m -3.84439,0 v -13.88798 c 0,-0.1323 -0.10848,-0.24077 -0.24077,-0.24077 -0.1323,0 -0.24078,0.10847 -0.24078,0.24077 v 13.88798 c 0,0.13229 0.10848,0.24077 0.24078,0.24077 0.13229,0 0.24077,-0.10584 0.24077,-0.24077 z m -2.40242,0 v -13.88798 c 0,-0.1323 -0.10848,-0.24077 -0.24077,-0.24077 -0.13229,0 -0.24077,0.10847 -0.24077,0.24077 v 13.88798 c 0,0.13229 0.10848,0.24077 0.24077,0.24077 0.13229,0 0.24077,-0.10584 0.24077,-0.24077 z m 52.38485,-20.85711 c 0,-0.13229 -0.10848,-0.24077 -0.24077,-0.24077 h -9.13077 c -0.13229,0 -0.24077,0.10848 -0.24077,0.24077 0,0.13229 0.10848,0.24077 0.24077,0.24077 h 9.13077 c 0.13229,0 0.24077,-0.10848 0.24077,-0.24077 z m -2.59556,-1.92087 c 0,-0.1323 -0.10848,-0.24077 -0.24077,-0.24077 h -3.93965 c -0.13229,0 -0.24077,0.10847 -0.24077,0.24077 0,0.13229 0.10848,0.24077 0.24077,0.24077 h 3.93965 c 0.13494,-0.003 0.24077,-0.10848 0.24077,-0.24077 z m -2.97921,1.92087 v -1.92353 c 0,-0.13229 -0.10848,-0.24077 -0.24077,-0.24077 -0.13229,0 -0.24077,0.10848 -0.24077,0.24077 v 1.92352 c 0,0.13229 0.10848,0.24077 0.24077,0.24077 0.13229,0 0.24077,-0.10848 0.24077,-0.24077 z m 2.01877,0 v -1.92353 c 0,-0.13229 -0.10848,-0.24077 -0.24077,-0.24077 -0.13229,0 -0.24077,0.10848 -0.24077,0.24077 v 1.92352 c 0,0.13229 0.10848,0.24077 0.24077,0.24077 0.13229,0 0.24077,-0.10848 0.24077,-0.24077 z m -3.18823,-5.75204 0.23813,-4.05606 0.90223,-2.92629 h 1.8071 c 0.13229,0 0.24077,-0.10848 0.24077,-0.24078 0,-0.13229 -0.10848,-0.24077 -0.24077,-0.24077 h -1.98437 c -0.10584,0 -0.19844,0.0688 -0.23019,0.16934 l -0.96044,3.12473 c -0.005,0.0185 -0.008,0.037 -0.0106,0.0556 l -0.24077,4.08517 c -0.008,0.13229 0.0926,0.24606 0.22489,0.254 h 0.0132 c 0.127,0 0.23284,-0.0979 0.24077,-0.2249 z m -1.60072,0.44185 0.47889,-4.78895 0.8599,-3.44223 1.52929,-3.7174 c 0.0503,-0.12171 -0.008,-0.26194 -0.12965,-0.31485 -0.12171,-0.0503 -0.26194,0.008 -0.31485,0.12964 l -1.53723,3.73327 c -0.005,0.0106 -0.008,0.0212 -0.0106,0.0344 l -0.86784,3.47398 c -0.003,0.0106 -0.005,0.0238 -0.005,0.0344 l -0.48154,4.80484 c -0.0132,0.13229 0.082,0.24871 0.21431,0.26193 h 0.0238 c 0.12436,0.008 0.23019,-0.0847 0.24078,-0.20902 z m 4.21216,-8.62541 c 0,-0.13229 -0.10848,-0.24077 -0.24077,-0.24077 h -0.96044 c -0.13229,0 -0.24077,0.10848 -0.24077,0.24077 0,0.13229 0.10848,0.24077 0.24077,0.24077 h 0.96044 c 0.13229,-0.003 0.24077,-0.10848 0.24077,-0.24077 z m -0.19314,-0.96309 c 0,-0.13229 -0.10848,-0.24077 -0.24078,-0.24077 h -0.48154 c -0.13229,0 -0.24077,0.10848 -0.24077,0.24077 0,0.1323 0.10848,0.24077 0.24077,0.24077 h 0.48154 c 0.13494,0 0.24078,-0.10847 0.24078,-0.24077 z m 0,-6.00604 c 0,-0.13229 -0.10848,-0.24077 -0.24078,-0.24077 h -0.48154 c -0.13229,0 -0.24077,0.10848 -0.24077,0.24077 0,0.13229 0.10848,0.24077 0.24077,0.24077 h 0.48154 c 0.13494,0 0.24078,-0.10848 0.24078,-0.24077 z m -49.51942,-14.61823 v -1.68275 c 0,-0.13229 -0.10848,-0.24077 -0.24077,-0.24077 -0.13229,0 -0.24077,0.10848 -0.24077,0.24077 v 1.68275 c 0,0.1323 0.10848,0.24077 0.24077,0.24077 0.13229,0 0.24077,-0.10847 0.24077,-0.24077 z m 1.43933,6.95325 v -3.84439 c 0,-0.13229 -0.10848,-0.24077 -0.24077,-0.24077 -0.13229,0 -0.24077,0.10848 -0.24077,0.24077 v 3.84439 c 0,0.13229 0.10848,0.24077 0.24077,0.24077 0.13229,0 0.24077,-0.10848 0.24077,-0.24077 z m 14.34307,6.46377 c 0,-0.13229 -0.10848,-0.24077 -0.24078,-0.24077 h -6.24681 c -0.13229,0 -0.24077,0.10848 -0.24077,0.24077 0,0.1323 0.10848,0.24077 0.24077,0.24077 h 6.24681 c 0.1323,0 0.24078,-0.10847 0.24078,-0.24077 z m -14.6103,-18.1901 v -3.17235 c 0,-0.0132 0,-0.0291 -0.003,-0.0423 l -0.93927,-5.28637 c -0.0212,-0.11377 -0.11907,-0.19844 -0.23548,-0.19844 h -1.94469 c -0.13229,0 -0.24077,0.10848 -0.24077,0.24077 0,0.13229 0.10848,0.24077 0.24077,0.24077 h 1.7436 l 0.89959,5.06677 v 3.15119 c 0,0.13229 0.10848,0.24077 0.24077,0.24077 0.12964,0 0.23812,-0.10848 0.23812,-0.24077 z m 1.74096,-3.19617 c 0.13229,-0.005 0.23548,-0.11641 0.23019,-0.2487 l -0.24077,-6.1013 c 0,-0.0159 -0.003,-0.0291 -0.005,-0.0423 l -1.44198,-6.39498 c -0.0291,-0.12964 -0.15875,-0.21167 -0.2884,-0.18256 -0.12964,0.0291 -0.21166,0.15875 -0.18256,0.28839 l 1.43669,6.37382 0.24077,6.08012 c 0.005,0.12965 0.11112,0.23019 0.24077,0.23019 0.005,-0.003 0.008,-0.003 0.0106,-0.003 z m 5.4954,-15.11564 c 0,-0.13229 -0.10848,-0.24077 -0.24077,-0.24077 h -1.92352 c -0.1323,0 -0.24077,0.10848 -0.24077,0.24077 0,0.13229 0.10847,0.24077 0.24077,0.24077 h 1.92352 c 0.13493,0 0.24077,-0.10848 0.24077,-0.24077 z m 2.16429,14.65791 v -3.27289 -3.69623 c 0,-0.0265 -0.005,-0.0503 -0.0132,-0.0767 l -2.16165,-6.48494 c -0.0423,-0.127 -0.17727,-0.19314 -0.30427,-0.15081 -0.127,0.0423 -0.19314,0.17727 -0.15081,0.30427 l 2.15106,6.45054 v 3.65654 3.2729 c 0,0.13229 0.10848,0.24077 0.24077,0.24077 v 0 c 0.12965,-0.003 0.23813,-0.11112 0.23813,-0.24342 z m 7.68879,6.00869 v -2.24896 c 0,-0.0688 -0.0291,-0.13229 -0.0794,-0.17727 l -2.88396,-2.62996 c -0.0979,-0.0899 -0.24871,-0.082 -0.33867,0.0159 -0.09,0.0979 -0.082,0.25135 0.0159,0.33867 l 2.80458,2.55852 v 2.14312 c 0,0.13229 0.10848,0.24077 0.24077,0.24077 0.13229,0 0.24077,-0.10848 0.24077,-0.24077 z m -1.44198,-1.68275 c 0,-0.13229 -0.10848,-0.24077 -0.24077,-0.24077 h -2.88396 c -0.13229,0 -0.24077,0.10848 -0.24077,0.24077 0,0.13229 0.10848,0.24077 0.24077,0.24077 h 2.88396 c 0.13229,0 0.24077,-0.10848 0.24077,-0.24077 z m -5.52714,-4.08516 c 0,-0.1323 -0.10848,-0.24078 -0.24077,-0.24078 h -1.44198 c -0.1323,0 -0.24077,0.10848 -0.24077,0.24078 0,0.13229 0.10847,0.24077 0.24077,0.24077 h 1.44198 c 0.13229,0 0.24077,-0.10848 0.24077,-0.24077 z m -6.00605,3.60362 v -3.36285 c 0,-0.0132 0,-0.0291 -0.003,-0.0423 l -0.93663,-5.28637 c -0.0238,-0.12965 -0.14816,-0.21696 -0.27781,-0.19579 -0.12964,0.0238 -0.21696,0.14816 -0.19579,0.27781 l 0.93398,5.26521 v 3.34168 c 0,0.1323 0.10848,0.24078 0.24077,0.24078 0.13229,0 0.23812,-0.10319 0.23812,-0.23813 z m -2.19075,-3.60362 c 0,-0.1323 -0.10847,-0.24078 -0.24077,-0.24078 h -1.63512 c -0.13229,0 -0.24077,0.10848 -0.24077,0.24078 0,0.13229 0.10848,0.24077 0.24077,0.24077 h 1.63512 c 0.1323,0 0.24077,-0.10848 0.24077,-0.24077 z m -4.29947,-1.20121 c 0,-0.13229 -0.10848,-0.24077 -0.24078,-0.24077 h -0.96043 c -0.13229,0 -0.24077,0.10848 -0.24077,0.24077 0,0.13229 0.10848,0.24077 0.24077,0.24077 h 0.96043 c 0.13494,0 0.24078,-0.10848 0.24078,-0.24077 z m 46.39997,27.15418 c 0,-0.13229 -0.10847,-0.24077 -0.24077,-0.24077 h -5.76791 c -0.13229,0 -0.24077,0.10848 -0.24077,0.24077 0,0.1323 0.10848,0.24077 0.24077,0.24077 h 5.76791 c 0.1323,0 0.24077,-0.10847 0.24077,-0.24077 z m -33.35337,2.8575 c 0,-0.13229 -0.10848,-0.24077 -0.24077,-0.24077 h -9.22867 c -0.13229,0 -0.24077,0.10848 -0.24077,0.24077 0,0.1323 0.10848,0.24077 0.24077,0.24077 h 9.22867 c 0.13229,0 0.24077,-0.10847 0.24077,-0.24077 z m -2.21192,-2.88395 c 0,-0.1323 -0.10848,-0.24078 -0.24077,-0.24078 h -8.55398 c -0.13229,0 -0.24077,0.10848 -0.24077,0.24078 0,0.13229 0.10848,0.24077 0.24077,0.24077 h 8.55398 c 0.13229,0 0.24077,-0.10584 0.24077,-0.24077 z m -5.78643,-7.6888 c 0,-0.13229 -0.10848,-0.24077 -0.24078,-0.24077 h -11.05429 c -0.13229,0 -0.24077,0.10848 -0.24077,0.24077 0,0.1323 0.10848,0.24077 0.24077,0.24077 h 11.05429 c 0.1323,0 0.24078,-0.10847 0.24078,-0.24077 z m -3.44223,-2.3786 c 0,-0.13229 -0.10848,-0.24077 -0.24077,-0.24077 h -4.22805 c -0.13229,0 -0.24077,0.10848 -0.24077,0.24077 0,0.13229 0.10848,0.24077 0.24077,0.24077 h 4.22805 c 0.13493,0 0.24077,-0.10848 0.24077,-0.24077 z m 43.83087,13.00162 c 0,-0.13229 -0.10848,-0.24077 -0.24077,-0.24077 h -7.2099 c -0.13229,0 -0.24077,0.10848 -0.24077,0.24077 0,0.1323 0.10848,0.24078 0.24077,0.24078 h 7.2099 c 0.13494,-0.003 0.24077,-0.10848 0.24077,-0.24078 z m -13.9356,-2.90777 c 0,-0.13229 -0.10848,-0.24077 -0.24077,-0.24077 h -6.24682 c -0.13229,0 -0.24077,0.10848 -0.24077,0.24077 0,0.1323 0.10848,0.24077 0.24077,0.24077 h 6.24682 c 0.13229,0 0.24077,-0.10847 0.24077,-0.24077 z m 1.92087,-2.64318 c 0,-0.1323 -0.10848,-0.24077 -0.24077,-0.24077 h -7.68879 c -0.13229,0 -0.24077,0.10847 -0.24077,0.24077 0,0.13229 0.10848,0.24077 0.24077,0.24077 h 7.68879 c 0.13494,0 0.24077,-0.10848 0.24077,-0.24077 z m 12.68942,0 c 0,-0.1323 -0.10848,-0.24077 -0.24077,-0.24077 h -7.40304 c -0.1323,0 -0.24077,0.10847 -0.24077,0.24077 0,0.13229 0.10847,0.24077 0.24077,0.24077 h 7.40039 c 0.13494,0 0.24342,-0.10848 0.24342,-0.24077 z m -2.59556,-2.61938 c 0,-0.13229 -0.10848,-0.24077 -0.24077,-0.24077 h -14.89869 c -0.13229,0 -0.24077,0.10848 -0.24077,0.24077 0,0.13229 0.10848,0.24077 0.24077,0.24077 h 14.89869 c 0.13229,-0.003 0.24077,-0.10848 0.24077,-0.24077 z m -6.01398,8.84238 c 0,-0.1323 -0.10848,-0.24077 -0.24077,-0.24077 h -2.88396 c -0.13229,0 -0.24077,0.10847 -0.24077,0.24077 0,0.13229 0.10848,0.24077 0.24077,0.24077 h 2.88396 c 0.13229,0 0.24077,-0.10848 0.24077,-0.24077 z m -0.43392,-1.92352 c 0,-0.1323 -0.10848,-0.24078 -0.24077,-0.24078 h -2.01877 c -0.13229,0 -0.24077,0.10848 -0.24077,0.24078 0,0.13229 0.10848,0.24077 0.24077,0.24077 h 2.01877 c 0.13229,0 0.24077,-0.10848 0.24077,-0.24077 z m -0.48154,-2.11403 c 0,-0.13229 -0.10848,-0.24077 -0.24077,-0.24077 h -1.05834 c -0.13229,0 -0.24077,0.10848 -0.24077,0.24077 0,0.1323 0.10848,0.24078 0.24077,0.24078 h 1.05834 c 0.13494,0 0.24077,-0.10848 0.24077,-0.24078 z m 5.48746,9.37155 v -1.73038 c 0,-0.13229 -0.10848,-0.24077 -0.24077,-0.24077 h -1.92352 c -0.1323,0 -0.24078,0.10848 -0.24078,0.24077 0,0.13229 0.10848,0.24077 0.24078,0.24077 h 1.68275 v 1.48961 c 0,0.13229 0.10847,0.24077 0.24077,0.24077 0.13229,0 0.24077,-0.10848 0.24077,-0.24077 z m -10.18911,-1.70657 c 0,-0.13229 -0.10848,-0.24077 -0.24077,-0.24077 h -5.47952 c -0.13229,0 -0.24077,0.10848 -0.24077,0.24077 0,0.1323 0.10848,0.24077 0.24077,0.24077 h 5.47952 c 0.13229,0 0.24077,-0.10583 0.24077,-0.24077 z m -1.34673,1.92352 c 0,-0.13229 -0.10848,-0.24077 -0.24077,-0.24077 h -2.97921 c -0.13229,0 -0.24077,0.10848 -0.24077,0.24077 0,0.1323 0.10848,0.24078 0.24077,0.24078 h 2.97921 c 0.13494,0 0.24077,-0.10848 0.24077,-0.24078 z m 14.03615,1.80711 c 0.045,-0.0714 0.0476,-0.15875 0.0106,-0.23283 l -0.86518,-1.73038 c -0.0397,-0.082 -0.12436,-0.13229 -0.21432,-0.13229 h -2.15371 c -0.13229,0 -0.24077,0.10848 -0.24077,0.24077 0,0.13229 0.10848,0.24077 0.24077,0.24077 h 2.0029 l 0.62442,1.24883 h -1.66688 c -0.13229,0 -0.24077,0.10848 -0.24077,0.24077 0,0.1323 0.10848,0.24078 0.24077,0.24078 h 2.05581 c 0.0847,0 0.1614,-0.045 0.20638,-0.11642 z m -1.34673,6.84477 c 0,-0.13229 -0.10848,-0.24077 -0.24077,-0.24077 h -13.64985 c -0.1323,0 -0.24078,0.10848 -0.24078,0.24077 0,0.13229 0.10848,0.24077 0.24078,0.24077 h 13.64985 c 0.13229,-0.003 0.24077,-0.10848 0.24077,-0.24077 z m 0.0476,1.12712 v -7.88193 c 0,-0.13229 -0.10848,-0.24077 -0.24078,-0.24077 -0.13229,0 -0.24077,0.10848 -0.24077,0.24077 v 7.88193 c 0,0.1323 0.10848,0.24078 0.24077,0.24078 0.1323,0 0.24078,-0.10848 0.24078,-0.24078 z m -5.54832,-4.7572 c 0,-0.1323 -0.10848,-0.24077 -0.24077,-0.24077 h -3.36285 c -0.13229,0 -0.24077,0.10847 -0.24077,0.24077 0,0.13229 0.10848,0.24077 0.24077,0.24077 h 3.36285 c 0.13494,0 0.24077,-0.10848 0.24077,-0.24077 z m 4.34711,-2.13784 c 0,-0.13229 -0.10848,-0.24077 -0.24077,-0.24077 h -12.01473 c -0.13229,0 -0.24077,0.10848 -0.24077,0.24077 0,0.13229 0.10848,0.24077 0.24077,0.24077 h 12.01473 c 0.13229,0 0.24077,-0.10848 0.24077,-0.24077 z m -4.826,4.80484 v -2.64319 c 0,-0.13229 -0.10848,-0.24077 -0.24077,-0.24077 -0.1323,0 -0.24077,0.10848 -0.24077,0.24077 v 2.64319 c 0,0.13229 0.10847,0.24077 0.24077,0.24077 0.13229,0 0.24077,-0.10848 0.24077,-0.24077 z m -2.40507,0 v -2.64319 c 0,-0.13229 -0.10847,-0.24077 -0.24077,-0.24077 -0.13229,0 -0.24077,0.10848 -0.24077,0.24077 v 2.64319 c 0,0.13229 0.10848,0.24077 0.24077,0.24077 0.1323,0 0.24077,-0.10848 0.24077,-0.24077 z M 113.73399,166.4576 c 0,-0.13229 -0.10848,-0.24077 -0.24077,-0.24077 h -2.01877 c -0.13229,0 -0.24077,0.10848 -0.24077,0.24077 0,0.13229 0.10848,0.24077 0.24077,0.24077 h 2.01877 c 0.13229,0 0.24077,-0.10848 0.24077,-0.24077 z m -1.05833,1.15359 v -1.15359 c 0,-0.13229 -0.10848,-0.24077 -0.24077,-0.24077 -0.13229,0 -0.24077,0.10848 -0.24077,0.24077 v 1.15359 c 0,0.13229 0.10848,0.24077 0.24077,0.24077 0.13229,0 0.24077,-0.10848 0.24077,-0.24077 z m 15.38023,-1.15359 c 0,-0.13229 -0.10848,-0.24077 -0.24077,-0.24077 h -13.36146 c -0.13229,0 -0.24077,0.10848 -0.24077,0.24077 0,0.13229 0.10848,0.24077 0.24077,0.24077 h 13.36146 c 0.13229,0 0.24077,-0.10848 0.24077,-0.24077 z m 61.13198,45.17761 c 0,-0.1323 -0.10848,-0.24077 -0.24077,-0.24077 h -62.95761 c -0.13229,0 -0.24077,0.10847 -0.24077,0.24077 0,0.13229 0.10848,0.24077 0.24077,0.24077 h 62.95761 c 0.13229,-0.003 0.24077,-0.10848 0.24077,-0.24077 z m 0,-11.53584 c 0,-0.13229 -0.10848,-0.24077 -0.24077,-0.24077 h -62.95761 c -0.13229,0 -0.24077,0.10848 -0.24077,0.24077 0,0.13229 0.10848,0.24077 0.24077,0.24077 h 62.95761 c 0.13229,0 0.24077,-0.10848 0.24077,-0.24077 z m -8.65188,10.0965 V 201.544 c 0,-0.13229 -0.10848,-0.24077 -0.24077,-0.24077 -0.13229,0 -0.24077,0.10848 -0.24077,0.24077 v 8.65187 c 0,0.13229 0.10848,0.24077 0.24077,0.24077 0.13229,-0.003 0.24077,-0.10848 0.24077,-0.24077 z m -13.93825,0 V 201.544 c 0,-0.13229 -0.10848,-0.24077 -0.24077,-0.24077 -0.13229,0 -0.24077,0.10848 -0.24077,0.24077 v 8.65187 c 0,0.13229 0.10848,0.24077 0.24077,0.24077 0.13229,0 0.24077,-0.10848 0.24077,-0.24077 z m -14.89604,0 V 201.544 c 0,-0.13229 -0.10848,-0.24077 -0.24077,-0.24077 -0.13229,0 -0.24077,0.10848 -0.24077,0.24077 v 8.65187 c 0,0.13229 0.10848,0.24077 0.24077,0.24077 0.13229,0 0.24077,-0.10848 0.24077,-0.24077 z m -10.09385,0 V 201.544 c 0,-0.13229 -0.10848,-0.24077 -0.24077,-0.24077 -0.1323,0 -0.24078,0.10848 -0.24078,0.24077 v 8.65187 c 0,0.13229 0.10848,0.24077 0.24078,0.24077 0.13229,-0.003 0.24077,-0.10848 0.24077,-0.24077 z m -14.41715,0 V 201.544 c 0,-0.13229 -0.10848,-0.24077 -0.24077,-0.24077 -0.13229,0 -0.24077,0.10848 -0.24077,0.24077 v 8.65187 c 0,0.13229 0.10848,0.24077 0.24077,0.24077 0.13229,0 0.24077,-0.10848 0.24077,-0.24077 z m 61.99717,1.44198 v -11.53319 c 0,-0.13229 -0.10848,-0.24077 -0.24077,-0.24077 -0.1323,0 -0.24078,0.10848 -0.24078,0.24077 v 11.53319 c 0,0.13229 0.10848,0.24077 0.24078,0.24077 0.13229,-0.003 0.24077,-0.10848 0.24077,-0.24077 z m -48.54046,-14.22929 v -14.89869 c 0,-0.13229 -0.10848,-0.24077 -0.24077,-0.24077 -0.13229,0 -0.24077,0.10848 -0.24077,0.24077 v 14.89869 c 0,0.13229 0.10848,0.24077 0.24077,0.24077 0.13229,0 0.24077,-0.10848 0.24077,-0.24077 z m 14.89869,0.2884 v -15.18709 c 0,-0.13229 -0.10848,-0.24077 -0.24077,-0.24077 -0.1323,0 -0.24078,0.10848 -0.24078,0.24077 v 15.18709 c 0,0.13229 0.10848,0.24077 0.24078,0.24077 0.13229,0 0.24077,-0.10848 0.24077,-0.24077 z M 179.57555,197.48 v -5.47952 c 0,-0.13229 -0.10848,-0.24077 -0.24077,-0.24077 -0.13229,0 -0.24077,0.10848 -0.24077,0.24077 V 197.48 c 0,0.13229 0.10848,0.24077 0.24077,0.24077 0.13229,0 0.24077,-0.10583 0.24077,-0.24077 z m -53.82683,0.21696 v -15.85913 c 0,-0.13229 -0.10848,-0.24077 -0.24077,-0.24077 -0.13229,0 -0.24077,0.10848 -0.24077,0.24077 v 15.85913 c 0,0.13229 0.10848,0.24077 0.24077,0.24077 0.13229,0 0.24077,-0.10848 0.24077,-0.24077 z m 54.54915,-15.77975 c 0.11112,-0.0714 0.14552,-0.21961 0.0741,-0.33073 l -1.143,-1.80711 c -0.0714,-0.11112 -0.2196,-0.14552 -0.33073,-0.0741 -0.11112,0.0714 -0.14552,0.2196 -0.0741,0.33073 l 1.143,1.8071 c 0.045,0.0714 0.12435,0.11113 0.20373,0.11113 0.0423,0 0.0873,-0.0106 0.127,-0.037 z m -7.45067,-10.8929 c 0,-0.13229 -0.10848,-0.24077 -0.24077,-0.24077 h -1.44198 c -0.13229,0 -0.24077,0.10848 -0.24077,0.24077 0,0.13229 0.10848,0.24077 0.24077,0.24077 h 1.44198 c 0.13229,0 0.24077,-0.10848 0.24077,-0.24077 z m -0.48154,-0.96044 c 0,-0.13229 -0.10848,-0.24077 -0.24077,-0.24077 h -0.48154 c -0.1323,0 -0.24078,0.10848 -0.24078,0.24077 0,0.13229 0.10848,0.24077 0.24078,0.24077 h 0.48154 c 0.13229,-0.003 0.24077,-0.10848 0.24077,-0.24077 z m 7.20989,21.88898 c 0,-0.13229 -0.10848,-0.24077 -0.24077,-0.24077 h -53.82683 c -0.13229,0 -0.24077,0.10848 -0.24077,0.24077 0,0.13229 0.10848,0.24077 0.24077,0.24077 h 53.82683 c 0.13229,0 0.24077,-0.10583 0.24077,-0.24077 z m -44.45529,-3.38666 c 0,-0.1323 -0.10848,-0.24078 -0.24077,-0.24078 h -2.64319 c -0.13229,0 -0.24077,0.10848 -0.24077,0.24078 0,0.13229 0.10848,0.24077 0.24077,0.24077 h 2.64319 c 0.13229,0 0.24077,-0.10848 0.24077,-0.24077 z m -2.16429,2.667 v -2.40242 c 0,-0.13229 -0.10848,-0.24077 -0.24077,-0.24077 -0.13229,0 -0.24077,0.10848 -0.24077,0.24077 v 2.40242 c 0,0.13229 0.10848,0.24077 0.24077,0.24077 0.13494,0 0.24077,-0.10848 0.24077,-0.24077 z m 1.68275,0 v -2.40242 c 0,-0.13229 -0.10848,-0.24077 -0.24077,-0.24077 -0.13229,0 -0.24077,0.10848 -0.24077,0.24077 v 2.40242 c 0,0.13229 0.10848,0.24077 0.24077,0.24077 0.13494,0 0.24077,-0.10848 0.24077,-0.24077 z m -2.18281,5.52714 V 192.146 c 0,-0.13229 -0.10848,-0.24077 -0.24077,-0.24077 -0.13229,0 -0.24077,0.10848 -0.24077,0.24077 v 4.61433 c 0,0.13229 0.10848,0.24077 0.24077,0.24077 0.13229,0 0.24077,-0.10848 0.24077,-0.24077 z m 2.64319,0 V 192.146 c 0,-0.13229 -0.10848,-0.24077 -0.24077,-0.24077 -0.1323,0 -0.24078,0.10848 -0.24078,0.24077 v 4.61433 c 0,0.13229 0.10848,0.24077 0.24078,0.24077 0.13493,0 0.24077,-0.10848 0.24077,-0.24077 z M 163.90693,188.59 c 0,-0.13229 -0.10848,-0.24077 -0.24077,-0.24077 h -2.83634 c -0.13229,0 -0.24077,0.10848 -0.24077,0.24077 0,0.13229 0.10848,0.24077 0.24077,0.24077 h 2.83634 c 0.13494,0 0.24077,-0.10848 0.24077,-0.24077 z m -2.35479,2.64319 v -2.59557 c 0,-0.13229 -0.10848,-0.24077 -0.24077,-0.24077 -0.1323,0 -0.24077,0.10848 -0.24077,0.24077 v 2.59557 c 0,0.13229 0.10847,0.24077 0.24077,0.24077 0.13229,0 0.24077,-0.10848 0.24077,-0.24077 z m 1.92352,0 v -2.40242 c 0,-0.13229 -0.10848,-0.24077 -0.24077,-0.24077 -0.13229,0 -0.24077,0.10848 -0.24077,0.24077 v 2.40242 c 0,0.13229 0.10848,0.24077 0.24077,0.24077 0.13229,0 0.24077,-0.10848 0.24077,-0.24077 z m -2.40242,5.76791 v -5.0456 c 0,-0.13229 -0.10848,-0.24077 -0.24077,-0.24077 -0.13229,0 -0.24077,0.10848 -0.24077,0.24077 v 5.0456 c 0,0.13229 0.10848,0.24077 0.24077,0.24077 0.13229,0 0.24077,-0.10848 0.24077,-0.24077 z m 2.86279,0 v -5.0456 c 0,-0.13229 -0.10848,-0.24077 -0.24077,-0.24077 -0.13229,0 -0.24077,0.10848 -0.24077,0.24077 v 5.0456 c 0,0.13229 0.10848,0.24077 0.24077,0.24077 0.13229,0 0.24077,-0.10848 0.24077,-0.24077 z m 23.80986,11.27125 v -4.80483 c 0,-0.13229 -0.10848,-0.24077 -0.24077,-0.24077 -0.1323,0 -0.24077,0.10848 -0.24077,0.24077 v 4.80483 c 0,0.13229 0.10847,0.24077 0.24077,0.24077 0.13229,0 0.24077,-0.10848 0.24077,-0.24077 z m -1.70392,-0.24077 h -4.32594 c -0.13229,0 -0.24077,-0.10848 -0.24077,-0.24077 v -3.8444 c 0,-0.13229 0.10848,-0.24077 0.24077,-0.24077 h 4.32594 c 0.13229,0 0.24077,0.10848 0.24077,0.24077 v 3.8444 c 0,0.13494 -0.10848,0.24077 -0.24077,0.24077 z m -4.08517,-0.47889 h 3.8444 v -3.36286 h -3.8444 z M 120.65288,197.2154 c 0,-0.13229 -0.10848,-0.24077 -0.24077,-0.24077 h -3.36286 c -0.13229,0 -0.24077,0.10848 -0.24077,0.24077 0,0.1323 0.10848,0.24078 0.24077,0.24078 h 3.36286 c 0.13493,0 0.24077,-0.10848 0.24077,-0.24078 z m 58.42,11.05694 v -4.80483 c 0,-0.13229 -0.10848,-0.24077 -0.24078,-0.24077 -0.13229,0 -0.24077,0.10848 -0.24077,0.24077 v 4.80483 c 0,0.13229 0.10848,0.24077 0.24077,0.24077 0.1323,0 0.24078,-0.10848 0.24078,-0.24077 z m -1.43934,0 v -4.80483 c 0,-0.13229 -0.10848,-0.24077 -0.24077,-0.24077 -0.13229,0 -0.24077,0.10848 -0.24077,0.24077 v 4.80483 c 0,0.13229 0.10848,0.24077 0.24077,0.24077 0.13229,0 0.24077,-0.10848 0.24077,-0.24077 z m -1.44198,0 v -4.80483 c 0,-0.13229 -0.10848,-0.24077 -0.24077,-0.24077 -0.13229,0 -0.24077,0.10848 -0.24077,0.24077 v 4.80483 c 0,0.13229 0.10848,0.24077 0.24077,0.24077 0.13229,0 0.24077,-0.10848 0.24077,-0.24077 z m -1.44198,0 v -4.80483 c 0,-0.13229 -0.10848,-0.24077 -0.24077,-0.24077 -0.13229,0 -0.24077,0.10848 -0.24077,0.24077 v 4.80483 c 0,0.13229 0.10848,0.24077 0.24077,0.24077 0.13229,0 0.24077,-0.10848 0.24077,-0.24077 z m -2.14312,-0.24077 h -4.32594 c -0.13229,0 -0.24077,-0.10848 -0.24077,-0.24077 v -3.8444 c 0,-0.13229 0.10848,-0.24077 0.24077,-0.24077 h 4.32594 c 0.13229,0 0.24077,0.10848 0.24077,0.24077 v 3.8444 c 0,0.13494 -0.10848,0.24077 -0.24077,0.24077 z m -4.08517,-0.47889 h 3.8444 v -3.36286 h -3.8444 z m -4.32594,0.71966 v -4.80483 c 0,-0.13229 -0.10847,-0.24077 -0.24077,-0.24077 -0.13229,0 -0.24077,0.10848 -0.24077,0.24077 v 4.80483 c 0,0.13229 0.10848,0.24077 0.24077,0.24077 0.1323,0 0.24077,-0.10848 0.24077,-0.24077 z m -1.44197,0 v -4.80483 c 0,-0.13229 -0.10848,-0.24077 -0.24078,-0.24077 -0.13229,0 -0.24077,0.10848 -0.24077,0.24077 v 4.80483 c 0,0.13229 0.10848,0.24077 0.24077,0.24077 0.1323,0 0.24078,-0.10848 0.24078,-0.24077 z m -1.44198,0 v -4.80483 c 0,-0.13229 -0.10848,-0.24077 -0.24077,-0.24077 -0.1323,0 -0.24078,0.10848 -0.24078,0.24077 v 4.80483 c 0,0.13229 0.10848,0.24077 0.24078,0.24077 0.13229,0 0.24077,-0.10848 0.24077,-0.24077 z m -1.53723,0 v -4.80483 c 0,-0.13229 -0.10848,-0.24077 -0.24077,-0.24077 -0.13229,0 -0.24077,0.10848 -0.24077,0.24077 v 4.80483 c 0,0.13229 0.10848,0.24077 0.24077,0.24077 0.13229,0 0.24077,-0.10848 0.24077,-0.24077 z m -2.0664,-0.24077 h -4.32594 c -0.13229,0 -0.24077,-0.10848 -0.24077,-0.24077 v -3.8444 c 0,-0.13229 0.10848,-0.24077 0.24077,-0.24077 h 4.32594 c 0.13229,0 0.24077,0.10848 0.24077,0.24077 v 3.8444 c 0,0.13494 -0.10848,0.24077 -0.24077,0.24077 z m -4.08516,-0.47889 h 3.84439 v -3.36286 h -3.84439 z m -4.80484,0.71966 v -4.80483 c 0,-0.13229 -0.10848,-0.24077 -0.24077,-0.24077 -0.13229,0 -0.24077,0.10848 -0.24077,0.24077 v 4.80483 c 0,0.13229 0.10848,0.24077 0.24077,0.24077 0.13229,0 0.24077,-0.10848 0.24077,-0.24077 z m -1.44198,0 v -4.80483 c 0,-0.13229 -0.10848,-0.24077 -0.24077,-0.24077 -0.13229,0 -0.24077,0.10848 -0.24077,0.24077 v 4.80483 c 0,0.13229 0.10848,0.24077 0.24077,0.24077 0.13229,0 0.24077,-0.10848 0.24077,-0.24077 z m -1.44198,0 v -4.80483 c 0,-0.13229 -0.10848,-0.24077 -0.24077,-0.24077 -0.13229,0 -0.24077,0.10848 -0.24077,0.24077 v 4.80483 c 0,0.13229 0.10848,0.24077 0.24077,0.24077 0.13229,0 0.24077,-0.10848 0.24077,-0.24077 z m -1.53723,0 v -4.80483 c 0,-0.13229 -0.10847,-0.24077 -0.24077,-0.24077 -0.13229,0 -0.24077,0.10848 -0.24077,0.24077 v 4.80483 c 0,0.13229 0.10848,0.24077 0.24077,0.24077 0.1323,0 0.24077,-0.10848 0.24077,-0.24077 z m -4.80747,0 v -4.80483 c 0,-0.13229 -0.10848,-0.24077 -0.24078,-0.24077 -0.13229,0 -0.24077,0.10848 -0.24077,0.24077 v 4.80483 c 0,0.13229 0.10848,0.24077 0.24077,0.24077 0.1323,0 0.24078,-0.10848 0.24078,-0.24077 z m -1.34409,0 v -4.80483 c 0,-0.13229 -0.10848,-0.24077 -0.24077,-0.24077 -0.13229,0 -0.24077,0.10848 -0.24077,0.24077 v 4.80483 c 0,0.13229 0.10848,0.24077 0.24077,0.24077 0.13229,0 0.24077,-0.10848 0.24077,-0.24077 z m -8.17033,0 v -4.80483 c 0,-0.13229 -0.10848,-0.24077 -0.24077,-0.24077 -0.13229,0 -0.24077,0.10848 -0.24077,0.24077 v 4.80483 c 0,0.13229 0.10848,0.24077 0.24077,0.24077 0.13229,0 0.24077,-0.10848 0.24077,-0.24077 z m -1.53988,0 v -4.80483 c 0,-0.13229 -0.10848,-0.24077 -0.24077,-0.24077 -0.13229,0 -0.24077,0.10848 -0.24077,0.24077 v 4.80483 c 0,0.13229 0.10848,0.24077 0.24077,0.24077 0.13229,0 0.24077,-0.10848 0.24077,-0.24077 z m 7.54592,-0.24077 h -4.32594 c -0.13229,0 -0.24077,-0.10848 -0.24077,-0.24077 v -3.8444 c 0,-0.13229 0.10848,-0.24077 0.24077,-0.24077 h 4.32594 c 0.13229,0 0.24077,0.10848 0.24077,0.24077 v 3.8444 c 0,0.13494 -0.10848,0.24077 -0.24077,0.24077 z m -4.08517,-0.47889 h 3.8444 v -3.36286 h -3.8444 z m 48.54046,-9.83192 c 0,-0.13229 -0.10848,-0.24077 -0.24077,-0.24077 h -54.78727 c -0.13229,0 -0.24077,0.10848 -0.24077,0.24077 0,0.13229 0.10848,0.24077 0.24077,0.24077 h 54.78727 c 0.13229,0 0.24077,-0.10848 0.24077,-0.24077 z m -55.74771,3.82058 c 0,-0.13229 -0.10848,-0.24077 -0.24077,-0.24077 H 98.11567 c -0.13229,0 -0.24077,0.10848 -0.24077,0.24077 0,0.13229 0.10848,0.24077 0.24077,0.24077 h 26.43187 c 0.13229,0 0.24077,-0.10848 0.24077,-0.24077 z m 55.74771,-1.65629 v -2.11402 c 0,-0.13229 -0.10848,-0.24077 -0.24077,-0.24077 -0.13229,0 -0.24077,0.10848 -0.24077,0.24077 v 2.11402 c 0,0.13229 0.10848,0.24077 0.24077,0.24077 0.13229,-0.003 0.24077,-0.10848 0.24077,-0.24077 z m -4.80483,-8.26029 v -7.11994 c 0,-0.13229 -0.10848,-0.24077 -0.24077,-0.24077 -0.13229,0 -0.24077,0.10848 -0.24077,0.24077 v 7.11994 c 0,0.13229 0.10848,0.24077 0.24077,0.24077 0.13229,0 0.24077,-0.10848 0.24077,-0.24077 z m 3.34169,-7.11994 c 0,-0.13229 -0.10848,-0.24077 -0.24078,-0.24077 h -53.32412 c -0.13229,0 -0.24077,0.10848 -0.24077,0.24077 0,0.13229 0.10848,0.24077 0.24077,0.24077 h 53.32677 c 0.13229,0 0.23813,-0.10848 0.23813,-0.24077 z m -10.55159,13.19213 v -15.18709 c 0,-0.13229 -0.10848,-0.24077 -0.24077,-0.24077 -0.13229,0 -0.24077,0.10848 -0.24077,0.24077 v 15.18709 c 0,0.13229 0.10848,0.24077 0.24077,0.24077 0.13229,0 0.24077,-0.10848 0.24077,-0.24077 z m 1.44198,-13.45671 v -2.21192 c 0,-0.13229 -0.10848,-0.24077 -0.24077,-0.24077 -0.13229,0 -0.24077,0.10848 -0.24077,0.24077 v 2.21192 c 0,0.13229 0.10848,0.24077 0.24077,0.24077 0.13229,0 0.24077,-0.10848 0.24077,-0.24077 z m 4.32594,0 v -2.21192 c 0,-0.13229 -0.10848,-0.24077 -0.24077,-0.24077 -0.13229,0 -0.24077,0.10848 -0.24077,0.24077 v 2.21192 c 0,0.13229 0.10848,0.24077 0.24077,0.24077 0.13229,0 0.24077,-0.10848 0.24077,-0.24077 z m 0.96044,4.32594 c 0,-0.1323 -0.10848,-0.24078 -0.24077,-0.24078 h -6.24682 c -0.13229,0 -0.24077,0.10848 -0.24077,0.24078 0,0.13229 0.10848,0.24077 0.24077,0.24077 h 6.24682 c 0.13229,0 0.24077,-0.10848 0.24077,-0.24077 z m -5.28638,3.36285 v -3.17235 c 0,-0.1323 -0.10848,-0.24078 -0.24077,-0.24078 -0.13229,0 -0.24077,0.10848 -0.24077,0.24078 v 3.17235 c 0,0.13229 0.10848,0.24077 0.24077,0.24077 0.13229,0 0.24077,-0.10848 0.24077,-0.24077 z m 4.32594,0 v -3.17235 c 0,-0.1323 -0.10848,-0.24078 -0.24077,-0.24078 -0.13229,0 -0.24077,0.10848 -0.24077,0.24078 v 3.17235 c 0,0.13229 0.10848,0.24077 0.24077,0.24077 0.13229,0 0.24077,-0.10848 0.24077,-0.24077 z m -4.80748,5.07206 v -4.80483 c 0,-0.13229 -0.10848,-0.24077 -0.24077,-0.24077 -0.13229,0 -0.24077,0.10848 -0.24077,0.24077 v 4.80483 c 0,0.13229 0.10848,0.24077 0.24077,0.24077 0.13229,0 0.24077,-0.10848 0.24077,-0.24077 z m 5.28637,0 v -4.80483 c 0,-0.13229 -0.10847,-0.24077 -0.24077,-0.24077 -0.13229,0 -0.24077,0.10848 -0.24077,0.24077 v 4.80483 c 0,0.13229 0.10848,0.24077 0.24077,0.24077 0.13494,0 0.24077,-0.10848 0.24077,-0.24077 z m -5.28637,-8.72331 v -3.556 c 0,-0.13229 -0.10848,-0.24077 -0.24077,-0.24077 -0.13229,0 -0.24077,0.10848 -0.24077,0.24077 v 3.556 c 0,0.13229 0.10848,0.24077 0.24077,0.24077 0.13229,0 0.24077,-0.10848 0.24077,-0.24077 z m 5.28637,0 v -3.556 c 0,-0.13229 -0.10847,-0.24077 -0.24077,-0.24077 -0.13229,0 -0.24077,0.10848 -0.24077,0.24077 v 3.556 c 0,0.13229 0.10848,0.24077 0.24077,0.24077 0.13494,0 0.24077,-0.10848 0.24077,-0.24077 z m -53.91414,0.43921 c 0.0847,-0.10319 0.0662,-0.254 -0.037,-0.33867 l -1.19063,-0.96044 c -0.0423,-0.0344 -0.0952,-0.0529 -0.15081,-0.0529 h -1.42875 c -0.0556,0 -0.10848,0.0185 -0.15081,0.0529 l -1.19063,0.96044 c -0.10318,0.0847 -0.11906,0.23548 -0.037,0.33867 0.082,0.10319 0.23548,0.11906 0.33867,0.037 l 1.12448,-0.90752 h 1.25941 l 1.12448,0.90752 c 0.045,0.037 0.0979,0.0529 0.15082,0.0529 0.0714,0 0.14022,-0.0318 0.18785,-0.09 z m 57.66329,-8.99319 v -2.93158 c 0,-0.0661 -0.0265,-0.127 -0.0741,-0.17198 l -4.75192,-4.56671 c -0.045,-0.0423 -0.10319,-0.0661 -0.16669,-0.0661 h -2.93687 c -0.13229,0 -0.24077,0.10848 -0.24077,0.24077 0,0.1323 0.10848,0.24078 0.24077,0.24078 h 2.84162 l 4.60904,4.42647 v 2.8284 c 0,0.13229 0.10848,0.24077 0.24078,0.24077 0.13229,0 0.23812,-0.10848 0.23812,-0.24077 z m -8.17033,-0.48154 v -3.65125 c 0,-0.0185 -0.003,-0.0397 -0.008,-0.0582 l -1.20121,-4.80483 c -0.008,-0.0344 -0.0238,-0.0662 -0.045,-0.0926 l -1.88119,-2.35214 -0.4736,-3.29936 c -0.003,-0.0238 -0.0106,-0.045 -0.0185,-0.0661 L 164.317,159.6314 c -0.0397,-0.0847 -0.12435,-0.14023 -0.2196,-0.14023 h -3.84704 c -0.0953,0 -0.17992,0.0556 -0.21961,0.14023 l -2.40506,5.28638 c -0.008,0.0185 -0.0132,0.037 -0.0185,0.0582 l -0.59267,3.29935 -0.82814,1.68275 c -0.0582,0.11906 -0.0106,0.26194 0.10848,0.32279 0.11906,0.0582 0.26193,0.0106 0.32279,-0.10848 l 0.84402,-1.7145 c 0.0106,-0.0212 0.0159,-0.0423 0.0212,-0.0635 l 0.59266,-3.302 2.32834,-5.11704 h 3.53747 l 2.32305,5.1144 0.47889,3.3311 c 0.005,0.0423 0.0238,0.082 0.0503,0.11642 l 1.89177,2.36273 1.18269,4.72545 v 3.62215 c 0,0.13229 0.10848,0.24077 0.24077,0.24077 0.13229,0 0.23813,-0.11377 0.23813,-0.24606 z m -7.112,-20.71423 c 0,-0.13229 -0.10848,-0.24077 -0.24077,-0.24077 h -1.44198 c -0.13229,0 -0.24077,0.10848 -0.24077,0.24077 0,0.13229 0.10848,0.24077 0.24077,0.24077 h 1.44198 c 0.13229,0 0.24077,-0.10848 0.24077,-0.24077 z m -17.30111,5.09587 c 0,-0.13229 -0.10848,-0.24077 -0.24077,-0.24077 h -7.30514 c -0.13229,0 -0.24077,0.10848 -0.24077,0.24077 0,0.1323 0.10848,0.24078 0.24077,0.24078 h 7.30514 c 0.13229,-0.003 0.24077,-0.10848 0.24077,-0.24078 z m 7.96925,7.90575 c 0,-0.13229 -0.10848,-0.24077 -0.24077,-0.24077 h -11.63108 c -0.13229,0 -0.24077,0.10848 -0.24077,0.24077 0,0.1323 0.10848,0.24078 0.24077,0.24078 h 11.63108 c 0.13494,0 0.24077,-0.10848 0.24077,-0.24078 z m -2.16164,-1.68275 c 0,-0.13229 -0.10848,-0.24077 -0.24077,-0.24077 h -7.30515 c -0.13229,0 -0.24077,0.10848 -0.24077,0.24077 0,0.1323 0.10848,0.24078 0.24077,0.24078 h 7.30515 c 0.13229,0 0.24077,-0.10848 0.24077,-0.24078 z m -0.48154,-1.8997 c 0,-0.1323 -0.10848,-0.24077 -0.24077,-0.24077 h -6.34207 c -0.13229,0 -0.24077,0.10847 -0.24077,0.24077 0,0.13229 0.10848,0.24077 0.24077,0.24077 h 6.34471 c 0.13229,0 0.23813,-0.10848 0.23813,-0.24077 z m -0.52652,-1.73038 c 0,-0.13229 -0.10848,-0.24077 -0.24078,-0.24077 h -5.28637 c -0.13229,0 -0.24077,0.10848 -0.24077,0.24077 0,0.13229 0.10848,0.24077 0.24077,0.24077 h 5.28637 c 0.1323,0 0.24078,-0.10583 0.24078,-0.24077 z m -12.5095,12.28196 c 0,-0.13229 -0.10848,-0.24077 -0.24078,-0.24077 h -9.13077 c -0.13229,0 -0.24077,0.10848 -0.24077,0.24077 0,0.13229 0.10848,0.24077 0.24077,0.24077 h 9.13077 c 0.1323,-0.003 0.24078,-0.10848 0.24078,-0.24077 z m -2.64319,-1.92352 c 0,-0.13229 -0.10848,-0.24077 -0.24077,-0.24077 h -3.8444 c -0.13229,0 -0.24077,0.10848 -0.24077,0.24077 0,0.13229 0.10848,0.24077 0.24077,0.24077 h 3.8444 c 0.13229,0 0.24077,-0.10848 0.24077,-0.24077 z m -2.81517,1.92352 v -1.92352 c 0,-0.13229 -0.10848,-0.24077 -0.24077,-0.24077 -0.13229,0 -0.24077,0.10848 -0.24077,0.24077 v 1.92352 c 0,0.13229 0.10848,0.24077 0.24077,0.24077 0.13229,0 0.24077,-0.10848 0.24077,-0.24077 z m 1.82563,0 v -1.92352 c 0,-0.13229 -0.10848,-0.24077 -0.24077,-0.24077 -0.1323,0 -0.24078,0.10848 -0.24078,0.24077 v 1.92352 c 0,0.13229 0.10848,0.24077 0.24078,0.24077 0.13229,-0.003 0.24077,-0.10848 0.24077,-0.24077 z m -3.10621,-5.7785 0.23812,-4.05606 0.90223,-2.92629 h 1.72509 c 0.13229,0 0.24077,-0.10848 0.24077,-0.24078 0,-0.13229 -0.10848,-0.24077 -0.24077,-0.24077 h -1.905 c -0.10584,0 -0.19844,0.0688 -0.23019,0.16934 l -0.96044,3.12473 c -0.005,0.0185 -0.008,0.037 -0.0106,0.0556 l -0.24077,4.08517 c -0.008,0.13229 0.0926,0.24606 0.22489,0.254 h 0.0132 c 0.12965,0 0.23548,-0.0979 0.24342,-0.2249 z m -1.68275,0.44185 0.47889,-4.78895 0.8599,-3.44223 1.52929,-3.7174 c 0.0503,-0.12171 -0.008,-0.26194 -0.12964,-0.31485 -0.12171,-0.0503 -0.26194,0.008 -0.31486,0.12964 l -1.53723,3.73327 c -0.005,0.0106 -0.008,0.0212 -0.0106,0.0344 l -0.86783,3.47398 c -0.003,0.0106 -0.005,0.0238 -0.005,0.0344 l -0.48154,4.80484 c -0.0132,0.13229 0.082,0.24871 0.21431,0.26193 h 0.0238 c 0.12435,0.008 0.22754,-0.0847 0.24077,-0.20902 z m 4.30741,-8.62541 c 0,-0.13229 -0.10847,-0.24077 -0.24077,-0.24077 h -0.96043 c -0.1323,0 -0.24077,0.10848 -0.24077,0.24077 0,0.13229 0.10847,0.24077 0.24077,0.24077 h 0.96043 c 0.13494,-0.003 0.24077,-0.10848 0.24077,-0.24077 z m -0.28839,-0.96309 c 0,-0.13229 -0.10848,-0.24077 -0.24077,-0.24077 h -0.48154 c -0.1323,0 -0.24077,0.10848 -0.24077,0.24077 0,0.1323 0.10847,0.24077 0.24077,0.24077 h 0.48154 c 0.13494,0 0.24077,-0.10847 0.24077,-0.24077 z m 0,-6.00604 c 0,-0.13229 -0.10848,-0.24077 -0.24077,-0.24077 h -0.48154 c -0.1323,0 -0.24077,0.10848 -0.24077,0.24077 0,0.13229 0.10847,0.24077 0.24077,0.24077 h 0.48154 c 0.13494,0 0.24077,-0.10848 0.24077,-0.24077 z m 7.76552,21.67467 v -3.65125 c 0,-0.0185 -0.003,-0.0397 -0.008,-0.0582 l -1.20385,-4.80483 c -0.008,-0.0344 -0.0238,-0.0662 -0.045,-0.0926 l -1.88648,-2.35214 -0.4736,-3.29936 c -0.003,-0.0238 -0.0106,-0.045 -0.0185,-0.0661 l -2.4077,-5.28638 c -0.0397,-0.0847 -0.12436,-0.14023 -0.21961,-0.14023 h -3.85762 c -0.0953,0 -0.17992,0.0556 -0.21961,0.14023 l -2.41035,5.28638 c -0.008,0.0185 -0.0132,0.037 -0.0185,0.0582 l -0.59267,3.29406 -1.30969,2.39977 c -0.008,0.0159 -0.0132,0.0291 -0.0185,0.045 l -1.44727,4.80483 c -0.008,0.0238 -0.0106,0.045 -0.0106,0.0688 v 3.65125 c 0,0.13229 0.10848,0.24077 0.24077,0.24077 0.13229,0 0.24077,-0.10848 0.24077,-0.24077 v -3.61685 l 1.42875,-4.74927 1.31498,-2.413 c 0.0132,-0.0238 0.0212,-0.0476 0.0265,-0.0714 l 0.59531,-3.302 2.33363,-5.11969 h 3.54806 l 2.33098,5.1144 0.47889,3.3311 c 0.005,0.0423 0.0238,0.082 0.0503,0.11642 l 1.89442,2.36273 1.18533,4.72546 v 3.62214 c 0,0.13229 0.10848,0.24077 0.24077,0.24077 0.1323,0 0.23813,-0.10583 0.23813,-0.23812 z m -7.28398,-20.71423 c 0,-0.13229 -0.10848,-0.24077 -0.24077,-0.24077 h -1.34673 c -0.13229,0 -0.24077,0.10848 -0.24077,0.24077 0,0.13229 0.10848,0.24077 0.24077,0.24077 h 1.34673 c 0.13229,0 0.24077,-0.10848 0.24077,-0.24077 z m -15.00452,-40.3516 c 0.12965,-0.0317 0.20902,-0.1614 0.17727,-0.29105 l -1.20121,-4.94241 c -0.003,-0.0106 -0.005,-0.0212 -0.0106,-0.0291 l -1.44198,-3.70681 c -0.0476,-0.12435 -0.18785,-0.18521 -0.31221,-0.13758 -0.12435,0.0476 -0.18521,0.18785 -0.13758,0.31221 l 1.43669,3.69358 1.19856,4.92654 c 0.0265,0.11113 0.12435,0.18256 0.23283,0.18256 0.0185,0 0.037,-0.003 0.0582,-0.008 z m -6.64104,9.37948 c 0,-0.1323 -0.10848,-0.24078 -0.24077,-0.24078 h -2.30717 c -0.13229,0 -0.24077,0.10848 -0.24077,0.24078 0,0.13229 0.10848,0.24077 0.24077,0.24077 h 2.30717 c 0.13229,-0.003 0.24077,-0.10848 0.24077,-0.24077 z m 9.53558,10.73943 v -3.36285 c 0,-0.0132 0,-0.0291 -0.003,-0.0423 l -0.93928,-5.28638 c -0.0238,-0.12965 -0.14816,-0.2196 -0.27781,-0.19579 -0.12964,0.0238 -0.21696,0.14817 -0.19579,0.27781 l 0.93398,5.26521 v 3.34169 c 0,0.13229 0.10848,0.24077 0.24077,0.24077 0.13229,0 0.24077,-0.10584 0.24077,-0.23813 z m 3.556,0 v -3.36285 c 0,-0.0132 0,-0.0291 -0.003,-0.0423 l -0.93928,-5.28638 c -0.0238,-0.12965 -0.14816,-0.2196 -0.27781,-0.19579 -0.12964,0.0238 -0.21696,0.14817 -0.19579,0.27781 l 0.93398,5.26521 v 3.34169 c 0,0.13229 0.10848,0.24077 0.24077,0.24077 0.13229,0 0.24077,-0.10584 0.24077,-0.23813 z m 5.07471,4.67784 v -1.73038 c 0,-0.13229 -0.10848,-0.24077 -0.24077,-0.24077 -0.13229,0 -0.24077,0.10848 -0.24077,0.24077 v 1.73038 c 0,0.13229 0.10848,0.24077 0.24077,0.24077 0.13229,0 0.24077,-0.10848 0.24077,-0.24077 z m -1.73038,0 v -1.73038 c 0,-0.13229 -0.10847,-0.24077 -0.24077,-0.24077 -0.13229,0 -0.24077,0.10848 -0.24077,0.24077 v 1.73038 c 0,0.13229 0.10848,0.24077 0.24077,0.24077 0.1323,0 0.24077,-0.10848 0.24077,-0.24077 z m 1.29646,6.92943 v -3.84439 c 0,-0.13229 -0.10848,-0.24077 -0.24077,-0.24077 -0.13229,0 -0.24077,0.10848 -0.24077,0.24077 v 3.84439 c 0,0.13229 0.10848,0.24077 0.24077,0.24077 0.13229,0 0.24077,-0.10848 0.24077,-0.24077 z m -1.73037,0 v -3.84439 c 0,-0.13229 -0.10848,-0.24077 -0.24077,-0.24077 -0.13229,0 -0.24077,0.10848 -0.24077,0.24077 v 3.84439 c 0,0.13229 0.10848,0.24077 0.24077,0.24077 0.13229,0 0.24077,-0.10848 0.24077,-0.24077 z m 3.0771,0 v -3.84439 c 0,-0.13229 -0.10848,-0.24077 -0.24077,-0.24077 -0.13229,0 -0.24077,0.10848 -0.24077,0.24077 v 3.84439 c 0,0.13229 0.10848,0.24077 0.24077,0.24077 0.13229,0 0.24077,-0.10848 0.24077,-0.24077 z m -3.12473,11.82159 v -5.09323 c 0,-0.13229 -0.10848,-0.24077 -0.24077,-0.24077 -0.13229,0 -0.24077,0.10848 -0.24077,0.24077 v 5.09323 c 0,0.13229 0.10848,0.24077 0.24077,0.24077 0.13229,0 0.24077,-0.10848 0.24077,-0.24077 z m -1.8071,8.57779 c 0,-0.13229 -0.10848,-0.24077 -0.24077,-0.24077 h -13.07306 c -0.1323,0 -0.24078,0.10848 -0.24078,0.24077 0,0.13229 0.10848,0.24077 0.24078,0.24077 h 13.07306 c 0.13494,0 0.24077,-0.10848 0.24077,-0.24077 z m -10.44575,8.72331 v -3.65125 c 0,-0.0556 -0.0185,-0.11112 -0.0556,-0.15346 l -4.80748,-5.76791 c -0.0847,-0.10319 -0.23548,-0.11642 -0.33867,-0.0317 -0.10319,0.0847 -0.11642,0.23547 -0.0317,0.33866 l 4.75192,5.69913 v 3.56658 c 0,0.13229 0.10848,0.24077 0.24077,0.24077 0.13229,0 0.24077,-0.10583 0.24077,-0.24077 z m 5.76527,-0.2884 v -2.40241 c 0,-0.0529 -0.0159,-0.10319 -0.0476,-0.14552 l -2.88395,-3.8444 c -0.0794,-0.10583 -0.23019,-0.127 -0.33602,-0.0476 -0.10584,0.0794 -0.127,0.23018 -0.0476,0.33602 l 2.83633,3.78089 v 2.32304 c 0,0.1323 0.10848,0.24078 0.24077,0.24078 0.12965,0 0.23813,-0.10584 0.23813,-0.24078 z m -1.63513,-0.71966 c 0,-0.13229 -0.10847,-0.24077 -0.24077,-0.24077 h -2.69081 c -0.13229,0 -0.24077,0.10848 -0.24077,0.24077 0,0.13229 0.10848,0.24077 0.24077,0.24077 h 2.69081 c 0.13494,0 0.24077,-0.10848 0.24077,-0.24077 z m -76.199996,13.91179 v -2.88396 c 0,-0.13229 -0.10848,-0.24077 -0.240771,-0.24077 -0.132292,0 -0.240771,0.10848 -0.240771,0.24077 v 2.88396 c 0,0.13229 0.108479,0.24077 0.240771,0.24077 0.132291,0 0.240771,-0.10848 0.240771,-0.24077 z M 154.10415,153.24165 c 0,-0.13229 -0.10848,-0.24077 -0.24077,-0.24077 h -12.01473 c -0.13229,0 -0.24077,0.10848 -0.24077,0.24077 0,0.1323 0.10848,0.24078 0.24077,0.24078 h 12.01473 c 0.13229,0 0.24077,-0.10848 0.24077,-0.24078 z m -5.00857,-0.78052 0.51065,-0.96043 c 0.0503,-0.0952 0.0317,-0.21432 -0.0476,-0.2884 l -1.89178,-1.778 0.38894,-0.55033 c 0.0635,-0.09 0.0582,-0.21431 -0.0159,-0.29898 l -1.27794,-1.44198 c -0.09,-0.10319 -0.26988,-0.10319 -0.35983,0 l -1.27794,1.44198 c -0.0741,0.0847 -0.0794,0.20637 -0.0159,0.29898 l 0.51065,0.71966 c 0.0767,0.10848 0.22754,0.13494 0.33602,0.0582 0.10848,-0.0767 0.13494,-0.22754 0.0582,-0.33602 l -0.39952,-0.56621 0.97102,-1.09537 0.97102,1.09537 -0.39952,0.56621 c -0.0688,0.0979 -0.0556,0.23284 0.0317,0.31486 l 1.91029,1.79652 -0.42333,0.79904 c -0.0635,0.11641 -0.0185,0.26194 0.10054,0.32544 0.037,0.0185 0.0741,0.0291 0.11377,0.0291 0.0794,0 0.16404,-0.0476 0.20637,-0.12965 z m -18.08162,0.56621 c 0,-0.13229 -0.10848,-0.24077 -0.24077,-0.24077 h -12.97517 c -0.13229,0 -0.24077,0.10848 -0.24077,0.24077 0,0.13229 0.10848,0.24077 0.24077,0.24077 h 12.97517 c 0.13494,-0.003 0.24077,-0.10848 0.24077,-0.24077 z m 19.22462,30.75781 v -1.73037 c 0,-0.13229 -0.10847,-0.24077 -0.24077,-0.24077 -0.13229,0 -0.24077,0.10848 -0.24077,0.24077 v 1.73037 c 0,0.1323 0.10848,0.24078 0.24077,0.24078 0.1323,0 0.24077,-0.10848 0.24077,-0.24078 z m -4.32593,0 v -1.73037 c 0,-0.13229 -0.10848,-0.24077 -0.24077,-0.24077 -0.1323,0 -0.24077,0.10848 -0.24077,0.24077 v 1.73037 c 0,0.1323 0.10847,0.24078 0.24077,0.24078 0.13229,0 0.24077,-0.10848 0.24077,-0.24078 z m 5.28637,4.80484 c 0,-0.13229 -0.10848,-0.24077 -0.24077,-0.24077 h -6.24681 c -0.13229,0 -0.24077,0.10848 -0.24077,0.24077 0,0.13229 0.10848,0.24077 0.24077,0.24077 h 6.24681 c 0.13494,0 0.24077,-0.10848 0.24077,-0.24077 z m -0.96044,3.12473 v -2.93159 c 0,-0.13229 -0.10847,-0.24077 -0.24077,-0.24077 -0.13229,0 -0.24077,0.10848 -0.24077,0.24077 v 2.93159 c 0,0.13229 0.10848,0.24077 0.24077,0.24077 0.1323,0 0.24077,-0.10848 0.24077,-0.24077 z m -4.32593,0 v -2.93159 c 0,-0.13229 -0.10848,-0.24077 -0.24077,-0.24077 -0.1323,0 -0.24077,0.10848 -0.24077,0.24077 v 2.93159 c 0,0.13229 0.10847,0.24077 0.24077,0.24077 0.13229,0 0.24077,-0.10848 0.24077,-0.24077 z m 4.80748,5.76527 v -5.28638 c 0,-0.13229 -0.10848,-0.24077 -0.24077,-0.24077 -0.1323,0 -0.24078,0.10848 -0.24078,0.24077 v 5.28638 c 0,0.13229 0.10848,0.24077 0.24078,0.24077 0.13229,0 0.24077,-0.10583 0.24077,-0.24077 z m -5.28638,0 v -5.28638 c 0,-0.13229 -0.10848,-0.24077 -0.24077,-0.24077 -0.13229,0 -0.24077,0.10848 -0.24077,0.24077 v 5.28638 c 0,0.13229 0.10848,0.24077 0.24077,0.24077 0.13229,0 0.24077,-0.10583 0.24077,-0.24077 z m 5.28638,-9.19956 v -3.65125 c 0,-0.1323 -0.10848,-0.24078 -0.24077,-0.24078 -0.1323,0 -0.24078,0.10848 -0.24078,0.24078 v 3.65125 c 0,0.13229 0.10848,0.24077 0.24078,0.24077 0.13229,0 0.24077,-0.10848 0.24077,-0.24077 z m -5.28638,0 v -3.65125 c 0,-0.1323 -0.10848,-0.24078 -0.24077,-0.24078 -0.13229,0 -0.24077,0.10848 -0.24077,0.24078 v 3.65125 c 0,0.13229 0.10848,0.24077 0.24077,0.24077 0.13229,0 0.24077,-0.10848 0.24077,-0.24077 z M 58.803878,159.97795 c -0.13229,0 -0.24077,-0.10848 -0.24077,-0.24077 v -4.81542 -0.003 -2.16164 c 0,-0.10054 0.0635,-0.1905 0.15875,-0.2249 0.0953,-0.0344 0.20108,-0.005 0.26723,0.0714 l 2.00025,2.40242 c 0.0609,0.0714 0.0714,0.17197 0.0318,0.25664 -0.0397,0.0847 -0.12436,0.13758 -0.21696,0.13758 h -0.51065 v 0.96044 c 0,0.10054 -0.0635,0.1905 -0.1561,0.2249 -0.0952,0.0344 -0.20109,0.008 -0.26459,-0.0688 l -0.82814,-0.95515 v 4.17248 c 0,0.13758 -0.10848,0.24342 -0.24077,0.24342 z m 0.24077,-5.14615 0.76994,0.88635 v -0.55827 c 0,-0.13229 0.10847,-0.24077 0.24077,-0.24077 h 0.23812 l -1.24619,-1.49754 v 1.41023 z m 28.74169,5.14615 c -0.1323,0 -0.24078,-0.10848 -0.24078,-0.24077 v -4.81542 -0.003 -2.16164 c 0,-0.10054 0.0635,-0.1905 0.15875,-0.2249 0.0952,-0.0344 0.20109,-0.005 0.26723,0.0714 l 2.00025,2.40242 c 0.0609,0.0714 0.0714,0.17197 0.0318,0.25664 -0.0397,0.0847 -0.12435,0.13758 -0.21695,0.13758 h -0.51065 v 0.96044 c 0,0.10054 -0.0635,0.1905 -0.1561,0.2249 -0.0952,0.0344 -0.20109,0.008 -0.26459,-0.0688 l -0.82814,-0.95515 v 4.17248 c 0,0.13758 -0.10848,0.24342 -0.24077,0.24342 z m 0.24077,-5.14615 0.76993,0.88635 v -0.55827 c 0,-0.13229 0.10848,-0.24077 0.24077,-0.24077 h 0.23813 l -1.24619,-1.49754 v 1.41023 z m 43.783252,5.14615 c -0.1323,0 -0.24078,-0.10848 -0.24078,-0.24077 v -4.81542 -0.003 -2.16164 c 0,-0.10054 0.0635,-0.1905 0.15875,-0.2249 0.0953,-0.0344 0.20109,-0.005 0.26723,0.0714 l 2.00025,2.40242 c 0.0609,0.0714 0.0714,0.17197 0.0318,0.25664 -0.0397,0.0847 -0.12435,0.13758 -0.21695,0.13758 h -0.51065 v 0.96044 c 0,0.10054 -0.0635,0.1905 -0.1561,0.2249 -0.0952,0.0344 -0.20109,0.008 -0.26459,-0.0688 l -0.82814,-0.95515 v 4.17248 c 0,0.13758 -0.10848,0.24342 -0.24077,0.24342 z m 0.24077,-5.14615 0.76993,0.88635 v -0.55827 c 0,-0.13229 0.10848,-0.24077 0.24077,-0.24077 h 0.23813 l -1.24619,-1.49754 v 1.41023 z m 28.64643,5.14615 c -0.13229,0 -0.24077,-0.10848 -0.24077,-0.24077 v -4.81542 -0.003 -2.16164 c 0,-0.10054 0.0635,-0.1905 0.15875,-0.2249 0.0952,-0.0344 0.20109,-0.005 0.26723,0.0714 l 2.00025,2.40242 c 0.0609,0.0714 0.0714,0.17197 0.0317,0.25664 -0.0397,0.0847 -0.12435,0.13758 -0.21696,0.13758 h -0.51064 v 0.96044 c 0,0.10054 -0.0635,0.1905 -0.15611,0.2249 -0.0953,0.0344 -0.20108,0.008 -0.26458,-0.0688 l -0.82815,-0.95515 v 4.17248 c -0.003,0.13758 -0.10848,0.24342 -0.24077,0.24342 z m 0.23813,-5.14615 0.76994,0.88635 v -0.55827 c 0,-0.13229 0.10847,-0.24077 0.24077,-0.24077 h 0.23812 l -1.24619,-1.49754 v 1.41023 z"
       style="fill:#2d2926;stroke-width:0.264583"
       id="path500" />
  </g>
</svg>
