<svg width="64" height="64" viewBox="0 0 64 64" fill="none" xmlns="http://www.w3.org/2000/svg">
<path d="M46.9943 52.8563H15.7306C12.0025 52.8563 8.96936 49.8232 8.96936 46.0951V12.7613C8.96936 9.0331 12.0025 6 15.7306 6H46.9943C50.7225 6 53.7556 9.0331 53.7556 12.7613V46.0951C53.7556 49.8232 50.7225 52.8563 46.9943 52.8563ZM15.7281 7.01103C12.5585 7.01103 9.97786 9.59169 9.97786 12.7613V46.0951C9.97786 49.2646 12.5585 51.8453 15.7281 51.8453H46.9917C50.1613 51.8453 52.742 49.2646 52.742 46.0951V12.7613C52.742 9.59169 50.1613 7.01103 46.9917 7.01103H15.7281Z" fill="#231F20"/>
<path d="M36.5534 12.238H26.4179C26.1398 12.238 25.9124 12.0105 25.9124 11.7325C25.9124 11.4545 26.1398 11.227 26.4179 11.227H36.5534C36.8315 11.227 37.059 11.4545 37.059 11.7325C37.059 12.0105 36.834 12.238 36.5534 12.238Z" fill="#231F20"/>
<path d="M47.5533 29.9741C47.2753 29.9741 47.0478 29.7466 47.0478 29.4686V19.7904C47.0478 18.6985 46.1607 17.8113 45.0688 17.8113H17.235C16.1431 17.8113 15.2559 18.6985 15.2559 19.7904V29.4686C15.2559 29.7466 15.0284 29.9741 14.7504 29.9741C14.4724 29.9741 14.2449 29.7466 14.2449 29.4686V19.7904C14.2449 18.1425 15.587 16.8003 17.235 16.8003H45.0688C46.7168 16.8003 48.0589 18.1425 48.0589 19.7904V29.4686C48.0589 29.7491 47.8314 29.9741 47.5533 29.9741Z" fill="#231F20"/>
<path d="M43.8709 35.0418H18.8402C18.5622 35.0418 18.3347 34.8143 18.3347 34.5363C18.3347 34.2582 18.5622 34.0308 18.8402 34.0308H43.8709C44.1489 34.0308 44.3764 34.2582 44.3764 34.5363C44.3764 34.8143 44.1489 35.0418 43.8709 35.0418Z" fill="#231F20"/>
<path d="M35.3278 43.9112H27.3811C27.1031 43.9112 26.8756 43.6838 26.8756 43.4057C26.8756 43.1277 27.1031 42.9002 27.3811 42.9002H35.3278C35.6059 42.9002 35.8333 43.1277 35.8333 43.4057C35.8333 43.6838 35.6084 43.9112 35.3278 43.9112Z" fill="#231F20"/>
<path d="M6.50552 27.5931C6.22748 27.5931 6 27.3656 6 27.0876V15.534C6 15.256 6.22748 15.0285 6.50552 15.0285C6.78355 15.0285 7.01103 15.256 7.01103 15.534V27.0876C7.01103 27.3656 6.78608 27.5931 6.50552 27.5931Z" fill="#231F20"/>
<path d="M56.8629 27.5931C56.5849 27.5931 56.3574 27.3656 56.3574 27.0876V15.534C56.3574 15.256 56.5849 15.0285 56.8629 15.0285C57.141 15.0285 57.3685 15.256 57.3685 15.534V27.0876C57.3685 27.3656 57.141 27.5931 56.8629 27.5931Z" fill="#231F20"/>
<path d="M19.8057 57.8507H17.8695C15.9612 57.8507 14.4093 56.2987 14.4093 54.3904C14.4093 54.1124 14.6368 53.8849 14.9148 53.8849C15.1929 53.8849 15.4203 54.1124 15.4203 54.3904C15.4203 55.7401 16.5198 56.8397 17.8695 56.8397H19.8057C21.1554 56.8397 22.2549 55.7401 22.2549 54.3904C22.2549 54.1124 22.4824 53.8849 22.7604 53.8849C23.0385 53.8849 23.266 54.1124 23.266 54.3904C23.266 56.2987 21.714 57.8507 19.8057 57.8507Z" fill="#231F20"/>
<path d="M45.3163 57.9999H43.3802C41.4718 57.9999 39.9199 56.448 39.9199 54.5397C39.9199 54.2617 40.1474 54.0342 40.4254 54.0342C40.7035 54.0342 40.931 54.2617 40.931 54.5397C40.931 55.8894 42.0304 56.9889 43.3802 56.9889H45.3163C46.6661 56.9889 47.7655 55.8894 47.7655 54.5397C47.7655 54.2617 47.993 54.0342 48.2711 54.0342C48.5491 54.0342 48.7766 54.2617 48.7766 54.5397C48.7766 56.448 47.2247 57.9999 45.3163 57.9999Z" fill="#231F20"/>
<path d="M16.3607 46.3352C14.7152 46.3352 13.3756 44.9955 13.3756 43.3501C13.3756 41.7046 14.7152 40.365 16.3607 40.365C18.0062 40.365 19.3458 41.7046 19.3458 43.3501C19.3433 44.9981 18.0062 46.3352 16.3607 46.3352ZM16.3607 41.3786C15.2713 41.3786 14.3866 42.2632 14.3866 43.3526C14.3866 44.442 15.2713 45.3267 16.3607 45.3267C17.4501 45.3267 18.3348 44.442 18.3348 43.3526C18.3322 42.2632 17.4476 41.3786 16.3607 41.3786Z" fill="#231F20"/>
<path d="M46.6891 46.3352C45.0436 46.3352 43.704 44.9955 43.704 43.3501C43.704 41.7046 45.0436 40.365 46.6891 40.365C48.3345 40.365 49.6742 41.7046 49.6742 43.3501C49.6742 44.9981 48.3371 46.3352 46.6891 46.3352ZM46.6891 41.3786C45.5997 41.3786 44.715 42.2632 44.715 43.3526C44.715 44.442 45.5997 45.3267 46.6891 45.3267C47.7785 45.3267 48.6631 44.442 48.6631 43.3526C48.6631 42.2632 47.7785 41.3786 46.6891 41.3786Z" fill="#231F20"/>
</svg>
