<svg width="21" height="20" viewBox="0 0 21 20" fill="none" xmlns="http://www.w3.org/2000/svg">
<path fill-rule="evenodd" clip-rule="evenodd" d="M10.0999 20C15.6227 20 20.0999 15.5228 20.0999 10C20.0999 4.47715 15.6227 0 10.0999 0C4.57701 0 0.0998535 4.47715 0.0998535 10C0.0998535 15.5228 4.57701 20 10.0999 20ZM15.3125 7.30689C15.666 6.88262 15.6087 6.25205 15.1844 5.89849C14.7601 5.54492 14.1296 5.60225 13.776 6.02653L9.62251 11.0107C9.27579 11.4268 9.08088 11.6571 8.92526 11.7987L8.91931 11.8041L8.9129 11.7993C8.74511 11.6724 8.53014 11.4606 8.14718 11.0777L6.36246 9.29294C5.97193 8.90241 5.33877 8.90241 4.94825 9.29294C4.55772 9.68346 4.55772 10.3166 4.94825 10.7071L6.73297 12.4919L6.7738 12.5327L6.77381 12.5327C7.1003 12.8593 7.41438 13.1735 7.70662 13.3945C8.03399 13.6421 8.4627 13.8748 9.01212 13.8499C9.56153 13.825 9.96741 13.5544 10.271 13.2782C10.5421 13.0317 10.8264 12.6903 11.122 12.3355L11.159 12.2911L15.3125 7.30689Z" fill="#E5DECF"/>
</svg>
