<svg width="41" height="29" viewBox="0 0 41 29" fill="none" xmlns="http://www.w3.org/2000/svg">
<path fill-rule="evenodd" clip-rule="evenodd" d="M0.5 1.3391H6.5742V17.4618C6.5742 20.0133 7.75428 21.5332 8.68744 22.1847C7.69952 23.0532 4.68061 23.8133 2.43016 21.9674C1.10338 20.8795 0.5 19.0904 0.5 17.4075V1.3391ZM38.4613 14.7319V13.0375H40.3139V7.09339H38.2795C37.4985 3.52466 34.286 0.850464 30.444 0.850464C26.0181 0.850464 22.4304 4.39901 22.4304 8.77613V22.6575C23.6913 22.8328 25.1935 22.6357 26.4715 21.5875C27.7981 20.4993 28.4015 18.7105 28.4015 17.0275V16.5161H31.4352V10.572H28.4015V8.77613H28.4088C28.4088 7.66456 29.3199 6.76343 30.444 6.76343C31.5679 6.76343 32.4827 7.66456 32.4827 8.77613V14.7319C32.4827 19.109 36.0743 22.6575 40.5 22.6575V16.7446C39.3761 16.7446 38.4613 15.8434 38.4613 14.7319ZM15.4562 7.09339V15.8171C15.4562 16.3123 15.0407 16.7138 14.528 16.7138C14.0154 16.7138 13.5999 16.3123 13.5999 15.8171V7.09339H7.5896V17.3533C7.5896 19.1989 8.22248 21.5332 11.1026 22.2932C13.9857 23.054 15.6582 21.479 15.6582 21.479C15.5059 22.5166 14.5177 23.2767 12.926 23.4395C11.7217 23.5627 10.1815 23.1681 9.41327 22.8424V28.2781C11.3709 28.8491 13.4415 29.0336 15.4679 28.6446C19.1453 27.939 21.4663 24.8991 21.4663 20.8547V7.09339H15.4562Z" fill="white"/>
</svg>
