<svg width="25" height="25" viewBox="0 0 25 25" fill="none" xmlns="http://www.w3.org/2000/svg">
<path d="M18.3268 8.57128C18.3268 12.1207 14.8616 16.3921 13.4418 17.9804C13.129 18.3293 12.5755 18.3293 12.2626 17.9804C10.8549 16.3801 7.38965 12.1207 7.38965 8.57128C7.38965 5.55123 9.84419 3.09668 12.8642 3.09668C15.8843 3.09668 18.3268 5.55123 18.3268 8.57128Z" stroke="#2D2926" stroke-width="1.5" stroke-miterlimit="10" stroke-linecap="round" stroke-linejoin="round"/>
<path d="M14.8595 8.83349C14.932 7.72608 14.0931 6.76952 12.9857 6.69694C11.8783 6.62436 10.9218 7.46326 10.8492 8.57067C10.7766 9.67807 11.6155 10.6346 12.7229 10.7072C13.8303 10.7798 14.7869 9.9409 14.8595 8.83349Z" stroke="#2D2926" stroke-width="1.5" stroke-miterlimit="10" stroke-linecap="round" stroke-linejoin="round"/>
<path d="M5.85254 14.8521L3.63845 20.5974C3.25977 21.5801 3.98503 22.6368 5.03812 22.6368H20.667C21.72 22.6368 22.4453 21.5801 22.0666 20.5974L19.8525 14.8521" stroke="#2D2926" stroke-width="1.5" stroke-miterlimit="10" stroke-linecap="round" stroke-linejoin="round"/>
</svg>
