<svg width="31" height="30" viewBox="0 0 31 30" fill="none" xmlns="http://www.w3.org/2000/svg">
<g clip-path="url(#clip0_1339_16853)">
<path d="M15.5 24.9487H29.4286" stroke="#DC6B2F" stroke-width="1.5"/>
<path d="M25.4487 20.9692L29.4284 24.9489L25.4487 28.9284" stroke="#DC6B2F" stroke-linecap="round" stroke-linejoin="round"/>
<path d="M10.526 7.04129C12.1746 7.04129 13.511 5.70486 13.511 4.05629C13.511 2.40772 12.1746 1.07129 10.526 1.07129C8.87745 1.07129 7.54102 2.40772 7.54102 4.05629C7.54102 5.70486 8.87745 7.04129 10.526 7.04129Z" stroke="#DC6B2F" stroke-width="1.5"/>
<path d="M18.485 16.9905C20.1336 16.9905 21.47 15.6541 21.47 14.0055C21.47 12.3569 20.1336 11.0205 18.485 11.0205C16.8364 11.0205 15.5 12.3569 15.5 14.0055C15.5 15.6541 16.8364 16.9905 18.485 16.9905Z" stroke="#DC6B2F" stroke-width="1.5"/>
<path d="M12.5148 27.9344C14.1634 27.9344 15.4998 26.5979 15.4998 24.9494C15.4998 23.3008 14.1634 21.9644 12.5148 21.9644C10.8662 21.9644 9.52979 23.3008 9.52979 24.9494C9.52979 26.5979 10.8662 27.9344 12.5148 27.9344Z" stroke="#DC6B2F" stroke-width="1.5"/>
<path d="M15.4999 14.0059H7.04325C4.02118 14.0059 1.57129 16.4557 1.57129 19.4778C1.57129 22.4999 4.02118 24.9498 7.04325 24.9498H9.5305" stroke="#DC6B2F" stroke-width="1.5"/>
<path d="M21.4695 14.0056H24.4542C27.2016 14.0056 29.4287 11.7785 29.4287 9.03113C29.4287 6.2838 27.2016 4.05664 24.4542 4.05664H13.5103" stroke="#DC6B2F" stroke-width="1.5"/>
<path d="M7.54071 4.05664H1.57129" stroke="#DC6B2F" stroke-width="1.5"/>
</g>
<defs>
<clipPath id="clip0_1339_16853">
<rect width="30" height="30" fill="white" transform="translate(0.5)"/>
</clipPath>
</defs>
</svg>
