<svg width="100" height="101" viewBox="0 0 100 101" fill="none" xmlns="http://www.w3.org/2000/svg">
<path fill-rule="evenodd" clip-rule="evenodd" d="M49.9944 100.773C77.6086 100.773 99.9944 78.3877 99.9944 50.7734C99.9944 23.1592 77.6086 0.773438 49.9944 0.773438C22.3801 0.773438 -0.00561523 23.1592 -0.00561523 50.7734C-0.00561523 78.3877 22.3801 100.773 49.9944 100.773ZM50.9944 25.7732C50.9944 25.2209 50.5466 24.7732 49.9944 24.7732C49.4421 24.7732 48.9944 25.2209 48.9944 25.7732V50.7732C48.9944 51.0384 49.0997 51.2928 49.2872 51.4803L66.9649 69.158C67.3554 69.5485 67.9886 69.5485 68.3791 69.158C68.7697 68.7674 68.7697 68.1343 68.3791 67.7438L50.9944 50.359V25.7732Z" fill="#C6A992"/>
</svg>
