<svg width="51" height="52" viewBox="0 0 51 52" fill="none" xmlns="http://www.w3.org/2000/svg">
<path d="M24.0095 52C23.7691 52 23.5725 51.8034 23.5725 51.563V0.436975C23.5725 0.196639 23.7691 0 24.0095 0C24.2498 0 24.4465 0.196639 24.4465 0.436975V51.563C24.4465 51.8055 24.2498 52 24.0095 52Z" fill="#010101"/>
<path d="M4.9902 48.8452C4.74986 48.8452 4.55322 48.6485 4.55322 48.4082V33.0922C4.55322 32.8519 4.74986 32.6553 4.9902 32.6553C5.23053 32.6553 5.42717 32.8519 5.42717 33.0922V48.4082C5.42717 48.6507 5.23272 48.8452 4.9902 48.8452Z" fill="#010101"/>
<path d="M11.8156 48.8408C11.5753 48.8408 11.3787 48.6441 11.3787 48.4038V33.0879C11.3787 32.8475 11.5753 32.6509 11.8156 32.6509C12.056 32.6509 12.2526 32.8475 12.2526 33.0879V48.4038C12.2526 48.6463 12.0582 48.8408 11.8156 48.8408Z" fill="#010101"/>
<path d="M16.3735 36.0723C16.1331 36.0723 15.9365 35.8757 15.9365 35.6354V22.3339C15.9365 17.7762 13.5441 15.6547 8.40523 15.6547C3.40842 15.6547 0.87395 17.903 0.87395 22.3339V35.6354C0.87395 35.8757 0.677311 36.0723 0.436975 36.0723C0.196639 36.0723 0 35.8757 0 35.6354V22.3339C0 17.4638 2.98456 14.7808 8.40523 14.7808C14.0619 14.7808 16.8104 17.2519 16.8104 22.3339V35.6354C16.8104 35.8779 16.6138 36.0723 16.3735 36.0723Z" fill="#010101"/>
<path d="M10.83 13.6535C10.6749 13.6535 10.5241 13.5704 10.4455 13.424C10.3319 13.2121 10.4105 12.9456 10.6225 12.8319C12.1366 12.017 13.0761 10.4482 13.0761 8.73968C13.0761 6.17682 10.9808 4.09026 8.40486 4.09026C5.82889 4.09026 3.73357 6.17682 3.73357 8.73968C3.73357 10.4461 4.66873 12.0126 6.1763 12.8276C6.38823 12.9434 6.46684 13.2077 6.35323 13.4197C6.23962 13.6316 5.97307 13.7103 5.76114 13.5966C3.97173 12.6287 2.85962 10.7672 2.85962 8.73968C2.85962 5.69396 5.34822 3.21631 8.40486 3.21631C11.4615 3.21631 13.95 5.69396 13.95 8.73968C13.95 10.7716 12.8336 12.6353 11.0376 13.601C10.9699 13.6382 10.9 13.6535 10.83 13.6535Z" fill="#010101"/>
<path d="M49.7261 38.491C49.547 38.491 49.3787 38.3795 49.3154 38.2025L41.2401 15.7115C40.1127 15.4515 38.9154 15.4515 37.7902 15.7115L29.7149 38.2025C29.634 38.4298 29.3828 38.5478 29.1555 38.4669C28.9283 38.3861 28.8103 38.1348 28.8912 37.9076L37.0451 15.1958C37.0932 15.0604 37.2068 14.9577 37.3466 14.9205C38.7537 14.5513 40.27 14.5513 41.6771 14.9183C41.6989 14.9227 41.7185 14.9315 41.7404 14.938C41.7535 14.9424 41.7666 14.949 41.7776 14.9555C41.8693 15.0036 41.9436 15.0866 41.9807 15.1914L50.1347 37.9032C50.1522 37.9513 50.1609 38.0016 50.1609 38.0518C50.1609 38.231 50.0495 38.3992 49.8725 38.4625C49.8267 38.4822 49.7764 38.491 49.7261 38.491Z" fill="#010101"/>
<path d="M36.9624 48.7032C36.722 48.7032 36.5254 48.5065 36.5254 48.2662V35.5022C36.5254 35.2618 36.722 35.0652 36.9624 35.0652C37.2027 35.0652 37.3993 35.2618 37.3993 35.5022V48.2662C37.3993 48.5065 37.2049 48.7032 36.9624 48.7032Z" fill="#010101"/>
<path d="M42.0681 48.7032C41.8277 48.7032 41.6311 48.5065 41.6311 48.2662V35.5022C41.6311 35.2618 41.8277 35.0652 42.0681 35.0652C42.3084 35.0652 42.5051 35.2618 42.5051 35.5022V48.2662C42.5051 48.5065 42.3106 48.7032 42.0681 48.7032Z" fill="#010101"/>
<path d="M48.3978 27.7109C48.2186 27.7109 48.0503 27.5995 47.987 27.4203L44.3885 17.3612C44.3077 17.1339 44.4256 16.8849 44.6529 16.8018C44.8801 16.721 45.1292 16.839 45.2122 17.0662L48.8107 27.1254C48.8915 27.3526 48.7735 27.6017 48.5463 27.6847C48.4961 27.7044 48.448 27.7109 48.3978 27.7109Z" fill="#010101"/>
<path d="M30.7597 27.4463C30.7116 27.4463 30.6614 27.4376 30.6133 27.4202C30.3861 27.3393 30.2681 27.088 30.3489 26.8608L33.8491 17.0791C33.93 16.8519 34.1812 16.7339 34.4085 16.8148C34.6357 16.8956 34.7537 17.1469 34.6728 17.3741L31.1727 27.1557C31.1071 27.3349 30.9388 27.4463 30.7597 27.4463Z" fill="#010101"/>
<path d="M41.6901 13.5768C41.535 13.5768 41.3843 13.4938 41.3056 13.3474C41.192 13.1354 41.2707 12.8689 41.4826 12.7553C42.9967 11.9403 43.9362 10.3716 43.9362 8.66302C43.9362 6.10016 41.8409 4.0136 39.265 4.0136C36.689 4.0136 34.5937 6.10016 34.5937 8.66302C34.5937 10.3694 35.5288 11.9359 37.0364 12.7509C37.2483 12.8667 37.327 13.1311 37.2133 13.343C37.0975 13.5549 36.8332 13.6336 36.6212 13.52C34.8318 12.5521 33.7197 10.6906 33.7197 8.66302C33.7197 5.6173 36.2083 3.13965 39.265 3.13965C42.3216 3.13965 44.8101 5.6173 44.8101 8.66302C44.8101 10.6949 43.6937 12.5586 41.8977 13.5244C41.83 13.5593 41.7601 13.5768 41.6901 13.5768Z" fill="#010101"/>
</svg>
