<svg width="61" height="22" viewBox="0 0 61 22" fill="none" xmlns="http://www.w3.org/2000/svg">
<path d="M3.48228 15.3373C3.73583 16.0141 4.08687 16.5927 4.53546 17.0732C4.98405 17.5538 5.5155 17.9216 6.1298 18.1766C6.74417 18.4316 7.41213 18.559 8.13376 18.559C8.8359 18.559 9.49409 18.4266 10.1085 18.1618C10.7228 17.897 11.2591 17.5243 11.7174 17.0438C12.1757 16.5632 12.5317 15.9895 12.7852 15.3226C13.0388 14.6557 13.1655 13.9104 13.1655 13.0866V0.376343H16.2372V20.9716H13.1948V19.0592C12.5122 19.7849 11.7077 20.3439 10.7813 20.7363C9.85484 21.1285 8.85538 21.3246 7.78272 21.3246C6.6905 21.3246 5.6715 21.1334 4.72558 20.7509C3.77972 20.3684 2.96054 19.8242 2.26824 19.118C1.57593 18.4118 1.02979 17.5636 0.630011 16.573C0.230164 15.5825 0.0302734 14.4792 0.0302734 13.2631V0.376343H3.10198V13.0866C3.10198 13.9104 3.22872 14.6606 3.48228 15.3373Z" fill="white"/>
<path d="M21.192 0.376343V7.87888C21.8746 7.19238 22.6645 6.64813 23.5616 6.246C24.4587 5.84386 25.4339 5.64283 26.487 5.64283C27.5792 5.64283 28.603 5.84874 29.5587 6.26064C30.5144 6.67254 31.3432 7.23157 32.0453 7.93774C32.7475 8.6439 33.3033 9.47746 33.7129 10.4386C34.1224 11.3997 34.3272 12.4197 34.3272 13.4985C34.3272 14.5772 34.1224 15.5923 33.7129 16.5436C33.3033 17.4949 32.7475 18.3236 32.0453 19.0297C31.3432 19.7358 30.5144 20.2949 29.5587 20.7068C28.603 21.1187 27.5792 21.3246 26.487 21.3246C25.4338 21.3246 24.4539 21.1235 23.547 20.7214C22.6401 20.3193 21.8453 19.775 21.1627 19.0885V20.9715H18.2373V0.376343H21.192ZM21.5284 15.5286C21.7916 16.1563 22.1574 16.7055 22.6255 17.1762C23.0935 17.647 23.6396 18.0197 24.2637 18.2943C24.8878 18.5689 25.5606 18.7062 26.2823 18.7062C26.9844 18.7062 27.6475 18.5689 28.2715 18.2943C28.8956 18.0197 29.4368 17.647 29.8952 17.1762C30.3535 16.7055 30.7192 16.1563 30.9922 15.5286C31.2652 14.9009 31.4018 14.2242 31.4018 13.4985C31.4018 12.7727 31.2652 12.0911 30.9922 11.4536C30.7192 10.8162 30.3535 10.2621 29.8952 9.79132C29.4368 9.32063 28.8957 8.9528 28.2715 8.68803C27.6474 8.42326 26.9843 8.29078 26.2823 8.29078C25.5802 8.29078 24.9171 8.4232 24.293 8.68803C23.6689 8.95287 23.1229 9.32063 22.6547 9.79132C22.1867 10.2621 21.8161 10.8162 21.5431 11.4536C21.27 12.0911 21.1335 12.7727 21.1335 13.4985C21.1335 14.2242 21.2651 14.9009 21.5284 15.5286Z" fill="white"/>
<path d="M36.9121 10.4974C37.3021 9.55589 37.8386 8.7272 38.5211 8.01128C39.2036 7.29535 40.0131 6.73144 40.9492 6.31954C41.8854 5.90764 42.8995 5.70172 43.9917 5.70172C45.0644 5.70172 46.059 5.89787 46.9757 6.29011C47.8923 6.68242 48.6821 7.22673 49.3452 7.92306C50.0084 8.61933 50.5252 9.44319 50.8957 10.3945C51.2663 11.3458 51.4515 12.3805 51.4515 13.4985V14.4695H39.311C39.4086 15.0775 39.6036 15.6414 39.8961 16.1611C40.1887 16.6809 40.5543 17.1321 40.9931 17.5145C41.4319 17.8971 41.9293 18.1962 42.4851 18.4119C43.041 18.6276 43.6309 18.7356 44.255 18.7356C46.0298 18.7356 47.4633 18 48.5555 16.5289L50.691 18.1176C49.9499 19.118 49.0333 19.9026 47.9412 20.4714C46.8489 21.0402 45.6203 21.3246 44.2551 21.3246C43.1434 21.3246 42.1049 21.1284 41.1395 20.7362C40.1741 20.3439 39.3355 19.7947 38.6236 19.0885C37.9118 18.3823 37.3511 17.5537 36.9415 16.6024C36.532 15.6511 36.3271 14.6164 36.3271 13.4984C36.327 12.4392 36.5221 11.4389 36.9121 10.4974ZM41.0224 9.33519C40.1935 10.0315 39.6426 10.9583 39.3695 12.1156H48.4677C48.2141 10.9583 47.6729 10.0315 46.844 9.33519C46.0151 8.63892 45.0449 8.29076 43.9332 8.29076C42.8215 8.29076 41.8513 8.63892 41.0224 9.33519Z" fill="white"/>
<path d="M57.3423 9.99716C56.7182 10.6837 56.4062 11.6153 56.4062 12.7922V21.3246H53.4514V6.31949H56.3768V8.17307C56.7474 7.56502 57.2301 7.08444 57.8249 6.73139C58.4198 6.37828 59.1268 6.20172 59.9459 6.20172H60.9698V8.96738H59.7411C58.766 8.96745 57.9664 9.31066 57.3423 9.99716Z" fill="white"/>
</svg>
