<svg width="25" height="25" viewBox="0 0 25 25" fill="none" xmlns="http://www.w3.org/2000/svg">
<g clip-path="url(#clip0_4235_29558)">
<path d="M12.6855 20.8258H23.8284" stroke="#2D2926" stroke-width="1.5"/>
<path d="M20.6445 17.6421L23.8283 20.8258L20.6445 24.0094" stroke="#2D2926" stroke-linecap="round" stroke-linejoin="round"/>
<path d="M8.70636 6.49988C10.0252 6.49988 11.0944 5.43073 11.0944 4.11188C11.0944 2.79302 10.0252 1.72388 8.70636 1.72388C7.3875 1.72388 6.31836 2.79302 6.31836 4.11188C6.31836 5.43073 7.3875 6.49988 8.70636 6.49988Z" stroke="#2D2926" stroke-width="1.5"/>
<path d="M15.0735 14.4593C16.3924 14.4593 17.4615 13.3902 17.4615 12.0713C17.4615 10.7525 16.3924 9.68335 15.0735 9.68335C13.7547 9.68335 12.6855 10.7525 12.6855 12.0713C12.6855 13.3902 13.7547 14.4593 15.0735 14.4593Z" stroke="#2D2926" stroke-width="1.5"/>
<path d="M10.2972 23.2141C11.616 23.2141 12.6852 22.145 12.6852 20.8261C12.6852 19.5073 11.616 18.4381 10.2972 18.4381C8.97832 18.4381 7.90918 19.5073 7.90918 20.8261C7.90918 22.145 8.97832 23.2141 10.2972 23.2141Z" stroke="#2D2926" stroke-width="1.5"/>
<path d="M12.6854 12.0715H5.92005C3.50239 12.0715 1.54248 14.0314 1.54248 16.4491C1.54248 18.8667 3.50239 20.8267 5.92005 20.8267H7.90985" stroke="#2D2926" stroke-width="1.5"/>
<path d="M17.4606 12.0711H19.8484C22.0463 12.0711 23.828 10.2894 23.828 8.09153C23.828 5.89366 22.0463 4.11194 19.8484 4.11194H11.0933" stroke="#2D2926" stroke-width="1.5"/>
<path d="M6.31802 4.11194H1.54248" stroke="#2D2926" stroke-width="1.5"/>
</g>
<defs>
<clipPath id="clip0_4235_29558">
<rect width="24" height="24" fill="white" transform="translate(0.685547 0.866699)"/>
</clipPath>
</defs>
</svg>
