<svg width="13" height="20" viewBox="0 0 13 20" fill="none" xmlns="http://www.w3.org/2000/svg">
<path d="M7.88842 7.87927L7.12383 11.0026L9.16677 14.229L9.16779 14.2284C9.17428 14.2386 9.18022 14.249 9.18569 14.2596C9.26398 14.3898 9.31381 14.5302 9.33672 14.6731C9.36256 14.8341 9.35396 14.9974 9.31325 15.1519L9.31289 15.1518L9.31286 15.1519L9.31413 15.1523C9.31233 15.1591 9.3104 15.1658 9.30828 15.1724L8.51178 18.7265C8.44284 19.0387 8.25365 19.2935 8.00358 19.4531C7.76553 19.605 7.47219 19.6704 7.17493 19.6165C7.14418 19.6132 7.11444 19.6065 7.08611 19.5968C6.79434 19.5203 6.55618 19.3375 6.40431 19.0995C6.25238 18.8614 6.18703 18.5681 6.2409 18.2709C6.24389 18.2428 6.24972 18.2156 6.25811 18.1895L6.9508 15.0986L5.9961 13.8373C5.91817 13.7343 5.81366 13.6099 5.69436 13.4722L5.31308 15.1971L5.3141 15.1973L5.31213 15.2072L5.31246 15.2073C5.31155 15.2114 5.31057 15.2154 5.30956 15.2195C5.28721 15.3234 5.25159 15.421 5.20487 15.5109C5.15579 15.6053 5.09312 15.6924 5.01957 15.7703L5.01072 15.7807L5.01099 15.7809L5.0074 15.7846L2.04165 19.2446C1.83307 19.4884 1.54543 19.6245 1.2491 19.6476C0.954391 19.6705 0.650219 19.5804 0.406432 19.3718C0.162675 19.1632 0.0265102 18.8756 0.00348091 18.5792C-0.0194426 18.2845 0.0706797 17.9804 0.279243 17.7366L3.0975 14.4486L3.91967 10.9306C3.9284 10.8931 3.94205 10.858 3.95974 10.8259C3.95506 10.7337 3.96291 10.6448 3.9856 10.5599L3.98508 10.5598C3.98773 10.5498 3.99073 10.5401 3.99404 10.5306L4.98321 6.7214L4.40556 6.91576L3.85442 9.10046C3.77681 9.41084 3.57995 9.6609 3.32448 9.81419C3.06962 9.96711 2.75669 10.0229 2.44631 9.94531C2.13589 9.86769 1.88585 9.67083 1.73259 9.41539C1.57969 9.1605 1.52388 8.84761 1.60148 8.53721L2.30766 5.73794C2.35934 5.53117 2.46461 5.35055 2.60526 5.20712C2.75027 5.05921 2.93188 4.95231 3.13007 4.8984L3.13004 4.89828L3.13774 4.89628L5.56614 4.07926C6.0518 3.91671 5.80632 3.97354 6.23666 3.72464C6.5797 3.5263 6.99802 3.45864 7.41024 3.56877C7.7447 3.65812 8.04611 3.84414 8.25825 4.11895C8.44027 4.3547 8.55319 4.65038 8.56129 4.99987L9.73704 6.48303L11.737 6.29783C12.0554 6.26903 12.3554 6.37198 12.5829 6.56168C12.8109 6.75184 12.9664 7.02871 12.9952 7.3471C13.024 7.66548 12.9211 7.96544 12.7313 8.19295C12.5412 8.42099 12.2643 8.57649 11.9459 8.60529L9.33625 8.84695L9.3363 8.84738L9.33237 8.84778L9.33246 8.84883C9.32206 8.8498 9.31171 8.85035 9.30144 8.85053C9.1188 8.86417 8.93383 8.83381 8.76316 8.76151C8.58715 8.68693 8.42737 8.56828 8.30208 8.40789L7.8884 7.87925L7.88842 7.87927Z" fill="#7A6855"/>
<path d="M9.11823 0.487725C8.8169 0.186395 8.40062 0 7.94088 0C7.48114 0 7.06488 0.186395 6.76355 0.487725C6.46222 0.789055 6.27582 1.20532 6.27582 1.66506C6.27582 2.1248 6.46222 2.54108 6.76355 2.84241C7.06488 3.14374 7.48114 3.33013 7.94088 3.33013C8.40062 3.33013 8.8169 3.14374 9.11823 2.84241C9.41956 2.54108 9.60596 2.1248 9.60596 1.66506C9.60596 1.20532 9.41956 0.789055 9.11823 0.487725Z" fill="#7A6855"/>
</svg>
