<?xml version="1.0" encoding="utf-8"?>
<!-- Generator: Adobe Illustrator 18.0.0, SVG Export Plug-In . SVG Version: 6.00 Build 0)  -->
<!DOCTYPE svg PUBLIC "-//W3C//DTD SVG 1.1//EN" "http://www.w3.org/Graphics/SVG/1.1/DTD/svg11.dtd">
<svg version="1.1" id="Layer_1" xmlns="http://www.w3.org/2000/svg" xmlns:xlink="http://www.w3.org/1999/xlink" x="0px" y="0px"
	 viewBox="22 105 456 290" enable-background="new 22 105 456 290" xml:space="preserve">
<g>
	<path fill="#9D1C20" d="M250.5,161c0.5,1.5,1.3,3,1.7,4.5c-0.3,0-0.3,0-0.5,0.2c0.8,0.5,1.5,1.3,2.3,1.8c-0.3,0.5-0.8,1-1.3,1.8
		c0.8,0.2,1.5,0.5,2.8,0.8c-1.3,2-2.5,4-3.8,5.8c-0.5,0.3-0.8,0.3-1.3,0.5c2,1.5,3.8,3.3,5.8,4.5c2.5,1.5,1.8,2.5-0.3,3.5
		c-0.3,0-0.3,0.5-0.3,0.8c2.3,1.3,4.8,2,6.3,3.8c4,4.8,10.5,5.8,14.8,10c3.8,3.8,7.5,7,11.5,10.5c1,0.8,2.3,1.5,4,2.5
		c-0.5,3-0.8,7-1.3,10c2,2,3.5,3.5,4.8,4.8c2.3,2,4.8,4,7,6.3c1.3,1,2.3,2.3,3.5,3.3c0.2,0.2,0.5,0.8,0.2,1c-0.2,0.3-0.8,0.5-1,0.5
		c-1.7,0-3.5-0.2-5.3-0.2c-2.5-0.3-4.8-0.3-7.3-0.3c-2.3,0-4.5,0.5-6.7,0.3c-1.3,0-3,0.8-4-1c-0.3-0.5-1.8-0.5-2.3-0.2
		c-2.3,1.7-4.5,1.3-7,1c-2.3,0-4.5,0.5-7,0.5c-2.3,0-4.8-0.5-7-0.8c-1,0-1.8,0.2-2.8,0.2c-2,0-3.3-0.8-3.5-2.7c0-0.5,0-1.3-0.3-1.5
		c-1-1-2-1.7-3-2.8c-1,1.3-2.3,2.3-2.7,3.8c-0.8,2.5-3,4.3-5.5,3.8c-1.7-0.2-3.5,0-5.2-0.2c-1.8,0-3.5-0.5-5.3-0.5
		c-2.3,0-4.5,0.3-6.8,0.3c-1.5,0-2.8-0.8-4.2-1c-0.8-0.3-2-0.8-2.3-0.5c-2,2.3-4.5,1-6.7,1c-3,0-5.8,0.5-8.8,0.8
		c-1.7,0-3.5-0.5-5.3-0.5c-0.8,0-1.7,0-2.5,0c-0.5,0-1,0-1.5,0.3c0.2-0.5,0.2-1,0.5-1.5c2.8-2.5,5.8-5,8.5-7.7c1-1,1.8-2.3,2.8-3.3
		c1-0.8,2-1.5,3.8-2.5c-0.5-2.3-1-5-1.3-7.8c-0.3-1,0-2,0-2.5c1.7-1.3,3.3-2,4.5-3.3c6.7-7,14.2-13.5,23.3-17.5c0.8-0.3,1-1.8,2-2.3
		c2-1.3,4-2.5,6.5-3.8c0,0.3,0,0,0,0c-2.3-2.7-2.3-2.7,1.3-5.8c1.3-1,2.5-2,3.5-2.8c-1.5-2.5-2.7-4.2-4.2-6.5c1.3-0.2,2-0.5,2.5-0.8
		c-0.3,0-0.5-0.3-0.5-0.3c1-2.8,2-5.5,3.3-8C249.8,161,250.3,161,250.5,161z"/>
	<path fill="#9D1C20" d="M172.8,222.8c5.5,5,10,9.2,14.8,13.5c0,0.3,0,0.5-0.3,0.8c-7.8,0-15.5,0-23.8,0c-1-2-1-2-3,0
		c-0.5,0.5-1.5,0.5-2.3,0.5c-2.3,0-4.5-0.5-7-0.5c-2.3,0-4.8,0.3-7,0.5c-2.3,0-4.5,0-6.8,0c-2.5,0-4.8,0.3-7.3,0.3c-1,0-2-0.5-3-0.3
		c-0.5,0-1.5,1-1.5,1.3c1,1.8,0.5,4.3,3,5c0.5,0.3,1.3,1.3,1.3,1.8c-0.3,2.5,1.3,3,3.3,2.7c1,2,1.8,3.8,2.8,5.8c1.3,1,2.5,2.3,3.5,3
		c-1.5,1.7-2.8,3.3-3.8,4.2c-3.5-3-7-6.2-10.8-9.5c-3.8,3.3-7.5,6.3-11,9.5c-0.8-1-2-2.5-3.5-4.2c0.8-0.8,2-2,4-3.8
		c0.5-1,1.5-2.7,2.5-4.8c0.8,0,1.5,0,2.8-0.3c-0.8-2.7,1.3-3.8,2.8-5.2c1-1.3,1.8-3,3-5c-2.8,0.2-5,0.5-7,0.5
		c-1.8,0-3.5-0.5-5.3-0.5s-3.2,0.5-5,0.5c-2.3,0-4.5-0.5-7-0.8c-1.5,0-3,0.3-4.8,0.3s-3.5-0.3-5.2-0.3c-1.5,0-3.3,0.3-4.8,0.3
		c-2,0-4-0.3-6-0.3c0-0.2,0-0.5,0-0.8c4.8-4.3,9.3-8.8,14.8-13.8c-0.2-1.3-0.8-3.5-1.3-6c-0.2-1.3,0-2.8,0-3.3c1.8-1,3-1.7,4-2.7
		c6.5-7,13.8-12.8,22.2-17c0.8-0.5,1.3-1.7,2-2.3c1.8-1.3,3.5-2,5.7-3.3c-0.5-0.5-1.3-1.3-2-2.3c2.3-2,4.5-4.3,7-6.5
		c-3-0.5-3.5-2.8-3.8-4.8c0-0.3,1-1,1-1.5c1-2.5,2-5,3.3-7.8c1.8,1.8,3.3,2.8,1.8,4.8c1.3,0.5,3.3,0.8,1.8,2.7
		c0.5,0.5,1.8,1,1.5,1.5c-0.5,2-0.5,4.5-4,4.8c2.7,2.5,5,4.8,8,7.3c-1.3,0.5-2.5,1-3.5,1.3c2.8,1.5,5,2.3,6.5,3.8
		c4.5,5,11.8,6.5,16.3,11.5c2.3,2.5,5,4.8,7.5,7.3c1,1,2.3,1.7,3.5,2.5c2,1.3,1,3,1,4.5C173.8,219.3,173,221.5,172.8,222.8z"/>
	<path fill="#9D1C20" d="M327.3,222.8c-0.3-1.3-0.8-3.5-1.3-5.8c-0.3-1-0.3-2,0-3c0.3-0.8,1.3-1,2-1.5c0.8-0.8,1.5-1.3,2.2-2
		c5-5.5,10.5-10.3,17-14c0.3-0.3,0.5-0.5,0.8-0.5c2-1.5,4.5-1.5,6-4.2c0.8-1.8,4-2.3,7-4c-1.3-0.5-2.3-0.8-3.8-1.3
		c3-2.8,5.3-5,7-6.5c-1-1.7-2-3-2.8-4.5c-0.3-0.5,0.5-1.3,0.8-2c0-0.3,0.5-0.5,0.5-0.5c-1.3-2,0.5-2.3,1.8-2.8
		c-0.3-0.5-0.8-1.3-0.8-1.7c0.5-1,1.3-1.8,2-2.5c0.8,1,1.3,2,2,3c0.3,0.5,0.5,1,0.8,1.7c0.3,0.8,0.5,1.5,0.5,2.5
		c0.5,0.5,1.5,1,1.5,1.3c-0.5,2-0.5,4.5-4,4.8c2.5,2.3,4.8,4.5,7.3,6.5c-0.8,1-1.5,1.8-2.3,2.5c2,1.3,4.3,1.8,5.8,3.3
		c4.7,5,11.5,6.5,16.3,11.5c2.2,2.3,4.7,4.2,7,6.5c1.3,1.3,2,3,4.3,3.5c0.5,0,1,2.7,0.8,4c-0.3,2.3-0.8,4.5-1.3,6
		c5.3,5,10,9.2,15,13.8c-0.8,0.2-1.5,0.8-2,1c-0.5,0.3-1.3,0.3-1.8,0.3c-1.8,0-3.5,0.2-5.5,0c-1.8,0-3.5-0.5-5.3-0.5s-3.3,0.5-5,0.5
		c-1.8,0-3.5-0.8-5.3-0.8c-1.8,0-3.3,0.8-5,0.8c-2.2,0-4.7-0.5-7-0.8c-1.5,0-2.8,0-4.3,0c-0.5,0-1.3,0.3-1.5,0c-1.5-1-3-2-4.7,0
		c-0.5,0.5-2,0.5-3,0.5c-2.5,0-4.7,0-7.2,0c-2.3,0-4.8-0.5-7-0.5s-4.5,0.5-6.8,0.5c-1.8,0-3.3-0.3-5-0.3c-1,0-2,0-3,0
		c-0.5,0-1,0-1.3-0.3c-0.5-0.3-1.3-1.3-1.3-1.3c-0.8,0.3-1.3,1-2,1.8c-7.5-0.5-15.5,0.5-24.3-0.5C317.3,232,321.8,227.8,327.3,222.8
		z"/>
	<path fill="#9D1C20" d="M279.8,286.5c-1.3,0.3-2.8,0.8-4,0.8c-1.8,0.3-3.5,0-5.5,0c-3.5,0-7,0-10.8,0c-3,0-6-0.3-9-0.3
		c-4.3,0-8.5,0.5-12.5,0.3c-2.8-0.3-5.3-0.3-8,0c-2.3,0.3-4.8-1-7-0.5c-1.8,0.5-2.3,0-3-1.3c2.8-2,5.3-3.8,8-5.5
		c-2.5-2.8-2.5-3.8,0-4.5c-1.3-1.5-3.3-2.5-1-4.8c0,0-0.5-0.5-0.5-0.8c0-1.5,0-3.3,0.3-4.8c0-0.5,0.5-1,0.8-1.5c0.8-1.5-1-3,0.5-4.5
		c1-1,1.7-2.5,3-4c0.3,0.3,0.8,0.5,1,1c1-3,2-6.3,3.3-9.8c0.8,1.5,1.3,2.5,1.7,3.8c1.5-3.5,2.8-6.8,4.3-10.3c0.8,1.3,1.3,2,2,3.3
		c0.3-0.5,0.3-0.8,0.3-0.8c-0.5-2.8,1.3-4,3.3-5.8c1.5-1.3,1.7-3.5,2.7-5.5c0.8,1.8,1.5,3.3,2.3,5c0.2,0.3,0.5,0.5,0.8,0.8
		c2,1.3,4,2.8,3,6c0.2,0,0.5,0,0.8,0c0.5-0.8,1-1.8,2-3c1.5,3.3,2.8,6.3,4.3,9.5c0.5-0.8,1-1.8,2-3c1,3.8,2,7,3,10.3
		c0.5-0.5,0.8-1.3,1-1.5c1.5,2,2.8,3.8,4.2,5.8c-0.5,0.3-0.8,0.8-1.3,1c0.8,1.7,1.5,3.5,2,5.5c0.5,1.8-0.8,3.5,0,5.5
		c0.3,0.5-1,1.8-1.3,2.5c0.5,0.5,1.5,1.3,1.3,2c0,0.8-1,1.8-1.5,2.5c1,1,2.3,2,3.5,3c1.3,1,2.8,1.5,4.3,2.3
		C279.8,285.8,279.8,286,279.8,286.5z"/>
	<path fill="#9D1C20" d="M475,361.8c-50.5,0-100.8,0-151,0c-0.8-2.8-1.7-5-2-7.8c0-0.8,1-1.7,1.8-2.5c0.3-0.3,1.3,0,1.8,0
		c48.5,0,97.3,0,145.8,0c0.8,0,1.5,0,2.3,0c0.3,0,0.3,1,0.3,1.5c0,0.8-0.5,1.5-0.5,2.2C473.8,357.3,474.3,359.3,475,361.8z"/>
	<path fill="#9D1C20" d="M176,361.8c-50.5,0-100.7,0-151,0c0.8-2.3,1.3-4.3,1.8-6.5c0.3-0.8-0.5-1.5-0.8-2.5c0-0.5,0.3-1.3,0.5-1.3
		c0.8-0.3,1.5,0,2.3,0c48.3,0,96.8,0,145,0c1.8,0,3.8-0.5,4.3,1.3C177.3,356,176.8,358.8,176,361.8z"/>
	<path fill="#9D1C20" d="M199.3,277c-0.5-1.3-1-2-1-3c0-3.5,0.3-7,0.5-10.5c0-0.5,0.8-1,1-1.5c0.8-1,1.5-2,2.3-3
		c0.3,0.3,0.8,0.3,1,0.5c0.8-2.5,1.7-5.3,2.7-8.3c1,1.3,1.5,2,2.3,3c0-2-1.5-4,1-3.8c0.8-2,1.3-3.5,2.3-5.5c0.5,1.3,1,2,1.5,2.8
		c0-3,2-4.2,4-6c1.3-1,1.5-3,2.5-4.8c0.2,1,0.2,2.3,0.8,3.3c0.5,1,1.3,2.3,2,2.8c2,1,2.8,2.5,2.8,4.5c0.5-0.8,0.8-1.5,1.5-2.5
		c1.5,3.3,2.5,6.3,4,9.8c-1.3,1.3-2.8,2.8-4.3,4.5c-0.3,0.3-0.3,0.8-0.3,1.3c-0.2,6.5-0.8,12.8-1,19.3c0,2-1.5,3-3,3.5
		c-2.5,0.8-4,1.5-2.8,4.8c-3.8-0.3-6.7-0.8-10-0.8c-2.3,0-4.8,0.5-7,0.5c-2.7,0-5.2,0.3-8,0c-0.8,0-1.3-1-1.7-1.7
		c2.7-1.8,5-3.3,7.3-4.8C197.5,278.8,197.5,278.3,199.3,277z"/>
	<path fill="#9D1C20" d="M300.5,276.8c2,1.8,2,2.5-0.3,4.3c1.3,0.8,2.3,1.5,3.5,2.3c1.3,0.8,2.3,1.5,3.8,2.3c-0.3,1.3,0,2-2.3,2
		c-3.5-0.5-7.3,0.3-11,0.3c-3,0-6.3-0.5-9.3-0.5c-1.3,0-2.3,0.5-3.8,1c0.8-3-0.3-4.3-3-4.8c-2.3-0.5-3.3-2.3-3-4.8
		c0.3-3.3,0.3-6.5,0-9.8c-0.2-3-0.5-5.8-1-8.8c0-0.3-0.8-0.5-1-0.8c-1-1.5-2.5-2.8-3-4.5c-0.2-1,1-2.3,1.5-3.5
		c0-0.2,0.5-0.2,0.5-0.5c-0.8-2.3,1.8-3,1.8-5.8c0.8,1.3,1,2,1.5,2.8c0-2.5,1.8-3.5,3.3-5c1.3-1.3,1.8-3.3,3-5.5
		c1,3.3,2.3,5.8,4.8,7.5c0.8,0.5,0.5,2,0.8,3.8c0.5-1.3,1-2,1.8-3c1.3,2.8,2.3,5.8,3.5,8.5c0.5-0.8,1-1.3,1.8-2.5
		c1,3,1.8,5.5,2.8,8.3c0.3-0.3,0.5-0.5,0.8-0.8c2.3,2.3,3.3,5.3,3.8,8.5C301.8,270,301.8,275.5,300.5,276.8z"/>
	<path fill="#9D1C20" d="M394,339.5c1.8,3.5,3.5,6.8,5.5,10.5c-1.5,0-2.5,0-3.3,0c-23.8,0-47.3,0-71,0c-1.3,0-2.5-0.8-3.5-1
		c-0.5,0-0.8-0.5-1.3-0.3c-3.3,0.5-6.8-1-10,1.3c-1.8,1.3-5,0.3-7.5,0.3c-0.5,0-1.3-1.3-1.3-2c-0.3-1.5,0-3,0-4.5c0-1,0.3-2.3,0.5-4
		C332.5,339.5,363.3,339.5,394,339.5z"/>
	<path fill="#9D1C20" d="M198,339.5c0.2,1.5,0.2,2.5,0.2,3.8c0,1.5,0.3,3,0,4.5c-0.2,1.3-0.8,2.3-2.5,2c-2.7-0.5-5.2-0.3-8-1
		c-3-1-7-1.7-10.3,0.8c-0.5,0.3-1,0.3-1.8,0.3c-24.8,0-49.2,0-74,0c-0.3,0-0.3,0-1-0.3c0.5-1,0.8-1.8,1.3-2.5c1.3-2.3,2.5-4.5,4-6.8
		c0.5-0.5,1.5-1,2.3-1c14.3,0,28.7,0,43,0c5,0,10-0.5,15-0.3c10.5,0,21,0.3,31.3,0.5C197.8,339.5,198,339.5,198,339.5z"/>
	<path fill="#9D1C20" d="M443.3,253.8c2.5,0.5,3.3,2,4,9c1.5,0,3,0.3,4.2,0.3c0.5,3,1,6,1.3,9.3c-13,0-25.5,0-38.3,0
		c-0.3-3-0.5-6-0.8-9.3c1,0,1.8-0.3,3-0.3c0-3.5-0.5-7.8,4-9.3c1-2,2-3.8,3-5.8c0.8,0,1.5-0.3,2.8-0.3c-0.5-2.5,1-3.8,2.8-5.3
		c1.5-1.3,1.8-3.5,2.5-4.8c1.5,2,3.3,4.3,5,6.5c0.3,0.3,0.3,1,0.3,1.5c0.5,1,0.3,2.5,2,2c0.3,0,0.8,0,0.8,0.3
		C440.8,249.8,442,251.5,443.3,253.8z"/>
	<path fill="#9D1C20" d="M68.5,237.3c1,2,1,4.8,3.3,6c2,1,2.5,2.3,1.5,4.3c1.3,0,2.3,0.3,2.8,0.3c1,1.3,2.3,2.3,2.8,3.3
		c0.3,0.8,0,1.8-0.3,2.5c1,0.3,2,0.3,2.8,1c1.8,1.5,2.3,3.5,2,5.8c-0.3,2,0,4,2.7,3.3c-0.2,3-0.5,6-0.7,9c-12.3,0-25,0-37.8,0
		c0-2-0.5-4,1-5.8c0.5-0.8-0.3-2-0.3-3.5c1.5,0,3,0,4.8,0c-0.3-4-0.3-8,4-9.2c1.3-2.5,1.5-5.3,5-6c0.5,0,1-1.3,0.8-1.5
		c-0.8-1.5,0.5-1.7,1-2.5C65.5,241.5,67,239.5,68.5,237.3z"/>
	<path fill="#9D1C20" d="M55.8,330c2,0.3,3.2,0.5,4.5,0.5c4,0,8-0.3,12-0.5c2.5,0,5.3-0.3,7.8,0c1.8,0.3,1.8-1.3,1.8-1.8
		c0.5-4.3,1-8.3,1.3-12.5c0.2-3.8,1-7.8,1-11.5c-0.3-3-1.5-6-2.3-9c0-0.5-0.2-1-0.2-1.3c1.3-2,0.7-3.5-1.5-4.5c-0.3,0,0-0.5,0-1
		c0.3,0,0.5-0.3,0.8-0.3c5.8,0,4.5-0.3,4.8,4.5c0.3,6.3,0.8,12.8,1,19c0,3.8-0.8,7.8-0.8,11.8c-0.2,4.7,0,9.5,0,14.2
		c-2,0.3-4,1-5.8,0.5c-1.5-0.5-2.8-1.8-4.8-1.3c-1,0.3-2,0.8-3.2,1c-2-1.8-5-1.8-6.8,0.5c-1.8-2.3-6-2.3-7-0.3c-5.5,0-10.8,0-16.5,0
		c0.3-1.5,0.3-2.5,0.7-3.3c2.3-3,2.5-6.5,2.8-10c0.7-6.8,1.8-13.5,2-20.5c0-3-1.3-6.3-2-9.3c0-0.3-0.3-0.5-0.3-0.8
		c1-2.3,0.8-4.3-1.5-5.5c0,0,0-0.3,0-0.8c4.3,0,8.8,0,13.3,0l0.3,0.3c-3.2,2.3-0.7,5.8-2,8.5c-2.5,6.5-1.8,13-0.8,19.5
		C55.3,321,55.3,325.5,55.8,330z"/>
	<path fill="#9D1C20" d="M420,288c-0.5,1-0.8,1.8-1,1.8c-1.5,0.8-1.3,1.7-1.3,3.3c0.3,2.3-0.8,4.8-1.3,7.3c-0.3,1-1,2.3-0.8,3.3
		c0.3,5.8,0.5,11.5,1,17.3c0.3,3.3,1.3,6.3,2,9.3c8.3,0,16.5,0,25.3,0c0.5-3.3,1-7,1.5-10.5c0.5-4.8,1-9.5,1-14.3c0-3-1-6-1.5-9
		c0-0.3-0.3-0.3-0.3-0.5c-0.8-2.5,1.7-5.5-1.5-7.8c4.5,0,9,0,13.3,0c0,0.3,0,0.3,0,0.3c-3.5,2.8-0.5,7.3-2.5,10.3
		c-2.2,3.5-1.5,7.5-1.3,11.3c0.3,5.5,1.3,10.8,2.3,16.3c0.5,3.3,1.7,6.3,2.8,9.5c0.3,0.5,0.3,1.3,0.8,2.2c-3.3,0-6,0-9,0
		c-2.2,0-4.5,0.3-6.8,0.5c-0.3,0-0.8,0-1-0.3c-1.3-2.8-3.8-0.8-5.5-1.3c-0.3,0-0.8,1.3-1.3,2c-2.3-2.8-5.8-2.8-7.5-0.5
		c-1.8-2-4-1.8-6.8-0.5c-1.5,0.8-3.8,0.3-5.8-0.3c-0.5,0-0.8-1.8-0.8-2.8c0-4.5,0-9,0-13.5c0-3-0.5-6-0.8-9c0-0.8,0.3-1.5,0.3-2.5
		c0-3.5,0-7,0-10.5s0.3-7,0.5-10.5c0-0.5,1-1,1.5-1.3C417,288,418.3,288,420,288z"/>
	<path fill="#9D1C20" d="M258.3,349.8c1-1.8,0-4,2.5-5.3c0.8-0.5,0.5-2.8,0.8-4.3c1-5.5,2.3-10.8,2.3-16.3c0-3.8,1-7.5,1.3-11.3
		c0.2-4,0.2-8-1.8-11.7c-1.3-2.3-1.8-5-0.5-7.8c0.3-0.5-0.8-1.8-1.3-2.8c-0.5-0.8-1.3-1.3-1.8-2c0.3-0.3,0.3-0.3,0.5-0.5
		c5.5,0,11.3,0,17.5,0c-1,1-1.5,1.5-2.3,2.3c-0.5,0.8-1.5,2-1.3,2.8c1.3,3.8,0,7-1.3,10.3c-0.5,1.3-0.8,2.3-0.8,3.5
		c-0.5,6.3,1,12.3,1.3,18.3c0.3,4.3,1,8.3,1.5,12.3c0.5,2.5,0,6,2.7,8.3c0.8,0.8,0.8,2.5,1.3,4C272,349.8,265.3,349.8,258.3,349.8z"
		/>
	<path fill="#9D1C20" d="M223.5,288c5.5,0,10.8,0,17,0c-1,1-1.5,1.8-2.3,2.5c-1.3,1-1.5,2-1,3.5c0.5,1.5,0.3,3.5-0.3,5
		c-2,5.3-2.7,10.5-2.3,16c0.3,1.5,0.8,3.3,1,4.8c0.8,5.5,1.3,11,2,16.5c0.3,2.5,0.5,5.3,1,7.8c0.3,1.5,1.5,2.5,2.3,4
		c0.2,0.5,0,1,0.2,1.8c-6.7,0-13.3,0-20.8,0c1-2,2-3.3,2.5-5c0.5-0.8,0.5-1.8,0.8-2.8c1-4.3,2-8.5,2.8-12.8c0.3-1.5-0.3-3,0-4.5
		c1-6.5,1.7-13,1-19.5c-0.2-2.3-1.5-4.2-2-6.5c-0.3-1.5,0.2-3.5,0-5c0-1-0.8-2.3-1.3-3.3c-0.5-0.8-1-1.3-1.8-1.8
		C223,288.5,223.3,288.3,223.5,288z"/>
	<path fill="#9D1C20" d="M85,339.5c-1.8,2.3-3.3,4-4.3,6c-0.8,1.3-0.5,2.8-1,4.3c-15,0-30,0-46,0c1.8-3.5,3.5-7,5.3-10.3
		C54.3,339.5,69.3,339.5,85,339.5z"/>
	<path fill="#9D1C20" d="M466,349.8c-15.8,0-30.8,0-45,0c-2-3.8-3.8-7-5.8-10.5c2.5,0,4.5,0,6.8,0c11.8,0,23.8,0,35.5,0
		c2.5,0,4,0.8,4.7,3C463.3,344.8,464.8,347,466,349.8z"/>
	<path fill="#9D1C20" d="M198.5,288c5,0,9.5,0,14,0c0,0.3,0,0.5,0,0.5c-3.3,1.7-1.8,4.8-2,7.3c0,1.3-0.5,2.3-1,3.5
		c-1.7,5-1.3,10-0.2,15c0.5,2.8,0.2,5.8,0.8,8.8c0.5,3.3,1,6.3,1.8,9.5c0.2,1.3,1.3,2.3,1.7,3.5c0.3,0.5-0.5,1.7-0.8,1.5
		c-2.3-0.5-4.8,1.3-7-1.3c-1-1.3-7.3,0-9,1.8c0.5-1.8,0.3-3.3,1.3-4c2.3-2,1.8-4.7,2.3-7c1-5.3,1.8-10.3,2.3-15.5
		c0.2-4.5,0.8-9.2-1.3-13.8c-0.5-1.3-1-3-0.5-4.2c0.5-2.3,0-3.5-1.7-4.5C198.8,289,198.8,288.8,198.5,288z"/>
	<path fill="#9D1C20" d="M301.8,288.5c-4,1.8-2.3,5-2.5,7.5c0,0.3,0,0.8-0.3,1c-2.5,5.8-2,11.8-1,17.8c0.8,4.3,0.5,8.8,1.3,13
		c0.5,2,0,4.8,2.3,6.5c0.8,0.5,0.8,2,1.3,3.8c-2-1.8-7.8-2-9.3-1c-2,1.3-5.8,1.3-8,0.3c3.3-6.3,4.3-13,4.5-20
		c0.2-4.3,0.8-8.5,1-12.8c0-2.3-0.8-4.5-1.3-6.8c-0.3-1.5-0.8-3-0.5-4.2c0.3-1.8,0.5-3.3-1.5-4c-0.3,0-0.3-0.8-0.5-1.5
		c4.8,0,9.3,0,14,0C301.3,288.3,301.5,288.5,301.8,288.5z"/>
	<path fill="#9D1C20" d="M252,309c4,0.3,5,3.3,6,6.5c0.8,2.5,2,5,2.5,7.5c0.5,2.2,0,4.7,0,7.2c-7,0-14,0-21,0c-0.8-2.8-0.8-5.3,1-8
		c0.8-1.3,0.5-3.3,1-5c0.3-0.8,0.8-1.8,1-2.5c0.3-0.5,0.8-0.8,1-1c0.8-2.7,2.3-4.5,5-4c-0.5-2.5-1.3-4.8-1.3-7
		c0.2-2.5,2.3-3.8,4.2-3c1.5,0.5,3,3,2.5,5C253.5,306,252.8,307.3,252,309z"/>
	<path fill="#9D1C20" d="M402.5,239.3c-8,5.5-4.5,13.5-5.5,20.5c-0.5,0.2-1.3,0.8-2,1c-0.5,0.3-1.5,0.8-1.8,0.5
		c-0.8-0.5-1.5-1.5-1.5-2c0-4.2-2-8.3-1.8-12.8c0-2-2.3-4-3.5-6.3c-0.5-0.8-1-1.3-1.7-2.3c11.7,0,23.3,0,34.7,0
		c-1.3,1.8-2.2,3.8-3.5,5s-1.5,2.8-1.5,4.5c0,3.8,0,7.7,0,11.5c0,0.8-0.5,1.5-0.8,2.5c-0.5-0.5-1-1-1.5-1.3
		c-1.3-0.8-2.5-1.3-3.5-2.3c-0.8-0.8-1.3-2-1.5-3c-0.3-3.3,0-6.8-0.8-9.8C405.8,243.3,403.8,241.3,402.5,239.3z"/>
	<path fill="#9D1C20" d="M86.5,262.3c-0.3-1.5-0.3-2.8-0.3-4c-0.3-4.2,0-8.8-0.8-13c-0.2-1.7-2.3-3.3-3.3-5c-0.5-0.5-1-1-1.8-2
		c11.8,0,23,0,35,0c-0.8,1-1.3,1.8-1.8,2.3c-2.3,2.7-4.3,5.5-3.8,9.2c0.3,2,0.5,4-1.3,5.8c-0.5,0.5,0,2.2-0.3,3.3
		c-0.2,1-0.7,2-1.5,2.5c-0.2,0.2-1.3-0.5-2-0.8c-0.5-0.3-1.3-0.5-2-0.8c0-3.8,0-7.5,0-11.3c0.2-4-2.5-6.7-4.8-9.5
		c-4.8,3.8-6.3,9-5.2,14.8c0.5,3.5-1.8,4.5-3.5,6.3C88.8,260.8,88,261.3,86.5,262.3z"/>
	<path fill="#9D1C20" d="M107,287c0-1.3,0-3,0-4.8c2.5,0,5,0,7.7,0c0,1,0.3,2.3,0.3,3.3h0.2c0-1,0.3-2,0.3-3.3c0.8,0,1.5-0.3,2-0.3
		c7.5,0,14.8,0,22.3,0c2.5,0,3.8,0.5,3.3,3.3c0,0.3,0,0.5,0,0.8c0,0,0,0.3,0.3,0.5c0-1.5,0-2.7,0-4c9.3,0,18.5,0,27.8,0
		c0,1,0.3,2.3,0.3,3.3h0.2c0-1,0.3-2.3,0.3-3.3c2.5,0,5,0,7.8,0c0,1.7,0.3,3.5,0.3,5C156,287,131.5,287,107,287z"/>
	<path fill="#9D1C20" d="M356.3,282.3c0,1.3,0,2.5,0,3.8c0.3-0.3,0.5-0.3,0.5-0.3c0.3-3.8,0.3-3.8,4.3-3.8c7,0,14,0,21,0
		c0.8,0,1.8,0,2.8,0c0,1.3,0,2.3,0,3.5c0.3,0,0.3,0,0.5,0c0-1,0-2,0.3-3.3c2.5,0,5.3,0,7.8,0c0,1.8,0,3.5,0,5c-24.3,0-48.8,0-73,0
		c0-1.3,0.3-3,0.5-5c2.5,0,5,0,7.8,0c0,1.3,0.3,2.3,0.3,3.3h0.3c0-1,0-2.3,0.3-3.3C337.8,282.3,347,282.3,356.3,282.3z"/>
	<path fill="#9D1C20" d="M180,337.8c-2.8,0-5.3,0-8,0c0.3-4.2-0.5-8.3,1-12.5c0.5-1.3-0.5-3-0.5-4.5c0-2.5,0-5,0.3-7.5
		c0-2.3-0.3-4.3,0-6.5c0-3,0.5-5.8,0.5-8.8c0-1-0.2-2.3-0.2-3.3c0-1.3,0-2.5,0-3.8c0-0.8-0.5-1.3-1-2.5c3,0,5.5,0,7.8,0
		c0.3,1.5,0.5,2.5,0.5,3.5c0,0.8,0,1.5-0.3,2.3c-0.3,1-0.8,1.8-0.8,2.8c0.2,3.8,0.8,7.8,0.8,11.5c0,3-0.5,6-0.5,9
		c0,1.5,0.5,3,0.8,4.3v0.3c-0.3,2-0.5,4.3-0.5,6.3c0,0.8,0.5,1.5,0.5,2.3C180,333,180,335.3,180,337.8z"/>
	<path fill="#9D1C20" d="M114.8,337.8c-2.5,0-5,0-8,0c0.3-3,1-5.8,0.5-8.5c-0.5-2,1.8-4-0.2-5.8c-0.2-0.3-0.2-1,0-1.3
		c1-0.8,0.2-1.3,0-2.3c-0.5-1.7-0.2-3.8,0-5.5c0-2.5,0.2-5,0.5-7.5c0.3-2.5,0.3-5.3,0.3-7.8c0-1.8-0.5-3.3-0.8-5
		c0-0.8-0.2-1.3-0.2-2c0-1,0.2-2,0.5-3.5c2.3,0,4.8,0,6.8,0c0.3,1.5,0.5,2.5,0.5,3.5c0,0.3,0,0.5,0,0.5c-2,3.3-0.2,6.5-0.5,9.8
		c-0.3,4,0.8,8.3,0.3,12.3c-0.3,3.3,1,6.5-0.8,9.8c-0.5,1.3,0.5,3,0.5,4.7C115,332,114.8,334.8,114.8,337.8z"/>
	<path fill="#9D1C20" d="M393,337.8c-2.8,0-5.3,0-8.3,0c0.3-3,1.3-6,0.5-8.5c-0.8-2.2,1.8-4-0.3-6c-0.5-0.5-0.3-2.3-0.3-3.5
		c0.3-5.2,0.3-10.2,0.5-15.5c0-2.3,0.5-4.5,0.5-6.5c0-1-0.5-2.3-0.8-3.3c-0.3-0.8-0.3-1.5-0.3-2.3c0-1,0.3-1.7,0.8-3.3
		c2,0,4.5,0,6.8,0c0.3,1.5,0.5,2.5,0.5,3.5c0,0.8-0.3,1.5-0.5,2.3c-0.3,0.8-0.5,1.5-0.5,2.3c0.3,4,0.8,8,0.8,11.7c0,3-0.5,6-0.5,9
		c0,1.5,0.5,3,0.5,4.3v0.3c-0.3,2-0.5,4.3-0.5,6.3c0,0.8,0.5,1.3,0.5,2C393,333,393,335.3,393,337.8z"/>
	<path fill="#9D1C20" d="M171.5,272.3c-9.3,0-18.3,0-27.5,0c0-2-0.8-3.8,1-5.5c0.5-0.5,0-2-0.3-3.5c0.8-1,2-2.5,3.3-4.3
		c2.5,2.5,3.5,5.5,3.3,9.3c2.3-1,3-2,2.3-3.8c-1-2.3-0.5-4,1.5-5.5c2.3-1.7,4.5-3.5,6.8-5.5c2.5,2.3,5.2,4.2,7.7,6.7
		c0.8,0.8,1.3,2.5,1,3c-1.3,2-0.8,3,0.5,4.8C171.8,269,171.3,270.8,171.5,272.3z"/>
	<path fill="#9D1C20" d="M338,253.5c2.2,2,4.7,3.5,6.8,5.5c1.5,1.5,3.5,3,1.5,5.8c-0.5,0.5,0.5,2.3,1,3.5c0.5,0,0.8,0,1.3,0
		c0.3-1,1-2.3,0.5-3c-0.8-1.7-0.3-2.3,1.3-3.3c0.8-0.5,1-1.8,1.8-2.8c1.3,1.5,2.2,3,3.8,4.8c-1,1.3-1,2.3,0.3,3.8
		c0.8,1,0.8,2.8,0.3,4c0,0.5-1.8,0.8-2.8,0.8c-7.3,0-14.8,0-22,0c-0.8,0-1.7,0-2.8,0c0.3-2-0.8-4,1.3-5.8c0.3-0.3,0.5-1.3,0.3-2
		c-1-3.8-0.8-4,2.3-6.3C334.3,256.8,336,255,338,253.5z"/>
	<path fill="#9D1C20" d="M135.5,263.5c1.3-1.5,2.5-3,3.5-4.5c1,1.3,2,2.5,3,3.8l0.3,0.3c-1.3,3,1.8,5.3,1.3,7.8
		c-0.3,0.8-1,1.5-1.8,1.5c-8.5,0-17,0-26.3,0c0.5-2,1-4,1.3-5.8c0.3-0.8,0.3-1.7,0-2.5c-0.8-1.5-0.8-2.8,0.5-4
		c1.8-1.5,3.5-3,5.3-4.5c1-0.8,1.8-1.7,2.3-2.8c2.5,2,5,4,7.5,6.3c1.5,1.5,2.3,3,1.3,5.5c-0.5,0.8,0.5,2.3,0.8,3.5
		C136.8,266.8,136.5,265.3,135.5,263.5z"/>
	<path fill="#9D1C20" d="M385,272.3c-6.8,0-12.5,0-18.5,0c-2.2,0-4.5,0-6.7,0c-1,0-2.5-0.3-2.5-0.8c-0.3-1.3,0.3-2.8,0.5-4.3
		c0.3-1.3,0.5-2.5,0.8-3.8c-0.3,0-0.5,0-0.8-0.3c1.3-1.5,2.5-3,3.5-4.5c1,1.3,2.3,2.8,2.8,3.8c0.3,2,0.5,3.5,0.8,5.5
		c2.2-1,2.5-2.3,2-3.8c-0.8-3-0.3-3.8,2.5-5.8c2.2-1.5,4-3.8,5.8-5.3c2.5,2.3,5.3,4.5,7.8,6.7c1.3,1.3,1.8,2.5,0.8,4.3
		c-0.3,0.5-0.3,1.5,0,2.3C383.8,268.3,384.3,270.3,385,272.3z"/>
	<path fill="#9D1C20" d="M147.5,256.5c0.8-0.8,2-2,3.8-3.5c0.3-2,2.8-5,5-5.3c-0.3-2.3,1-3.3,2.5-4.8c1.5-1.5,2.3-4.3,3.3-6.5
		c0.3,0.8,1,1.7,1,2.8c0,2,1.5,2.7,2.5,4c1,1.3,1.7,2.8,2.5,4c0,0-0.3,0.3-0.5,0.3c0.8,0,1.8,0,2.5,0.3c1,1.7,2,3.5,2.5,5
		c1.5,1.5,3,2.8,3.8,3.8c-1.5,1.8-2.8,3-3.8,4.3c-1.8-1.5-3.3-3-5-4.5c-2-1.5-4-3-6-4.8c-2,1.8-4,3.5-6,5.3c-1,1-2.3,1.8-3,2.5
		c-0.5,0.5-0.7,1.3-1.3,1.8C150.3,259.5,149,258,147.5,256.5z"/>
	<path fill="#9D1C20" d="M338.5,251c-2.3,1.8-4.3,3.5-6,5s-3.3,2.8-5,4.3c-1-1-2.3-2.3-4-4c0.8-0.8,2.2-2,4-3.8
		c0.5-1,1.5-2.8,2.5-4.8c0.8,0,1.5,0,2.5-0.3c-0.5-2.8,1.3-3.8,3-5.5c1.3-1,1.8-3.3,2.2-4.5c1.8,2.3,3.5,4.5,5.3,6.8
		c0.5,0.8,0.5,2,1,3c2.3,0.5,4.8,3.5,4.8,5.5c1.5,1.5,3,2.8,3.8,3.5c-1.5,1.8-2.8,3-4,4.5C346.5,256.5,341,255.3,338.5,251z"/>
	<path fill="#9D1C20" d="M374.5,237.8c1.8,2,3.5,4.2,5,6.5c0.8,1,0.8,2.3,1.3,3.5c0.5,0,1.3,0,2.3,0.3c1,1.7,2,3.5,2.8,5.2
		c1.3,1,2.8,2.3,3.8,3c-1.5,1.8-2.8,3.3-3.8,4.3c-3.5-3-7.2-6.3-11-9.5c-2.3,2-4.3,4.2-6.5,5.8c-1.8,1-3,2.5-3.8,4.3
		c-1.8-1-1.3-4.5-4.5-4.3c1.5-1.3,2.8-2.5,4.3-3.8c0.8-1.7,1.5-3.5,2.5-5.5c2,0,4,0.2,3-2.8c0-0.3,0.5-0.8,0.8-1c2-1,3.3-2.8,3.8-5
		C374.3,238.5,374.5,238,374.5,237.8z"/>
	<path fill="#9D1C20" d="M159.5,363.8c3.8,0,7.3,0,10.8,0c-0.5,1.5-1.8,3-1.5,3.8c1,2.3,1,4.3,0,6.5c-0.3,0.8,0.8,2,1.3,3.3
		c-1.5,1.5-2.5,3.5,0,5.5c0.3,0.3,0,1-0.3,1c-2,1.8-1.5,3.5,0.3,5.3c0.3,0.3,0,0.5,0.3,1c-1,0.3-1.8,0.5-2.8,0.8c-1.8,0-3.5,0-5.3,0
		c-2.8,0-2.3,0-2-2.8c0.5-3.3,0-6.8,0-10c0-0.8-0.3-1.5-0.3-2.3c0.5-3.5,0-6.8,0.3-10.3C160.8,365.3,160,364.5,159.5,363.8z"/>
	<path fill="#9D1C20" d="M329.5,377.3c1.5-1.8,2.8-3.5,0.5-5.5c-0.3-0.3-0.3-1.3,0-1.5c2.3-2,1.3-3.8-0.8-6c3.8-1.3,7.2-0.3,11-0.8
		c-0.3,0.8-0.5,1.5-0.5,2c-0.3,1.5-0.3,2.8-0.3,4.3c-0.3,3,0.3,5.8-0.3,8.8c0,0.5-0.3,0.8-0.3,1.3c0.8,2.8,0.5,5.3,0,8
		c0,0.3,0,0.3,0,0.5c0.3,1,0.5,2,0.5,2.8c-1.3,0.3-2.3,0.3-3.5,0.5c-1.5,0-3.3,0-4.7,0c-0.8,0-1.3-0.5-2-1c0.3-0.5,0.8-1,1-1.5
		c0-1.3,0-2.8-0.3-4.2c0-0.5-0.5-1.5-0.3-1.8C332.3,380.8,331.3,379,329.5,377.3z"/>
	<path fill="#9D1C20" d="M414.3,287c-0.5-5.3-0.5-5.3,4.5-5.3c10.5,0,21-0.3,31.5,0.3c2.5,0,5,2,7.5,3.3c0.3,0.3,0.3,1.3,0.3,1.8
		C443.3,287,428.8,287,414.3,287z"/>
	<path fill="#9D1C20" d="M42,287c-0.3-1,0.3-1.5,1.3-2.5c4-3.5,8.8-2.8,13.2-2.8c8.5,0,17,0,25.5,0c3.8,0,3.8,0,3.8,4
		c0,0.5,0,1,0,1.3C71.3,287,56.8,287,42,287z"/>
	<path fill="#9D1C20" d="M412.8,272.3c-6.5,0-12.5,0-18.8,0c0.3-4.5-0.8-9,4.5-11.5c2-1,3.8-2.5,5.5-4c1.5,1.3,4.3,3,6.5,5.3
		C413.3,265,412.3,268.8,412.8,272.3z"/>
	<path fill="#9D1C20" d="M106,272.3c-6.3,0-12.3,0-18.8,0c0.8-3.5-0.7-7,2.3-10c1.5-1.5,3.3-2.8,4.8-4c0.7-0.8,1.5-1.8,2-2.3
		c2.8,2.3,5.3,4.8,7.8,6.8c2.3,1.8,1,4.3,1.8,6.5C106.3,270,106,271,106,272.3z"/>
	<path fill="#9D1C20" d="M319,272.3c-5.3,0-10.3,0-15.5,0c-0.3-2.5-0.5-5.3-0.8-7.8c-0.3-1.5,0.3-2.3,1.5-3.3c2-1.5,3.5-3.3,5-4.8
		c2.5,2,5,4,7.5,6c2.3,1.8,1.3,4.5,2,7C319.3,270,319,271,319,272.3z"/>
	<path fill="#9D1C20" d="M190.3,256c1.7,1.5,3.3,3.5,5.3,4.8c1.5,1.3,1.7,2.5,1.7,4.3c-0.3,2.3-0.5,4.5-0.8,7c-5,0-10,0-15.2,0
		c0.2-4-0.8-8.3,3.8-11C186.8,259.8,188.5,257.8,190.3,256z"/>
	<path fill="#9D1C20" d="M310.5,238.3c6.3,0,11.8,0,18,0c-1.3,1.8-2.3,3-3.3,4.3c-1.5,2-2.5,4-2.5,6.5c0,2.3,0.8,4.8-1.3,6.7
		c-0.5,0.5,0,2.3-0.3,3.5c-0.3,0.8-0.8,1.8-1.5,2.3c-0.3,0.3-1.3-0.5-2-0.8c-2.5-0.8-2-2.8-2-4.5c0-2.3-0.3-4.5,0-6.5
		c0.3-3.8-1.3-6.5-3.5-9C312,240,311.5,239.3,310.5,238.3z"/>
	<path fill="#9D1C20" d="M171.5,238.3c6,0,11.7,0,17.8,0c-1.3,1.8-2,3.3-3.3,4.5c-1.5,1.7-2,3.5-2,5.5c0,3.3-0.2,6.5,0,9.5
		c0.3,2.5-2,2.8-3.3,3.5c-1,0.5-2.3-0.5-2.3-2.3c0-4.2-1.8-8.3-1.8-12.7c0-2-2.5-4-3.8-6.3C172.5,239.8,172,239,171.5,238.3z"/>
	<path fill="#9D1C20" d="M104.3,339.3c-2,3.5-3.8,6.8-5.8,10.5c-5,0-11,0-17.5,0c0.5-1,0.8-1.8,1.3-2.5c1.3-2.3,2.5-4.8,4-6.8
		c0.3-0.5,1.3-1,1.8-1C93.3,339.3,98.5,339.3,104.3,339.3z"/>
	<path fill="#9D1C20" d="M419,349.8c-6.3,0-12.2,0-17.5,0c-2-3.5-3.8-6.8-5.8-10.5c2.5,0,4.8,0,7.3,0s5.3,0.3,7.8,0
		c2-0.3,3.3,0.5,4,2C416.3,343.8,417.3,346.8,419,349.8z"/>
	<path fill="#9D1C20" d="M134.3,238.3c6.3,0,12,0,18,0c-1.3,1.8-2.3,3.8-3.8,5c-2.3,2.3-2,5.3-2,8c0,0.5,0.3,1,0.3,1.3
		c-1,2.5-2.3,5-2,7.8c0,0.3-1.3,1.3-1.8,1c-0.8-0.3-1.5-1-1.5-1.5c0.3-4.8-3-8.8-2.3-13.8c0.3-2-2.3-4.2-3.5-6.3
		C135.5,239.5,135,239,134.3,238.3z"/>
	<path fill="#9D1C20" d="M199,260.5c-2,0-2.5-1-2.5-3c0-3.8,0.3-7.8-0.5-11.5c-0.3-2-2-3.8-3.3-5.5c-0.5-0.8-1-1.5-1.5-2.3
		c6.3,0,11.8,0,17.8,0c-1.5,2-2.8,3.8-4,5.8c-0.8,1-1.5,2.3-1.5,3.5c0.3,3-0.5,6-1.7,8.8C201.5,257.8,200,259,199,260.5z"/>
	<path fill="#9D1C20" d="M347.5,238.3c6.3,0,12,0,18,0c-1.3,1.8-2.3,3.5-3.5,5c-1.5,1.5-1.5,3.3-1.5,4.8c0,2.7,0.5,5.5-1.8,7.7
		c-0.5,0.8,0,2.3-0.5,3.5c-0.3,1-1,1.8-1.5,2.5c-0.8-0.8-1.8-1.5-1.8-2.5c-1-4.5-1.3-9.2-2.5-13.7c-0.5-2-2.3-3.5-3.3-5.3
		C348.5,239.8,348,239.3,347.5,238.3z"/>
	<path fill="#9D1C20" d="M301,260.5c-1.8-2.5-3.8-4.5-4-7.5c0-0.8-0.8-1.8-0.5-2.5c0.5-4-1.5-7-4-10c-0.5-0.8-1-1.5-1.8-2.3
		c6,0,11.8,0,18,0c-1.3,1.8-2.5,3.3-3.5,4.8c-0.8,1.5-1.7,3.3-1.7,5c-0.3,3.3,0,6.3,0,9.5C303.3,260,303.3,260,301,260.5z"/>
	<path fill="#9D1C20" d="M329.5,368.3c-53,0-106,0-158.8,0c0-0.3,0-0.3,0-0.5c53,0,106,0,158.8,0C329.5,368,329.5,368.3,329.5,368.3
		z"/>
	<path fill="#9D1C20" d="M170.5,373.8c53,0,106,0,158.8,0c0,0.3,0,0.3,0,0.5c-53,0-106,0-158.8,0C170.5,374.3,170.5,374,170.5,373.8
		z"/>
	<path fill="#9D1C20" d="M329.5,380.5c-53,0-106,0-158.8,0c0-0.3,0-0.3,0-0.5c53,0,106,0,158.8,0C329.5,380,329.5,380.3,329.5,380.5
		z"/>
	<path fill="#9D1C20" d="M170.5,386c53,0,106,0,158.8,0c0,0.3,0,0.3,0,0.5c-53,0-106,0-158.8,0C170.5,386.3,170.5,386,170.5,386z"/>
	<path fill="#9D1C20" d="M170.5,387.8c53,0,105.5,0,158.3,0C327.5,389,173.5,389.3,170.5,387.8z"/>
	<path fill="#9D1C20" d="M329.3,366.5c-53,0-105.5,0-158,0C172.5,365.3,326.5,365,329.3,366.5z"/>
	<path fill="#9D1C20" d="M328.5,382.5c-52.3,0-104.5,0-156.8,0c0-0.3,0-0.3,0-0.5c52.3,0,104.5,0,156.8,0
		C328.5,382,328.5,382.3,328.5,382.5z"/>
	<path fill="#9D1C20" d="M171.5,371.8c52.3,0,104.5,0,156.8,0c0,0.3,0,0.3,0,0.5c-52.3,0-104.5,0-156.7,0
		C171.5,372.3,171.5,372,171.5,371.8z"/>
	<path fill="#9D1C20" d="M171.3,375.8c52.8,0,104.8,0,157,0C326.8,377,173.8,377,171.3,375.8z"/>
	<path fill="#9D1C20" d="M171.8,378c52.3,0,104.3,0,156.5,0c0,0.3,0,0.3,0,0.5c-52.3,0-104.3,0-156.5,0
		C171.8,378.3,171.8,378.3,171.8,378z"/>
	<path fill="#9D1C20" d="M328,384.5c-52,0-104,0-155.8,0c0-0.3,0-0.3,0-0.5c52,0,104,0,155.8,0C328,384.3,328,384.3,328,384.5z"/>
	<path fill="#9D1C20" d="M328,370.3c-52,0-104,0-155.8,0c0-0.3,0-0.3,0-0.5c52,0,104,0,155.8,0C328,370,328,370.3,328,370.3z"/>
	<path fill="#9D1C20" d="M172,363.8c52,0,104,0,155.8,0c0,0.3,0,0.3,0,0.5c-52,0-104,0-155.8,0C172,364,172,364,172,363.8z"/>
	<path fill="#9D1C20" d="M328,390.5c-52,0-104,0-155.8,0c0-0.3,0-0.3,0-0.5c52,0,104,0,155.8,0C328,390.3,328,390.3,328,390.5z"/>
	<path fill="#9D1C20" d="M452.3,273c0.5,2.3-0.3,3.5-2.5,3.3c-11.5,0-22.8,0-34.3,0c-0.5,0-0.8,0-1.3-0.3c0-1,0-2,0-3.3
		C427,273,439.5,273,452.3,273z"/>
	<path fill="#9D1C20" d="M47.8,273c12.5,0,25.3,0,38,0c0,1,0,2,0,3.3c-0.8,0-1.3,0.3-2,0.3c-11,0-22,0-33.3,0
		C47.5,276.5,47.3,276.3,47.8,273z"/>
	<path fill="#9D1C20" d="M311,354.8c-40.8,0-81.5,0-122.3,0c0-0.3,0-0.3,0-0.5c40.8,0,81.5,0,122.3,0C311,354.3,311,354.5,311,354.8
		z"/>
	<path fill="#9D1C20" d="M189.8,355.8c40.3,0,80.5,0,120.5,0c0,0.3,0,0.3,0,0.5c-40.2,0-80.5,0-120.5,0
		C189.8,356,189.8,356,189.8,355.8z"/>
	<path fill="#9D1C20" d="M189.8,357.3c40.3,0,80.5,0,120.5,0c0,0.3,0,0.3,0,0.5c-40.2,0-80.5,0-120.5,0
		C189.8,357.5,189.8,357.5,189.8,357.3z"/>
	<path fill="#9D1C20" d="M189.8,350.8c40.3,0,80.5,0,120.5,0c0,0.3,0,0.3,0,0.5c-40.2,0-80.5,0-120.5,0
		C189.8,351,189.8,350.8,189.8,350.8z"/>
	<path fill="#9D1C20" d="M309.5,362.8c-39.8,0-79.5,0-119.2,0c0-0.3,0-0.3,0-0.5c39.8,0,79.5,0,119.2,0
		C309.5,362.5,309.5,362.5,309.5,362.8z"/>
	<path fill="#9D1C20" d="M309.8,361.3c-39.8,0-79.5,0-119.3,0c0-0.3,0-0.3,0-0.5c39.8,0,79.5,0,119.3,0
		C309.8,360.8,309.8,361,309.8,361.3z"/>
	<path fill="#9D1C20" d="M190.3,358.8c39.8,0,79.8,0,119.5,0c0,0.3,0,0.3,0,0.5c-39.8,0-79.8,0-119.5,0
		C190.3,359,190.3,359,190.3,358.8z"/>
	<path fill="#9D1C20" d="M311.5,361.8c-1-4,3.3-7.5,0.5-11.5c3.5,0,6.5,0,10,0c-3.5,4.3,1.3,7.8-0.3,11.5
		C318.3,361.8,314.8,361.8,311.5,361.8z"/>
	<path fill="#9D1C20" d="M177.8,362c0.8-2.5-0.3-5,2-7c0.5-0.5-0.5-3.3-1-5c3,0,6,0,9.5,0c-3,4.3,1.5,7.8,0.3,11.8
		C185.3,362,181.8,362,177.8,362z"/>
	<path fill="#9D1C20" d="M393.8,287c0-1.5,0.3-3.3,0.3-5c6,0,12,0,18.3,0c0.3,1.8,0.5,3.5,0.5,5C406.5,287,400.3,287,393.8,287z"/>
	<path fill="#9D1C20" d="M87,287c0.2-1.5,0.2-3.3,0.5-5c6,0,12.3,0,18.3,0c0.2,1.8,0.2,3.5,0.2,5C99.8,287,93.5,287,87,287z"/>
	<path fill="#9D1C20" d="M47.8,278c12.8,0,25.3,0,38,0c0,0.8,0.2,1.3,0.2,2.3c-0.7,0-1.5,0.3-2,0.3c-11,0-22,0-33.3,0
		C49,280.5,47.3,280.8,47.8,278z"/>
	<path fill="#9D1C20" d="M452.3,278c0.5,2.3-1,2.3-2.3,2.3c-11.8,0-23.5,0-35.5,0c0-0.8-0.3-1.5-0.3-2.3
		C427,278,439.5,278,452.3,278z"/>
	<path fill="#9D1C20" d="M356,273c0.3,2.8,0,3.3-2.8,3.3c-1.8,0-3.5-0.8-5-0.8c-1,0-2,0.8-3.3,0.8c-4.5,0-9,0-13.5,0
		c-2.5,0-3-1-2.8-3.3C337.8,273,347,273,356,273z"/>
	<path fill="#9D1C20" d="M171.3,273c0.3,2.8,0,3.3-2.8,3.3c-4.2,0-8.8,0.5-13-0.3c-3-0.5-5.8,0.3-8.5,0.3c-2.8-0.3-3.3-0.5-3-3.3
		C153,273,162,273,171.3,273z"/>
	<path fill="#9D1C20" d="M115.5,273.3c6.3,0,12.5,0,18.5,0c2.3,0,4.5-0.3,7-0.3c0.8,0,1.5,1,2,1.5c-0.8,0.8-1.3,2-2,2
		c-2,0-4-0.5-6-0.5c-0.8,0-1.8,0.8-2.5,0.8c-5,0-10.3,0.3-15.3,0C115.5,276.3,115.3,274.8,115.5,273.3z"/>
	<path fill="#9D1C20" d="M365.5,273.8c0.5-0.3,1-0.8,1.5-0.8c5.8,0,11.5,0,17.3,0c0.3,3,0,3.5-2.8,3.5c-4.2,0-8.5,0.5-12.5-0.3
		c-3.3-0.5-6.3,0.5-9.5,0.3c-1.5,0-2.5-0.5-2.5-2c0-1.8,1.5-1.5,2.5-1.5C361.5,273.3,363.8,272,365.5,273.8z"/>
	<path fill="#9D1C20" d="M328.3,272.3c-3,0-5.3,0-8,0c0-2-0.8-4,1.3-5.8c0.5-0.5-0.3-2-0.3-3.3c1-1.3,2-2.8,3-4.3
		C327.8,262.5,327.8,267.3,328.3,272.3z"/>
	<path fill="#9D1C20" d="M176,259c1,1.5,2.3,3,3.3,4.5c-0.3,0-0.3,0-0.5,0c0.5,2.8,1,5.5,1.5,8.5c-3,0-5.5,0-8.5,0
		c0.2-1.8,0.5-3.5,0.8-5.3c0-1,0-2,0-3c0-0.3-0.2-0.8,0-1C173.8,261.8,175,260.3,176,259z"/>
	<path fill="#9D1C20" d="M389,259c1,1.5,2.3,2.8,3.3,4.3c-0.3,0-0.3,0-0.5,0c0.3,1.3,0.5,2.8,0.8,4c0.3,1.5,0.5,3,0.8,4.8
		c-3,0-5.5,0-8.8,0c0.8-2,1.3-4,1.7-5.8c0.3-1-0.3-2-0.5-3C386.8,262,388,260.5,389,259z"/>
	<path fill="#9D1C20" d="M110.8,258.8c1.3,1.8,2.3,3.3,3.5,4.8c-0.2,0-0.2,0-0.5,0c0.3,1.3,0.5,2.5,0.8,3.8c0.2,1.5,0.5,3.3,0.8,5
		c-3,0-5.3,0-8,0c-0.2-2-0.7-4,1-5.8c0.2-0.3,0.5-0.8,0.2-0.8c-2.3-2.5,1-3.3,1.5-5C110.3,260,110.5,259.5,110.8,258.8z"/>
	<path fill="#9D1C20" d="M356.8,278c9.3,0,18.3,0,27.5,0c0.5,2-0.8,2.3-2,2.3c-4.8,0-9.8,0.5-14.5-0.3c-2.8-0.3-5.5,0.8-8.3,0.3
		C358,280.3,356.8,280,356.8,278z"/>
	<path fill="#9D1C20" d="M143.5,278.8c-0.8,0.5-1.3,1.8-2,1.8c-2,0-4.3-0.5-6.3-0.5c-1,0-2,0.5-3,0.5c-3,0-6,0-9,0
		c-1.8,0-3.5,0-5.2,0c-1.3,0-2.5-0.3-2-2.3c9,0,18.3,0,27.2,0C143,278.3,143.3,278.5,143.5,278.8z"/>
	<path fill="#9D1C20" d="M356.8,278c-0.8,1-1,1.8-1.5,2c-1.7,1-6.3,0.3-6.7-0.8c-1.5,0.3-2.8,0.8-4,1c-4.3,0-8.8,0-13,0
		c-1.5,0-2.5-0.5-2.8-2.3C337.8,278,347,278,356.8,278z"/>
	<path fill="#9D1C20" d="M143.8,278c9.3,0,18.3,0,27.5,0c0.3,1.5-0.8,2.3-2.3,2.3c-4.8,0-9.8,0.5-14.5-0.3c-2.8-0.3-5.5,0.8-8.3,0.3
		C144.5,280.3,144.3,280.3,143.8,278z"/>
	<path fill="#9D1C20" d="M271.5,238.3c-2,3-3.8,5.8-5.8,8.5c-0.3-0.3-1.3-0.3-1.8-1c-1.3-1.3-2.3-2.5-3.3-4c-1-1.3-1.8-2.5-2.8-3.8
		C262.3,238.3,266.8,238.3,271.5,238.3z"/>
	<path fill="#9D1C20" d="M228.5,238.3c4.8,0,9.3,0,13.8,0c-2.5,1.5-3.5,3.8-4.5,6.3c-0.3,0.3-1,0.5-1.3,0.8c-1,0.5-1.8,1-2.3,1.5
		C232.3,244.3,230.5,241.3,228.5,238.3z"/>
	<path fill="#9D1C20" d="M87.5,273c6.3,0,12.3,0,18.3,0c0.5,3,0.2,3.5-2.8,3.5c-4.3,0-8.5,0-12.5,0C88,276.5,86.8,275.8,87.5,273z"
		/>
	<path fill="#9D1C20" d="M394.3,273.3c6.3,0,12.5,0,18.5,0c0,2.8-1.3,3.3-3.5,3.3c-4,0-8.3,0-12.3,0
		C394.3,276.5,394,276,394.3,273.3z"/>
	<path fill="#9D1C20" d="M199.8,338c1.5,0,3.5,0,5.5,0c0,4,0,7.8,0,11.8c-1.8,0-3.8,0-5.5,0C199.8,346,199.8,342,199.8,338z"/>
	<path fill="#9D1C20" d="M295,338c2,0,4,0,5.5,0c0,4,0,7.8,0,11.8c-1.5,0-3.3,0-5.5,0C295,346,295,342,295,338z"/>
	<path fill="#9D1C20" d="M310.3,352.8c-40.3,0-80.5,0-120.5,0c0,0,0,0,0-0.3C230,352.8,270,352.8,310.3,352.8L310.3,352.8z"/>
	<path fill="#9D1C20" d="M195,282.8c-1.3,0.5-2.5,1-4,1.5c0,0.5,0,1.3,0,1.5c-0.3,0.8-0.3,1.7-2,1.3c-2.3-0.8-5,0-7.8,0.3
		c0-1.8,0-3.3,0-5.3c4.5,0,9.3,0,13.8,0C195,282.3,195,282.5,195,282.8z"/>
	<path fill="#9D1C20" d="M305.3,282.3c4.5,0,9.3,0,14,0c0,1.8-0.3,3.5-0.3,5.3c-3,0-5.8,0-8.5,0c-0.5,0-1.5-0.8-1.5-1.3
		c0-2-1-2.8-2.8-2.8c-0.5,0-1-0.5-1.5-0.8C305,282.5,305,282.3,305.3,282.3z"/>
	<path fill="#9D1C20" d="M319,273c0.8,2.8-0.8,3.5-3,3.3c-4.3,0-8.3,0-12.5,0c0-1.3,0-2.3,0-3.3C308.5,273,313.8,273,319,273z"/>
	<path fill="#9D1C20" d="M196.5,276.5c-4.5,0-8.8,0-13.3,0c-2.3,0-2.5-1.3-2-3.3c5,0,10,0,15.2,0C196.5,274,196.5,275,196.5,276.5z"
		/>
	<path fill="#9D1C20" d="M106.3,278.8c-0.8,0.5-1.5,1.5-2.3,1.5c-5,0.3-10,0.3-15,0c-0.8,0-1.3-1-2-1.8c0.2-0.3,0.2-0.5,0.5-0.8
		c6,0,12.3,0,18.3,0C105.8,278.3,106,278.5,106.3,278.8z"/>
	<path fill="#9D1C20" d="M412.5,278c0.5,1.8-0.3,2.5-2,2.5c-4.8,0-9.3,0-14,0c-1.5,0-2.8-0.3-2.2-2.3C400.3,278,406.3,278,412.5,278
		z"/>
	<path fill="#9D1C20" d="M318.8,278c0.3,1.5-0.3,2.3-1.8,2.3c-4.5,0-8.8,0-13.5,0c0-0.8-0.3-1.5-0.3-2.3
		C308.5,278,313.5,278,318.8,278z"/>
	<path fill="#9D1C20" d="M181.3,278c5.3,0,10,0,15.3,0c0,0.8,0,1.5,0.3,2.3c-0.3,0-0.5,0.3-0.8,0.3c-4,0-8.3,0-12.3,0
		C182,280.5,180.8,280.3,181.3,278z"/>
	<path fill="#9D1C20" d="M392.8,273c0.3,3.3,0.3,3.3-2.8,3.5c-0.8,0-1.5,0-2.3,0c-2.8,0-3-0.3-2.8-3.5
		C387.8,273,390.3,273,392.8,273z"/>
	<path fill="#9D1C20" d="M328,273c0.3,3.3,0,3.3-3,3.3c-4.8,0-4.8,0-4.8-3.3C322.8,273,325.3,273,328,273z"/>
	<path fill="#9D1C20" d="M171.5,273c3,0,5.5,0,8.8,0c-0.5,1.3-0.8,3-1.5,3c-2,0.2-4.3,0.2-6.3-0.3C172.3,275.8,172,274.3,171.5,273z
		"/>
	<path fill="#9D1C20" d="M107,273c2.5,0,5,0,7.5,0c0.8,3,0.2,3.3-2.5,3.5c-0.8,0-1.5,0-2.3,0C107.5,276.5,106.5,275.5,107,273z"/>
	<path fill="#9D1C20" d="M240.3,339.5c6.5,0,13,0,19.8,0c0,0.3,0,0.3,0,0.5c-6.5,0-13,0-19.8,0C240.3,339.8,240.3,339.8,240.3,339.5
		z"/>
	<path fill="#9D1C20" d="M240.5,341c6.5,0,12.7,0,19.3,0C258.5,342,244,342.3,240.5,341z"/>
	<path fill="#9D1C20" d="M328,278c0.5,2-0.5,2.5-2.3,2.3c-2-0.3-4.7,1.3-6-2.3C322.5,278,325.3,278,328,278z"/>
	<path fill="#9D1C20" d="M259.5,343.3c-6.3,0-12.5,0-18.8,0c0-0.3,0-0.3,0-0.5c6.3,0,12.5,0,18.8,0
		C259.5,342.8,259.5,343,259.5,343.3z"/>
	<path fill="#9D1C20" d="M385,278c2.5,0,5,0,7.8,0c0.5,2-0.8,2.3-2.2,2.5C385.8,280.8,385.3,280.5,385,278z"/>
	<path fill="#9D1C20" d="M172,278c2.8,0,5.3,0,8,0c-1,3.8-3.8,2-5.8,2.3C172.8,280.5,171.5,280.3,172,278z"/>
	<path fill="#9D1C20" d="M107,278c2.7,0,5.2,0,8,0c-0.8,3.5-3.5,2.3-5.3,2.3C108.5,280.5,106.8,280.5,107,278z"/>
	<path fill="#9D1C20" d="M222.8,340.3c-5.5,0-11,0-16.3,0c0-0.3,0-0.3,0-0.5c5.5,0,11,0,16.3,0C222.8,339.8,222.8,340,222.8,340.3z"
		/>
	<path fill="#9D1C20" d="M277.3,339.5c5.5,0,11,0,16.3,0c0,0.3,0,0.3,0,0.5c-5.5,0-11,0-16.3,0C277.3,340,277.3,339.8,277.3,339.5z"
		/>
	<path fill="#9D1C20" d="M277.3,341c5.3,0,10.5,0,15.8,0c0,0.3,0,0.3,0,0.5c-5.3,0-10.5,0-15.8,0C277.3,341.5,277.3,341.3,277.3,341
		z"/>
	<path fill="#9D1C20" d="M222.8,341.8c-5.3,0-10.5,0-15.8,0c0-0.3,0-0.3,0-0.5c5.3,0,10.5,0,15.8,0
		C222.8,341.3,222.8,341.5,222.8,341.8z"/>
	<path fill="#9D1C20" d="M206.8,342.5c5,0,10.2,0,15.2,0c0,0.3,0,0.3,0,0.5c-5,0-10.2,0-15.2,0C206.8,343,206.8,342.8,206.8,342.5z"
		/>
	<path fill="#9D1C20" d="M277.8,342.8c5,0,10.3,0,15.3,0c0,0.3,0,0.3,0,0.5c-5,0-10.3,0-15.3,0C277.8,343,277.8,342.8,277.8,342.8z"
		/>
	<path fill="#9D1C20" d="M257.5,344.8c-5,0-10,0-14.8,0c0-0.3,0-0.3,0-0.5c5,0,10,0,14.8,0C257.5,344.3,257.5,344.5,257.5,344.8z"/>
	<path fill="#9D1C20" d="M206.8,344c4.5,0,9.2,0,13.8,0c0,0.3,0,0.3,0,0.5c-4.5,0-9.3,0-13.8,0C206.8,344.5,206.8,344.3,206.8,344z"
		/>
	<path fill="#9D1C20" d="M242.8,346c4.8,0,9.5,0,14.3,0C255.5,347.3,244.8,347.3,242.8,346z"/>
	<path fill="#9D1C20" d="M257,348.3c-4.5,0-9.2,0-13.8,0c0-0.3,0-0.3,0-0.5c4.5,0,9.3,0,13.8,0C257,348,257,348,257,348.3z"/>
	<path fill="#9D1C20" d="M243,349.3c4.5,0,9.2,0,13.8,0c0,0.3,0,0.3,0,0.5c-4.5,0-9.3,0-13.8,0C243,349.5,243,349.3,243,349.3z"/>
	<path fill="#9D1C20" d="M279.3,344.3c4.8,0,9.3,0,14,0c0,0.3,0,0.3,0,0.5c-4.8,0-9.3,0-14,0C279.3,344.5,279.3,344.3,279.3,344.3z"
		/>
	<path fill="#9D1C20" d="M293.5,348c-4.5,0-8.8,0-13.3,0v-0.3c4.3,0,8.8,0,13,0C293.5,347.8,293.5,348,293.5,348z"/>
	<path fill="#9D1C20" d="M219.5,348c-4.2,0-8.8,0-13,0c0-0.3,0-0.3,0-0.5c4.2,0,8.8,0,13,0C219.5,347.8,219.5,348,219.5,348z"/>
	<path fill="#9D1C20" d="M206.8,346c4.8,0,9,0,13.5,0C218.8,347.3,209.3,347.3,206.8,346z"/>
	<path fill="#9D1C20" d="M206.8,349.3c4.2,0,8.5,0,12.7,0c0,0.3,0,0.3,0,0.5c-4.2,0-8.5,0-12.7,0
		C206.8,349.5,206.8,349.3,206.8,349.3z"/>
	<path fill="#9D1C20" d="M293.3,349.8c-4.3,0-8.5,0-12.8,0c0-0.3,0-0.3,0-0.5c4.3,0,8.5,0,12.8,0
		C293.3,349.5,293.3,349.5,293.3,349.8z"/>
	<path fill="#9D1C20" d="M279.8,346c4.3,0,8.5,0,12.8,0c0,0.3,0,0.5,0,0.8C288.3,347.3,284,347,279.8,346z"/>
	<path fill="#9D1C20" d="M258.8,184.5c1.8-2,0.5-3.3-1-4.8c-1.5-1-2.8-2.5-4-3.5c2-2.8,4-5,2-8.5c-1.3-2-2.3-4.3-3.5-6.5
		c-1-1.8-3-2-4.2,0c-1.5,2.8-3.3,5.3-4.3,8.3c-0.8,2.3,0.5,4.8,3,6.5c-1.5,1.3-3,2.8-4.5,4c-1.7,1.5-2.5,3-0.8,4.8
		c-1.8,1-4,1.8-5,3.3c-2.5,3.5-6.8,4.2-9.8,6.7s-6,5.3-9.5,7.3c-2.8,1.8-3.5,4.8-6.3,6.5c-0.5,0.5-1.3,1.3-1.7,1.3
		c-3-0.3-3,1.5-2.8,3.5c0.3,2.5,0.8,5,1,7.5c0,0.5-0.3,1.5-0.5,1.8c-1.7,0.8-3.3,1.8-4,4c-0.5-1.5-0.8-2.5-1-3.5
		c-0.2,0-0.5,0.2-0.8,0.2c0,0.3-0.3,0.8-0.3,1c1,3.8-2,5.8-4.2,8c-1.5,1.5-2.8,3-4.5,4.2c-0.8,0.5-2.3,1-2.8,0.5
		c-2.3-1.8-4-3.8-6-5.5c-1-1-2-1.7-1.3-3.5c0.5-1.3,0-3,0-4.5c-0.3,0-0.8,0-1-0.3c-0.3,1.5-0.5,3.3-0.8,4.8c-0.3,0-0.5,0.3-0.5,0.3
		c-0.5-1.5-1-3.3-1.5-5.5c-0.5,1.3-0.8,1.8-1,2.3c-2.8-1.5-3.5-3-2-6c0.8-1.7,0-4.2,0-6.5c0-0.3-1-0.5-1.5-0.8c-0.8-0.3-1.8-0.5-2-1
		c-1.7-2.8-3.3-5.8-5-9c-0.2,1-0.5,1.3-0.8,2.3c-0.3-1-0.5-1.5-1-2.7c-0.2,1.3-0.5,1.7-0.8,3c-0.5-1.5-1.3-3-1-3.3
		c2-1.8,4-3.3,6.3-5c0.3,0.3,0.5,0.5,0.5,0.5c0-1,0-2,0.3-3c2.5-1.3,2.8-2.8,0.5-4.5c-1-1.5-1-2.7-1.2-4c1.5,0,2.8-0.3,4.3-0.3
		c0.3-9.2,6-14.2,14.5-17.3c-0.3-0.5-0.5-1-0.5-0.8c1-2.3,2-4.3,3.3-6.5c0.3,1.5,0.5,2.8,1,4c0.5,1,2.7,1.3,1.5,3.3
		c1,0.8,2,1.5,3,1.8c3.5,1.3,6.5,3.3,8.5,6.5c0.3,0.5,1.5,0.5,2.5,1c0-2,0-3.5,0-4.8s0.8-2.7-1.3-3.3c-0.3,0-0.3-1.8-0.3-2.5
		c0-1,0-2.3,0-3.5c1.5,0,3,0,4,0c2.5-4.3,4.5-8,7-11.8c3.3-4.8,8.3-7.5,13.3-10c3.3-1.5,7.3-2,10.3-4.5c0.5-0.5,1.7-0.5,2.5-1
		c0.5-0.3,0.8-1.5,0.5-1.8c-0.5-0.8-1.3-1-2.3-1.8c1-0.8,1.7-1.5,2.5-2c1.5-0.8,2.5-2,3-3.5c0.3-0.8,0-1.5-0.2-2c-0.3-0.5-1-0.5-1-1
		c-0.5-1-1.3-2.3-1-3.3c0-0.5,1.5-1,2.5-1.5c0.3-0.8,0.5-1.5,0.8-2.3c0.2-1,0.8-1.8,0.5-2.8c-0.3-1.8,0.5-3.3,2.8-4.8
		c1,3.5,1.8,6.5,2.8,9.8c0.8,0.5,2.5,1,2.5,1.5c0,1.3-0.5,2.5-1.5,3.5c-1.5,1.5-1.3,4.3,0.5,5.3c1,0.5,2,1.3,3,2
		c0.2,0.3,0.5,0.5,0.8,1c-0.5,0.5-1,1-1.8,1.5c-0.5,0.3-1.3,0.5-2,0.5c0.2,0.5,0.5,0.8,0.8,1.3c4.3,1.8,8.3,3.5,12.5,5.3
		c7.5,3,13.8,7.7,17.8,14.8c1.3,2.3,2,4.8,3,7.5c1.5,0,3,0,4.5,0c0,2,0.8,4.8-0.3,5.8c-2.5,2.5-0.5,5.3-1.5,7.8
		c0.3,0.2,0.3,0.5,0.5,0.8c0.8-0.5,1.8-0.8,2.3-1.3c2.3-1.7,4.3-3.8,6.5-5.2c1.5-1,3.5-1.8,4.5-2.3c1.3-2.7,2.3-5,3.3-7.3
		c1,2,1.8,3.8,2.8,5.8c0.3,0,0.5-0.3,0.8-0.3c-0.2,0.5-0.5,1-0.5,1c3.5,2.3,7.5,3.8,10,6.8c2.5,2.7,3.5,7,5,10.8
		c-0.3,0.3-0.5,0.3-0.5,0.5c1.3,0,2.2,0,3.8,0c0,1.5,1,3-1.3,4c-0.5,0.3-0.5,3-0.3,3c2,0.8,1.8,2.3,1.8,3.3c2.5,1.8,4.8,3,7,4.5
		c-0.3,1.3-0.5,2.3-1,3.8c-0.3-1.3-0.5-1.8-1-3c-0.5,1-0.5,1.5-0.8,2.3c-0.3-0.5-0.3-1-0.5-2c-1.8,3.3-3.3,6-5,8.8
		c-0.8,1-2.3,1.5-4,2.5c0.3,2.3,0.3,5.3,0.8,8.3c0.5,2.8-2.2,3.3-3.5,5c0-1-0.3-1.5-0.3-2.3c-2.2,0.5,0.8,4-2.2,4.3
		c-0.8-1.5,0.8-3.5-1.8-5.3c0,2-0.5,3.5,0,4.8c0.8,2.3-0.8,3.3-1.8,4.3c-1.3,1.3-2.8,2.3-4,3.5c-1.7,1.5-3.5,1.5-5.3,0
		c-1.7-1.8-3.8-3.5-5.5-5c-1.8-1.5-2.5-3-2.3-5.3c0-0.5,0-1-0.3-1.7c-2.3,0.2-0.8,2.3-1.8,3.5c-0.5-0.8-0.8-1.3-1.3-2
		c-0.5-0.5-1-1-1.5-1.3c-2-0.8-2.5-2.5-2-4.8c0.5-2.5,0.5-5,0.8-7.5c0-0.3-0.5-1-1-1c-4.3,0-5.5-4-8-6.3c-0.8-0.8-1.5-1.8-2.5-2.3
		c-5-3.5-10.3-6.8-15.5-10.3c-1.8-1-3-2.5-4.5-3.8C261.3,186,260.3,185.3,258.8,184.5z M204.8,221c0-3,0-5.5,0-8s0-5-1.7-7
		c-1.3-1.5-2.8-3-4-4.5c-0.3,0.8-0.5,1.3-0.8,2c-0.2-1-0.5-1.7-0.8-2.3c-0.3,0-0.3,0-0.5,0c0,0.5-0.2,1.3-0.2,2.3
		c-0.5-1-1-1.5-1.3-2c-0.3,0.5-0.5,1-1,2.3c-0.2-1-0.2-1.8-0.5-2.3c-0.5,0.5-0.8,1-1.3,1.7c-0.3-0.8-0.3-1.5-0.8-2.7
		c-0.5,1.3-0.5,2-0.8,2.7c-0.5-0.8-0.8-1.3-1-1.7c-0.3,0.5-0.3,1.3-0.8,2.3c-0.2-1.3-0.5-1.8-0.8-2.3c-0.3,0.5-0.8,1-1,1.7
		c-0.2-0.8-0.5-1.5-0.8-2.5c-0.5,1.3-0.8,2-1,3c-0.3-1-0.5-1.5-0.8-2.3c-0.2,0.8-0.5,1.3-0.8,2.3c-0.5-1.3-0.8-1.8-0.8-2.3
		c-6.5,5.3-7,12.3-6,19.8C186.8,221,195.5,221,204.8,221z M322,221c0.3-7.3,1.5-14.8-5.8-19.8c0,0.3-0.3,1-0.8,2.3
		c-0.3-1.3-0.5-1.7-0.8-2.3c-0.3,0.8-0.5,1.3-1,2c-0.2-1-0.5-1.7-1-3c-0.3,1.3-0.5,1.7-0.8,2.3c-0.3-0.5-0.5-1-0.8-2
		c-0.5,1.3-0.8,1.7-1,3c-0.3-1-0.5-1.7-0.5-2.3c-0.3,0.8-0.5,1.3-0.8,2.3c-0.5-1-0.8-1.7-1.3-3c-0.3,1.3-0.5,2-0.5,2.7
		c-0.5-0.8-0.8-1.3-1-1.7c-0.3,0.5-0.5,1.3-0.8,2.3c-0.2-1.3-0.5-1.7-0.5-2.3c-0.3,0.5-0.8,1-1,1.7c-0.3-0.8-0.5-1.5-0.8-2.5
		c-0.5,1.3-0.5,2-1,3.3c-0.5-1.3-0.5-1.7-0.8-2c-3,1.8-5.3,4.5-5.8,7.8c-0.5,3.8,0,7.8,0,11.5C304.3,221,313,221,322,221z
		 M188,228.3c1.5-4.2,1.3-5-1-5.5C187.3,224.5,186.3,226.5,188,228.3z M197.5,222.5c0,1.8,0,3.5,0,5.5
		C199.3,227,199.5,225,197.5,222.5z M194.5,228c0.5-1.8,2-3.5,0-5.5C192.8,224.3,194,226.3,194.5,228z M301.3,228c0.3,0,0.5,0,0.8,0
		c0.5-1.8,1.5-3.8,0-5.5c-0.3,0-0.8,0-1,0C301.3,224.5,301.3,226.3,301.3,228z M305.5,228c0.5-1.8,2-3.8-0.3-5.5
		C303.8,224.5,304.5,226.3,305.5,228z M312.3,222.5c-0.5,0-0.8,0-1.3,0c0.3,1.8,0.3,3.5,0.5,5.3c0.3,0,0.5,0,0.8,0
		C312.8,226.3,313.8,224.5,312.3,222.5z M316.3,222.8c-0.5,0-0.8,0-1.3,0c-1.5,1.7-0.5,3.5,0.3,5.5c0.3,0,0.5,0,0.8,0
		C316,226.3,316.3,224.5,316.3,222.8z M184,228c0.3,0,0.5,0,1,0c0.3-1.8,1.8-3.8-0.3-5.5c-0.3,0-0.8,0-1,0
		C183.8,224.5,184,226.3,184,228z M191.8,222.5c-0.5,0-0.8,0-1.3,0.3c0.5,1.7-0.8,3.8,0.8,5.5c0.3,0,0.5,0,0.8,0
		C192,226.3,192,224.3,191.8,222.5z M307.8,228.3c1.8-0.8,2-3.3,0.3-5.8C308,224.3,308,226.3,307.8,228.3z"/>
	<path fill="#9D1C20" d="M328.8,322.3c-1.5,1.7-1.3,3-1,4.7c0.5,3.5,0.3,7,0.3,10.8c-2.8,0-5.3,0-8.3,0c0.3-2.8,0.5-5.5,0.8-8.3
		c0-2-0.3-4-0.3-5.8c0-0.3-0.3-0.8-0.3-1c1-2.2,0-4.5,0-6.7c0-2.5,0.5-4.8,0.3-7.5c-0.5-3.3,0.5-6.5,0.8-10c0-1.5-0.5-2.8-0.8-4.3
		c0-0.8-0.3-1.3-0.3-2c0-1,0.3-2,0.5-3.5c2,0,4.7,0,6.8,0c0.3,1.5,0.5,2.5,0.5,3.5c0,0.2,0,0.5,0,0.5c-2,3.3-0.3,6.5-0.5,9.8
		c-0.3,4.3,0.3,8.5,0.5,12.8c0,1.8-0.3,3.5-0.3,5.3c0,0.5,0,1,0.3,1.5c0.5-0.3,1-0.3,1-0.3c0-2.5,0-4.8,0-6.8c0-2.5,0.3-5,0.5-7.5
		c0-2.5,0.3-5.3,0-7.8c0-1.8-0.5-3.5-1-5.3c0-0.5,0-1.3,0-1.8c0-1,0.3-2,0.5-3.8c5.8,0,12,0,19,0c-0.8,1.3-1,1.8-1.7,2.8
		c1,0,1.5,0,2.2-0.3c0,0,0-0.5,0-0.8c0-0.3-0.3-0.8-1-1.8c3.3,0,5.8,0,8.5,0c-0.5,3-1,5.5-1,8c0.3,6,0.8,12,1,18c0,2-0.5,4-0.8,6
		c0,0.5,0.3,0.8,0.3,1.3c0,0.8,0,1.3,0,2s0,1.5,0,2.2c0,0.3,0.5,0.8,0.3,1c-1,3.5,0.8,7-0.3,10.5c-9,0-18,0-27.8,0
		c0.5-2.8,1-5.8,1-8.5C329.5,327,329,325,328.8,322.3z M340.8,301.5c-1,0-1.8,0-2.2,0c-3.5,0-3.8,0.3-2.8,4c0.3,1.3,0.3,2.8,0,4
		c-1.3,4.5-0.8,5,3.5,4.8c0.5,0,1-0.3,1.5-0.3C340.8,309.8,340.8,305.8,340.8,301.5z M347.5,319.5c0.3,0,0.5,0,0.8,0
		c0-0.8-0.3-1.3-0.3-2c0-1-0.3-2-0.3-3c0-1.5,0.3-3.3,0.3-4.8c0-0.3-0.3-0.8-0.3-1c0.3-2,1-4,0.5-5.8s-0.3-3,0.5-4.5
		c0.3-0.3,0.3-0.8,0-1.3c-0.3-0.8-0.8-2.3-1-2.3c-1.7-0.2-1.5,1.3-1.5,2.3c0,5,0,10.2,0,15.2C346.8,314.8,347.3,317,347.5,319.5z
		 M348.3,330.8c0-2.8,0-5.3,0-7.5c-0.3,0-0.5,0-1,0c-0.3,1-0.3,2-0.3,2.8c0,1,0.3,2,0.3,3c-0.3,0-0.5,0-0.5,0.3
		C347,329.5,347.5,329.8,348.3,330.8z"/>
	<path fill="#9D1C20" d="M171.3,337.8c-9.3,0-18.3,0-27.8,0c0.3-2.8,1-5.8,1-8.5c0-1.8-0.2-3.8-0.5-5.5c0-0.5,0-1,0-1.5
		c0-0.3,0.5-0.8,0.5-1c-1.8-5.5,0-10.8-0.2-16.3c-0.3-2.3,0.2-4.2,0.2-6.5c0-1.3-0.5-2.7-0.7-4c-0.3-0.8-0.3-1.5,0-2.3
		c0-0.8,0.2-1.7,0.5-2.5c-0.3-0.2-0.3-0.5-0.5-0.8c9.3,0,18.2,0,27,0c0,6.8,0,13.5,0,20c0,3-0.5,6,0,8.8c0.3,1.8-1,3.5,0.5,5
		c0.3,0.3-0.3,1-0.3,1.3c0,0.8,0,1.5,0,2.3c0,0.3,0.5,0.5,0.5,0.8C171,330.5,171.8,334,171.3,337.8z M159.5,314c0.5,0,0.8,0,1.3,0
		c4.8,0,5-0.3,3.8-5c-0.2-1.3-0.2-2.5,0-3.8c1-3.8,1-4-3-4c-0.8,0-1.3,0-2,0.3C159.5,306,159.5,309.8,159.5,314z M151.5,318.8
		c0.3,0.3,0.5,0.5,1,0.5c0.3-0.5,0.8-0.8,0.8-1.3c0.3-2.8,0.3-5.5,0.3-8.3c0-3.5,0.2-6.8,0-10.3c0-1.8,1-4-2-5.8
		c0,2-0.3,3.5-0.3,4.8c0.3,2.5,0.8,5,1,7.5c0,1-0.3,2.3-0.3,3.5c0,1.7,0.3,3.3,0.3,5c0,1-0.3,2-0.3,3
		C151.8,318,151.5,318.3,151.5,318.8z"/>
	<path fill="#9D1C20" d="M87.5,288.8c6,0,12,0,18.3,0c-0.3,5-0.8,9.8-0.8,14.3c0,5-0.3,10,0.3,15c0.2,2.2,1,4.5-0.3,6.8
		c0,0.3,0,0.5,0,0.8c1.5,4,0.8,8,1,12.2c-6.3,0-12.3,0-18.2,0C87.5,321.5,87.5,305.5,87.5,288.8z M99.3,314c0-4.3,0-8.3,0-12.3
		c-1.8,0-3.5,0-5,0c0,4.3,0,8.3,0,12.3C95.8,314,97.5,314,99.3,314z"/>
	<path fill="#9D1C20" d="M393.8,337.8c0.5-3,1-5.8,1-8.5c0-2.8-0.3-5.5-0.5-8.3c0-1.8,0.3-3.5,0.3-5.5c0-4.8-0.3-9.5,0.3-14.3
		c0.3-2.8,0.5-5-0.5-7.8c-0.5-1.3,0.3-2.7,0.3-4.8c5.8,0,12,0,17.8,0c0,16.8,0,32.8,0,49C406.5,337.8,400.5,337.8,393.8,337.8z
		 M400.8,301.8c0,4.3,0,8.3,0,12.3c1.8,0,3.5,0,5,0c0-4.3,0-8.3,0-12.3C404.3,301.8,402.5,301.8,400.8,301.8z"/>
	<rect x="239.3" y="331" fill="#9D1C20" width="22" height="3"/>
	<rect x="239.3" y="334.5" fill="#9D1C20" width="22" height="3"/>
</g>
</svg>
