<?xml version="1.0" encoding="utf-8"?>
<!-- Generator: Adobe Illustrator 18.0.0, SVG Export Plug-In . SVG Version: 6.00 Build 0)  -->
<!DOCTYPE svg PUBLIC "-//W3C//DTD SVG 1.1//EN" "http://www.w3.org/Graphics/SVG/1.1/DTD/svg11.dtd">
<svg version="1.1" id="Layer_1" xmlns="http://www.w3.org/2000/svg" xmlns:xlink="http://www.w3.org/1999/xlink" x="0px" y="0px"
	 viewBox="22 36 456 428" enable-background="new 22 36 456 428" xml:space="preserve">
<g>
	<g>
		<g>
			<path fill="#9D1C20" d="M125.8,217.5c44.3,0,88.5,0,132.8,0c0.2,0,0.2,0.3,0.5,0.3c13.8,1.5,27.3,14.2,26.8,32.5
				c-0.3,4.5,0,9.3,0,14c2.8,0,5.5,0,8.3,0c4.8,0,7,2.5,7,7.3c0,11.5,0,23,0,34.3c0,4.8-2.5,7-7.3,7.3c-2.7,0-5.2,0-8,0
				c0,0.8,0,1.3,0,1.5c0,24.8,0,49.3,0,74c0,1,0.5,2,1.3,2.8c2.5,3,4.2,6.3,4.2,10.3c0.3,4.8,0.3,9.5,0,14.3
				c-0.5,8.5-7.3,15-15.8,15.5c-1,0-2,0.3-3.3,0.3c0,5.5,0,10.8,0,16.3c0,3.5-1.8,5.8-5,5.8c-7.5,0-15.3,0-22.8,0c-3,0-5-2-5-5.3
				c0-4.5,0-9,0-13.3c0-1,0-2,0-3.3c-31.8,0-63.3,0-95,0c0,3,0,5.8,0,8.8c0.3,13.3,0.5,13.3-13,13.3c-4.3,0-8.3,0-12.5,0
				c-6,0-7.3-1.5-7.3-7.3c0-4.7,0-9.7,0-14.5c-1,0-2-0.3-2.7-0.3c-9.3-0.5-15.8-7.3-16.3-16.3c-0.3-4.5,0-9.3,0-13.8
				c0.2-3.8,1.8-7,4-9.8c0.8-1,1.3-2.2,1.3-3.5c0-24.3,0-48.5,0-72.8c0-0.8,0-1.5,0-2.3c-3,0-5.5,0-8,0c-5,0-7.3-2.5-7.3-7.3
				c0-11.3,0-22.5,0-34c0-5,2.5-7.3,7.3-7.5c2.5,0,5.2,0,8,0c0-5.5-0.2-10.8,0-16.3c0.3-11.5,5.3-20.5,15.3-26.3
				C117.3,220,121.8,219,125.8,217.5z M117.8,267c0,25.5,0,50.8,0,76c22,0,43.8,0,65.7,0c0-25.5,0-50.8,0-76
				C161.5,267,139.8,267,117.8,267z M200.5,343.3c22,0,43.8,0,65.8,0c0-25.5,0-50.8,0-76c-22,0-43.8,0-65.8,0
				C200.5,292.5,200.5,317.8,200.5,343.3z M192,250.3c10.8,0,21.8,0,32.5,0c5.3,0,8.8-3.5,8.8-8.5c0-4.8-3.8-8.3-9-8.3
				c-13.5,0-27,0-40.3,0c-8,0-16.3,0-24.3,0c-4,0-7,2-8.3,5.3c-2.3,5.5,1.8,11.3,8,11.3C170.3,250.5,181.3,250.3,192,250.3z
				 M132.3,385.5c2.3,0,4.5,0,7,0c4.3-0.3,7.5-3,7.8-7.3c0.3-3.5,0.3-7.2,0-10.8c-0.3-4.3-3.5-7.3-7.8-7.3c-4.5,0-9.3-0.3-13.8,0
				c-4.5,0.3-7.7,3.5-7.7,7.8c-0.3,3.3-0.3,6.5,0,9.7c0.2,4.5,3.5,7.8,8,7.8C127.8,385.5,130,385.5,132.3,385.5z M251.8,385.5
				c2.3,0,4.5,0,6.8,0c4.8,0,8-3.3,8.3-8c0.3-3.3,0.3-6.3,0-9.5c-0.3-4.5-3.5-7.8-8-8c-4.5,0-9.3,0-13.8,0c-4.3,0-7.5,3-7.8,7
				c-0.3,3.8-0.3,7.5,0,11c0.3,4.3,3.8,7,8,7.2C247.3,385.5,249.5,385.5,251.8,385.5z"/>
		</g>
		<path fill="#9D1C20" d="M410.5,280.5c-2.5,0-5,0-7.5,0c0-4.5,0-8.8,0-13c0.5-16.8-11.8-28.3-24.5-29.8c-0.3,0-0.3-0.3-0.5-0.3
			h-64.3v14.8c11,0,22,0,33,0c4.7,0,8.3,3,8.3,7.5s-3.3,7.8-8,7.8c-10,0-19.7,0-29.8,0c-1.3,0-2.3,0-3.5,0v166.3h47c0,1,0,2,0,3
			c0,4,0,8.3,0,12.2c0,3,1.8,4.8,4.5,4.8c7,0,14,0,21,0c3,0,4.5-2,4.5-5.3c0-4.7,0-9.7,0-14.7c1,0,2-0.3,3-0.3
			c7.8-0.5,14-6.5,14.3-14.3c0.3-4.2,0.3-8.8,0-13c0-3.5-1.5-6.8-4-9.3c-0.5-0.8-1-1.8-1-2.5c0-22.5,0-45.3,0-67.8
			c0-0.5,0-0.8,0-1.5c2.5,0,5,0,7.5,0c4.3,0,6.5-2.3,6.5-6.5c0-10.5,0-21,0-31.5C417,282.8,414.8,280.5,410.5,280.5z M325,282.8h60
			v69.8h-60V282.8z M385.5,384c-0.3,4.3-3.3,7.3-7.5,7.3c-2,0-4,0-6,0c-2,0-4,0-6,0c-4,0-7-2.8-7.3-6.5c-0.3-3.3-0.3-6.8,0-10
			c0.3-3.8,3.3-6.5,7-6.5c4.2,0,8.5,0,12.8,0c4,0,7.3,3.3,7.3,7.2C385.5,378.3,385.5,381,385.5,384z"/>
	</g>
	<g>
		<path fill="#9D1C20" d="M250,178.8c-35,0.3-64-28.8-64-64c0-35,29-64,64-64s64,28.7,63.8,64C314,150,285,179.3,250,178.8z
			 M303.8,115c0-29.5-24-53-52.3-53.5c-31-0.5-54,24.3-54.8,52c-0.8,30.8,24.2,55.5,54.5,55C279.5,167.8,303.8,144.5,303.8,115z"/>
		<path fill="#9D1C20" d="M246.5,161.5c-3,0.5-5.5-0.3-8-1.3c-0.3-0.3-0.5-1-0.5-1.3c0-5-0.3-10.3-0.3-15.3
			c-0.3-16.3-0.5-32.5-0.5-48.8c0-3,0-6.3-0.3-9.3c0-0.8-0.8-1.8-1.3-2.5c-0.5-0.5-1-0.5-1.3,0.2c-0.3,0.8-0.5,1.3-0.5,2
			c0.3,11.3,0.3,22.5,0.5,33.8c0.3,12.3,0.3,24.5,0.3,36.8c0,3.3-1.5,3-3.8,2.3c-0.5-0.3-1-0.5-1.5-0.8c-2-1-2.8-2.5-2.8-5
			c0-17.8,0-35.5-0.3-53.5c0-6-0.3-12.3-0.8-18.3c-0.3-3.5,1.3-5.8,3.8-7.8s5.5-2.3,8.5-1.3c0.3,0,0.8,0.3,1,0.5
			c1.8,1.3,2.5,1.3,4-0.3c1.8-1.8,6.3-3.5,9-2.3c2,1,3.3,2.8,4,4.8c0.5,1.5,0.8,3,0.8,4.5c0.3,13,0.5,26,0.8,39
			c0.3,10.5,0.5,20.7,0.8,31.3c0,3.2,0.2,6.8,0.2,10c0,0.7,0,1.3-0.8,1.5c-2,0.3-4,0.8-6.3,0.8c-0.8,0-0.8-0.5-0.8-1.3
			c0-3.5-0.3-7.3-0.3-10.8c-0.5-15-0.8-29.8-1.3-44.8c-0.3-6.8-0.3-13.5-0.5-20.2c0-1.3-0.5-2.3-1-3.5c-0.5-1-1.3-1-1.5,0
			c-0.5,1-0.8,2-0.8,3.3c0,9.8,0.3,19.8,0.5,29.5c0.2,10.5,0.2,21,0.5,31.3c0,5,0.3,10,0.3,15C246.5,160.8,246.5,161,246.5,161.5z"
			/>
		<path fill="#9D1C20" d="M202.5,114.8c0-5,1.3-10,3-14.8c1.7-4.8,4-9.5,7-13.5c2.3-3,4.8-5.3,8.3-6.8c1.5-0.7,2.5-0.3,2.5,1.5
			c0.3,2.7,0.3,5.2,0.5,8c0.3,7.3,0.3,14.3,0.5,21.5c0.2,9.5,0.8,19.3,1,28.8c0,3.8,0,7.8,0,11.5c0,0.8-0.5,1.8-1.3,2
			c-0.5,0.3-1.5,0-2.3-0.3c-1.3-0.8-2.5-1.8-3.5-2.8c-0.2-0.2-0.5-1-0.5-1.5c-0.3-8.3-0.5-16.3-0.8-24.5c0-1.3-0.8-2.3-1.7-2.8
			c-1-0.8-2.8,0.8-2.8,2c0.3,1.8,0.5,3.5,1,5.3c0.3,1,0.3,1.8-0.3,2.5c-1,1.8-2.5,3-4.8,3.3c-1,0-1.5-0.5-1.7-1.3
			C204,127.3,202.8,121.3,202.5,114.8z M216.3,104.3C216.3,104.3,216.5,104.3,216.3,104.3c0.3-2.5,0.3-4.8,0.3-7.3
			c0-0.5-0.3-0.8-0.5-1.3c-0.5,0.2-1,0.5-1.3,0.8c-2.5,4-3.3,8.2-3.5,12.7c0,3.5-0.3,3.5,3.8,3.5c0.8,0,1.3-0.5,1.3-1.3
			C216.3,109.3,216.3,106.8,216.3,104.3z"/>
		<path fill="#9D1C20" d="M275.8,124.5c2.3-0.3,4-0.5,6-1c1-0.2,1.3,0.3,1.3,0.8c0.3,2,0.3,4.3,0.5,6.3c0,0.5,0.3,1,0.5,1.5
			c0.5-0.2,1.3-0.5,1.3-1c1-2,1.8-4,2.5-6c0.5-1.5,0.8-3.3,1-4.8c0.5-1.8-0.8-3.3-2.8-3.3c-1.3,0-2.5,0-3.8,0s-2.8-0.5-4-0.5
			c-1.8,0-3.3-1.5-3.3-3.5c0-0.5,0-1.3,0-1.8c0-11,0-22.2,0-33.3c0-0.5,0-1,0.5-1.3c0.3-0.3,1,0,1.3,0.3c2.3,1.8,4.3,3.7,6.3,5.8
			c3.5,3.5,6.5,7,8.8,11.3c0.8,1.8,1.5,3.3,0.5,5c-0.5,0.8-1.3,1.3-2,1.5c-2,0.5-3.5-0.2-4.5-2c-0.5-0.8-1-1.8-1.8-2.5
			c-0.3-0.3-0.8-0.3-1-0.5c0,0.3-0.3,0.8-0.3,1c0.3,3.3,0.5,6.5,0.8,9.5c0,1.3,1.5,2.5,2.7,2.5c2,0,3.8,0,5.8,0c0.5,0,1,0,1.5,0
			c3,0,4,1.3,4.2,4.3c0.3,5.2-0.8,10.5-2.5,15.5c-2,5.5-4.2,10.7-7.5,15.5c-2,2.7-4,5.5-7.3,7c-2,1-3.8,0.5-3.8-2.3
			c-0.3-7.7-0.5-15.5-0.8-23.2C275.8,125.5,275.8,125,275.8,124.5z"/>
		<path fill="#9D1C20" d="M273.5,85.3c-1.8-1-2.8-0.5-2.8,1.5c0,7.5,0,14.8,0,22.3c0,9.3,0.3,18.2,0.5,27.5c0,6.3,0.3,12.8,0.3,19
			c0,0.2,0,0.7-0.3,1c-1.5,1.3-3.3,2.3-5.3,2.3c-1.5,0-2.3-0.5-2.5-2c-0.3-1-0.3-2.3-0.3-3.5c-0.3-10.3-0.3-20.5-0.5-30.8
			c-0.2-12.3-0.5-24.5-0.8-37c0-2.3-0.8-4.3-2.5-6c-0.5-0.5-0.8-1.8-1-2.8c-0.3-1.3-0.3-2.8-0.3-4c-0.3-2.3,1.3-2.8,3-2.5
			c1.5,0.3,3,0.8,4.3,1c2,0.5,4,1.3,6,2c1.5,0.5,2.3,1.5,2,3C273.3,79.3,273.5,82,273.5,85.3z"/>
	</g>
	<g>
		<path fill="#9D1C20" d="M28.8,450.5c2,4.3,5.3,7.5,9.5,9.5c2.3,0,4.5,0,7,0c7.5-3.5,9.8-9.3,9.8-17.5c-0.3-77-0.3-154,0-231H28.8
			C28.8,291.3,28.8,370.8,28.8,450.5z"/>
		<path fill="#9D1C20" d="M445.3,442.5c0,8,2.3,14,9.8,17.5c2.3,0,4.5,0,7,0c4.3-2,7.5-5.3,9.5-9.5c0-79.8,0-159.3,0-239h-26
			C445.5,288.5,445.5,365.5,445.3,442.5z"/>
	</g>
	<g>
		<path fill="#9D1C20" d="M474,166.8c-2.2-10.8-6.3-23.8-6.3-23.8C437,48.5,329.5,40,329.5,40h-79.2h-0.8h-79
			c0,0-107.5,8.5-138.3,103c0,0-3.7,13-6.2,23.8c0,0-7,25.8,15.3,25.8h417.5C481,192.5,474,166.8,474,166.8z M250,183.8
			c-37.8,0.3-69-31-68.8-69c0-37.8,31.3-68.8,69-68.8c37.5,0,68.8,31,68.8,69C318.8,152.8,287.8,184,250,183.8z"/>
	</g>
</g>
</svg>
