<?xml version="1.0" encoding="utf-8"?>
<!-- Generator: Adobe Illustrator 18.0.0, SVG Export Plug-In . SVG Version: 6.00 Build 0)  -->
<!DOCTYPE svg PUBLIC "-//W3C//DTD SVG 1.1//EN" "http://www.w3.org/Graphics/SVG/1.1/DTD/svg11.dtd">
<svg version="1.1" id="Layer_1" xmlns="http://www.w3.org/2000/svg" xmlns:xlink="http://www.w3.org/1999/xlink" x="0px" y="0px"
	 viewBox="21 48 458 404" enable-background="new 21 48 458 404" xml:space="preserve">
<g>
	<g>
		<path fill="#9D1C20" d="M250,344c-52,0.5-94.8-42.7-94.8-94.7s43-94.8,95-94.8c51.8,0,94.8,42.8,94.8,95
			C344.8,301.5,302,344.5,250,344z M329.8,249.3c0-43.8-35.8-78.5-77.5-79.3c-45.8-0.8-80,36-81,77c-1.3,45.5,36,82.3,80.7,81.5
			C294,327.8,329.8,293,329.8,249.3z"/>
		<path fill="#9D1C20" d="M244.8,318.5c-4.2,0.8-8-0.3-11.7-1.8c-0.5-0.3-0.8-1.3-0.8-2c-0.3-7.5-0.3-15-0.3-22.5
			c-0.2-24.3-0.5-48.2-0.8-72.5c0-4.5,0-9-0.5-13.5c0-1.3-1-2.5-2-3.5c-0.5-0.8-1.5-0.5-1.8,0.5c-0.2,1-0.8,2-0.8,3
			c0.3,16.7,0.5,33.3,0.8,50c0.3,18,0.3,36.3,0.5,54.3c0,4.8-2.3,4.5-5.5,3.5c-0.8-0.3-1.5-0.8-2.3-1c-3-1.5-4.2-3.8-4.2-7.3
			c0-26.5-0.3-52.8-0.5-79.3c0-9-0.2-18.3-1-27.3c-0.5-5.3,2-8.5,5.5-11.3c3.8-3,8.3-3.3,12.8-2c0.5,0.3,1,0.5,1.5,0.8
			c2.5,2,3.5,2,5.8-0.5c2.8-2.8,9.5-5.3,13.3-3.3c3,1.5,4.8,4,5.8,7c0.8,2,1.3,4.5,1.3,6.7c0.5,19.3,0.8,38.5,1.3,57.8
			c0.3,15.5,0.8,30.8,1,46.3c0,5,0.3,9.8,0.5,14.8c0,1-0.3,2-1.3,2c-3,0.5-6,1-9,1.3c-1,0.3-1.3-0.8-1.3-1.7c0-5.3-0.3-10.8-0.3-16
			c-0.5-22-1.3-44.3-1.8-66.3c-0.3-10-0.5-20-0.8-30c0-1.7-0.8-3.5-1.5-5c-0.5-1.5-1.8-1.5-2.3,0s-1.3,3-1.3,4.8
			c0.3,14.5,0.5,29.3,0.8,43.8c0.3,15.5,0.5,31,0.8,46.5c0,7.5,0.2,14.8,0.2,22.3C244.8,317.3,244.8,317.8,244.8,318.5z"/>
		<path fill="#9D1C20" d="M179.5,249.3c0.3-7.3,1.8-14.8,4.5-22c2.8-7.3,5.8-14,10.5-20.3c3.3-4.2,7-8,12-10.2c2.3-1,3.5-0.3,3.8,2
			c0.3,4,0.5,8,0.5,12c0.3,10.8,0.5,21.3,0.8,32c0.5,14.2,1,28.5,1.3,42.7c0.3,5.8,0.3,11.5,0,17.3c0,1-1,2.5-1.7,3
			c-0.8,0.5-2.3,0-3.3-0.5c-1.7-1.3-3.5-2.7-5.3-4.2c-0.5-0.5-0.8-1.3-0.8-2c-0.5-12-0.8-24-1.3-36.3c0-2-1.3-3.3-2.8-4.2
			c-1.5-1-4.2,1-4,3c0.3,2.8,0.5,5.3,1.3,7.8c0.5,1.5,0.5,2.5-0.2,3.8c-1.5,2.8-3.8,4.5-7,4.8c-1.3,0-2-0.5-2.5-1.7
			C181.8,267.8,179.8,259,179.5,249.3z M200,233.8h0.3c0-3.5,0-7,0-10.5c0-0.5-0.3-1.3-0.5-1.7c-0.5,0.3-1.5,0.5-1.7,1.3
			c-3.5,5.8-4.8,12.3-5,19c-0.3,5.2-0.5,5,5.5,5.2c1.3,0,1.8-0.5,1.8-1.7C200,241,200,237.3,200,233.8z"/>
		<path fill="#9D1C20" d="M288,263.8c3.3-0.5,6-0.8,9-1.5c1.3-0.3,1.7,0.3,2,1.3c0.3,3,0.5,6.3,0.8,9.3c0,0.8,0.5,1.5,0.5,2.3
			c0.8-0.5,1.8-0.8,2-1.3c1.3-3,2.5-6,3.5-9c0.8-2.3,1-4.8,1.5-7c0.5-2.8-1.3-4.8-4-4.8c-1.8,0-3.8,0-5.5,0c-2-0.3-4-0.8-6-0.5
			c-2.5,0-4.8-2.3-4.8-5c0-0.8,0-1.8,0-2.5c0-16.5,0-33,0-49.5c0-0.5,0.3-1.5,0.5-1.8s1.3,0,1.8,0.5c3.3,2.7,6.5,5.5,9.5,8.5
			c5,5,9.8,10.3,13,16.7c1.3,2.5,2.3,5,0.8,7.5c-0.8,1-2,2-3,2.3c-3,0.8-5-0.5-6.5-3c-0.8-1.3-1.5-2.5-2.5-3.8
			c-0.3-0.5-1-0.5-1.5-0.8c-0.2,0.5-0.5,1-0.5,1.5c0.3,4.8,0.8,9.5,1,14.3c0.3,1.7,2,3.5,4,3.5c2.8,0,5.5,0,8.5,0c0.8,0,1.5,0,2.3,0
			c4.5,0.3,6,1.7,6.3,6.3c0.3,8-1.3,15.5-4,23c-3,8-6.3,16-11.3,23c-3,4.3-6,8.3-11,10.3c-3,1.3-5.5,0.8-5.5-3.5
			c-0.3-11.5-0.8-23-1-34.5C288,265,288,264.3,288,263.8z"/>
		<path fill="#9D1C20" d="M284.8,205.3c-2.8-1.5-4-0.5-4,2.3c0,11,0,22,0.3,33c0.3,13.5,0.5,27.3,0.8,40.8
			c0.3,9.5,0.3,18.8,0.3,28.3c0,0.5-0.3,1.3-0.5,1.5c-2.5,1.8-4.8,3.3-8,3.3c-2,0-3.3-0.8-3.5-3c-0.3-1.8-0.3-3.3-0.3-5
			c-0.3-15.3-0.5-30.3-0.8-45.5c-0.2-18.3-0.8-36.5-1.3-54.8c0-3.5-1-6.5-3.8-9c-1-0.8-1-2.7-1.3-4c-0.2-2-0.2-4-0.5-6
			c-0.5-3.5,1.7-4.2,4.5-3.8c2.3,0.3,4.3,1,6.5,1.5c3,1,5.8,2,8.8,3c2,0.8,3.3,2,3.3,4.5C284.5,196.5,284.8,200.8,284.8,205.3z"/>
	</g>
	<path fill="#9D1C20" d="M475,95.3v-8.8c-2.8-6-4.5-12.8-8-18.3c-7-10.5-17.8-15.5-30.3-16c-2,0-3.8,0-5.8,0c-120.8,0-241.3,0-362,0
		c-24,0-37.3,10-43.5,33c0,0.5-0.3,0.7-0.5,1.3v8.8c5.2,12.3,16.3,9.3,26.3,9.8v316.3c-9.5,0.8-21-2.8-26.3,9.8v7
		c3.5,7.5,9.5,9.7,17.8,9.7c138.3-0.3,276.5-0.3,414.5,0c8.3,0,14.2-2.2,17.8-9.7v-7c-5.3-12.3-16.3-9.3-26.3-9.8V105
		C458.5,104.5,469.8,107.8,475,95.3z M342,421H157v-25.8h185V421z M422,157.5H315c29,20.5,48.3,54.5,48.3,92.8
		c0,37.5-18.8,71.3-47.3,91.8h106v79h-53v-26c3.8,0,7.8,0,11.5,0c8.5,0,14.5-5.5,14.5-13c0-7.8-6-13.3-14.5-13.3
		c-87.3,0-174.5,0-261.8,0c-8.5,0-14.5,5.3-14.5,13s6,13.3,14.8,13.3c3.8,0,7.3,0,11.3,0v26H78v-78.5h106.5
		c-28.8-20.8-47.7-54.5-47.7-92.5s19.3-71.8,48.2-92.3H78.3v-52.5h344v52.3H422z"/>
</g>
</svg>
