<?xml version="1.0" encoding="utf-8"?>
<!-- Generator: Adobe Illustrator 18.0.0, SVG Export Plug-In . SVG Version: 6.00 Build 0)  -->
<!DOCTYPE svg PUBLIC "-//W3C//DTD SVG 1.1//EN" "http://www.w3.org/Graphics/SVG/1.1/DTD/svg11.dtd">
<svg version="1.1" id="Layer_1" xmlns="http://www.w3.org/2000/svg" xmlns:xlink="http://www.w3.org/1999/xlink" x="0px" y="0px"
	 viewBox="22 88 456 324" enable-background="new 22 88 456 324" xml:space="preserve">
<g>
	<g>
		<path fill="#9D1C20" d="M403.8,216.5c-10.8,0-20.8,0-30.8,0c-15.3,0-24.3-8.8-24.3-24.3c0-26,0-52,0-78c0-15,9-24,24-24
			c26.3,0,52.3,0,78.5,0c15,0,23.8,9,24,24.3c0,26,0,52,0,78c0,15.3-9,24-24.2,24c-8.8,0-17.3,0-26,0c-1.5,0-2.8,0-4.7,0
			c0,2.3,0,4.2,0,6c0,58.3,0,116.8,0,175c0,2.3,0,4.3-0.5,6.5c-0.8,3.8-4,6-8,6c-3.8-0.3-7-2.8-7.5-6.5c-0.3-1.8-0.3-3.8-0.3-5.5
			c0-58.5,0-117,0-175.5C403.8,220.5,403.8,218.8,403.8,216.5z M382.3,153c0,9.5,0,18.8,0,28.3c0,11,0.3,11.3,11.5,10.8
			c3.8-0.2,5.5-1.7,5.5-5.5c0-5.5,0-11,0-16.5c0-3.5,1.3-5,5-4.8c5.3,0,10.8,0.3,16-0.5c14.3-1.8,21-9.8,21.8-24
			c0.5-14-6.5-23.3-20.3-24.8c-11-1.3-22.2-0.8-33.3-1c-5,0-5.8,1-5.8,5.8C382,131.5,382.3,142.3,382.3,153z"/>
		<path fill="#9D1C20" d="M399,140c0-11.8,0-11.8,11.8-11c1.5,0,2.8,0.3,4.3,0.5c8.3,1,12.3,8.3,8.5,15.8c-0.8,1.5-2.5,3.5-4,3.8
			c-6,1-12,1.3-18,1.5c-0.8,0-2.2-2-2.5-3.3C398.8,144.8,399,142.3,399,140z"/>
	</g>
	<g>
		<path fill="none" d="M159.3,158.3c-29.3,0-58.5,0-87.7,0c0,34,0,67.8,0,101.5c29.3,0,58.5,0,87.7,0
			C159.3,226,159.3,192.3,159.3,158.3z"/>
		<path fill="none" d="M99.8,282.8c-6.3-0.3-12.3-0.3-18.5,0c-5.8,0.3-10.3,4.5-10.5,10.5c-0.3,4.2-0.3,8.8,0,13
			c0.3,6,4.8,10.3,10.8,10.5c3,0,6,0,9,0c3,0,6.3,0,9.3,0c5.8-0.3,10-4,10.5-9.8c0.2-4.8,0.2-9.8,0-14.5
			C110,286.8,105.5,282.8,99.8,282.8z"/>
		<path fill="none" d="M182,260c29.5,0,58.5,0,87.8,0c0-34,0-67.8,0-101.8c-29.2,0-58.5,0-87.8,0C182,192.3,182,226,182,260z"/>
		<path fill="none" d="M259.5,282.8c-6.3-0.3-12.3-0.3-18.5,0c-5.5,0.3-10,4-10.3,9.5c-0.5,5-0.5,9.8,0,14.8c0.5,5.5,5,9.5,10.5,9.5
			c3,0,6,0,9,0c3,0,6,0,9,0c6.3-0.2,10.8-4.5,11-10.5c0.3-4.3,0.3-8.5,0-12.5C270,287.3,265.5,282.8,259.5,282.8z"/>
		<path fill="none" d="M127,136c14.5,0,29,0,43.5,0s29,0,43.5,0c7,0,11.7-4.8,11.5-11.3c0-6.3-5-10.7-12-10.7c-18,0-36,0-54,0
			c-10.8,0-21.5,0-32.3,0c-5.3,0-9.3,2.7-11,7C113.5,128.3,118.8,136,127,136z"/>
		<path fill="#9D1C20" d="M306.5,154.8c-3.5,0-7.3,0-11,0c0-6.5-0.3-12.8,0-18.8c0.8-24.5-17.3-41.3-35.8-43.2
			c-0.3,0-0.5-0.3-0.8-0.5c-59.2,0-118.2,0-177.5,0c-5.3,2-11,3.3-16,6c-13.3,7.7-20,19.8-20.3,35c-0.3,7,0,14.3,0,21.5
			c-3.8,0-7.3,0-10.8,0c-6.8,0-9.8,3.3-9.8,10c0,15,0,30.3,0,45.3c0,6.5,3.3,9.8,9.7,9.8c3.5,0,6.8,0,10.5,0c0,1.3,0,2,0,3
			c0,32.5,0,65,0,97.3c0,1.5-0.7,3.3-1.8,4.5c-3.3,3.8-5.3,8.3-5.5,13c-0.3,6.3-0.3,12.3,0,18.5c0.5,12.2,9.5,21,21.5,21.7
			c1,0,2.3,0.3,3.8,0.3c0,6.5,0,13,0,19.5c0,8,2,9.8,9.7,9.8c5.5,0,11,0,16.8,0c18,0.3,17.8,0.3,17.5-17.5c0-3.8,0-7.5,0-11.5
			c42.3,0,84.3,0,126.8,0c0,1.5,0,2.8,0,4.3c0,6,0,12,0,17.8c0,4.3,2.5,7,6.5,7c10.3,0.3,20.2,0.3,30.5,0c4.3,0,6.8-3,6.8-7.5
			c0-7,0-14.3,0-21.5c1.5,0,3-0.3,4.3-0.3c11.3-0.8,20.3-9.5,21-20.8c0.3-6.3,0.3-12.8,0-19c-0.3-5.3-2.3-9.8-5.8-13.8
			c-0.8-1-1.5-2.5-1.5-3.8c0-33,0-66,0-99c0-0.5,0-1.3,0.3-2.3c3.8,0,7.3,0,10.8,0c6.3,0,9.5-3.3,9.5-9.5c0-15.3,0-30.5,0-46
			C316,158.3,312.8,155,306.5,154.8z M269.8,158.3c0,33.8,0,67.8,0,101.8c-29.2,0-58.2,0-87.8,0c0-34,0-67.8,0-101.8
			C211.3,158.3,240.3,158.3,269.8,158.3z M116.3,121c1.8-4.5,5.8-7,11-7c10.8,0,21.5,0,32.3,0c18,0,36,0,54,0c7,0,12,4.5,12,10.7
			c0,6.5-4.8,11.3-11.5,11.3c-14.5,0-29,0-43.5,0s-29,0-43.5,0C118.8,136,113.5,128.3,116.3,121z M71.3,158.3c29.5,0,58.5,0,87.8,0
			c0,34,0,67.8,0,101.5c-29.3,0-58.5,0-87.8,0C71.3,226,71.3,192.3,71.3,158.3z M110.3,306.8c-0.5,5.8-4.8,9.5-10.5,9.8
			c-3,0-6.3,0-9.3,0s-6,0-9,0c-6-0.3-10.5-4.5-10.8-10.5c-0.3-4.3-0.3-8.8,0-13c0.3-5.8,4.8-10.3,10.5-10.5c6.3-0.3,12.3-0.3,18.5,0
			c5.8,0.2,10,4,10.5,9.8C110.8,297.3,110.8,302,110.3,306.8z M166,364.3c-23.5,0.3-43-19.3-43-43c0-23.5,19.5-43,43-42.8
			c23.5,0,43,19.3,42.8,43C209,345,189.5,364.3,166,364.3z M270.3,306c-0.3,6.3-4.8,10.5-11,10.5c-3,0-6,0-9,0c-3,0-6,0-9,0
			c-5.8-0.3-10.3-4-10.5-9.5c-0.5-5-0.5-9.8,0-14.8c0.5-5.5,4.8-9.3,10.3-9.5c6.3-0.3,12.3-0.3,18.5,0c6,0.3,10.5,4.5,10.8,10.5
			C270.5,297.5,270.5,301.8,270.3,306z"/>
	</g>
	<g>
		<path fill="#9D1C20" d="M166,361.3c-21.8,0.3-39.8-18-39.8-39.8c0-21.7,18-39.8,40-39.8c21.8,0,39.8,18,39.8,40
			C205.8,343.5,187.8,361.5,166,361.3z M199.5,321.5c0-18.5-15-33-32.5-33.3c-19.3-0.3-33.5,15-34,32.3c-0.5,19,15.2,34.5,34,34.3
			C184.5,354.5,199.5,340,199.5,321.5z"/>
		<path fill="#9D1C20" d="M163.8,350.5c-1.8,0.3-3.5,0-5-0.8c-0.3,0-0.3-0.5-0.3-0.8c0-3.3,0-6.3-0.3-9.5c0-10.3-0.2-20.3-0.2-30.5
			c0-2,0-3.8-0.3-5.8c0-0.5-0.5-1-0.8-1.5c-0.3-0.3-0.8-0.3-0.8,0.3s-0.2,0.8-0.2,1.3c0,7,0.2,14,0.2,21c0,7.5,0,15.3,0.3,22.8
			c0,2-1,2-2.3,1.5c-0.3,0-0.5-0.3-1-0.5c-1.3-0.8-1.8-1.5-1.8-3c0-11,0-22.3-0.2-33.3c0-3.8,0-7.8-0.5-11.5
			c-0.2-2.3,0.8-3.5,2.3-4.8c1.5-1.3,3.5-1.5,5.2-0.8c0.3,0,0.5,0.2,0.5,0.2c1,0.8,1.5,0.8,2.5-0.2c1-1.3,4-2.3,5.5-1.3
			c1.3,0.8,2,1.7,2.5,3c0.2,1,0.5,1.8,0.5,2.8c0.3,8,0.3,16.3,0.5,24.3c0.3,6.5,0.3,13,0.5,19.5c0,2,0,4.3,0.3,6.3
			c0,0.5,0,0.8-0.5,0.8c-1.3,0.3-2.5,0.5-3.8,0.5c-0.5,0-0.5-0.3-0.5-0.8c0-2.3,0-4.5-0.3-6.8c-0.3-9.3-0.5-18.5-0.8-27.8
			c0-4.3-0.2-8.5-0.2-12.5c0-0.8-0.3-1.5-0.8-2.3c-0.3-0.5-0.8-0.5-1,0s-0.5,1.3-0.5,2c0,6.3,0.3,12.3,0.3,18.5
			c0,6.5,0.3,13,0.3,19.5c0,3,0,6.3,0.3,9.3C163.8,350,163.8,350.3,163.8,350.5z"/>
		<path fill="#9D1C20" d="M136.5,321.5c0-3,0.8-6.3,1.8-9.2c1.3-3,2.5-6,4.3-8.5c1.3-1.8,3-3.3,5-4.3c1-0.5,1.5,0,1.5,1
			c0,1.8,0.3,3.3,0.3,5c0.2,4.5,0.2,9,0.2,13.5c0.3,6,0.5,12,0.5,18c0,2.5,0,4.7,0,7.2c0,0.5-0.5,1-0.7,1.3c-0.3,0.3-1,0-1.3-0.3
			c-0.8-0.5-1.5-1.3-2.3-1.7c-0.2-0.3-0.2-0.5-0.2-0.8c-0.3-5-0.3-10.3-0.5-15.3c0-0.8-0.5-1.3-1.3-1.8c-0.7-0.5-1.8,0.5-1.8,1.3
			c0,1,0.3,2.3,0.5,3.3c0.3,0.5,0.3,1,0,1.5c-0.7,1.3-1.5,2-3,2c-0.5,0-0.8-0.3-1-0.8C137.3,329.3,136.5,325.5,136.5,321.5z
			 M145,315C145,315,145.3,315,145,315c0.3-1.5,0.3-3,0-4.5c0-0.3-0.3-0.5-0.3-0.8c-0.3,0.2-0.5,0.2-0.8,0.5c-1.5,2.5-2,5.3-2,8
			c0,2.2-0.2,2.2,2.3,2.2c0.5,0,0.8-0.3,0.8-0.8C145,318,145,316.5,145,315z"/>
		<path fill="#9D1C20" d="M182,327.5c1.3-0.3,2.5-0.3,3.8-0.5c0.5-0.3,0.8,0,0.8,0.5c0.3,1.3,0.3,2.5,0.3,3.8c0,0.3,0.2,0.5,0.2,1
			c0.3-0.3,0.8-0.3,0.8-0.5c0.5-1.3,1-2.5,1.5-3.8c0.2-1,0.5-2,0.5-3c0.3-1.3-0.5-2-1.7-2c-0.8,0-1.5,0-2.3,0
			c-0.8,0-1.7-0.3-2.5-0.3c-1,0-2-1-2-2c0-0.3,0-0.8,0-1c0-7,0-13.8,0-20.8c0-0.3,0-0.8,0.3-0.8s0.5,0,0.8,0.3
			c1.3,1.3,2.8,2.3,4,3.5c2.3,2,4,4.3,5.5,7c0.5,1,1,2,0.2,3.3c-0.2,0.5-0.8,0.8-1.3,1c-1.3,0.3-2-0.3-2.7-1.3c-0.3-0.5-0.8-1-1-1.5
			c-0.2-0.3-0.5-0.3-0.8-0.3c0,0.3-0.3,0.5-0.3,0.5c0.3,2,0.3,4,0.5,6c0,0.8,1,1.5,1.8,1.5c1.3,0,2.3,0,3.5,0c0.3,0,0.8,0,1,0
			c1.8,0,2.5,0.8,2.5,2.8c0.3,3.3-0.5,6.5-1.7,9.7c-1.3,3.5-2.5,6.8-4.8,9.7c-1.3,1.8-2.5,3.5-4.5,4.3c-1.3,0.5-2.3,0.3-2.3-1.5
			c0-4.8-0.3-9.8-0.5-14.5C182,328,182,328,182,327.5z"/>
		<path fill="#9D1C20" d="M180.8,303c-1-0.5-1.7-0.3-1.7,1c0,4.8,0,9.3,0,14c0,5.8,0.3,11.5,0.3,17c0,4,0,8,0.2,11.8
			c0,0.3,0,0.5-0.2,0.5c-1,0.8-2,1.3-3.3,1.3c-1,0-1.3-0.3-1.5-1.3c0-0.8-0.2-1.5-0.2-2c0-6.5-0.3-12.8-0.3-19.2
			c-0.3-7.8-0.3-15.3-0.5-23c0-1.5-0.5-2.8-1.5-3.8c-0.5-0.3-0.5-1-0.5-1.8c-0.3-0.8,0-1.8-0.3-2.5c-0.2-1.5,0.8-1.8,2-1.8
			c1,0,1.7,0.5,2.8,0.8c1.3,0.5,2.5,0.8,3.8,1.3c0.8,0.3,1.5,0.8,1.3,2C180.5,299.5,180.8,301.3,180.8,303z"/>
	</g>
</g>
</svg>
