<?xml version="1.0" encoding="utf-8"?>
<!-- Generator: Adobe Illustrator 18.0.0, SVG Export Plug-In . SVG Version: 6.00 Build 0)  -->
<!DOCTYPE svg PUBLIC "-//W3C//DTD SVG 1.1//EN" "http://www.w3.org/Graphics/SVG/1.1/DTD/svg11.dtd">
<svg version="1.1" id="Layer_1" xmlns="http://www.w3.org/2000/svg" xmlns:xlink="http://www.w3.org/1999/xlink" x="0px" y="0px"
	 viewBox="22.5 22.5 455 455" enable-background="new 22.5 22.5 455 455" xml:space="preserve">
<g>
	<path fill="#9D1C20" d="M249.8,474.8c-123.2,1-225-101.3-224.8-225C25.3,126.5,127,24.7,250.5,25C373.2,25.2,475.3,126.5,475,250.5
		C474.8,374,373,476,249.8,474.8z M439,250c0-104-84.7-186-183.7-187.8c-108.8-2-189.8,85.3-192,182.5
		c-2.8,108,85.5,195,191.3,193.3C354.3,436.5,439.3,354,439,250z"/>
	<path fill="#9D1C20" d="M237.5,414c-10.3,1.5-19.3-0.5-28-4.2c-1.3-0.5-2-3-2-4.8c-0.5-17.8-0.8-35.8-0.8-53.5
		c-0.8-57.3-1.3-114.5-2-171.8c-0.3-10.8-0.3-21.5-1-32.3c-0.3-3-2.5-6-4.5-8.5c-1.5-1.8-3.5-1.5-4.2,1c-0.8,2.3-1.5,4.8-1.5,7.3
		c0.5,39.5,1.3,79.3,1.5,118.8c0.5,43,0.5,86,1.3,129c0.2,11-5.5,10.8-12.8,8c-1.7-0.8-3.5-1.8-5-2.5c-7.3-3.5-10-8.8-10-17.5
		c0.3-62.5-0.3-125.3-1-187.7c-0.3-21.5-0.8-43.3-2.8-64.5c-1.3-12.5,4.8-20.3,13.3-26.8c9-7,19.2-7.8,30.2-4.8
		c1.3,0.2,2.3,1.3,3.3,2c6,4.8,8.5,4.5,13.8-1c6.3-6.5,22.5-12.3,31.8-7.5c7.3,3.5,11.3,9.5,13.8,16.5c1.7,5,3,10.5,3,15.8
		c1.3,45.7,2,91.5,3,137.3c0.8,36.5,1.8,73.3,2.5,109.8c0.3,11.7,0.5,23.3,1,35c0,2.5-0.5,4.5-3,5c-7.3,1.3-14.5,2.2-21.8,3
		c-2.8,0.3-2.8-2-2.8-4c-0.3-12.8-0.5-25.5-0.8-38c-1.5-52.5-3-104.8-4.2-157.3c-0.8-23.8-1.3-47.5-2-71.3c-0.2-4-2-8.3-3.5-12
		c-1.5-3.5-4.2-3.3-5.5,0.3c-1.5,3.5-2.8,7.3-2.8,11c0.3,34.8,1,69.5,1.5,104c0.5,36.7,1,73.5,1.7,110.3c0.3,17.5,0.5,35.3,0.8,52.8
		C237.5,411.3,237.5,412.3,237.5,414z"/>
	<path fill="#9D1C20" d="M82.8,250c0.2-17.3,4-35,10.5-52.3c6.3-17,13.8-33.3,24.7-47.8c7.7-10.3,16.8-18.8,28.8-24.3
		c5-2.3,8.5-0.5,8.8,5c0.5,9.5,1,18.8,1.3,28.3c0.7,25.3,1.3,50.5,2,75.7c1,33.8,2.3,67.5,3.3,101.3c0.5,13.5,0.5,27.2,0,40.8
		c0,2.5-2.3,5.8-4.3,6.8c-2,1-5.5,0-7.8-1.3c-4.5-2.8-8.5-6.5-12.3-10c-1.3-1-2-3.3-2-5c-1-28.5-1.8-57.3-2.7-85.8
		c-0.3-4.5-3-7.8-6.5-10c-3.5-2.3-9.8,2.3-9.5,7.3c0.5,6.3,1.5,12.5,3.3,18.5c1,3.5,1,6-0.5,9c-3.8,6.5-8.5,11-16.8,11
		c-3.3,0-5-1.3-6-4C88,293.8,83.5,272.8,82.8,250z M131.5,213c0.3,0,0.5,0,0.8,0c0-8.5,0-16.8,0-25.3c0-1.5-1-2.8-1.3-4.3
		c-1.5,0.8-3.5,1.5-4.3,2.8c-8.5,13.8-11.5,29-12,44.8c-0.5,12.3-1.3,12,12.8,12.3c3,0,4.3-1.3,4.3-4.2
		C131.3,230.3,131.5,221.5,131.5,213z"/>
	<path fill="#9D1C20" d="M340.3,284.3c7.5-1.3,14.3-1.8,21-3.5c3.3-0.8,4.3,0.5,4.5,2.8c0.8,7.3,1.3,14.5,2,21.7
		c0.3,1.8,1,3.3,1.5,5c1.5-1,4-1.7,4.7-3.3c3.3-7,6.3-14.3,8.5-21.5c1.8-5.5,2.3-11.3,3.5-16.8c1.5-6.5-3-11.5-9.5-11
		c-4.2,0.3-8.8,0.3-13,0c-4.8-0.3-9.3-1.5-14-1.5c-5.8,0-11.3-5.5-11.3-12c0-2,0-4.2,0-6.3c0-39.2,0-78.3,0-117.5
		c0-1.5,0.5-3.5,1.5-4.3c0.8-0.5,3,0.3,4.2,1.3c7.5,6.5,15.3,13,22.3,20c12,12,23.3,24.5,31,40c3,5.8,5.5,11.7,1.5,18
		c-1.5,2.5-4.5,4.8-7.3,5.5c-7,1.8-12-1-15.8-7.3c-1.8-3-3.8-6-6-8.8c-0.8-1-2.5-1-3.8-1.5c-0.3,1.3-1,2.5-1,3.5
		c0.8,11.3,1.8,22.5,2.5,33.8c0.3,4.2,5,8.5,9.8,8.5c6.7,0.3,13.3,0,20,0c1.7,0,3.5,0,5.3,0c10.5,0.3,14.3,4.2,14.5,15
		c0.8,18.7-3,36.7-9.3,54.2c-7,19.3-14.7,38-26.5,54.8c-7,10-14.3,19.7-26,24.5c-7.2,3-12.8,1.5-13-8c-0.5-27.2-1.8-54.5-2.5-81.8
		C340.3,287,340.3,285.8,340.3,284.3z"/>
	<path fill="#9D1C20" d="M332.3,145.5c-6.3-3.3-9.8-1.3-9.8,5.3c0,26.3,0,52.3,0.5,78.5c0.5,32.3,1,64.3,1.5,96.5
		c0.3,22.2,0.5,44.5,0.8,66.8c0,1.3-0.3,3-1,3.5c-5.8,4-11.5,7.5-18.8,7.8c-5,0-7.8-2-8.3-7c-0.5-4-0.8-8-0.8-12
		c-0.8-36-1.3-72-2-108c-0.8-43.3-1.8-86.5-2.8-129.7c-0.3-8.3-2.5-15.3-9-21c-2.3-2-2.5-6.3-3-9.5c-0.8-4.8-0.5-9.5-1-14
		c-1-8.3,4-10,10.8-9.3c5.3,0.5,10.3,2.3,15.3,3.8c7,2.3,14,4.5,20.8,7c5,1.8,7.8,4.8,7.5,11C332,124.8,332.3,134.8,332.3,145.5z"/>
</g>
</svg>
