<?xml version="1.0" encoding="utf-8"?>
<!-- Generator: Adobe Illustrator 18.0.0, SVG Export Plug-In . SVG Version: 6.00 Build 0)  -->
<!DOCTYPE svg PUBLIC "-//W3C//DTD SVG 1.1//EN" "http://www.w3.org/Graphics/SVG/1.1/DTD/svg11.dtd">
<svg version="1.1" id="Layer_1" xmlns="http://www.w3.org/2000/svg" xmlns:xlink="http://www.w3.org/1999/xlink" x="0px" y="0px"
	 viewBox="45 30 410 440" enable-background="new 45 30 410 440" xml:space="preserve">
<g>
	<g>
		<path fill="#9D1C20" d="M50,175.8c2-2.7,3.5-6,6-8c6.3-5,15-3.8,19.8,2.8c3,4,5.8,8,8.3,12.3c1.3,1.7,2.3,2.3,4.5,1.7
			c2.8-0.5,6-0.2,9-0.2c0.7-1.3,1.5-3.8,3-4.8c1.5-1,4-0.8,6.3-1c5.5-20.5,17.3-31,34.8-31c13.5,0,31,9,34.5,31.5c6.5-1,8.3,0,9,5.5
			c3.5,0,7.3,0,10.8,0c1,0,2.3-0.8,2.8-1.7c2.5-3.5,5-7.3,7.5-11c5.3-7.5,13.8-9.5,20.8-4.8c6.7,4.8,8,13.3,3.3,20.8
			c-4.8,7.3-9.8,14.2-14.2,21.5c-1,1.3-1,3.3-1.3,5c-0.3,2.3,0.3,4.8-0.3,7c-0.5,2-1.5,4.5-3,5.3c-1.3,0.5-3.5-1.3-6-2
			c-6.5,9.5-13.3,19.8-20.3,30.3c-0.5,0.8-0.5,2-0.5,3.3c0,6.8,0.5,13.5,0,20.3c-1,16.3,1.5,32,5.8,47.5c5,18,9,36.3,13.5,54.5
			c2.8,10.8-2.8,17.5-13.8,17.8c-1.5,0-3.3,0-5.3,0c0,1.5-0.3,3-0.3,4.5c0,14.8,0,29.8,0,44.5c0,10-5,16.8-13.5,19
			c-10,2.8-20.5-4-22.3-14.3c-0.3-2-0.5-4.3-0.5-6.3c0-14.3,0-28.8,0-43c0-1.3,0-2.8,0-4.2c-4.8,0-9.3,0-14.3,0c0,1.3-0.3,2.8-0.3,4
			c0,15,0,30,0,44.8c0,12-8,20-19.3,19.5c-8.8-0.5-16.5-7.3-16.8-16c-0.5-15.5-0.2-31.3-0.2-46.8c0-1.7,0-3.5,0-5.8
			c-3,0-5.3,0-7.8,0c-8.3-0.3-13.8-7-12-15c4.5-19.7,9.3-39.5,14.5-59.3c3.8-14,6-28.3,5.3-42.7c-0.3-5.8-0.5-11.8,0-17.8
			c0.5-5.5-1-9.8-4.3-14.3c-5.7-8.3-11.3-16.5-17-25c-0.8,0.8-1,1.5-1.5,2c-2.2,2.5-5,2-5.7-1.3c-0.8-3.3-0.8-6.7-1-10.2
			c-0.3-1.8-0.3-3.8-1.3-5c-4.3-6.8-8.8-13.3-13.3-20c-1.5-2.3-2.8-4.8-4-7.3C50,180.3,50,178,50,175.8z M113.5,202.5
			c-3.5,0-6.3,0-9,0c-1,1.5-2.3,3-3.5,4.8c5,7.5,10.3,15.3,15,22.3c17.5-3.8,34.3-4,51.5,0c4.8-7.3,10-14.8,15-22.3
			c-1.5-2-2.8-3.5-3.3-4.2c-3.5-0.3-6.3-0.5-9.3-0.8C155.3,222.5,127,221.3,113.5,202.5z"/>
		<path fill="#9D1C20" d="M342.3,367.3c-5,0-9.5,0-14.3,0c0,1.7,0,3,0,4.5c0,25,0,49.7,0,74.7c0,10-4.8,16.8-13.3,19.3
			c-10.8,3-21.5-4.3-22.8-15.3c-0.3-2-0.3-4.2-0.3-6.3c0-61.5,0.3-123,0.3-184.5c0-2.3-0.8-5-2.3-7c-14.3-21.3-28.5-42.5-42.8-63.8
			c-3-4.5-4.5-9-2.7-14c3.3-10.5,16.5-13.8,24-5.8c1.3,1.3,2.3,2.7,3.3,4.5c12,17.8,24,35.5,35.8,53.5c0.8,1,1.5,2.3,2,2.8
			c17.3-4,34-3.8,51.5,0c0.3-0.5,1-1.5,1.8-2.5c12.3-18.3,24.5-36.5,36.8-54.5c4.5-6.5,10.3-9,17-7c8.5,2.5,12.8,12,9,20
			c-0.8,1.5-1.7,3-2.8,4.5c-14,21-28.3,42-42,63c-1.3,2-2,4.8-2,7c0,62,0,123.8,0.3,185.8c0,6.8-1.3,12.8-6.8,17
			c-11,8.8-27,2.5-29-11.5c-0.3-2-0.5-4-0.5-5.8c0-24.5,0-48.8,0-73.3C342.3,370.5,342.3,369,342.3,367.3z"/>
		<path fill="#9D1C20" d="M343,141c5.5,0.8,10.8,1.3,16,2.5c1.3,0.3,3.3,2,3.3,3.3s-1.8,2.8-3,3.8c-1.5,1-3.3,1.8-5,2.8
			c2,1.8,3.5,3,5,4.5c10.3,10,13.5,26.3,7.2,39c-6.7,14-20.5,21.7-35.5,20c-14-1.8-23.5-9.5-28.3-22.5c-5-13.8-1.7-26.3,8.5-36.8
			c1.3-1.3,2.3-3,3.3-4.5c5.7-9.3,12.8-17,23.2-21c1.8-0.8,3.8-1,5.8-1c3.5-0.3,4.7,2.3,3,5.3C345.3,138,344,139.5,343,141z"/>
	</g>
	<path fill="#9D1C20" d="M397.8,190.5c-2.2-1.5-2.5-2.3-1.7-5c1.5-5.3,4-9.5,7.8-13.5c1.5-1.5,2.8-3,4.5-4.5
		c4.7-4.8,6.5-10.3,5.3-16.8c-1-4.8-2.8-9.3-4.3-14c0-0.3-0.8-0.8-1.3-0.8c-1,0-1.8,0-2.8,0c-1.3,0-2.5-0.5-3-1.8
		c-0.5-1.5-0.3-2.5,1-3.5c0.5-0.5,1.3-1,1.7-1.5c-0.3-0.3-0.3-0.5-0.3-0.5c-7.5-3.3-13.5-8.8-18.5-14.8c-6.5-8-11.5-16.8-13.5-27
		c-3.8-18.5,5.8-36.5,23-44c3.5-1.5,7.2-2,11-3c0.5,0,1-0.3,1.5-0.3c2,0,4,0,6,0c3.8,1,7.8,1.3,11.3,2.8C439,48,447.3,58,450,72.5
		c1.8,9.5-0.3,18.3-4.2,26.7c-4.5,9.8-11,18-19.5,24.5c-2.8,2-5.5,3.5-8.5,5.5c0.5,0.5,1,1,1.5,1.5c1,1,1.8,2.3,1,3.8
		c-0.5,1.5-1.8,2-3.3,2c-0.3,0-0.5,0-1,0c0.8,2,1.5,4,2,6c1.5,4.3,2.3,8.8,2.3,13.3c0,6-2.5,11-6.5,15.5c-2.2,2.5-4.5,5-6.7,7.5
		c-2.3,2.5-3.8,5.5-4.5,8.8c-0.5,1.5-1,2.7-2.2,3.3C399,190.5,398.5,190.5,397.8,190.5z M383.5,77.5c0,0.3,0,0.8,0,1
		c0,1.8,1,3,2.8,3.3c1.8,0,3-1,3.3-3c0-0.8,0-1.3,0.3-2c1-7.8,4.7-13.2,11.5-16.8c3-1.5,6.3-2,9.8-2.3c1.7-0.3,3-1.5,2.8-3.2
		c0-1.5-1.3-2.8-3-2.8c-1.3,0-2.5,0-3.8,0.3C394.3,53.8,384,65,383.5,77.5z"/>
	<path fill="#9D1C20" d="M202.3,184.5c-2.3-1.5-2.5-2.3-1.7-5c1.5-5.2,4-9.5,7.7-13.5c1.5-1.5,2.8-3,4.5-4.5
		c4.8-4.8,6.5-10.3,5.3-16.8c-1-4.8-2.8-9.3-4.3-14c0-0.3-0.8-0.8-1.3-0.8c-1,0-1.7,0-2.7,0c-1.3,0-2.5-0.5-3-1.8
		c-0.5-1.5-0.3-2.5,1-3.5c0.5-0.5,1.3-1,1.8-1.5c-0.3-0.3-0.3-0.5-0.3-0.5c-7.5-3.3-13.5-8.8-18.5-14.8c-6.5-8-11.5-16.8-13.5-27
		c-4-19,5.2-36.7,22.7-44.2c3.5-1.5,7.3-2,11-3c0.5,0,1-0.3,1.5-0.3c2,0,4,0,6,0c3.8,1,7.8,1.3,11.3,2.8c13.5,5.5,21.8,15.5,24.5,30
		C256,75.8,254,84.5,250,93c-4.5,9.8-11,18-19.5,24.5c-2.8,2-5.5,3.5-8.5,5.5c0.5,0.5,1,1,1.5,1.5c1,1,1.8,2.3,1,3.8
		c-0.5,1.5-1.7,2-3.3,2c-0.3,0-0.5,0-1,0c0.8,2,1.5,4,2,6c1.5,4.3,2.3,8.8,2.3,13.3c0,6-2.5,11-6.5,15.5c-2.3,2.5-4.5,5-6.8,7.5
		c-2.3,2.5-3.8,5.5-4.5,8.8c-0.5,1.5-1,2.8-2.3,3.3C203.5,184.5,203,184.5,202.3,184.5z M188.3,71.5c0,0.3,0,0.8,0,1
		c0,1.8,1,3,2.8,3.3c1.8,0,3-1,3.3-3c0-0.8,0-1.3,0.2-2c1-7.8,4.8-13.3,11.5-16.8c3-1.5,6.3-2,9.8-2.3c1.8-0.3,3-1.5,2.8-3.2
		c0-1.5-1.3-2.8-3-2.8c-1.3,0-2.5,0-3.8,0.3C198.8,47.5,188.5,58.8,188.3,71.5z"/>
</g>
</svg>
