<?xml version="1.0" encoding="utf-8"?>
<!-- Generator: Adobe Illustrator 18.0.0, SVG Export Plug-In . SVG Version: 6.00 Build 0)  -->
<!DOCTYPE svg PUBLIC "-//W3C//DTD SVG 1.1//EN" "http://www.w3.org/Graphics/SVG/1.1/DTD/svg11.dtd">
<svg version="1.1" id="Layer_1" xmlns="http://www.w3.org/2000/svg" xmlns:xlink="http://www.w3.org/1999/xlink" x="0px" y="0px"
	 viewBox="0 0 500 500" enable-background="new 0 0 500 500" xml:space="preserve">
<g>
	<path fill="#9C1C20" d="M261.1,327.3c-3.3,2.3-6.3,1.1-9.1-1.7c1.2,5,0.1,8-3.1,9.3c-3.3,1.4-5.9,0.1-8.9-4.6
		c-0.8,0.5-1.6,0.9-2.2,1.5c-2,1.6-4.1,1.9-6.4,0.9c-2.3-1.1-3.8-2.9-3.7-5.6c0.1-2.2-0.6-3.6-3.2-3.8c-3-0.2-4.6-2.4-5-5.2
		c-0.4-2.9,0.8-5.1,3.4-6.4c0.7-0.4,1.4-0.7,2.5-1.3c-3.3-1.8-5.1-4-4.4-7.7c0.8-3.8,4.3-3.9,6.9-5.3c-4.7-6.8-3.5-10.2,4.4-12.6
		c-2.6-2.2-3.8-4.9-2.3-8.1c1.7-3.7,5-3.9,8.7-3.2c-1.9-2.6-3.1-4.9-1.6-7.8c2-3.8,5.1-4,9-3c-1.4-3.2-1.8-6,0.6-8.5
		c2.3-2.4,5.1-2.1,8.1-1.2c-1.9-2.8-3.9-5.5-6.1-7.9c-2-2.2-3.1-4.5-1.6-7.6c-6,1.8-8.2,0.7-10.2-4.6c-1.4,1.7-2.9,3.6-4.5,5.4
		c0.3,2.1-0.1,4.2-0.5,6.3c-0.2,1.1-0.3,2.3-0.2,3.5c0.3,3.8,0.9,7.6,1.1,11.4c0,0.7-1.5,2.3-2.2,2.2c-3.9-0.5-7.8-1.3-12.7-2.3
		c2.4-4.8,4.4-8.7,6.4-12.7c0.4-0.7,0.9-1.4,1-2.2c0.3-2.5,0.5-5,0.8-8.2c-2.3-2.1-3-5.7-0.8-8.2c1-1.1,2.7-2.5,3.8-2.3
		c2.8,0.6,5.5,2.1,8.4,3.3c3.3-3.3,6-4.1,8.9-2.3c2.9,1.8,3.4,4.5,1.7,9.9c3-1.2,5,0,6.8,2.3c2.4,3.1,5,6.1,7.7,9.4
		c-0.7-6.4,0.8-9.4,4.9-9.6c1.8-0.1,4,0.7,5.2,1.9c1.2,1.2,1.5,3.3,2.1,4.8c1.4-3.7,4.8-5.8,8-4.4c1.4,0.6,3.2,1.9,3.6,3.2
		c0.6,2.2,0.2,4.6,0.2,6.7c3.7-1.4,6.9-0.9,8.5,2.1c0.7,1.3,1.1,3.2,0.7,4.4c-0.7,1.9-2.2,3.4-3.3,5.1c4.1,1.4,6,3.6,5.6,7
		c-0.3,3.4-2.3,5-7.5,5.9c3,1.9,4.2,4.4,3.1,7.7c-1.3,3.8-4.5,4.2-8.3,4c3.1,2.3,4,4.9,2.6,8c-1.5,3.4-4.5,4.1-8.3,3.3
		c2.3,3,2.8,6,0.7,8.7c-2.3,3-5.5,2.9-8.8,1.3c2.4,4,2.2,6.7-0.4,9.2c-2.1,2-4.8,2-8.6-0.2C264.1,322.7,263.8,325.4,261.1,327.3z
		 M236.9,293.8c-1.6,3.6-4.6,4.5-8.5,3.8c2.4,2.1,5.1,3.8,4.5,7.5c-0.6,3.7-3.2,5.1-6.7,5.6c5.4,2.6,6.4,5.3,4.3,10.2
		c2,0.3,4.5,0,6.2,1.1c1.7,1,2.7,3.3,3.9,4.9c3.2-4.5,5.3-5,9.9-2.5c1-2.3,1.5-5.3,3.2-6.8c1.7-1.4,4.7-1.1,7.1-1.5
		c0.4-1.7,0.6-4.5,1.8-6.6c1.5-2.7,4.5-2.5,6.6-1.9c0.5-2.5,0.3-5.5,1.6-7.3c1.3-1.7,4.1-2.3,6.4-3.5c-1.4-1.6-2-4.5-0.1-6.7
		c1.5-1.8,4-2.7,5.9-3.8c-0.3-1.9-1.2-4.5-0.8-6.8c0.5-3,3.3-4,5.7-4.2c-0.7-2.2-2-4.4-1.9-6.4c0.2-1.9,1.9-3.8,2.9-5.6
		c-5.1-2.5-5.7-3.7-4.7-10c-6.1,0.4-7.4-0.3-9.9-5.5c-3,3.7-6.5,4.9-10,2.2c-1,1.8-1.6,4.1-3.1,5.3c-1,0.8-3.2,0.1-4.8,0.1
		c0.9,2.2,1.5,5.1-0.9,7.6c-2.4,2.4-5.3,2.4-9,0.4c2.5,3.4,2.9,6.1,0.7,8.9c-2.1,2.6-4.7,2.7-6.9,2c0.2,2.5,1.2,5.3,0.6,7.8
		c-0.8,3-3.9,3.7-7.2,3.5C237.2,288.6,238.1,291.1,236.9,293.8z M259.7,251.4c0.3,0.3,1.3,0.1,2,0.1c-0.6-1.3-1.1-2.7-1.9-3.9
		c-0.3-0.5-1.3-0.5-1.9-0.7c-0.3,0.3-0.5,0.6-0.8,0.9C257.9,248.9,258.7,250.3,259.7,251.4z M252.8,257.2c-0.3,0.5,0.1,1.9,0.5,2.1
		c0.7,0.2,1.9,0,2.3-0.5c0.4-0.4,0-1.5-0.1-3C254.2,256.4,253.2,256.6,252.8,257.2z M270.1,242.7c-0.3,0.7-0.1,1.8,0.4,2.3
		c0.3,0.3,1.8,0.2,2.1-0.2c0.4-0.6,0.1-1.6,0.2-3C271.5,242.2,270.3,242.2,270.1,242.7z M234.3,231.2c-0.4-0.3-2-0.2-2.1,0.1
		c-0.3,0.7-0.3,1.9,0.1,2.4c0.4,0.4,1.6,0.2,3,0.2C234.9,232.6,234.9,231.6,234.3,231.2z M290.3,282.7c0.4,0.3,1.7,0,2.1-0.4
		c0.3-0.4,0.1-1.7-0.3-2c-0.6-0.4-1.6-0.2-3.1-0.4C289.6,281.3,289.7,282.3,290.3,282.7z M233.4,292.1c0.4,0.3,1.7,0,2.1-0.4
		c0.4-0.5,0.4-1.8,0-2.1c-0.5-0.4-1.6-0.2-3-0.3C232.9,290.7,232.9,291.7,233.4,292.1z"/>
	<path fill="#9C1C20" d="M178.3,135.3c0-10-0.1-19.2,0-28.4c0.7-41.9,35.4-74.6,75.8-71.7c38.4,2.8,66.9,33,67.4,71.5
		c0.1,9.4,0,18.7,0,28.6c2,0,3.6,0,5.2,0c17,0,34,0,51.1,0c14,0,22.3,7,23.8,20.8c2.3,21.4,4,42.8,5.9,64.2
		c2.9,31.3,5.7,62.7,8.6,94c2.5,27.6,5,55.3,7.5,82.9c1.3,14.3,2.6,28.5,3.8,42.8c1.3,14.7-7.9,24.8-22.6,24.8
		c-103.4,0-206.9,0-310.3,0c-13.3,0-22.7-9.4-22-22.8c0.9-15.8,2.6-31.5,4-47.3c2.5-28.1,5.1-56.2,7.7-84.2
		c2.9-31.4,5.7-62.7,8.6-94c1.8-20.2,3.6-40.4,5.6-60.6c1.3-12.9,9.7-20.5,22.6-20.6c17.3-0.1,34.6,0,51.9,0
		C174.6,135.3,176.2,135.3,178.3,135.3z M178.3,149.7c-19.8,0-38.9-0.1-58,0.1c-4.7,0-7,2.4-7.6,7.2c-0.8,7-1.4,14-2,20.9
		c-2.9,31.4-5.7,62.7-8.6,94.1c-2.6,28.1-5.1,56.2-7.7,84.2c-2.5,27.9-5.1,55.9-7.5,83.8c-0.7,8.4,1.6,10.6,10.2,10.6
		c39,0,77.9,0,116.9,0c62.7,0,125.4,0,188.1,0c9.9,0,11.7-1.8,10.9-11.5c-2.1-24.7-4.4-49.3-6.6-74c-3.1-34.5-6.3-68.9-9.5-103.4
		c-3.1-34.3-6.1-68.7-9.3-103c-0.6-7-3-9-10.1-9c-15.7,0-31.3,0-47,0c-2.8,0-5.6,0-8.8,0c0,4.2,0.2,7.9-0.1,11.6
		c-0.2,2.9,0.8,4.4,3.5,5.8c8.5,4.6,12.6,14.6,10.2,23.6c-2.6,9.8-11,16.4-20.9,16.3c-9.5-0.1-18-6.6-20.5-15.7
		c-2.6-9.5,1.5-19.2,10-24.2c1.3-0.8,3.2-1.9,3.3-3c0.4-4.7,0.2-9.4,0.2-14c-38.5,0-76.4,0-114.6,0c0,3.5,0.2,6.8-0.1,10
		c-0.3,3.5,0.8,5.5,4.1,7.3c8.4,4.6,12,14.3,9.6,23.4c-2.5,9.5-10.6,16-20.1,16.2c-10,0.2-18.8-6.2-21.4-15.8
		c-2.6-9.6,1.5-19.3,10.4-24.5c1.2-0.7,2.8-2.1,2.9-3.2C178.5,159.1,178.3,154.6,178.3,149.7z M307.2,135.2c0-10.1,0.2-20,0-29.8
		c-0.5-27.1-20.6-50.6-46.9-55.1c-27.7-4.8-54.6,10.5-63.9,36.6c-2,5.7-3.2,11.9-3.5,17.9c-0.6,10.1-0.2,20.2-0.2,30.4
		C231,135.2,268.8,135.2,307.2,135.2z M314.6,178.4c-3.7-0.1-7.2,3.4-7.2,7.1c0,3.6,3.1,6.9,6.8,7c3.9,0.2,7.3-3,7.4-6.8
		C321.6,181.9,318.4,178.5,314.6,178.4z M185.1,192.6c3.7,0.2,7.1-2.6,7.5-6.2c0.4-3.8-2.9-7.5-6.9-7.8c-3.4-0.3-6.9,2.9-7.2,6.5
		C178.1,188.8,181.3,192.4,185.1,192.6z"/>
	<path fill="#9C1C20" d="M203.4,334.3c-23.9,0-47.7,0-71.6,0c-0.9-0.2-1.8-0.4-2.7-0.7c-5.5-1.9-8.8-6.8-8.8-12.9
		c0-21.3,0-42.6,0-64c0-4.8,0-9.7,0-14.5c0-4.5,1.9-8.2,5.5-10.9c1.8-1.3,3.8-1.9,5.9-2.4c23.9,0,47.7,0,71.6,0
		c1.8,0.7,2.5,2,2.5,3.9c0,32.5,0,65,0,97.5C205.8,332.3,205.2,333.7,203.4,334.3z M199.6,314.5c-0.5,0-0.9,0-1.3,0
		c-21.4,0-42.8,0-64.2,0c-0.6,0-1.2,0-1.7,0.1c-3.5,0.3-6.3,3.9-5.9,7.4c0.5,3.8,3.3,6.2,7.3,6.2c21.6,0,43.1,0,64.7,0
		c0.3,0,0.7,0,1,0C199.6,323.6,199.6,319.1,199.6,314.5z M163,255c6.3,0,12.7,0,19,0c0.4,0,0.9,0,1.3-0.1c1.4-0.2,2.4-1.3,2.5-2.7
		c0.2-2-1.2-3.4-3.5-3.4c-13,0-25.9,0-38.9,0c-0.3,0-0.7,0-1,0.1c-1.3,0.3-2.3,1.4-2.4,2.7c-0.1,2,1.2,3.3,3.4,3.3
		C150,255,156.5,255,163,255z"/>
	<path fill="#9C1C20" d="M284.4,427c0.5,0.1,1.1,0.3,1.4,0.7c0.2,0.2,0,0.7,0.1,1.1c0.1,0.6,0.3,1.1,0.3,1.7c0,1.6,0,3.1-0.1,4.7
		c0,0.3-0.1,0.5-0.1,0.8h101.5c0-0.7,0.1-1.4,0.1-2.1c0-1.2-0.1-2.5,0.1-3.7c0.1-0.6,0.2-1.1,0.1-1.8c-0.1-0.5,0-0.8,0.7-0.9
		c0.6-0.1,1.3-0.5,1.9-0.7c0.6-0.3,0.7-0.7,0.4-1.2c-0.4-0.7-0.8-1.3-1.1-2c-0.9-1.7-1.8-3.4-2.7-5.1c-1.3-2.4-2.6-4.8-3.8-7.2
		c-1.6-3-3.1-6.1-4.8-9.1c-0.2-0.4-0.8-0.8-1.2-0.8c-2.3-0.1-4.5-0.2-6.8-0.2c-8,0-16,0-24.1,0c-0.3,0-0.7,0-1,0c-1.8,0-3.7,0-5.6,0
		c0.1-0.9,0.1-1.8,0.3-2.6c0.9-3.5,1.9-6.9,2.9-10.4c1.2-3.9,1.6-7.9,1.4-12c0-0.8-0.1-1.6,0.1-2.4c0.3-1.7,0.7-3.4,1-5.1
		c0.2-0.9,0.4-1.8,0.5-2.7c0.8,0.2,1.4,0.5,2.1,0.6c0.2,0,0.5-0.1,0.5-0.3c0.2-1.1,0.4-2.2,0.6-3.3c0.2-1.5,0.4-3,0.7-4.5
		c0.4-2,0.9-4.1,1.2-6.1c0.5-2.9,0.8-5.9,1.2-8.8c0.1-0.4,0.2-0.6,0.7-0.7c1.9,0,3.8-0.2,5.7-0.1c1,0.1,2.1,0.5,3.1,0.8
		c0.7,0.2,1.3,0.5,2,0.7c0.2,0.1,0.8-0.2,0.8-0.3c0.1-1.1,0.2-2.1,0.1-3.2c-0.1-0.4-0.8-0.8-1.3-1.1c-1.2-0.7-2.4-1.3-3.6-1.9
		c-1.6-0.9-3.3-1.5-5.3-1.1c-0.3,0.1-0.7,0-1.2,0c1-5.1,0.6-10.1,0.2-15.2c0.2,0,0.3,0,0.4,0c1,0.3,1.6-0.3,2-1
		c0.2-0.4,0.3-1,0.1-1.4c-0.5-0.9-1.5-1.2-2.4-1c-0.4,0.1-0.9,0.1-1.2,0.1c-0.2-0.3-0.3-0.7-0.6-0.8c-0.6-0.3-0.8-0.9-1-1.5
		c-0.2-0.6-0.4-1.2-0.5-1.8c-0.2-0.9-0.5-1.9-0.3-2.8c0.4-2.3,0.9-4.5,1.5-6.8c0.4-1.6,0.8-3.2,1.1-4.7c0.3-1.5,0.6-3.1,0.9-4.6
		c0.4-1.9,0.7-3.9,1.2-5.8c0.4-1.7,0.7-3.6,1.4-5.2c0.8-1.9,2-3.6,3.1-5.3c2-3,4-6,5.5-9.3c0.8-1.8,1.6-3.5,2.4-5.3
		c0.6-1.4,1.4-2.9,1.7-4.4c0.6-2.4,0.9-4.8,1.3-7.3c0.5-3,0.5-6,0.4-9c-0.2-4.1-0.1-8.3,0-12.4c0-1.4,0-2.7-0.5-4
		c-0.6-1.4-0.8-2.9-0.7-4.4c0.1-1,0.2-2.1,0.2-3.1c0-0.7-0.1-1.4-0.2-2.1c0-0.2,0.2-0.5,0.1-0.7c0-0.2-0.2-0.4-0.3-0.6
		c-0.2,0.1-0.4,0.2-0.5,0.3c-0.5,0.9-0.9,1.8-1.4,2.7c0-0.3-0.1-0.7,0-1.1c0.1-0.6,0.4-1.2,0.5-1.8c0-0.2-0.2-0.5-0.3-0.8
		c-0.3,0.2-0.6,0.3-0.8,0.5c-0.3,0.6-0.4,1.3-0.7,1.9c-0.2,0.4-0.5,0.8-0.9,1c-1.3,0.7-1.7,1.4-1.4,2.8c0,0.1,0,0.3,0,0.4
		c0.1,1.8,0.6,3.4,1.2,5.1c0.6,1.5,1.3,3,1.4,4.6c0.2,2.9,0.2,5.8-0.2,8.6c-0.3,2.9-1.2,5.8-1.8,8.7c-0.5,2.5-1.1,5-1.7,7.5
		c-0.4,1.7-0.8,3.4-1.4,5c-0.4,1.1-0.9,2.1-1.5,3.2c-1.2,2.4-2.5,4.8-3.8,7.1c-0.7,1.2-1.8,2.1-3.2,2.6c-1.6,0.7-3.3,1.3-4.4,2.9
		c-0.5-0.3-1.3-0.4-1.4-0.8c-0.6-1.6-1.9-2.5-3.4-3.1c-0.2-1.9,0.6-3.4,1.8-4.7c0.2,0.4,0.4,0.8,0.9,0.3c0.3-0.3,0.7-0.7,0.9-1.1
		c0.6-1.2,1.2-2.5,1.7-3.8c0.2-0.6,0.4-1.2,0.6-1.9c0.1-0.6-0.5-1.1-1.1-1c-0.2,0-0.5,0.1-0.9,0.2c2.8-5.7,2.9-10.5-3.6-13.6
		c0.9-1.6-0.3-2.9-0.5-4.4c0.1-0.1,0.2-0.1,0.3-0.1c0.2-0.2,0.5-0.4,0.7-0.7c-0.2-0.2-0.4-0.4-0.6-0.6c-0.4-0.4-0.7-0.7-1.1-1.1
		c-0.1-0.1-0.3-0.2-0.5-0.3c-0.3-0.1-0.7-0.1-0.9-0.3c-0.9-0.7-2-0.8-2.7,0c-0.3,0.3-0.4,0.7-0.5,1.1c-0.7-0.4-1.2,0.1-1.6,0.6
		c-0.4,0.5-0.8,1-1.1,1.5c-0.3,0.4-0.7,0.9-0.7,1.4c0.1,1,0.3,2,0.5,3c-2.4,1-4.3,2.5-5,5.2c-0.7,2.6-0.2,5,1,7.4
		c-1.7,0.1-1.7,0.4-1.3,1.6c0.6,2,1.4,4,2.1,6c0.3,0.7,0.6,1,1.3,0.5c1,1.1,1.4,2.4,1.3,3.8c0,0.3-0.3,0.6-0.6,0.7
		c-1.6,0.5-2.9,1.4-3.6,2.9c-0.3,0.7-1.1,0.7-1.6,0.3c-0.8-0.6-1.6-1.3-2.4-1.9c-1.5-1.1-3.1-2-3.8-3.9c-1-2.6-2.2-5-3.2-7.6
		c-0.8-2-1.4-4-2-6.1c-0.4-1.3-0.3-2.7-0.6-4.1c-0.6-2.9-1.2-5.7-1.8-8.6c-0.7-3.4-1.2-6.9-1.9-10.3c-0.5-2.2-0.4-4.3,0.5-6.5
		c0.6-1.5,1.1-3.1,1.5-4.7c0.3-1.2,0.5-2.3,0.6-3.5c0.1-1.3-0.5-2.4-1.8-3c-0.3-0.1-0.9,0-1.1,0.2c-0.2,0.2,0,0.8,0.1,1.1
		c0,0.2,0.4,0.3,0.5,0.4c1,0.8,1,2.5,0,3.1c-0.1-0.3-0.2-0.5-0.3-0.8c-0.6-1.6-1.9-2-3.2-1c-0.2,0.1-0.4,0.3-0.6,0.3
		c-1.1,0-1.4,0.8-1.8,1.6c-0.3,0.5-0.1,0.9,0.5,0.9c0.8,0,1.2,0.3,0.9,1.1c-0.1,0.2,0,0.5,0,0.7c0.1,4.6,0.2,9.1,0.4,13.7
		c0.1,3.8,0.1,7.7,0.4,11.5c0.3,3.6,0.7,7.2,2,10.6c0.8,2,1.3,4.1,2.1,6.1c1.9,4.7,3.8,9.3,6.4,13.6c1.6,2.6,2.5,5.4,2.6,8.4
		c0,1.6,0.4,3.1,0.6,4.7c0.3,2.1,0.8,4.2,1.1,6.3c0.3,2.1,0.4,4.2,0.7,6.3c0.3,1.8,0.7,3.6,1.2,5.3c0.8,2.4,0.2,4.6-0.9,6.6
		c-0.7,1.3-0.7,2.6-0.7,4c0,0.9,0,1.8-0.1,2.7c-0.2,1.7-0.5,3.3-0.8,5c-0.3,1.8-0.4,3.5-1,5.3c-0.5,1.6-0.7,3.3-1.1,5
		c-0.4,1.4-0.4,2.9-1.4,4.2c-0.6,0.9-0.8,1.9-0.7,3c0,0.7-0.1,1.4-0.3,2.1c-0.4,1.8-0.9,3.6-1.3,5.5c-0.3,1.5-0.5,3-0.7,4.5
		c-0.1,0.7-0.1,1.4-0.1,2.1c0,0.4,0,0.7,0,1.1c-0.2,2,0,3.8,1.5,5.3c1.7,1.7,5,2.3,7.1,0.7c0.6-0.5,1.3-1,2.1-1.3
		c1.2-0.4,2.5-0.7,3.7-1c1.4-0.3,2.7-0.4,4.2-0.6c0,0.6,0,1.1,0,1.6c0,1.9-0.2,3.9,0.4,5.7c0.6,1.7,0.2,3.3,0.1,4.9
		c-0.3,2.3-0.6,4.7-0.8,7c-0.1,1.6,0.2,3.2,0.1,4.9c-0.1,2.5-0.3,5-0.5,7.5c-0.1,1.4-0.5,2.9-0.7,4.4c-6.3-0.1-12.6-0.2-18.9-0.3
		c-0.2-1.5-0.5-2.9-0.7-4.3c-0.2-1.7-1.2-2.8-2.9-3.1c-1.7-0.4-3.7,0.8-3.9,2.5c-0.3,1.6-0.3,3.1-0.5,4.6c-4,0-7.8,0-11.6,0
		c-2.1,0-4.3,0.1-6.4,0.2c-1,0-1.5,0.6-1.7,1.6c-0.2,1.4-0.4,2.7-0.7,4.1c-0.3,1.7-0.7,3.3-1.1,4.9c-0.6,3.2-1.2,6.5-1.8,9.7
		c-0.3,1.5-0.7,3-1,4.4C283,426.3,283.3,426.7,284.4,427z M309,395.9c0.2-0.8,1.6-1.7,2.4-1.5c1.7,0.4,2.4,1.5,2.1,3.3
		c0,0,0,0.1,0.2,0.3c-1.7,0-3.3,0-4.9,0C308.8,397.5,308.9,396.7,309,395.9z"/>
	<g>
		<path fill="#9C1C20" d="M251.7,369.4c0,6.7,0,13.5,0,20.2c-0.6,0.2-1.5,0.7-1.9,0.5c-0.5-0.3-0.8-1.2-0.8-1.9
			c-0.1-3.6,0-7.2,0-10.7c0-0.4,0-0.9,0-1.4c-1.3,0.3-2.4,0.6-3.6,0.9c0,0.4,0,0.9,0,1.4c0,14.4,0,28.9,0,43.3c0,4-1.5,7.3-4.8,9.7
			c-2.2,1.6-4.7,2-7.4,2c-33.3,0-66.6,0-100,0c-7,0-10.4-2.6-12.4-9.2c0-0.1-0.1-0.2-0.1-0.3c0-19.9,0-39.7,0-59.6
			c0.3-0.9,0.5-1.8,0.9-2.6c2.2-4.6,5.8-6.7,10.8-6.7c33.7,0,67.5,0,101.2,0c0.4,0,0.9,0,1.3,0c4.4,0.2,8.3,3.1,9.7,7.3
			c0.5,1.5,0.9,2.4,2.7,2.6c1.8,0.3,3.1,1.7,3.8,3.4C251.3,368.8,251.5,369.1,251.7,369.4z M183,392.9c-6,0-11.9,0-17.9,0
			c-3.6,0-5.8,2.2-5.8,5.8c0,5,0,10.1,0,15.1c0,3.8,2.2,6,6,6c11.8,0,23.5,0,35.3,0c3.9,0,6.1-2.1,6.1-6.1c0-4.9,0-9.9,0-14.8
			c0-3.9-2.1-6-6.1-6C194.8,392.9,188.9,392.9,183,392.9z M180.6,426.8c0.2,0,0.4,0,0.6,0c0.4-0.5,1-1,1-1.5c0-0.5-0.7-1.2-1.2-1.3
			c-0.8-0.2-1.5,0.4-1.4,1.2C179.7,425.8,180.2,426.3,180.6,426.8z M213.3,426.8c0.2,0,0.4,0,0.6,0c0.4-0.5,1.1-1,1.1-1.5
			c0-0.5-0.7-1.2-1.2-1.3c-0.8-0.2-1.5,0.4-1.4,1.2C212.4,425.8,213,426.3,213.3,426.8z M222.1,423.7c-0.2,0-0.4,0-0.6,0
			c-0.4,0.5-1,1.1-1,1.6c0,0.5,0.7,1.2,1.2,1.3c0.8,0.2,1.5-0.5,1.4-1.3C223.1,424.8,222.5,424.3,222.1,423.7z M203.9,425
			c0,0.2,0,0.4,0,0.6c0.5,0.4,1.1,1,1.6,1c0.5,0,1.2-0.7,1.3-1.2c0.2-0.8-0.4-1.5-1.2-1.4C205,424.1,204.5,424.6,203.9,425z
			 M197,426.8c0.2,0,0.4,0,0.6,0c0.4-0.5,1.1-1,1.1-1.5c0-0.5-0.7-1.2-1.2-1.3c-0.8-0.2-1.5,0.4-1.4,1.2
			C196,425.8,196.6,426.3,197,426.8z M190.6,425.6c0-0.2,0-0.4,0-0.6c-0.5-0.4-1-1-1.6-1.1c-0.8-0.1-1.4,0.5-1.3,1.3
			c0.1,0.5,0.8,1.2,1.2,1.2C189.6,426.6,190.1,425.9,190.6,425.6z M231.6,425.6c0-0.2,0-0.4,0-0.6c-0.5-0.4-1.1-1-1.6-1
			c-0.5,0-1.1,0.7-1.3,1.2c-0.2,0.8,0.5,1.5,1.3,1.3C230.6,426.5,231.1,425.9,231.6,425.6z M173,423.7c-0.2,0-0.4,0-0.6,0
			c-0.3,0.5-1,1.1-0.9,1.6c0,0.5,0.7,1.1,1.2,1.2c0.8,0.2,1.4-0.5,1.3-1.3C173.9,424.7,173.3,424.2,173,423.7z M164.8,423.7
			c-0.2,0-0.4,0-0.6,0c-0.3,0.5-1,1.1-0.9,1.6c0,0.5,0.7,1.1,1.2,1.2c0.8,0.2,1.4-0.5,1.3-1.3C165.7,424.7,165.1,424.3,164.8,423.7z
			 M236.9,416.4c0.2,0,0.4,0,0.6,0c0.3-0.5,0.9-1.1,1-1.6c0.1-0.8-0.6-1.4-1.4-1.2c-0.5,0.1-1.2,0.8-1.2,1.3
			C235.9,415.3,236.6,415.9,236.9,416.4z M238.7,406.9c0-0.2,0-0.4,0-0.6c-0.5-0.4-1-1-1.6-1c-0.8-0.1-1.4,0.5-1.3,1.3
			c0.1,0.5,0.8,1.2,1.2,1.2C237.6,407.9,238.2,407.3,238.7,406.9z M238.7,390.5c0-0.2,0-0.4,0-0.6c-0.5-0.3-1-0.9-1.6-1
			c-0.8-0.1-1.4,0.6-1.2,1.4c0.1,0.5,0.8,1.2,1.3,1.2C237.7,391.5,238.2,390.9,238.7,390.5z M236.8,400c0.2,0,0.4,0,0.6,0
			c0.4-0.5,1-1,1-1.6c0-0.5-0.7-1.2-1.2-1.3c-0.8-0.2-1.5,0.4-1.4,1.2C235.9,398.9,236.5,399.4,236.8,400z M237.4,380.5
			c-0.2,0-0.4,0-0.6,0c-0.3,0.5-0.9,1-1,1.6c-0.1,0.8,0.6,1.4,1.4,1.2c0.5-0.1,1.2-0.8,1.2-1.3C238.4,381.5,237.8,381,237.4,380.5z
			 M157.9,425.6c0-0.2,0-0.4,0-0.6c-0.5-0.3-1-0.9-1.6-1c-0.8-0.1-1.4,0.6-1.2,1.4c0.1,0.5,0.8,1.2,1.3,1.2
			C156.8,426.6,157.4,425.9,157.9,425.6z M149.7,425.6c0-0.2,0-0.4,0-0.6c-0.5-0.3-1-0.9-1.6-1c-0.8-0.1-1.4,0.6-1.2,1.4
			c0.1,0.5,0.8,1.2,1.3,1.2C148.6,426.6,149.2,425.9,149.7,425.6z M238.7,374.1c0-0.2,0-0.4,0-0.6c-0.5-0.4-1-0.9-1.6-1
			c-0.8-0.1-1.4,0.6-1.2,1.3c0.1,0.5,0.8,1.2,1.3,1.2C237.6,375.1,238.2,374.5,238.7,374.1z M141.5,425.6c0-0.2,0-0.4,0-0.6
			c-0.5-0.3-1-0.9-1.6-1c-0.8-0.1-1.4,0.6-1.2,1.4c0.1,0.5,0.8,1.2,1.3,1.2C140.4,426.6,141,425.9,141.5,425.6z M231.8,363.5
			c0-0.2,0-0.4,0-0.6c-0.5-0.4-1.1-1-1.6-1c-0.5,0-1.1,0.7-1.3,1.2c-0.2,0.8,0.4,1.5,1.2,1.4C230.7,364.4,231.2,363.9,231.8,363.5z
			 M238.7,366c0-0.2,0-0.4,0-0.6c-0.5-0.4-1-1-1.5-1c-0.5,0-1.1,0.7-1.3,1.2c-0.2,0.8,0.4,1.5,1.2,1.4
			C237.6,366.9,238.1,366.3,238.7,366z M132,423.7c-0.2,0-0.4,0-0.6,0c-0.3,0.5-1,1.1-0.9,1.6c0,0.5,0.7,1.1,1.2,1.3
			c0.8,0.2,1.5-0.4,1.3-1.3C133,424.8,132.4,424.3,132,423.7z M127.4,393.7c0,0.2,0,0.4,0,0.6c0.5,0.4,1,1.1,1.5,1.1
			c0.4,0,1.2-0.7,1.3-1.2c0.2-0.8-0.4-1.5-1.2-1.4C128.4,392.9,127.9,393.4,127.4,393.7z M130.4,386.3c0-0.2,0-0.4,0-0.6
			c-0.5-0.4-1.1-1-1.6-1c-0.5,0-1.1,0.7-1.2,1.3c-0.2,0.8,0.5,1.4,1.3,1.3C129.5,387.2,129.9,386.6,130.4,386.3z M130.4,378
			c0-0.2,0-0.4,0-0.6c-0.5-0.4-1.1-1-1.6-1c-0.5,0-1.1,0.8-1.2,1.3c-0.2,0.8,0.5,1.4,1.3,1.3C129.5,379,129.9,378.4,130.4,378z
			 M215.4,363.6c0-0.2,0-0.4,0-0.6c-0.5-0.4-1-1-1.5-1c-0.5,0-1.1,0.7-1.3,1.2c-0.2,0.8,0.4,1.4,1.3,1.4
			C214.4,364.4,214.8,363.9,215.4,363.6z M238.6,423.3c0-0.2,0-0.4,0-0.6c-0.5-0.4-1.1-1-1.6-1c-0.4,0-1.1,0.7-1.2,1.3
			c-0.2,0.8,0.5,1.4,1.3,1.3C237.7,424.2,238.1,423.7,238.6,423.3z M207.2,363.4c0-0.2,0-0.4,0-0.6c-0.5-0.3-1-0.9-1.5-1
			c-0.8-0.1-1.5,0.5-1.3,1.4c0.1,0.5,0.8,1.2,1.3,1.2C206.2,364.5,206.7,363.8,207.2,363.4z M148.6,361.7c-0.2,0-0.4,0-0.6,0
			c-0.4,0.5-1,1.1-1,1.6c0,0.5,0.7,1.2,1.2,1.3c0.8,0.2,1.5-0.4,1.3-1.2C149.5,362.7,149,362.2,148.6,361.7z M130.4,369.9
			c0-0.2,0-0.4,0-0.6c-0.5-0.4-0.9-0.9-1.5-1c-0.8-0.1-1.5,0.5-1.3,1.3c0.1,0.5,0.8,1.3,1.2,1.3
			C129.3,370.9,129.9,370.2,130.4,369.9z M223.6,363.6c0-0.2,0-0.4,0-0.6c-0.5-0.4-1-1-1.5-1c-0.5,0-1.1,0.7-1.3,1.2
			c-0.2,0.8,0.5,1.4,1.3,1.3C222.6,364.4,223,363.9,223.6,363.6z M130.4,402.6c0-0.2,0-0.4,0-0.6c-0.5-0.4-0.9-0.9-1.5-1
			c-0.8-0.1-1.5,0.5-1.3,1.3c0.1,0.5,0.8,1.2,1.2,1.3C129.4,403.6,129.9,403,130.4,402.6z M128.5,412.1c0.2,0,0.4,0,0.6,0
			c0.4-0.5,0.9-0.9,1.1-1.4c0.2-0.8-0.4-1.5-1.2-1.4c-0.5,0.1-1.2,0.7-1.3,1.2C127.6,410.9,128.2,411.5,128.5,412.1z M155,362.8
			c0,0.2,0,0.4,0,0.6c0.5,0.4,1,1.1,1.5,1.1c0.4,0,1.2-0.7,1.3-1.2c0.2-0.8-0.4-1.5-1.2-1.4C156,361.9,155.5,362.5,155,362.8z
			 M127.4,418.4c0,0.2,0,0.4,0,0.6c0.5,0.4,1.1,1,1.6,1c0.4,0,1.1-0.7,1.2-1.3c0.2-0.8-0.5-1.4-1.3-1.3
			C128.3,417.5,127.9,418.1,127.4,418.4z M197.1,364.7c0.2,0,0.4,0,0.6,0c0.4-0.5,0.9-0.9,1-1.5c0.2-0.8-0.4-1.5-1.2-1.4
			c-0.5,0.1-1.2,0.7-1.3,1.2C196.2,363.6,196.8,364.2,197.1,364.7z M190.8,363.5c0-0.2,0-0.4,0-0.6c-0.5-0.4-1.1-1-1.6-1
			c-0.4,0-1.1,0.7-1.2,1.2c-0.2,0.8,0.5,1.4,1.3,1.3C189.8,364.4,190.3,363.9,190.8,363.5z M182.6,363.5c0-0.2,0-0.4,0-0.6
			c-0.5-0.4-0.9-0.9-1.5-1c-0.8-0.1-1.5,0.5-1.3,1.3c0.1,0.5,0.8,1.2,1.2,1.3C181.5,364.5,182.1,363.9,182.6,363.5z M171.4,362.8
			c0,0.2,0,0.4,0,0.6c0.5,0.4,1,1.1,1.5,1.1c0.4,0,1.1-0.7,1.3-1.2c0.2-0.8-0.4-1.5-1.2-1.4C172.4,361.9,171.9,362.5,171.4,362.8z
			 M166.2,363.5c0-0.2,0-0.4,0-0.6c-0.5-0.4-1-1-1.6-1c-0.5,0-1.1,0.7-1.3,1.2c-0.2,0.8,0.4,1.4,1.3,1.3
			C165.2,364.4,165.7,363.9,166.2,363.5z M139.9,364.8c0.2,0,0.4,0,0.6,0c0.3-0.5,1-1.1,0.9-1.6c0-0.5-0.8-1.1-1.3-1.2
			c-0.8-0.1-1.4,0.5-1.3,1.4C139,363.8,139.5,364.3,139.9,364.8z M130.4,362.9c0,0.2,0,0.4,0,0.6c0.5,0.4,0.9,0.9,1.5,1
			c0.8,0.1,1.4-0.4,1.4-1.3c0-0.9-0.6-1.4-1.4-1.3C131.4,362,130.9,362.6,130.4,362.9z"/>
		<path fill="#9C1C20" d="M182.9,417.1c-5.8,0-11.6,0-17.4,0c-2.6,0-3.5-0.9-3.5-3.5c0-4.8,0-9.6,0-14.4c0-2.6,0.9-3.5,3.6-3.5
			c11.6,0,23.3,0,34.9,0c2.6,0,3.5,1,3.5,3.6c0,4.8,0,9.6,0,14.4c0,2.5-0.9,3.5-3.5,3.5C194.7,417.1,188.8,417.1,182.9,417.1z
			 M189.8,406.4c0-3.8-2.9-6.8-6.6-6.9c-3.8,0-6.9,2.9-7,6.7c0,3.7,3,6.9,6.8,6.9C186.7,413.2,189.8,410.2,189.8,406.4z"/>
		<path fill="#9C1C20" d="M183.1,410.4c-2.3,0-4.1-1.7-4.1-4c0-2.3,1.7-4.1,4-4.1c2.2,0,4.1,1.8,4.1,4
			C187.1,408.5,185.3,410.4,183.1,410.4z"/>
	</g>
</g>
</svg>
