<?xml version="1.0" encoding="utf-8"?>
<!-- Generator: Adobe Illustrator 18.0.0, SVG Export Plug-In . SVG Version: 6.00 Build 0)  -->
<!DOCTYPE svg PUBLIC "-//W3C//DTD SVG 1.1//EN" "http://www.w3.org/Graphics/SVG/1.1/DTD/svg11.dtd">
<svg version="1.1" id="Layer_1" xmlns="http://www.w3.org/2000/svg" xmlns:xlink="http://www.w3.org/1999/xlink" x="0px" y="0px"
	 viewBox="46 15 408 470" enable-background="new 46 15 408 470" xml:space="preserve">
<g>
	<g>
		<g>
			<path fill="#9D1C20" d="M303.8,60c7,2,14,4,20.8,6c8,2.5,15.8,5,23.5,7.8c2,0.8,4,1.8,6.3,2.5c-0.5,1-0.5,1.5-0.8,2
				c-36.8,70.3-73.5,140.5-110.3,210.5c-6.3,11.8-13,23-19,34.8c-10.5,20.3-12.8,41.7-7.8,64c3,13.5,7,26.8,7,40.8
				c0,4.8-0.5,9.3-1.3,14c-1.5,9.2-6.7,16-15,20.5c-0.8,0.5-1.7,0.8-2.3,1.3c-0.5,0.5-1,1.5-1.3,2.3c1,0.3,2,0.8,2.8,0.5
				c6.5-2.8,11.5-7,15-13.3c5-8.5,6-18,5-27.3c-1.3-11.5-3-23.3-5.8-34.5c-6.7-26.5-3-50.8,10.3-74.5c43.3-76.5,82.7-155,123.3-233
				c0.8-1.5,1.3-3.5,1.8-5.3c0.5,0,1.3,0.3,1.7,0.3c3.5,7.3,7.5,14.3,10.8,21.8c1.7,4.3,0,8.8-2.3,12.8c-16,31-32,61.8-48,92.7
				c-20.8,40.3-41.8,80.5-62.5,120.8c-3,6-6.7,11.7-9.2,18c-5.3,13.5-5.8,26.8,1.7,39.8c3.8,6.5,6.8,13.5,9,20.5
				c3.5,11.8,4.5,23.8,2.5,35.8c-2.5,15.5-9.5,27.5-24.2,34.5c-0.3,0.3-0.5,0.5-0.8,0.8c-4,1.3-8,2.5-12,3.5
				c-5.5,0.3-11.3,1-16.8,0.5c-32-2-61.5-12-89-28c-14-8-26-18.5-34.8-32.5c-2.3-3.5-4-7-6-10.5c-1.3-3.8-2.3-7.5-3.5-11.3
				c0-6.3-1-12.5-0.3-18.8C76,354.8,90,338.5,114,331c11.5-3.5,23-6.5,33.5-12.5c13.3-7.8,23.5-18,30.8-32
				c24.3-46.5,48.8-93.2,73-140c13.3-25.5,26.3-51.3,39.5-76.8c1.5-3,4.5-5.5,6.8-8C299.5,61.3,301.8,60.5,303.8,60z M141.3,385.5
				c-0.5-0.3-1.3-0.5-2.3-0.8c-6.3-2.8-9.8-1.3-13,5c-2.3,4.5-4.3,8.8-6.5,13.3c-2,4.5-0.5,9,4,11.3c13.5,6.3,26.8,12.5,40.3,18.8
				c4.5,2,8.3,0.8,10.8-3.5c2.8-5,5.5-10,8-15c2.5-4.7,0.8-9.3-4.3-11.8c-2.3-1.3-4.5-2.2-8-3.8c1-1.3,2.3-2.2,2.8-3.5
				c47.5-89.8,94.7-179.5,142-269.3c0.8-1.5,0.8-3.8,1.3-5.5c-3.3-0.5-3.3,2.5-4.3,4.3c-47.3,89.5-94.8,179.3-142,269
				c-0.8,1.5-1,3-1.3,4.8c-4.3-2-7.3-3.3-10.5-4.8c0.8-1.5,1.5-2.8,2-4c40.3-76,80.5-152,120.8-228c7.7-14.5,15.5-29.3,23.3-44
				c0.5-1,0.3-2.5,0.5-4c-1,0.8-2.3,1.8-3.3,2.5c-0.3,0.3-0.3,0.5-0.3,0.8c-44,83.7-88.7,168-133.2,252.2c-4,7.5-8.3,15-12.5,22.5
				c-3.3-1.5-6.8-3-10.3-4.7c0.8-1.5,1.3-2.8,2-3.8c30-56.8,60.3-113.5,90.5-170.3c18-34,36.3-67.7,54-101.7c0.5-1,0.3-2.5,0.3-4
				c-1,0.8-2.3,1.5-3.3,2.3c-0.2,0.2-0.2,0.8-0.5,1c-37.5,70.5-75,140.8-112.5,211C164.8,343.3,153,364,141.3,385.5z"/>
			<path fill="#9D1C20" d="M398.5,164.5c0.3,2.5,0.5,5,0.8,7.8c2.8,28.5-12.8,58.5-37.3,71.8c-18,9.8-38.5,7.8-52.3-5.3
				c-1-1-2-2-3.3-3.3c4.5-7.3,8.8-14.3,13.3-21.8c2.8,1.5,6.3,3.8,10,5.5c1.5,0.8,4,1.3,5.5,0.5c6.8-3,14-5.5,19.8-9.8
				c17.5-12.8,16.5-33.3,11-47.3c-0.5-1.3-2-2.3-3-3c-4-2.8-8.3-5.5-13-8.5c5-8,9.7-16.3,15-24.5c13,3,22.5,11.8,28.8,24.5
				c0.5,1,1,2,1.7,2.8C396.5,157.3,397.5,161,398.5,164.5z"/>
			<path fill="#9D1C20" d="M319.8,211c10-19.5,19.5-37.8,29.3-56.8c4.5,3,9.8,5.3,13,9c2.5,2.8,3.3,7.8,3.8,11.8
				c2.3,18-6.3,31.8-23.8,39c-6,2.5-11.5,3.5-17-1C323.8,211.8,321.5,211.8,319.8,211z"/>
			<path fill="#9D1C20" d="M140.8,389.5c-2,3.3-3.8,6-5.5,9c-0.3,0.8,0.3,2,0.3,2.8c0.7-0.5,2-0.8,2.5-1.3c1.8-3,3.2-6.3,5.2-9.7
				c3.8,1.8,7.3,3.3,11.8,5.3c-1.8,2.8-3.5,5.3-4.8,7.8c-0.5,1-0.3,2.5-0.3,3.5c1-0.8,2.5-1.3,3-2.2c1.5-2.5,2.7-5.3,4.3-8.3
				c3.5,1.5,6.5,2.8,9.7,4.3c-2,4-4.2,7.8-6,11.5c-0.5,1-0.3,2.5-0.3,3.5c1-0.8,2.5-1.3,3.3-2.2c2.3-3.8,4.2-7.5,6-11.3
				c0.3,0,0.5-0.3,0.5,0c12,4.7,12.5,5.5,6.3,16c-1.5,2.8-3,5.8-4.5,8.5c-1.7,3.3-4,4-7.5,2.5c-13-6-26-12-39-18c-4-1.8-4.8-4-2.7-8
				c1.8-3.8,3.5-7.5,5.5-11.3C131.5,385.8,133.5,385.3,140.8,389.5z"/>
		</g>
		<g>
			<path fill="#9D1C20" d="M321,331.8c-10-0.8-19.8-2-28.8-7c-9.8-5.5-11.5-13.8-4.3-22.5c1.5-2,3.3-3.8,5.3-5.3
				c4.5-3.3,8.8-6.5,13.5-9c26-13.5,53.8-18.8,82.7-17.5c10,0.3,19.7,1.8,29,6.5c12,6,13.8,15,4.7,25c-1.3,1.5-2.8,3-4.3,4
				c-4.2,3-8.3,6-12.8,8.5C383,326.8,358,331.8,331.7,332C328,331.8,324.5,332,321,331.8z M337.3,291.8c-2.8,1.5-5.3,3.3-7.5,5.5
				c-5.5,5.5-4.5,12.3,2.8,15.2c4,1.8,8.8,2.5,13,2.8c9.7,0.3,19-1.7,27.5-6.5c2.5-1.3,4.7-3,6.5-5c5.3-5.5,4.3-12-2.8-15
				c-4.5-2-9.8-2.5-14.8-3.8c0,0.3-0.3,0.5-0.3,0.8C353.5,286,345,287.8,337.3,291.8z"/>
			<path fill="#9D1C20" d="M315.3,431c-1.8,5.8-0.3,11,2.5,16.3c5,9.5,13,16,23,18.8c27.8,8,53.8,3.8,78.3-11.3
				c6.5-4,11.3-10,12.3-18c0.5-5-1-9.5-3.8-13.3C391.5,451.8,354.3,450.5,315.3,431z"/>
			<path fill="#9D1C20" d="M386.8,438.3c11.3-2,21-6.5,29.7-13c8.5-6.3,8.5-6.3,6.5-16.5c-4-21.5-10.3-42.3-21.8-61.3
				c-3-5-6.8-9.8-10.5-14.3C396.3,368.5,397.3,403.3,386.8,438.3z"/>
			<path fill="#9D1C20" d="M348,345.3c0,15.8,0.5,30.8,0,46c-0.5,15.3-3.3,30-9,44.5c13.5,4.3,27,5,41.5,3.5
				C377,405.3,364.8,374.8,348,345.3z"/>
			<path fill="#9D1C20" d="M348.5,336.5c8.5,14,16,28.5,22,43.8c6,15.3,10.8,31,13.5,47.5c7.5-16.3,7.3-79-0.3-98.8
				C372.3,331.8,360.5,334,348.5,336.5z"/>
			<path fill="#9D1C20" d="M391.5,326.8c21.3,22.2,30,50.5,36.3,80.2c9.3-23.3,4.3-76.3-8.3-94.8C410,317.3,400.8,322,391.5,326.8z"
				/>
			<path fill="#9D1C20" d="M341.5,337.3c-11-0.5-21.5-0.8-31.7-1.3c5.5,14,11.3,28.3,16.5,43c5.3,14.8,8.8,30,10.8,45.8
				C343.5,410.5,346.3,355.5,341.5,337.3z"/>
			<path fill="#9D1C20" d="M333,433.5c-2.8-33.3-13.5-63.8-28-93.3c0,2,0.3,4,0.3,6.3c1.3,18.3,2,36.8-0.3,55
				c-0.3,2.8-0.5,5.5-1.8,7.8c-1.3,2.8-0.3,4.5,1.8,6.3C313,423.5,322.3,429.5,333,433.5z"/>
			<path fill="#9D1C20" d="M433.3,296c-3,4-5.8,7.5-8.5,10.8c-1,1.3-1.3,2-0.5,3.5c9.7,20,13.5,41,13.5,63c0,11.8-1.7,23.3-4.5,34.5
				c0,0.3-0.3,0.8-0.3,1.8c9.3-10.8,15.3-22.2,16.5-36c2.3-20.5-2.5-39.8-9-58.8C438.3,308.3,435.8,302.3,433.3,296z"/>
			<path fill="#9D1C20" d="M282.5,324.5c-0.3,20.8-2.8,42,4.8,62.8c2.8,7.5,6.3,14.5,12,20.5c0.8-5.8,1.8-11.5,2-17.2
				c1-18.5,0-37-1.8-55.5c0-1-1.3-2.2-2.3-2.8C292.5,329.5,287.8,327.3,282.5,324.5z"/>
			<path fill="#9D1C20" d="M347.3,310.8c7.8-0.5,15-1.8,22-5.5c2.5-1.3,4.7-2.7,6.8-4.8c3.3-3,2.5-5.8-1.5-7.8
				c-5-2.3-10.3-2.3-15.8-2c-7.8,0.5-15.5,2.5-22,6.8c-2.8,1.8-6,3.5-5.3,7.3c0.8,3.5,4.3,4,7.3,4.8
				C341.8,310.3,344.5,310.3,347.3,310.8z"/>
		</g>
	</g>
	<path fill="#9D1C20" d="M97.3,171.5c3,1.5,5.8,3,8,5.5l99.2-133.5c-3.8-1-5.8-3.8-8.3-6.3c-2-2-4.5-3.8-7-5.3c-2-1.3-4-2.3-6-3.8
		c-2.5-2-4.8-4.5-7.3-6.5c-4.8-3.8-13-4-16.5,1c-2.5,3.3-4.3,7-6.5,10.5c-2.3,3.8-5.8,6.8-8.3,10.3c-3.3,4.7-6,10-9.3,14.7
		c-3.5,5.3-7,10.3-10.5,15.5c-2,3-3.3,6.3-5,9.5c-0.3,0.5-0.3,1-0.5,1.3c-3.8,3.3-7.7,6.5-11.5,9.8c-1.5,1.3-2.7,2.7-4,4.5
		c-1.3,2-2.3,4.3-3.8,6c-2.5,3.3-5.5,6.3-8,9.5c-2.7,3.5-5.2,7-7.7,10.5c-0.5,0.5-1,1.3-1.5,1.8c-2.7,3-6,5.5-7.8,9.3
		c-2,3.8-3,7.5-1.5,11.8c1.8,5.3,4.5,9.8,10.5,12.3c1.8,0.8,3.5,2.5,5,4.3C91.5,167.3,93.8,169.8,97.3,171.5z M177,63.8
		c-3,3-6,6-9,9c1.5,0.3,2.7,0.5,3.8,0.5c-0.3,1.3-0.5,2.3-0.8,3.8c1.8-1.8,3.3-3.5,5-5c1.5-1.3,2.8-3.2,5.5-3.5
		c-2.5,3.5-4.8,6.8-7.5,9.8c-0.5,0.8-2.3,0.8-3.5,0.5c-2.8-0.5-4.8-2-6.8-4c-3.3-3.5-3-4.3-0.8-7.5c2-2.5,3.8-5.2,5.8-7.7
		c0.3-0.5,1.5-0.5,1.8-0.3C173,60.8,175,62.3,177,63.8z M155.3,44.8c1.5-2,3-4,4.3-5.8c0.8-1.3,1.5-2.5,2.3-3.5
		c2.3-4,8.3-4,12.3,0.5c1.3,1.5,2.5,3,2.5,5c0,1.8-1.3,2.5-2,3.5c-1.7,2-3.3,4.3-5,6.5c-0.2,0-0.2-0.3-0.5-0.3c1.3-3.3,3.8-6,4-9.5
		c-1.3,1-2.5,2-3.8,3.3c-0.3,0-0.3-0.3-0.5-0.3c0.3-1.3,0.3-2.5,0.5-4c-0.3,0-0.3-0.3-0.5-0.3c-2.8,3-4.3,7-6.8,10.3L155.3,44.8z
		 M171.5,57.5c-0.3-0.3-0.3-1,0-1.3c2-3.5,4.2-6.8,6.3-10.3c1.3-2,4.5-2.8,7.3-1.5c3.8,1.5,6.5,4.3,7.5,8c0.8,2.8,0.8,3-2.8,4
		c0.3-1.3,0.5-2.3,0.8-3.5c-0.3,0-0.3-0.3-0.5-0.3c-4,3.3-8,6.5-12.3,10C175.8,60.8,173.8,59,171.5,57.5z M146.8,63.3
		c-2-2.8-1.3-4.5,0.3-6.5c2.5-3.2,5-6.8,7.5-10.3c2,1.5,4,2.8,5.8,4.3c0.5,0.3,0.8,1.3,0.8,1.8c-0.8,1.8-1.8,3.3-2.5,5
		c-1.3,2.8-3.5,4.8-5.5,7.3c0.3,0.3,0.3,0.5,0.5,0.5c1.5-0.5,3-1.3,4.8-1.8c0,0.8-0.2,1.5,0,2.3c0.5,1.3-0.5,1.8-1.3,1.8
		C153.3,68.5,148.8,66.3,146.8,63.3z M124.8,120.5c-0.7-1.5-1-3.3-1-4.8c0-4.3,1.5-8.3,3-12c0.8-1.8,1.3-3.5,2.3-5
		c4.3-6.8,9.8-12.3,16.3-16.8c3.3-2.5,7.3-3,11.5-1c0.8,0.3,1.5,0.8,2,1.3c2.3,2,4,4.5,4.3,7c0,1.3-0.5,2.5-1.3,3.5
		c-2,2.3-4.5,4.5-6.8,6.5c-4.8,4-8.5,8.8-11.3,14.3c-1.5,3.3-3.2,6.3-5.2,9.3C135.8,127.3,126.8,124.5,124.8,120.5z M114.3,147
		c0.5,0.8,0.3,2.5,0,3.5c-1.5,3.3-3,6.5-4.5,9.8c-0.2,0.5-0.2,1-0.5,1.7c0.3,0,0.3,0.3,0.5,0.3c1-0.8,2-1.7,2.8-2.5
		c0.8,1.7,0.5,2.8-1.5,3.3c-5.2,2-12-4-12.3-8.5c0-0.8,0.3-1.8,0.8-2.3c2.3-3,4.5-6,6.8-9c1.3-1.5,1.8-1.8,3.8-0.2
		C111.5,144.3,113.3,145.5,114.3,147z M93.8,128.3c-0.3-0.3-0.5-1.3-0.3-1.5c1.8-2.5,3.5-5,5.3-7.5c1.8-2.3,5.3-2.5,8.3-1
		c3.5,1.8,4.8,4.3,5.8,7.5c0,0.2,0,0.5,0,0.5c-1.3-0.5-2.3-0.8-3.5-1.3c-1.3-2-2.7-2.8-5-1.5c-1.5,0.8-3,2-4.3,3c-1.3,1-2.5,2-3.5,3
		C95.3,130.3,94.5,128.8,93.8,128.3z M109.8,140.8c-0.2-0.3-0.7-1.3-0.5-1.5c2-2.8,4-5.8,6.5-8.3c2.3-2.3,6-1.8,9.3,0.8
		c2,1.3,4,2.8,4.5,5.3c0,0.3,0.5,0.5,1,1c-1.8,2.5-3.8,5-5.5,7.5c-0.5,0.8-1.3,1.8-1.8,2.5c-0.5,0.5-1,0.8-1.3,1.3
		c0-0.8-0.3-1.5,0-2c1-2.3,2.3-4.5,3.3-6.8c0.2-0.5,0.5-1.3,1-2l-0.3-0.3c-1.3,0.5-2.5,1.3-3.8,1.8c0-1.3,0.3-2.5,0.3-3.8
		c-0.3,0-0.3-0.3-0.5-0.3c-1.8,3.5-3.8,6.8-5.8,10.5C114.3,144.5,112,142.8,109.8,140.8z M83.5,146.8c-1.5-2.3-0.7-4.3,0.3-5.8
		c2.5-3.8,5.5-7.5,8.3-11.3l2.3,1.8c-1.3,1.8-2.5,3.8-3.5,5.8c-1,2.3-2,4.5-2.3,7c-0.2,2.8,0.8,3.3,4,3.3c0.8,2.3,0.8,2.3,4,2.5
		c-0.5,2-2,2.8-4.5,2.3C88.3,151.5,85.5,149.5,83.5,146.8z"/>
	<path fill="#9D1C20" d="M221.8,56.5c-1.3,0.5-2.5,1-3.8,1.5l-40.8,54.8c-1.3,2.3-2.3,4.8-3.5,7.3c-0.8,1.8-2.5,3-4,4.3
		c-1.3,1.3-2.8,2.5-4.2,3.8L127,180c0,1.5,0.5,3.3,1.3,4.8c2.3,5,6.5,8,11.3,10.3c1.8,1,3.8,2.3,5,3.8c2.3,3.5,5.3,6.3,9.3,8
		c1.5,0.8,2.8,2.5,3.8,3.8s1.8,1.7,2.8,0.8c2.8-2.8,5.8-5.5,8.5-8.5c3-3,5.8-6.3,8.5-9.3c4-4.2,8-8.5,11.8-13
		c4.5-5.3,8.8-10.8,12.8-16.5c3.5-4.8,7-9.8,10.5-14.8c2.3-3.3,4.8-6.8,7-10c3-4,5.8-8.3,8.8-12.3c4-5.2,8-10.2,12-15.5
		c3.8-4.8,7.3-9.8,11-14.8c3.3-4.5,6.8-9,10-13.5c0.8-1,0.3-1.5-0.8-2.3c-1.5-1-3.3-2-4.5-3.5c-3-3.8-6.3-7.2-10.5-9.7
		c-3.3-1.8-5.3-4.5-8-6.8C232.3,57,228.3,54.5,221.8,56.5z M139,183c-0.8-0.8-1.5-1.8-2.3-2.5c-1.8-2-1.3-3.5,0.2-5.3
		c2.3-2.8,4.8-5.5,7.3-8.3c0.2-0.2,0.5-0.5,1-1c1.8,1.3,3.3,2.5,4.8,4c0.3,0.2,0,1.3-0.3,1.5c-1.8,2.8-3.5,5.5-5,8.3
		c-0.3,0.5-0.3,1-0.5,1.7c0,0.3,0.3,0.3,0.3,0.5c1-0.3,1.8-0.8,3-1c0,0.5,0.3,0.8,0.3,1.3c0,0.3,0,0.5-0.3,0.8c-1,0.8,0,3-2,3
		C143.3,185.3,141,184.8,139,183z M167.3,185.5c-1.5,2.3-3.5,4.2-5.3,6.5c-0.8,1-1.3,1.8-2,2.8c0.3,0.3,0.5,0.3,0.5,0.5
		c1.3-0.8,2.5-1.3,3.5-2c0,3.3-0.3,3-3.5,2.8c-3.3,0-5.8-1.8-7.5-4.5c-0.5-0.8-0.5-2-0.3-2.5c2.8-3.8,5.5-7.5,8.5-11.5
		c1.5,1.3,3,2.3,4.5,3.3C168.3,182.8,168.8,183.5,167.3,185.5z M182.5,168.3c1.5,2.3,1,4.3-1.3,5.3c-1,0.3-1.8,0.8-3.3,1.3
		c0.2-1,0.5-1.5,0.5-2.3l-0.3-0.3c-0.5,0.5-1,1-1.5,1.8c-1.8,2.3-3.5,4.5-5.5,6.5c-1,1-2.5,1.3-4-0.3c-1.5-1.3-3.3-2.5-5.3-4
		c3.3-3.5,6-7.3,9.5-10.3C174.5,163.5,180,164.8,182.5,168.3z M168,157.8c0.2,0.3,0.5,0.8,0.2,1c-1,1.5-2,2.8-3,4
		c-0.3,0-0.3-0.3-0.5-0.5c0.3-0.3,0.3-0.3,0.8-0.8c-1.3,0.3-2.5,0.5-3.5,0.8c0.3-1.3,0.5-2.5,0.8-3.8c-0.3-0.3-0.3-0.3-0.5-0.5
		c-1,1-2.3,2-3.3,3c-0.8,0.5-1.5,1-2.3,1.8c-1.3,1.5-2.5,3-3.8,4.8c-0.5,0.8-1.3,1-2.3,0.3c-1.3-1-2.8-2-4.5-3.3l3.5-4.8
		c1.3-1.8,2.5-3.3,3.8-5c1.8-2.8,6.5-3.8,9.8-1.5C165,154.5,166.5,156.3,168,157.8z M201.8,135c-0.3,1.5-1,3-1.5,4.5
		c-2.8,3.8-6.8,4.5-11.3,3c-2-0.5-4-2.8-5-4.8c-1-1.8-1.8-4.3-1.3-6c1-6.8,7.3-10.5,15.3-6.3C200.5,127,202.5,131,201.8,135z
		 M230,97.5c-1.8,2.5-3.3,5-4.8,7.5c-0.3,0.5-0.5,0.8-0.8,1c-1,1.3-1.7,2.3-0.5,4c0.8-0.3,1.5-0.5,2.5-0.8c0,1,0.3,1.8,0.3,2.8
		c0.8,0,1.3-0.3,2.3-0.3c-1,0.8-1.5,1.5-2.5,2c-3,1.8-5,1-7.8-3c-2.3-3.3-2.8-6.3-0.3-9c2.3-2.7,4.3-5.8,6.5-8.5
		C226.8,95,228.5,96.5,230,97.5z M214,84.8c-2.5,4.3-6,8.3-6.5,13.5c0.3,0.2,0.5,0.5,0.8,0.5c1-0.5,2-1,3-1.3c0,1.3,0,2.5,0.3,3.5
		c-1,2.5-4.8,2.5-7,0c-1-1-2-2-2.7-3c-1.8-2.8-0.5-5,0.8-7c1.8-2.5,3.5-4.8,5.3-7c0.8-1,1.3-1.8,2-3L214,84.8z M245.8,87.8
		c0,1-0.5,1.8-0.8,2.5l-0.5-0.3c-0.2-0.5-0.5-1.3-0.5-1.8c-4,0.2-9.5,4.3-9.8,7.3c-0.5-0.2-0.8-0.5-1.3-0.8
		c-0.5,0.5-0.8,0.8-1.3,1.5c-1.5-1.3-3.3-2.3-4.8-3.5c-0.2-0.3-0.5-1.3-0.2-1.5c3-4.5,6-8.8,9.2-13c1.3-1.5,3.3-0.3,4.5,0.5
		C243.5,81,245.8,84,245.8,87.8z M229.8,71.5c2,3.3,1.8,5.3-1,7.8c0.3-1,0.3-1.8,0.3-2.8c-1.5,0.5-2.5,1-3.8,1.5
		c0.3-1.3,0.3-2.5,0.5-3.8c-1.7-0.8-2.7,0.3-3.8,1c-1.3,1.3-2.3,2.5-3.5,3.8s-2.3,2.5-3.5,4c-1.3-1-2.8-1.8-3.8-3
		c-0.3-0.3-0.5-1.3-0.3-1.8c1.7-2.8,3.5-5.8,5.3-8.5c0.8-1.3,2-2.5,3-3.5c0.5-0.5,1.5-0.8,2.3-0.8C224.8,66.8,228,68.5,229.8,71.5z"
		/>
	<path fill="#9D1C20" d="M58.8,318.8c6,4.8,13.3,6,20.8,5.8c4.8-0.3,8.8-1.8,13-3.8c4-1.8,7.3-4.5,10.3-7.5
		c3.8-3.5,6.3-7.8,7.7-12.8c0.8-2.5,0.8-5.3,1-8c0.2-2,0-4,0-6.3c1.8,0.5,3.2,1.3,4.8,1.5c6,1,11.5-0.2,17-2.5c7-2.7,13-6.7,18.3-12
		c4-4,7.5-8.5,9.2-14c1.3-3.3,1.3-6.7-0.2-9.8c-2-4.2-5.5-6.5-10.3-6.7c-8-0.8-15.3,1.5-22.3,5.3c-1.3,0.8-2.5,1.5-3.8,2.3
		c-0.2,0.3-1,0.3-1.3,0c-3-1.7-6-3.3-9-5c-1.5-0.8-3-1.7-4.8-2.5c-5.5-2.8-11.5-4.2-17.7-5.5c-4.3-0.8-8.8-1.8-13-2.8
		c-1.8-0.3-3.2-0.8-5-1c-0.5,0-0.7-0.3-1.3-0.3c0-0.3,0-0.3,0-0.5c0.8,0,1.8,0,2.5-0.3c4.3-0.5,8.8-0.8,13-1.3c7-1,14-2.3,21.3-3.8
		c4-0.8,8-2.3,11.8-4c0.2,0,0.5-0.3,0.8-0.3c3.2-0.8,2.5-1.5,3-4.2c0.2-1.3-1.8-3.3-3.5-3.3c-3.2-0.3-6.8-0.5-10-0.5
		c-4,0-8,0.5-12,1c-2,0.3-3.8,1-5.8,1.5c-2.3,0.5-4.3,1-6.3,1.7c-2.3,0.8-4.3,1.5-6.5,2.5c-3.5,1.5-7,3-10.5,4.5
		c-0.8,0.2-1,0.2-1.5-0.3c-1.5-2-3.8-2.8-6.3-2.8c-2,0-3.8,0.3-5.8,0.5c-0.5,0-1,0.2-1.5,0.5l-0.3,0.3c-1,1-2.3,2-3,3.5
		c-2.8,5-1,10,3.8,12.8c2.3,1.3,2.3,1.3,1.8,4c-1,4-1.5,8-1,12c0.8,4.2,1.8,8.3,2.8,12.3c0.5,2.3,1.5,4.5,2.5,6.5
		c0.5,1,0.3,1.7-0.5,2.5c-6,5-9.8,11.5-11,19C49,305.3,51.5,313,58.8,318.8z M76,228.5c0-0.3,0-0.3,0-0.5c0.8-0.3,1.5-0.8,2.3-1
		c4.8-1.7,9.3-3.5,14-5.2c2.8-1,5.8-1.3,8.5-2c5-1.3,10.2-1.5,15.5-0.5c0.5,0,1,0.2,2,0.8c-0.8,0.5-1,1-1.5,1c-1.8,0.8-3.3,1.5-5,2
		c-4.5,1-9,1.8-13.5,2.5c-4.8,1-9.8,1.8-14.5,2.5C81,228,78.5,228.3,76,228.5z M66,273.5c-0.8-2-1.5-3.8-2-5.8
		c-1.3-4.3-2.5-8.8-2.8-13.3c-0.3-4,0-7.7,1.3-11.5c0-0.3,0.5-0.8,1-0.8c3.3-0.3,5.3-2,7.3-4.5c0.3-0.2,0.8-0.5,1-0.5
		c2.5,0.5,5.3,1.3,7.8,1.7c2.7,0.8,5.2,1.3,8,2c5,1.3,10,2.5,15,3.8c1.8,0.5,3.8,1.3,5.3,2c2.7,1.5,5.5,3,8.2,4.5
		c1.5,0.8,2.8,1.5,4.3,2.5c-6.8,6.3-13.5,12.5-14.5,22.3C93,265.3,79.8,266.5,66,273.5z"/>
</g>
</svg>
