<?xml version="1.0" encoding="utf-8"?>
<!-- Generator: Adobe Illustrator 18.0.0, SVG Export Plug-In . SVG Version: 6.00 Build 0)  -->
<!DOCTYPE svg PUBLIC "-//W3C//DTD SVG 1.1//EN" "http://www.w3.org/Graphics/SVG/1.1/DTD/svg11.dtd">
<svg version="1.1" id="Layer_1" xmlns="http://www.w3.org/2000/svg" xmlns:xlink="http://www.w3.org/1999/xlink" x="0px" y="0px"
	 viewBox="22 83 456 334" enable-background="new 22 83 456 334" xml:space="preserve">
<g>
	<g>
		<path fill="#9D1C20" d="M401.8,215.5c-11,0-21.5,0-31.8,0c-15.8,0-25-9-25-25c0-26.8,0-53.5,0-80.3c0-15.5,9.3-24.8,24.8-24.8
			c27,0,53.8,0,80.8,0c15.5,0,24.5,9.3,24.5,24.8c0,26.8,0,53.5,0,80.3c0,15.8-9.3,24.8-25,24.8c-9,0-17.8,0-26.8,0
			c-1.5,0-3,0-4.7,0c0,2.5,0,4.2,0,6.3c0,60,0,120.3,0,180.3c0,2.2,0,4.5-0.5,6.8c-0.8,4-4.3,6.3-8.3,6c-4-0.3-7.3-2.8-7.8-6.8
			c-0.3-2-0.3-3.8-0.3-5.8c0-60.3,0-120.5,0-180.8C401.8,219.8,401.8,218,401.8,215.5z M379.5,150.3c0,9.8,0,19.2,0,29
			c0,11.3,0.3,11.5,11.8,11c4-0.3,5.8-1.8,5.5-5.8c0-5.8,0-11.3,0-17c0-3.5,1.5-5,5-5c5.5,0,11,0.2,16.5-0.5
			c14.5-2,21.8-10,22.3-24.8c0.5-14.5-6.5-24-21-25.5c-11.3-1.3-22.8-0.8-34.3-1c-5,0-6,1-6,6C379.3,128,379.5,139,379.5,150.3z"/>
		<path fill="#9D1C20" d="M396.8,136.8c0-12,0-12,12-11.3c1.5,0,3,0.3,4.5,0.5c8.5,1,12.8,8.5,8.8,16.3c-0.8,1.5-2.5,3.5-4,3.8
			c-6,1-12.3,1.5-18.5,1.5c-1,0-2.5-2-2.8-3.3C396.5,141.8,396.8,139.3,396.8,136.8z"/>
	</g>
	<g>
		<path fill="#9D1C20" d="M25,263c2-0.5,4.3-1.8,6.3-1.8c36.3,0,72.8,0,109,0c1.3,0,2.8,0,4-0.8c-1-0.8-1.8-1.3-2.8-2
			c-7-5-14.3-9.8-21.3-14.8c-9.5-6.5-11.3-14.8-5.3-24.8c12.8-20.5,25.5-40.8,38.3-61c4-6.5,9.8-11.5,17-14c13-4.8,25-2,35.8,6.3
			c5.3,4,10.3,9,14.3,14.3c13,17,25.8,34.3,38.5,51.8c2.8,4,5.8,6.3,10.5,6.3c0.5,0,1.3,0.2,1.8,0.2c5.5-0.2,8.8,2,9.8,7.5
			c0.3,2,1.5,2.8,3.8,3c3.5,0.5,7.3,1.3,10.5,2.7c6.8,2.8,10.8,7.3,9.8,15c-0.5,3.8-0.5,7.5-0.8,11.3c7.5,1.5,15.5,2.8,23.5,4.8
			c12.5,3,24.5,7.8,35.8,14.3c4.3,2.5,5.8,7,3.8,11s-6.5,5.3-11,3.5c-7.3-3-14.3-6.7-21.5-9c-10.8-3.3-21.5-2-32.5,0.8
			c0.8,2.3,1.5,4.2,2.3,6c6.5-0.3,12.5-1,18.5-0.5c28.5,2,51,23,55.3,51.5c0,0.8,0.5,1.3,0.8,2c0,4.3,0,8.8,0,13
			c-0.3,0.5-0.5,1-0.8,1.5c-6,37-40.5,59.7-76.3,49.2C277,403,262,385.5,259,359.8c-2.8-23.8,6.5-42.8,25.8-56.5
			c4.8-3.5,5-3.3,1.5-9c-4.5,3.5-9.3,6.5-13.3,10.3c-12.5,11.7-20.5,26.5-26.3,42.5c-1.3,3.8-3.3,5-7,5c-25.5-0.3-51,0-76.7,0
			c-1.3,0-2.8,0-4,0c-0.5,34.7-26.3,57.8-53.8,60.8c-27.3,3-53.3-13-62.8-38.8c-6-16.3-5.3-32,2.2-47.5C52.2,311,64.5,301,81.5,295
			c-14-2.7-27.3-5.5-40.3-8c-3.8-0.8-6.5-2.3-8.3-5.8c-2.5-5.2-5.8-10.5-8.5-15.8C25,265,25,264,25,263z M142,350
			c-1,0.3-2.3,0.8-3.3,1c-10.5,3.8-21,7.8-31.8,11.5c-5.8,2-10.3,0.5-12-4.3c-1.8-4.7,0.8-9,6.5-11c3.2-1.3,6.8-2.5,10-3.8
			c8.8-3.3,17.5-6.5,26.5-9.8c-10-20.8-34.8-30.3-56-21.3c-21.2,8.8-32,33-24.5,54.5c7.8,22.2,31,34.2,53.8,27.8
			C134.5,388.3,144.8,365.3,142,350z M295,316.3c-19.5,12.3-26,37.5-15,57.5s35.8,28.5,56.5,19c21.3-9.7,31-34,22.8-55.5
			c-9.3-24-34.5-31-48.8-26.8c3.5,9.5,7,19,10.5,28.5c1.7,5,3.8,10,5.3,15.3c1.3,4-1,7.5-5,9c-3.8,1.5-7.8,0-9.8-3.5
			c-1-2-1.8-4.3-2.8-6.3C304.3,341.3,299.8,328.8,295,316.3z M274.5,261.5c-2.8-7.5-5.3-14.5-8-21.5c-0.2-0.5-0.8-1.3-1-1.3
			c-3.3-0.5-6.7-1.5-9.8-0.8c-6.5,1.7-11.5,0.2-15.8-4.8c-11-12.7-22-25.5-33-38c-0.8-1-1.7-1.8-2.7-3c-10,19.5-19.8,38.8-29.5,58.3
			c10.8,9.5,21.5,19,32.3,28.5c12-14.3,27.5-18,45-17.3C259.5,261.8,266.8,261.5,274.5,261.5z"/>
		<path fill="#9D1C20" d="M217.3,87c16.3,0.2,29,13,28.8,29.5c-0.3,15.3-13.5,28.3-28.5,28c-16.8-0.3-29.5-13-29.5-29
			C188.3,99.5,201.3,86.8,217.3,87z"/>
	</g>
</g>
</svg>
