<?xml version="1.0" encoding="utf-8"?>
<!-- Generator: Adobe Illustrator 18.0.0, SVG Export Plug-In . SVG Version: 6.00 Build 0)  -->
<!DOCTYPE svg PUBLIC "-//W3C//DTD SVG 1.1//EN" "http://www.w3.org/Graphics/SVG/1.1/DTD/svg11.dtd">
<svg version="1.1" id="Layer_1" xmlns="http://www.w3.org/2000/svg" xmlns:xlink="http://www.w3.org/1999/xlink" x="0px" y="0px"
	 viewBox="10 108 480 284" enable-background="new 10 108 480 284" xml:space="preserve">
<g>
	<g>
		<path fill="#9D1C20" d="M425.8,221c-9.3,0-18,0-26.8,0c-13.3,0-21-7.8-21-21c0-22.5,0-45,0-67.5c0-13,7.8-20.8,20.8-20.8
			c22.8,0,45.3,0,68,0c13,0,20.8,7.8,20.8,21c0,22.5,0,45,0,67.5c0,13.3-7.8,20.8-21,21c-7.5,0-15,0-22.5,0c-1.3,0-2.5,0-4,0
			c0,2,0,3.8,0,5.3c0,50.5,0,101,0,151.8c0,1.8,0,3.8-0.5,5.5c-0.8,3.3-3.5,5.3-7,5c-3.3,0-6-2.5-6.5-5.8c-0.3-1.5-0.3-3.3-0.3-4.8
			c0-50.8,0-101.3,0-152C425.8,224.5,425.8,223,425.8,221z M407,166c0,8,0,16.3,0,24.3c0,9.5,0.3,9.8,10,9.2
			c3.3-0.2,4.8-1.5,4.8-4.8c0-4.8,0-9.5,0-14.2c0-3,1.3-4.3,4.3-4.3c4.5,0,9.2,0.3,13.8-0.5c12.2-1.5,18.3-8.5,18.8-20.7
			c0.5-12.3-5.5-20.3-17.5-21.5c-9.5-1-19.3-0.8-28.8-1c-4.3,0-5,0.8-5,5C407,147.3,407,156.8,407,166z"/>
		<path fill="#9D1C20" d="M421.8,154.5c0-10.3,0-10.3,10-9.5c1.3,0,2.5,0.3,3.8,0.5c7.2,1,10.8,7,7.5,13.5c-0.8,1.3-2,3-3.3,3.3
			c-5.3,0.8-10.3,1.3-15.5,1.3c-0.8,0-2-1.7-2.3-2.8C421.5,159,421.8,156.8,421.8,154.5z"/>
	</g>
	<g>
		<path fill="#9D1C20" d="M288,375.3c-63.8-13.8-127.3-13.5-191,0.3c-0.2,1-0.5,2-0.7,3.3c-1.5,5.8-5.8,9.8-11.3,9.8
			c-14.3,0-28.5,0.3-42.8,0c-6.3,0-10.3-4.8-11.7-13.3c-6.5-1.5-9.3-6.5-10.8-13.3c-5.2-23.5-8.3-47.5-6.5-71.8c1-15.8,3-31.3,5-47
			c1.3-10.5,6.5-18,15-23c1.8-1,3.8-2.3,5.5-3.5c2.5-1.5,3-3.5,1-6c-3.3-4.5-4-9.2-1.5-14.2c2.3-5.3,6.3-7.5,11.5-7.5
			c3.3,0,6.8-0.3,10,0c2.8,0.3,4-1,5-3.5c4.8-11.3,10.3-22.3,17.8-31.8c9.8-12.3,22.3-18.3,36-22c30-8.3,60.3-10.3,91-8.8
			c19,1,37.8,3.5,56.3,8.3c23.5,6,40,21,50.5,44.7c0.8,1.8,2,3.5,2.5,5.5c1.5,6.7,5.5,8.5,11,7.5c2.2-0.3,4.7-0.3,7,0
			c4.7,0.5,8.3,3,10.3,7.8c2,4.8,1.5,9.2-1.3,13.3c-2.8,4.3-2.5,5,1.8,7.5c1.8,1,3.3,2,4.8,3c8,4.8,12.8,12.3,14.5,22
			c7,40.5,7.8,81-2.3,121c-1.3,5.3-3.8,9.2-8.8,11c-0.8,0.3-1.5,1.5-1.8,2.5c-2,7.8-6,11.3-13.3,11.3c-12.8,0-25.5,0-38.3,0
			C293.8,388.5,289.8,385,288,375.3z M192.3,207.8c0,0.3,0,0.5,0,0.8c6.8,0,13.8-0.3,20.5,0c26.7,0.8,53.5,1.8,80.5,2.8
			c7,0.3,9.8-4.3,6.8-11.3c-2-5-4.3-9.8-6.5-14.5c-7-15.5-18-24.5-33-28.3c-16.7-4.5-33.7-6.8-51-7.8c-27.7-1.5-55,0.3-82.3,7
			c-11.3,2.8-22.3,6.5-29,17.8c-4.5,7.3-8,15.2-12,22.7c-4.8,8.8-2.5,14.8,8.3,14.3C126.8,209.8,159.5,208.8,192.3,207.8z
			 M192.8,334.5c21.7,0,43.8,0.3,65.5-0.3c4.5,0,9.5-2.8,13.3-5.5c6.8-5.3,6.3-13.5-0.8-18.3c-4-2.5-8.3-4.5-12.8-5.8
			c-42.3-12.5-84.8-12-127.3-1.3c-6.2,1.5-12.3,4.8-17.7,8.5c-6,4-6,10.3-0.8,15.5c4.3,4.3,9.3,7,14.8,7
			C148.8,334.5,170.8,334.5,192.8,334.5z M64.3,269c10.3-1,19.3-1.8,28.3-2.8c1.3-0.3,3.3-1.5,3.5-2.8c0.3-1.5-0.7-3.5-1.8-4.8
			c-1-1.3-2.7-2-4-3c-10.5-6.5-22-10-33.5-12.7c-4.8-1.3-9.8-1-14.8-0.8c-1.5,0-4,1.8-4.5,3.3c-4,9.5,0.8,20.5,10,22
			C53.5,268.8,59.5,268.5,64.3,269z M321.3,269c4.3-0.5,11.3-0.8,18-2c4.7-1,7.8-4.8,8.3-10.3c0.3-3,0.5-6,0.3-9
			c-0.3-3.3-1.5-5.3-4.7-5.8c-8.3-1-15.8,1.3-23.5,3.5c-10.3,3-20.3,6.3-29,13c-1.3,1-2.3,3.5-2.3,5.5c0,0.8,2.5,2.3,4,2.5
			C301,267.3,309.8,268,321.3,269z"/>
	</g>
</g>
</svg>
