<?xml version="1.0" encoding="utf-8"?>
<!-- Generator: Adobe Illustrator 18.0.0, SVG Export Plug-In . SVG Version: 6.00 Build 0)  -->
<!DOCTYPE svg PUBLIC "-//W3C//DTD SVG 1.1//EN" "http://www.w3.org/Graphics/SVG/1.1/DTD/svg11.dtd">
<svg version="1.1" id="Layer_1" xmlns="http://www.w3.org/2000/svg" xmlns:xlink="http://www.w3.org/1999/xlink" x="0px" y="0px"
	 viewBox="53 28 394 444" enable-background="new 53 28 394 444" xml:space="preserve">
<g>
	<path fill="#9C1C20" d="M55.5,468.4c0.1-2.1,0.3-4.2,0.3-6.4c0-21.5,0-42.9,0-64.4c0-1.7,0-3.3,0-5.2c129.6,0,258.7,0,388.3,0
		c0,1.9,0,3.6,0,5.2c0,21.9,0,43.8,0,65.6c0,1.7,0.2,3.4,0.3,5.1C314.8,468.4,185.2,468.4,55.5,468.4z"/>
	<path fill="#9C1C20" d="M342.1,31.6c17.5,4.9,31.8,16,47.5,24.4c4.3,2.3,8.4,3.5,13.3,3.4c12.1-0.2,24.2-0.1,36.2-0.1
		c1.5,0,3,0,4.8,0c0,32.5,0,64.4,0,96.7c-1.6,0.1-3.1,0.2-4.6,0.2c-13.2,0-26.4-0.1-39.6,0.1c-2.4,0-5.1,0.7-7.2,1.9
		c-11.4,6.3-22.8,12.8-34,19.4c-7.7,4.5-15.9,6.6-24.8,6.5c-30.8-0.1-61.7,0-92.5,0c-12.2,0-20.2-8.8-18.5-20.2
		c1.2-8.5,8.4-14.5,17.8-14.6c13.5-0.1,27-0.1,40.5,0c2.8,0,4.7-0.8,6.7-2.8c9.5-9.6,19.1-19.1,28.6-28.7c6.8-6.9,7.2-13.6,1.3-21.2
		c-5.6-7-11.1-14.1-16.8-20.9c-1.2-1.4-3.5-2.5-5.2-2.5c-16.8-0.2-33.5-0.2-50.3,0c-1.8,0-4.1,1.1-5.4,2.4
		c-15.2,15-30.2,30.1-45.3,45.1c-6,6-13,8.1-21,5.5c-13.2-4.3-18.1-21.2-8.5-31.2c17.6-18.2,35.6-35.9,53.7-53.6
		c5.8-5.7,13.6-8,21.3-9.9C273.9,31.6,308,31.6,342.1,31.6z"/>
	<path fill="#9C1C20" d="M60.3,377.9c0.8-1.6,1.4-2.9,2.1-4c15.7-27.5,31.4-55,47-82.5c1.4-2.4,2.9-3.3,5.7-3.3
		c22.5,0.1,44.9,0.1,67.4,0c2.8,0,4.3,0.9,5.9,3.1c30.9,42.2,92.4,42.1,123.4,0c1.6-2.2,3.2-3.1,5.9-3.1c22.5,0.1,44.9,0.1,67.4,0
		c2.8,0,4.3,0.9,5.7,3.3c15.6,27.5,31.3,55,47,82.5c0.7,1.2,1.2,2.4,2.1,4C313,377.9,187,377.9,60.3,377.9z M250,336.7
		c-19,0-38.1,0-57.1,0c-4,0-8-0.1-11.9,0c-4.3,0.1-6.9,2.6-7,6.4c-0.2,4,2.4,6.9,6.7,7.3c1.1,0.1,2.3,0.1,3.4,0.1
		c44,0,88.1,0,132.1,0c1.8,0,3.7,0,5.5-0.6c3.4-1.1,4.9-3.7,4.5-7.3c-0.4-3.4-2.4-5.4-5.8-5.8c-1.4-0.2-2.8-0.1-4.3-0.1
		C294,336.7,272,336.7,250,336.7z"/>
	<path fill="#9C1C20" d="M292.7,201c-2.3-2.2-4.7-3.2-8-3.1c-14.8,0.2-29.6,0.5-44.3-0.1c-5.6-0.2-11.3-2.3-16.6-4.4
		c-2.6-1-4.2-1.3-6.5,0.1c-17.3,11-27.3,26.7-29.4,47c-3.6,35,23.5,66.7,58.1,68.3c36.5,1.7,66.2-26.2,66.3-66.7
		C312.1,228.7,305.7,213.5,292.7,201z"/>
	<path fill="#9C1C20" d="M217.6,117.3c9.7-9.8,19.2-19.3,28.8-28.8c0.7-0.7,1.9-1.3,2.9-1.3c6.8-0.1,13.5-0.1,21-0.1
		c-0.8,1-1.1,1.6-1.5,2c-9,9-18,18.1-27.1,27.1C234.5,123.1,225.6,123.6,217.6,117.3z"/>
	<path fill="#9C1C20" d="M291.8,87c2.9,3.6,6,7.5,8.9,11.1c-6.6,6.8-12.7,13.6-19.4,19.7c-6.1,5.6-14.9,5.2-20.6,0.3
		C270.8,107.9,281,97.8,291.8,87z"/>
</g>
</svg>
