<?xml version="1.0" encoding="utf-8"?>
<!-- Generator: Adobe Illustrator 18.0.0, SVG Export Plug-In . SVG Version: 6.00 Build 0)  -->
<!DOCTYPE svg PUBLIC "-//W3C//DTD SVG 1.1//EN" "http://www.w3.org/Graphics/SVG/1.1/DTD/svg11.dtd">
<svg version="1.1" id="Layer_1" xmlns="http://www.w3.org/2000/svg" xmlns:xlink="http://www.w3.org/1999/xlink" x="0px" y="0px"
	 viewBox="0 0 500 500" enable-background="new 0 0 500 500" xml:space="preserve">
<g>
	<path fill="#9C1C20" d="M210.3,440.7c2.5-68.6,4.9-135.2,7.4-203c-23,3.5-45.1,6.8-67.1,10.2c-18.2,2.8-36.4,5.9-54.6,8.4
		c-13.9,1.9-26.7-8.3-29.1-23.3c-6.3-39.7-12.2-79.4-18.4-119.1c-1.9-12-0.9-22.9,10.4-30.2c11.4-7.3,22.7-6.6,32.7,0.6
		c2.8-1.8,4.9-4.1,7.4-4.6c41.4-9.5,82.8-18.8,124.3-28.1c0.9-0.2,1.9,0.2,3.7,0.5c2.2,30.9,4.4,61.8,6.6,93.8
		c-42.5-3.4-84.3-6.8-127.6-10.3c3.4,21.8,6.5,42.1,9.8,63.6c19.2-2.8,37.8-4.8,56.1-8.2c43.9-8.4,88.1-7.5,132-2.4
		c12.6,1.5,25.7,8.1,36.3,15.5c33.9,23.5,66.6,48.5,99.9,72.8c8.6,6.3,12.5,14.3,12.2,24.9c-1,40.6-1.8,81.1-2.7,121.7
		c-0.4,18.1-11.1,29.2-27.5,28.9c-15.6-0.3-25.7-12-25.4-29.7c0.6-33.9,1.1-67.7,2-101.6c0.2-6-1.6-9.8-6.6-13.3
		c-14.7-10.3-29.1-21-45.2-32.8c-1.2,56.7-2.4,111.5-3.6,165.6C298.6,440.7,255.1,440.7,210.3,440.7z M137.1,82.5
		c29,12.1,55.3,23.1,83.2,34.8c-1.2-18.3-2.2-34.8-3.4-52.5C190.5,70.6,165.3,76.2,137.1,82.5z"/>
	<path fill="#9C1C20" d="M294.1,169.3c-34.7-0.6-61.2-28.2-60.4-62.9c0.8-33.2,28.5-59.3,62.5-58.9c33,0.4,60.5,29,59.5,62
		C354.7,143.4,327.4,169.9,294.1,169.3z"/>
</g>
</svg>
