<?xml version="1.0" encoding="UTF-8"?><svg xmlns="http://www.w3.org/2000/svg" xmlns:xlink="http://www.w3.org/1999/xlink" viewBox="0 0 187.19 231.53"><defs><radialGradient id="radial-gradient" cx="93.59" cy="403.32" fx="93.59" fy="403.32" r="21.77" gradientTransform="translate(0 107) scale(1 .29)" gradientUnits="userSpaceOnUse"><stop offset="0" stop-color="#000"/><stop offset="1" stop-color="#000" stop-opacity="0"/></radialGradient><radialGradient id="radial-gradient-2" cx="93.59" cy="93.12" fx="93.59" fy="93.12" r="86.46" gradientUnits="userSpaceOnUse"><stop offset="0" stop-color="#000" stop-opacity="0"/><stop offset=".86" stop-color="#000" stop-opacity=".47"/><stop offset="1" stop-color="#000"/></radialGradient></defs><g isolation="isolate"><g id="Layer_2"><g id="Layer_1-2"><g><ellipse cx="93.59" cy="224.07" rx="29.02" ry="7.47" fill="url(#radial-gradient)" opacity=".31"/><path d="M93.59,224.07c-2.9,0-5.33-2.24-5.54-5.15-.94-12.73-5.75-31.59-13.52-33.68C29.95,173.22,0,136.39,0,93.6,0,41.99,41.99,0,93.6,0s93.59,41.99,93.59,93.6c0,40.72-28.18,76.45-71.78,91.02-15.98,5.34-16.24,33.62-16.24,33.9-.01,2.99-2.38,5.44-5.37,5.55-.07,0-.13,0-.2,0Z" fill="#670000"/><path d="M93.6,179.57c-47.68,0-86.47-38.78-86.47-86.46S45.92,6.66,93.6,6.66s86.46,38.78,86.46,86.46-38.78,86.46-86.46,86.46Z" fill="#670000"/><path d="M93.6,179.57c-47.68,0-86.47-38.78-86.47-86.46S45.92,6.66,93.6,6.66s86.46,38.78,86.46,86.46-38.78,86.46-86.46,86.46Z" fill="url(#radial-gradient-2)" mix-blend-mode="multiply" opacity=".32"/></g></g></g></g></svg>