<?xml version="1.0" encoding="utf-8"?>
<!-- Generator: Adobe Illustrator 18.0.0, SVG Export Plug-In . SVG Version: 6.00 Build 0)  -->
<!DOCTYPE svg PUBLIC "-//W3C//DTD SVG 1.1//EN" "http://www.w3.org/Graphics/SVG/1.1/DTD/svg11.dtd">
<svg version="1.1" id="Layer_1" xmlns="http://www.w3.org/2000/svg" xmlns:xlink="http://www.w3.org/1999/xlink" x="0px" y="0px"
	 viewBox="41 22 418 456" enable-background="new 41 22 418 456" xml:space="preserve">
<g>
	<path fill="#9C1C20" d="M435.9,270.6c-1.5-0.1-3,0-4.4,0c-124.7,0-249.5,0-374.2,0c-1.3,0-2.6,0-3.9,0c-5.8,0.2-9.3,3.5-9.2,8.8
		c0.1,5,3.5,8.2,9.2,8.3c5.1,0.1,10.1,0,15.8,0c0,2.8,0,4.8,0,6.8c0,56,0,111.9,0,167.9c0,11.2,2.2,13.4,13.3,13.4
		c107.8,0,215.7,0,323.5,0c11.5,0,13.6-2.1,13.6-13.6c0-56,0-111.9,0-167.9c0-2.1,0-4.2,0-6.6c6,0,11.3,0.1,16.5,0
		c5.2-0.2,8.4-3.6,8.4-8.5C444.3,274.3,441,270.9,435.9,270.6z M140.2,396.7c-0.8,0.8-1.8,1.2-3.1,1.2h-20.6c-2,0-3.6-0.6-4.8-1.8
		c-1.2-1.2-1.8-2.8-1.8-4.8v-29.8c0-2,0.6-3.6,1.8-4.8c1.2-1.2,2.8-1.8,4.8-1.8h23.2c0.3,0.5,0.6,1.2,0.9,2c0.3,0.8,0.4,1.7,0.4,2.7
		c0,1.8-0.4,3.1-1.2,3.8s-1.8,1.1-3.1,1.1H122v6.5h15.8c0.3,0.5,0.6,1.2,0.9,2c0.3,0.8,0.4,1.7,0.4,2.6c0,1.8-0.4,3.1-1.1,3.8
		c-0.8,0.8-1.8,1.1-3,1.1h-13v7.4h18.1c0.3,0.5,0.6,1.2,0.9,2c0.3,0.8,0.4,1.7,0.4,2.7C141.4,394.6,141,395.9,140.2,396.7z
		 M187.3,396.1c-0.7,0.7-1.6,1.2-2.9,1.5c-1.2,0.4-2.7,0.5-4.5,0.5s-3.4-0.3-4.9-0.8s-2.8-1.8-3.8-3.7l-7-14.2
		c-0.7-1.5-1.3-2.8-1.9-4.1c-0.6-1.3-1.2-2.8-1.8-4.5l-0.4,0.1c0.2,2.5,0.3,5.1,0.3,7.7s0,5.2,0,7.7v10.9c-0.5,0.1-1.3,0.3-2.4,0.4
		c-1.1,0.1-2.1,0.2-3.1,0.2s-2-0.1-2.7-0.2c-0.8-0.1-1.5-0.4-2-0.8s-0.9-1-1.2-1.7s-0.4-1.7-0.4-2.9V357c0.7-0.9,1.7-1.6,3-2.1
		c1.4-0.5,2.8-0.7,4.4-0.7c1.7,0,3.4,0.3,5,0.8s2.8,1.8,3.8,3.7l7,14.2c0.7,1.5,1.3,2.8,1.9,4.1c0.6,1.3,1.2,2.8,1.8,4.5l0.4-0.1
		c-0.2-2.5-0.3-5.1-0.4-7.6c-0.1-2.5-0.1-5.1-0.1-7.6V355c0.5-0.1,1.3-0.3,2.4-0.4c1.1-0.1,2.1-0.2,3.1-0.2c2.1,0,3.6,0.4,4.7,1.1
		c1.1,0.7,1.6,2.2,1.6,4.5L187.3,396.1L187.3,396.1z M241.5,401.1c0,2.7-0.7,4.6-2.1,5.8c-1.4,1.2-3.2,1.8-5.5,1.8
		c-2.2,0-4.4-0.6-6.7-1.8c-2.3-1.2-4.6-2.9-7-5.2l-3.1-2.9h-0.6c-3.2,0-6.1-0.5-8.9-1.5c-2.7-1-5.1-2.5-7-4.4
		c-2-1.9-3.5-4.3-4.6-7.1s-1.7-6-1.7-9.6c0-3.7,0.6-6.9,1.7-9.7c1.2-2.8,2.7-5.2,4.7-7.1s4.3-3.3,7-4.3s5.6-1.5,8.8-1.5
		c3.1,0,6.1,0.5,8.8,1.5s5.1,2.4,7.1,4.3s3.6,4.3,4.8,7.1c1.1,2.8,1.7,6.1,1.7,9.7c0,4.6-0.8,8.5-2.5,11.7s-4,5.7-6.9,7.6
		c0.7,0.3,1.5,0.7,2.5,1.1s2,0.8,3,1.1c1,0.4,2.1,0.7,3.3,1.1c1.1,0.4,2.2,0.7,3.2,1c0.1,0.3,0.1,0.5,0.1,0.7
		C241.5,400.7,241.5,400.9,241.5,401.1z M283.9,381.9c0,2.5-0.4,4.8-1.3,6.9s-2.1,3.9-3.8,5.3c-1.6,1.5-3.6,2.6-6,3.4
		c-2.3,0.8-5,1.2-7.9,1.2c-3,0-5.6-0.4-8-1.2c-2.3-0.8-4.3-1.9-6-3.4c-1.6-1.5-2.9-3.3-3.8-5.3c-0.9-2.1-1.3-4.4-1.3-6.9V355
		c0.5-0.1,1.3-0.2,2.5-0.4c1.1-0.2,2.2-0.2,3.2-0.2c1.1,0,2,0.1,2.9,0.2c0.8,0.2,1.5,0.5,2.1,0.9c0.6,0.4,1,1,1.3,1.8
		c0.3,0.7,0.4,1.7,0.4,3v21.5c0,2.3,0.6,4,1.9,5.3c1.2,1.3,2.8,1.9,4.8,1.9s3.6-0.6,4.9-1.9c1.2-1.3,1.8-3,1.8-5.3V355
		c0.5-0.1,1.3-0.2,2.5-0.4c1.1-0.2,2.2-0.2,3.2-0.2c1.1,0,2,0.1,2.8,0.2c0.8,0.2,1.5,0.5,2.1,0.9s1,1,1.3,1.8c0.3,0.7,0.4,1.7,0.4,3
		L283.9,381.9L283.9,381.9z M305.1,397.3c-0.5,0.1-1.3,0.3-2.4,0.4s-2.2,0.2-3.3,0.2c-1.1,0-2-0.1-2.9-0.2c-0.8-0.2-1.5-0.5-2.1-0.9
		s-1-1-1.3-1.8c-0.3-0.7-0.4-1.7-0.4-3v-37c0.5-0.1,1.3-0.2,2.5-0.4c1.1-0.2,2.2-0.2,3.2-0.2c1.1,0,2,0.1,2.9,0.2
		c0.8,0.2,1.5,0.5,2.1,0.9s1,1,1.3,1.8c0.3,0.7,0.4,1.7,0.4,3L305.1,397.3L305.1,397.3z M347.9,396.9c-1.2,0.9-2.6,1.3-4.2,1.3
		c-1,0-1.9-0.1-2.7-0.4c-0.7-0.2-1.4-0.6-2-1s-1.1-0.9-1.5-1.6c-0.5-0.6-0.9-1.3-1.3-2l-5.9-9.5h-3.7v13.5c-0.5,0.1-1.3,0.3-2.4,0.4
		s-2.2,0.2-3.3,0.2c-1.1,0-2-0.1-2.8-0.2c-0.8-0.2-1.5-0.5-2-0.9s-1-1-1.2-1.8c-0.3-0.7-0.4-1.7-0.4-3V359c0-1,0.3-1.7,0.8-2.3
		c0.5-0.5,1.3-1,2.2-1.3c1.6-0.6,3.4-1,5.6-1.2c2.1-0.3,4.4-0.4,6.8-0.4c6.5,0,11.4,1.4,14.6,4.1c3.3,2.7,4.9,6.4,4.9,11
		c0,2.9-0.8,5.4-2.3,7.5s-3.3,3.7-5.4,4.8c1.7,2.3,3.4,4.5,5,6.5s2.9,3.8,3.9,5.5C350,394.8,349.1,396,347.9,396.9z M389.6,362
		c-0.2,0.8-0.8,2-1.6,3.6c-0.9,1.6-2.1,3.8-3.7,6.6c-1.6,2.8-3.8,6.4-6.6,10.8v14.3c-0.5,0.1-1.3,0.3-2.4,0.4s-2.1,0.2-3.2,0.2
		c-2.2,0-3.8-0.4-4.9-1.1s-1.6-2.3-1.6-4.6v-9.5c-1.2-1.7-2.4-3.7-3.8-5.8c-1.4-2.1-2.7-4.3-4-6.5s-2.5-4.4-3.7-6.5s-2-4.1-2.7-5.9
		c0.6-0.8,1.4-1.6,2.5-2.3c1.1-0.7,2.4-1.1,3.9-1.1c1.8,0,3.3,0.4,4.5,1.1c1.1,0.8,2.2,2.2,3.3,4.2l5.8,11.8h0.4
		c0.7-1.5,1.2-2.8,1.7-4s1-2.4,1.4-3.6c0.5-1.2,1-2.4,1.5-3.7c0.5-1.3,1.1-2.8,1.8-4.5c0.8-0.4,1.8-0.7,2.8-1c1-0.2,2-0.4,3-0.4
		c1.6,0,3,0.4,4.2,1.3s1.7,2.2,1.7,3.9C389.9,360.5,389.8,361.2,389.6,362z"/>
	<path fill="#9C1C20" d="M329.5,363.6c-0.7,0-1.3,0-1.7,0.1c-0.4,0-0.9,0.1-1.4,0.2v10.6h4.5c1.8,0,3.2-0.5,4.2-1.4s1.5-2.3,1.5-4
		s-0.6-3.1-1.7-4C333.8,364.1,332,363.6,329.5,363.6z"/>
	<path fill="#9C1C20" d="M216.6,363.6c-2.9,0-5.2,1-7,3.1s-2.6,5.3-2.6,9.5s0.9,7.5,2.6,9.6c1.7,2.1,4.1,3.2,7,3.2
		c3,0,5.3-1.1,7-3.2s2.6-5.3,2.6-9.6c0-4.2-0.9-7.4-2.6-9.5S219.6,363.6,216.6,363.6z"/>
	<path fill="#9C1C20" d="M425.6,39.3c-16.2,0-32.4,0-48.6,0c-16.6,0-33.3-0.1-49.9,0c-17.4,0.1-29.1,11.9-29.2,29.6
		c-0.1,20.3-0.1,40.6,0,61c0.1,12.6,5.8,21.6,17.1,27.1c1.3,0.7,2.7,2.8,2.8,4.3c0.3,7.1,0.2,14.2,0.1,21.2c0,4.1,0.5,7.8,4.7,9.7
		c4.3,1.9,7.5-0.3,10.4-3.3c8.7-9,17.4-18,26.4-26.7c1.7-1.7,4.6-2.9,7-2.9c19.8-0.2,39.6-0.1,59.5-0.1c18.6,0,30-11.5,30-30.4
		c0.1-19.6,0-39.1,0-58.7C455.9,50.8,444.6,39.3,425.6,39.3z M375,133c-3.8,0-7-3.2-6.9-7.1c0-3.9,3.2-6.9,7-6.9s6.9,3.2,6.9,7
		S378.8,133,375,133z M393.6,88.3c-1.9,3.5-4.5,6.3-7.6,8.7c-0.8,0.7-1.6,1.3-2.4,2c-2.2,2-3.3,4.5-3.4,7.4c0,0.8,0,1.5,0,2.3
		c0,2.1-0.9,3.2-2.9,3.7c-1,0.2-2.1,0.3-3.1,0.3c-3-0.2-4.1-1.4-4.3-4.4c0-0.7,0-1.4,0-2c-0.1-5.9,2.2-10.6,6.9-14.2
		c1.6-1.2,3.1-2.5,4.5-3.8c1.6-1.5,2.6-3.4,2.7-5.7c0-2.2-1-3.9-2.9-5c-4.6-2.6-10.6-1.3-13.6,3c-2,2.9-3.9,3.5-6.6,2.1
		c-2.4-1.2-3.4-3.7-2.5-6.7c1.1-3.6,3.6-6.1,6.8-7.6c7.5-3.5,15.1-3.4,22.4,0.3C395.4,72.5,397.7,80.6,393.6,88.3z"/>
	<path fill="#FFFFFF" d="M387.8,68.5c-7.3-3.8-14.9-3.9-22.4-0.3c-3.3,1.6-5.7,4-6.8,7.6c-0.9,3,0,5.5,2.5,6.7
		c2.7,1.4,4.6,0.7,6.6-2.1c3-4.3,9-5.6,13.6-3c1.9,1.1,2.9,2.8,2.9,5c0,2.3-1,4.2-2.7,5.7c-1.4,1.4-3,2.6-4.5,3.8
		c-4.7,3.6-7,8.3-6.9,14.2c0,0.7,0,1.4,0,2c0.2,3,1.3,4.2,4.3,4.4c1,0.1,2.1,0,3.1-0.3c2-0.4,2.9-1.6,2.9-3.7c0-0.8,0-1.5,0-2.3
		c0.1-2.9,1.2-5.4,3.4-7.4c0.8-0.7,1.6-1.3,2.4-2c3-2.5,5.7-5.2,7.6-8.7C397.7,80.6,395.4,72.5,387.8,68.5z"/>
	<path fill="#FFFFFF" d="M375.1,119c-3.8,0-7,3.1-7,6.9c0,3.9,3.1,7.2,6.9,7.1c3.8,0,6.9-3.2,7-7C382,122.2,378.9,119,375.1,119z"/>
	<path fill="#9C1C20" d="M309.2,248.8c1.2-1.2,2.3-2.3,3.5-3.5c0-1.9,0-3.8,0-5.7c-0.6-3.2-1-6.5-2-9.6c-6-19.8-19.3-32.1-39.3-37.3
		c-10.7-2.7-21.5-5.4-32.3-8c-1.5-0.4-2.3-1-2.7-2.6c-0.6-2.9-1.5-5.6-2-8.5c-0.2-0.9,0.1-2.2,0.7-2.9c8.8-9.5,14.3-20.5,16.6-33.2
		c0.1-0.7,0.9-1.6,1.6-1.9c5.2-2.4,8.1-6.3,8.8-11.9c0.7-5.4,1.4-10.9,2.1-16.3c0.9-7-1-12.7-7.7-16.2c-0.5-0.3-1-1.2-1-1.9
		c0.2-5.1,0.4-10.2,0.8-15.3c0.1-0.9,0.9-1.9,1.6-2.6c3.4-3.3,6.1-7,7.1-11.8c1.1-5.3-0.2-10.3-2.5-15
		c-6.2-12.5-16.8-18.3-30.2-19.9c-0.8-0.1-1.6-0.3-2.3-0.5c-4.1,0-8.2,0-12.3,0c-3.4,0.6-6.9,1.1-10.3,1.8c-5.4,1.1-10.5,3-15.2,6
		c-2.1,1.3-4.2,1.8-6.6,1.9c-6.4,0.2-12.8,1.2-19,3.1c-13.5,4-21.2,13.7-22.3,27.7c-0.6,8.2,0.4,16.2,1.2,24.2
		c0,0.4,0.1,0.9,0.1,1.5c-4.4,1.6-8,4.5-8.9,9.1c-0.7,3.7-0.3,7.7-0.1,11.5c0.3,4.1,1,8.3,1.5,12.4c0.8,6.3,4,10.6,10,12.5
		c1.5,0.5,1.5,1.4,1.7,2.4c1.9,10.5,6.3,19.8,12.8,28.2c0.2,0.2,0.3,0.5,0.5,0.7c3.4,2.5,3.5,5.7,2.1,9.4c-0.9,2.4-0.8,5.7-2.4,7.3
		c-1.5,1.6-4.7,1.5-7.2,2.2c-10.3,2.6-20.7,5-30.9,7.9c-19.7,5.6-34.3,23.3-36.7,43.7c-0.1,0.6-0.3,1.3-0.4,1.9c0,1.9,0,3.8,0,5.7
		c1.2,1.2,2.3,2.3,3.5,3.5C164.2,248.8,236.7,248.8,309.2,248.8z"/>
</g>
</svg>
