<?xml version="1.0" encoding="utf-8"?>
<!-- Generator: Adobe Illustrator 18.0.0, SVG Export Plug-In . SVG Version: 6.00 Build 0)  -->
<!DOCTYPE svg PUBLIC "-//W3C//DTD SVG 1.1//EN" "http://www.w3.org/Graphics/SVG/1.1/DTD/svg11.dtd">
<svg version="1.1" id="Layer_1" xmlns="http://www.w3.org/2000/svg" xmlns:xlink="http://www.w3.org/1999/xlink" x="0px" y="0px"
	 viewBox="22 81 456 338" enable-background="new 22 81 456 338" xml:space="preserve">
<g>
	<path fill="#9D1C20" d="M337.8,390.3c0-46.3,0-92.3,0-138.3c9.5,0,19.3,0,29,0c0,46,0,92,0,138.3
		C357,390.3,347.8,390.3,337.8,390.3z"/>
	<path fill="#9D1C20" d="M133.8,251.8c9.5,0,18.8,0,28.3,0c0,46.3,0,92,0,138.5c-9.5,0-18.8,0-28.2,0
		C133.8,344.3,133.8,298.3,133.8,251.8z"/>
	<path fill="#9D1C20" d="M377.3,284.3c30.8,0,60.5,0,91.3,0c0,35.3,0,70.5,0,106c-30.3,0-60.3,0-91.3,0
		C377.3,355,377.3,319.8,377.3,284.3z"/>
	<path fill="#9D1C20" d="M475,399c0,5.5,0,10.8,0,16.3c-45.8,0-91.3,0-137.3,0c0-5.3,0-10.5,0-16.3C383.3,399,428.8,399,475,399z"/>
	<path fill="#9D1C20" d="M122.8,284.3c-30.8,0-60.5,0-91.3,0c0,35.3,0,70.5,0,106c30.3,0,60.2,0,91.3,0
		C122.8,355,122.8,319.8,122.8,284.3z"/>
	<path fill="#9D1C20" d="M25,399c0,5.5,0,10.8,0,16.3c45.8,0,91.3,0,137.3,0c0-5.3,0-10.5,0-16.3C116.8,399,71.3,399,25,399z"/>
	<path fill="#9D1C20" d="M177.3,227c0,5.3,0,10.5,0,16c-19.3,0-38.8,0-58.2,0c0-5.3,0-10.5,0-16C138.3,227,157.8,227,177.3,227z"/>
	<path fill="#9D1C20" d="M377.5,226.8c0,5.5,0,10.8,0,16.3c-19.5,0-38.8,0-58.3,0c0-5.3,0-10.8,0-16.3
		C338.5,226.8,357.8,226.8,377.5,226.8z"/>
	<g>
		<path fill="#9D1C20" d="M337.5,229c8.3,0,17.5,0,27.3,0c0-1.5,0.3-2.5,0-3.8c-4.5-26.8-20.8-49.5-42.5-64h1.7v-0.5h-0.5V147h-9
			v-10.2H305c0,0-7.5-13.8-39.8-19c0,0-1.3-3.3-9.5-3.3v-3.8c0,0,7.3-1.5,7.3-8.5c0,0,0.5-6.3-10.5-6.3l-1.5-1.3v-4h2.3
			c0,0,0.5-4.3-5.8-5.8l0,0l0,0l0,0l0,0c-6.3,1.5-5.8,5.8-5.8,5.8h2.3v4l-1.5,1.3c-11,0-10.5,6.3-10.5,6.3c0,7,7.3,8.5,7.3,8.5v3.8
			c-8.3,0-9.5,3.3-9.5,3.3c-32.3,5.3-39.8,19-39.8,19h-9.5V147h-9v13.8H171v0.5h5.8c-14.3,9.5-25.8,23.3-34.5,41
			c-4,8.3-6.8,17.3-7.8,26.8c7.3,0,14.3,0,21.3,0c7.8,0,7.5,0,10-7c0.5-1.3,0.8-2.3,1.3-3.5c10.5-25,29-40.5,56-43.5
			c16.5-1.8,33.3-1.5,49.7-0.8c21.3,1,38.8,10.5,51.3,28C329.3,210.3,332.8,219.8,337.5,229z"/>
	</g>
</g>
</svg>
