<?xml version="1.0" encoding="utf-8"?>
<!-- Generator: Adobe Illustrator 18.0.0, SVG Export Plug-In . SVG Version: 6.00 Build 0)  -->
<!DOCTYPE svg PUBLIC "-//W3C//DTD SVG 1.1//EN" "http://www.w3.org/Graphics/SVG/1.1/DTD/svg11.dtd">
<svg version="1.1" id="Layer_1" xmlns="http://www.w3.org/2000/svg" xmlns:xlink="http://www.w3.org/1999/xlink" x="0px" y="0px"
	 viewBox="48 39 404 422" enable-background="new 48 39 404 422" xml:space="preserve">
<g>
	<path fill="#9D1C20" d="M211.3,397.5c-7.8-9-17.5-14-29.3-15.3c7.8-1.5,14.3-5,19.3-11.3c4.8-6.3,6.8-13.5,5.8-21.5
		c-2-13.5-13-24-26-24.7c-13.8-1-26.5,7.8-30,20.8c-2.3,8.5-1.3,16.5,3.8,23.8c4.8,7.2,11.8,11.3,20.3,13c-1,0.3-2,0.3-3,0.5
		c-22,4-36.5,21.3-36.8,43.5c0,8,0.3,16,0,24c0,4.3,1.3,7.3,5.3,8.8c23.3,0,46.5,0,69.8,0c1.7,0,3.3,0,5,0c0.5,0,1.3,0,1.7,0
		c3-1.5,5.3-3.5,5.3-7.2c0-9.3,0-18.3,0-27.5C221.5,414,217.8,405.3,211.3,397.5z"/>
	<path fill="#9D1C20" d="M269.5,386.3c-4.5-2-9.3-3-13.5-4.3c7.3-1.3,14-5,18.8-11.5c5-6.8,6.5-14,5.3-22.3
		c-2.3-13-14-23.3-27.3-23.5c-14.3-0.3-26.5,9-29.3,22.5c-1.5,6.7-0.8,13.5,2.8,19.7c4.8,8.8,12.3,13.8,22,15.5
		c-8.8,1-16.7,4-23.5,9.5c0.3,0.5,0.5,0.8,0.5,1c7.3,10.3,10.5,21.8,10.5,34.3c0,7.2,0,14.7,0,22c0,3.3-0.8,6.5-1,10
		c18.5,0,37,0,55.5,0c1.8,0,3.3,0,5,0c0-1.8,0-3.3,0-5c0-11,0-21.8,0-32.8c-0.3-0.5-0.3-1-0.5-1.5C292,404.3,283.5,393,269.5,386.3z
		"/>
	<path fill="#9D1C20" d="M133.8,349.5c-1.8-12.8-12.8-23.8-26-24.7c-13.5-1.3-26.3,7.2-30.3,20.3c-2.5,8.5-1.5,16.5,3.3,24
		c4.8,7.5,11.8,11.5,20.5,13.3c-19,2.3-34,15-38.5,33.5c-0.5,1.7-0.7,3.8-1.3,5.5c0,11,0,21.8,0,32.8c0,1.8,0,3.3,0,5
		c1.8,0,3.3,0,5,0c18.5,0,37,0,55.5,0c-0.2-2.5-1-5.3-1-7.8c-0.2-8.3-0.2-16.7,0-25c0-4.2,0.5-8.8,1.3-12.8c1.5-7.8,5-15,10-22
		c-4-2-7.5-4.5-11.5-6c-4-1.5-8-2.2-11.8-3.3C125.8,379.8,135.5,364,133.8,349.5z"/>
	<path fill="#9D1C20" d="M141.8,332c6-9.5,14-15.8,24.5-19.3c-6-8.8-13.8-13.5-24.3-13.5s-18.8,4.8-24.8,13.5
		C127.8,316,135.8,322.5,141.8,332z"/>
	<path fill="#9D1C20" d="M190.3,312.8c10.8,3.5,18.8,9.8,24.5,19.3c5.8-9.5,14-15.8,24.5-19.3c-6-8.8-13.8-13.5-24-13.5
		C204.5,299,196.5,303.8,190.3,312.8z"/>
	<path fill="#9D1C20" d="M359.3,397.5c-7.8-9-17.5-14-29.3-15.3c7.8-1.5,14.3-5,19.3-11.3c4.7-6.3,6.8-13.5,5.8-21.5
		c-2-13.5-13-24-26-24.7c-13.8-1-26.5,7.8-30,20.8c-0.5,1.8-0.8,3.5-1,5.3c-0.3,2.5-0.3,4.8,0,7c0.5,4,2,7.8,4.5,11.5
		c4.8,7.2,11.7,11.3,20.2,13c-1,0.3-2,0.3-3,0.5c-9.3,1.8-17.3,6-23.5,11.8c9.2,7,14.8,16.8,16.7,29.3c0,0.5,0.3,1,0.5,1.5
		c0,11.3,0,22.5,0,33.8c17,0,34.3,0,51.3,0c3-1.5,5.3-3.5,5.3-7.2c0-9.3,0-18.3,0-27.5C369.5,414,365.8,405.3,359.3,397.5z"/>
	<path fill="#9D1C20" d="M442.5,419.8c-2.5-15.5-10.8-26.8-25-33.5c-4.5-2-9.3-3-13.5-4.3c7.3-1.3,14-5,18.8-11.5
		c5-6.8,6.5-14,5.3-22.3c-2.2-13-14-23.3-27.2-23.5c-14.3-0.3-26.5,9-29.3,22.5c-1.5,6.7-0.8,13.5,2.8,19.7
		c4.8,8.8,12.3,13.8,22,15.5c-8.8,1-16.7,4-23.5,9.5c0.3,0.5,0.5,0.8,0.5,1c7.2,10.3,10.5,21.8,10.5,34.3c0,7.2,0,14.7,0,22
		c0,3.3-0.8,6.5-1,10c18.5,0,37,0,55.5,0c1.7,0,3.3,0,5,0c0-1.8,0-3.3,0-5c0-11,0-21.8,0-32.8C442.8,420.8,442.5,420.3,442.5,419.8z
		"/>
	<path fill="#9D1C20" d="M265.3,312.8c10.5,3.5,18.5,9.8,24.5,19.3c6-9.5,14-15.8,24.5-19.3c-6-8.8-13.8-13.5-24.2-13.5
		C279.3,299,271.3,303.8,265.3,312.8z"/>
	<path fill="#9D1C20" d="M338.3,312.8c10.8,3.5,18.8,9.8,24.5,19.3c5.8-9.5,14-15.8,24.5-19.3c-6-8.8-13.8-13.5-24-13.5
		C352.8,299,344.5,303.8,338.3,312.8z"/>
	<path fill="#9D1C20" d="M50,41v227.5h400V41C450,41,50,41,50,41z M431.8,250.8H68.3v-192h363.5V250.8z"/>
	<g>
		<path fill="#9D1C20" d="M79.5,206.3c0-0.5,0-1.3,0-1.8c1.3-2.7,2.7-5.5,4-8c14.5-27,35.3-48.3,61-64.5c0.8-0.5,1.5-1,2.5-1.5
			c-1.8-1-3.5-1.8-5.2-2.5c-1.8-0.7-2.3-2-1.8-3.5c0.5-1.5,2-1.8,3.8-1c2.5,1.3,4.8,2.5,7,3.5c0.5,0.3,1.5,0.3,2,0
			c2.5-1,4.8-2.5,7.3-3.5c1.5-0.8,3-0.3,3.5,1s0,2.8-1.5,3.5c-1.7,0.8-3.5,1.5-5.2,2.5c0.5,0.3,0.7,0.5,1.3,0.8
			c4,2.8,8.3,5.3,12,8.3c19.8,14.5,36,32,48.3,53.5c2.3,3.8,4,7.7,6.3,11.7c0,0.5,0,1,0,1.5c-0.5,1-1.3,1.8-2.7,1.8
			c-1.3,0-1.8-1-2.3-2c-2.7-5.3-5.8-10.8-8.8-16c-0.2-0.3-0.5-0.5-1-1.3c0,22,0,43.5,0,65.2c-12.3,0-24.2,0-36.3,0
			c0-0.8,0-1.3,0-1.7c0-7.5,0-15,0-22.5c-0.3-13.8-12.8-24-26.3-21.3c-10,2-17.3,10.8-17.5,21.3c0,7.5,0,15,0,22.8c0,0.5,0,1,0,1.5
			c-12.3,0-24.3,0-36.3,0c0-21.7,0-43.3,0-65.2c-0.5,0.8-0.7,1-1,1.5c-2.5,4.8-5.3,9.8-8,15C83,208,81.5,208.5,79.5,206.3z
			 M108.5,199c0,0.3,0,0.3,0,0.5c0,2,0.8,3.3,2.5,3.3c1.5,0,2.3-1,2.5-3c0-0.3,0-0.3,0-0.5c0.3-5.5,2-10.5,6.3-14
			c1-0.8,1-2.3,0.3-3.3c-0.8-1-2-1.3-3.3-0.5c-0.8,0.5-1.5,1.3-2.3,2C110.5,188,108.8,193.3,108.5,199z M195.8,199
			c-0.2-1.3-0.2-2.8-0.5-4.3c-1-5.3-3.3-9.8-7.5-13.3c-1.3-1-2.8-1-3.5,0.3c-0.8,1-0.8,2.5,0.5,3.5c3.3,2.8,5,6.3,5.8,10.5
			c0.2,1.5,0.2,3.3,0.5,5c0.3,1.3,1.3,2,2.3,2c1.3,0,2-0.8,2.3-2C195.5,200.3,195.5,199.8,195.8,199z M96.5,198.5c0,0.8,0,1.3,0,1.5
			c0,1.8,1,2.8,2.3,2.8c1.5,0,2.5-1,2.5-2.5c0.3-6,1.8-11.3,6.5-15c1-0.8,1-2,0.2-3c-0.8-1-1.8-1.3-2.7-1c-0.5,0.3-1,0.5-1.3,0.8
			C98.8,186.5,96.8,192.5,96.5,198.5z M207.8,199L207.8,199c-0.3-2.5-0.5-4.8-1.3-7c-1.3-4-3.5-7.5-6.8-10.2c-1.3-1-2.8-0.8-3.5,0.2
			c-0.8,1-0.8,2.5,0.5,3.5c3.3,2.7,5,6.3,5.8,10.2c0.3,1.5,0.3,3.3,0.5,4.8c0.2,1.5,1.3,2.5,2.5,2.3c1.3,0,2.3-1,2.3-2.5
			C207.8,199.8,207.8,199.5,207.8,199z M181,199C181,199,181.3,199,181,199c-0.3-2.8-0.8-5.8-1.5-8.5c-1-2.8-2.3-5.5-3.5-8.3
			c-0.5-1-1.5-1.5-2.5-1.3s-1.7,1-2,2c0,0.8,0.3,1.5,0.5,2c2,3.8,3.5,7.8,4,11.8c0.3,1.3,0.3,2.5,0.3,3.8c0.2,1.5,1.3,2.3,2.5,2
			c1.3,0,2-1,2.3-2.5C181,200,181,199.5,181,199z M123,198.8c0,0.3,0,0.5,0,0.8c0,2,0.8,3.3,2.3,3.3c1.5,0,2.5-1,2.5-3
			c0-1.5,0.2-3,0.5-4.3c0.5-3.8,2-7.3,3.8-10.5c0.8-1.3,0.5-2.5-0.5-3.3c-1.3-1-2.7-0.5-3.7,1C125,187.5,123.5,193,123,198.8z
			 M154.5,192c0-2.7,0-5.5,0-8c0-1.7-1-3-2.3-3c-1.5,0-2.5,1-2.5,3c0,5.3,0,10.5,0,15.8c0,1.7,1,3,2.3,3c1.5,0,2.5-1,2.5-3
			C154.5,197.3,154.5,194.8,154.5,192z M166.5,198c0-1,0-2.5-0.3-4c-0.8-3.8-1.3-7.3-2-11c-0.3-1.5-1.5-2.3-3-2
			c-1.5,0.5-2,1.7-1.8,3.5c0.5,2.8,1.3,5.3,1.8,8c0.3,2.5,0.5,5,0.5,7.5c0,1.5,1,2.5,2.5,2.5c1.3,0,2.3-1,2.3-2.5
			C166.5,199.8,166.5,199,166.5,198z M137.5,198.3c0,0.5,0,1.3,0,1.8c0,1.8,1,2.8,2.3,2.8c1.5,0,2.5-1,2.5-2.8c0-1.3,0-2.8,0.3-4
			c0.5-3.8,1.3-7.5,2-11.5c0.3-1.7,0-3-1.5-3.5c-1.5-0.5-2.8,0.3-3.3,2C138.5,188.3,137.8,193.3,137.5,198.3z M135.5,169
			c0.3-0.3,1.3-0.5,1.5-1.3c1-2.8,2-5.5,2.8-8.3c0.2-1.3-0.5-2.3-1.8-2.5c-1-0.3-2.5,0.3-2.8,1.3c-1,2.5-1.8,5.3-2.5,7.8
			C132.3,167.5,133.5,169,135.5,169z M168.5,169c2.3,0,3.3-1.5,2.8-3.3c-0.8-2.3-1.5-4.8-2.3-7c-0.5-1.5-1.8-2-3-1.8
			c-1.3,0.5-2,1.8-1.5,3.3c0.8,2.5,1.5,4.8,2.5,7.3C167,168,168,168.5,168.5,169z M149.8,144.8c0,1,0,1.8,0,2.8
			c0.3,1.3,1,2.3,2.3,2.3s2.3-0.8,2.5-2c0-1.8,0-3.5,0-5.2c0-1.3-1.3-2.3-2.5-2.3s-2.3,1-2.3,2.3C149.5,143,149.8,143.8,149.8,144.8
			z M154.5,168.8c0-0.8,0-1.8,0-2.5c-0.3-1.3-1-2.3-2.3-2.3s-2.3,0.8-2.5,2c0,1.8,0,3.5,0,5.3c0,1.3,1.3,2.3,2.5,2.3s2.3-1,2.3-2.3
			C154.5,170.8,154.5,169.8,154.5,168.8z"/>
		<path fill="#9D1C20" d="M168.8,253.5c-11.3,0-22.5,0-33.8,0c0-0.5,0-1,0-1.5c0-7.5,0-14.8,0-22.3c0-9,6.3-16.3,15.3-17.3
			c9.8-1.3,18.5,6.3,18.8,16.3c0.3,8,0,16,0,24C169,253,169,253.3,168.8,253.5z"/>
		<path fill="#9D1C20" d="M313.8,107c1.5,0,3,0,4.5,0c0.3,0,0.8,0.2,1,0.2c5.3,0.8,9.8,3.3,13.3,7.5c1,1,1.8,2.3,2.5,3.3
			c0.5-0.2,0.8-0.2,1-0.5c11.3-5.8,24.2-1.3,29.5,10.2c0.5,1,1,1.3,2,1.5c13,2.5,20.8,15.3,16.8,27.8c-0.3,0.5,0,1.3,0.3,1.8
			c8.8,11.5,5,27-8,33c-1,0.5-1.3,1-1.5,2c-2,12-13.8,20-25.5,17.3c-2.8-0.5-5.3-1.7-7.2-2.5c-2.3,2.3-4.8,4.3-7.3,6.5
			c-1.5,1.5-2.2,3-2.8,5c-1,7-1.5,14,0.3,20.8c1,4,1.8,8.3,2.8,12.5c-8.5,0-17,0-26,0C314,238.8,315,224,313,209
			c-2.5,0-4.8-1.3-7-2.5c-1.5-1-3-1.7-4.5-2.8c-0.8-0.5-1.5-0.5-2.3-0.2c-14.3,6.3-30-4-30.3-19.5c0-1-0.3-1.5-1-2
			c-10-9.2-9.3-25.2,1.8-33.2c0.8-0.5,1-1.3,1-2.3c-0.3-10.5,7.5-19.8,17.8-21.5c2-0.3,4.2-0.3,6.5-0.5c0-0.3,0.2-0.8,0.2-1.3
			c1.5-6.5,5.3-11.5,11.5-14.5C309,108.3,311.5,107.8,313.8,107z M338,204.5c-3-3.3-4.8-7.3-5.5-11.3c-2.3,0.5-3.5,1.5-3.8,3.8
			c0,1-0.5,1.8-0.5,2.8c-0.3,2.5-0.8,5-1,7.5c0,2.3,1.3,3,3.3,2.3C333.5,208.3,335.8,206.5,338,204.5z M312.5,193.5
			c0.8,1.5,1.3,2.8,2,4c1.5,2.3,2.8,4.8,4.5,6.8c1.5,1.7,2.8,1.5,3.8-0.5c1-2.5,1.5-5,2.5-8C320.5,196,316.5,195.5,312.5,193.5z
			 M305.3,199.8c2.5,1.5,5,3.3,8.3,3c-1.5-3-2.8-5.8-4.3-8.8C308.3,196.3,306.8,198,305.3,199.8z"/>
		<path fill="#9D1C20" d="M274.8,244.5c0-1,0.3-2,0.3-2.7c0.5-4.5,1.3-8.8,2.8-13c0.5-1.5,1-2.7,2-4c0.3-0.3,0.5-0.5,0.8-0.8
			c-2.5,6.7-4.2,13.5-2.8,20.8c0-0.8,0.3-1.5,0.3-2c0.3-3.5,0.8-6.7,1.5-10c0.3-1,0.5-1.7,1-2.5c0-0.3,0.3-0.3,0.5-0.5
			c-0.3,1.3-0.3,2.3-0.5,3.5c-0.3,3.3-0.8,6.3-0.3,9.5c0,0.8,0.3,1.5,0.8,2.3c0.5-6.3,0.5-12.7,3.8-18.5c-1,6.3-2,12.5,0,18.8h0.3
			c0.5-5,1-10,1.5-15c0.3,1,0.3,2.3,0.5,3.3c0.3,1.3,0.3,2.3,0.5,3.5s0.3,2.3,0.3,3.5s0,2.3,0,3.5c1-7.5,2-15,1.8-22.5
			c0.5,1.7,0.8,8,1,19c0.3-2.7,0.8-5.2,2-7.7c0.3-0.3,0.3-0.5,0.5-1c-0.3,1.8-0.5,3.3-0.8,4.8c-0.3,2.3-0.5,4.5,0,6.7
			c0.2,0.8,0.5,1.3,0.8,2c0.8-3,1.5-5.8,1.8-8.8c0.2-3,0.5-6,0-9c0.5,0.8,1.3,3.8,1.5,8c0.3,2.8,0.3,5.5,0.3,8
			c0.3-3,0.5-6.3,1.5-9.5c0,3.5,0.3,7,0.3,10.5c0,0,0,0,0.3,0c0-0.8,0.3-1.8,0.3-2.5c0.5-4.3,1-8.5,2.3-12.5c0.3-1,0.8-1.8,1-2.8
			c0-0.3,0.3-0.3,0.5-0.5c-0.3,2-0.5,4.3-0.8,6.3c-0.2,2-0.2,4.3-0.5,6.3c0,2,0,4.3,0.5,6.5c1.8-4,3.8-8,4-12.3
			c1.5,3.5,1.8,7.3,1.8,11c1.3-4.8,1.8-9.5,0-14.2c2,2.5,2.5,5.2,2.8,8.3c0.8-4.8,1.3-9.8,3.8-14.2c-1.3,5.5-2.3,11-2,16.5
			c0,1,0.3,2.3,0.3,3.5c1.5-1.3,2.8-6.8,2.3-9c0.5,0.5,1,1.8,1.3,4.5c0.3,1.5,0,3,0,4.8c1.8-4.5,1.8-9,1-13.5c1.3,3,1.8,6.3,2,9.3
			c0.5-3.8,0.8-7.5,2-11c0,5.5-0.3,11.3,0.8,16.7c1.5-4.5,2.3-9.2,2-14.2c0.3,0.8,0.3,1.3,0.5,2c0,0.8,0.3,1.5,0.3,2
			c0,0.8,0,1.3,0,2c0,0.8,0,1.5,0,2c0,0.8,0,1.5-0.3,2c1-5,1.8-10.3,5-14.5c-1,3-2,6-2.8,9c-0.8,3-1,6.3-0.5,9.5
			c2.8-2,4.5-5.5,3.5-10.5c0,0,0,0,0.3,0c0.3,1,0.5,2,0.8,3c0.3,1,0.3,2.3,0.3,3.3c0,1,0,2.3,0,3.3c1.3-6.3,1.5-12.8,0-19
			c0,0,0,0,0.3,0c0.3,0.5,0.8,1.3,1,1.8c1,2.3,1.3,4.5,1.5,7c0.3,2.3,0.3,4.3,0.5,6.5c0,0.3,0,0.5,0,0.5c0,4.3,0,8.5,0,12.8
			c-0.3,0-0.5,0-0.8,0c-19.2,0-38.5,0-58,0c-0.3,0-0.5,0-0.8,0C274.8,250.5,274.8,247.5,274.8,244.5z"/>
		<path fill="#9D1C20" d="M332.3,244.5c0-1,0.3-2,0.3-2.7c0.5-4.5,1.3-8.8,2.8-13c0.5-1.5,1-2.7,2-4c0.3-0.3,0.5-0.5,0.8-0.8
			c-2.5,6.7-4.3,13.5-2.8,20.8c0-0.8,0.3-1.5,0.3-2c0.3-3.5,0.8-6.7,1.5-10c0.3-1,0.5-1.7,1-2.5c0-0.3,0.3-0.3,0.5-0.5
			c-0.3,1.3-0.3,2.3-0.5,3.5c-0.3,3.3-0.8,6.3-0.3,9.5c0,0.8,0.3,1.5,0.8,2.3c0.5-6.3,0.5-12.7,3.8-18.5c-1,6.3-2,12.5,0,18.8h0.3
			c0.5-5,1-10,1.5-15c0.3,1,0.3,2.3,0.5,3.3c0.3,1.3,0.3,2.3,0.5,3.5c0.3,1.3,0.3,2.3,0.3,3.5s0,2.3,0,3.5c1-7.5,2-15,1.8-22.5
			c0.5,1.7,0.8,8,1,19c0.3-2.7,0.8-5.2,2-7.7c0.3-0.3,0.3-0.5,0.5-1c-0.3,1.8-0.5,3.3-0.8,4.8c-0.3,2.3-0.5,4.5,0,6.7
			c0.3,0.8,0.5,1.3,0.8,2c0.8-3,1.5-5.8,1.8-8.8c0.3-3,0.5-6,0-9c0.5,0.8,1.3,3.8,1.5,8c0.3,2.8,0.3,5.5,0.3,8
			c0.3-3,0.5-6.3,1.5-9.5c0,3.5,0.3,7,0.3,10.5c0,0,0,0,0.3,0c0-0.8,0.3-1.8,0.3-2.5c0.5-4.3,1-8.5,2.2-12.5c0.3-1,0.8-1.8,1-2.8
			c0-0.3,0.3-0.3,0.5-0.5c-0.3,2-0.5,4.3-0.8,6.3c-0.3,2-0.3,4.3-0.5,6.3c0,2,0,4.3,0.5,6.5c1.8-4,3.8-8,4-12.3
			c1.5,3.5,1.7,7.3,1.7,11c1.3-4.8,1.8-9.5,0-14.2c2,2.5,2.5,5.2,2.8,8.3c0.8-4.8,1.3-9.8,3.8-14.2c-1.3,5.5-2.2,11-2,16.5
			c0,1,0.3,2.3,0.3,3.5c1.5-1.3,2.8-6.8,2.3-9c0.5,0.5,1,1.8,1.3,4.5c0.3,1.5,0,3,0,4.8c1.7-4.5,1.7-9,1-13.5c1.3,3,1.8,6.3,2,9.3
			c0.5-3.8,0.8-7.5,2-11c0,5.5-0.3,11.3,0.8,16.7c1.5-4.5,2.2-9.2,2-14.2c0.3,0.8,0.3,1.3,0.5,2c0,0.8,0.3,1.5,0.3,2
			c0,0.8,0,1.3,0,2c0,0.8,0,1.5,0,2c0,0.8,0,1.5-0.3,2c1-5,1.8-10.3,5-14.5c-1,3-2,6-2.8,9c-0.8,3-1,6.3-0.5,9.5
			c2.8-2,4.5-5.5,3.5-10.5c0,0,0,0,0.3,0c0.3,1,0.5,2,0.8,3c0.3,1,0.3,2.3,0.3,3.3c0,1,0,2.3,0,3.3c1.3-6.3,1.5-12.8,0-19
			c0,0,0,0,0.3,0c0.3,0.5,0.8,1.3,1,1.8c1,2.3,1.3,4.5,1.5,7c0.3,2.3,0.3,4.3,0.5,6.5c0,0.3,0,0.5,0,0.5c0,4.3,0,8.5,0,12.8
			c-0.3,0-0.5,0-0.8,0c-19.3,0-38.5,0-58,0c-0.3,0-0.5,0-0.8,0C332.3,250.5,332.3,247.5,332.3,244.5z"/>
		<path fill="#9D1C20" d="M377.8,244.5c0-1,0.3-2,0.3-2.7c0.5-4.5,1.3-8.8,2.8-13c0.5-1.5,1-2.7,2-4c0.3-0.3,0.5-0.5,0.8-0.8
			c-2.5,6.7-4.3,13.5-2.8,20.8c0-0.8,0.3-1.5,0.3-2c0.3-3.5,0.8-6.7,1.5-10c0.3-1,0.5-1.7,1-2.5c0-0.3,0.3-0.3,0.5-0.5
			c-0.3,1.3-0.3,2.3-0.5,3.5c-0.3,3.3-0.8,6.3-0.3,9.5c0,0.8,0.3,1.5,0.8,2.3c0.5-6.3,0.5-12.7,3.8-18.5c-1,6.3-2,12.5,0,18.8h0.3
			c0.5-5,1-10,1.5-15c0.3,1,0.3,2.3,0.5,3.3c0.3,1.3,0.3,2.3,0.5,3.5c0.3,1.3,0.3,2.3,0.3,3.5s0,2.3,0,3.5c1-7.5,2-15,1.7-22.5
			c0.5,1.7,0.8,8,1,19c0.3-2.7,0.8-5.2,2-7.7c0.3-0.3,0.3-0.5,0.5-1c-0.3,1.8-0.5,3.3-0.8,4.8c-0.3,2.3-0.5,4.5,0,6.7
			c0.3,0.8,0.5,1.3,0.8,2c0.8-3,1.5-5.8,1.8-8.8c0.3-3,0.5-6,0-9c0.5,0.8,1.3,3.8,1.5,8c0.3,2.8,0.3,5.5,0.3,8
			c0.3-3,0.5-6.3,1.5-9.5c0,3.5,0.3,7,0.3,10.5c0,0,0,0,0.3,0c0-0.8,0.3-1.8,0.3-2.5c0.5-4.3,1-8.5,2.2-12.5c0.3-1,0.8-1.8,1-2.8
			c0-0.3,0.3-0.3,0.5-0.5c-0.3,2-0.5,4.3-0.8,6.3c-0.3,2-0.3,4.3-0.5,6.3c0,2,0,4.3,0.5,6.5c1.8-4,3.8-8,4-12.3
			c1.5,3.5,1.8,7.3,1.8,11c1.3-4.8,1.7-9.5,0-14.2c2,2.5,2.5,5.2,2.8,8.3c0.8-4.8,1.3-9.8,3.8-14.2c-1.3,5.5-2.3,11-2,16.5
			c0,1,0.3,2.3,0.3,3.5c1.5-1.3,2.8-6.8,2.3-9c0.5,0.5,1,1.8,1.3,4.5c0.3,1.5,0,3,0,4.8c1.8-4.5,1.8-9,1-13.5c1.3,3,1.8,6.3,2,9.3
			c0.5-3.8,0.8-7.5,2-11c0,5.5-0.3,11.3,0.8,16.7c1.5-4.5,2.3-9.2,2-14.2c0.3,0.8,0.3,1.3,0.5,2c0,0.8,0.3,1.5,0.3,2
			c0,0.8,0,1.3,0,2c0,0.8,0,1.5,0,2c0,0.8,0,1.5-0.3,2c1-5,1.8-10.3,5-14.5c-1,3-2,6-2.8,9c-0.8,3-1,6.3-0.5,9.5
			c2.8-2,4.5-5.5,3.5-10.5c0,0,0,0,0.3,0c0.3,1,0.5,2,0.8,3c0.3,1,0.3,2.3,0.3,3.3c0,1,0,2.3,0,3.3c1.3-6.3,1.5-12.8,0-19
			c0,0,0,0,0.3,0c0.3,0.5,0.8,1.3,1,1.8c1,2.3,1.3,4.5,1.5,7c0.3,2.3,0.3,4.3,0.5,6.5c0,0.3,0,0.5,0,0.5c0,4.3,0,8.5,0,12.8
			c-0.3,0-0.5,0-0.8,0c-19.2,0-38.5,0-58,0c-0.3,0-0.5,0-0.8,0C377.8,250.5,377.8,247.5,377.8,244.5z"/>
		<path fill="#9D1C20" d="M219,244.5c0-1,0.3-2,0.3-2.7c0.5-4.5,1.3-8.8,2.7-13c0.5-1.5,1-2.7,2-4c0.3-0.3,0.5-0.5,0.8-0.8
			c-2.5,6.7-4.2,13.5-2.8,20.8c0-0.8,0.3-1.5,0.3-2c0.3-3.5,0.8-6.7,1.5-10c0.3-1,0.5-1.7,1-2.5c0-0.3,0.3-0.3,0.5-0.5
			c-0.3,1.3-0.3,2.3-0.5,3.5c-0.3,3.3-0.8,6.3-0.3,9.5c0,0.8,0.3,1.5,0.8,2.3c0.5-6.3,0.5-12.7,3.8-18.5c-1,6.3-2,12.5,0,18.8h0.3
			c0.5-5,1-10,1.5-15c0.3,1,0.3,2.3,0.5,3.3c0.3,1.3,0.3,2.3,0.5,3.5c0.2,1.3,0.2,2.3,0.2,3.5s0,2.3,0,3.5c1-7.5,2-15,1.8-22.5
			c0.5,1.7,0.8,8,1,19c0.3-2.7,0.8-5.2,2-7.7c0.2-0.3,0.2-0.5,0.5-1c-0.3,1.8-0.5,3.3-0.8,4.8c-0.2,2.3-0.5,4.5,0,6.7
			c0.3,0.8,0.5,1.3,0.8,2c0.8-3,1.5-5.8,1.7-8.8c0.3-3,0.5-6,0-9c0.5,0.8,1.3,3.8,1.5,8c0.3,2.8,0.3,5.5,0.3,8
			c0.3-3,0.5-6.3,1.5-9.5c0,3.5,0.3,7,0.3,10.5c0,0,0,0,0.2,0c0-0.8,0.3-1.8,0.3-2.5c0.5-4.3,1-8.5,2.3-12.5c0.3-1,0.8-1.8,1-2.8
			c0-0.3,0.2-0.3,0.5-0.5c-0.3,2-0.5,4.3-0.8,6.3c-0.2,2-0.2,4.3-0.5,6.3c0,2,0,4.3,0.5,6.5c1.8-4,3.8-8,4-12.3
			c1.5,3.5,1.8,7.3,1.8,11c1.3-4.8,1.7-9.5,0-14.2c2,2.5,2.5,5.2,2.8,8.3c0.8-4.8,1.3-9.8,3.8-14.2c-1.3,5.5-2.3,11-2,16.5
			c0,1,0.2,2.3,0.2,3.5c1.5-1.3,2.8-6.8,2.3-9c0.5,0.5,1,1.8,1.3,4.5c0.2,1.5,0,3,0,4.8c1.7-4.5,1.7-9,1-13.5c1.3,3,1.7,6.3,2,9.3
			c0.5-3.8,0.8-7.5,2-11c0,5.5-0.3,11.3,0.8,16.7c1.5-4.5,2.3-9.2,2-14.2c0.2,0.8,0.2,1.3,0.5,2c0,0.8,0.3,1.5,0.3,2
			c0,0.8,0,1.3,0,2c0,0.8,0,1.5,0,2c0,0.8,0,1.5-0.3,2c1-5,1.8-10.3,5-14.5c-1,3-2,6-2.8,9c-0.8,3-1,6.3-0.5,9.5
			c2.8-2,4.5-5.5,3.5-10.5c0,0,0,0,0.3,0c0.3,1,0.5,2,0.8,3c0.3,1,0.3,2.3,0.3,3.3c0,1,0,2.3,0,3.3c1.3-6.3,1.5-12.8,0-19
			c0,0,0,0,0.3,0c0.3,0.5,0.8,1.3,1,1.8c1,2.3,1.3,4.5,1.5,7c0.3,2.3,0.3,4.3,0.5,6.5c0,0.3,0,0.5,0,0.5c0,4.3,0,8.5,0,12.8
			c-0.2,0-0.5,0-0.8,0c-19.3,0-38.5,0-58,0c-0.3,0-0.5,0-0.8,0C219,250.5,219,247.5,219,244.5z"/>
	</g>
</g>
</svg>
