<?xml version="1.0" encoding="utf-8"?>
<!-- Generator: Adobe Illustrator 18.0.0, SVG Export Plug-In . SVG Version: 6.00 Build 0)  -->
<!DOCTYPE svg PUBLIC "-//W3C//DTD SVG 1.1//EN" "http://www.w3.org/Graphics/SVG/1.1/DTD/svg11.dtd">
<svg version="1.1" id="Layer_1" xmlns="http://www.w3.org/2000/svg" xmlns:xlink="http://www.w3.org/1999/xlink" x="0px" y="0px"
	 viewBox="34 33 432 434" enable-background="new 34 33 432 434" xml:space="preserve">
<path fill="#9D1C20" d="M246.8,463.3c-11.5-5-9-15.3-9.3-25c-4.3,0-8.3,0-12,0c-19.3-0.5-35-13.8-37.5-31.5
	c-3-23.8,13.3-43,37.3-43.5c3.8,0,7.8,0,11.7,0c0-8.5,0-16.5,0-25c-1.5,0-3,0-4.2,0c-13-0.3-25.8,0.3-38.8-0.8
	c-15-1.3-28.3-14.3-31-29.3c-3-16,4.2-32,17.5-39.8c6.5-3.8,13.5-5.5,21-5.5c11.5,0,22.8,0,34.2,0c0.3,0,0.5,0,1.3-0.3
	c0-8,0-16.2,0-24.5c-12,0-24,0-36.5,0c2.5-5.2,5.5-9.8,7-14.8c2.3-7.3,3.8-14.8,4.5-22.3c0.8-7-5-12.8-11.7-13
	c-6.7-0.2-12.8,4.8-13,12c-0.5,15.8-8.8,27-20,37c-0.8,0.8-2,1-3,1c-8.3,0-16.5,0-25.8,0c1-1.3,1.5-1.8,2.3-2.5
	c17.5-14.8,29.8-33.5,38.8-54.5c3-7,0.3-14-6-17c-6.3-2.8-13.5-0.3-16.8,6.5c-6,13.3-13,25.8-22.8,36.5
	c-15.2,16.7-33.8,27.7-56.3,30.2c-9.5,1.3-19.5,0.5-29,0.3c-6-0.3-10.3-4.5-11.3-10c-1-5.3,1.5-10.5,7-13.5c5-2.8,10.3-4.8,15.3-7.5
	c18.3-10,32.5-24.5,43.5-42.3c7.3-11.8,14-24,22-35.2c12.7-18.3,34.5-20.3,52.2-13.5c16.8,6.3,30.5,17.5,44.5,28
	c5,3.5,9.8,7.5,15,11.5c0.3-1.3,0.3-2,0.3-2.7c0-13.5,0-27,0-40.5c0-2.3-0.5-3.5-2.5-4.5c-15.5-7.3-24-22.2-22-38
	c2.3-17.8,13.8-29.5,31.7-33c0.5,0,0.8-0.3,1-0.5c2.7,0,5.5,0,8.3,0c7.3,1.8,14,4,19.8,8.8c20.8,17.3,16.8,50.8-7.8,62
	c-2.8,1.3-3.8,2.7-3.8,5.7c0.3,13.8,0,27.8,0,42.5c1.8-1.3,3-2.3,4.3-3.3c14.8-11.3,29.5-22.3,46-30.5c9.8-5,19.8-9,31-8.8
	c15,0,25.5,8.3,33.5,20c6.3,9.3,11.8,19,17.5,28.7C408,184.5,427,202,452,212.5c10.3,4.3,13,14.3,6,21c-2,1.8-5,3.5-7.8,3.5
	c-13.5,0.3-27.2,1.5-40.5-2.3c-21.3-6-38-18-50.8-35.8c-6.5-9-11.3-19-16.5-28.8c-3.3-6-8.5-9-14.3-7.8c-8,1.8-12.3,9.5-9,17.5
	c8.7,21,21,39.8,38.5,54.5c0.8,0.5,1.5,1.3,2.8,2.8c-7.5,0-14.3-0.3-21,0c-5,0.3-8.5-1.3-12-4.8c-9.3-9.3-15.5-19.8-16-33.3
	c-0.3-7.3-6.3-12.3-13-12s-12,5.8-12,13c0,11,3.3,21,8.3,30.5c1,2,2.3,3.8,3.8,6.3c-12.5,0-24.5,0-36.8,0c0,8.5,0,16.5,0,25.3
	c8.3,0,16.3,0,24.5,0c3,0,6-0.3,9.2,0c7.8,0.5,13.3-2.3,15.8-10.3c6.7,5.3,13.5,10.5,20.5,16c-7.2,12-17.8,18.8-31.8,19.3
	c-11,0.3-22.3,0-33.3,0c-1.5,0-3,0-4.8,0c0,8.5,0,16.5,0,24.8c6,0.3,12,0.3,18,1c15,1.8,28.3,14.5,31,29.3c3,16-4.3,32-17.5,39.7
	c-6.3,3.8-13,5.3-20.3,5.5c-3.5,0-7.3,0-11.5,0c0,4.2,0,8.5,0,12.5c0,4,0,8,0,12.5c4,0,8,0,11.8,0c7.8,0.3,13.3,5.5,13.3,12.5
	c0,7-5.5,12.2-13,12.2c-3.8,0-7.8,0-12,0c-0.5,9.5,2.5,20-9.3,25C251,463.3,248.8,463.3,246.8,463.3z M237.3,313.3
	c0-8.3,0-16.5,0-25c-1.3,0-2.5,0-3.8,0c-11.5,0-23-0.3-34.5,0.3c-6.5,0.3-11.5,6.3-11.3,12.5c0.3,6.8,5.3,12,12.3,12.3
	C212,313.5,224.5,313.3,237.3,313.3z M262.8,338.5c0,8.5,0,16.5,0,25c4.5,0,8.8,0.3,13,0c6.5-0.5,11.5-6,11.5-12.3
	c0-6.5-5-12-11.5-12.5C271.8,338.3,267.3,338.5,262.8,338.5z M237.3,388.5c-4.8,0-9-0.3-13.3,0c-6.5,0.5-11.3,5.8-11.5,12
	c-0.3,6,4.3,12,10.3,12.5c4.8,0.5,9.5,0,14.5,0C237.3,404.8,237.3,396.8,237.3,388.5z"/>
</svg>
