<?xml version="1.0" encoding="utf-8"?>
<!-- Generator: Adobe Illustrator 18.0.0, SVG Export Plug-In . SVG Version: 6.00 Build 0)  -->
<!DOCTYPE svg PUBLIC "-//W3C//DTD SVG 1.1//EN" "http://www.w3.org/Graphics/SVG/1.1/DTD/svg11.dtd">
<svg version="1.1" id="Layer_1" xmlns="http://www.w3.org/2000/svg" xmlns:xlink="http://www.w3.org/1999/xlink" x="0px" y="0px"
	 viewBox="22 83 456 341" enable-background="new 22 83 456 341" xml:space="preserve">
<path fill="none" d="M466.5,200.3l-10,1.7c0,0,5-1.7,5.3-1.7C461.8,200,466.5,200.3,466.5,200.3z"/>
<g>
	<path fill="#9D1C20" d="M274.3,219c-0.3,0.3-0.5,0.8-0.5,1c25.3,12.8,53.5,35,61.8,71.8h-10.3c0,0-0.8,5,5.8,5h0.3h3.3L326,401.3
		c0.3,0,0.5,0,0.8,0c12.5,0,25,0,37.5,0l-7.5-104h4c0,0,8,0.5,8-4.8l-10.3-0.3c0,0,7-56.8,80.8-79.5c0,0,0.3-1.5-2-1
		c0,0,17.5-9,38-11.3c0,0-23.8-9-68.3,17l-3.8-0.8c0,0,29.3-25.5,31-36.5c0,0-28.8,2-58,32.8c0,0-16.5-0.3-18.5-0.3
		c0,0,2.8-24.2-25.3-38c0,0-18.8,10.2-9.3,37c0,0-11,0.3-16.8,2c0,0-7.3-7.3-20-14.8c-0.2,0.5-0.8,1-1,1.5l1,0.5l3.8,8.8l-7.3-5.5
		c-0.3,0.5-0.8,1-1,1.8l5.5,4l-6.5-2.3c-0.3,0.3-0.3,0.5-0.5,1l10.3,3l5.8,5l-16.7-6.5c-0.5,1-1,1.7-1.5,2.8c2.5,1.7,5,3.5,7.8,5.5
		l-3.5,1.5c0,0-2.8-1.5-7-3.5c-0.3,0.5-0.5,1-0.8,1.7c14.5,7.5,23.3,15,23.3,15C290.3,227.5,282,222.8,274.3,219z M298.3,218.5
		l1.8,2l-14-4.5l-6-4.5L298.3,218.5z M348.5,248.8l4.5-4.3l-0.3,4.3L350,251L348.5,248.8z M349.8,252.3L349,258l-3.5-3.7l0,0l0,0v-2
		l2-2.5L349.8,252.3z M348.8,268.3l1.8-1l-0.3,2.3l-1.5,0.8L348.8,268.3z M350.5,271.3l-1.5,6.5l-3-2.8
		C345.8,275,350.3,271.3,350.5,271.3z M353.8,255.8l2.3-1.3l-6.3,36.5H348C351.5,274.3,353.8,255.8,353.8,255.8z M353,311.3
		c-0.3-4.8-0.5-9.8-0.8-14.5c0.5,0,0.8,0,1.3,0c0.3,4.8,0.5,9.8,0.8,14.5C353.8,311.3,353.5,311.3,353,311.3z M354.5,314.5
		c0.3,5.8,0.8,11.5,1,17c-0.5,0-1,0-1.5,0c-0.3-5.8-0.5-11.5-0.8-17C353.8,314.5,354,314.5,354.5,314.5z M391.5,229.3h-2l3.5-4.3
		c0,0,9-4,9.5-4.3L396,225L391.5,229.3z M401,223.5l-3.3,3.5c0,0-2.2,0.8-2,0.5C396,227.3,398.5,224.8,401,223.5z M391,225.8
		L375.5,238l-2,0.2l2-3.3L391,225.8z M374.8,233.8l-0.8-2.5h2.3L374.8,233.8z M371.3,223.3l1.5,6.8l-5.3,0.5L371.3,223.3z
		 M367,226.8h-4.5c0,0,2.8-2,5-2.3l0.5,0.5L367,226.8z M373,231.5l1,3.3l-1.5,3l-4.5,0.5l-2-4l1-2L373,231.5z M366.5,238.8l-3.3,0.3
		l1.8-4L366.5,238.8z M377,233l1.3-2h2.5L377,233z M378.5,230l2.8-3.3l17-9c-5,5.5-15.5,11.7-15.5,11.7L378.5,230z M390.5,230.8
		L377,246.3l11.5-15.5H390.5z M381.5,235.3l-7.8,5.5l3-3l10.5-9L381.5,235.3z M370.5,243.3l2.8-4.2h1.3L370.5,243.3z M368.5,243.5
		l-0.8-3.8l3.3-0.3L368.5,243.5z M368,244.5l-3.8,7.5l-2.3-6.5l2.5-5.8l2-0.3L368,244.5z M363.3,254l-3.8,9.5l-2.8-6l4-11.5
		C361,247.8,363.3,254,363.3,254z M340.8,223l1,7l-13-10.8c0,0-1.5-3.8-2-6.5L340.8,223z M325.8,210c0,0-1.5-3.8-1.8-5.8l15.5,10
		l0.8,6.7L325.8,210z M313.3,223.5l4.8,6.8l-4.5-3.5L313.3,223.5z M313.5,233l-5.8-6.3l-0.3-2.5l5,3.3L313.5,233z M319,232l-2.3,5.3
		l-2.3-3.8l-0.8-5.3L319,232z M319.8,233.3l0.3,8.5l-2.3-4L319.8,233.3z M318.8,228c0,0,5.8-0.3,10.3-0.8l1.3,4.5l-9,0.2
		C321,231.8,320,229.3,318.8,228z M332.8,242l-6,0.8l-5.3-9.8h9L332.8,242z M332.5,232.5l6.8,6.3c0,0-5.3,0.5-5.3,0.3
		C334,238.8,332.5,232.5,332.5,232.5z M332.3,231l-3-9.8l12.2,10L332.3,231z M342,233l0.5,7l-8.5-7.5L342,233z M343,242l0.3,8.3
		l-8.5-9.5l6.3-0.5L343,242z M353.8,233.5l-0.5,5l-3.3-1.7L353.8,233.5z M353.5,228.8l-3.8-1.5l1.7-2.3l2.5,1.8L353.5,228.8z
		 M352,232.3l-5.5-2.5l2.5-2.3l4.3,2v1.5L352,232.3z M343.8,230l-0.5-4.3l3.5,1.3L343.8,230z M343.8,261.5l-6-6.3
		c0,0-2.2-9.3-2.2-11.3l8,8.3L343.8,261.5z M343.3,224.5c1.5-1.7,2.8-1.7,2.8-1.7l3.3,1.5l-2,1.7L343.3,224.5z M346.8,222
		c1-0.8,3-0.8,3-0.8l1.7,1.5l-1.3,1L346.8,222z M350.8,220.8c0,0,2-0.5,3.5-0.5l-1.5,1.5L350.8,220.8z M354.5,221.8l-0.5,4l-2-1.5
		L354.5,221.8z M354.5,248.5l4.5-3.3l-2.5,7l-2.5,2L354.5,248.5z M354.8,247.3V245h3L354.8,247.3z M355,243.5v-1.3l6.5-4.2l-2,5.5
		H355z M359,264.5l-3.5,9.8l-1.5-3l2.3-12.3L359,264.5z M355.3,275.5L352,291h-1l3-18.3L355.3,275.5z M351.8,256.5l-1.5,1.3l0.3-6.3
		l1.8-1L351.8,256.5z M351.5,244l-4.7-3.8l2.5-2.5l3.8,2.3l-0.5,3L351.5,244z M348.5,236l-4.5-2l-0.3-2.3l1.7-1.3l5.8,2.7L348.5,236
		z M343.8,272l-3.8-3.8l-1.5-9.8l5.3,5V272z M342,290.8h-1.8c-0.8-26.5-13-46.3-13-46.3l5.8-0.5C341,272.3,342,290.8,342,290.8z
		 M338.8,289c-0.3-8.3-3.8-15.3-3.8-15.3l1-3.8C338.8,274.5,338.8,289,338.8,289z M334.8,272.3l-3.3-8.3l1.5-5.3l3.3,9.8
		L334.8,272.3z M330.5,262l-3.3-8.3v-8.3l5,11.3L330.5,262z M329.5,262l-5.8-4.8l-7-10.5l8.5,6L329.5,262z M321.5,244l-0.5-9.3
		l4.7,8.3v7.7L321.5,244z M321.3,246.8l-8.8-6l-3.8-4.2l10.5,7L321.3,246.8z M305.8,233.8l10,4.3l2.3,3.3L305.8,233.8z M304.5,232
		l-3.8-4l12.5,6.5l1,1.8L304.5,232z M299.8,226c0.3,0,4.5,1.8,4.5,1.8l3.5,3.3l-4.5-2.5L299.8,226z M294.3,221
		c0.3,0,11.5,5.5,11.5,5.5l4.5,4.8l-5.5-3.8L294.3,221z M292.3,219l9.5,3.3l2.5,3L292.3,219z M299.5,224.8H297l-9.5-7.8h0.5
		L299.5,224.8z M294.8,206.5l3,9.5l-6.3-5.3l-3.8-9L294.8,206.5z M303.8,214l2.5,11.3l-6.8-7l-3.3-10.5L303.8,214z M312,222l0.3,3.5
		l-5-2.5l-2-7.8L312,222z M324.3,213.8l3.8,11.8l-10.5,0.8c0,0-4.3-6.5-10.3-11.5C307.5,215,318.5,214,324.3,213.8z M323,196.5
		l15.3,10.3l0.5,5.8l-15.5-10C323.3,202.3,322.8,197.5,323,196.5z M323.5,190.3l13.3,8.5l1,5.8l-14.7-10
		C323,194.8,322.5,193,323.5,190.3z M325.3,185.8l9.8,6l1,5.2l-12.5-7.7C323.8,189.5,323.8,187.5,325.3,185.8z M328.3,180.8l5.8,5.3
		l0.5,4l-8.8-5.3C325.8,184.8,327,181.8,328.3,180.8z M333.3,184l-4.5-4.3c0,0,1.5-2,3-2.8L333.3,184z M338,180l-2.3,4l-2-6.8
		C333.5,177.3,336.8,179,338,180z M344,185.3l-6.7,5.8l-1-5.3l2.8-5C341.3,182.3,344,185.3,344,185.3z M347.8,189.5l-9.5,7.8l-1-5.3
		l7.5-5.8C346.3,187.3,347.8,189.5,347.8,189.5z M351.3,195l-11.5,9.3l-1-6l10-7.5C348.8,190.8,349.8,192,351.3,195z M354,203
		l-12.8,9l-1-6l11.8-9.2C352,196.8,352.8,197,354,203z M355,209.8l-12.5,11.5l-0.8-7.5l12.8-9.3C355.3,206.8,355,209.8,355,209.8z
		 M355.3,212l-0.8,6.3c-5.8,0.5-11.5,4.8-11.5,4.8L355.3,212z M355.8,237l8-3.5l-1.8,3.3l-6.5,3.8L355.8,237z M355.8,232.3l9.3-4
		h1.3L364,232l-8.3,4V232.3z M356.3,228.3l7-0.2l-7,2.7V228.3z M356.8,225.3l9.7-3.3c1.3,0.3,1,1.3,1,1.3l-7.5,3.3l-3.3,0.3
		L356.8,225.3L356.8,225.3z M356.8,223l7.2-2.5c1.3,0.2,1.8,1,1.8,1l-9,2.8L356.8,223L356.8,223z M356.8,221.3l4.5-1.5
		c1,0,2.3,0.3,2.3,0.3l-6.5,2L356.8,221.3z M357,220.8v-1.5c0,0,2-0.3,2.8,0.8L357,220.8z M375,214.3c-2.3,2.5-6.5,9.8-6.5,9.8
		c-1-6.3-11.3-6.3-11.3-6.3v-3.5H375z M377.5,214.3l2,12.5l-2.2,3.3H374l-1.7-8.3L377.5,214.3z M385.5,218.5l-5,6.8l-1.8-12.3
		l6.3-6.8L385.5,218.5z M392.8,210.5l-6,6.3l-0.8-11.3l6.5-6L392.8,210.5z M400,203.5l-6,5.5v-10c0,0,2.8-2.8,5.5-3.8L400,203.5z
		 M408,190.8l-0.5,6.3l-6.5,6v-8.3C401,194.3,405,191.5,408,190.8z M419.3,185.8l-4,5l-6.7,5l1-6.3
		C414,187.5,419.3,185.8,419.3,185.8z M428.8,183l-11.3,6.7l3-4.8L428.8,183z M429,185.3l-7.8,3.5l9.5-6
		C430.5,184.5,429,185.3,429,185.3z M424,191.8l-13.3,4.8l6.8-5.3l11-4.5L424,191.8z M419.8,196.5l-16.5,6.5l6-5.5l14.3-4.5
		L419.8,196.5z M395.8,209.8l5.8-5l17.3-6.7l-3,3.3L395.8,209.8z M409.5,207.3l-20.5,10l5.5-6l19.5-7.8L409.5,207.3z M382.5,225
		l5.3-5.8L407,210C401.8,216.3,382.5,225,382.5,225z M406,218.3l-11,4.8l6.3-6L406,218.3z M410,217.8l-2.5,3l-4.8,2.3
		C402.5,222.8,405.3,219.5,410,217.8z M411.5,217.5c0,0,4.8-2,5-2l-7.8,5L411.5,217.5z M423,210.3l-5.5,4.2l-3.3,0.5l2.2-1.8
		L423,210.3z M434.5,205.8l-7.5,4.8l-6.8,3.3l6.5-5.2L434.5,205.8z M446.8,202l-16.3,7.3l7.8-5.5C438.3,204,444.5,202,446.8,202z
		 M457,200.8l-14,4.8l7.2-4.3C450.3,201,454.5,200.5,457,200.8z M456.5,202c0,0,5-1.7,5.3-1.7c0.3-0.3,4.7,0.3,4.7,0.3L456.5,202z
		 M428.5,212.8h-3.3c0,0,14.3-6,21.8-7.3L428.5,212.8z M426.8,213.8l-13.5,4.8l10.8-5L426.8,213.8z M394.8,232.3l12-9.5l11.5-5
		L394.8,232.3z M389,236l4.8-6.5l3.3-1.3l-1,1.5L389,236z M382.5,242.3l6.3-8.3h0.8L382.5,242.3z M375.8,250.3l4.5-6.5l1,0.5
		L375.8,250.3z M375.3,245.5l-9.2,6.7l6.3-9.2l9.2-6L375.3,245.5z M367.8,257.5l-6.5,5.3c0,0.3,4-8.5,4-8.5l8-6.3L367.8,257.5z
		 M360.8,271l-3.3,2.3l2.8-8.8l5.5-4.3L360.8,271z M354.3,291h-0.8l3.5-15.5l3.8-2.5L354.3,291z M356.8,384.5c0.8,0,1.3,0,1.8,0
		c0.3,5.3,0.5,10.5,1,15.5c-0.8,0-1.3,0-2,0C357.3,395,357,389.8,356.8,384.5z M355.5,358.3c0.5,0,1,0,1.8,0
		c0.5,7.3,0.8,14.3,1.3,21.5c-0.8,0-1.3,0-1.8,0C356.3,372.8,355.8,365.5,355.5,358.3z M354.3,335.3c0.5,0,1,0,1.5,0
		c0.3,6.5,0.8,12.8,1,19c-0.5,0-1,0-1.5,0C355,347.8,354.8,341.5,354.3,335.3z M351.8,384.5c0.8,0,1.3,0,1.8,0
		c0.3,5.3,0.5,10.5,0.5,15.5c-0.8,0-1.3,0-2,0C352.3,395,352,389.8,351.8,384.5z M351,358.3c0.5,0,1,0,1.7,0
		c0.3,7.3,0.5,14.3,0.8,21.5c-0.8,0-1.3,0-1.8,0C351.5,372.5,351.3,365.5,351,358.3z M350.5,335.3c0.5,0,1,0,1.5,0
		c0.3,6.5,0.5,12.8,0.8,19c-0.5,0-1,0-1.7,0C350.8,347.8,350.5,341.5,350.5,335.3z M349.8,314.5c0.5,0,0.8,0,1.3,0
		c0.3,5.8,0.5,11.3,0.8,17c-0.5,0-1,0-1.5,0C350.3,325.8,350,320,349.8,314.5z M349.3,296.8c0.5,0,0.8,0,1.3,0
		c0.3,4.8,0.3,9.8,0.5,14.5c-0.5,0-0.8,0-1.3,0C349.5,306.3,349.5,301.5,349.3,296.8z M346.3,384.5c0.5,0,1.3,0,1.8,0
		c0,5.3,0,10.5,0,15.5c-0.5,0-1.3,0-1.8,0C346.3,395,346.3,389.8,346.3,384.5z M346.3,358.3c0.5,0,1,0,1.8,0c0,7.3,0,14.3,0,21.5
		c-0.5,0-1,0-1.8,0C346.3,372.8,346.3,365.5,346.3,358.3z M346,335.3c0.5,0,0.8,0,1.5,0c0,6.5,0,12.8,0,19c-0.5,0-1,0-1.5,0
		C346,347.8,346,341.5,346,335.3z M346,314.5c0.5,0,0.8,0,1.3,0c0,5.8,0,11.5,0,17c-0.5,0-0.8,0-1.3,0C346,325.8,346,320,346,314.5z
		 M345.8,296.8c0.3,0,0.8,0,1,0c0,4.8,0,9.5,0,14.5c-0.3,0-0.8,0-1,0C345.8,306.3,345.8,301.5,345.8,296.8z M345.8,291l0.5-14.3
		l2.5,2.3l-1.8,12L345.8,291L345.8,291z M345.8,266.3l2.5,2.3L348,271l-2,1.8L345.8,266.3z M345.8,263.3l5.8-4.5l-0.8,7l-2.2,1.8
		l-2.8-2.5V263.3z M345.5,256l3,3l-2.8,2.3L345.5,256z M345,247.3l2,1.8l-1.8,1.5L345,247.3z M344.8,242l1.3-1l4.5,4l-3.3,3.3
		L345,246L344.8,242z M344.5,240.3l-0.5-5l3.5,1.7L344.5,240.3z M344.5,291h-1.3l-2.8-20l4,3.5V291z M343.8,311.3c-0.5,0-0.8,0-1,0
		c0-4.8,0-9.8,0-14.5c0.5,0,0.8,0,1,0C343.8,301.8,343.8,306.5,343.8,311.3z M343.5,331.5c-0.5,0-1,0-1.5,0c0-5.8,0.3-11.5,0.3-17
		c0.5,0,0.8,0,1.3,0C343.5,320.3,343.5,325.8,343.5,331.5z M343.5,354.3c-0.5,0-1,0-1.8,0c0-6.5,0.3-12.8,0.3-19c0.5,0,1,0,1.3,0
		C343.5,341.5,343.5,347.8,343.5,354.3z M343.3,379.8c-0.8,0-1.3,0-1.8,0c0-7.3,0.3-14.3,0.3-21.5c0.5,0,1,0,1.5,0
		C343.3,365.5,343.3,372.8,343.3,379.8z M341.3,384.5c0.8,0,1.3,0,1.8,0c0,5.3,0,10.5,0,15.5c-0.8,0-1.3,0-1.8,0
		C341.3,395,341.3,389.8,341.3,384.5z M340.3,311.3c-0.5,0-0.8,0-1.3,0c0.3-4.8,0.5-9.8,0.5-14.5c0.5,0,0.8,0,1.3,0
		C340.8,301.5,340.5,306.5,340.3,311.3z M339.8,331.5c-0.5,0-1,0-1.5,0c0.3-5.8,0.5-11.5,0.8-17c0.5,0,0.8,0,1.3,0
		C340,320.3,340,325.8,339.8,331.5z M339,354.3c-0.5,0-1,0-1.5,0c0.3-6.5,0.5-12.8,0.8-19c0.5,0,1,0,1.5,0
		C339.5,341.5,339.3,348,339,354.3z M337,311.3c-0.5,0-0.8,0-1.3,0c0.3-5,0.5-9.8,0.8-14.5c0.5,0,0.8,0,1.3,0
		C337.5,301.8,337.3,306.5,337,311.3z M338.3,379.8c-0.8,0-1.3,0-1.8,0c0.3-7.3,0.5-14.5,0.8-21.5c0.8,0,1,0,1.7,0
		C338.8,365.5,338.5,372.8,338.3,379.8z M335.8,400.3c0.3-5.3,0.5-10.5,0.5-15.5c0.8,0,1.3,0,1.8,0c-0.3,5.3-0.3,10.3-0.5,15.5
		C337,400.3,336.5,400.3,335.8,400.3z M331.3,384.5c0.8,0,1.3,0,1.8,0c-0.3,5.3-0.5,10.5-0.8,15.5c-0.8,0-1.3,0-2,0
		C330.8,394.8,331,389.8,331.3,384.5z M333,358.3c0.5,0,1,0,1.8,0c-0.3,7.3-0.8,14.3-1,21.5c-0.8,0-1.3,0-1.8,0
		C332,372.5,332.5,365.5,333,358.3z M335.8,335.3c-0.3,6.5-0.8,12.8-1,19c-0.5,0-1,0-1.5,0c0.5-6.5,0.8-12.8,1.3-19
		C334.8,335.3,335.3,335.3,335.8,335.3z M335.5,314.5c0.5,0,0.8,0,1.3,0c-0.3,5.8-0.5,11.5-1,17c-0.5,0-1,0-1.5,0
		C334.8,325.8,335.3,320,335.5,314.5z M330.5,270.8c0,0,2.8,2,3.5,3.3l4.5,16.5h-0.8C337.8,290.5,333.8,274.5,330.5,270.8z
		 M329.8,269l-4.8-9.8l5.3,5l2.5,7L329.8,269z M314,246.8l1-0.5c6,7.3,9.5,14.8,11.3,18.5c0.5,1,1,2,1,2.8c0,0-0.3-1-1-2.8
		C322.8,258.3,314,246.8,314,246.8z M314,242.3l8.8,6.3l1.3,2.3l-8-5.5L314,242.3z M305.8,238l0.8-1.3l7.3,8l-1,0.8L305.8,238z
		 M300.3,232.5l1.5-1l4,4.2l-0.8,1L300.3,232.5z M299,231.8l-14.8-10l3.5-2.8l13.5,11L299,231.8z"/>
	<path fill="#9D1C20" d="M268,253.8h4.3h0.2c8.8,0,7.8-6.8,7.8-6.8h-13.8c21.8-97,145.8-119.5,145.8-119.5c6.5-1.8,5.8-3.8,5.8-3.8
		c-40,4.3-79.3,25.5-79.3,25.5l-4-2.5c48.3-33,57.5-46.8,57.5-46.8c-53.8,7-86,40.3-86,40.3c-8-2.3-23-2.8-23-2.8
		c13.3-36.8-12.5-50.8-12.5-50.8c-38.3,19-34.5,52-34.5,52c-2.5,0-25.3,0.3-25.3,0.3c-40-42-79.3-44.8-79.3-44.8
		C134,109.2,174,144,174,144l-5.3,1c-60.8-35.5-93.3-23.3-93.3-23.3c28,3.5,52,15.8,52,15.8c-3.3-0.8-2.8,1.3-2.8,1.3
		C225.5,170,235.3,247.5,235.3,247.5l-13.8,0.3c0,7.5,10.8,6.5,10.8,6.5h5.5L226.5,409h54 M334,143.8l-19.2,6l2.3-2.8l25-9.5
		L334,143.8z M271,199.3l6.8-15.3l-0.3,11.3l-4.5,11.5L271,199.3z M272,209.3l-4.5,11.3l-1.8-5.3L270,202L272,209.3z M247,191.8
		l-3.8-3.3l-0.8-6l6,6L247,191.8z M250,190l2.5,3.5v2.5l0,0l0,0c0-0.3-4.8,5-4.8,5l-1.3-7.8L250,190z M246.3,201l-2-1.7l-0.8-8.3
		l2.3,1.5L246.3,201z M242.8,180.3l-0.8-4l5.3-3l3.5,3.5l-6.3,5.2L242.8,180.3z M183.8,156.3l-8.8-5.8c0.5,0.3,13,5.8,13,5.8
		l4.8,5.8H190L183.8,156.3z M181.3,158.5l-4.5-4.8c3.5,1.8,7,5.3,7.3,5.5S181.3,158.5,181.3,158.5z M211.8,169.5l3,4.5l-2.8-0.5
		L190.7,157L211.8,169.5z M210.5,164.5h3.3l-1,3.5L210.5,164.5z M222.8,163.5l-7.3-0.8l2-9.3L222.8,163.5z M222,156l0.5-0.8
		c3.3,0.5,6.8,3.3,6.8,3.3h-5.8L222,156z M224,165.8l1.3,2.8l-2.8,5.5l-6.3-0.5l-2.3-4.2l1.3-4.5L224,165.8z M226,169.8l2.5,5.3
		l-4.5-0.5L226,169.8z M204.5,164.3h3.3l1.7,2.7L204.5,164.3z M201.8,162.3c0,0-14.8-8.5-21.3-16.3l23.5,12.5l3.8,4.5L201.8,162.3z
		 M194,163.5l15.8,21.3l-18.5-21L194,163.5z M195.3,161.3l14.2,12.3l4.3,4.3l-10.5-7.5L195.3,161.3z M212.8,175h1.7l3.8,5.8
		L212.8,175z M217.5,175.8l4.5,0.3l-1,5.3L217.5,175.8z M224,176.3l2.8,0.5l3.5,7.7l-3,8.8L222,183L224,176.3z M231.8,184.3
		l5.5,15.8l-3.8,8.3l-5-12.7C228.3,195.5,231.5,187,231.8,184.3z M233.3,181.3l-2.7-7.3l9,5.8v1.5H233.3z M240,183.3v3l-4.3-3H240z
		 M237.5,202l3,16.8l-2,4.3l-4.5-13L237.5,202z M234.3,184l6,4.2l1,8l-3.5-2.5L234.3,184z M251,158.8l4.8-1.5l-0.5,5.8L251,158.8z
		 M251.5,162.8L244,166l-1.8-1.5v-2.3l5.8-2.8L251.5,162.8z M250,157.5l-2.5-2.3l4.5-2.3c0,0,1.8,0,4,2.3L250,157.5z M246.3,154.3
		l-1.8-1.5l2.5-2c0,0,2.8,0.3,4.3,1.3L246.3,154.3z M242.8,151.5l-2-2c2,0,4.8,0.5,4.8,0.5L242.8,151.5z M243.8,155.3l-2.5,2
		l-0.8-5.5L243.8,155.3z M241.3,158.3l3.5-2.3l2.5,3l-5.3,2L241.3,158.3z M246.5,172l-4.3,2.3l-0.8-6.8L246.5,172z M244.8,167.3
		l8-3.8l2.5,1.8l-0.3,3l-6,2.8L244.8,167.3z M255,208.8l7-6.8l-2,13l-5.3,5.3L255,208.8z M255.3,206l0.5-12.5l10.8-11.3
		c0.3,2.8-3,15.5-3,15.5L255.3,206z M255.8,190.5l0.5-11.3l2.5-2.5l8.8,0.8L255.8,190.5z M278.8,138.8c-0.8,3.8-2.8,9-2.8,9
		l-17.8,14.8l1.3-9.5L278.8,138.8z M260,150.8l1-9.3l21-13.8c-0.3,2.8-2.3,7.8-2.3,7.8L260,150.8z M296.3,158.8l-6,4.8l6.5-9.3
		L296.3,158.8z M297.8,159.3l7-4.3l-0.3,3.5l-8,8.5L297.8,159.3z M296.3,160.5l-1.3,7l-3.3,5l-3-7L296.3,160.5z M290.8,173.5
		l-3.3,5.5l0.3-11.8L290.8,173.5z M286.3,165.3L274,165l1.5-6c6,0.8,14,1,14,1C287.5,161.8,286.3,165.3,286.3,165.3z M271,164.3
		l-12.5,0.5l16.8-13.8L271,164.3z M268.5,166.3l-11.5,10l0.5-9.8L268.5,166.3z M261.3,174.8l9.3-8.5c0,0-2.3,8.5-2.3,8.8
		C268.3,175.5,261.3,174.8,261.3,174.8z M273.3,166.8l12.3,0.2l-7.3,13.3l-8.3-1L273.3,166.8z M280,194l11.8-8.3l-9.5,14.3l-7.8,6.5
		L280,194z M279.5,191v-10.5l6.5-11.3l-0.8,12.7L279.5,191z M288.8,181l14.3-9.5l-5.3,5.8l-12,8L288.8,181z M290,178.3l3.3-4.5
		L307,168L290,178.3z M295.5,171.3l1.3-2.5l17-9l-5.3,5.5L295.5,171.3z M310.3,160.8l-6,3.5l4.8-4.3c0,0,6-2.5,6.3-2.5L310.3,160.8z
		 M308.5,159.3l-7.5,5l6.3-6.3c0,0,15.3-7.5,15.5-7.5L308.5,159.3z M308.8,156l3.5-4l13.3-4.5L308.8,156z M331.3,145.3h0.8l-13,10.5
		l-3.5-0.3L331.3,145.3z M346.8,134.3l-26,10.3l7.8-7l25-7.5L346.8,134.3z M356.5,127.3l-24,8l9.3-6.5l20.5-5.8L356.5,127.3z
		 M364.3,121l-19.3,5.5l9-6l16-4L364.3,121z M372.5,114.8l-15,4l9.5-5.8l12-3.5L372.5,114.8z M381.8,107.5l-9.8,3l14.5-7
		L381.8,107.5z M381.8,103.8L366,112l6.3-5.5L381.8,103.8z M368.5,108l-6.8,6l-8.8,5l3.3-6.8L368.5,108z M354,112.8l-4,7.7l-8.8,5.8
		l4.8-9L354,112.8z M343.3,117.5l-4.3,10l-10,7.8l5-12L343.3,117.5z M331.5,124l-5.3,12.3l-8.5,7.3l4.3-13L331.5,124z M320,132.3
		l-4.5,14.3l-9.3,9.8l3.5-15.3L320,132.3z M307.8,142.8l-3,10.5l-6.8,3.5l0.5-4.8L307.8,142.8z M304.8,142.3
		c-8.3,6.8-14,15.5-14,15.5l-14.3-1l5.3-16C289.5,141,304.8,142.3,304.8,142.3z M283,125l-21.3,13.8l0.8-7.8l21-14
		C283.8,118.3,283,125,283,125z M283.5,114.8l-20.3,13.5l1.5-8l18-11.8C284,112.5,283.5,114.8,283.5,114.8z M282.5,107.3l-17,10.5
		l1.5-7.3l13.3-8.3C282.5,104.5,282.5,107.3,282.5,107.3z M279.8,101l-12,7l0.8-5.5l8-7C277.8,97,279.8,101,279.8,101z M271.3,90.5
		c2,1,4,3.5,4,3.5l-6,5.7L271.3,90.5z M269,90.8l-2.8,9.3l-3.3-5.5C264.8,93.3,269,90.8,269,90.8z M261.8,95.5l4,6.8l-1.5,7.3
		l-9.3-8C254.8,101.5,258.3,97.5,261.8,95.5z M253.5,102.8l10.3,8l-1.5,7.3l-12.8-10.5C249.5,107.5,251.8,104.3,253.5,102.8z
		 M248.3,109.3l13.5,10.3l-1.5,8.3L244.8,115C246.8,110.8,248.3,109.3,248.3,109.3z M243.8,117.5l16,12.8l-1.5,8.3L241,126.2
		C242.8,117.8,243.8,117.5,243.8,117.5z M240.3,128l17.5,12.8l-1,10.3l-17.3-16C239.5,135,239.5,131,240.3,128z M256.3,153.3
		c0,0-8-5.8-15.8-6.5l-1-8.5L256.3,153.3z M239,177.3l-9-5l-2-4.8l11,4.8V177.3z M238.5,171l-11.5-5.5l-3-5.3h1.7l12.8,5.5V171z
		 M238,164.3l-9.5-4l9.5,0.3V164.3z M237.5,158.3L233,158l-10.5-4.5c0,0-0.3-1.3,1.3-1.8l13.5,4.5v2H237.5z M237.3,154.8l-12.5-3.8
		c0,0,0.8-0.8,2.5-1.3l10,3.5V154.8z M237.3,152.3l-9-2.8c0,0,1.5-0.5,3-0.5l6,2V152.3z M233,149c1.3-1.5,4-1,4-1v2.3L233,149z
		 M237,141v4.8c0,0-14.2,0-15.5,8.5c0,0-5.8-9.8-9-13.3L237,141z M216.3,151.5l-2.3,11h-4.5l-3-4.5l2.5-17L216.3,151.5z M199,130.5
		l8.5,9l-2.5,16.8l-7-9.3L199,130.5z M188.5,121.3l9,8l-1.3,15.8l-8.3-8.8L188.5,121.3z M179,115.5c3.8,1.3,7.5,5,7.5,5v13.8
		l-8.3-7.5L179,115.5z M177,114l-0.2,11.5l-8.8-8l-0.8-8.5C171.5,110,177,114,177,114z M165,107.8l1.5,8.8l-9.3-7l-5.5-7
		C151.8,102.5,159,104.5,165,107.8z M150,101.3l4.3,6.3l-15.5-9L150,101.3z M136,98.3l13,8l-10.5-4.8
		C138.5,101.5,136.5,100.8,136,98.3z M139.5,103.5l14.8,6l9.3,7.3l-18-6.5L139.5,103.5z M146,112.3l19.5,6.3l8.3,7.5l-22.5-9
		L146,112.3z M156.8,123.5l-4-4.5l23.5,9l7.8,7L156.8,123.5z M159.3,126.3l26.5,10.8l7.5,8.3l-28-13.5L159.3,126.3z M168.8,135.3
		l26.5,12.8l7,8C202.3,156,175.8,144,168.8,135.3z M176.5,145l8.8,8.3l-15.3-6.5L176.5,145z M174.8,153l-6.5-3l-3.5-4
		C171.3,148.5,174.8,153,174.8,153z M166.3,149.8l-10.5-7c0.3,0,6.8,2.8,6.8,2.8L166.3,149.8z M155.5,140l3,2.5l-4.5-0.8l-7.3-6
		L155.5,140z M141.5,133l8.8,7.3l-9.3-4.5l-10.3-6.5L141.5,133z M125.8,127.3l10.8,7.5l-22.3-10
		C117.5,124.5,125.8,127.3,125.8,127.3z M109.3,123.3l10,6l-19-6.3C103.8,122.5,109.3,123.3,109.3,123.3z M87.3,122.3
		c0,0,6.3-0.5,6.5-0.2s7.3,2.5,7.3,2.5L87.3,122.3z M114,129.5c10.5,1.5,29.8,9.8,29.8,9.8h-4.3L114,129.5z M145.3,140.3L160,147
		l-18.5-6.5L145.3,140.3z M153.3,146l15.8,6.8l16.3,13L153.3,146z M183.8,162.3l-1.5-2l4.5,1.7l6.5,9L183.8,162.3z M192.8,168.5h1
		l8.5,11.3L192.8,168.5z M204,182.5l1.3-0.8l6.3,8.8L204,182.5z M203.3,172.3l12.8,8.3l8.8,12.7L212,184L203.3,172.3z M214.8,187.5
		l10.8,8.5c0,0,5.5,12,5.5,11.8c0-0.3-9-7.3-9-7.3L214.8,187.5z M224.8,204.3l7.5,6l3.8,12l-4.5-3.3L224.8,204.3z M240.8,246.3
		l-8.8-24.5l5,3.5l4.8,21.3L240.8,246.3z M243.8,246.3l-4.3-21l1.8-4l4,25C245,246,243.8,246.3,243.8,246.3z M247,246l-8.8-50
		l3.3,1.8c0,0,3.3,25.5,8,48.2L247,246L247,246z M248.3,218l-2-1l-0.3-3l2.3,1.5V218z M252.3,224.3l-4,3.8l-2.3-9
		C246.3,219,252.3,224.3,252.3,224.3z M250.5,246l-2.5-16.5l3.5-3l0.8,19.8h-1.8V246z M252.3,221.5l-2.8-2.5l-0.2-3.3l3.3-3.3
		L252.3,221.5z M252.5,210.8l-3.8,3.3l-3-2.3l-1-9.8l7.8,6V210.8z M252.5,205.8l-3.8-3.3l4-4.3L252.5,205.8z M253.3,191l-2.5-2.3
		l2.8-2.3L253.3,191z M253.3,184.8l-3,3l-4.5-4.5l6.3-5.5l1.8,1.5L253.3,184.8z M249.8,172.3c0.3,0,5-2.5,5-2.5l-0.8,6.8
		L249.8,172.3z M254,246v-22.5l5.5-5l-3.8,27.3H254V246z M257.3,245.8c0,0,1.5-25.2,12.3-64l8,0.7c0,0-17,27-17.8,63.3H257.3z
		 M265.5,217.8l1.5,5c0,0-4.8,9.8-5.3,20.8C261.8,243.8,261.8,223.5,265.5,217.8z M263.3,245.8h-1l6.3-22.5c1-1.7,4.8-4.5,4.8-4.5
		C268.8,223.8,263.3,245.8,263.3,245.8z M270,219.3l3.3-9.8l7.3-6.7l-6.3,13.3L270,219.3z M278,213.5c0.3-1,0.8-2.3,1.5-3.5
		c2.3-5.3,7-15.3,15.3-25.3l1.3,0.8c0,0-12.3,16-16.5,24.5C278.5,212.3,278,213.5,278,213.5z M292.8,183.8l-10.8,7.8l1.7-3.3l12-8.5
		L292.8,183.8z M297.3,184.3l-1.3-1l10-11l1,1.7L297.3,184.3z M308.3,172.3l-1.3-1.5l5.3-5.8l2,1.5L308.3,172.3z M313.3,162.5
		l18.3-15l4.8,3.8L316,165L313.3,162.5z M317.8,167.5c0,0,27.3-24.3,68.8-34.5C386.5,132.8,347,144.8,317.8,167.5z"/>
	<path fill="#9D1C20" d="M292,413c-26.5,0-52.7,0-79.2,0c-1.5-9,4.5-16.5,13.5-16.5c17.5,0,34.8,0,52.3,0
		C287.5,396.5,293.8,404,292,413z"/>
	<g>
		<path fill="#FFFFFF" d="M242.8,338.3c0.8,0,1.5,0,2.3,0c-0.3,9.8-0.5,19.5-0.8,29.5c-0.8,0-1.5,0-2.5,0
			C242,357.8,242.5,348,242.8,338.3z"/>
		<path fill="#FFFFFF" d="M256,338.3c0.5,0,1.3,0,2,0c0.3,9.8,0.3,19.5,0.5,29.5c-0.8,0-1.5,0-2.5,0C256,357.8,256,348,256,338.3z"
			/>
		<path fill="#FFFFFF" d="M249.5,338.3c1,0,1.5,0,2.3,0c0,9.8,0,19.5,0,29.5c-0.8,0-1.5,0-2.3,0C249.5,357.8,249.5,348,249.5,338.3z
			"/>
		<path fill="#FFFFFF" d="M265,367.8c-1,0-1.8,0-2.5,0c-0.3-9.7-0.5-19.5-1-29.5c0.8,0,1.5,0,2.3,0C264.3,348,264.8,357.8,265,367.8
			z"/>
		<path fill="#FFFFFF" d="M271.8,367.8c-1,0-1.5,0-2.5,0c-0.5-9.7-1-19.5-1.5-29.5c0.8,0,1.5,0,2.3,0
			C270.5,348,271,357.8,271.8,367.8z"/>
		<path fill="#FFFFFF" d="M236.8,338.3c0.8,0,1.5,0,2.3,0c-0.5,9.8-1,19.5-1.5,29.5c-0.8,0-1.5,0-2.5,0
			C235.8,357.8,236.3,348,236.8,338.3z"/>
		<path fill="#FFFFFF" d="M256.3,374c0.8,0,1.5,0,2.5,0c0,7,0,14.3,0,21.3c-0.8,0-1.5,0-2.5,0C256.3,388.3,256.3,381.3,256.3,374z"
			/>
		<path fill="#FFFFFF" d="M266,395.5c-1,0-1.8,0-2.8,0c-0.3-7-0.5-14.3-0.8-21.3c1,0,1.8,0,2.5,0C265.5,381.3,265.8,388.3,266,395.5
			z"/>
		<path fill="#FFFFFF" d="M241.5,374c1,0,1.7,0,2.5,0c-0.3,7.3-0.5,14.3-0.5,21.3c-1,0-1.7,0-2.8,0C241,388.3,241.3,381.3,241.5,374
			z"/>
		<path fill="#FFFFFF" d="M269.5,374c0.8,0,1.5,0,2.5,0c0.5,7,0.8,14,1.3,21.3c-0.8,0-1.8,0-2.8,0
			C270.3,388.3,269.8,381.3,269.5,374z"/>
		<path fill="#FFFFFF" d="M234.8,374c1,0,1.8,0,2.5,0c-0.3,7-0.8,14.3-1,21.3c-1,0-1.8,0-2.8,0C233.8,388.3,234.3,381.3,234.8,374z"
			/>
		<path fill="#FFFFFF" d="M250,306.5c0.8,0,1.5,0,2,0c0,8.8,0,17.5,0,26c-0.8,0-1.5,0-2,0C250,324,250,315.3,250,306.5z"/>
		<path fill="#FFFFFF" d="M249,374c1,0,1.7,0,2.5,0c0,7,0,14.3,0,21.3c-1,0-1.8,0-2.5,0C249,388.3,249,381.3,249,374z"/>
		<path fill="#FFFFFF" d="M255.5,306.5c0.5,0,1,0,1.8,0c0.2,8.8,0.2,17.3,0.5,26c-0.8,0-1.5,0-2.3,0
			C255.5,324,255.5,315.3,255.5,306.5z"/>
		<path fill="#FFFFFF" d="M244,306.5c0.8,0,1.3,0,2,0c-0.3,8.8-0.5,17.5-0.8,26c-0.8,0-1.5,0-2.3,0C243.3,324,243.8,315.3,244,306.5
			z"/>
		<path fill="#FFFFFF" d="M260.8,306.5c0.8,0,1.3,0,2,0c0.3,8.8,0.8,17.3,1,26c-0.8,0-1.5,0-2.3,0C261.3,324,261,315.3,260.8,306.5z
			"/>
		<path fill="#FFFFFF" d="M240.8,306.5c-0.5,8.8-1,17.3-1.3,26c-0.8,0-1.5,0-2.3,0c0.5-8.8,1-17.3,1.5-26
			C239.3,306.5,240,306.5,240.8,306.5z"/>
		<path fill="#FFFFFF" d="M269.5,332.8c-0.8,0-1.5,0-2.3,0c-0.5-8.8-1-17.3-1.3-26c0.8,0,1.3,0,2,0C268.5,315.3,269,324,269.5,332.8
			z"/>
		<path fill="#FFFFFF" d="M257.3,301.5c-0.8,0-1.3,0-2,0c0-7.8,0-15.5,0-23.5c0.5,0,1,0,1.5,0C257,286,257.3,293.8,257.3,301.5z"/>
		<path fill="#FFFFFF" d="M260.5,301.5c-0.3-7.8-0.5-15.5-0.8-23.3c0.5,0,1.3,0,1.7,0c0.3,7.8,0.5,15.5,1,23.3
			C261.8,301.5,261.3,301.5,260.5,301.5z"/>
		<path fill="#FFFFFF" d="M240.3,278.3c0.8,0,1.3,0,1.7,0c-0.5,7.8-0.8,15.5-1.3,23.3c-0.8,0-1.3,0-2,0
			C239.5,293.8,239.8,286,240.3,278.3z"/>
		<path fill="#FFFFFF" d="M267.8,301.5c-0.8,0-1.3,0-2,0c-0.5-7.8-0.8-15.5-1.3-23.5c0.5,0,1.3,0,1.7,0
			C266.8,286,267.3,293.8,267.8,301.5z"/>
		<path fill="#FFFFFF" d="M245,278.3c0.8,0,1.3,0,1.8,0c-0.3,7.8-0.5,15.5-0.8,23.5c-0.8,0-1.3,0-2,0
			C244.5,293.8,244.8,286,245,278.3z"/>
		<path fill="#FFFFFF" d="M250.3,278.3c0.8,0,1.3,0,1.7,0c0,7.8,0,15.5,0,23.5c-0.5,0-1.3,0-1.7,0
			C250.3,293.8,250.3,286,250.3,278.3z"/>
		<path fill="#FFFFFF" d="M250.8,274c0-6.8,0-13.3,0-19.8c0.5,0,1,0,1.5,0c0,6.5,0,13,0,19.8C251.5,273.8,251.3,273.8,250.8,274z"/>
		<path fill="#FFFFFF" d="M255,254c0.3,0,0.8,0,1.5,0c0,6.5,0,13.3,0,19.8c-0.3,0-0.8,0-1.5,0C255,267.3,255,260.8,255,254z"/>
		<path fill="#FFFFFF" d="M259,254c0.5,0,1,0,1.5,0c0.3,6.5,0.5,13.3,0.8,19.8c-0.5,0-1,0-1.8,0C259.5,267.3,259.3,260.8,259,254z"
			/>
		<path fill="#FFFFFF" d="M266,273.8c-0.5,0-1,0-1.8,0c-0.3-6.5-0.8-13-1-19.8c0.5,0,1,0,1.5,0C265.3,260.5,265.8,267,266,273.8z"/>
		<path fill="#FFFFFF" d="M246,254c0.5,0,1,0,1.5,0c-0.3,6.8-0.5,13.3-0.5,20c-0.5,0-1,0-1.7,0C245.5,267.3,245.8,260.8,246,254z"/>
		<path fill="#FFFFFF" d="M241.8,254c0.5,0,1,0,1.5,0c-0.2,6.5-0.8,13.3-1,19.8c-0.5,0-1,0-1.7,0C241,267.3,241.3,260.8,241.8,254z"
			/>
	</g>
	<path fill="none" d="M164,270.3c-2.8,4.3-2.8,19-2.8,19c0.3-8.3,3.8-15.3,3.8-15.3L164,270.3z"/>
	<path fill="none" d="M159.5,290.8c0.8-26.5,13-46.3,13-46.3l-5.8-0.5c-8,28.3-9,46.7-9,46.7H159.5z"/>
	<polygon fill="none" points="168.8,264 167.3,258.5 164,268.3 165.3,272.3 	"/>
	<polygon fill="none" points="150.5,237.5 146.8,239.8 147.3,242.8 148.5,244 153,240 	"/>
	<path fill="none" d="M157,223l-12.3-11l0.8,6.3C151.3,218.8,157,223,157,223z"/>
	<polygon fill="none" points="161.5,258.5 156.3,263.5 156.3,272 160,268.3 	"/>
	<polygon fill="none" points="173,253.8 173,245.5 168,256.8 169.5,262 	"/>
	<polygon fill="none" points="179,234.8 174.3,243 174.3,250.8 178.5,244 	"/>
	<polygon fill="none" points="184.3,238 182,241.3 194.3,233.8 	"/>
	<polygon fill="none" points="183,246.8 174.5,252.8 170.5,262 176.3,257.3 	"/>
	<polygon fill="none" points="191.3,236.5 181,243.3 178.8,246.8 187.5,240.8 	"/>
	<polygon fill="none" points="146,225.8 148,224.5 145.5,221.8 	"/>
	<path fill="none" d="M147.3,221.8l2-1c0,0-2-0.5-3.5-0.5L147.3,221.8z"/>
	<polygon fill="none" points="141,245.5 143.5,252.5 146,254.5 145.5,248.5 	"/>
	<path fill="none" d="M164.5,244.3l-8,8.3l-0.2,9.3l6-6.3C162.5,255.5,164.8,246.3,164.5,244.3z"/>
	<polygon fill="none" points="149.3,251.5 147.8,250.5 148.3,256.5 149.8,258 	"/>
	<path fill="none" d="M148.5,222.5l1.3,1l3.5-1.7c-1-0.8-3-0.8-3-0.8L148.5,222.5z"/>
	<polygon fill="none" points="145.8,271 143.5,258.8 141,264.5 144.3,274 	"/>
	<path fill="none" d="M148.8,291l-3-18.3l-1.3,3l3.3,15.5C148,291,148.8,291,148.8,291z"/>
	<polygon fill="none" points="138.3,238.3 140.3,243.5 145,243.5 145,242.5 	"/>
	<polygon fill="none" points="142.3,245 145.3,247.3 145.3,245 	"/>
	<path fill="none" d="M150.8,224.5l2,1.8l4.3-1.8c-1.5-1.7-2.8-1.7-2.8-1.7L150.8,224.5z"/>
	<path fill="none" d="M168.3,177.3l-1.5,7l4.5-4.3C171,179.8,169.5,177.8,168.3,177.3z"/>
	<path fill="none" d="M162.3,204.8l14.8-10c0,0,0.5-1.7-0.5-4.5l-13.3,8.5L162.3,204.8z"/>
	<path fill="none" d="M166.5,177.3c0,0-3.3,1.8-4.3,2.8l2.3,4L166.5,177.3z"/>
	<path fill="none" d="M165.5,190l8.8-5.3c0,0-1.3-3-2.5-4L166,186L165.5,190z"/>
	<path fill="none" d="M163.8,197.3l12.5-7.8c0,0,0-2-1.5-3.5l-9.8,5.8L163.8,197.3z"/>
	<path fill="none" d="M164,185.8l-2.8-5c-2.5,1.5-5,4.3-5,4.3l6.8,5.8L164,185.8z"/>
	<path fill="none" d="M157.5,221.3l0.8-7.5l-12.8-9.3c-0.5,2.3-0.5,5.3-0.5,5.3L157.5,221.3z"/>
	<path fill="none" d="M159.8,206l-11.8-9.2c0,0-0.5,0.2-2,6.3l12.8,9L159.8,206z"/>
	<path fill="none" d="M162.8,192l-7.5-5.8c-1.3,1-3,3.5-3,3.5l9.5,7.8L162.8,192z"/>
	<polygon fill="none" points="199.3,227.8 187,234.3 186,236.3 195.5,232 	"/>
	<path fill="none" d="M161.3,198.3l-10-7.5c0,0-1,1.3-2.5,4.3l11.5,9.3L161.3,198.3z"/>
	<polygon fill="none" points="212.5,217 212,217.3 200.5,224.8 203,224.8 	"/>
	<polygon fill="none" points="198.3,222.3 195.5,225 207.8,219 	"/>
	<path fill="none" d="M194.5,226.5l-4.5,4.8l5.5-3.8L206,221C205.8,221,194.5,226.5,194.5,226.5z"/>
	<path fill="none" d="M195.8,227.8l-3.5,3.3l4.5-2.5l3.5-2.5C200,226,195.8,227.8,195.8,227.8z"/>
	<polygon fill="none" points="187.8,225.5 192.8,223 194.8,215.3 188,222 	"/>
	<polygon fill="none" points="208.3,210.8 212.3,201.8 205.3,206.5 202.3,216 	"/>
	<path fill="none" d="M172,225.5l10.5,0.8c0,0,4.3-6.5,10.3-11.5c0,0-11.3-1-16.8-1.3L172,225.5z"/>
	<path fill="none" d="M161.8,206.8l-0.5,5.8l15.5-10c0,0,0.5-5,0.2-5.8L161.8,206.8z"/>
	<polygon fill="none" points="200.5,218 203.8,207.5 196.3,214 193.8,225 	"/>
	<polygon fill="none" points="156.3,231.8 154.5,230.5 148.8,233.3 151.5,236 156,234 	"/>
	<polygon fill="none" points="124.8,237.8 126.8,238.3 124.5,234.8 109,225.8 	"/>
	<polygon fill="none" points="126,231.3 123.8,231.3 125.3,233.8 	"/>
	<polygon fill="none" points="127.3,230 132.5,230.5 128.8,223.3 	"/>
	<path fill="none" d="M102.3,226.8c0,0,2.3,0.8,2,0.5c-0.2-0.3-2.7-2.8-5.2-4L102.3,226.8z"/>
	<path fill="none" d="M101.8,217.8c5,5.5,15.5,11.7,15.5,11.7l4.3,0.5l-2.8-3.3L101.8,217.8z"/>
	<polygon fill="none" points="119.3,231 123,233 121.8,231 	"/>
	<path fill="none" d="M137.5,226.8c0,0-2.8-2-5-2.3L132,225l1,1.8H137.5z"/>
	<path fill="none" d="M144,254.5l6.3,36.5h1.8c-3.5-16.8-5.8-35.3-5.8-35.3L144,254.5z"/>
	<polygon fill="none" points="135,235 133.5,238.8 136.8,239 	"/>
	<polygon fill="none" points="126.3,234.8 127.8,237.8 132.3,238.3 134.3,234 133.5,232 127,231.5 	"/>
	<path fill="none" d="M110.5,229.3L107,225c0,0-9-4-9.5-4.3l6.5,4.3l4.5,4.3H110.5z"/>
	<path fill="none" d="M209.8,211.5l-5.8,5l16.7-6.5c-0.2-0.5-0.5-1-1-1.5L209.8,211.5z"/>
	<path fill="none" d="M214,201l-3.8,8.8l7.3-5.5c-1-1.5-1.8-2.8-2.5-4L214,201z"/>
	<path fill="none" d="M213,209.8l6.5-2.3c-0.2-0.5-0.8-1-1-1.8L213,209.8z"/>
	<path fill="none" d="M225.8,219c0-0.3-0.2-0.5-0.2-0.8c-14.5,7.5-23.3,15-23.3,15C209.8,227.5,218,222.8,225.8,219z"/>
	<path fill="none" d="M217.5,220c0,0,2.8-1.5,7-3.5c-0.8-1.3-1.5-2.5-2-3.8c-2.5,1.7-5,3.5-7.8,5.5L217.5,220z"/>
	<path fill="none" d="M151,258l3.5-3.8v-2l-2-2.5l-2.3,2.5L151,258z"/>
	<path fill="none" d="M151.3,277.8l3-2.8l-4.5-3.8L151.3,277.8z"/>
	<polygon fill="none" points="149.8,269.5 151.3,270.3 151.3,268.3 149.5,267.3 	"/>
	<polygon fill="none" points="147.5,248.8 150.3,251 151.5,248.8 147,244.5 	"/>
	<polygon fill="none" points="200,220.5 214,216 220,211.5 201.8,218.5 	"/>
	<path fill="none" d="M166,239c0-0.3,1.5-6.5,1.5-6.5l-6.8,6.3C160.8,238.8,166,239.3,166,239z"/>
	<polygon fill="none" points="156.8,226 153.3,227 156.3,230 	"/>
	<polygon fill="none" points="158.8,231.5 167.8,231 171,221.3 	"/>
	<polygon fill="none" points="111.8,230.5 109.5,230.8 123.3,246 	"/>
	<polygon fill="none" points="157.5,240 166,232.5 158,233 	"/>
	<polygon fill="none" points="180,241.8 182.5,237.8 180.3,233.3 	"/>
	<polygon fill="none" points="178.5,233 169.5,233 167.3,242 173.3,242.8 	"/>
	<polygon fill="none" points="151.3,227.8 147,229.8 146.8,231.3 148,232.3 153.5,229.8 	"/>
	<polygon fill="none" points="148.5,225 146,226.8 146.5,228.8 150.5,227.3 	"/>
	<polygon fill="none" points="156.8,250.3 165.3,240.8 158.8,240.3 157,242 	"/>
	<polygon fill="none" points="150,236.8 146.3,233.5 146.8,238.5 	"/>
	<path fill="none" d="M170,231.5l9,0.3c0,0,0.8-2.5,2.3-3.8c0,0-5.8-0.3-10.3-0.8L170,231.5z"/>
	<polygon fill="none" points="138,245.8 135.5,240 133.5,239.8 132,244.5 135.8,252.3 	"/>
	<path fill="none" d="M143,257.3l-4-11.5c-0.2,2-2.5,8.3-2.5,8.3l3.8,9.5L143,257.3z"/>
	<polygon fill="none" points="132,239.8 128.8,239.5 131.5,243.5 	"/>
	<polygon fill="none" points="123,237.8 112.5,229 118.5,235.3 126,240.8 	"/>
	<polygon fill="none" points="126.8,239 125.3,239 129.5,243.3 	"/>
	<polygon fill="none" points="183.3,237.3 185.5,233.5 186.3,228.3 181,232 	"/>
	<polygon fill="none" points="192.5,224.5 187.5,227.5 186.5,233 192.3,226.8 	"/>
	<polygon fill="none" points="186.3,227 186.8,223.5 182,230.5 	"/>
	<path fill="none" d="M158.5,229.8l13-10.8c0,0,1.5-3.8,2-6.5L159.3,223L158.5,229.8z"/>
	<path fill="none" d="M176,204.3l-15.5,10l-0.8,6.7l14.5-11.3C174.3,210,176,206.3,176,204.3z"/>
	<polygon fill="none" points="98.8,204.5 81.5,198 84.3,201.3 104.3,209.8 	"/>
	<polygon fill="none" points="151.3,278.8 153,291 154.3,291 153.8,276.5 	"/>
	<polygon fill="none" points="146.8,291 143.3,275.5 139.5,273 145.8,291 	"/>
	<path fill="none" d="M134.8,254.3l-8-6.3l5.3,9.5l6.5,5.3C138.8,262.8,134.8,254.3,134.8,254.3z"/>
	<polygon fill="none" points="139.5,264.5 134.3,260.3 139.3,271 142.3,273.5 	"/>
	<polygon fill="none" points="149.5,265.8 151.8,267.5 154.3,265 154.3,263.3 148.8,258.8 	"/>
	<polygon fill="none" points="154.5,261.3 154.5,256 151.5,259 	"/>
	<polygon fill="none" points="152,271 154.3,272.8 154.3,266.3 151.8,268.5 	"/>
	<polygon fill="none" points="81.8,217.8 105.3,232.3 93.3,222.8 	"/>
	<polygon fill="none" points="103,228 104,229.5 111,236 106.3,229.5 	"/>
	<polygon fill="none" points="127.8,243 118.5,237 124.8,245.5 134,252.3 	"/>
	<polygon fill="none" points="76,213.5 73.3,213.8 86.8,218.5 	"/>
	<polygon fill="none" points="110.5,234.3 117.5,242.3 111.5,234 	"/>
	<polygon fill="none" points="118.8,244.3 124.3,250.3 119.8,243.8 	"/>
	<polygon fill="none" points="169.5,264.3 167.3,271.3 170.3,269 175,259.3 	"/>
	<polygon fill="none" points="194.3,235.8 195,236.8 199.8,232.5 198.3,231.5 	"/>
	<polygon fill="none" points="186.3,245 187,245.8 194.3,238 193.5,236.8 	"/>
	<polygon fill="none" points="154.8,250.5 155,247.3 153,249 	"/>
	<polygon fill="none" points="138,236.8 144.5,240.5 144.3,237 136.3,233.5 	"/>
	<polygon fill="none" points="176,251 183.8,245.3 186,242.3 177.3,248.5 	"/>
	<polygon fill="none" points="212.3,218.8 198.8,229.8 201,231.8 215.8,221.5 	"/>
	<path fill="none" d="M152.5,237l3,3.3l0.5-5C156,235.3,152.5,237,152.5,237z"/>
	<polygon fill="none" points="149.5,245 152.8,248.3 155,246 155.3,242 154,240.8 	"/>
	<polygon fill="none" points="159.5,271 155.5,274.5 155.5,291 156.8,291 	"/>
	<path fill="none" d="M174,264.5c3-6.3,12-17.7,12-17.7l-1-0.5C179.3,253.3,175.8,260.8,174,264.5z"/>
	<path fill="none" d="M166,274l-4.5,16.5h0.8c0,0,4-16,7.3-19.8C169.5,270.8,166.8,272.8,166,274z"/>
	<path fill="none" d="M53,205.5l18.5,7.3h3.3C74.8,212.8,60.5,206.8,53,205.5z"/>
	<path fill="none" d="M174,264.5c-0.5,1-1,2-1,2.8C173,267.3,173.3,266.3,174,264.5z"/>
	<path fill="none" d="M91.5,196l-1-6.3c-4.5-2.3-9.8-3.8-9.8-3.8l4,5L91.5,196z"/>
	<polygon fill="none" points="121.5,213 115.3,206.3 114.5,218.5 119.8,225.3 	"/>
	<path fill="none" d="M106,199c0,0-2.7-2.8-5.5-3.8l-0.5,8.3l6,5.5V199z"/>
	<polygon fill="none" points="114,205.5 107.5,199.8 107.3,210.5 113.3,217 	"/>
	<path fill="none" d="M99,202.8v-8.3c0,0-4-3-7-3.8l0.5,6.3L99,202.8z"/>
	<polygon fill="none" points="82.5,191 71.8,186.8 76,191.8 89.3,196.3 	"/>
	<polygon fill="none" points="79.3,185 71.3,183 82.5,189.5 	"/>
	<path fill="none" d="M69,182.8c0.5,1.7,2,2.5,2,2.5l7.8,3.5L69,182.8z"/>
	<polygon fill="none" points="90.8,197.5 76.5,193 80.3,196.5 96.8,203 	"/>
	<polygon fill="none" points="143.8,231 143.8,228.3 137,228.3 	"/>
	<path fill="none" d="M132.5,223.3l7.5,3.3l3.3,0.3v-1.3l-9.8-3.3C132.3,222.3,132.5,223.3,132.5,223.3z"/>
	<path fill="none" d="M33.5,200.3l10,1.7c0,0-5-1.7-5.3-1.7C38.3,200,33.5,200.3,33.5,200.3z"/>
	<polygon fill="none" points="133.5,228.3 135.8,232 144.3,236 144.3,232.3 135,228.3 	"/>
	<path fill="none" d="M136.5,220.3l6.5,2v-1l-4.5-1.5C137.8,219.8,136.5,220.3,136.5,220.3z"/>
	<path fill="none" d="M143,217.8v-3.5h-18c2.3,2.5,6.5,9.8,6.5,9.8C132.5,217.8,143,217.8,143,217.8z"/>
	<polygon fill="none" points="122.8,230 126,230 127.8,221.8 122.5,214.3 120.5,226.8 	"/>
	<path fill="none" d="M140.3,219.8l2.8,1v-1.5C143,219.3,141,218.8,140.3,219.8z"/>
	<path fill="none" d="M134.3,221.5l9,2.8v-1l-7.3-2.5C134.8,220.8,134.3,221.5,134.3,221.5z"/>
	<polygon fill="none" points="98.8,217 94,218.3 105,223 	"/>
	<path fill="none" d="M97.5,222.8c0,0-2.5-3.3-7.3-5l2.5,3L97.5,222.8z"/>
	<path fill="none" d="M91.3,220.5l-2.8-3c0,0-4.8-2-5-2L91.3,220.5z"/>
	<polygon fill="none" points="105.5,211 86.3,203.3 90.5,207.3 111,217.3 	"/>
	<path fill="none" d="M112.5,219l-19.3-9.3c5,6.5,24.3,15.3,24.3,15.3L112.5,219z"/>
	<polygon fill="none" points="79.8,213.5 73.3,208.3 65.5,205.8 73,210.3 	"/>
	<path fill="none" d="M61.8,204c0,0-6.3-2-8.5-1.8l16.2,7.3L61.8,204z"/>
	<path fill="none" d="M49.8,201c0,0-4-0.5-6.5-0.3l14,4.8L49.8,201z"/>
	<polygon fill="none" points="85.8,215 83.5,213.3 77,210.3 82.5,214.5 	"/>
	<path fill="#9D1C20" d="M202.3,233.3c0,0,8.8-7.7,23.3-15c-0.3-0.5-0.5-1-0.8-1.7c-4.5,2.2-7.3,3.5-7.3,3.5l-2.8-1.8
		c2.8-2,5.3-3.8,7.8-5.5c-0.5-1-1-1.7-1.5-2.8l-16.7,6.5l5.8-5l10.3-3c-0.3-0.3-0.3-0.5-0.5-1l-6.5,2.3l5.5-4c-0.2-0.5-0.8-1-1-1.8
		l-7.3,5.5l3.8-8.8l1-0.5c-0.3-0.5-0.8-1-1-1.5c-13,7.5-20,14.8-20,14.8c-5.8-1.5-16.8-2-16.8-2c9.8-27-9.2-37-9.2-37
		c-28.5,13.7-25.8,38-25.8,38c-1.8,0-18.5,0.3-18.5,0.3C94.8,182,66.3,180,66.3,180c1.5,11,31,36.5,31,36.5l-3.8,0.8
		C48.8,191,25,200,25,200c20.5,2.5,38,11.3,38,11.3c-2.2-0.5-2,1-2,1c73.8,23,80.8,79.5,80.8,79.5l-10.3,0.3c0,5.5,8,4.8,8,4.8h4
		l-7.5,104c12.5,0,25,0,37.5,0c0.3,0,0.5,0,0.8,0l-8.5-104.5h3.3h0.3c6.5,0,5.8-5,5.8-5h-10.2c8-36.2,36.2-58.5,61.5-71.2
		c-0.3-0.3-0.3-0.8-0.5-1C218,222.8,209.8,227.5,202.3,233.3z M220,211.5l-6,4.5l-14,4.5l1.8-2L220,211.5z M150.3,251l-2.8-2.3
		l-0.3-4.3l4.5,4.3L150.3,251z M152.5,249.8l2,2.5c0,0,0,1.8,0,2l0,0l0,0L151,258l-0.8-5.8L152.5,249.8z M151.3,270.3l-1.5-0.8
		l-0.3-2.3l1.8,1L151.3,270.3z M154.3,275l-3,2.8l-1.5-6.5L154.3,275z M152,291h-1.8l-6.3-36.5l2.3,1.3
		C146.3,255.8,148.5,274.3,152,291z M145.8,311.3c0.3-4.8,0.5-9.5,0.8-14.5c0.5,0,0.8,0,1.3,0c-0.3,4.8-0.5,9.5-0.8,14.5
		C146.5,311.3,146.3,311.3,145.8,311.3z M146.8,314.5c-0.3,5.8-0.5,11.3-0.8,17c-0.5,0-1,0-1.5,0c0.3-5.8,0.8-11.3,1-17
		C146,314.5,146.3,314.5,146.8,314.5z M104,225l-6.5-4c0.3,0.3,9.5,4.3,9.5,4.3l3.5,4.2h-2L104,225z M104.3,227.5
		c0.3,0.3-2-0.5-2-0.5l-3.2-3.5C101.5,224.8,104,227.3,104.3,227.5z M124.5,234.8l2,3.3l-2-0.3L109,225.5L124.5,234.8z M123.8,231.3
		h2.3l-0.7,2.5L123.8,231.3z M132.5,230.5l-5.3-0.5l1.5-6.8L132.5,230.5z M132,225l0.5-0.5c2.3,0.3,5,2.3,5,2.3h-4.3L132,225z
		 M133.5,232l1,2l-2,4l-4.5-0.5l-1.5-3l1-3.3L133.5,232z M135,235l1.8,3.8l-3.3-0.3L135,235z M119.3,231h2.5l1.3,2L119.3,231z
		 M117.3,229.5c0,0-10.7-6.3-15.5-11.7l17,9l2.8,3.3L117.3,229.5z M111.8,230.5l11.5,15.5l-13.5-15.5H111.8z M112.5,229l10.5,9l3,3
		l-7.7-5.5L112.5,229z M125.3,239h1.3l2.8,4.2L125.3,239z M128.8,239.5l3.3,0.3l-0.8,3.8L128.8,239.5z M133.5,239.8l2,0.3l2.5,5.8
		l-2.3,6.5l-3.8-7.5L133.5,239.8z M139.3,245.8l4,11.5l-2.8,6l-3.8-9.5C136.8,254,139,247.8,139.3,245.8z M173.5,212.5
		c-0.5,2.8-2,6.5-2,6.5l-13,10.8l1-7L173.5,212.5z M159.8,221.3l0.8-6.8l15.5-10c-0.3,2-1.7,5.8-1.7,5.8L159.8,221.3z M186.3,227
		l-4.5,3.5l4.8-6.8L186.3,227z M187.5,227.5l5.3-3l-0.3,2.5l-5.8,6.3L187.5,227.5z M186.3,228.3l-0.8,5.3l-2.3,3.8L181,232
		L186.3,228.3z M182.5,237.8l-2.5,4l0.3-8.5L182.5,237.8z M179,231.8l-9-0.3l1.3-4.5c4.5,0.5,10.3,0.8,10.3,0.8
		C180,229.3,179,231.8,179,231.8z M169.5,233h9l-5.3,9.8l-6-0.8L169.5,233z M166,239c0,0.3-5.3-0.3-5.3-0.3l6.8-6.3
		C167.5,232.5,166,238.8,166,239z M158.8,231.5l12.3-10l-3,9.8L158.8,231.5z M166,232.5l-8.5,7.5l0.3-7L166,232.5z M158.8,240.3
		l6.3,0.5l-8.5,9.5l0.3-8.3L158.8,240.3z M150,236.8l-3.3,1.7l-0.5-5L150,236.8z M146,226.8l2.5-1.8l1.8,2.3l-3.8,1.5L146,226.8z
		 M146.8,231.3v-1.5l4.3-2l2.5,2.3l-5.5,2.5L146.8,231.3z M153.3,227l3.5-1.3l-0.5,4.3L153.3,227z M156.8,252.5l8-8.3
		c0,2-2.3,11.3-2.3,11.3l-6,6.3L156.8,252.5z M152.5,226.3l-2-1.8l3.3-1.5c0,0,1.3,0,2.8,1.7L152.5,226.3z M149.8,223.8l-1.3-1.3
		l1.8-1.5c0,0,2,0,3,0.8L149.8,223.8z M147.3,221.8l-1.5-1.5c1.5,0,3.5,0.5,3.5,0.5L147.3,221.8z M148,224.5l-2,1.5l-0.5-4
		L148,224.5z M146,254.5l-2.5-2l-2.5-7l4.5,3.3L146,254.5z M142.3,245h3v2.3L142.3,245z M140.3,243.5l-2-5.5l6.8,4.5v1.3
		L140.3,243.5z M143.5,258.8l2.3,12.3l-1.5,3l-3.5-9.8L143.5,258.8z M146,272.5l3,18.3h-1l-3.3-15.5L146,272.5z M147.8,250.5l1.8,1
		l0.3,6.3l-1.5-1.3L147.8,250.5z M147.3,242.8l-0.5-3l3.8-2.3l2.5,2.5l-4.8,3.8L147.3,242.8z M148.8,233.3l5.8-2.7l1.8,1.3L156,234
		l-4.5,2L148.8,233.3z M156.3,263.5l5.3-5l-1.5,9.8l-3.8,3.8V263.5z M167,244l5.8,0.5c0,0-12.3,19.8-13,46.3H158
		C158,290.8,159,272.3,167,244z M164,270.3l1,3.8c0,0-3.5,7-3.8,15.3C161.3,289,161.3,274.5,164,270.3z M164,268.3l3.3-9.8l1.5,5.3
		l-3.3,8.3L164,268.3z M168,256.8l5-11.3v8.3l-3.3,8.3L168,256.8z M174.5,252.8l8.5-6l-7,10.5l-5.8,4.8L174.5,252.8z M174.3,250.8
		V243l4.8-8.3l-0.5,9.3L174.3,250.8z M181,243.3l10.5-7l-4,4.5l-8.8,6L181,243.3z M182,241.3l2.3-3.3l10-4.3L182,241.3z M186,236.3
		l1-1.8l12.5-6.5l-3.8,4L186,236.3z M196.8,228.5l-4.5,2.5l3.5-3.3c0,0,4.3-1.8,4.5-1.8L196.8,228.5z M195.3,227.3l-5.5,3.8l4.5-4.8
		c0,0,11.3-5.5,11.5-5.5L195.3,227.3z M195.5,225l2.5-3l9.5-3.3L195.5,225z M212,217.3h0.5L203,225h-2.5L212,217.3z M212.3,201.8
		l-3.8,9l-6.3,5.3l3-9.5L212.3,201.8z M203.8,207.5l-3.3,10.5l-6.8,7l2.5-11.3L203.8,207.5z M194.8,215.3l-2,7.8l-5,2.5l0.3-3.5
		L194.8,215.3z M192.5,215c-6,5-10.3,11.5-10.3,11.5l-10.5-0.8l3.8-11.7C181.5,214,192.5,215,192.5,215z M176.8,202.3l-15.5,10
		l0.5-5.8l15.2-10.3C177.3,197.5,176.8,202.3,176.8,202.3z M177,194.8l-14.8,10l1-5.8l13.3-8.5C177.5,193,177,194.8,177,194.8z
		 M176.3,189.5l-12.5,7.8l1-5.3l9.8-6C176.3,187.5,176.3,189.5,176.3,189.5z M174.3,184.8l-8.8,5.3l0.5-4l5.8-5.3
		C173,181.8,174.3,184.8,174.3,184.8z M168.3,177.3c1.5,0.8,3,2.8,3,2.8l-4.5,4.3L168.3,177.3z M166.5,177.3l-2,6.8l-2.5-4
		C163.3,179,166.5,177.3,166.5,177.3z M161.3,180.8l2.8,5l-1,5.3l-6.8-5.8C156,185.3,158.8,182.3,161.3,180.8z M155.3,186.3l7.5,5.8
		l-1,5.3l-9.5-7.8C152.3,189.5,153.8,187.3,155.3,186.3z M151.3,190.8l10,7.5l-1,6l-11.5-9.3C150.3,192,151.3,190.8,151.3,190.8z
		 M148,196.8l11.8,9.2l-1,6l-12.8-9C147.3,197,148,196.8,148,196.8z M145.5,204.5l12.8,9.3l-0.8,7.5L145,209.8
		C145,209.8,144.8,206.8,145.5,204.5z M157,223c0,0-6-4.3-11.5-4.8l-0.8-6.3L157,223z M144.5,240.5l-6.5-3.8l-1.8-3.3l8,3.5
		L144.5,240.5z M144.3,236l-8.3-4l-2.3-3.8h1.3l9.3,4V236z M143.8,231l-7-2.8l7,0.3V231z M143.3,226.8l-3.3-0.3l-7.5-3.3
		c0,0-0.3-1,1-1.3l9.8,3.3C143.3,225.3,143.3,226.8,143.3,226.8z M143.3,224.3l-9-2.8c0,0,0.5-0.5,1.8-1l7.3,2.5
		C143.3,223,143.3,224.3,143.3,224.3z M143.3,222.3l-6.5-2c0,0,1-0.3,2.3-0.3l4.5,1.5L143.3,222.3z M140.3,219.8
		c0.8-1,2.8-0.8,2.8-0.8v1.5L140.3,219.8z M143,214v3.5c0,0-10.5,0-11.3,6.3c0,0-4.3-7-6.5-9.8H143z M127.8,221.8L126,230h-3.2
		l-2.3-3.3l2-12.5L127.8,221.8z M115.3,206.3l6.3,6.8l-1.8,12.3l-5-6.8L115.3,206.3z M107.5,199.8l6.5,6l-0.8,11.3l-6-6.3
		L107.5,199.8z M100.5,195.3c2.8,0.8,5.5,3.8,5.5,3.8v10l-6-5.5L100.5,195.3z M99,194.3v8.3l-6.5-5.8l-0.5-6.3
		C95,191.5,99,194.3,99,194.3z M90.5,189.8l1,6.3l-6.8-5l-4-5C80.8,185.8,86,187.5,90.5,189.8z M79.3,185l3,4.8L71,183L79.3,185z
		 M69,182.8l9.5,6l-7.8-3.5C71,185.3,69.5,184.5,69,182.8z M71.8,186.8l11,4.5l6.8,5.3l-13.3-4.8L71.8,186.8z M76.5,193l14.3,4.5
		l6,5.5l-16.5-6.5L76.5,193z M84.3,201.3l-3-3.3l17.3,6.7l5.8,5L84.3,201.3z M86.3,203.3l19.5,7.8l5.5,6l-20.5-10L86.3,203.3z
		 M93,209.8l19.3,9.3l5.3,6C117.5,225,98.3,216.3,93,209.8z M98.8,217l6.3,6l-11-4.8L98.8,217z M97.5,222.8l-4.8-2.3l-2.5-3
		C94.8,219.5,97.5,222.8,97.5,222.8z M91.3,220.5l-7.8-5c0.3,0,5,2,5,2L91.3,220.5z M83.5,213.3l2.3,1.8l-3.3-0.5l-5.5-4.2
		L83.5,213.3z M73.3,208.3l6.5,5.3l-6.8-3.3l-7.5-4.8L73.3,208.3z M61.8,204l7.8,5.5l-16.2-7.3C55.5,202,61.8,204,61.8,204z
		 M49.8,201l7.3,4.3l-14-4.8C45.5,200.5,49.8,201,49.8,201z M33.5,200.3l4.8-0.3c0.3,0.3,5.3,1.8,5.3,1.8L33.5,200.3z M53,205.5
		c7.8,1,21.8,7.3,21.8,7.3h-3.2L53,205.5z M76,213.5l10.8,5l-13.5-4.8L76,213.5z M81.8,217.8l11.5,5l12,9.5L81.8,217.8z M104,229.5
		l-1-1.5l3.3,1.3l4.8,6.5L104,229.5z M110.5,234.3h0.8l6.3,8.3L110.5,234.3z M118.8,244.3l1-0.5l4.5,6.5L118.8,244.3z M118.5,237
		l9.3,6l6.2,9.2l-9.3-6.7L118.5,237z M126.8,248l8,6.3c0,0,4,8.8,4,8.5s-6.5-5.3-6.5-5.3L126.8,248z M134.3,260.3l5.5,4.3l2.8,8.8
		l-3.3-2.3L134.3,260.3z M139.5,273l3.8,2.5l3.5,15.5H146L139.5,273z M142.5,400.3c-0.8,0-1.3,0-2,0c0.3-5.3,0.5-10.3,1-15.5
		c0.8,0,1.3,0,1.8,0C143,389.8,142.8,395,142.5,400.3z M143.5,379.8c-0.5,0-1.3,0-1.8,0c0.5-7.3,0.8-14.3,1.3-21.5c0.5,0,1,0,1.8,0
		C144.3,365.5,143.8,372.8,143.5,379.8z M144.8,354.3c-0.5,0-1,0-1.5,0c0.3-6.3,0.8-12.8,1-19c0.5,0,1,0,1.5,0
		C145.3,341.5,145,347.8,144.8,354.3z M147.8,400.3c-0.8,0-1.3,0-2,0c0.3-5.3,0.5-10.3,0.5-15.5c0.8,0,1.3,0,1.8,0
		C148,389.8,147.8,395,147.8,400.3z M148.3,379.8c-0.5,0-1.3,0-1.8,0c0.3-7.3,0.5-14.3,0.8-21.5c0.5,0,1,0,1.8,0
		C148.8,365.5,148.5,372.5,148.3,379.8z M149,354.3c-0.5,0-1,0-1.8,0c0.2-6.3,0.5-12.8,0.8-19c0.5,0,1,0,1.5,0
		C149.5,341.5,149.3,347.8,149,354.3z M149.8,331.5c-0.5,0-1,0-1.5,0c0.3-5.8,0.5-11.5,0.8-17c0.5,0,0.8,0,1.3,0
		C150,320,149.8,325.8,149.8,331.5z M150.3,311.3c-0.5,0-0.8,0-1.3,0c0.3-4.8,0.3-9.8,0.5-14.5c0.3,0,0.8,0,1.3,0
		C150.5,301.5,150.5,306.3,150.3,311.3z M153.8,400.3c-0.8,0-1.3,0-1.8,0c0-5.3,0-10.3,0-15.5c0.8,0,1.3,0,1.8,0
		C153.8,389.8,153.8,395,153.8,400.3z M153.8,379.8c-0.5,0-1.3,0-1.8,0c0-7.3,0-14.3,0-21.5c0.8,0,1.3,0,1.8,0
		C153.8,365.5,153.8,372.8,153.8,379.8z M154,354.3c-0.5,0-1,0-1.5,0c0-6.3,0-12.8,0-19c0.8,0,1,0,1.5,0
		C154,341.5,154,347.8,154,354.3z M154,331.5c-0.5,0-0.8,0-1.3,0c0-5.8,0-11.3,0-17c0.5,0,1,0,1.3,0C154,320,154,325.8,154,331.5z
		 M154.3,311.3c-0.5,0-0.8,0-1,0c0-5,0-9.8,0-14.5c0.5,0,0.8,0,1,0C154.3,301.5,154.3,306.3,154.3,311.3z M153,291l-1.8-12l2.5-2.3
		l0.5,14.3H153L153,291z M154.3,272.8l-2-1.8l-0.3-2.5l2.5-2.3L154.3,272.8z M154.3,265l-2.8,2.5l-2.3-1.8l-0.8-7l5.8,4.5V265z
		 M154.5,261.3l-2.8-2.3l3-3L154.5,261.3z M154.8,250.5L153,249l2-1.8L154.8,250.5z M155,246l-2.3,2.3l-3.3-3.3l4.5-4l1.3,1L155,246
		z M152.5,237c0.3,0,3.5-1.7,3.5-1.7l-0.5,5L152.5,237z M155.5,274.5l4-3.5l-2.8,20h-1.3V274.5z M156.3,296.8c0.3,0,0.5,0,1,0
		c0,4.8,0,9.5,0,14.5c-0.3,0-0.5,0-1,0C156.3,306.5,156.3,301.8,156.3,296.8z M156.5,314.5c0.3,0,0.8,0,1.3,0c0,5.8,0.3,11.3,0.3,17
		c-0.5,0-1,0-1.5,0C156.5,325.8,156.5,320.3,156.5,314.5z M156.5,335c0.5,0,0.8,0,1.3,0c0,6.3,0.3,12.8,0.3,19c-0.5,0-1,0-1.8,0
		C156.5,347.8,156.5,341.5,156.5,335z M156.8,358.3c0.5,0,1,0,1.5,0c0,7.3,0.3,14.3,0.3,21.5c-0.8,0-1.3,0-1.8,0
		C156.8,372.8,156.8,365.5,156.8,358.3z M158.8,400.3c-0.5,0-1,0-1.8,0c0-5.3,0-10.3,0-15.5c0.5,0,1,0,1.8,0
		C158.8,389.8,158.8,395,158.8,400.3z M159.3,296.8c0.5,0,0.8,0,1.3,0c0.2,4.8,0.5,9.5,0.5,14.5c-0.5,0-0.8,0-1.3,0
		C159.5,306.5,159.3,301.5,159.3,296.8z M159.8,314.5c0.5,0,0.8,0,1.3,0c0.3,5.8,0.5,11.3,0.8,17c-0.5,0-1,0-1.5,0
		C160,325.8,160,320.3,159.8,314.5z M160.3,335c0.5,0,1,0,1.5,0c0.2,6.3,0.5,12.8,0.8,19c-0.5,0-1,0-1.5,0
		C160.8,348,160.5,341.5,160.3,335z M162.3,296.8c0.3,0,0.8,0,1.3,0c0.3,4.8,0.5,9.5,0.8,14.5c-0.5,0-0.8,0-1.3,0
		C162.8,306.5,162.5,301.8,162.3,296.8z M161,358.3c0.5,0,1,0,1.8,0c0.3,7,0.5,14.3,0.8,21.5c-0.8,0-1.3,0-1.7,0
		C161.5,372.8,161.3,365.5,161,358.3z M162.3,400.3c-0.3-5.3-0.3-10.3-0.5-15.5c0.8,0,1.3,0,1.7,0c0.3,5.3,0.5,10.3,0.5,15.5
		C163.5,400.3,163,400.3,162.3,400.3z M169.5,400c-0.8,0-1.3,0-2,0c-0.3-5.3-0.5-10.3-0.8-15.5c0.8,0,1.3,0,1.7,0
		C169,389.8,169.3,394.8,169.5,400z M168.5,379.8c-0.8,0-1.3,0-1.7,0c-0.3-7.3-0.8-14.3-1-21.5c0.5,0,1,0,1.8,0
		C167.5,365.5,168,372.5,168.5,379.8z M165.8,335.3c0.5,6.3,0.8,12.8,1.3,19c-0.5,0-1,0-1.5,0c-0.3-6.3-0.8-12.8-1-19
		C164.8,335.3,165.3,335.3,165.8,335.3z M165.5,331.5c-0.5,0-1,0-1.5,0c-0.3-5.8-0.5-11.3-1-17c0.5,0,0.8,0,1.3,0
		C164.8,320,165.3,325.8,165.5,331.5z M162.3,290.5h-0.8L166,274c0.8-1.3,3.5-3.3,3.5-3.3C166.3,274.5,162.3,290.5,162.3,290.5z
		 M167.3,271.3l2.5-7l5.3-5l-4.8,9.8L167.3,271.3z M174,264.5c-0.8,1.8-1,2.8-1,2.8C173.3,266.5,173.5,265.5,174,264.5
		c1.5-3.8,5.3-11.3,11.3-18.5l1,0.5C186,246.8,177.3,258.3,174,264.5z M183.8,245.3l-8,5.5l1.3-2.3l8.8-6.3L183.8,245.3z M187,245.8
		l-0.8-0.8l7.3-8l0.8,1.3L187,245.8z M195,236.8l-0.8-1l4-4.2l1.5,1L195,236.8z M198.8,229.8l13.5-11l3.5,2.8l-14.8,10L198.8,229.8z
		"/>
	<path fill="#FFFFFF" d="M146.5,379.8c0.8,0,1.3,0,1.8,0c0.3-7.3,0.5-14.3,0.5-21.5c-0.5,0-1,0-1.8,0
		C147,365.5,146.8,372.8,146.5,379.8z"/>
	<path fill="#FFFFFF" d="M158.3,358.3c-0.5,0-1,0-1.5,0c0,7.3,0,14.5,0,21.5c0.8,0,1.3,0,1.8,0C158.5,372.8,158.5,365.5,158.3,358.3
		z"/>
	<path fill="#FFFFFF" d="M152.3,379.8c0.5,0,1,0,1.8,0c0-7.3,0-14.3,0-21.5c-0.5,0-1,0-1.8,0C152.3,365.5,152.3,372.8,152.3,379.8z"
		/>
	<path fill="#FFFFFF" d="M162.8,358.3c-0.8,0-1,0-1.8,0c0.3,7.3,0.5,14.3,0.8,21.5c0.8,0,1.3,0,1.7,0
		C163.3,372.5,163,365.5,162.8,358.3z"/>
	<path fill="#FFFFFF" d="M166.5,379.8c0.8,0,1.3,0,1.7,0c-0.5-7.3-0.8-14.3-1.3-21.5c-0.5,0-1,0-1.7,0
		C165.8,365.5,166.3,372.8,166.5,379.8z"/>
	<path fill="#FFFFFF" d="M141.5,379.8c0.8,0,1.3,0,1.8,0c0.3-7.3,0.8-14.3,1-21.5c-0.5,0-1,0-1.8,0
		C142.5,365.5,142,372.8,141.5,379.8z"/>
	<path fill="#FFFFFF" d="M157,400.3c0.8,0,1.3,0,1.8,0c0-5.3,0-10.3,0-15.5c-0.8,0-1.3,0-1.8,0C157,389.8,157,395,157,400.3z"/>
	<path fill="#FFFFFF" d="M161.8,384.5c0.2,5.3,0.2,10.3,0.5,15.5c0.8,0,1.3,0,2,0c-0.3-5.3-0.5-10.5-0.5-15.5
		C163,384.5,162.5,384.5,161.8,384.5z"/>
	<path fill="#FFFFFF" d="M145.8,400.3c0.8,0,1.3,0,2,0c0.3-5.3,0.3-10.3,0.5-15.5c-0.8,0-1.3,0-1.8,0C146,389.8,146,395,145.8,400.3
		z"/>
	<path fill="#FFFFFF" d="M167.5,400c0.8,0,1.3,0,2,0c-0.2-5.3-0.8-10.5-1-15.5c-0.8,0-1.3,0-1.7,0C167,389.8,167.3,395,167.5,400z"
		/>
	<path fill="#FFFFFF" d="M140.5,400.3c0.8,0,1.3,0,2,0c0.3-5.3,0.5-10.3,0.8-15.5c-0.8,0-1.3,0-1.8,0
		C141,389.8,140.8,395,140.5,400.3z"/>
	<path fill="#FFFFFF" d="M152.5,354.3c0.5,0,1,0,1.5,0c0-6.5,0-12.8,0-19c-0.5,0-0.8,0-1.5,0C152.5,341.5,152.5,348,152.5,354.3z"/>
	<path fill="#FFFFFF" d="M152,400.3c0.5,0,1.3,0,1.8,0c0-5.3,0-10.5,0-15.5c-0.5,0-1.3,0-1.8,0C152,389.8,152,395,152,400.3z"/>
	<path fill="#FFFFFF" d="M158,335c-0.5,0-1,0-1.3,0c0,6.5,0,12.8,0,19c0.5,0,1,0,1.8,0C158.3,347.8,158,341.5,158,335z"/>
	<path fill="#FFFFFF" d="M147.5,354.3c0.5,0,1,0,1.8,0c0.3-6.5,0.3-12.8,0.5-19c-0.5,0-1,0-1.5,0C148,341.5,147.8,348,147.5,354.3z"
		/>
	<path fill="#FFFFFF" d="M161.8,335c-0.5,0-1,0-1.5,0c0.3,6.5,0.5,12.8,0.5,19c0.5,0,1,0,1.5,0C162.3,347.8,162,341.5,161.8,335z"/>
	<path fill="#FFFFFF" d="M143,354.3c0.5,0,1,0,1.5,0c0.3-6.3,0.8-12.8,1-19c-0.5,0-1,0-1.5,0C143.8,341.5,143.5,348,143,354.3z"/>
	<path fill="#FFFFFF" d="M165.3,354.3c0.5,0,1,0,1.5,0c-0.5-6.5-0.8-12.8-1.3-19c-0.5,0-1,0-1.5,0C164.5,341.5,165,348,165.3,354.3z
		"/>
	<path fill="#FFFFFF" d="M157.5,314.5c-0.5,0-0.8,0-1.3,0c0,5.8,0,11.5,0,17c0.5,0,1,0,1.5,0C157.8,325.8,157.8,320,157.5,314.5z"/>
	<path fill="#FFFFFF" d="M161,314.5c-0.5,0-0.8,0-1.3,0c0.3,5.8,0.3,11.3,0.5,17c0.5,0,1,0,1.5,0C161.5,325.8,161.3,320,161,314.5z"
		/>
	<path fill="#FFFFFF" d="M144.5,331.5c0.5,0,1,0,1.5,0c0.2-5.8,0.5-11.5,0.8-17c-0.5,0-0.8,0-1.3,0
		C145,320.3,144.8,325.8,144.5,331.5z"/>
	<path fill="#FFFFFF" d="M163.3,314.5c0.3,5.8,0.5,11.5,1,17c0.5,0,1,0,1.5,0c-0.2-5.8-0.8-11.5-1-17
		C164,314.5,163.8,314.5,163.3,314.5z"/>
	<path fill="#FFFFFF" d="M148.3,331.5c0.5,0,1,0,1.5,0c0.2-5.8,0.2-11.5,0.5-17c-0.5,0-0.8,0-1.3,0
		C148.8,320,148.5,325.8,148.3,331.5z"/>
	<path fill="#FFFFFF" d="M152.8,331.5c0.5,0,0.8,0,1.3,0c0-5.8,0-11.5,0-17c-0.5,0-0.8,0-1.3,0C152.8,320.3,152.8,325.8,152.8,331.5
		z"/>
	<path fill="#FFFFFF" d="M153,311.3c0.3,0,0.8,0,1,0c0-5,0-9.8,0-14.5c-0.2,0-0.8,0-1,0C153,301.5,153,306.3,153,311.3z"/>
	<path fill="#FFFFFF" d="M157.3,296.8c-0.5,0-0.8,0-1,0c0,5,0,9.8,0,14.5c0.5,0,0.8,0,1,0C157.3,306.3,157.3,301.5,157.3,296.8z"/>
	<path fill="#FFFFFF" d="M160.3,296.8c-0.5,0-0.8,0-1.3,0c0.3,5,0.3,9.8,0.5,14.5c0.5,0,0.8,0,1.3,0
		C160.8,306.3,160.5,301.5,160.3,296.8z"/>
	<path fill="#FFFFFF" d="M164.3,311.3c-0.3-5-0.5-9.8-0.8-14.5c-0.5,0-0.8,0-1.3,0c0.3,4.8,0.5,9.8,0.8,14.5
		C163.5,311.3,163.8,311.3,164.3,311.3z"/>
	<path fill="#FFFFFF" d="M149,311.3c0.5,0,0.8,0,1.3,0c0.3-4.8,0.3-9.8,0.5-14.5c-0.5,0-0.8,0-1.3,0
		C149.3,301.5,149.3,306.3,149,311.3z"/>
	<path fill="#FFFFFF" d="M147.8,296.8c-0.5,0-0.8,0-1.3,0c-0.3,4.8-0.5,9.8-0.8,14.5c0.5,0,0.8,0,1.3,0
		C147.3,306.3,147.5,301.5,147.8,296.8z"/>
	<path fill="none" d="M290.3,211.5l5.8,5l-16.8-6.5c0.3-0.5,0.5-1,1-1.5L290.3,211.5z"/>
	<path fill="none" d="M286,201l3.8,8.8l-7.3-5.5c1-1.5,1.8-2.8,2.5-4L286,201z"/>
	<path fill="none" d="M287,209.8l-6.5-2.3c0.3-0.5,0.8-1,1-1.8L287,209.8z"/>
	<path fill="none" d="M282.5,220c0,0-2.8-1.5-7-3.5c0.8-1.3,1.5-2.5,2-3.8c2.5,1.7,5,3.5,7.8,5.5L282.5,220z"/>
	<path fill="none" d="M447,205.5l-18.5,7.3h-3.3C425.3,212.8,439.5,206.8,447,205.5z"/>
	<path fill="none" d="M431,182.8c-0.5,1.7-2,2.5-2,2.5l-7.8,3.5L431,182.8z"/>
	<polygon fill="none" points="420.3,213.5 426.8,208.3 434.5,205.8 427,210.3 	"/>
	<path fill="none" d="M438.3,204c0,0,6.3-2,8.5-1.8l-16.3,7.3L438.3,204z"/>
	<path fill="none" d="M450.3,201c0,0,4-0.5,6.5-0.3l-14,4.8L450.3,201z"/>
	<path fill="#9D1C20" d="M364.8,400.8c-0.3,0-0.5,0-0.8,0c-13.5,0-27,0-40.8,0c-0.3,0-0.5,0-0.8,0c-6.8,0.5-11.3,6.3-10,13
		c21,0,42,0,63,0C376.8,406.8,372,400.8,364.8,400.8z"/>
	<g>
		<path fill="none" d="M336,270.3c2.8,4.3,2.8,19,2.8,19C338.5,281,335,274,335,274L336,270.3z"/>
		<path fill="none" d="M340.5,290.8c-0.8-26.5-13-46.3-13-46.3l5.8-0.5c8,28.3,9,46.7,9,46.7H340.5z"/>
		<polygon fill="none" points="331.3,264 332.8,258.5 336,268.3 334.8,272.3 		"/>
		<polygon fill="none" points="349.5,237.5 353.3,239.8 352.8,242.8 351.5,244 347,240 		"/>
		<path fill="none" d="M343,223l12.2-11l-0.8,6.3C348.8,218.8,343,223,343,223z"/>
		<polygon fill="none" points="338.5,258.5 343.8,263.5 343.8,272 340,268.3 		"/>
		<polygon fill="none" points="327,253.8 327,245.5 332,256.8 330.5,262 		"/>
		<polygon fill="none" points="321,234.8 325.8,243 325.8,250.8 321.5,244 		"/>
		<polygon fill="none" points="315.8,238 318,241.3 305.8,233.8 		"/>
		<polygon fill="none" points="317,246.8 325.5,252.8 329.5,262 323.8,257.3 		"/>
		<polygon fill="none" points="308.8,236.5 319,243.3 321.3,246.8 312.5,240.8 		"/>
		<polygon fill="none" points="354,225.8 352,224.5 354.5,221.8 		"/>
		<path fill="none" d="M352.8,221.8l-2-1c0,0,2-0.5,3.5-0.5L352.8,221.8z"/>
		<polygon fill="none" points="359,245.5 356.5,252.5 354,254.5 354.5,248.5 		"/>
		<path fill="none" d="M335.5,244.3l8,8.3l0.3,9.3l-6-6.3C337.5,255.5,335.3,246.3,335.5,244.3z"/>
		<polygon fill="none" points="350.8,251.5 352.3,250.5 351.8,256.5 350.3,258 		"/>
		<path fill="none" d="M351.5,222.5l-1.3,1l-3.5-1.7c1-0.8,3-0.8,3-0.8L351.5,222.5z"/>
		<polygon fill="none" points="354.3,271 356.5,258.8 359,264.5 355.8,274 		"/>
		<path fill="none" d="M351.3,291l3-18.3l1.3,3l-3.3,15.5C352,291,351.3,291,351.3,291z"/>
		<polygon fill="none" points="361.8,238.3 359.8,243.5 355,243.5 355,242.5 		"/>
		<polygon fill="none" points="357.8,245 354.8,247.3 354.8,245 		"/>
		<path fill="none" d="M349.3,224.5l-2,1.8l-4.3-1.8c1.5-1.7,2.8-1.7,2.8-1.7L349.3,224.5z"/>
		<path fill="none" d="M331.8,177.3l1.5,7l-4.5-4.3C329,179.8,330.5,177.8,331.8,177.3z"/>
		<path fill="none" d="M337.8,204.8l-14.7-10c0,0-0.5-1.7,0.5-4.5l13.3,8.5L337.8,204.8z"/>
		<path fill="none" d="M333.5,177.3c0,0,3.3,1.8,4.2,2.8l-2.2,4L333.5,177.3z"/>
		<path fill="none" d="M334.5,190l-8.8-5.3c0,0,1.3-3,2.5-4l5.8,5.3L334.5,190z"/>
		<path fill="none" d="M336.3,197.3l-12.5-7.8c0,0,0-2,1.5-3.5l9.8,6L336.3,197.3z"/>
		<path fill="none" d="M336,185.8l2.8-5c2.5,1.5,5,4.3,5,4.3l-6.8,5.8L336,185.8z"/>
		<path fill="none" d="M342.5,221.3l-0.8-7.5l12.8-9.3c0.5,2.3,0.5,5.3,0.5,5.3L342.5,221.3z"/>
		<path fill="none" d="M340.3,206l11.8-9.2c0,0,0.5,0.2,2,6.3l-12.8,9L340.3,206z"/>
		<path fill="none" d="M337.3,192l7.5-5.8c1.3,1,3,3.5,3,3.5l-9.5,7.8L337.3,192z"/>
		<polygon fill="none" points="300.8,227.8 313,234.3 314,236.3 304.5,232 		"/>
		<path fill="none" d="M338.8,198.3l10-7.5c0,0,1,1.3,2.5,4.3l-11.5,9.3L338.8,198.3z"/>
		<polygon fill="none" points="287.5,217 288,217.3 299.5,224.8 297,224.8 		"/>
		<polygon fill="none" points="301.8,222.3 304.5,225 292.3,219 		"/>
		<path fill="none" d="M305.5,226.5l4.5,4.8l-5.5-3.8L294,221C294.3,221,305.5,226.5,305.5,226.5z"/>
		<path fill="none" d="M304.3,227.8l3.5,3.3l-4.5-2.5l-3.5-2.5C300,226,304.3,227.8,304.3,227.8z"/>
		<polygon fill="none" points="312.3,225.5 307.3,223 305.3,215.3 312,222 		"/>
		<polygon fill="none" points="291.8,210.8 287.8,201.8 294.8,206.5 297.8,216 		"/>
		<path fill="none" d="M328,225.5l-10.5,0.8c0,0-4.3-6.5-10.3-11.5c0,0,11.3-1,16.8-1.3L328,225.5z"/>
		<path fill="none" d="M338.3,206.8l0.5,5.8l-15.5-10c0,0-0.5-5-0.3-5.8L338.3,206.8z"/>
		<polygon fill="none" points="299.5,218 296.3,207.5 303.8,214 306.3,225 		"/>
		<polygon fill="none" points="343.8,231.8 345.5,230.5 351.3,233.3 348.5,236 344,234 		"/>
		<polygon fill="none" points="375.3,237.8 373.3,238.3 375.5,234.8 391,225.8 		"/>
		<polygon fill="none" points="374,231.3 376.3,231.3 374.8,233.8 		"/>
		<polygon fill="none" points="372.8,230 367.5,230.5 371.3,223.3 		"/>
		<path fill="none" d="M397.8,226.8c0,0-2.2,0.8-2,0.5c0.3-0.3,2.8-2.8,5.3-4L397.8,226.8z"/>
		<path fill="none" d="M398.3,217.8c-5,5.5-15.5,11.7-15.5,11.7l-4.2,0.5l2.8-3.3L398.3,217.8z"/>
		<polygon fill="none" points="380.8,231 377,233 378.3,231 		"/>
		<path fill="none" d="M362.5,226.8c0,0,2.8-2,5-2.3l0.5,0.5l-1,1.7L362.5,226.8L362.5,226.8z"/>
		<path fill="none" d="M356,254.5l-6.3,36.5H348c3.5-16.8,5.8-35.3,5.8-35.3L356,254.5z"/>
		<polygon fill="none" points="365,235 366.5,238.8 363.3,239 		"/>
		<polygon fill="none" points="373.8,234.8 372.3,237.8 367.8,238.3 365.8,234 366.5,232 373,231.5 		"/>
		<path fill="none" d="M389.5,229.3l3.5-4.3c0,0,9-4,9.5-4.3L396,225l-4.5,4.3H389.5z"/>
		<path fill="none" d="M274.3,219c0-0.3,0.3-0.5,0.3-0.8c14.5,7.5,23.3,15,23.3,15C290.3,227.5,282,222.8,274.3,219z"/>
		<path fill="none" d="M349,258l-3.5-3.8v-2l2-2.5l2.3,2.5L349,258z"/>
		<path fill="none" d="M348.8,277.8l-3-2.8l4.5-3.8L348.8,277.8z"/>
		<polygon fill="none" points="350.3,269.5 348.8,270.3 348.8,268.3 350.5,267.3 		"/>
		<polygon fill="none" points="352.5,248.8 349.8,251 348.5,248.8 353,244.5 		"/>
		<polygon fill="none" points="300,220.5 286,216 280,211.5 298.3,218.5 		"/>
		<path fill="none" d="M334,239c0-0.3-1.5-6.5-1.5-6.5l6.8,6.3C339.3,238.8,334,239.3,334,239z"/>
		<polygon fill="none" points="343.3,226 346.8,227 343.8,230 		"/>
		<polygon fill="none" points="341.3,231.5 332.3,231 329,221.3 		"/>
		<polygon fill="none" points="388.3,230.5 390.5,230.8 376.8,246 		"/>
		<polygon fill="none" points="342.5,240 334,232.5 342,233 		"/>
		<polygon fill="none" points="320,241.8 317.5,237.8 319.8,233.3 		"/>
		<polygon fill="none" points="321.5,233 330.5,233 332.8,242 326.8,242.8 		"/>
		<polygon fill="none" points="348.8,227.8 353,229.8 353.3,231.3 352,232.3 346.5,229.8 		"/>
		<polygon fill="none" points="351.5,225 354,226.8 353.5,228.8 349.5,227.3 		"/>
		<polygon fill="none" points="343.3,250.3 334.8,240.8 341.3,240.3 343,242 		"/>
		<polygon fill="none" points="350,236.8 353.8,233.5 353.3,238.5 		"/>
		<path fill="none" d="M330,231.5l-9,0.3c0,0-0.8-2.5-2.3-3.8c0,0,5.8-0.3,10.3-0.8L330,231.5z"/>
		<polygon fill="none" points="362,245.8 364.5,240 366.5,239.8 368,244.5 364.3,252.3 		"/>
		<path fill="none" d="M357,257.3l4-11.5c0.3,2,2.5,8.3,2.5,8.3l-3.8,9.5L357,257.3z"/>
		<polygon fill="none" points="368,239.8 371.3,239.5 368.5,243.5 		"/>
		<polygon fill="none" points="377,237.8 387.5,229 381.5,235.3 374,240.8 		"/>
		<polygon fill="none" points="373.3,239 374.8,239 370.5,243.3 		"/>
		<polygon fill="none" points="316.8,237.3 314.5,233.5 313.8,228.3 319,232 		"/>
		<polygon fill="none" points="307.5,224.5 312.5,227.5 313.5,233 307.8,226.8 		"/>
		<polygon fill="none" points="313.8,227 313.3,223.5 318,230.5 		"/>
		<path fill="none" d="M341.5,229.8l-13-10.8c0,0-1.5-3.8-2-6.5l14.3,10.5L341.5,229.8z"/>
		<path fill="none" d="M324,204.3l15.5,10l0.8,6.7l-14.5-11.3C325.8,210,324,206.3,324,204.3z"/>
		<polygon fill="none" points="401.3,204.5 418.5,198 415.8,201.3 395.8,209.8 		"/>
		<polygon fill="none" points="348.8,278.8 347,291 345.8,291 346.3,276.5 		"/>
		<polygon fill="none" points="353.3,291 356.8,275.5 360.5,273 354.3,291 		"/>
		<path fill="none" d="M365.3,254.3l8-6.3l-5.3,9.5l-6.5,5.3C361.3,262.8,365.3,254.3,365.3,254.3z"/>
		<polygon fill="none" points="360.5,264.5 365.8,260.3 360.8,271 357.8,273.5 		"/>
		<polygon fill="none" points="350.5,265.8 348.3,267.5 345.8,265 345.8,263.3 351.3,258.8 		"/>
		<polygon fill="none" points="345.5,261.3 345.5,256 348.5,259 		"/>
		<polygon fill="none" points="348,271 345.8,272.8 345.8,266.3 348.3,268.5 		"/>
		<polygon fill="none" points="418.3,217.8 394.8,232.3 406.8,222.8 		"/>
		<polygon fill="none" points="397,228 396,229.5 389,236 393.8,229.5 		"/>
		<polygon fill="none" points="372.3,243 381.5,237 375.3,245.5 366,252.3 		"/>
		<polygon fill="none" points="424,213.5 426.8,213.8 413.3,218.5 		"/>
		<polygon fill="none" points="389.5,234.3 382.5,242.3 388.5,234 		"/>
		<polygon fill="none" points="381.3,244.3 375.8,250.3 380.3,243.8 		"/>
		<polygon fill="none" points="330.5,264.3 332.8,271.3 329.8,269 325,259.3 		"/>
		<polygon fill="none" points="305.8,235.8 305,236.8 300.3,232.5 301.8,231.5 		"/>
		<polygon fill="none" points="313.8,245 313,245.8 305.8,238 306.5,236.8 		"/>
		<polygon fill="none" points="345.3,250.5 345,247.3 347,249 		"/>
		<polygon fill="none" points="362,236.8 355.5,240.5 355.8,237 363.8,233.5 		"/>
		<polygon fill="none" points="324,251 316.3,245.3 314,242.3 322.8,248.5 		"/>
		<polygon fill="none" points="287.8,218.8 301.3,229.8 299,231.8 284.3,221.5 		"/>
		<path fill="none" d="M347.5,237l-3,3.3l-0.5-5C344,235.3,347.5,237,347.5,237z"/>
		<polygon fill="none" points="350.5,245 347.3,248.3 345,246 344.8,242 346,240.8 		"/>
		<polygon fill="none" points="340.5,271 344.5,274.5 344.5,291 343.3,291 		"/>
		<path fill="none" d="M326,264.5c-3-6.3-12-17.7-12-17.7l1-0.5C320.8,253.3,324.3,260.8,326,264.5z"/>
		<path fill="none" d="M334,274l4.5,16.5h-0.8c0,0-4-16-7.2-19.8C330.5,270.8,333.3,272.8,334,274z"/>
		<path fill="none" d="M326,264.5c0.5,1,1,2,1,2.8C327,267.3,326.8,266.3,326,264.5z"/>
		<path fill="none" d="M408.5,196l1-6.3c4.5-2.3,9.7-3.8,9.7-3.8l-4,5L408.5,196z"/>
		<polygon fill="none" points="378.5,213 384.8,206.3 385.5,218.5 380.3,225.3 		"/>
		<path fill="none" d="M394,199c0,0,2.8-2.8,5.5-3.8l0.5,8.3l-6,5.5V199z"/>
		<polygon fill="none" points="386,205.5 392.5,199.8 392.8,210.5 386.8,217 		"/>
		<path fill="none" d="M401,202.8v-8.3c0,0,4-3,7-3.8l-0.5,6.3L401,202.8z"/>
		<polygon fill="none" points="417.5,191 428.3,186.8 424,191.8 410.8,196.3 		"/>
		<polygon fill="none" points="420.8,185 428.8,183 417.5,189.5 		"/>
		<polygon fill="none" points="409.3,197.5 423.5,193 419.8,196.5 403.3,203 		"/>
		<polygon fill="none" points="356.3,231 356.3,228.3 363,228.3 		"/>
		<path fill="none" d="M367.5,223.3l-7.5,3.3l-3.3,0.3v-1.3l9.7-3.3C367.8,222.3,367.5,223.3,367.5,223.3z"/>
		<polygon fill="none" points="366.5,228.3 364.3,232 355.8,236 355.8,232.3 365,228.3 		"/>
		<path fill="none" d="M363.5,220.3l-6.5,2v-1l4.5-1.5C362.3,219.8,363.5,220.3,363.5,220.3z"/>
		<path fill="none" d="M357,217.8v-3.5l18,0.2c-2.3,2.5-6.5,9.8-6.5,9.8C367.5,217.8,357,217.8,357,217.8z"/>
		<polygon fill="none" points="377.3,230 374,230 372.3,221.8 377.5,214.3 379.5,226.8 		"/>
		<path fill="none" d="M359.8,219.8l-2.8,1v-1.5C357,219.3,359,218.8,359.8,219.8z"/>
		<path fill="none" d="M365.8,221.5l-9,2.8v-1l7.2-2.5C365.3,220.8,365.8,221.5,365.8,221.5z"/>
		<polygon fill="none" points="401.3,217 406,218.3 395,223 		"/>
		<path fill="none" d="M402.5,222.8c0,0,2.5-3.3,7.3-5l-2.5,3L402.5,222.8z"/>
		<path fill="none" d="M408.8,220.5l2.8-3c0,0,4.8-2,5-2L408.8,220.5z"/>
		<polygon fill="none" points="394.5,211 413.8,203.3 409.5,207.3 389,217.3 		"/>
		<path fill="none" d="M387.5,219l19.3-9.3c-5.3,6.5-24.5,15.3-24.5,15.3L387.5,219z"/>
		<polygon fill="none" points="414.3,215 416.5,213.3 423,210.3 417.5,214.5 		"/>
		<path fill="#FFFFFF" d="M353.5,379.8c-0.8,0-1.3,0-1.8,0c-0.3-7.3-0.5-14.3-0.5-21.5c0.5,0,1,0,1.8,0
			C353,365.5,353.3,372.8,353.5,379.8z"/>
		<path fill="#FFFFFF" d="M341.8,358.3c0.5,0,1,0,1.5,0c0,7.3,0,14.5,0,21.5c-0.8,0-1.3,0-1.8,0
			C341.5,372.8,341.5,365.5,341.8,358.3z"/>
		<path fill="#FFFFFF" d="M347.8,379.8c-0.5,0-1,0-1.7,0c0-7.3,0-14.3,0-21.5c0.5,0,1,0,1.7,0C347.8,365.5,347.8,372.8,347.8,379.8z
			"/>
		<path fill="#FFFFFF" d="M337.3,358.3c0.8,0,1,0,1.7,0c-0.3,7.3-0.5,14.3-0.8,21.5c-0.8,0-1.3,0-1.8,0
			C336.8,372.5,337,365.5,337.3,358.3z"/>
		<path fill="#FFFFFF" d="M333.5,379.8c-0.8,0-1.3,0-1.8,0c0.5-7.3,0.8-14.3,1.3-21.5c0.5,0,1,0,1.8,0
			C334.3,365.5,333.8,372.8,333.5,379.8z"/>
		<path fill="#FFFFFF" d="M358.5,379.8c-0.8,0-1.3,0-1.8,0c-0.3-7.3-0.8-14.3-1-21.5c0.5,0,1,0,1.8,0
			C357.5,365.5,358,372.8,358.5,379.8z"/>
		<path fill="#FFFFFF" d="M343,400.3c-0.8,0-1.3,0-1.8,0c0-5.3,0-10.3,0-15.5c0.8,0,1.3,0,1.8,0C343,389.8,343,395,343,400.3z"/>
		<path fill="#FFFFFF" d="M338.3,384.5c-0.3,5.3-0.3,10.3-0.5,15.5c-0.8,0-1.3,0-2,0c0.3-5.3,0.5-10.5,0.5-15.5
			C337,384.5,337.5,384.5,338.3,384.5z"/>
		<path fill="#FFFFFF" d="M354.3,400.3c-0.8,0-1.3,0-2,0c-0.3-5.3-0.3-10.3-0.5-15.5c0.8,0,1.3,0,1.8,0
			C354,389.8,354,395,354.3,400.3z"/>
		<path fill="#FFFFFF" d="M332.5,400c-0.8,0-1.3,0-2,0c0.3-5.3,0.8-10.5,1-15.5c0.8,0,1.3,0,1.8,0C333,389.8,332.8,395,332.5,400z"
			/>
		<path fill="#FFFFFF" d="M359.5,400.3c-0.8,0-1.3,0-2,0c-0.3-5.3-0.5-10.3-0.8-15.5c0.8,0,1.3,0,1.8,0
			C359,389.8,359.3,395,359.5,400.3z"/>
		<path fill="#FFFFFF" d="M347.5,354.3c-0.5,0-1,0-1.5,0c0-6.5,0-12.8,0-19c0.5,0,0.8,0,1.5,0C347.5,341.5,347.5,348,347.5,354.3z"
			/>
		<path fill="#FFFFFF" d="M348,400.3c-0.5,0-1.3,0-1.8,0c0-5.3,0-10.5,0-15.5c0.5,0,1.3,0,1.8,0C348,389.8,348,395,348,400.3z"/>
		<path fill="#FFFFFF" d="M342,335c0.5,0,1,0,1.3,0c0,6.5,0,12.8,0,19c-0.5,0-1,0-1.8,0C341.8,347.8,342,341.5,342,335z"/>
		<path fill="#FFFFFF" d="M352.5,354.3c-0.5,0-1,0-1.8,0c-0.3-6.5-0.3-12.8-0.5-19c0.5,0,1,0,1.5,0C352,341.5,352.3,348,352.5,354.3
			z"/>
		<path fill="#FFFFFF" d="M338.3,335c0.5,0,1,0,1.5,0c-0.3,6.5-0.5,12.8-0.5,19c-0.5,0-1,0-1.5,0C337.8,347.8,338,341.5,338.3,335z"
			/>
		<path fill="#FFFFFF" d="M357,354.3c-0.5,0-1,0-1.5,0c-0.3-6.3-0.8-12.8-1-19c0.5,0,1,0,1.5,0C356.3,341.5,356.5,348,357,354.3z"/>
		<path fill="#FFFFFF" d="M334.8,354.3c-0.5,0-1,0-1.5,0c0.5-6.5,0.8-12.8,1.3-19c0.5,0,1,0,1.5,0C335.5,341.5,335,348,334.8,354.3z
			"/>
		<path fill="#FFFFFF" d="M342.5,314.5c0.5,0,0.8,0,1.3,0c0,5.8,0,11.5,0,17c-0.5,0-1,0-1.5,0C342.3,325.8,342.3,320,342.5,314.5z"
			/>
		<path fill="#FFFFFF" d="M339,314.5c0.5,0,0.8,0,1.3,0c-0.3,5.8-0.3,11.3-0.5,17c-0.5,0-1,0-1.5,0C338.5,325.8,338.8,320,339,314.5
			z"/>
		<path fill="#FFFFFF" d="M355.5,331.5c-0.5,0-1,0-1.5,0c-0.3-5.8-0.5-11.5-0.8-17c0.5,0,0.8,0,1.3,0
			C355,320.3,355.3,325.8,355.5,331.5z"/>
		<path fill="#FFFFFF" d="M336.8,314.5c-0.3,5.8-0.5,11.5-1,17c-0.5,0-1,0-1.5,0c0.3-5.8,0.8-11.5,1-17
			C336,314.5,336.3,314.5,336.8,314.5z"/>
		<path fill="#FFFFFF" d="M351.8,331.5c-0.5,0-1,0-1.5,0c-0.3-5.8-0.3-11.5-0.5-17c0.5,0,0.8,0,1.3,0
			C351.3,320,351.5,325.8,351.8,331.5z"/>
		<path fill="#FFFFFF" d="M347.3,331.5c-0.5,0-0.8,0-1.3,0c0-5.8,0-11.5,0-17c0.5,0,0.8,0,1.3,0
			C347.3,320.3,347.3,325.8,347.3,331.5z"/>
		<path fill="#FFFFFF" d="M347,311.3c-0.3,0-0.8,0-1,0c0-5,0-9.8,0-14.5c0.3,0,0.8,0,1,0C347,301.5,347,306.3,347,311.3z"/>
		<path fill="#FFFFFF" d="M342.8,296.8c0.5,0,0.8,0,1,0c0,5,0,9.8,0,14.5c-0.5,0-0.8,0-1,0C342.8,306.3,342.8,301.5,342.8,296.8z"/>
		<path fill="#FFFFFF" d="M339.8,296.8c0.5,0,0.8,0,1.3,0c-0.3,5-0.3,9.8-0.5,14.5c-0.5,0-0.8,0-1.3,0
			C339.3,306.3,339.5,301.5,339.8,296.8z"/>
		<path fill="#FFFFFF" d="M335.8,311.3c0.3-5,0.5-9.8,0.8-14.5c0.5,0,0.8,0,1.3,0c-0.3,4.8-0.5,9.8-0.8,14.5
			C336.5,311.3,336.3,311.3,335.8,311.3z"/>
		<path fill="#FFFFFF" d="M351,311.3c-0.5,0-0.8,0-1.3,0c-0.3-4.8-0.3-9.8-0.5-14.5c0.5,0,0.8,0,1.3,0
			C350.8,301.5,350.8,306.3,351,311.3z"/>
		<path fill="#FFFFFF" d="M352.3,296.8c0.5,0,0.8,0,1.3,0c0.3,4.8,0.5,9.8,0.8,14.5c-0.5,0-0.8,0-1.3,0
			C352.8,306.3,352.5,301.5,352.3,296.8z"/>
	</g>
	<g>
		<path fill="#9D1C20" d="M322.8,421.5h-10.3c-0.5,0-1-0.5-1-1v-4c0-0.5,0.5-1,1-1h10.3c0.5,0,1,0.5,1,1v4
			C323.5,421,323.3,421.5,322.8,421.5z"/>
		<path fill="#9D1C20" d="M336,421.5h-10.3c-0.5,0-1-0.5-1-1v-4c0-0.5,0.5-1,1-1H336c0.5,0,1,0.5,1,1v4
			C336.8,421,336.5,421.5,336,421.5z"/>
		<path fill="#9D1C20" d="M349,421.5h-10.3c-0.5,0-1-0.5-1-1v-4c0-0.5,0.5-1,1-1H349c0.5,0,1,0.5,1,1v4
			C350,421,349.8,421.5,349,421.5z"/>
		<path fill="#9D1C20" d="M362.3,421.5H352c-0.5,0-1-0.5-1-1v-4c0-0.5,0.5-1,1-1h10.3c0.5,0,1,0.5,1,1v4
			C363.3,421,363,421.5,362.3,421.5z"/>
		<path fill="#9D1C20" d="M375.5,421.5h-10.3c-0.5,0-1-0.5-1-1v-4c0-0.5,0.5-1,1-1h10.3c0.5,0,1,0.5,1,1v4
			C376.5,421,376,421.5,375.5,421.5z"/>
	</g>
	<path fill="#9D1C20" d="M176.3,400.8c-0.3,0-0.5,0-0.8,0c-13.5,0-27,0-40.8,0c-0.3,0-0.5,0-0.8,0c-6.8,0.5-11.3,6.3-10,13
		c21,0,42,0,63,0C188.3,406.8,183.3,400.8,176.3,400.8z"/>
	<g>
		<path fill="#9D1C20" d="M134,421.5h-10.3c-0.5,0-1-0.5-1-1v-4c0-0.5,0.5-1,1-1H134c0.5,0,1,0.5,1,1v4
			C135,421,134.5,421.5,134,421.5z"/>
		<path fill="#9D1C20" d="M147.3,421.5H137c-0.5,0-1-0.5-1-1v-4c0-0.5,0.5-1,1-1h10.3c0.5,0,1,0.5,1,1v4
			C148.3,421,147.8,421.5,147.3,421.5z"/>
		<path fill="#9D1C20" d="M160.5,421.5h-10.3c-0.5,0-1-0.5-1-1v-4c0-0.5,0.5-1,1-1h10.3c0.5,0,1,0.5,1,1v4
			C161.5,421,161,421.5,160.5,421.5z"/>
		<path fill="#9D1C20" d="M173.8,421.5h-10.3c-0.5,0-1-0.5-1-1v-4c0-0.5,0.5-1,1-1h10.3c0.5,0,1,0.5,1,1v4
			C174.8,421,174.3,421.5,173.8,421.5z"/>
		<path fill="#9D1C20" d="M187,421.5h-10.2c-0.5,0-1-0.5-1-1v-4c0-0.5,0.5-1,1-1H187c0.5,0,1,0.5,1,1v4
			C188,421,187.5,421.5,187,421.5z"/>
	</g>
	<g>
		<path fill="#9D1C20" d="M219.8,421.8h-11.5c-0.5,0-1-0.5-1-1v-4.5c0-0.5,0.5-1,1-1h11.5c0.5,0,1,0.5,1,1v4.5
			C220.8,421.3,220.3,421.8,219.8,421.8z"/>
		<path fill="#9D1C20" d="M235,421.8h-11.5c-0.5,0-1-0.5-1-1v-4.5c0-0.5,0.5-1,1-1H235c0.5,0,1,0.5,1,1v4.5
			C236,421.3,235.5,421.8,235,421.8z"/>
		<path fill="#9D1C20" d="M250,421.8h-11.5c-0.5,0-1-0.5-1-1v-4.5c0-0.5,0.5-1,1-1H250c0.5,0,1,0.5,1,1v4.5
			C251.3,421.3,250.8,421.8,250,421.8z"/>
		<path fill="#9D1C20" d="M265.3,421.8h-11.5c-0.5,0-1-0.5-1-1v-4.5c0-0.5,0.5-1,1-1h11.5c0.5,0,1,0.5,1,1v4.5
			C266.3,421.3,265.8,421.8,265.3,421.8z"/>
		<path fill="#9D1C20" d="M280.3,421.8h-11.5c-0.5,0-1-0.5-1-1v-4.5c0-0.5,0.5-1,1-1h11.5c0.5,0,1,0.5,1,1v4.5
			C281.5,421.3,281,421.8,280.3,421.8z"/>
		<path fill="#9D1C20" d="M295.5,421.8H284c-0.5,0-1-0.5-1-1v-4.5c0-0.5,0.5-1,1-1h11.5c0.5,0,1,0.5,1,1v4.5
			C296.5,421.3,296,421.8,295.5,421.8z"/>
	</g>
</g>
</svg>
