<?xml version="1.0" encoding="utf-8"?>
<!-- Generator: Adobe Illustrator 18.0.0, SVG Export Plug-In . SVG Version: 6.00 Build 0)  -->
<!DOCTYPE svg PUBLIC "-//W3C//DTD SVG 1.1//EN" "http://www.w3.org/Graphics/SVG/1.1/DTD/svg11.dtd">
<svg version="1.1" id="Layer_1" xmlns="http://www.w3.org/2000/svg" xmlns:xlink="http://www.w3.org/1999/xlink" x="0px" y="0px"
	 viewBox="18 92.7 464 314.7" enable-background="new 18 92.7 464 314.7" xml:space="preserve">
<path fill="#9D1C20" d="M21,386.3h-0.3v18.2h18.5C39.2,394.4,31,386.3,21,386.3z"/>
<path fill="#9D1C20" d="M21.6,292.7c2,0,3.9,0,5.9,0.1l-6.7-3.4v3.4L21.6,292.7z"/>
<path fill="#9D1C20" d="M183.8,405.1c-0.6,0-1.2-0.3-1.6-0.8l-0.9-1.1c-1.9-2.4-3.3-5.1-4-8.1c-0.4-1.4-0.6-2.6-0.9-3.6
	c-0.1-0.6-0.2-1.3-0.3-1.8c0-0.2,0-0.4-0.1-0.6c-0.1-1.2-0.2-2.3-0.1-3.5v-0.7c0-0.1,0-0.2,0-0.4c-0.1-0.4-0.2-0.7-0.5-1.1l-0.1-0.2
	c-0.3-0.5-0.6-1.1-0.9-1.6c-0.4-0.7-0.5-1.5-0.3-2.3c-0.8-1.1-1.2-2.4-1.1-3.8c0-0.1,0-0.2,0-0.3c0-0.2,0.1-0.3,0.2-0.5l0-0.1
	c-0.1-0.1-0.2-0.2-0.2-0.3c-0.2-0.2-0.3-0.4-0.4-0.5c-0.8-1-0.9-2.4-0.3-3.5c0-0.1,0.1-0.2,0.1-0.3l0.1-0.3l0.1-0.2
	c0.3-1.1,0.6-2.1,1.1-3.1c0.7-1.4,1.7-2.6,2.9-3.5c0.7-0.5,1.6-0.9,2.4-1.1c0.9-0.2,1.7-0.3,2.6-0.3h0.1h1.9h2.4
	c0.1,0,0.3,0,0.4-0.1c0.2-0.7,0.4-1.4,0.6-2.1c0.1-0.3,0.2-0.5,0.3-0.7c0.3-0.5,0.5-1.1,0.7-1.7c0.1-0.4,0.3-0.8,0.4-1.1
	c0-0.1,0.1-0.3,0.1-0.4c0-0.2,0.1-0.5,0.2-0.7l0-0.1c0.2-0.7,0.4-1.4,0.7-2.1c0.5-1.5,1.3-3.4,2.2-5.4c0.6-1.2,1.2-2.4,2-3.5
	c0.3-0.4,0.5-0.8,0.8-1.2c0.5-0.7,0.9-1.3,1.3-2c0.4-0.6,0.8-1.1,1.3-1.6c0.5-0.6,1-1.3,1.4-2c0.1-0.2,0.1-0.4,0.1-0.5l0.1-0.3
	c0.2-1,0.5-1.9,0.8-2.8c0.1-0.2,0.1-0.5,0.2-0.7c0.1-0.3,0.1-0.5,0.2-0.8l0.2-0.7c0.2-0.9,0.5-1.9,0.8-2.8c0.1-0.2,0.1-0.4,0.1-0.6
	c0-0.1,0-0.3,0.1-0.5c0.1-0.7,0.2-1.4,0.4-2c0.1-0.4,0.2-0.8,0.2-1.2c0-0.7,0.1-1.3,0.3-2c0-0.2,0.1-0.5,0.1-0.7
	c0.1-0.7,0.2-1.4,0.4-2c0.1-0.3,0.1-0.6,0.2-1c0-0.2,0.1-0.3,0.1-0.5c0-0.1,0.1-0.4,0.1-0.6s0.1-0.5,0.1-0.8c0-0.4,0.1-0.7,0.1-1.1
	c0.1-0.7,0.2-1.5,0.4-2.4c0.1-0.4,0.2-0.8,0.3-1.2c0.1-0.4,0.2-0.7,0.2-1c0-0.1,0-0.3,0.1-0.5c0-0.2,0-0.5,0.1-0.7l0.1-0.6
	c0.1-0.7,0.2-1.4,0.4-2.2c0.3-1.6,0.7-3,1-4.5c0.3-1.4,0.8-2.8,1.4-4.2c0.2-0.4,0.3-0.8,0.5-1.1l0.2-0.4c0.5-1.1,1-2.2,1.7-3.2
	c0.2-0.3,0.4-0.6,0.6-1c0.8-1.3,1.7-2.5,2.7-3.5c1.1-1,2.3-1.9,3.6-2.5c1.3-0.6,2.7-1.1,4-1.5c0.7-0.2,1.4-0.5,2-0.7
	c0.3-0.1,0.6-0.2,0.9-0.4c1-0.5,2-0.9,3-1.2c0.7-0.3,1.4-0.5,2-0.8c0.6-0.2,1.1-0.5,1.7-0.6c1.2-0.4,2.5-0.8,3.7-1.2l0.9-0.3
	l0.9-0.3c-0.3-0.6-0.6-1.3-0.8-1.9l-0.4-1c-0.4-0.9-0.7-1.9-0.8-3c-0.6-0.5-1.1-1.2-1.3-2c-0.4-1.3-0.7-2.5-1.1-3.8
	c-0.1-0.4-0.2-0.7-0.3-1.1c-0.1-0.4-0.2-0.8-0.4-1.2c-0.3-1-0.4-2-0.4-3c0-0.5,0-1.1,0-1.6c0-1.5,0.7-3,1.9-3.9c0-0.1,0-0.2,0-0.2
	c-0.2-0.6-0.2-1.2-0.1-1.8c0.1-0.5,0.1-1,0.1-1.5v-0.1c0-0.1,0-0.2,0-0.2c0-1,0.1-2.1,0.4-3c0.3-1,0.6-2,0.9-3
	c0.2-0.5,0.4-1,0.7-1.4c0.4-0.6,0.8-1.2,1.2-1.8c0.1-0.2,0.2-0.3,0.4-0.5l0.1-0.1l0.1-0.1c0.2-0.3,0.5-0.6,0.7-0.8
	c0.3-0.3,0.6-0.6,0.9-0.9c0.4-0.4,0.9-0.8,1.2-1.1c1.8-1.5,3.8-2.6,5.9-3.5c0.7-0.3,1.5-0.5,2.3-0.7c0.8-0.2,1.6-0.2,2.4-0.2h0.4
	c1,0,2,0,2.9,0.1l0.8,0c0.4,0,0.7,0.1,1.1,0.2l0.1,0c0.7,0.2,1.3,0.4,2,0.6c0.5,0.2,0.9,0.3,1.3,0.5l0.1,0c0.2,0.1,0.4,0.2,0.5,0.3
	c0.2,0.1,0.3,0.2,0.5,0.2c1,0.4,1.9,1,2.6,1.7c0.6,0.6,1.3,1.2,1.9,1.8l1.2,1.2c1.3,1.2,2.2,2.8,2.8,4.5c0.1,0.4,0.2,0.8,0.3,1.1
	c0.1,0.4,0.2,0.8,0.4,1.2c0.2,0.5,0.3,0.9,0.3,1.4c0,0.7,0.1,1.4,0.1,2.1c0,0.4,0.1,1.7,0.1,1.7c0,0.5,0,0.9,0.1,1.3
	c0,0.2,0.1,0.4,0.1,0.7c1.1,0.6,1.7,1.8,1.7,3c0,0.3,0,0.6,0,0.9c0,0.5,0,1,0,1.5c0,1.7-0.3,3.5-0.9,5.1c-0.2,0.5-0.3,0.9-0.3,1.4
	l0,0.2c-0.1,1.1-0.5,2.3-1.1,3.2c-0.2,0.3-0.3,0.5-0.5,0.7c0,0.1-0.1,0.2-0.1,0.3c-0.1,0.3-0.1,0.6-0.2,0.9c0,0.3-0.1,0.6-0.2,1
	c-0.1,0.5-0.2,0.9-0.4,1.4l0,0l1,0.6h0.1c0.5,0.1,1.1,0.1,1.7,0.2c1.3,0.2,2.5,0.8,3.5,1.8c0.2,0.2,0.4,0.3,0.7,0.3
	c0.8,0.1,1.6,0.2,2.3,0.6c0.3,0.1,0.6,0.3,0.8,0.5l0.1,0c0.4,0.3,0.9,0.6,1.4,0.8c0.4,0.2,0.8,0.4,1.2,0.7c0.3,0.2,0.6,0.4,0.9,0.5
	l0.6,0.3l0,0c0.3,0.2,0.6,0.4,0.8,0.6c0.3,0.2,0.6,0.4,0.9,0.5c0.4,0.2,0.8,0.3,1.1,0.5l1,0.5l1.3,0.1c0.7,0,1.4,0,2.1,0.1
	c0.5,0,1,0.1,1.4,0.2l0.5,0.1h0.1h0.1c0.3,0,0.6,0,0.9,0.1c0.3,0,0.6,0,0.8,0c0.1,0,0.3,0,0.4,0c0.2,0,0.4,0,0.5,0
	c0.3,0,0.5,0,0.8,0.1l0.3,0c0.8,0.1,1.6,0.5,2.1,1.1c0.4,0.4,0.8,0.9,1.2,1.4c0.4,0.5,0.6,1,0.8,1.6c0.3,1.1,0.5,2.1,0.6,3.1
	c0.1,0.4,0.1,0.8,0.1,1.2c0,0.1,0,0.2,0,0.4c0,0.5,0,0.9,0.1,1.3c0,0.3,0.1,0.6,0.1,0.9c0,0.5,0.1,1,0.2,1.5c0.1,0.5,0.2,1,0.2,1.5
	v0.3c0,0.6,0.2,1.1,0.6,1.6c0.6,1,1,2.1,1,3.2c0,1.6,0,3.3-0.1,5.3c0,0.4-0.1,0.8-0.2,1.2c0,0.1,0,0.2-0.1,0.2v0.1
	c-0.1,0.9-0.2,1.9-0.1,2.8c0.1,0.6,0.2,1.1,0.5,1.7c0.2,0.5,0.3,0.9,0.4,1.4l0,0.2c0.3,1.6,0.7,3.3,1.2,4.9c0.2,0.5,0.3,1,0.4,1.5
	c0.1,0.3,0.2,0.7,0.3,1c0.1,0.3,0.2,0.8,0.3,1.2c0.2,0.5,0.3,1,0.5,1.6c0.2,0.6,0.3,1.3,0.5,1.9c0.1,0.6,0.3,1.2,0.5,1.8
	c0.1,0.3,0.2,0.5,0.3,0.8c0.1,0.3,0.2,0.6,0.3,0.9c0.2,0.8,0.4,1.5,0.6,2.3l0.1,0.4c0.1,0.2,0.1,0.5,0.3,0.7
	c0.2,0.3,0.3,0.5,0.5,0.8c0.3,0.5,0.6,0.9,0.9,1.4c0.3,0.4,0.6,0.8,0.9,1.1c0.2,0.2,0.4,0.4,0.6,0.5c0.2,0.2,0.5,0.4,0.7,0.6
	c0.7,0.6,1.5,1.2,2.3,1.7c0.6,0.4,1.2,0.8,1.8,1.3c0.4,0.3,0.8,0.6,1.1,0.9c0.7,0.6,1.4,1.1,2.2,1.7c0.8,0.6,1.6,1.2,2.5,1.8
	l1.1,0.8c0.2,0.1,0.4,0.3,0.6,0.5c0.4,0.4,0.8,0.7,1.2,1c0.3,0.2,0.6,0.4,0.8,0.6c0.3,0.2,0.7,0.5,1,0.7c1.2,0.8,2.3,1.8,3.3,2.8
	c1.1,1.1,2,2.2,2.9,3.5c0.7,0.9,1.2,2,1.5,3.1c0,0.1,0.1,0.2,0.1,0.3c0,0.1,0.1,0.2,0.2,0.3l0.3,0.8c0.2,0.5,0.5,1,0.7,1.6l0.5,1.1
	c0.3,0.8,0.7,1.7,1,2.5c0.2,0.5,0.4,0.9,0.6,1.4c0.2,0.5,0.5,1,0.7,1.6c0.2,0.5,0.3,0.9,0.4,1.4l0,0.2c0.1,0.8,0.2,1.7,0.3,2.6
	c0,0.7,0,1.3-0.2,1.9l-0.1,0.5c-0.1,0.5-0.2,1-0.3,1.5c-0.2,1.1-0.7,2.1-1.4,3c-1.1,1.4-2.2,2.8-3.2,4.2c-0.1,0.2-0.3,0.4-0.3,0.6
	c-0.7,2.1-1.7,4-3.2,5.6c-0.4,0.6-1,1-1.7,1.2l-0.3,0.4c-0.6,0.8-1.2,1.6-1.8,2.5c-0.9,1.3-1.9,2.5-2.9,3.6
	c-0.3,0.4-0.6,0.7-0.9,1.1c0.5,0.6,0.8,1.4,0.9,2.2c0.2,1.1-0.6,2.2-1.7,2.3c-0.1,0-0.2,0-0.3,0L183.8,405.1z M294,352.7
	c0,0.8,0.1,1.6,0.1,2.3c0,0.6,0,1.1,0,1.6c0,0.5,0,1.1,0,1.7c0,0.6,0.1,1.2,0.1,1.8c0,0.1,0,0.1,0,0.2c0.1,0.3,0.1,0.6,0.2,0.9
	c0,0.1,0,0.1,0,0.2l3.9-0.2l1.1-0.3c1-0.2,2.1-0.5,3.1-0.7c0.5-0.1,0.9-0.2,1.4-0.3c-0.5-0.2-0.9-0.4-1.3-0.6c-1-0.6-2-1.2-2.9-1.9
	C297.7,356.1,295.7,354.7,294,352.7C294,352.7,294,352.7,294,352.7z M216.3,336c-0.2,1.1-0.4,2.1-0.8,3.1l0,0.1c0,0.1,0,0.2-0.1,0.3
	c-0.1,0.4-0.1,0.9-0.2,1.4c-0.1,0.5-0.1,0.9-0.2,1.4c0,0.3-0.1,0.5-0.1,0.7c0,0.1,0,0.2-0.1,0.4s-0.1,0.3-0.1,0.5
	c0,0.3-0.1,0.6-0.2,0.9l0,0.1c-0.1,0.5-0.2,1-0.4,1.4c-0.3,0.8-0.7,1.5-1,2.2l0,0.1c-0.3,0.6-0.6,1.2-0.9,1.7c-0.7,1-1.4,2-2.2,3
	l-1.3,1.8l-0.2,0.3c0.6-0.2,1.2-0.3,1.8-0.3l0.6-0.4c0.6-0.4,1.1-0.7,1.6-1.1c0.6-0.4,1.2-0.9,1.7-1.5c0.5-0.7,0.8-1.2,1.1-1.8
	c0.3-0.5,0.5-0.9,0.7-1.4c0.1-0.3,0.2-0.5,0.3-0.8c0.1-0.3,0.1-0.5,0.2-0.7c0.1-0.3,0.1-0.6,0.2-0.9c0.2-0.7,0.3-1.4,0.4-2.1v-0.1
	c0-0.4,0.1-0.8,0.2-1.3c0.1-0.5,0.2-1,0.3-1.6c0-0.1,0-0.2,0-0.3c0-0.7,0.2-1.4,0.5-2c0.2-0.7,0.4-1.4,0.4-2.2v-0.3
	c0-0.5,0-1.1,0-1.6v-0.6c0-0.7,0-1.3-0.1-2c-0.1-0.5-0.2-1-0.4-1.5c-0.2,0.5-0.4,0.9-0.5,1.4c-0.3,0.9-0.7,1.9-1,2.8L216.3,336z"/>
<path fill="#9D1C20" d="M477.9,292.7c-2,0-3.9,0-5.9,0.1l6.7-3.4v3.4L477.9,292.7z"/>
<path fill="#9D1C20" d="M455.8,404.5c0-12.7,10.3-23.1,23-23.2v-17.4c-22.3,0.2-40.4,18.3-40.4,40.7H455.8L455.8,404.5z"/>
<path fill="#9D1C20" d="M410.9,404.5c0-37.5,30.4-68,67.8-68.1V319c-47,0.1-85.2,38.4-85.2,85.5H410.9L410.9,404.5z"/>
<path fill="#9D1C20" d="M433.3,404.5c0-25.1,20.3-45.5,45.4-45.7v-17.4c-34.7,0.1-62.8,28.4-62.8,63.1L433.3,404.5L433.3,404.5z"/>
<path fill="#9D1C20" d="M481.5,274.3v1.1c-0.4,0-0.7,0.3-0.8,0.7c-0.1,0.6-0.4,1.1-0.9,1.1v0.8h-1v7.1l-14.4,7.3
	c-24.7,3.2-47.6,14.5-65.2,32.1c-0.7,0.7-1.4,1.4-2.1,2.1l-62.2,31.7c-0.3-0.5-0.6-1-0.9-1.5c-1-1.4-2-2.7-3.2-3.8l124.1-83.7
	l9.2-0.6v5.6L481.5,274.3z"/>
<path fill="#9D1C20" d="M373,224.5L305.4,321c-0.5-1.5-0.9-3-1.1-4.5c0-0.1,0-0.1,0-0.2c-0.1-0.7-0.3-1.4-0.5-2
	c-0.2-0.3-0.3-0.7-0.3-1.1c0-0.7,0-1.4,0.1-2.1v0c0.2-0.6,0.3-1.2,0.3-1.8c0-0.2,0-0.4,0-0.5l44.9-84.4L373,224.5z"/>
<path fill="#9D1C20" d="M478.7,386.3c-10,0.2-17.9,8.3-18,18.2h18V386.3z"/>
<path fill="#9D1C20" d="M448.2,256.6v11.2l-121.5,81.9l-0.7-0.5c-0.3-0.3-0.7-0.5-1-0.7c-0.3-0.2-0.5-0.4-0.8-0.6c0,0,0,0-0.1-0.1
	c-0.3-0.3-0.6-0.6-1-0.8l-1.1-0.8l-0.8-0.6l91.4-79.5v5.9l14-0.9V258L448.2,256.6z"/>
<path fill="#9D1C20" d="M388.7,336.7c-4.5,5.9-8.3,12.2-11.5,18.9l-37.7,13.7l-0.4-0.8c-0.2-0.5-0.4-0.9-0.6-1.3c0,0,0,0,0,0
	c-0.4-0.8-0.7-1.7-1.1-2.5c-0.2-0.4-0.3-0.8-0.5-1.2l-0.2-0.4L388.7,336.7z"/>
<path fill="#9D1C20" d="M186.1,352.2c-0.3,0.7-0.5,1.5-0.7,2.2l0,0.1c-0.1,0.4-0.2,0.7-0.2,0.9c0,0,0,0.1,0,0.1
	c-0.2,0.4-0.3,0.8-0.4,1.1c-0.1,0.2-0.1,0.4-0.2,0.6L35.8,257l21.9-12.7l25,18.7v1.6l1.4,0.1v1l2.7,0.2v1.8l-5.1-0.3V278l9.7,0.7
	v1.7l1.2,0.1v0.8l2.4,0.2v1.6l4.1,0.3v-6.9L186.1,352.2z"/>
<path fill="#9D1C20" d="M410.3,261.8l-92.9,80.8l-1-0.8c-0.7-0.5-1.3-1-2-1.4c-0.7-0.5-1.3-0.9-2-1.5l82.1-91.1v2.3l11.4,0.1l0,2.6
	h-1.8v1.3h-2v2.5h-1.7v5.3L410.3,261.8z"/>
<path fill="#9D1C20" d="M196.3,332.2c0,0.1,0,0.2-0.1,0.3c-0.4,1-0.7,2.1-0.9,3.1c0,0.1-0.1,0.3-0.1,0.4c0,0,0,0.1,0,0.1
	c-0.3,0.5-0.6,0.9-0.9,1.3c-0.2,0.3-0.5,0.5-0.6,0.8l-86.3-95.8l15.7-0.1v-3.9l-1.4,0v-2.6l1.4,0v-7.9h-1.4v-2.2L196.3,332.2z"/>
<path fill="#9D1C20" d="M179.3,359.8c-0.7,0.1-1.4,0.2-2,0.3c-1.3,0.2-2.5,0.7-3.5,1.5c-0.3,0.2-0.6,0.5-0.9,0.8l-69.9-35.6
	c-0.7-0.7-1.4-1.4-2.1-2.1c-17.6-17.7-40.5-29-65.2-32.1l-15-7.6v-6.6c-1.2,0-2.2-1-2.2-2.2v-2.2h4.4l10.1,0.8v-10.8l-3.3-0.2V262
	l1.5,0.1v-1l0.9,0.1v-0.6L179.3,359.8z"/>
<path fill="#9D1C20" d="M190.7,342.4c0,0-0.1,0.1-0.1,0.1c-0.8,1.2-1.6,2.6-2.2,3.9c-0.1,0.3-0.3,0.6-0.4,0.8l-89.1-77.4v-23h-1.1
	V245h-1.3v-2.6l4.1,0L190.7,342.4z"/>
<path fill="#9D1C20" d="M399.7,234.5l-90.5,100.6c0,0,0,0,0-0.1c0,0,0-0.1,0-0.1l-0.1-0.4c-0.2-0.8-0.4-1.5-0.6-2.3
	c-0.1-0.4-0.2-0.8-0.3-1.1c-0.1-0.3-0.2-0.5-0.2-0.7c-0.2-0.6-0.3-1.2-0.5-1.9c-0.1-0.4-0.2-0.8-0.3-1.2l72-102.8l11,0.1
	L399.7,234.5z"/>
<path fill="#9D1C20" d="M343,224.3l-40.2,75.6c-0.1-0.2-0.2-0.4-0.3-0.6c-0.1-0.1-0.2-0.3-0.2-0.5c0-0.1,0-0.2,0-0.2
	c0-0.7-0.1-1.5-0.3-2.2c-0.1-0.3-0.1-0.7-0.1-1c0-0.3-0.1-0.6-0.1-1c0-0.4-0.1-0.7-0.1-1.1c0-0.1,0-0.1,0-0.2c0-0.5,0-1.1-0.1-1.6
	c-0.2-1-0.4-2.1-0.6-3.3v-0.1c-0.2-0.9-0.6-1.7-1.2-2.5c-0.3-0.4-0.6-0.8-1-1.2l16.5-43.1h0.9l1.3,2.5v1.9h-1.4v3.7l7.3,0V241h-1.7
	v-2.5h-1.3v-1.3h-1.8v-2.6l10.5-10.3L343,224.3z"/>
<polygon fill="#9D1C20" points="195.2,213.3 199.7,213.3 196.3,199.5 190.9,202.2 190.9,207.8 195.2,207.8 "/>
<polygon fill="#9D1C20" points="305.1,213.3 305.1,207.8 310.9,207.8 310.9,202.2 303.9,198.6 300.3,213.3 "/>
<path fill="#9D1C20" d="M374.3,361.9c-1.6,4-3,8.1-4.2,12.3l-30.4,7c0.2-0.4,0.3-0.9,0.4-1.3c0.1-0.5,0.2-1,0.3-1.5l0.1-0.5
	c0,0,0,0,0,0c0.2-0.9,0.3-1.8,0.2-2.6c0-0.3-0.1-0.7-0.1-1L374.3,361.9z"/>
<path fill="#9D1C20" d="M21,341.4h-0.3v17.4H21c25.2,0,45.7,20.5,45.7,45.7h17.4C84.1,369.7,55.8,341.4,21,341.4z"/>
<path fill="#9D1C20" d="M21,363.8h-0.3v17.4H21c12.8,0,23.2,10.4,23.3,23.3h17.4C61.6,382,43.4,363.9,21,363.8z"/>
<path fill="#9D1C20" d="M21,319h-0.3v17.4H21c37.6,0,68.1,30.6,68.1,68.1h17.4C106.5,357.3,68.1,319,21,319z"/>
<path fill="#9D1C20" d="M388.5,404.5c0-49.8,40.5-90.4,90.3-90.5v-17.4c-59.4,0.1-107.7,48.5-107.7,107.9L388.5,404.5L388.5,404.5z"
	/>
<path fill="#9D1C20" d="M368.8,379.6c-1.8,8.2-2.7,16.5-2.7,24.8h-40.8c0-0.2,0-0.5-0.1-0.7c-0.1-0.5-0.2-1-0.4-1.5
	c0.9-1.2,1.9-2.4,2.8-3.6c0.6-0.8,1.2-1.6,1.7-2.4c0.8-0.4,1.5-0.9,2-1.6c1.6-1.9,2.8-4.1,3.6-6.5l0.7-0.9L368.8,379.6z"/>
<path fill="#9D1C20" d="M133.9,404.5L133.9,404.5c0-8.4-0.9-16.7-2.7-24.9l41.1,9.5c0,0.5,0.1,0.9,0.1,1.4c0,0.2,0,0.4,0.1,0.6
	c0.1,0.6,0.2,1.3,0.3,2.1c0.2,1.1,0.5,2.3,0.9,3.8c0.6,2.7,1.7,5.2,3.2,7.5L133.9,404.5z"/>
<path fill="#9D1C20" d="M21,296.5h-0.3v17.4H21c49.9,0,90.5,40.6,90.5,90.5h17.4C128.9,345,80.5,296.5,21,296.5z"/>
<path fill="#9D1C20" d="M231.6,277c-1,0.3-2.1,0.6-3.1,1c-0.7,0.2-1.4,0.5-2,0.8c-0.6,0.2-1.2,0.5-1.9,0.7c-0.9,0.3-1.9,0.7-3,1.2
	l-20.9-83.6l19.9-10.3l8,65.3c0,0.5-0.1,0.9-0.1,1.2c-0.1,0.5-0.1,1.1-0.1,1.6c-1.1,1.3-1.7,3-1.7,4.8c0,0.5,0,1.1,0,1.6
	c0,1.3,0.2,2.5,0.5,3.7c0.1,0.4,0.3,0.8,0.4,1.2c0.1,0.4,0.2,0.7,0.3,1c0.3,1.2,0.7,2.4,1.1,3.8c0,0,0,0,0,0c0.3,1,0.7,1.8,1.4,2.6
	c0.2,0.9,0.5,1.9,0.9,2.7L231.6,277z"/>
<path fill="#9D1C20" d="M274.5,183.9l-7,57.1c-0.4-0.6-0.9-1.2-1.5-1.7l-1.3-1.2c-0.6-0.6-1.3-1.2-2-1.8c-1-1-2.2-1.7-3.4-2.2
	c-0.1,0-0.2-0.1-0.3-0.2l-0.6-0.3h0l-0.1,0c-0.4-0.2-0.9-0.4-1.5-0.6c-0.7-0.2-1.4-0.5-2.1-0.7l-0.1,0h0c-0.5-0.2-1.1-0.3-1.7-0.3
	h-0.4v-59.3L274.5,183.9z"/>
<path fill="#9D1C20" d="M309.9,241.5l-15.6,40.7c-0.2,0-0.6-0.1-1-0.1c-0.3,0-0.6,0-0.9,0.1h-0.1c-0.2,0-0.4,0-0.6,0
	c-0.3,0-0.5,0-0.8-0.1l-0.1,0l-0.5-0.1c-0.5-0.1-1.1-0.2-1.6-0.2c-0.7-0.1-1.5-0.1-2.2-0.1l-0.9,0l-0.5-0.3
	c-0.4-0.2-0.8-0.4-1.2-0.5h0c-0.1,0-0.2-0.1-0.3-0.1c0,0-0.1-0.1-0.1-0.1l16.4-65.6v26.4L309.9,241.5z"/>
<path fill="#9D1C20" d="M247.5,172.8V232c-0.6,0-1.2,0.1-1.7,0.2c-0.9,0.2-1.8,0.5-2.6,0.8c-2.4,0.9-4.7,2.3-6.6,3.9c0,0,0,0,0,0
	c-0.4,0.3-0.9,0.7-1.4,1.2c-0.4,0.4-0.7,0.7-1.1,1.1c-0.3,0.3-0.5,0.6-0.7,0.9l-0.1,0.1l0,0c-0.2,0.2-0.4,0.5-0.6,0.7l0,0l0,0
	l-7-56.9L247.5,172.8z"/>
<path fill="#9D1C20" d="M299.3,196.3l-20.4,81.6c-0.1-0.1-0.3-0.2-0.4-0.2l-0.1-0.1c-0.4-0.4-0.9-0.7-1.5-0.9
	c-0.8-0.4-1.7-0.6-2.6-0.7c-1.3-1.1-2.8-1.8-4.4-2.1c-0.2,0-0.3-0.1-0.5-0.1c0-0.2,0.1-0.4,0.1-0.6s0-0.3,0.1-0.5l0.3-0.4l0,0
	c0.8-1.3,1.3-2.7,1.5-4.2c0,0,0,0,0,0l0-0.3c0-0.3,0.1-0.7,0.2-0.8c0.7-1.9,1.1-4,1.1-6c0-0.6,0-1.1,0-1.7c0-0.3,0-0.6,0-0.9
	c0-1.6-0.6-3.2-1.7-4.3l8.3-67.8L299.3,196.3z"/>
<path fill="#9D1C20" d="M204.9,294c-0.2,0.4-0.4,0.8-0.5,1.2l-0.2,0.4c-0.1,0.4-0.3,0.7-0.4,1.1c-0.7,1.5-1.2,3.1-1.6,4.7
	c-0.4,1.5-0.7,3-1,4.6c-0.1,0.3-0.1,0.7-0.2,1l-43.7-82.1l20.9-0.3l3.5,9.1v1.3h0.5l0.6,1.5v1h-1.1v11.3h5.8L204.9,294z"/>
<path fill="#9D1C20" d="M217,282.4c-0.9,0.3-1.7,0.7-2.6,1.1c-1.6,0.7-3.1,1.8-4.4,3.1c-0.6,0.6-1.2,1.3-1.8,2l-15.3-39.8h7.6v-32.3
	L217,282.4z"/>
<path fill="#9D1C20" d="M169.9,366.5c-0.4,1-0.8,2.1-1.1,3.2l-0.1,0.2c0,0,0,0,0,0c0,0.1-0.1,0.2-0.1,0.3l0,0
	c-0.3,0.6-0.5,1.2-0.6,1.8l-45.3-16.5c-3.2-6.7-7.1-13-11.5-18.9L169.9,366.5z"/>
<path fill="#9D1C20" d="M199.6,315c0,0.3-0.1,0.6-0.1,0.8c0,0.3-0.1,0.5-0.1,0.8c0,0.1-0.1,0.3-0.1,0.5c0,0.2-0.1,0.3-0.1,0.5
	c0,0,0,0,0,0l-0.2,1c-0.1,0.7-0.3,1.4-0.4,2.1c0,0.2-0.1,0.4-0.1,0.6c-0.2,0.8-0.3,1.6-0.3,2.5v0c0,0.2,0,0.5-0.1,0.7
	c-0.1,0.4-0.2,0.7-0.2,1.1l-70.3-100.5l24.1-0.4L199.6,315z"/>
<path fill="#9D1C20" d="M171.1,383.7l-41.2-9.5c-1.1-4.2-2.5-8.3-4.2-12.3l43.7,15.9c0.1,1.1,0.5,2.1,1,3.1
	C170.4,381.9,170.7,382.8,171.1,383.7z"/>
<path fill="#9D1C20" d="M156.5,175.6c-8.5,0-15.4,6.9-15.4,15.4c0,0,0,0,0,0c0-8.5-6.9-15.4-15.4-15.4c0,0,0,0,0,0
	c8.5,0,15.4-6.9,15.4-15.4c0,0,0,0,0,0C141.1,168.7,148,175.6,156.5,175.6C156.5,175.6,156.5,175.6,156.5,175.6z"/>
<path fill="#9D1C20" d="M93.9,235.3c-2.7,0-4.9,2.2-4.9,4.9c0-2.7-2.2-4.9-4.9-4.9c2.7,0,4.9-2.2,4.9-4.9
	C89,233.1,91.2,235.3,93.9,235.3C93.9,235.3,93.9,235.3,93.9,235.3z"/>
<path fill="#9D1C20" d="M277.3,122.8c-15.1,0-27.3,12.2-27.3,27.3c0-15.1-12.2-27.3-27.3-27.3l0,0c15.1,0,27.3-12.2,27.3-27.3
	C250,110.6,262.2,122.8,277.3,122.8z"/>
<circle fill="#9D1C20" cx="117.9" cy="211.8" r="7"/>
<circle fill="#9D1C20" cx="89" cy="142.8" r="7"/>
<path fill="#9D1C20" d="M481.5,235.3c-9.5,0-17.2,7.7-17.2,17.2c0,0,0,0,0,0c0-9.5-7.7-17.2-17.2-17.2c9.5,0,17.2-7.7,17.2-17.2
	C464.2,227.6,472,235.3,481.5,235.3C481.5,235.3,481.5,235.3,481.5,235.3z"/>
<circle fill="#9D1C20" cx="439.8" cy="212.5" r="6.3"/>
<circle fill="#9D1C20" cx="56.7" cy="198.1" r="12"/>
<circle fill="#9D1C20" cx="388.7" cy="203.8" r="10.1"/>
<circle fill="#9D1C20" cx="285" cy="163.8" r="9.7"/>
<circle fill="#9D1C20" cx="209.8" cy="163.8" r="4.5"/>
<circle fill="#9D1C20" cx="30.8" cy="163.6" r="4"/>
<path fill="#9D1C20" d="M424.9,183c-3,0-5.5,2.5-5.5,5.5c0-3-2.5-5.5-5.5-5.5c3,0,5.5-2.5,5.5-5.5C419.4,180.5,421.9,183,424.9,183z
	"/>
<path fill="#9D1C20" d="M43.2,223.1c-6.8,0-12.3,5.5-12.3,12.3c0,0,0,0,0,0c0-6.8-5.5-12.3-12.3-12.3c0,0,0,0,0,0
	c6.8,0,12.3-5.5,12.3-12.3c0,0,0,0,0,0C30.8,217.6,36.4,223.1,43.2,223.1C43.2,223.1,43.2,223.1,43.2,223.1z"/>
<path fill="#9D1C20" d="M377.9,142.8c-9.1,0-16.5,7.4-16.5,16.5c0,0,0,0,0,0c0-9.1-7.4-16.5-16.5-16.5l0,0c9.1,0,16.5-7.4,16.5-16.5
	c0,0,0,0,0,0C361.3,135.4,368.7,142.8,377.9,142.8C377.9,142.8,377.9,142.8,377.9,142.8z"/>
<path fill="#9D1C20" d="M470.8,163.6c-3.6,0-6.5,2.9-6.5,6.5c0-3.6-2.9-6.5-6.5-6.5c3.6,0,6.5-2.9,6.5-6.5
	C464.2,160.6,467.2,163.6,470.8,163.6z"/>
<path fill="#9D1C20" d="M339.2,199.5c-4.7,0-8.5,3.8-8.5,8.5c0,0,0,0,0,0c0-4.7-3.8-8.5-8.5-8.5l0,0c4.7,0,8.5-3.8,8.5-8.5l0,0
	C330.8,195.7,334.6,199.5,339.2,199.5C339.2,199.5,339.2,199.5,339.2,199.5z"/>
<path fill="#9D1C20" d="M168.8,198.7c-2.6,0-4.8,2.1-4.8,4.8c0-2.6-2.1-4.8-4.8-4.8c2.6,0,4.8-2.1,4.8-4.8c0,0,0,0,0,0
	C164.1,196.5,166.2,198.7,168.8,198.7z"/>
</svg>
