<?xml version="1.0" encoding="utf-8"?>
<!-- Generator: Adobe Illustrator 18.0.0, SVG Export Plug-In . SVG Version: 6.00 Build 0)  -->
<!DOCTYPE svg PUBLIC "-//W3C//DTD SVG 1.1//EN" "http://www.w3.org/Graphics/SVG/1.1/DTD/svg11.dtd">
<svg version="1.1" id="Layer_1" xmlns="http://www.w3.org/2000/svg" xmlns:xlink="http://www.w3.org/1999/xlink" x="0px" y="0px"
	 viewBox="33 64 434 372" enable-background="new 33 64 434 372" xml:space="preserve">
<path fill="none" d="M466.5,200.3l-10,1.7c0,0,5-1.7,5.3-1.7C461.8,200,466.5,200.3,466.5,200.3z"/>
<g>
	<g>
		<path fill="#9D1C20" d="M304.3,156.3c-0.3-4.8,0-9.3,0-14h-2c0,4.5,0,9,0,13.5c0,1-0.8,2-1.5,2.5c-3,2.5-6.3,4.8-9.3,7.3
			c-1.3,1-1.3,2-0.3,3.8c1.5,2.7,3,5.5,4.5,8.3c1,2,2,3.8,3.3,5.8c2.8-2.5,5.3-4.8,7.5-7c4.3-4.2,4-11.5,0-16
			C305,159.5,304.3,157.8,304.3,156.3z"/>
		<path fill="#9D1C20" d="M150.8,158.8c-1.5-1-2-2-2-4c0-4,0-8.3,0-12.3v-0.3h-2.3c0,4.3,0,8.5,0,13c0,2.5-0.3,4.3-2,5.8
			c-3.5,3-3.8,12.5,0.8,16c2,1.5,3.8,3.3,5.5,5c1,1,1.8,1.3,2.5-0.2c2.3-4.3,4.8-8.5,6.8-12.8c0.3-0.8,0.3-2.8-0.3-3
			C156.8,163.3,153.8,160.5,150.8,158.8z"/>
		<path fill="#9D1C20" d="M199.8,158.5c-1.3-0.8-2-1.5-2-3.5c0-3.8,0-7.5,0-11.3c0-0.8,0-1.3,0-1.8h-2.5c0,4.8,0,9.5,0,14.3
			c0,1.3-0.8,3-1.5,4c-3,3.3-4.3,8.8-1.8,12.8c2.5,4,6,7,9.3,10.8c3-5.5,5.8-10.5,8.3-15.3c0.3-0.5,0-2.3-0.2-2.5
			C206,163.3,203,160.8,199.8,158.5z"/>
		<path fill="#9D1C20" d="M353.5,155.8c-0.3-4.3,0-8.5,0-13c0-0.3,0-0.5,0-0.5h-2v0.2c-0.3,4.3,0,8.3,0,12.5c0,1-0.5,2.5-1,3
			c-2.8,2-5.5,3.8-8.3,5.8c-3.3,2.8-3.3,2.8-1,7c2.3,4,4.3,8,6.8,12.5c2.8-2.5,5.3-4.5,7.5-6.7c4.3-4,4.3-11.7,0.3-16
			C354.5,159.5,353.8,157.5,353.5,155.8z"/>
	</g>
	<path fill="#9D1C20" d="M452.3,330.5c0-2-0.8-2.8-2.3-2.8c-2.3,0-4.5,0-6.8,0c-4.3,0-4.3,0-4.3-5.5c0-8.3,0.5-6.8-5.5-6.8
		c-7.5,0-7,1-6.8-8c0-2.5-0.8-3.5-2.8-3.5c-3,0-6,0-9,0c-1.8,0-2.5-1-2.5-3c0-1.8-0.3-3.8,0-5.5c0.3-3-0.5-4.2-3-4
		c-2.2,0.3-4.3,0-6.5,0c-7.8,0-6.5,0.3-6.5-8c0-2.8-0.8-3.8-3-3.8c-5,0.3-10.3,0-15.3,0c-24.7,0-49.3,0-74,0c-1,0-1.5,0-2.3-0.3
		H198.3c-0.5,0.3-1.3,0.3-2.3,0.3c-28.5,0-57,0-85.5,0c-6.5,0-6.5,0-6.8,8c0,2.8-1,3.8-3,3.5c-3.5,0-7,0-10.5,0
		c-2,0-2.8,0.8-2.8,3.3c0.3,2,0,4,0,6c0,2.3-0.8,3.5-2.8,3.3c-2.3,0-4.8,0-7,0c-4.3,0-4.3,0-4.3,5.5c0,6.3,0,6.3-5,6.3
		c-7.2,0-7.2,0-7.5,8.5v0.3c0.3,2.5-0.7,3.5-3,3.5c-2.8,0-5.3,0-8,0c-0.8,0-2,0.8-2,1c-0.3,2.8-0.5,5.5,0.3,8.3
		c0.3,0.8,2.8,1.3,4.3,1.3c66,0,132,0,197.8,0c65.3,0,130.5,0,195.8,0C452.8,338.5,452.5,338.5,452.3,330.5z"/>
	<g>
		<g>
			<path fill="#9D1C20" d="M93.8,380.8c0,8.3-6.8,15-15,15s-15-6.8-15-15.3c0-8.3,6.8-14.8,15-14.8S93.8,372.5,93.8,380.8z"/>
			<path fill="#9D1C20" d="M142.8,365.8c8.3,0,15,6.8,15,15.3c0,8.3-6.8,15-15.3,15c-8.3,0-14.8-6.8-14.8-15
				C127.8,372.5,134.5,365.8,142.8,365.8z"/>
			<path fill="#9D1C20" d="M206.5,365.8c8.3,0,15,6.8,15,15s-6.8,15-15,15c-8.3,0-15-6.8-15-15S198.3,365.8,206.5,365.8z"/>
			<path fill="#9D1C20" d="M159.8,366c3.3-5.3,8-8,14.3-7.5c6,0.5,10.3,3.8,12.5,9.2c0.5,1,0.3,2.5,0,3.5c-1.5,3.5-2.5,7-2.3,10.8
				c0,0.8-0.3,1.8-0.8,2.2c-4,4.5-12,5.8-17.3,2.8c-0.5-0.3-1.3-1.3-1.3-2C165.5,375.8,165,374,159.8,366z"/>
			<path fill="#9D1C20" d="M125.8,366c-3.5,4.2-5.5,9.2-5.5,14.7c0,0.5,0,1.3,0,1.8c0.5,3.5,0.2,3.8-3.3,4.7
				c-5.5,1.8-10.5,0.5-14.8-3.5c-0.5-0.5-1-1.5-1-2.5c0-3.8-0.8-7.5-2.5-11c-0.5-1-0.5-2.2,0-3.3c2.5-5.5,6.8-8.8,12.7-9.3
				C117.8,358,122.5,360.8,125.8,366z"/>
			<path fill="#9D1C20" d="M64,364c-6.8,6.5-9.3,14.3-6.8,23.3c-5.3,3-13.5,0.3-17.5-6c-4.3-6.7-2.3-15.8,4.3-20.3
				C50.5,356.5,59.5,357.8,64,364z"/>
			<path fill="#9D1C20" d="M221.5,364c5.3-6,13.3-7.2,19.8-3.3c6.5,4.3,8.8,12.5,5.3,19.3c-3.3,6.8-11.3,10-18.3,7.5
				C230.5,378.3,228.3,370.5,221.5,364z"/>
		</g>
		<g>
			<path fill="#9D1C20" d="M93.8,416.5c0,8.3-6.8,15-15,15s-15-6.7-15-15.3c0-8.3,6.8-14.8,15-14.8S93.8,408.3,93.8,416.5z"/>
			<path fill="#9D1C20" d="M142.8,401.5c8.3,0,15,6.8,15,15.3c0,8.3-6.8,15-15.3,15c-8.3,0-14.8-6.8-14.8-15
				C127.8,408.3,134.5,401.5,142.8,401.5z"/>
			<path fill="#9D1C20" d="M206.5,401.5c8.3,0,15,6.8,15,15c0,8.3-6.8,15-15,15c-8.3,0-15-6.7-15-15
				C191.5,408.5,198.3,401.5,206.5,401.5z"/>
			<path fill="#9D1C20" d="M159.8,401.8c3.3-5.3,8-8,14.3-7.5c6,0.5,10.3,3.8,12.5,9.3c0.5,1,0.3,2.5,0,3.5c-1.5,3.5-2.5,7-2.3,10.8
				c0,0.8-0.3,1.8-0.8,2.3c-4,4.5-12,5.8-17.3,2.8c-0.5-0.3-1.3-1.3-1.3-2C165.5,411.5,165,409.8,159.8,401.8z"/>
			<path fill="#9D1C20" d="M125.8,401.8c-3.5,4.3-5.5,9.3-5.5,14.7c0,0.5,0,1.3,0,1.8c0.5,3.5,0.2,3.8-3.3,4.7
				c-5.5,1.8-10.5,0.5-14.8-3.5c-0.5-0.5-1-1.5-1-2.5c0-3.8-0.8-7.5-2.5-11c-0.5-1-0.5-2.3,0-3.3c2.5-5.5,6.8-8.8,12.7-9.2
				C117.8,393.8,122.5,396.5,125.8,401.8z"/>
			<path fill="#9D1C20" d="M64,399.8c-6.8,6.5-9.3,14.2-6.8,23.3c-5.3,3-13.5,0.3-17.5-6c-4.3-6.8-2.3-15.8,4.3-20.3
				S59.5,393.5,64,399.8z"/>
			<path fill="#9D1C20" d="M221.5,399.8c5.3-6,13.3-7.3,19.8-3.3c6.5,4.3,8.8,12.5,5.3,19.3c-3.3,6.8-11.3,10-18.3,7.5
				C230.5,414,228.3,406.3,221.5,399.8z"/>
		</g>
		<g>
			<path fill="#9D1C20" d="M308.5,380.8c0,8.3-6.8,15-15,15s-15-6.8-15-15.3c0-8.3,6.8-14.8,15-14.8S308.5,372.5,308.5,380.8z"/>
			<path fill="#9D1C20" d="M357.3,365.8c8.3,0,15,6.8,15,15.3c0,8.3-6.8,15-15.3,15c-8.3,0-14.7-6.8-14.7-15
				C342.3,372.5,349,365.8,357.3,365.8z"/>
			<path fill="#9D1C20" d="M421,365.8c8.3,0,15,6.8,15,15s-6.8,15-15,15c-8.3,0-15-6.8-15-15S412.8,365.8,421,365.8z"/>
			<path fill="#9D1C20" d="M374.3,366c3.3-5.3,8-8,14.3-7.5c6,0.5,10.3,3.8,12.5,9.2c0.5,1,0.3,2.5,0,3.5c-1.5,3.5-2.5,7-2.3,10.8
				c0,0.8-0.3,1.8-0.8,2.2c-4,4.5-12,5.8-17.3,2.8c-0.5-0.3-1.3-1.3-1.3-2C380,375.8,379.5,374,374.3,366z"/>
			<path fill="#9D1C20" d="M340.3,366c-3.5,4.2-5.5,9.2-5.5,14.7c0,0.5,0,1.3,0,1.8c0.5,3.5,0.3,3.8-3.3,4.7
				c-5.5,1.8-10.5,0.5-14.8-3.5c-0.5-0.5-1-1.5-1-2.5c0-3.8-0.8-7.5-2.5-11c-0.5-1-0.5-2.2,0-3.3c2.5-5.5,6.8-8.8,12.8-9.3
				C332.5,358,337,360.8,340.3,366z"/>
			<path fill="#9D1C20" d="M278.5,364c-6.8,6.5-9.3,14.3-6.8,23.3c-5.3,3-13.5,0.3-17.5-6c-4.3-6.7-2.3-15.8,4.2-20.3
				C265.3,356.5,274,357.8,278.5,364z"/>
			<path fill="#9D1C20" d="M436,364c5.3-6,13.3-7.2,19.7-3.3c6.5,4.3,8.8,12.5,5.3,19.3c-3.3,6.8-11.3,10-18.3,7.5
				C445.3,378.3,442.8,370.5,436,364z"/>
		</g>
		<g>
			<path fill="#9D1C20" d="M308.5,416.5c0,8.3-6.8,15-15,15s-15-6.7-15-15.3c0-8.3,6.8-14.8,15-14.8S308.5,408.3,308.5,416.5z"/>
			<path fill="#9D1C20" d="M357.3,401.5c8.3,0,15,6.8,15,15.3c0,8.3-6.8,15-15.3,15c-8.3,0-14.7-6.8-14.7-15
				C342.3,408.3,349,401.5,357.3,401.5z"/>
			<path fill="#9D1C20" d="M421,401.5c8.3,0,15,6.8,15,15c0,8.3-6.8,15-15,15c-8.3,0-15-6.7-15-15C406,408.5,412.8,401.5,421,401.5z
				"/>
			<path fill="#9D1C20" d="M374.3,401.8c3.3-5.3,8-8,14.3-7.5c6,0.5,10.3,3.8,12.5,9.3c0.5,1,0.3,2.5,0,3.5c-1.5,3.5-2.5,7-2.3,10.8
				c0,0.8-0.3,1.8-0.8,2.3c-4,4.5-12,5.8-17.3,2.8c-0.5-0.3-1.3-1.3-1.3-2C380,411.5,379.5,409.8,374.3,401.8z"/>
			<path fill="#9D1C20" d="M340.3,401.8c-3.5,4.3-5.5,9.3-5.5,14.7c0,0.5,0,1.3,0,1.8c0.5,3.5,0.3,3.8-3.3,4.7
				c-5.5,1.8-10.5,0.5-14.8-3.5c-0.5-0.5-1-1.5-1-2.5c0-3.8-0.8-7.5-2.5-11c-0.5-1-0.5-2.3,0-3.3c2.5-5.5,6.8-8.8,12.8-9.2
				C332.5,393.8,337,396.5,340.3,401.8z"/>
			<path fill="#9D1C20" d="M278.5,399.8c-6.8,6.5-9.3,14.2-6.8,23.3c-5.3,3-13.5,0.3-17.5-6c-4.3-6.8-2.3-15.8,4.2-20.3
				C265.3,392.3,274,393.5,278.5,399.8z"/>
			<path fill="#9D1C20" d="M436,399.8c5.3-6,13.3-7.3,19.7-3.3c6.5,4.3,8.8,12.5,5.3,19.3c-3.3,6.8-11.3,10-18.3,7.5
				C445.3,414,442.8,406.3,436,399.8z"/>
		</g>
	</g>
	<path fill="#9D1C20" d="M442,137c0-4.8,0-4.8-3.8-4.8c-62.8,0-125.5,0-188.3,0s-125.5,0-188.3,0c-3.8,0-3.8,0-3.8,4.8
		c0,8-0.5,6.5,5.3,6.5c15.5,0,31,0,46.5,0c0.8,0,1.8,0,2.8,0c0,10,0,19.5,0,29c0,7.8,0.2,15.5,0.2,23.3c0,8-0.2,16-0.2,24
		c0,7.8,0,15.3,0,23c0,8,0.2,15.8,0.2,23.8c0,4.8,0,9.5,0,14.3h13.8V143.2l118.7,0.5l0,0h4.5h4.5l0,0l118.8-0.5v137.5h13.8
		c0-4.8,0-9.5,0-14.3c0-8,0.3-15.8,0.3-23.8c0-7.8,0-15.3,0-23c0-8-0.3-16-0.3-24c0-7.7,0.3-15.5,0.3-23.3c0-9.5,0-19,0-29
		c1.3,0,2,0,2.8,0c15.5,0,31,0,46.5,0C442.5,143.5,442,145,442,137z"/>
	<path fill="#9D1C20" d="M250,120.8c-42,0-84,0-126.3,0c-10.8,0-14-2.3-12.8-8.3c2.5-11.3,13.8-19.5,29.3-26.3
		c18.5-8,39.8-12.5,62.5-15.3c18.8-2.3,37.5-3.3,56.5-2.8c34.3,1,67,5,95.8,16c16,6,28.3,13.8,32.8,24.5c0.8,2,1.3,4.3,1.5,6.3
		c0.3,3.3-3.3,5.3-9.3,5.5c-1.3,0-2.5,0-4,0C334,120.8,292,120.8,250,120.8z"/>
	<path fill="#9D1C20" d="M277,281.5c-2.3-15.8-7-30.8-14.3-45c-1.7-3.3-3.8-6.5-5.8-10.3c0,0.8-0.3,1-0.3,1.3c0,0,0,0,0,0.3
		c-0.5-0.8-1-1.5-1.5-2.3c1.2,0.5,1.7,0,2.3-1.3c0.5-1.5,1-2.8,1.5-4.3c1.8,0.8,3.3,1.3,4.8,1.8c0-0.3,0.2-0.5,0.2-0.8
		c-1.3-1.7-3.5-1.5-4.8-2.5c0.3-2,0.8-4,0.8-5.8c-0.3-3.8-0.8-7.5-1.3-11.3c0,0.3,0.2,0.3,0.8,0.8c0.3-2.3,0.8-4.2,1-6.3
		c0-0.3-0.8-0.5-1-0.8c0.5-0.8,1.3-1.5,1.3-2.3c0.3-3,0.3-5.8,0-8.8c-0.3-1.7-0.5-3.5-1.5-5c-2.3-4-4.8-7.8-7-11.5
		c-1-2-2.5-3-4.5-3.8c0-0.2,0.3-0.2,0.3-0.5s0.2-0.8,0.2-1l-0.5-0.3c-0.3,0.3-0.3,0.5-0.5,1c-0.5,0.8-1,1.3-1.5,1.8
		c0.5,0.2,0.8,0.2,1,0.2h0.3h-0.3c-0.3,0-0.5,0-1-0.2c-0.3-0.5-0.5-0.8-1-1.5c-0.5,0.5-0.8,1-1.3,1.5c0.5,0.2,0.8,0.5,1.3,0.8h-0.3
		c-3.5,4-7,7.8-10.3,11.8c-0.3,0.2-0.3,1-0.3,1.5c0.3,0,0.3,0.3,0.5,0.3c1-1.3,2.3-2.5,3.3-3.5c2.8-3,5.3-6,8-8.8
		c0.5,0.3,1,0.5,1.3,0.8c1,0.5,2.5,1,3,1.8c3.3,6,7.3,11.5,6.7,19c0,1,0.3,1.7,0.3,2.8c-0.3,0-0.8,0-0.8,0c-0.5,1-0.8,2-1.3,3
		c-0.5,0.3-0.8,0.5-1.3,1c-1-1.5-1.5-0.2-2.3,0.3c-1.3-1-1.8-3-1.3-4c0,0.5,0,1,0.3,1.5c0.2,0,0.2,0,0.5,0c0.3-0.8,0.8-1.5,0.8-1.7
		c0.8-0.3,1.3-0.3,1.5-0.8c1.3-1.3,1.3-4,0.3-5.3c-0.5-0.8-1.3-1.5-2.5-1c-0.3,0-0.5,0-0.8,0c-2.5-2.3-6.7-1.3-9.2,1
		c-0.3,0.3-1,1-0.8,1.3c1,1.3-0.2,2.5,0,3.8c0,0.3,0.3,0.5,0.3,0.8c0,0.3,0.3,0.8,0,1c-0.8,1.3,0,3,1.3,3c0.3,1,0.3,2.5,0.8,2.7
		c0.8,0.5,2,0,3-0.2c-0.3,1.7-1.5,3.3-4.2,3.3c-4,0-6.3,2.3-8.8,4.5c-0.3,0.3-0.5,0.5-0.8,1c0.5,0,0.8,0.2,1,0.2
		c-2.3,0-3.5,1.3-5,2.5c-0.8,0.5-1.3,1.8-1,2.3c0.3,0.8,1.3,1.5,2,1.7c2.5,0.5,5,0.8,7.5,1c1.7,0.3,3.3,0,5,0c0,0.8,0,1.3-0.3,1.8
		c-0.5,2.3-0.5,4.3,0,6.5c2.5,2.3,5.5,2.3,8.5,2.8c1.3,0.2,2.3,0.2,3.5,0.5c0,0,0,0.3,0,0.5c-3.5-0.5-7-1-10.3-1.7
		c-0.5,0-1-0.8-1.5-1.3c-2.5,0.8-4,2.5-5,5c-0.8,1.7-1.3,3.8-1.8,5.5c-1.5,5-3,10-4.5,15c-2.8,10-5.5,20-7,30.3
		c-0.3,1.8,1.3,2.8,1.3,4.5c0,0,0.8,0.3,1.3,0.3c0.8-0.3,1.5-0.5,2-1c0.5-0.5,0.5-1.5,0.5-2c0,3.5,0,3.3,3.5,4c10,2.3,20,2,30.3,2
		c0.3,0,0.5,0,0.5,0c4-1.5,8-2,12.3-0.8c0.3,0,0.5,0,0.8,0C277.3,284,277.5,283.8,277,281.5z M235.5,209.8c1.3-0.5,2-1,2.7-1.3
		c1.3,1,2.3,2,3.3,2.8v0.3C239.8,210.8,238,210.3,235.5,209.8z"/>
</g>
</svg>
