<?xml version="1.0" encoding="utf-8"?>
<!-- Generator: Adobe Illustrator 18.0.0, SVG Export Plug-In . SVG Version: 6.00 Build 0)  -->
<!DOCTYPE svg PUBLIC "-//W3C//DTD SVG 1.1//EN" "http://www.w3.org/Graphics/SVG/1.1/DTD/svg11.dtd">
<svg version="1.1" id="Layer_1" xmlns="http://www.w3.org/2000/svg" xmlns:xlink="http://www.w3.org/1999/xlink" x="0px" y="0px"
	 viewBox="21 52 458 396" enable-background="new 21 52 458 396" xml:space="preserve">
<g>
	<g>
		<path fill="#9D1C20" d="M110,444c4.3-18,8.5-36,12.5-54.2c25.3-110,50.3-220,75.5-330c0.2-1.5,0.8-3,1.3-4.5c3,0,6,0,9.5,0
			c-0.3,1.8-0.5,3.3-0.8,4.8c-23.8,127-47.3,254-71,381c-0.5,3.3-1.5,4.2-3.3,4.2c-8-0.3-15.7,0-23.7,0C110,444.8,110,444.3,110,444
			z"/>
		<path fill="#9D1C20" d="M342.5,444.8c-25.8,0-51.3,0-77,0c-0.3-10.5-0.5-21.3-0.8-32c-8.8,0-17.3,0-26.3,0
			c-0.3,10.5-0.5,21-0.8,32c-25.8,0-51.3,0-77,0c19-130,38.3-259.8,57.3-389.3c9.5,0,18.8,0,28.3,0c0,10.8,0,21.3,0,32
			c3.5,0,7.3,0,11,0c0-10.5,0-21,0-31.8c9.2,0,18.5,0,28.3,0C304.3,185,323.3,314.8,342.5,444.8z M241.5,274.5
			c-0.8,30-1.3,59.5-2,89.3c8.3,0,16.3,0,24.2,0c-0.8-30-1.3-59.5-2-89.3C254.8,274.5,248.3,274.5,241.5,274.5z M258.5,136.3
			c-4.8,0-9.2,0-14,0c-0.8,29.8-1.3,59.5-2,89.3c6,0,11.8,0,18,0C259.8,195.8,259,166.3,258.5,136.3z"/>
		<path fill="#9D1C20" d="M294.3,55.5c0.5-0.3,0.8-0.3,1-0.3c8.3-0.5,8.3-0.5,11.5,13.3C335,192,363.3,315.3,391.5,438.8
			c0.5,2,0.8,4,1.5,6.3c-8.5,0-16.5,0-24.7,0c-2,0-2-2.5-2.3-4.5c-4.3-23.3-8.8-46.5-13-69.8C333.8,267.5,314.5,164.3,295.3,61
			C295,59.3,294.8,57.5,294.3,55.5z"/>
	</g>
	<g>
		<path fill="#9D1C20" d="M351,85c-1,0.5-2,1-2.8,1.8c-1.5,1.5-1.8,3.5-1.5,5.5c7.3,0,14.8,0,22.3,0c0-1.3,0-2.3,0-3.8
			c1.3,0,2.3,0,3.3,0c2.5,0,5,0,7.5,0c4.5,0,7.8,3,7.8,7.5c0,4.8,0,9.5,0,14.3c0,0.2-0.3,0.7-0.5,1c-2.2,1.3-3.3,3.3-3.3,5.8
			c0,7.5,0,15.2,0,22.7c0,0.8-0.3,1.3-0.8,2c-0.5,0.5-1,1.5-1,2.3c-0.3,2,0,3.8,0,5.8c5,0,9.7,0,14.7,0c0-2,0-4.3,0-6.3
			c0-0.5-0.5-1.3-1-1.8s-0.8-1-0.8-1.8c0-7.5,0-15,0-22.5c0-2.8-0.8-4.8-3.3-6c-0.3-0.3-0.5-0.8-0.5-1c0-4.5,0-9,0-13.8
			c0-4-1.3-7.3-4.5-9.5c-1.5-1-3.5-1.5-5-2.3C371.3,85,361.3,85,351,85z"/>
		<path fill="#9D1C20" d="M377.5,196.3c-1-0.5-1.3-1.5-1.3-2.8c0-1,0-1.7,0-2.8c0-2.7,1.8-5,4.5-5.5c0.3,0,0.8-0.3,1.3-0.3
			c0-10.5,0-21,0-31.3c5,0,9.8,0,14.8,0c0,10.5,0,21,0,31.5c3.8,0.8,5.5,2.8,5.5,6.3c0,0.8,0,1.5,0,2.3c0,1.3-0.3,2-1.3,2.8
			C393.3,196.3,385.5,196.3,377.5,196.3z M398.5,190.5c-0.3-1-0.8-1.8-1.8-1.8c-5,0-9.8,0-14.8,0c-1,0-1.8,0.5-1.8,1.8
			c0,0.8,0,1.3,0,2c6.3,0,12.3,0,18.5,0C398.5,191.8,398.5,191,398.5,190.5z"/>
		<path fill="#9D1C20" d="M368.8,96c-7.3,0-14.8,0-22,0c-0.8,4.5,2.2,7.5,6,7.5c3.3,0,6.8,0,10,0C367,103.5,369.5,100.5,368.8,96z"
			/>
		<path fill="#9D1C20" d="M344.8,116.3c0.3,1,0.5,1.5,1.5,1.8c1,0.3,1.8,0,2-1c0.5-1,1-2.3,1.8-3.3c0.8-1.3,1.3-2.8,2-4
			c0.5-1.3,0.3-2.3-0.8-2.7c-1-0.5-2,0-2.5,1c-1.3,2.3-2.3,4.8-3.5,7C345,115.8,344.8,116,344.8,116.3z"/>
		<path fill="#9D1C20" d="M363.3,109.3c0,0.3,0.3,0.8,0.5,1c1,2.3,2.3,4.5,3.3,6.8c0.8,1.3,1.8,1.8,2.8,1.3c1-0.5,1.3-1.5,0.5-2.7
			c-1.3-2.3-2.2-4.8-3.5-7c-0.5-0.8-1.3-1.3-2.2-1C363.8,107.5,363.5,108,363.3,109.3z"/>
		<path fill="#9D1C20" d="M337.5,110.5c0,1.8,1.5,2.5,2.8,1.8c0.5-0.2,1-0.7,1.3-1.3c1.5-1.5,3-3,4.5-4.5c1-1,1-2,0.3-2.8
			c-0.8-0.7-2-0.7-2.8,0.3c-1.8,1.8-3.5,3.5-5,5.2C337.8,109.8,337.5,110.3,337.5,110.5z"/>
		<path fill="#9D1C20" d="M368.8,105.3c0.5,0.7,0.5,1.3,1,1.5c1.7,1.8,3.5,3.5,5.3,5.2c1,1,2,1,2.8,0.3c0.8-0.8,0.8-1.8-0.3-2.8
			c-1.8-1.8-3.5-3.5-5.3-5.2c-0.5-0.5-1.5-1-2.3-0.5C369.5,104,369,104.5,368.8,105.3z"/>
		<path fill="#9D1C20" d="M359.5,112.5c0-1.3,0-2.3,0-3.5s-0.8-2-1.8-2c-1,0-1.7,0.8-1.7,2c0,2.5,0,4.8,0,7.3c0,1.3,0.8,2,1.7,1.8
			c1,0,1.8-0.8,1.8-2C359.8,115,359.5,113.8,359.5,112.5L359.5,112.5z"/>
	</g>
	<g>
		<path fill="#9D1C20" d="M397,236c-1.5,1-3.3,1.5-4.3,2.8c-2.5,2.3-2.5,5.3-2.2,8.5c11.3,0,22.2,0,33.8,0c0-1.7,0-3.5,0-5.5
			c1.8,0,3.3,0,4.7,0c3.8,0,7.8,0,11.5,0c7,0,11.8,4.5,12,11.5c0.3,7.3,0,14.5,0,21.8c0,0.5-0.3,1.3-0.8,1.5c-3.5,1.8-5,4.8-5,8.8
			c0,11.5,0,23,0,34.5c0,1.3-0.3,2-1,3c-0.8,0.8-1.5,2.3-1.5,3.3c-0.3,3,0,5.8,0,9c7.5,0,14.7,0,22.2,0c0-3.3,0-6.5,0-9.7
			c0-1-0.8-2-1.5-2.8c-0.8-0.8-1-1.5-1-2.5c0-11.5,0-22.8,0-34.2c0-4-1.3-7.3-5-9.3c-0.5-0.3-0.8-1-0.8-1.8c0-7,0-14,0-20.8
			c0-6-2-11-7-14.5c-2.3-1.5-5.3-2.3-7.8-3.5C427.8,236,412.5,236,397,236z"/>
		<path fill="#9D1C20" d="M437.3,405.5c-1.5-1-2-2.3-2-4c0-1.5,0-2.8,0-4.2c0.3-4.3,2.8-7.5,6.8-8.5c0.5-0.3,1.3-0.3,2-0.3
			c0-16,0-32,0-47.8c7.5,0,15,0,22.5,0c0,16,0,32,0,47.8c5.8,1,8.5,4,8.5,9.5c0,1.3,0,2.2,0,3.5c0,1.8-0.5,3.3-2,4
			C461.3,405.5,449.3,405.5,437.3,405.5z M469.3,396.8c-0.3-1.5-1.3-2.5-2.8-2.5c-7.5,0-15,0-22.5,0c-1.5,0-2.5,1-2.8,2.5
			c0,1,0,2,0,3c9.2,0,18.5,0,28,0C469.3,398.5,469.3,397.8,469.3,396.8z"/>
		<path fill="#9D1C20" d="M424,253c-11.3,0-22.2,0-33.5,0c-1.3,7,3.3,11.5,9,11.3c5-0.3,10.3,0,15.3,0
			C421.3,264.3,425,259.8,424,253z"/>
		<path fill="#9D1C20" d="M387.5,284c0.3,1.5,0.8,2.5,2,2.8c1.5,0.3,2.5,0,3.3-1.3c1-1.8,1.8-3.3,2.5-5c1-2,2-4,3-6
			c0.8-1.8,0.3-3.5-1.3-4c-1.5-0.8-3,0-3.8,1.5c-1.8,3.5-3.5,7.3-5.5,10.8C387.8,283,387.5,283.5,387.5,284z"/>
		<path fill="#9D1C20" d="M415.8,273c0.3,0.3,0.3,1,0.5,1.5c1.8,3.5,3.3,6.7,5,10.3c1,2,2.5,2.5,4.3,1.7c1.5-0.8,1.8-2.5,1-4.2
			c-1.7-3.5-3.5-7-5.3-10.5c-0.8-1.3-1.8-2-3.3-1.5C416.5,270.5,415.8,271.3,415.8,273z"/>
		<path fill="#9D1C20" d="M376.3,275.3c0,2.5,2.3,4,4.3,2.8c0.8-0.5,1.3-1,2-1.8c2.3-2.3,4.5-4.5,6.8-6.8c1.5-1.5,1.5-3,0.3-4.3
			s-3-1.3-4.3,0.3c-2.8,2.5-5.3,5.3-7.8,7.8C376.8,274,376.5,274.8,376.3,275.3z"/>
		<path fill="#9D1C20" d="M423.8,267c0.5,1,1,1.8,1.5,2.5c2.5,2.8,5.3,5.3,7.8,7.8c1.5,1.5,3.3,1.5,4.3,0.3c1.3-1.3,1-2.8-0.3-4.3
			c-2.8-2.8-5.3-5.3-8-8c-1-1-2.2-1.3-3.3-0.5C425,265,424.5,266,423.8,267z"/>
		<path fill="#9D1C20" d="M410,278.3c0-1.8,0-3.5,0-5.3c0-2-1.3-3-2.8-3c-1.5,0-2.8,1-2.8,3c0,3.8,0,7.5,0,11c0,1.8,1.3,2.8,2.8,2.8
			c1.5,0,2.8-1,2.8-3C410,282,410,280.3,410,278.3L410,278.3z"/>
	</g>
	<g>
		<path fill="#9D1C20" d="M149,85c1,0.5,2,1,2.8,1.8c1.5,1.5,1.8,3.5,1.5,5.5c-7.3,0-14.8,0-22.3,0c0-1.3,0-2.3,0-3.8
			c-1.3,0-2.3,0-3.3,0c-2.5,0-5,0-7.5,0c-4.5,0-7.7,3-7.7,7.5c0,4.8,0,9.5,0,14.3c0,0.2,0.2,0.7,0.5,1c2.3,1.3,3.3,3.3,3.3,5.8
			c0,7.5,0,15.2,0,22.7c0,0.8,0.2,1.3,0.7,2c0.5,0.5,1,1.5,1,2.3c0.2,2,0,3.8,0,5.8c-5,0-9.8,0-14.8,0c0-2,0-4.3,0-6.3
			c0-0.5,0.5-1.3,1-1.8s0.8-1,0.8-1.8c0-7.5,0-15,0-22.5c0-2.8,0.7-4.8,3.2-6c0.3-0.3,0.5-0.8,0.5-1c0-4.5,0-9,0-13.8
			c0-4,1.3-7.3,4.5-9.5c1.5-1,3.5-1.5,5-2.3C128.8,85,138.8,85,149,85z"/>
		<path fill="#9D1C20" d="M99,196.3c-1-0.5-1.3-1.5-1.3-2.8c0-0.8,0-1.5,0-2.3c0-3.5,1.8-5.5,5.5-6.3c0-10.5,0-20.8,0-31.5
			c5,0,9.8,0,14.8,0c0,10.5,0,20.8,0,31.3c0.5,0,0.8,0.3,1.3,0.3c2.5,0.5,4.3,2.8,4.5,5.5c0,1,0,1.7,0,2.7c0,1.3-0.3,2-1.3,2.8
			C114.5,196.3,106.8,196.3,99,196.3z M101.5,192.3c6.3,0,12.3,0,18.5,0c0-0.8,0-1.3,0-2c-0.3-1-0.8-1.5-1.8-1.8c-5,0-9.8,0-14.8,0
			c-1,0-1.8,0.5-1.8,1.8C101.5,191,101.5,191.8,101.5,192.3z"/>
		<path fill="#9D1C20" d="M131.3,96c7.3,0,14.8,0,22,0c0.8,4.5-2.3,7.5-6,7.5c-3.3,0-6.8,0-10,0C133,103.5,130.5,100.5,131.3,96z"/>
		<path fill="#9D1C20" d="M155.3,116.3c-0.3,1-0.5,1.5-1.5,1.8s-1.8,0-2-1c-0.5-1-1-2.3-1.8-3.3c-0.8-1.3-1.3-2.8-2-4
			c-0.5-1.3-0.3-2.3,0.8-2.7c1-0.5,2,0,2.5,1c1.3,2.3,2.3,4.8,3.5,7C155,115.8,155.3,116,155.3,116.3z"/>
		<path fill="#9D1C20" d="M136.8,109.3c0,0.3-0.3,0.8-0.5,1c-1,2.3-2.3,4.5-3.3,6.8c-0.8,1.3-1.8,1.8-2.8,1.3s-1.3-1.5-0.5-2.7
			c1.3-2.3,2.3-4.8,3.5-7c0.5-0.8,1.3-1.3,2.3-1C136.3,107.5,136.5,108,136.8,109.3z"/>
		<path fill="#9D1C20" d="M162.5,110.5c0,1.8-1.5,2.5-2.8,1.8c-0.5-0.2-1-0.7-1.3-1.3c-1.5-1.5-3-3-4.5-4.5c-1-1-1-2-0.2-2.8
			c0.7-0.7,2-0.7,2.7,0.3c1.8,1.8,3.5,3.5,5,5.2C162.3,109.8,162.5,110.3,162.5,110.5z"/>
		<path fill="#9D1C20" d="M131.3,105.3c-0.5,0.7-0.5,1.3-1,1.5c-1.8,1.8-3.5,3.5-5.3,5.2c-1,1-2,1-2.8,0.3c-0.7-0.8-0.7-1.8,0.3-2.8
			c1.8-1.8,3.5-3.5,5.3-5.2c0.5-0.5,1.5-1,2.3-0.5C130.5,104,131,104.5,131.3,105.3z"/>
		<path fill="#9D1C20" d="M140.5,112.5c0-1.3,0-2.3,0-3.5s0.8-2,1.8-2s1.8,0.8,1.8,2c0,2.5,0,4.8,0,7.3c0,1.3-0.8,2-1.8,1.8
			c-1,0-1.8-0.8-1.8-2C140.3,115,140.5,113.8,140.5,112.5L140.5,112.5z"/>
	</g>
	<g>
		<path fill="#9D1C20" d="M103,236c1.5,1,3.3,1.5,4.3,2.8c2.5,2.3,2.5,5.3,2.3,8.5c-11.3,0-22.3,0-33.8,0c0-1.7,0-3.5,0-5.5
			c-1.8,0-3.3,0-4.8,0c-3.8,0-7.8,0-11.5,0c-7,0-11.8,4.5-12,11.5c-0.3,7.3,0,14.5,0,21.8c0,0.5,0.3,1.3,0.8,1.5
			c3.5,1.8,5,4.8,5,8.8c0,11.5,0,23,0,34.5c0,1.3,0.3,2,1,3c0.7,0.8,1.5,2.3,1.5,3.3c0.3,3,0,5.8,0,9c-7.5,0-14.8,0-22.3,0
			c0-3.3,0-6.5,0-9.7c0-1,0.8-2,1.5-2.8c0.8-0.8,1-1.5,1-2.5c0-11.5,0-22.8,0-34.2c0-4,1.3-7.3,5-9.3c0.5-0.3,0.8-1,0.8-1.8
			c0-7,0-14,0-20.8c0-6,2-11,7-14.5c2.3-1.5,5.3-2.3,7.8-3.5C72.3,236,87.5,236,103,236z"/>
		<path fill="#9D1C20" d="M27,405.5c-1.5-1-2-2.3-2-4c0-1.3,0-2.2,0-3.5c0-5.5,2.8-8.5,8.5-9.5c0-15.8,0-31.8,0-47.8
			c7.5,0,15,0,22.5,0c0,15.8,0,31.8,0,47.8c0.7,0.3,1.3,0.3,2,0.3c4,1,6.5,4.3,6.8,8.5c0,1.5,0,2.8,0,4.2c0,1.8-0.5,3.3-2,4
			C50.8,405.5,38.8,405.5,27,405.5z M30.8,399.8c9.5,0,18.8,0,28,0c0-1,0-2,0-3c-0.3-1.5-1.3-2.5-2.8-2.5c-7.5,0-15,0-22.5,0
			c-1.5,0-2.5,1-2.8,2.5C30.8,397.8,30.8,398.5,30.8,399.8z"/>
		<path fill="#9D1C20" d="M76,253c11.3,0,22.3,0,33.5,0c1.3,7-3.3,11.5-9,11.3c-5-0.3-10.2,0-15.2,0C78.8,264.3,75,259.8,76,253z"/>
		<path fill="#9D1C20" d="M112.5,284c-0.3,1.5-0.8,2.5-2,2.8c-1.5,0.3-2.5,0-3.3-1.3c-1-1.8-1.8-3.3-2.5-5c-1-2-2-4-3-6
			c-0.8-1.8-0.2-3.5,1.3-4c1.5-0.8,3,0,3.8,1.5c1.8,3.5,3.5,7.3,5.5,10.8C112.3,283,112.5,283.5,112.5,284z"/>
		<path fill="#9D1C20" d="M84.3,273c-0.2,0.3-0.2,1-0.5,1.5c-1.8,3.5-3.3,6.7-5,10.3c-1,2-2.5,2.5-4.3,1.7c-1.5-0.8-1.8-2.5-1-4.2
			c1.8-3.5,3.5-7,5.3-10.5c0.8-1.3,1.8-2,3.3-1.5C83.5,270.5,84.3,271.3,84.3,273z"/>
		<path fill="#9D1C20" d="M123.8,275.3c0,2.5-2.3,4-4.3,2.8c-0.8-0.5-1.3-1-2-1.8c-2.3-2.3-4.5-4.5-6.8-6.8c-1.5-1.5-1.5-3-0.3-4.3
			s3-1.3,4.3,0.3c2.8,2.5,5.3,5.3,7.8,7.8C123.3,274,123.5,274.8,123.8,275.3z"/>
		<path fill="#9D1C20" d="M76.3,267c-0.5,1-1,1.8-1.5,2.5c-2.5,2.8-5.3,5.3-7.8,7.8c-1.5,1.5-3.3,1.5-4.3,0.3
			c-1.3-1.3-1-2.8,0.3-4.3c2.8-2.8,5.3-5.3,8-8c1-1,2.3-1.3,3.3-0.5C75,265,75.5,266,76.3,267z"/>
		<path fill="#9D1C20" d="M90,278.3c0-1.8,0-3.5,0-5.3c0-2,1.3-3,2.8-3c1.5,0,2.7,1,2.7,3c0,3.8,0,7.5,0,11c0,1.8-1.3,2.8-2.7,2.8
			c-1.5,0-2.8-1-2.8-3C90,282,90,280.3,90,278.3L90,278.3z"/>
	</g>
</g>
</svg>
