<?xml version="1.0" encoding="utf-8"?>
<!-- Generator: Adobe Illustrator 18.0.0, SVG Export Plug-In . SVG Version: 6.00 Build 0)  -->
<!DOCTYPE svg PUBLIC "-//W3C//DTD SVG 1.1//EN" "http://www.w3.org/Graphics/SVG/1.1/DTD/svg11.dtd">
<svg version="1.1" id="Layer_1" xmlns="http://www.w3.org/2000/svg" xmlns:xlink="http://www.w3.org/1999/xlink" x="0px" y="0px"
	 viewBox="72 22 356 456" enable-background="new 72 22 356 456" xml:space="preserve">
<g>
	<path fill="#9D1C20" d="M370.5,104.3c16-2.5,27-11.5,31.8-26.8c5-15.8,1-29.5-10.8-41c-6.3-6-14-8.5-22.2-10.3c-3,0-5.8,0-8.8,0
		c-0.8,0.3-1.5,0.5-2.5,0.8c-8.3,1.5-15.5,5.3-21.3,11.5c-11.3,12-14,29.8-7.3,43.8C336.5,96.8,353,107,370.5,104.3z"/>
	<path fill="#9D1C20" d="M131.5,104.3c16.3-2.5,27.3-12,32-27.8c4.5-15.3,0.5-28.8-11-39.8c-6-5.7-13.8-8.5-21.8-10.3
		c-3,0-5.8,0-8.8,0c-1,0.3-2.3,0.5-3.3,0.8c-14,3.3-24.3,11.2-29.3,24.7C78.8,79.8,102.3,108.8,131.5,104.3z"/>
	<path fill="#9D1C20" d="M222.5,188c-13.3-1.5-26.5-3.8-40-4.5c-12.8-0.8-23.3-4.2-31-15c-2-2.8-4.8-4.8-7-7.3
		c-5.8-5.8-11.3-11.5-17.3-17.5c0.5,0,0.8,0,1,0c9.3,4.8,18.5,9.3,27.5,14.5c6.3,3.7,12.8,4,20,4.7c0-6.3,0.5-12.3,0-18
		c-1.3-14.8-10.5-24.3-25.5-25c-15.3-0.2-30.5,0-45.8,0.3c-18.3,0-29,11-29,29.3C75.3,248.8,75,347.8,75,447c0,2.3,0.3,4.8,0.5,7
		c1,8.5,5.8,14.5,13.5,17.8c8,3.5,15.7,2.2,22.7-3c7-5.3,8.8-12.5,9-20.8c0-53.3,0.3-106.5,0.5-160c0-1.8,0-3.3,0-5
		c3.5,0,6.5,0,9.8,0c0,2,0,3.8,0,5.5c0,52.8,0,105.5,0,158.3c0,2,0,4,0.2,6c1.5,12.8,11.5,21.5,23.8,20.8
		c12.3-0.8,21.5-10.3,21.5-23.3c0-69,0-138-0.3-207c0-2.7-0.8-3.8-3.5-4c-9-0.8-18.3-2.3-27.3-3.3c-8.3-1-13.8-5-17.5-12.5
		c-8.3-16.3-17-32-25.5-48.2c-0.8-1.3-1.3-2.5-1.8-3.8c0.3-0.3,0.8-0.5,1-1c1,1.3,1.8,2.7,2.7,3.8c12.3,12.3,24.5,24.2,36.5,36.5
		c3.8,3.8,8.3,6.5,13.8,7c21.5,2.5,43,5.3,64.5,7.5c11.7,1.3,20.5-6,21.5-17.3C241.5,198.3,233.8,189.5,222.5,188z"/>
	<path fill="#9D1C20" d="M421.8,206c-6-15.8-11.5-32-17.3-48c-0.5-1.3-1-2.8-1.3-4c0.3,0,0.5-0.2,0.8-0.2
		c3.5,5.2,7.3,10.5,11.5,16.8c0-9.3,0.3-17.3,0-25c-0.5-13.5-10.5-24.5-24-25c-16.7-0.8-33.5-0.3-50.3-0.3c-2,0-4,0.3-6,0.8
		c-12.5,3.3-20,13.5-20,27.8c0,3.5-1,5.3-4.2,7c-17.5,9.8-34.8,19.8-52,29.5c-1.5,0.8-3,1.7-4.5,2.8c4.3,8,5.8,16.3,4.3,25
		c-1.5,8.5-5.8,15.8-11.5,22.5C269.8,222.8,292,210,315,197c0,2.5,0,4,0,5.5c0,81-0.3,162.3-0.3,243.3c0,2.3,0,4.5,0.3,6.5
		c0.8,9.5,5.8,16,14.5,19.5c15.8,6,30.8-5.5,30.8-23.3c0-50,0-100.2,0-150.3c0-5-1-10.3-0.3-15.3c2-14.8,4.8-29.5,7-44.5
		c1.3-8.5,3.3-17.3,3.5-26c0.3-7.7-1.3-15.2-2-23c-0.8-7.8-1.3-15.5-2-23.5c1,1.3,1.8,2.5,2.3,4c5.8,16,11.3,31.8,16.7,47.8
		c1,2.5,1.3,5.8,0.8,8.5c-2.5,17-5.5,34.2-8.3,51.3c-0.8,5-1.5,10.5-0.8,15.5c1.5,9,10.3,14.8,19.3,14.3c9-0.5,16-7.3,17.8-17
		c3.3-19.5,6-39,9.5-58.5C425.8,223,425,214.8,421.8,206z"/>
	<path fill="#9D1C20" d="M415.5,319.3c-7.8,4.3-15.3,6.5-23.5,5.5c-8.3-0.8-15.3-4.5-22-10c0,1.7,0,2.7,0,3.8
		c0.3,43.3,0.3,86.7,0.5,130c0,1.5,0.3,3.3,0.3,4.7c1,8.5,5.5,14.7,13.3,18.3c8,3.5,15.8,2.8,22.8-2.5c7.2-5.3,9.5-12.8,9.3-21.5
		c-0.3-37.8-0.3-75.5-0.5-113C415.5,329.8,415.5,325,415.5,319.3z"/>
</g>
</svg>
