<?xml version="1.0" encoding="utf-8"?>
<!-- Generator: Adobe Illustrator 18.0.0, SVG Export Plug-In . SVG Version: 6.00 Build 0)  -->
<!DOCTYPE svg PUBLIC "-//W3C//DTD SVG 1.1//EN" "http://www.w3.org/Graphics/SVG/1.1/DTD/svg11.dtd">
<svg version="1.1" id="Layer_1" xmlns="http://www.w3.org/2000/svg" xmlns:xlink="http://www.w3.org/1999/xlink" x="0px" y="0px"
	 viewBox="34 69 432 362" enable-background="new 34 69 432 362" xml:space="preserve">
<path fill="none" d="M466.5,200.3l-10,1.7c0,0,5-1.7,5.3-1.7C461.8,200,466.5,200.3,466.5,200.3z"/>
<g>
	<g>
		<g>
			<path fill="#9D1C20" d="M249,195.3c-0.3-0.3-0.3-0.3-0.5-0.5c-2.8,0.8-3.5,3-3.8,5.5c0,0.3,0,0.8-0.3,1c-0.2,0.5-0.8,1-1.3,1.8
				c-0.8,1.5-1.5,2.7-2.3,4.2c-0.5,0.8-1,1-2,0.5c-4-2-8-3.8-12-5.5c0-0.5,0.3-1,0.3-1.5c2.5,0.3,3.5-0.5,3.5-3c0-0.5,0-1,0-1.5
				c-0.2-1-0.2-1.8,0.5-2.8c0.2-0.5,0.2-1.5,0-2c-0.5-1-1.3-1.8-2.3-2.5c-0.5-0.5-1.3-1-2-1.3c-2.3-0.5-4.3-0.3-5.8,1.5
				c-1.8,2-2,4.2-1.5,6.5c0,0.3,0.5,0.5,1,0.8c1.3,0,2.3,0,3.5,0c0,0,0,0,0,0.3c-1.5,0-2.8,0.2-4.5,0.2c0.3,3.3-3,3-5,4.3
				c0.8,0.2,1.3,0.2,1.5,0.2l0,0c-1,0-2,0-3.5,0c-3.8-3-7.5-6-11.5-9.2c0-2.5,0-4.8,0-7.3c2-2.3,4.2-4.8,6.5-7.3
				c0.5-0.5,1-1.3,1.5-2c0-0.3,0-0.5,0-0.8c-0.3,0-0.5,0-0.8,0c-0.2,0.2-0.5,0.5-0.8,0.8c-2.3,2.8-4.8,5.5-7,8
				c-0.3,0.2-0.3,0.2-0.5,0.5c-0.8,0.5-1.5,1-2.3,1.5c0,0,0,0.5,0,0.8c-1.5-0.2-1,1.3-1.5,2c-0.3,0.8,0,1.7,1,2.3
				c0-0.5,0.3-0.8,0.3-1c0.3,1.7,0.5,3.3,1,4.8c0.3,0.5,0.5,1,0.3,1.8s-0.3,1,0.3,1.7c2.3,2.3,4.8,4.5,7,6.7c1.8,2,4,3,6.8,3.3
				c1,0,1.7,0.3,2.8,0.3c0,0.5-0.3,0.8-0.3,1c-0.3,1.3-2.8,5.5-3.5,6.5c-4,4.2-6.8,9.5-8.5,15c-0.2,0.5-0.2,1-0.2,1.5
				c0.8,0.3,1.5,0.5,2.3,1c2.5,1.5,5.3,2,8.3,1.7c2.8-0.3,5.5,0,8.3,0l0,0c-1.5,0-3.3,0-4.8,0c-0.5,6-0.5,11.8,0.3,17.5
				c0.3,2,0.8,3.8,2.8,4.8c0.3,0,0.3,0.3,0.3,0.5c0.8,4,1.7,8,2.5,12c0.3,1.3,0.8,2.3,1.3,3.3c0.5,1,1,1.8,2.3,0.8c0,0.8,0,1,0,1.5
				c-2.5,1-5.5,1-7.5,3c0.5,0.5,1,0.8,1.8,0.8c3.3,0,6.5,0,9.8,0c0.5,0,1.3-0.8,1.3-1c0-0.8-0.5-1.5-0.8-2.5c-0.2-0.5-0.8-1-0.8-1.3
				c-0.3-2.5-0.5-5.2-0.5-7.7c-0.2-3.3-0.2-6.3-0.2-9.3c1.5-1,3.3-2,4.8-3c2.3-1.5,4.5-2.8,6.7-4.2c0.8-0.5,1.3-0.5,2-0.3
				c1.3,0.5,2.3,1,3.5,1.3l0.3-0.3c-0.3-0.5-0.5-1-0.8-1.3c-1.5-1.5-2.7-2.7-4.5-4c-0.5-0.5-1.3-0.5-1.8-0.8
				c-0.2,0.5-0.5,1.3-0.8,1.7c0,0,0,0.3,0,0.5c-0.3-0.5-0.3-0.8-0.5-1.3c-2.7,1.3-5.2,3-8.8,3.5c3.3-3.8,4.5-8,4.5-13
				c-3,0-5.8,0-8.8,0l0,0c4.8,0,9.5,0,14.5,0c-0.5-2-1-4-1.7-6c-1.5-3.5-3.5-6.7-5-10c-0.5-1-0.5-2-0.3-3c0.3-1.5,0.8-2.8,1.3-4
				c1.5,0.5,2.8,0.8,4,1c2.5,0.8,4.5,0.2,6-2.3c1-1.7,2-3.5,3-5.2c0.8-1.3,1.5-2.8-0.8-3.8c1.3-1.3,2.3-2.3,3-3.3c0.5-0.8,0.8-2,1-3
				C250.5,196,249.5,195.5,249,195.3z"/>
			<path fill="#9D1C20" d="M253.8,185.5c-1.5,0.5-5,8.3-4.5,9.5c0.5-1,1.3-2,1.7-3l0,0C251.8,189.8,252.8,187.8,253.8,185.5z"/>
		</g>
		<g>
			<path fill="#9D1C20" d="M251,195.3c0.3-0.3,0.3-0.3,0.5-0.5c2.8,0.8,3.5,3,3.8,5.5c0,0.3,0,0.8,0.3,1c0.2,0.5,0.8,1,1.3,1.8
				c0.8,1.5,1.5,2.7,2.3,4.2c0.5,0.8,1,1,2,0.5c4-2,8-3.8,12-5.5c0-0.5-0.3-1-0.3-1.5c-2.5,0.3-3.5-0.5-3.5-3c0-0.5,0-1,0-1.5
				c0.3-1,0.3-1.8-0.5-2.8c-0.3-0.5-0.3-1.5,0-2c0.5-1,1.3-1.8,2.3-2.5c0.5-0.5,1.3-1,2-1.3c2.3-0.5,4.3-0.3,5.8,1.5
				c1.8,2,2,4.2,1.5,6.5c0,0.3-0.5,0.5-1,0.8c-1.3,0-2.3,0-3.5,0c0,0,0,0,0,0.3c1.5,0,2.8,0.2,4.5,0.2c-0.3,3.3,3,3,5,4.3
				c-0.8,0.2-1.3,0.2-1.5,0.2l0,0c1,0,2,0,3.5,0c3.8-3,7.5-6,11.5-9.2c0-2.5,0-4.8,0-7.3c-2-2.3-4.2-4.8-6.5-7.3
				c-0.5-0.5-1-1.3-1.5-2c0-0.3,0-0.5,0-0.8c0.2,0,0.5,0,0.8,0c0.3,0.2,0.5,0.5,0.8,0.8c2.3,2.8,4.8,5.5,7,8
				c0.3,0.2,0.3,0.2,0.5,0.5c0.8,0.5,1.5,1,2.3,1.5c0,0,0,0.5,0,0.8c1.5-0.2,1,1.3,1.5,2c0.3,0.8,0,1.7-1,2.3c0-0.5-0.3-0.8-0.3-1
				c-0.3,1.7-0.5,3.3-1,4.8c-0.3,0.5-0.5,1-0.3,1.8s0.3,1-0.3,1.7c-2.3,2.3-4.8,4.5-7,6.7c-1.8,2-4,3-6.8,3.3c-1,0-1.8,0.3-2.8,0.3
				c0,0.5,0.3,0.8,0.3,1c0.3,1.3,2.8,5.5,3.5,6.5c4,4.2,6.8,9.5,8.5,15c0.3,0.5,0.3,1,0.3,1.5c-0.8,0.3-1.5,0.5-2.3,1
				c-2.5,1.5-5.3,2-8.3,1.7c-2.8-0.3-5.5,0-8.3,0l0,0c1.5,0,3.3,0,4.8,0c0.5,6,0.5,11.8-0.3,17.5c-0.3,2-0.8,3.8-2.8,4.8
				c-0.3,0-0.3,0.3-0.3,0.5c-0.8,4-1.8,8-2.5,12c-0.3,1.3-0.8,2.3-1.3,3.3c-0.5,1-1,1.8-2.3,0.8c0,0.8,0,1,0,1.5c2.5,1,5.5,1,7.5,3
				c-0.5,0.5-1,0.8-1.8,0.8c-3.3,0-6.5,0-9.8,0c-0.5,0-1.3-0.8-1.3-1c0-0.8,0.5-1.5,0.8-2.5c0.3-0.5,0.8-1,0.8-1.3
				c0.2-2.5,0.5-5.2,0.5-7.7c0.3-3.3,0.3-6.3,0.3-9.3c-1.5-1-3.3-2-4.8-3c-2.3-1.5-4.5-2.8-6.8-4.2c-0.8-0.5-1.3-0.5-2-0.3
				c-1.3,0.5-2.3,1-3.5,1.3l-0.3-0.3c0.3-0.5,0.5-1,0.8-1.3c1.5-1.5,2.7-2.7,4.5-4c0.5-0.5,1.3-0.5,1.7-0.8c0.3,0.5,0.5,1.3,0.8,1.7
				c0,0,0,0.3,0,0.5c0.2-0.5,0.2-0.8,0.5-1.3c2.8,1.3,5.3,3,8.8,3.5c-3.3-3.8-4.5-8-4.5-13c3,0,5.8,0,8.8,0l0,0c-4.8,0-9.5,0-14.5,0
				c0.5-2,1-4,1.8-6c1.5-3.5,3.5-6.7,5-10c0.5-1,0.5-2,0.3-3c-0.3-1.5-0.8-2.8-1.3-4c-1.5,0.5-2.8,0.8-4,1c-2.5,0.8-4.5,0.2-6-2.3
				c-1-1.7-2-3.5-3-5.2c-0.8-1.3-1.5-2.8,0.8-3.8c-1.3-1.3-2.3-2.3-3-3.3c-0.5-0.8-0.8-2-1-3C249.5,196,250.5,195.5,251,195.3z"/>
			<path fill="#9D1C20" d="M246.3,185.5c1.5,0.5,5,8.3,4.5,9.5c-0.5-1-1.3-2-1.7-3l0,0C248.3,189.8,247.3,187.8,246.3,185.5z"/>
		</g>
	</g>
	<g>
		<path fill="#9D1C20" d="M323.5,151c-0.3-4.8,0-9.3,0-14h-2c0,4.5,0,9,0,13.5c0,1-0.8,2-1.5,2.5c-3,2.5-6.3,4.8-9.2,7.3
			c-1.3,1-1.3,2-0.3,3.8c1.5,2.8,3,5.5,4.5,8.3c1,2,2,3.8,3.3,5.8c2.8-2.5,5.3-4.8,7.5-7c4.3-4.3,4-11.5,0-16
			C324.3,154.3,323.5,152.5,323.5,151z"/>
		<path fill="#9D1C20" d="M150.8,153.5c-1.5-1-2-2-2-4c0-4,0-8.2,0-12.3V137h-2.3c0,4.3,0,8.5,0,13c0,2.5-0.3,4.3-2,5.7
			c-3.5,3-3.8,12.5,0.8,16c2,1.5,3.8,3.3,5.5,5c1,1,1.8,1.3,2.5-0.3c2.3-4.2,4.8-8.5,6.8-12.8c0.3-0.8,0.3-2.7-0.3-3
			C156.8,158,153.8,155.5,150.8,153.5z"/>
		<path fill="#9D1C20" d="M180.5,153.3c-1.3-0.8-2-1.5-2-3.5c0-3.8,0-7.5,0-11.3c0-0.8,0-1.3,0-1.8H176c0,4.8,0,9.5,0,14.3
			c0,1.3-0.8,3-1.5,4c-3,3.3-4.2,8.8-1.7,12.8s6,7,9.2,10.8c3-5.5,5.8-10.5,8.3-15.3c0.3-0.5,0-2.3-0.3-2.5
			C186.8,158,183.8,155.5,180.5,153.3z"/>
		<path fill="#9D1C20" d="M353.5,150.5c-0.3-4.3,0-8.5,0-13c0-0.3,0-0.5,0-0.5h-2v0.3c-0.3,4.3,0,8.3,0,12.5c0,1-0.5,2.5-1,3
			c-2.8,2-5.5,3.8-8.3,5.8c-3.3,2.8-3.3,2.8-1,7c2.3,4,4.3,8,6.8,12.5c2.8-2.5,5.3-4.5,7.5-6.8c4.3-4,4.3-11.8,0.3-16
			C354.5,154.3,353.8,152.3,353.5,150.5z"/>
	</g>
	<path fill="#9D1C20" d="M452.3,325.3c0-2-0.8-2.8-2.3-2.8c-2.3,0-4.5,0-6.8,0c-4.3,0-4.3,0-4.3-5.5c0-8.3,0.5-6.8-5.5-6.8
		c-7.5,0-7,1-6.8-8c0-2.5-0.8-3.5-2.8-3.5c-3,0-6,0-9,0c-1.8,0-2.5-1-2.5-3c0-1.8-0.3-3.8,0-5.5c0.3-3-0.5-4.3-3-4
		c-2.2,0.3-4.3,0-6.5,0c-7.8,0-6.5,0.3-6.5-8c0-2.8-0.8-3.8-3-3.8c-5,0.2-10.3,0-15.3,0c-24.7,0-49.3,0-74,0c-1,0-1.5,0-2.3-0.3
		H198.3c-0.5,0.3-1.3,0.3-2.3,0.3c-28.5,0-57,0-85.5,0c-6.5,0-6.5,0-6.8,8c0,2.8-1,3.8-3,3.5c-3.5,0-7,0-10.5,0
		c-2,0-2.8,0.8-2.8,3.3c0.3,2,0,4,0,6c0,2.3-0.8,3.5-2.8,3.3c-2.3,0-4.8,0-7,0c-4.3,0-4.3,0-4.3,5.5c0,6.3,0,6.3-5,6.3
		c-7.2,0-7.2,0-7.5,8.5v0.3c0.3,2.5-0.7,3.5-3,3.5c-2.8,0-5.3,0-8,0c-0.8,0-2,0.8-2,1c-0.3,2.8-0.5,5.5,0.3,8.3
		c0.3,0.8,2.8,1.3,4.3,1.3c66,0,132,0,197.8,0c65.3,0,130.5,0,195.8,0C452.8,333.3,452.5,333.3,452.3,325.3z"/>
	<g>
		<g>
			<path fill="#9D1C20" d="M93.8,375.8c0,8.3-6.8,15-15,15s-15-6.8-15-15.3c0-8.3,6.8-14.8,15-14.8C87,360.5,93.8,367.3,93.8,375.8z
				"/>
			<path fill="#9D1C20" d="M142.8,360.5c8.3,0,15,6.8,15,15.3c0,8.3-6.8,15-15.3,15c-8.3,0-14.8-6.8-14.8-15
				C127.8,367.3,134.5,360.5,142.8,360.5z"/>
			<path fill="#9D1C20" d="M206.5,360.5c8.3,0,15,6.8,15,15s-6.8,15-15,15c-8.3,0-15-6.8-15-15C191.5,367.5,198.3,360.8,206.5,360.5
				z"/>
			<path fill="#9D1C20" d="M159.8,360.8c3.3-5.3,8-8,14.3-7.5c6,0.5,10.3,3.8,12.5,9.3c0.5,1,0.3,2.5,0,3.5c-1.5,3.5-2.5,7-2.3,10.8
				c0,0.8-0.3,1.8-0.8,2.2c-4,4.5-12,5.8-17.3,2.8c-0.5-0.3-1.3-1.3-1.3-2C165.5,370.8,165,368.8,159.8,360.8z"/>
			<path fill="#9D1C20" d="M125.8,360.8c-3.5,4.3-5.5,9.3-5.5,14.8c0,0.5,0,1.3,0,1.8c0.5,3.5,0.2,3.8-3.3,4.7
				c-5.5,1.8-10.5,0.5-14.8-3.5c-0.5-0.5-1-1.5-1-2.5c0-3.8-0.8-7.5-2.5-11c-0.5-1-0.5-2.3,0-3.3c2.5-5.5,6.8-8.8,12.7-9.3
				C117.8,352.8,122.5,355.5,125.8,360.8z"/>
			<path fill="#9D1C20" d="M64,358.8c-6.8,6.5-9.3,14.3-6.8,23.3c-5.3,3-13.5,0.3-17.5-6c-4.3-6.8-2.3-15.8,4.3-20.3
				S59.5,352.5,64,358.8z"/>
			<path fill="#9D1C20" d="M221.5,358.8c5.3-6,13.3-7.3,19.8-3.3c6.5,4.3,8.8,12.5,5.3,19.3c-3.3,6.7-11.3,10-18.3,7.5
				C230.5,373,228.3,365.3,221.5,358.8z"/>
		</g>
		<g>
			<path fill="#9D1C20" d="M93.8,411.5c0,8.3-6.8,15-15,15s-15-6.7-15-15.3c0-8.3,6.8-14.8,15-14.8C87,396.3,93.8,403,93.8,411.5z"
				/>
			<path fill="#9D1C20" d="M142.8,396.3c8.3,0,15,6.8,15,15.3c0,8.3-6.8,15-15.3,15c-8.3,0-14.8-6.7-14.8-15
				C127.8,403,134.5,396.3,142.8,396.3z"/>
			<path fill="#9D1C20" d="M206.5,396.3c8.3,0,15,6.8,15,15s-6.8,15-15,15c-8.3,0-15-6.8-15-15C191.5,403.3,198.3,396.5,206.5,396.3
				z"/>
			<path fill="#9D1C20" d="M159.8,396.5c3.3-5.3,8-8,14.3-7.5c6,0.5,10.3,3.8,12.5,9.3c0.5,1,0.3,2.5,0,3.5c-1.5,3.5-2.5,7-2.3,10.8
				c0,0.8-0.3,1.8-0.8,2.3c-4,4.5-12,5.8-17.3,2.8c-0.5-0.3-1.3-1.3-1.3-2C165.5,406.5,165,404.5,159.8,396.5z"/>
			<path fill="#9D1C20" d="M125.8,396.8c-3.5,4.3-5.5,9.3-5.5,14.7c0,0.5,0,1.3,0,1.8c0.5,3.5,0.2,3.8-3.3,4.7
				c-5.5,1.8-10.5,0.5-14.8-3.5c-0.5-0.5-1-1.5-1-2.5c0-3.8-0.8-7.5-2.5-11c-0.5-1-0.5-2.3,0-3.3c2.5-5.5,6.8-8.8,12.7-9.2
				C117.8,388.5,122.5,391.3,125.8,396.8z"/>
			<path fill="#9D1C20" d="M64,394.5c-6.8,6.5-9.3,14.3-6.8,23.3c-5.3,3-13.5,0.3-17.5-6c-4.3-6.8-2.3-15.8,4.3-20.3
				C50.5,387,59.5,388.5,64,394.5z"/>
			<path fill="#9D1C20" d="M221.5,394.5c5.3-6,13.3-7.2,19.8-3.3c6.5,4.3,8.8,12.5,5.3,19.3c-3.3,6.8-11.3,10-18.3,7.5
				C230.5,408.8,228.3,401,221.5,394.5z"/>
		</g>
		<g>
			<path fill="#9D1C20" d="M308.5,375.8c0,8.3-6.8,15-15,15s-15-6.8-15-15.3c0-8.3,6.8-14.8,15-14.8
				C301.8,360.5,308.5,367.3,308.5,375.8z"/>
			<path fill="#9D1C20" d="M357.3,360.5c8.3,0,15,6.8,15,15.3c0,8.3-6.8,15-15.3,15c-8.3,0-14.7-6.8-14.7-15
				C342.3,367.3,349,360.5,357.3,360.5z"/>
			<path fill="#9D1C20" d="M421,360.5c8.3,0,15,6.8,15,15s-6.8,15-15,15c-8.3,0-15-6.8-15-15C406,367.5,412.8,360.8,421,360.5z"/>
			<path fill="#9D1C20" d="M374.3,360.8c3.3-5.3,8-8,14.3-7.5c6,0.5,10.3,3.8,12.5,9.3c0.5,1,0.3,2.5,0,3.5c-1.5,3.5-2.5,7-2.3,10.8
				c0,0.8-0.3,1.8-0.8,2.2c-4,4.5-12,5.8-17.3,2.8c-0.5-0.3-1.3-1.3-1.3-2C380,370.8,379.5,368.8,374.3,360.8z"/>
			<path fill="#9D1C20" d="M340.3,360.8c-3.5,4.3-5.5,9.3-5.5,14.8c0,0.5,0,1.3,0,1.8c0.5,3.5,0.3,3.8-3.3,4.7
				c-5.5,1.8-10.5,0.5-14.8-3.5c-0.5-0.5-1-1.5-1-2.5c0-3.8-0.8-7.5-2.5-11c-0.5-1-0.5-2.3,0-3.3c2.5-5.5,6.8-8.8,12.8-9.3
				C332.5,352.8,337,355.5,340.3,360.8z"/>
			<path fill="#9D1C20" d="M278.5,358.8c-6.8,6.5-9.3,14.3-6.8,23.3c-5.3,3-13.5,0.3-17.5-6c-4.3-6.8-2.3-15.8,4.2-20.3
				C265.3,351.3,274,352.5,278.5,358.8z"/>
			<path fill="#9D1C20" d="M436,358.8c5.3-6,13.3-7.3,19.7-3.3c6.5,4.3,8.8,12.5,5.3,19.3c-3.3,6.7-11.3,10-18.3,7.5
				C445.3,373,442.8,365.3,436,358.8z"/>
		</g>
		<g>
			<path fill="#9D1C20" d="M308.5,411.5c0,8.3-6.8,15-15,15s-15-6.7-15-15.3c0-8.3,6.8-14.8,15-14.8
				C301.8,396.3,308.5,403,308.5,411.5z"/>
			<path fill="#9D1C20" d="M357.3,396.3c8.3,0,15,6.8,15,15.3c0,8.3-6.8,15-15.3,15c-8.3,0-14.7-6.7-14.7-15
				C342.3,403,349,396.3,357.3,396.3z"/>
			<path fill="#9D1C20" d="M421,396.3c8.3,0,15,6.8,15,15s-6.8,15-15,15c-8.3,0-15-6.8-15-15C406,403.3,412.8,396.5,421,396.3z"/>
			<path fill="#9D1C20" d="M374.3,396.5c3.3-5.3,8-8,14.3-7.5c6,0.5,10.3,3.8,12.5,9.3c0.5,1,0.3,2.5,0,3.5c-1.5,3.5-2.5,7-2.3,10.8
				c0,0.8-0.3,1.8-0.8,2.3c-4,4.5-12,5.8-17.3,2.8c-0.5-0.3-1.3-1.3-1.3-2C380,406.5,379.5,404.5,374.3,396.5z"/>
			<path fill="#9D1C20" d="M340.3,396.8c-3.5,4.3-5.5,9.3-5.5,14.7c0,0.5,0,1.3,0,1.8c0.5,3.5,0.3,3.8-3.3,4.7
				c-5.5,1.8-10.5,0.5-14.8-3.5c-0.5-0.5-1-1.5-1-2.5c0-3.8-0.8-7.5-2.5-11c-0.5-1-0.5-2.3,0-3.3c2.5-5.5,6.8-8.8,12.8-9.2
				C332.5,388.5,337,391.3,340.3,396.8z"/>
			<path fill="#9D1C20" d="M278.5,394.5c-6.8,6.5-9.3,14.3-6.8,23.3c-5.3,3-13.5,0.3-17.5-6c-4.3-6.8-2.3-15.8,4.2-20.3
				C265.3,387,274,388.5,278.5,394.5z"/>
			<path fill="#9D1C20" d="M436,394.5c5.3-6,13.3-7.2,19.7-3.3c6.5,4.3,8.8,12.5,5.3,19.3c-3.3,6.8-11.3,10-18.3,7.5
				C445.3,408.8,442.8,401,436,394.5z"/>
		</g>
	</g>
	<path fill="#9D1C20" d="M278,76.5c5.5,0.8,11,2,16.3,3.3c4.5,1.3,8.8,2.8,13,4.3c3.5,1.3,7,2.5,10.5,3.8c3.5,1.5,7,3.2,10.5,4.8
		c9.5,4.3,19,9,28.8,12.8c6.8,2.7,13.8,4.3,20.8,6.3c2.3,0.7,4.5,1.3,6.8,1.5c1.3,0.2,2,1,1.8,2.7c0,1,0,1.8,0,2.8
		c0,1.5-0.5,2.3-1.8,2.3c-8.3,0-16.5,0-24.5,0c-1,0-2-0.7-3-1.3c-7.5-3.2-15.3-6.5-22.8-10c-7-3-13.8-6.5-20.8-9.3
		c-6.5-2.5-13-4.5-19.5-6.3s-13.3-3-19.8-4.8c-0.8-0.3-1.5-0.5-2.3-0.5c-9.5-0.5-18.8-1.8-28.3-1.5c-8,0.3-16,1.5-23.8,3
		c-6.7,1.3-13.8,3-20.5,5.3c-9.5,3.3-18.8,7-28,11c-5.3,2.3-10.5,4.8-15.8,7c-5,2.3-10,4.5-15.3,6.8c-0.8,0.3-1.3,0.3-2,0.3
		c-7.7,0-15.5,0-23.5,0c-1.8,0-2-0.8-2-2.8c0-4.8,0-4.8,3.8-5.2c7.5-1.5,15.2-3.3,22.5-6.5c7.3-3,14.3-6,21.3-9
		c4.8-2,9.2-4.5,13.8-6.5c3.8-1.8,7.5-3,11-4.5c6.3-2.3,12.8-4.8,19-6.8c4.2-1.3,8.8-2.3,13.3-3c11-2.3,22.3-3.8,33.5-3.5
		C251.8,73.5,267.5,74.3,278,76.5z"/>
	<path fill="#9D1C20" d="M442,131.8c0-4.8,0-4.8-3.8-4.8c-62.8,0-125.5,0-188.3,0s-125.5,0-188.3,0c-3.8,0-3.8,0-3.8,4.8
		c0,8-0.5,6.5,5.3,6.5c15.5,0,31,0,46.5,0c0.8,0,1.8,0,2.8,0c0,10,0,19.5,0,29c0,7.8,0.2,15.5,0.2,23.3c0,8-0.2,16-0.2,24
		c0,7.8,0,15.3,0,23c0,8,0.2,15.8,0.2,23.8c0,4.8,0,9.5,0,14.3h13.8V138l118.7,0.5l0,0h4.5h4.5l0,0L373,138v137.5h13.8
		c0-4.8,0-9.5,0-14.3c0-8,0.3-15.8,0.3-23.8c0-7.8,0-15.3,0-23c0-8-0.3-16-0.3-24c0-7.8,0.3-15.5,0.3-23.3c0-9.5,0-19,0-29
		c1.3,0,2,0,2.8,0c15.5,0,31,0,46.5,0C442.5,138.5,442,139.8,442,131.8z"/>
</g>
</svg>
