<?xml version="1.0" encoding="utf-8"?>
<!-- Generator: Adobe Illustrator 18.0.0, SVG Export Plug-In . SVG Version: 6.00 Build 0)  -->
<!DOCTYPE svg PUBLIC "-//W3C//DTD SVG 1.1//EN" "http://www.w3.org/Graphics/SVG/1.1/DTD/svg11.dtd">
<svg version="1.1" id="Layer_1" xmlns="http://www.w3.org/2000/svg" xmlns:xlink="http://www.w3.org/1999/xlink" x="0px" y="0px"
	 viewBox="0 0 500 500" enable-background="new 0 0 500 500" xml:space="preserve">
<g>
	<g>
		<path fill="#9C1C20" d="M120.7,417.8c0,7-5.7,12.7-12.7,12.6c-7,0-12.6-5.8-12.6-12.8c0.1-6.9,5.7-12.5,12.6-12.5
			C115,405.1,120.7,410.8,120.7,417.8z"/>
		<path fill="#9C1C20" d="M161.9,405.2c7,0,12.7,5.7,12.6,12.8c0,7-5.8,12.6-12.8,12.6c-6.9-0.1-12.5-5.7-12.5-12.7
			C149.2,410.8,154.9,405.1,161.9,405.2z"/>
		<path fill="#9C1C20" d="M215.6,405.2c7,0,12.7,5.6,12.7,12.6c0,7-5.7,12.7-12.7,12.7c-6.9,0-12.6-5.6-12.6-12.5
			C203,410.9,208.6,405.2,215.6,405.2z"/>
		<path fill="#9C1C20" d="M176.2,405.3c2.8-4.4,6.7-6.8,11.9-6.4c5,0.4,8.6,3.1,10.6,7.7c0.3,0.8,0.3,2.1-0.1,2.9
			c-1.2,2.9-2,5.8-2,9c0,0.6-0.2,1.5-0.6,1.9c-3.4,3.8-10,4.9-14.5,2.3c-0.5-0.3-1-1.1-1-1.6C181,413.6,180.6,412,176.2,405.3z"/>
		<path fill="#9C1C20" d="M147.6,405.4c-3,3.7-4.7,7.8-4.7,12.5c0,0.5,0,1.1,0.1,1.6c0.3,3,0.3,3.2-2.7,4.1c-4.7,1.4-8.9,0.3-12.4-3
			c-0.5-0.5-0.9-1.3-0.8-2c0.1-3.2-0.7-6.2-2-9.2c-0.3-0.8-0.4-1.9-0.1-2.7c2-4.7,5.7-7.4,10.8-7.8
			C140.9,398.5,144.8,400.9,147.6,405.4z"/>
		<path fill="#9C1C20" d="M95.4,403.6c-5.6,5.5-7.7,12-5.6,19.5c-4.4,2.6-11.5,0.2-14.7-5c-3.6-5.7-2-13.3,3.6-17.1
			C84.2,397.3,91.7,398.4,95.4,403.6z"/>
		<path fill="#9C1C20" d="M228.2,403.6c4.4-5.1,11.2-6.2,16.5-2.7c5.4,3.5,7.3,10.5,4.4,16.2c-2.8,5.7-9.4,8.4-15.3,6.2
			C236,415.7,233.9,409.1,228.2,403.6z"/>
		<path fill="#9C1C20" d="M301.6,417.8c0,7-5.7,12.7-12.7,12.6c-7,0-12.6-5.8-12.6-12.8c0.1-6.9,5.7-12.5,12.6-12.5
			C296,405.1,301.7,410.8,301.6,417.8z"/>
		<path fill="#9C1C20" d="M342.9,405.2c7,0,12.7,5.7,12.6,12.8c0,7-5.8,12.6-12.8,12.6c-6.9-0.1-12.5-5.7-12.5-12.7
			C330.2,410.8,335.9,405.1,342.9,405.2z"/>
		<path fill="#9C1C20" d="M396.6,405.2c7,0,12.7,5.6,12.7,12.6c0,7-5.7,12.7-12.7,12.7c-6.9,0-12.6-5.6-12.6-12.5
			C384,410.9,389.6,405.2,396.6,405.2z"/>
		<path fill="#9C1C20" d="M357.2,405.3c2.8-4.4,6.7-6.8,11.9-6.4c5,0.4,8.6,3.1,10.6,7.7c0.3,0.8,0.3,2.1-0.1,2.9
			c-1.2,2.9-2,5.8-2,9c0,0.6-0.2,1.5-0.6,1.9c-3.4,3.8-10,4.9-14.5,2.3c-0.5-0.3-1-1.1-1-1.6C362,413.6,361.6,412,357.2,405.3z"/>
		<path fill="#9C1C20" d="M328.5,405.4c-3,3.7-4.7,7.8-4.7,12.5c0,0.5,0,1.1,0.1,1.6c0.3,3,0.3,3.2-2.7,4.1c-4.7,1.4-8.9,0.3-12.4-3
			c-0.5-0.5-0.9-1.3-0.8-2c0.1-3.2-0.7-6.2-2-9.2c-0.3-0.8-0.4-1.9-0.1-2.7c2-4.7,5.7-7.4,10.8-7.8
			C321.9,398.5,325.8,400.9,328.5,405.4z"/>
		<path fill="#9C1C20" d="M276.4,403.6c-5.6,5.5-7.7,12-5.6,19.5c-4.4,2.6-11.5,0.2-14.7-5c-3.6-5.7-2-13.3,3.6-17.1
			C265.2,397.3,272.6,398.4,276.4,403.6z"/>
		<path fill="#9C1C20" d="M409.2,403.6c4.4-5.1,11.2-6.2,16.5-2.7c5.4,3.5,7.3,10.5,4.4,16.2c-2.8,5.7-9.4,8.4-15.3,6.2
			C417,415.7,414.9,409.1,409.2,403.6z"/>
	</g>
	<g>
		<path fill="#9C1C20" d="M205.3,460.2c-11.5,0-22.7,0-34.2,0c0-5.8-0.3-11.4,0.1-17.1c0.3-3.6,3.7-6.1,7.6-6.1
			c6.2-0.1,12.5-0.1,18.7,0c4.6,0.1,7.7,3.3,7.8,7.9C205.3,449.9,205.3,454.9,205.3,460.2z"/>
		<path fill="#9C1C20" d="M127,460.1c0-5.4-0.1-10.6,0-15.8c0.1-4.1,3.4-7.3,7.6-7.4c6.4-0.1,12.8-0.1,19.2,0c4,0.1,7.2,3,7.3,6.7
			c0.2,5.4,0.1,10.9,0.1,16.5C149.9,460.1,138.6,460.1,127,460.1z"/>
		<path fill="#9C1C20" d="M117.3,460.3c-10.4,0-20.4,0.1-30.4,0c-2.4,0-3.8-1.7-3.8-4.1c-0.1-4-0.2-8,0-11.9
			c0.2-4.1,3.5-7.2,7.7-7.3c6.2-0.1,12.5-0.1,18.7,0c4.8,0.1,7.8,3.4,7.8,8.2C117.3,450,117.3,455,117.3,460.3z"/>
		<path fill="#9C1C20" d="M215.1,460.3c0-5.8-0.2-11.3,0.1-16.8c0.2-3.6,3.6-6.4,7.6-6.5c6.2-0.1,12.5-0.1,18.7,0
			c4.6,0.1,7.8,3.3,7.8,7.9c0.1,3.6,0.1,7.3,0,10.9c0,2.9-1.4,4.4-4.3,4.5C235.2,460.3,225.3,460.3,215.1,460.3z"/>
		<path fill="#9C1C20" d="M381.4,460.2c-11.5,0-22.7,0-34.2,0c0-5.8-0.3-11.4,0.1-17.1c0.3-3.6,3.7-6.1,7.6-6.1
			c6.2-0.1,12.5-0.1,18.7,0c4.6,0.1,7.7,3.3,7.8,7.9C381.4,449.9,381.4,454.9,381.4,460.2z"/>
		<path fill="#9C1C20" d="M303.1,460.1c0-5.4-0.1-10.6,0-15.8c0.1-4.1,3.4-7.3,7.6-7.4c6.4-0.1,12.8-0.1,19.2,0c4,0.1,7.2,3,7.3,6.7
			c0.2,5.4,0.1,10.9,0.1,16.5C326,460.1,314.7,460.1,303.1,460.1z"/>
		<path fill="#9C1C20" d="M293.4,460.3c-10.4,0-20.4,0.1-30.4,0c-2.4,0-3.8-1.7-3.8-4.1c-0.1-4-0.2-8,0-11.9
			c0.2-4.1,3.5-7.2,7.7-7.3c6.2-0.1,12.5-0.1,18.7,0c4.8,0.1,7.8,3.4,7.8,8.2C293.4,450,293.4,455,293.4,460.3z"/>
		<path fill="#9C1C20" d="M391.2,460.3c0-5.8-0.2-11.3,0.1-16.8c0.2-3.6,3.6-6.4,7.6-6.5c6.2-0.1,12.5-0.1,18.7,0
			c4.6,0.1,7.8,3.3,7.8,7.9c0.1,3.6,0.1,7.3,0,10.9c0,2.9-1.4,4.4-4.3,4.5C411.3,460.3,401.4,460.3,391.2,460.3z"/>
	</g>
	<g>
		<path fill="#9C1C20" d="M412.2,186c-5.1,0.2-10.1,1.1-15,2.3c-4.7,1.2-9.3,2.8-13.6,4.9c-4.4,2.2-8.4,5-12.1,8.3
			c-4.9,4.6-8.4,10.2-10.6,16.5c-1.5,4.3-3.2,8.5-5.2,12.6c-0.8,1.7-1.7,3.3-2.6,5c0.1-1.4,0.4-2.8,0.7-4.2
			c1.4-7.4,1.4-14.7-0.1-22.1c-2.6-12.3-8.7-22.7-18.2-31.1c-6.9-6-14.8-10.1-23.7-12.3c-6.2-1.5-12.6-1.9-19-1.3
			c-6.3,0.6-12.2,2.2-17.9,4.9c-8.5,4-15.6,9.7-21.3,17.2c-4.6,6.1-7.8,12.8-9.7,20.2c-1.1,4.5-1.6,9.1-1.7,13.8
			c0,0.4,0,0.9-0.3,1.1c-1.5,1.2-3.1,2.3-4.7,3.5c-0.9-10.9,0.9-21.2,5.3-31c4.5-9.8,11.2-17.9,19.9-24.4c-16.8-9-41.8-9.3-61,6.2
			c-9.8,7.9-16.4,18.1-19.3,30.4c-3.7,15.4-1.3,29.9,7,43.6c-0.9-0.2-1.7-0.3-2.4-0.4c-3.6-0.7-7.2-1.5-10.8-2.1
			c-1.1-0.2-1.2-0.7-1.2-1.6c0-26.8,0-53.6,0-80.4c0-0.3,0-0.6,0-0.8c-2,0-4,0-5.9,0c0,37.4,0,74.7,0,112c2,0,3.9,0,5.9,0
			c0-8.7,0-17.4,0-26.1c0.3,0,0.5,0,0.7,0c1.9,0.4,3.9,0.8,5.8,1.1c2.8,0.5,5.5,0.9,8.3,1.3c1.2,0.2,2.2,0.4,3.1,1.5
			c6.6,8.5,15.1,14.6,25.2,18.2c8.3,3,16.8,3.9,25.5,2.9c6.2-0.7,12-2.4,17.6-5c0.5-0.2,1-0.5,1.6-0.8c-1.5-1.2-2.8-2.2-4.1-3.4
			c-0.6-0.5-1-0.6-1.7-0.3c-3.8,1.5-7.7,2.3-11.8,2.4c-2.5,0-5,0.1-7.5-0.2c-2-0.2-3.9-0.8-5.9-1.3c-7.5-2-14.4-5.3-20.4-10.2
			c-1.4-1.2-2.8-2.5-4.2-3.8c0.4-0.1,0.6-0.2,0.8-0.2c2.6-0.7,5.2-1.3,7.8-2.1c0.7-0.2,1.1-0.2,1.6,0.3c3,2.3,6.3,4.1,9.9,5.4
			c6.9,2.7,14.1,3.4,21.5,2.9c0.9-0.1,1.7-0.2,2.7-0.2c-0.2-0.3-0.3-0.5-0.4-0.6c-3.1-3.7-5.6-7.8-7.7-12.1c-2-4.1-3.5-8.5-4.5-12.9
			c-0.1-0.3,0-0.8,0.2-0.9c1.4-0.7,2.9-1.3,4.3-2c2.6,12.9,8.6,23.7,18.5,32.3c9.8,8.6,21.3,13.1,34.4,13.8c-1.7,1-2.1,2.7-1.2,3.9
			c0.9,1.1,2.5,1.4,3.5,0.4c0.4-0.4,0.7-1.1,0.8-1.7c0.2-1.1-0.5-1.9-1.4-2.5c10.8-0.7,11-0.6,17-2.4c9.1-2.6,17-7.4,23.7-14.1
			c2.2-2.2,4.2-4.6,6.1-7c2.5-3,5-6,7.2-9.2c3-4.3,5.6-8.9,8.4-13.2c2.9-4.4,6.2-8.6,10.2-12c4.7-4,10-6.8,15.8-8.7
			c3.7-1.2,7.5-2.1,11.4-2.4c5.5-0.4,10.9-0.1,16.2,1.3c0.7,0.2,1.5,0.3,2.3,0.5c-1-4.5-0.8-8.8,0.7-13.1c-0.3-0.1-0.6-0.2-0.8-0.2
			c-6.8-0.3-13.6,0.1-20.3,1.5c-4.2,0.9-8.2,2.1-12.1,3.8c-5.9,2.6-10.8,6.4-15,11.2c-3.6,4.2-6.2,9-8.5,14
			c-0.8,1.8-1.7,3.6-2.6,5.4c-0.1-0.2-0.1-0.3,0-0.5c1.6-3.5,3.2-6.9,4.9-10.4c2.9-5.8,6.9-11,12-15c7.7-6.1,16.8-9,26.4-10.5
			c5.3-0.8,10.6-1,16-0.7c0.6,0,0.8-0.2,1-0.7c1.2-2.4,2.7-4.5,4.6-6.3c0.8-0.8,1.6-1.5,2.5-2.4c-0.7-0.1-1.2-0.2-1.8-0.2
			C419.4,185.9,415.8,185.9,412.2,186z M174.9,249.3c-0.1,0-0.1-0.2-0.2-0.6c5.2,1.6,10.4,2.7,15.7,3.4
			C185.1,251.9,179.9,250.8,174.9,249.3z M200.9,209c-3.3,15.6,1.7,28.8,13,40.1c-2.9,0.5-5.8,1-8.8,1.4c-0.3,0-0.8-0.3-1-0.6
			c-3.5-4.6-5.8-9.7-7-15.3c-2.3-10.9-1.3-21.6,3.1-31.8c3.8-8.7,10-15.2,18.1-19.9c2.2-1.3,4.6-2.4,7-3.5c1.2-0.5,2.4-0.9,3.7-1.3
			C214.5,183.7,204.2,193.4,200.9,209z M237.9,230.2c0-0.2,0-0.4,0.1-0.5c1-1,3.9-2.6,4.7-2.4C241.1,228.2,239.6,229.2,237.9,230.2z
			 M304.5,193c2.8-2.2,5.8-2.6,9-1.7c1.2,0.4,2.5,0.6,3.7,1.1c0.7,0.3,1.4,0.9,1.9,1.5c1.7,2,2.6,4.4,3.5,6.8c0.1,0.3,0,0.8-0.2,1
			c-0.7,0.8-1.5,1.6-2.3,2.3c-0.5,0.5-0.9,1-1,1.7c-0.2,1.8-0.9,3.4-2,4.9c-0.3,0.4-0.8,0.7-1.2,0.9c-3,1.2-6,1.4-8.7-0.9
			c-0.7-0.6-1.3-1.5-2-2.2c1.4-0.4,2.5-1.1,3.7-1.1c1.5,0,3,0.3,4.4,0.7c1,0.3,1.8,1.1,2.8,1.7c1.7-2.1,1.1-6.4-1.2-8
			c-1-0.7-2.1-0.6-3.2-0.3c-1,0.3-1.6,0.2-2.1-0.8c-0.9-1.7-2.4-2.7-4.1-3.3c-0.4-0.1-0.8-0.3-1.3-0.5c3.7-4,7.6-3.9,11.7-0.6
			c-0.6-1.5-3.7-2.9-5.9-2.9c-2.4,0-4.3,1.3-6.1,3c0-0.9,0-1.6,0-2.4c-0.8,0.7-0.5,1.6-0.7,2.5c-1.9-0.5-3.7-1-5.5-1.5
			C300.5,195.7,302.6,194.5,304.5,193z M321.9,224.8c0.2,0,0.3,0,0.5,0c0,0.7-0.1,1.4-0.1,2.1c-0.1,0-0.2,0-0.3,0
			C322.2,226.2,321.6,225.5,321.9,224.8z M319.6,224c-1.2,0-2.3-0.1-3.5-0.2c-0.9-0.1-1.6-0.6-1.7-1.5c-0.1-1.1-0.2-2.3,0.1-3.3
			c0.8-2.9,1.6-3.5,4.6-3.6c0.3,0,0.5,0,0.8,0c2.5,0,4.6,2.6,3.9,5.1C323,223.4,322.3,224.1,319.6,224z M318.4,229.8
			c-0.5,0-1.1,0.1-1.6,0.1c-0.9,0-1.8-0.8-2.2-2c0-0.1-0.1-0.3-0.1-0.4c-0.5-1.9-0.3-2.1,1.6-2.1c0.3,0,0.5,0,0.8,0c0,0,0,0,0,0
			c1.2-0.1,2.4-0.2,3.6-0.4c0.5-0.1,0.7,0.1,0.8,0.6C321.9,227.5,320.4,229.9,318.4,229.8z M323.2,215.6c-2.5-2.1-5.5-2.6-8.7-2.9
			c0.3-0.2,0.4-0.3,0.6-0.3c2.3-1.1,4.6-2.1,6.9-3.3c0.8-0.4,1.5-1,2.3-1.5C324.5,210.3,324.2,212.9,323.2,215.6z M323.3,207.7
			c-1.5,1-3.1,1.8-4.7,2.6c-0.1-0.1-0.1-0.1-0.2-0.2c0.3-0.8,0.8-1.6,0.9-2.4c0.2-1.9,1.1-3.4,2.7-4.5c0.4-0.3,0.7-0.7,1.2-1.3
			c0.4,1.6,0.8,2.9,0.9,4.3C324.2,206.6,323.7,207.4,323.3,207.7z M310.6,202.3c0.6-0.2,1-0.3,1.5-0.4c2-0.4,3.3,0.3,4.2,2.3
			c0.7,1.6,0.5,3.2-0.2,4.9c-1.8-1.9-4.2-2.1-6.7-2.4C310.5,205.3,310.9,203.9,310.6,202.3z M309.4,203.9c-0.3,2.1-1.2,2.6-4.1,2.6
			c-1-0.2-2.5-0.5-3.9-0.8c-0.2,0-0.5-0.2-0.6-0.4c-1.5-1.9-1-4.6,1.1-5.7c0.6-0.3,1.4-0.3,2.2-0.3c0.9,0,1.8,0.2,2.7,0.3
			c1,0.1,1.8,0.6,2.1,1.5C309.1,202,309.6,203,309.4,203.9z M291.4,177.8c-17.3,6.5-27.6,18.5-29.7,37.2c-1,0.2-1.9,0.3-2.9,0.5
			C260.6,198.5,272.6,183.4,291.4,177.8z M258.8,222.8c1,0,2.1,0,3.2,0c0,0.3,0,0.6,0,0.9c-1.3,0-2.5,0-3.8,0
			C257.9,223,258.2,222.8,258.8,222.8z M339.1,253.5c-8.8,9.8-20.1,14.7-33.2,15.5c-0.1,1-0.7,1.9-1.9,2.4c1.2,0.6,2,1.4,1.8,2.7
			c-0.1,0.7-0.4,1.4-0.9,1.9c-1,1-2.8,0.7-3.6-0.4c-1-1.4-0.5-3,1.4-4.1c-1.2-0.5-1.9-1.3-1.9-2.6c-0.4,0-0.8,0-1.3,0
			c-0.2,1.1-0.6,2.1-1.9,2.6c1.7,1.3,2.1,2.2,1.6,3.6c-0.4,1.1-1.3,1.7-2.4,1.6c-1.2,0-2-0.7-2.3-1.8c-0.4-1.3,0-2.2,1.6-3.4
			c-1.5-0.8-2.1-1.9-1.6-3.5c-1.8-0.6-3.6-1.2-5.3-1.9c-12.9-5.2-23-13.5-28.1-26.8c-1.2-3.2-1.9-6.5-2.4-9.8c0-0.1,0-0.3,0-0.7
			c1.5,0.1,3,0.3,4.5,0.5c0.1,0,0.3,0.3,0.4,0.5c2.4,8.2,7,14.9,13.3,20.5c5,4.4,10.8,7.3,17.2,9c0.1,0,0.2,0,0.4,0
			c-0.2-1.4,0.1-2.7,1.5-3.3c1-0.4,1.9-0.2,2.7,0.5c1.2,1.2,1,2.5,0.1,3.8c1.1,0.1,2.1,0.3,3.3,0.4c-0.8-0.9-1.4-1.7-1.1-2.8
			c0.2-0.6,0.6-1.2,1-1.6c1-0.8,2.4-0.6,3.3,0.3c1,1.1,0.8,2.6-0.5,4c1.4,0.3,5.9-0.2,7.4-0.9c-1.6-2.4-3.9-4.1-6.4-5.6
			c-0.2,0.2-0.3,0.4-0.5,0.6c-1.2,1.3-3.5,1.1-4.1-0.5c-0.3-0.9-0.8-1.1-1.7-0.9c-0.4,1.3-1.2,2.4-2.8,2.3c-1.4-0.1-2.2-1.1-2.4-2.5
			c-1.9,0-3.3-0.9-4.6-1.9c2.6-2.3,5.9-3.2,9-4.4c1.2-0.5,2.3-1.2,3.5-1.8c0-0.1-0.1-0.2-0.1-0.3c-0.3,0.1-0.5,0.1-0.8,0.2
			c-2.4,1-4.8,2-7.2,3.1c-0.9,0.4-1.8,1-2.7,1.5c-0.7,0.5-1.3,1.1-2,1.5c-0.2,0.1-0.6,0.1-0.8,0.1c-1.6-0.3-3.1-0.8-4.5-1.8
			c-1.7-1.2-3.5-2.2-4.8-3.9c-0.8-1-1.8-1.8-2.3-2.9c-0.7-1.5-1.7-2.7-2.6-4c-0.3-0.4-0.5-1-0.4-1.5c0.1-1-0.3-1.6-1-2.1
			c-0.6-0.5-1-1.1-1.5-1.7c1.6,0.4,3.1,0.1,4.5-0.4c0-0.1,0-0.2,0-0.3c-0.3,0-0.5,0-0.8,0c-1,0-2.1,0.2-3.1,0.1
			c-1.3-0.1-1.9-1.1-1.8-2.3c0.2-1.5,0.4-3,0.8-4.5c0.5-1.5,0-2.8-0.8-3.9c-0.9-1.2-1.9-2.2-2.8-3.4c-0.9-1-1.6-2.1-1.7-3.3
			c0.7,0.5,1.3,1.2,2.2,1.6c0.9,0.5,1.9,0.1,2.8-0.3c0-0.1,0-0.2,0-0.3c-0.4,0-0.7,0-1.1,0.1c-1.1,0.2-2.2,0.1-2.8-0.9
			c-0.7-1-1.2-2.1-0.5-3.5c0.9-1.6,1.6-3.4,2.5-5.1c1.3-2.4,1.3-4.8,0.8-7.3c-0.5-2.7,0.4-5,2.4-6.8c2.3-2.1,5.1-3.4,8.3-3.6
			c1.7-0.1,3.3,0.4,4.9,1c1.7,0.7,3.5,1.4,5.2,2.1c1.2,0.5,2.3,1.1,3.4,1.7c-1.3-0.3-2.6-0.6-3.9-0.8c-1.6-0.2-2.7-1.1-4.1-1.7
			c-3.8-1.8-7.5-1.8-11.1,0.3c-0.2,0.1-0.4,0.4-0.6,0.7c3.9-2.2,7.9-2.5,11.9-0.3c-2.5-0.5-5.1-1.2-7.7-0.7c0.1,0.1,0.3,0.2,0.4,0.2
			c3,0,5.8,0.8,8.6,1.5c3.6,0.9,7.3,1.5,10.9,2.5c2.8,0.7,5.5,1.7,8.3,2.6c0.7,0.2,1.3,0.8,1.8,1.1c-1.6-0.2-3.3-0.5-4.9-0.6
			c-2.3-0.1-4.3,2.3-3.9,4.6c0.3,2.1,1.1,2.9,3.5,3.3c0.9,0.2,1.8,0.3,2.8,0.3c0.9,0,1.8-0.1,2.7-0.2c0,0.1,0,0.2,0.1,0.2
			c-0.8,0.2-1.6,0.5-2.4,0.5c-3.1,0-6.2,0.1-9.2-0.1c-4.1-0.3-8.1-0.7-12.2-1.1c-2.3-0.3-4.6-0.7-6.9-1.1c-0.7-0.1-0.9-0.4-1.1-1.1
			c-0.6-3.4-0.2-6.6,1.3-9.7c0.1-0.3,0.3-0.6,0.4-0.9c-0.1-0.1-0.2-0.1-0.2-0.2c-0.2,0.2-0.4,0.4-0.5,0.7c-1.3,2.8-1.9,5.8-1.6,8.9
			c0.1,0.6,0.1,1.2,0.2,1.8c-1.7-0.4-3-2.1-3.3-4c-0.2-1.8,0.2-3.5,0.7-5.2c0.1-0.3,0.1-0.6,0.2-1.1c-1.8,1.6-1.9,6.5-0.4,9.3
			c-0.8-0.2-1.3-0.7-1.6-1.3c-0.7-1.4-0.7-2.9-0.7-4.4c0-0.3,0-0.7-0.1-1.2c-0.2,0.3-0.4,0.4-0.4,0.5c-0.1,1.6-0.1,3.2,0.4,4.8
			c0.3,1,1,1.6,1.9,2.2c2,1.4,4,2.6,6.4,3.1c2.5,0.6,5.1,1.1,7.6,1.7c0.2,0,0.3,0.1,0.5,0.2c-1,0-1.9-0.1-2.9,0.1
			c-2.3,0.5-3.5,2.3-4.3,4.3c-0.8,2.1-0.9,4.4-0.2,6.5c0.4,1.1,1.1,2,1.8,3.1c-3-0.4-6-0.8-9.1-1.2c0,0.1,0,0.2-0.1,0.3
			c0.2,0.1,0.4,0.3,0.6,0.3c9.1,1,18.2,2.6,27.5,2.6c0.1,0,0.2-0.2,0.6-0.4c-5.6-0.1-10.9-0.4-16.3-1.5c3.4-0.6,6.5-2.9,5.8-4.4
			c-0.1,0.1-0.2,0.2-0.3,0.3c-1.1,2.4-3.2,3.2-5.6,3.6c-2.2,0.4-3.8-0.5-4.4-2.7c-0.5-1.9-0.6-3.8,0-5.7c0.7-2.1,1.8-4,4.1-4.6
			c1.4-0.4,2.7-0.1,4,0.4c0.3,0.1,0.7,0.2,1.1,0.2c0-0.1,0-0.1,0-0.2c-0.2-0.2-0.4-0.4-0.6-0.6c2.9,0.7,5.7,1.5,8.6,2.2
			c1,0.2,2,0.4,3.1,0.5c0-0.1,0.1-0.1,0.1-0.2c-0.2-0.1-0.3-0.3-0.5-0.4c-2.3-0.5-4.7-1-7-1.4c-0.7-0.1-1.2-0.4-1.5-1.1
			c-0.2-0.5-0.6-1-1-1.6c1.2,0.1,2.3,0.2,3.4,0.2c3.2,0.1,6.5,0.2,9.7,0.4c0.3,0,0.7,0.1,0.8,0.3c0.9,1.5,2.1,2.7,3.6,3.8
			c-0.6,0-1.2-0.1-1.8-0.1c-0.5,0-1.2-0.4-1.6,0.3c5.2,0.8,10.6-0.1,15.5,2.2c-1.2,0.1-2.3,0.3-3.5,0.4c-1.4,0.2-2.2,1-2.7,2.3
			c-0.5,1.5-1,2.9-0.7,4.5c0.3,1.5,1.1,2.3,2.6,2.4c0.6,0.1,1.2,0.1,1.8,0.3c-2.1,0.1-4.3,0.1-6.4,0.2c-2.2,0-4.3,0-6.5,0
			c0,0.1,0,0.2,0,0.3c0.4,0.1,0.8,0.1,1.2,0.2c2.4,0,4.8,0,7.4,0c0,0.5-0.1,0.9,0,1.3c0.3,0.9,0.6,1.9,1,2.7
			c0.5,0.8,1.3,1.2,2.4,1.1c0.9-0.1,1.8-0.2,3-0.3c-5.3,2.8-10.9,3.3-16.4,4.8c0.5,0,1,0,1.6,0c0.5-0.1,1-0.2,1.5-0.3
			c0.3,0.8,0.6,1.6,0.9,2.4c0.3,0.6,0.9,0.9,1.4,0.5c1.2-0.8,2.4-1.7,3.4-2.7c0.4-0.3,0.4-0.9,0.7-1.5c0.4,0.3,0.4,0.8,0.1,1.2
			c-0.9,1.2-1.8,2.5-2.9,3.5c-1.4,1.3-2.9,2.3-4.4,3.4c-0.2,0.2-0.4,0.4-0.5,0.7c3-1.8,5.8-3.8,7.9-6.7c0.5-0.6,0.8-1.4,0.4-2.4
			c1.1-0.3,2.2-0.7,3.2-1c2.7-0.8,4.7-2.4,5.4-5.2c0.2-0.7,0.2-1.4,0.2-2.1c2.9,2.4,5.7,4.9,8.7,7.3c3,2.4,6.1,4.5,9.5,6.3
			c10.6-18.1,6.2-50-24.1-60.6c5.3,0.1,18.3,8.4,23.7,15c6.3,7.6,9.3,16.5,10.2,26.2C352.1,232.2,347.9,243.7,339.1,253.5z
			 M285.2,206.9c1.4,0.2,2.8,0.4,4.2,0.5c0.7,0,1.1,0.3,1.4,0.9c0.3,0.5,0.6,1,1,1.5c-3-0.8-5.9-1.6-8.9-2.3
			C283.6,207,284.4,206.8,285.2,206.9z M276.3,205.5c2.1,0.4,4.3,0.8,6.6,1.3C280.3,207.3,278.3,206.4,276.3,205.5z M312.6,234
			c-0.1,0.3-0.3,0.7-0.6,0.9c-0.8,0.7-1.7,1.3-2.6,1.9c-0.6,0.4-1,0.1-1.2-0.4c-0.2-0.6-0.3-1.2-0.6-1.9c1.7-0.4,3.1-0.7,4.6-1
			C312.3,233.4,312.7,233.9,312.6,234z"/>
		<path fill="#9C1C20" d="M139.1,191.7c0,2.3,0,4.5,0,6.8c5.3,0,10.6,0,15.9,0c0,14,0,27.8,0,41.7c-0.2,0-0.3,0-0.4-0.1
			c-3.5-1.2-7.1-1.8-10.7-2.1c-7-0.6-13.9,0.1-20.6,2.3c-5.7,1.9-11,4.7-16,8.2c-5.3,3.7-9.9,8.2-14.1,13.1c-1.1,1.3-2,2.6-3.1,4
			c0.2,0.1,0.3,0.1,0.4,0.1c0.1,0,0.3,0,0.4,0c3.4-0.4,6.7-0.2,10,0.6c0.7,0.2,1.1,0,1.5-0.5c4.8-5.5,10.2-10.4,16.4-14.3
			c4.5-2.9,9.4-5.2,14.6-6.4c5.2-1.2,10.6-1.6,16-1.4c1.6,0,3.3,0.2,4.9,0.3c0.7,0.1,0.7,0.1,0.7,0.8c-1-0.1-1.9-0.2-2.9-0.2
			c-5.9-0.4-11.8,0-17.6,1.2c-4.2,0.9-8.1,2.5-11.8,4.6c-5.6,3.1-10.5,7.1-15,11.6c-1.6,1.6-3.1,3.2-4.7,4.9c4.7,1.7,8.2,4.6,10.6,9
			c0.2-0.3,0.2-0.4,0.3-0.4c2.6-4,5.5-7.8,8.7-11.3c4.3-4.7,9.2-8.7,14.9-11.6c4.3-2.2,8.8-3.6,13.6-4.3c1.3-0.2,2.6-0.1,4-0.2
			c0,9.6,0,19.2,0,28.7c4.4,0,8.7,0,13,0c0-36.1,0-72.2,0-108.2C163.5,182.7,154.1,190.6,139.1,191.7z"/>
		<path fill="#9C1C20" d="M438.3,157.4c-4.5,0.3-9,0.5-13.4,1.1c-7,0.9-13.9,2.5-20.6,4.9c-9.1,3.3-17.3,8-24.4,14.5
			c-4.8,4.4-8.8,9.4-12,15c-2.3,4.1-4.2,8.3-5.5,12.8c-0.3,1.1-0.6,2.3-0.8,3.4c0.8-0.8,1.3-1.7,1.9-2.6c2.7-4.2,6.1-7.8,9.9-11
			c5.6-4.5,12-7.7,18.8-10c4.7-1.6,9.4-2.7,14.3-3.4c6.4-1,12.7-1.4,19.2-1c0.2,0,0.5,0,0.6-0.1c0.1-2,0.2-4,0.5-5.9
			c0.3-1.9,0.8-3.8,1.3-5.8c-20.9,1.3-39.7,7.3-54.9,22.3c0.2-0.2,0.4-0.5,0.6-0.7c0.9-0.9,1.8-1.8,2.7-2.7
			c5.3-4.8,11.1-8.7,17.6-11.7c4.1-1.9,8.2-3.5,12.6-4.6c3.4-0.9,6.8-1.8,10.3-2.4c3.7-0.6,7.5-0.8,11.2-1.2c0.3,0,0.7-0.2,0.8-0.5
			c2.1-3.9,5-6.9,8.7-9.3c0.5-0.3,1-0.6,1.8-1.1C438.9,157.4,438.6,157.3,438.3,157.4z"/>
		<path fill="#9C1C20" d="M107.1,243.7c4.7-3,9.8-5.3,15.2-6.9c4-1.2,8.1-2,12.3-2.4c4.4-0.5,8.9-0.7,13.4-0.2
			c1,0.1,1.9,0.2,3.1,0.3c-0.3-0.3-0.4-0.4-0.6-0.5c-1.9-1.1-3.8-2.2-5.7-3.1c-6.9-3.3-14.1-4.9-21.7-5.1
			c-5.2-0.1-10.4,0.4-15.4,1.6c-2.8,0.7-5.5,1.5-8.2,2.5c-4.4,1.5-8.6,3.6-12.6,5.9c-4.7,2.7-9.2,5.7-13.4,9c-2.7,2.2-5.3,4.5-8,6.8
			c-1.7,1.5-3.3,3.1-5,4.6c0.1,0.1,0.2,0.2,0.3,0.3c0.3-0.1,0.5-0.1,0.8-0.2c4-1.3,8-1.8,12.2-1.1c0.3,0.1,0.8-0.1,1.1-0.4
			c3.3-2.7,6.4-5.5,9.8-8c7.2-5.3,15-9.5,23.5-12.5c5-1.8,10.1-3.2,15.4-3.9c5.3-0.7,10.6-0.6,15.9,0.1c0.2,0,0.3,0.1,0.7,0.3
			c-1.9-0.2-3.4-0.3-5-0.4c-6-0.4-11.8,0.3-17.6,1.7c-4.9,1.2-9.5,2.9-14.1,5c-7.8,3.6-15.1,8.1-21.7,13.6c-1.9,1.5-3.7,3.2-5.7,5
			c4.6,1.5,8.3,3.9,11.2,7.5c0.2-0.2,0.3-0.3,0.4-0.5c1.6-2,3.2-4.1,4.9-6.1C96.8,251.7,101.5,247.3,107.1,243.7z"/>
		<path fill="#9C1C20" d="M410.1,211.5c-5.8-1-11.7-0.9-17.5,0.3c-3.7,0.8-7.3,2.1-10.7,3.8c-4.2,2.2-7.8,5.2-11,8.7
			c-4.3,4.7-7.9,9.9-11.6,15c-3.4,4.7-6.9,9.2-10.4,13.8c-0.8,1-1.6,2-2.4,3c0.6-0.2,1-0.4,1.4-0.7c5.5-4.3,11-8.6,16.6-12.8
			c3.9-2.9,7.8-5.9,11.8-8.6c4.7-3.1,10-4.9,15.6-5.5c5.2-0.6,10.2,0.1,14.9,2.2c1.6,0.7,3.1,1.6,4.7,2.4c0-0.2,0-0.4-0.1-0.7
			c-1-3-1.3-6.1-0.8-9.3c0.1-0.5-0.1-0.7-0.6-0.9c-2.5-1.1-5.1-1.9-7.8-2.3c-4-0.6-8.1-0.4-12,0.7c-3.2,0.9-6.3,2.2-9.1,4.2
			c-2.7,1.9-5.3,4-7.8,6.2c-4.1,3.7-8.1,7.5-12.2,11.3c-1.4,1.3-2.7,2.6-4.2,4c0.2-0.3,0.4-0.5,0.5-0.6c6.3-6.8,12.9-13.2,20.1-19.1
			c5-4,10.5-6.8,16.9-7.6c5-0.6,9.9,0.1,14.6,1.8c0.6,0.2,1.2,0.4,1.9,0.7c1-3.5,3-6.2,5.8-8.5c-0.3-0.1-0.5-0.3-0.7-0.3
			C414.1,212.3,412.1,211.9,410.1,211.5z"/>
		<path fill="#9C1C20" d="M162.3,164.8c-1.3,0-1.3,0-1.6,1.3c-2.2,8.7-7.6,14.5-16.2,17.2c-1.7,0.5-3.6,0.7-5.4,1.1
			c0,2.1,0,4.3,0,6.4c16.5-0.4,26.7-12.3,29-26.1C166.1,164.8,164.2,164.8,162.3,164.8z"/>
		<path fill="#9C1C20" d="M317.5,370c-0.4-0.5-0.6-0.5-1.2-0.1c-1.4,0.9-2.9,1-4.4,0.4c0.2,0,0.4,0,0.5,0c1.4,0.3,2.7-0.1,3.9-0.9
			c0.2-0.1,0.4-0.4,0.4-0.6c-0.1-0.6-0.2-1.2-0.4-1.8c-0.2,0.2-0.4,0.3-0.6,0.4c-1.7,1.3-3.6,1.8-5.6,1.1c-2.1-0.7-4.1-1.7-6.1-2.6
			c-0.5-0.2-0.6-0.4-0.6-0.9c0-0.4-0.2-1-0.5-1.2c-0.4-0.3-0.5-0.6-0.6-1.1c-0.1-1.4-1.1-2.4-2.5-2.3c-1.3,0-2.3,1.1-2.3,2.4
			c0,1.4,1,2.4,2.4,2.5c0.3,0,0.6,0.2,0.8,0.5c0.6,0.7,1.3,0.8,2.1,0.4c0.2-0.1,0.7-0.1,0.9,0.1c1.3,1.1,2.6,2.2,3.8,3.4
			c2,2,4.5,3,7.3,2.7c1.3-0.1,2.5-0.6,3.6-1.4C318.1,370.6,317.8,370.3,317.5,370z"/>
		<path fill="#9C1C20" d="M303.3,334.7c1.4,0,2.3-1,2.3-2.4c0-1.4-1-2.5-2.4-2.5c-1.3,0-2.3,1.1-2.4,2.4
			C300.8,333.7,301.9,334.7,303.3,334.7z"/>
		<path fill="#9C1C20" d="M303.3,303c1.3,0,2.3-1,2.3-2.4c0-1.5-0.9-2.4-2.4-2.4c-1.4,0-2.4,1-2.4,2.4
			C300.9,302,301.9,303,303.3,303z"/>
		<path fill="#9C1C20" d="M303.2,351c-1.4,0-2.3,1-2.3,2.5c0,1.4,1,2.4,2.4,2.4c1.4,0,2.3-1,2.3-2.4C305.6,352,304.6,351,303.2,351z
			"/>
		<path fill="#9C1C20" d="M303.2,292.6c1.4,0,2.4-1,2.4-2.5c0-1.5-1-2.4-2.4-2.4c-1.3,0-2.3,1-2.3,2.4
			C300.9,291.5,301.9,292.5,303.2,292.6z"/>
		<path fill="#9C1C20" d="M296.8,308.2c1.4,0,2.3-1,2.3-2.4c0-1.4-1-2.5-2.4-2.5c-1.3,0-2.3,1.1-2.4,2.4
			C294.4,307.2,295.3,308.2,296.8,308.2z"/>
		<path fill="#9C1C20" d="M303.2,287.3c1.3,0.1,2.4-1,2.4-2.4c0-1.4-1-2.5-2.3-2.5c-1.3,0-2.4,1.1-2.4,2.4
			C300.8,286.2,301.8,287.2,303.2,287.3z"/>
		<path fill="#9C1C20" d="M294.4,353.6c0,1.3,1,2.3,2.4,2.3c1.4,0,2.4-1,2.3-2.5c0-1.4-1-2.4-2.4-2.4
			C295.3,351.1,294.4,352.1,294.4,353.6z"/>
		<path fill="#9C1C20" d="M299.1,337.6c0-1.5-1-2.4-2.4-2.4c-1.4,0-2.3,1.1-2.3,2.5c0,1.4,1,2.4,2.4,2.3
			C298.2,340.1,299.1,339.1,299.1,337.6z"/>
		<path fill="#9C1C20" d="M296.8,334.7c1.4,0,2.3-1,2.3-2.4c0-1.4-1-2.5-2.4-2.5c-1.3,0-2.3,1.1-2.3,2.4
			C294.4,333.7,295.4,334.7,296.8,334.7z"/>
		<path fill="#9C1C20" d="M303.3,356.2c-1.4,0-2.4,1-2.4,2.4c0,1.4,1,2.5,2.4,2.5c1.3,0,2.3-1.1,2.3-2.4
			C305.6,357.2,304.7,356.2,303.3,356.2z"/>
		<path fill="#9C1C20" d="M303.3,303.4c-1.4,0-2.4,1.1-2.4,2.5c0,1.4,1,2.4,2.3,2.4c1.2,0.2,2.4-1,2.4-2.3
			C305.6,304.5,304.6,303.4,303.3,303.4z"/>
		<path fill="#9C1C20" d="M294.4,327c0,1.4,1,2.4,2.3,2.4c1.4,0,2.4-1,2.4-2.4c0-1.4-0.9-2.4-2.3-2.4
			C295.4,324.6,294.4,325.6,294.4,327z"/>
		<path fill="#9C1C20" d="M300.9,326.9c0,1.5,1,2.6,2.4,2.6c1.3,0,2.3-1,2.3-2.4c0-1.4-0.9-2.4-2.3-2.4
			C301.9,324.6,300.9,325.5,300.9,326.9z"/>
		<path fill="#9C1C20" d="M303.3,345.8c-1.4,0-2.5,0.9-2.5,2.4c0,1.4,1,2.5,2.3,2.5c1.3,0,2.4-1,2.4-2.4
			C305.6,346.9,304.7,345.8,303.3,345.8z"/>
		<path fill="#9C1C20" d="M303.2,319.3c-1.4,0-2.3,1-2.3,2.5c0,1.4,1,2.3,2.4,2.3c1.4,0,2.3-1,2.3-2.4
			C305.6,320.2,304.7,319.3,303.2,319.3z"/>
		<path fill="#9C1C20" d="M305.6,311.1c0-1.5-1-2.5-2.4-2.5c-1.4,0-2.3,1-2.4,2.4c0,1.5,0.9,2.4,2.4,2.4
			C304.7,313.5,305.6,312.6,305.6,311.1z"/>
		<path fill="#9C1C20" d="M296.8,292.6c1.4,0,2.3-1,2.3-2.4c0-1.4-1-2.5-2.4-2.5c-1.4,0-2.3,1-2.3,2.4
			C294.4,291.5,295.4,292.6,296.8,292.6z"/>
		<path fill="#9C1C20" d="M303.3,340.5c-1.3,0-2.4,1-2.4,2.4c0,1.5,0.9,2.5,2.3,2.5c1.4,0,2.4-1,2.4-2.4
			C305.6,341.6,304.6,340.5,303.3,340.5z"/>
		<path fill="#9C1C20" d="M303.3,340.1c1.4,0,2.3-1.1,2.3-2.5c0-1.4-1-2.4-2.4-2.4c-1.3,0-2.3,1.1-2.3,2.5
			C300.9,339.1,301.9,340.1,303.3,340.1z"/>
		<path fill="#9C1C20" d="M299.1,358.6c0-1.4-0.9-2.4-2.3-2.4c-1.4,0-2.4,1-2.4,2.4c0,1.4,1.1,2.5,2.4,2.5
			C298.1,361.1,299.1,360,299.1,358.6z"/>
		<path fill="#9C1C20" d="M296.8,313.8c-1.4,0-2.4,1-2.4,2.4c0,1.5,0.9,2.5,2.4,2.5c1.4,0,2.4-1,2.4-2.4
			C299.1,314.8,298.2,313.8,296.8,313.8z"/>
		<path fill="#9C1C20" d="M303.1,318.7c1.4,0,2.4-0.9,2.4-2.3c0-1.5-0.9-2.6-2.4-2.6c-1.4,0-2.3,1-2.4,2.4
			C300.9,317.6,301.8,318.6,303.1,318.7z"/>
		<path fill="#9C1C20" d="M305.6,279.6c0-1.5-1-2.5-2.4-2.5c-1.3,0-2.3,1.1-2.3,2.4c0,1.4,1,2.5,2.4,2.5
			C304.6,282,305.6,281,305.6,279.6z"/>
		<path fill="#9C1C20" d="M296.7,350.7c1.3,0,2.4-1,2.4-2.4c0-1.5-0.9-2.5-2.3-2.5c-1.4,0-2.4,1-2.4,2.3
			C294.4,349.6,295.4,350.7,296.7,350.7z"/>
		<path fill="#9C1C20" d="M299.1,284.8c0-1.3-1.1-2.5-2.3-2.5c-1.3,0-2.4,1.1-2.4,2.4c0,1.4,1,2.5,2.3,2.5
			C298.1,287.3,299.1,286.2,299.1,284.8z"/>
		<path fill="#9C1C20" d="M303.3,292.8c-1.3,0-2.4,1-2.4,2.4c0,1.5,0.9,2.4,2.4,2.4c1.4,0,2.3-1,2.4-2.4
			C305.6,293.9,304.6,292.8,303.3,292.8z"/>
		<path fill="#9C1C20" d="M299.1,311.1c0-1.5-1-2.5-2.4-2.5c-1.4,0-2.3,1-2.3,2.5c0,1.4,1,2.3,2.4,2.3
			C298.2,313.5,299.1,312.5,299.1,311.1z"/>
		<path fill="#9C1C20" d="M296.8,292.8c-1.3,0-2.4,1.1-2.4,2.5c0,1.5,1,2.4,2.4,2.4c1.4,0,2.3-1,2.3-2.4
			C299.1,293.9,298.1,292.8,296.8,292.8z"/>
		<path fill="#9C1C20" d="M296.8,303c1.4,0,2.3-1,2.3-2.4c0-1.4-1-2.4-2.4-2.4c-1.3,0-2.3,1-2.3,2.4C294.4,302,295.4,303,296.8,303z
			"/>
		<path fill="#9C1C20" d="M296.8,345.3c1.4,0,2.3-0.9,2.4-2.4c0-1.4-1-2.5-2.4-2.5c-1.3,0-2.3,1.1-2.4,2.4
			C294.4,344.4,295.3,345.3,296.8,345.3z"/>
		<path fill="#9C1C20" d="M296.7,319.3c-1.4,0-2.3,1-2.3,2.4c0,1.4,0.9,2.4,2.3,2.4c1.5,0,2.4-0.9,2.4-2.4
			C299.1,320.3,298.2,319.3,296.7,319.3z"/>
		<path fill="#9C1C20" d="M301,237.3c0,1.3,0.9,2.2,2.2,2.2c1.3,0,2.2-0.9,2.2-2.2c0-1.3-1-2.3-2.2-2.3C301.9,235,301,236,301,237.3
			z"/>
		<path fill="#9C1C20" d="M303.2,266.6c-1.3,0-2.2,0.9-2.2,2.3c0,1.3,0.9,2.2,2.2,2.2c1.3,0,2.2-0.9,2.2-2.2
			C305.5,267.6,304.5,266.6,303.2,266.6z"/>
		<path fill="#9C1C20" d="M296.8,250.8c-1.3,0-2.2,1-2.2,2.3c0,1.2,1,2.2,2.2,2.2c1.3,0,2.2-0.9,2.2-2.2
			C299,251.8,298,250.8,296.8,250.8z"/>
		<path fill="#9C1C20" d="M303.2,228.9c1.3,0,2.2-0.9,2.2-2.2c0-1.3-0.9-2.3-2.2-2.3c-1.3,0-2.2,1-2.2,2.3
			C301,228,301.9,228.9,303.2,228.9z"/>
		<path fill="#9C1C20" d="M294.5,274c0,1.2,1,2.3,2.2,2.3c1.2,0,2.3-1,2.3-2.3c0-1.3-0.9-2.2-2.1-2.2
			C295.5,271.8,294.6,272.7,294.5,274z"/>
		<path fill="#9C1C20" d="M296.8,266.6c-1.2,0-2.2,1-2.2,2.2c0,1.3,0.9,2.3,2.2,2.3c1.3,0,2.2-0.9,2.2-2.2
			C299,267.6,298,266.7,296.8,266.6z"/>
		<path fill="#9C1C20" d="M303.2,213c1.3,0,2.2-0.9,2.2-2.2c0-1.3-0.9-2.3-2.2-2.4c-1.3,0-2.2,1-2.2,2.3
			C301,212.1,301.9,213,303.2,213z"/>
		<path fill="#9C1C20" d="M296.7,260.6c1.3,0,2.3-1,2.3-2.2c0-1.3-0.9-2.3-2.2-2.3c-1.2,0-2.2,1-2.2,2.2
			C294.5,259.5,295.5,260.6,296.7,260.6z"/>
		<path fill="#9C1C20" d="M303.2,250.8c-1.3,0-2.2,1-2.2,2.3c0,1.3,0.9,2.2,2.2,2.2c1.3,0,2.2-0.9,2.2-2.2
			C305.5,251.8,304.5,250.8,303.2,250.8z"/>
		<path fill="#9C1C20" d="M301,274.1c0,1.3,0.9,2.2,2.2,2.2c1.2,0,2.2-1,2.2-2.2c0-1.4-0.9-2.3-2.2-2.3
			C301.9,271.8,301,272.7,301,274.1z"/>
		<path fill="#9C1C20" d="M303.3,240.3c-1.3,0-2.2,0.9-2.2,2.2c0,1.3,0.9,2.3,2.2,2.3c1.2,0,2.2-1,2.2-2.3
			C305.4,241.3,304.5,240.3,303.3,240.3z"/>
		<path fill="#9C1C20" d="M303.3,245.6c-1.3,0-2.2,0.9-2.2,2.3c0,1.3,1,2.3,2.3,2.2c1.2,0,2.1-1,2.1-2.3
			C305.4,246.5,304.5,245.6,303.3,245.6z"/>
		<path fill="#9C1C20" d="M303.2,223.6c1.3,0,2.2-1,2.2-2.3c0-1.3-0.9-2.2-2.2-2.2c-1.3,0-2.2,1-2.2,2.3
			C301,222.6,302,223.6,303.2,223.6z"/>
		<path fill="#9C1C20" d="M303.3,234.1c1.2,0,2.2-1,2.2-2.3c0-1.4-0.9-2.3-2.2-2.3c-1.3,0-2.2,0.9-2.2,2.3
			C301,233.1,302.1,234.1,303.3,234.1z"/>
		<path fill="#9C1C20" d="M305.5,258.4c0-1.3-1.1-2.3-2.3-2.3c-1.2,0-2.2,1.1-2.2,2.2c0,1.4,0.9,2.4,2.3,2.4
			C304.5,260.6,305.5,259.6,305.5,258.4z"/>
		<path fill="#9C1C20" d="M303.2,265.9c1.2,0,2.2-1,2.2-2.2c0-1.4-0.9-2.3-2.2-2.3c-1.3,0-2.2,0.9-2.2,2.3
			C301,264.9,302,265.9,303.2,265.9z"/>
		<path fill="#9C1C20" d="M296.7,261.4c-1.3,0-2.2,1-2.2,2.3c0,1.2,1.1,2.2,2.3,2.2c1.2,0,2.2-1,2.2-2.3
			C299,262.3,298,261.4,296.7,261.4z"/>
		<path fill="#9C1C20" d="M303.3,218.3c1.3,0,2.2-1,2.2-2.3c0-1.3-0.9-2.2-2.2-2.2c-1.3,0-2.2,0.9-2.2,2.2
			C301,217.4,302,218.4,303.3,218.3z"/>
		<path fill="#9C1C20" d="M301.6,235.1c-0.1,0-0.2,0-0.3,0c-4.2,0.6-8.4,1.2-12.6,1.7c-3,0.3-6,0.4-8.9,0.5c-0.7,0-1.4,0.2-2.1,0.4
			c0,0.1,0,0.2,0,0.4c0.9-0.1,1.7-0.2,2.8-0.2c-0.8,0.8-1.5,1.4-2.1,2c0.1,0.1,0.1,0.2,0.2,0.3c0.3-0.2,0.5-0.3,0.8-0.5
			c0.5-0.4,0.9-0.9,1.4-1.3c0.5-0.4,1.1-0.7,1.7-0.8c1.8-0.1,3.7,0,5.5-0.2c2.5-0.2,4.9-0.5,7.4-0.9c1.9-0.2,3.7-0.5,5.6-0.8
			c0.3,0,0.6-0.3,0.9-0.4C301.7,235.2,301.7,235.1,301.6,235.1z"/>
		<path fill="#9C1C20" d="M286,248c-1.7,0.1-3.1-0.6-3.9-2.1c-0.6-1.2-1-2.5-1.3-3.8c-0.2-1.1,0.5-1.9,1.6-1.9
			c0.8,0,1.5,0.2,2.3,0.3c0.2,0,0.4,0,0.7,0c-1.3-1.3-4.1-1.1-4.9,0.2c-0.2,0.3-0.3,0.7-0.3,1c0.1,1.9,0.6,3.6,1.8,5.1
			c1.3,1.5,3.7,2.2,5.1,1.4c0-0.1,0-0.2,0-0.3C286.9,248,286.5,248,286,248z"/>
		<path fill="#9C1C20" d="M283.5,235.8c0-0.1,0.1-0.1,0.1-0.2c-0.3-0.2-0.6-0.3-1-0.5c-2.4-0.8-3.6-2.8-3-5.3c0.3-1.3,1-2.5,1.5-3.8
			c0.1-0.3,0.3-0.6,0.5-1.1c-0.4,0.2-0.5,0.2-0.5,0.3c-1,1.6-1.8,3.2-2.1,5.1C278.6,233.2,280.8,235.5,283.5,235.8z"/>
		<path fill="#9C1C20" d="M315.6,245.5c-0.3,0.4-0.6,0.8-0.9,1.1c-2.3,2.6-5.1,4.4-8.3,5.8c-0.3,0.1-0.5,0.3-0.7,0.5
			c0.1,0.1,0.1,0.2,0.2,0.3c4.2-1.8,7.9-4.1,10.5-8c-0.1-0.1-0.2-0.2-0.2-0.2C316,245.1,315.8,245.3,315.6,245.5z"/>
		<path fill="#9C1C20" d="M297.6,250c1.1-0.4,1.5-1.3,1.3-2.5c-1.3,0.5-2.7,1-4,1.5C295.5,250,296.4,250.4,297.6,250z"/>
		<path fill="#9C1C20" d="M287.9,210.3c-0.2,0.1-0.3,0.2-0.4,0.3c-0.2,0.7-0.5,1.3-0.6,2c-0.4,1.8-0.8,3.7-1.1,5.5
			c-0.1,0.3,0.1,0.7,0.2,1.1c0.1,0,0.2-0.1,0.3-0.1C286,216.1,287.5,213.3,287.9,210.3z"/>
		<path fill="#9C1C20" d="M284.7,225.5c0.1,3.3,0.2,6.4,0.3,9.8C285.7,234.3,285.4,226.3,284.7,225.5z"/>
		<path fill="#9C1C20" d="M282.7,225.5c-1.7,1.7-2,6.9-0.5,8.1c-0.2-0.8-0.5-1.3-0.5-1.9c-0.1-1.7,0.1-3.4,0.7-5
			C282.6,226.3,282.7,225.9,282.7,225.5z"/>
		<path fill="#9C1C20" d="M289.1,211c-0.1,0.3-0.3,0.5-0.3,0.8c-0.3,1.5-0.6,3.1-0.8,4.6c-0.1,0.8-0.1,1.5,0,2.3
			c0,0.2,0.3,0.5,0.4,0.7c0.1,0,0.1-0.1,0.2-0.1c-0.8-2.8,0.5-5.5,0.8-8.2C289.3,211,289.2,211,289.1,211z"/>
		<path fill="#9C1C20" d="M283.8,240.5c-0.2,0-0.3,0-0.5,0c0,1-0.2,1.9,0,2.9c0.2,1.1,0.7,2.3,1.1,3.4c0.1,0.2,0.4,0.2,0.5,0.4
			c0.1-0.1,0.1-0.1,0.2-0.2C283.5,245,283.8,242.7,283.8,240.5z"/>
	</g>
	<g>
		<path fill="#9C1C20" d="M388.2,326.9c8.8,10.1,18.4,19.8,20.8,34C399.3,351.3,395.6,338.1,388.2,326.9z"/>
		<path fill="#9C1C20" d="M383.7,352.7c-3-11.2-6-22.4-8.9-32.9C382,325.5,388.1,344.5,383.7,352.7z"/>
		<path fill="#9C1C20" d="M359.3,313.8c-10.7,5.1-21.2,10.2-32.6,15.6C329.6,321.1,346.5,313.4,359.3,313.8z"/>
		<path fill="#9C1C20" d="M409.8,330.4c-9.3-5.9-18.7-11.7-27.6-17.3C390.6,312.1,407,321.2,409.8,330.4z"/>
		<path fill="#9C1C20" d="M316.1,308.7c10.5-5,20.9-1.1,31.4,0c0,0.7,0,1.3,0,2c-10.5,0-20.9,0-31.4,0
			C316.1,310.1,316.1,309.4,316.1,308.7z"/>
		<path fill="#9C1C20" d="M408.6,293.7c-11.1,3.5-21.3,6.6-31.2,9.7C385.3,294.9,400.5,289.5,408.6,293.7z"/>
		<path fill="#9C1C20" d="M372.7,334.8c0.8,11.2,1.6,21.3,2.4,31.4C369,362.7,368.3,344.7,372.7,334.8z"/>
		<path fill="#9C1C20" d="M362.6,349.5c-5.6-6.1-3.2-23.9,2.4-30.7C364.2,328.8,363.4,339.2,362.6,349.5z"/>
		<path fill="#9C1C20" d="M351.3,325.4c-4.1,9.2-8.2,18.4-12.3,27.6c-0.6-0.3-1.3-0.6-1.9-0.9C336.7,340.6,343.8,332.8,351.3,325.4z
			"/>
		<path fill="#9C1C20" d="M367.9,300.9c-2.1-9.5-4.3-19.1-6.4-28.6c0.9-0.2,1.8-0.4,2.6-0.6C370.1,280.4,368.8,290.7,367.9,300.9z"
			/>
		<path fill="#9C1C20" d="M416,311.7c-9.7-1.5-18.4-2.8-26.6-4.1C395.8,303,411.1,304.4,416,311.7z"/>
		<path fill="#9C1C20" d="M375.1,295.2c3.3-8.4,5-17.5,12.8-23.5C387.4,281.5,380.3,287.8,375.1,295.2z"/>
		<path fill="#9C1C20" d="M337.5,291.4c9.9,0.2,15.8,6.9,21.3,14.3c-7.5-4.1-15-8.1-22.4-12.2C336.8,292.8,337.1,292.1,337.5,291.4z
			"/>
		<path fill="#9C1C20" d="M341.5,276.2c9.4,3.6,12.7,11.9,16.3,20.1C352.5,289.5,344.7,284.7,341.5,276.2z"/>
		<path fill="#9C1C20" d="M404.8,276.6c-6.7,4.3-12.7,8.1-18.5,11.8C387.4,281.4,397.1,274.2,404.8,276.6z"/>
	</g>
	<g>
		<path fill="#9C1C20" d="M152.9,343.3c7.7,8.9,16.2,17.4,18.2,29.8C162.7,364.7,159.4,353.1,152.9,343.3z"/>
		<path fill="#9C1C20" d="M149,365.9c-2.6-9.8-5.3-19.6-7.8-28.9C147.4,342.1,152.8,358.7,149,365.9z"/>
		<path fill="#9C1C20" d="M127.6,331.8c-9.4,4.5-18.6,9-28.6,13.7C101.5,338.2,116.3,331.5,127.6,331.8z"/>
		<path fill="#9C1C20" d="M171.9,346.3c-8.2-5.1-16.4-10.3-24.2-15.2C155,330.3,169.4,338.3,171.9,346.3z"/>
		<path fill="#9C1C20" d="M89.7,327.4c9.2-4.4,18.3-0.9,27.5,0c0,0.6,0,1.2,0,1.7c-9.2,0-18.3,0-27.5,0
			C89.6,328.5,89.6,327.9,89.7,327.4z"/>
		<path fill="#9C1C20" d="M170.8,314.2c-9.7,3-18.7,5.8-27.3,8.5C150.3,315.2,163.7,310.5,170.8,314.2z"/>
		<path fill="#9C1C20" d="M139.3,350.2c0.7,9.8,1.4,18.7,2.1,27.6C136.1,374.7,135.4,358.9,139.3,350.2z"/>
		<path fill="#9C1C20" d="M130.4,363.1c-4.9-5.3-2.8-21,2.1-27C131.8,345,131.1,354.1,130.4,363.1z"/>
		<path fill="#9C1C20" d="M120.5,341.9c-3.6,8.1-7.2,16.1-10.8,24.2c-0.6-0.3-1.1-0.5-1.7-0.8C107.7,355.3,114,348.5,120.5,341.9z"
			/>
		<path fill="#9C1C20" d="M135.1,320.5c-1.9-8.4-3.8-16.7-5.6-25.1c0.8-0.2,1.5-0.3,2.3-0.5C137.1,302.5,135.8,311.6,135.1,320.5z"
			/>
		<path fill="#9C1C20" d="M177.3,330c-8.5-1.3-16.1-2.5-23.3-3.6C159.6,322.3,173,323.5,177.3,330z"/>
		<path fill="#9C1C20" d="M141.4,315.4c2.9-7.3,4.4-15.4,11.2-20.6C152.2,303.4,146,309,141.4,315.4z"/>
		<path fill="#9C1C20" d="M108.4,312.2c8.7,0.2,13.9,6.1,18.7,12.5c-6.6-3.6-13.1-7.1-19.7-10.7
			C107.8,313.4,108.1,312.8,108.4,312.2z"/>
		<path fill="#9C1C20" d="M111.9,298.8c8.3,3.1,11.2,10.5,14.3,17.6C121.6,310.4,114.8,306.2,111.9,298.8z"/>
		<path fill="#9C1C20" d="M167.4,299.2c-5.9,3.8-11.2,7.1-16.2,10.3C152.2,303.3,160.7,297.1,167.4,299.2z"/>
	</g>
	<g>
		<path fill="#9C1C20" d="M186.5,71.9c7.9-5.9,19.8-1.2,25.5,8.6C203.9,77.7,195.7,75,186.5,71.9z"/>
		<path fill="#9C1C20" d="M245.2,83.6c5.2-11.3,14.8-17.2,22.9-13C260.2,75.1,253,79.1,245.2,83.6z"/>
		<path fill="#9C1C20" d="M253.3,106.9c10.9,7.8,14.3,13.6,12.8,22.4C258.3,123.1,257.8,113.7,253.3,106.9z"/>
		<path fill="#9C1C20" d="M208.3,116.8c-1.1,8-2.1,15.1-3.2,22.8C197.9,134.2,199.5,124.9,208.3,116.8z"/>
		<path fill="#9C1C20" d="M275.6,115.6c-3.4-7.6-6.5-14.3-9.6-21.1C276.1,98.8,281.1,108.4,275.6,115.6z"/>
		<path fill="#9C1C20" d="M223.1,92.1c-7.2-1.1-14.9,2.9-22.1-1.9C205.7,85,215.5,85.8,223.1,92.1z"/>
		<path fill="#9C1C20" d="M227.7,83.1c-6.7-6.1-12.2-11-18.4-16.7C218.2,64.6,223.3,69.5,227.7,83.1z"/>
		<path fill="#9C1C20" d="M208,45.5c7.2,1.1,12.9,8.6,13.6,18.6c-5.5-6-10.5-11.5-15.5-17C206.7,46.6,207.3,46,208,45.5z"/>
		<path fill="#9C1C20" d="M224.6,114c0.4,7.4,0.7,14.7,1.1,23.6C218.3,132.2,218.2,124.6,224.6,114z"/>
		<path fill="#9C1C20" d="M197,113.9c-2.4-8.3,5.1-14.8,11.1-15.3C205.5,102,201.3,107.9,197,113.9z"/>
		<path fill="#9C1C20" d="M289.2,82.1c-8.4-1.4-15.9-2.7-23.3-3.9C273.6,72.2,284.7,73.3,289.2,82.1z"/>
		<path fill="#9C1C20" d="M237.4,137.2c0.7-7,1.4-14,2.2-22.5c5.5,10.7,5.3,18.6,0.3,22.7C239,137.4,238.2,137.3,237.4,137.2z"/>
		<path fill="#9C1C20" d="M235.8,75.6c3.5-4.7,6.8-9.6,10.6-14c0.8-1,3.6-0.2,5.5-0.3c-0.6,1.7-0.8,3.9-2,5
			c-3.9,3.7-8.1,7-12.3,10.4C237,76.4,236.4,76,235.8,75.6z"/>
		<path fill="#9C1C20" d="M276.7,93.5c-7.2-2.9-13.6-5.5-20.2-8.2C265.1,81.3,274.9,84.6,276.7,93.5z"/>
		<path fill="#9C1C20" d="M234.1,39.7c6.3,3.4,8.5,10.7,5.6,22.3c-2.9-8.1-5.3-14.8-7.7-21.6C232.7,40.2,233.4,40,234.1,39.7z"/>
		<path fill="#9C1C20" d="M252,125c5.4,9.3,5.9,16.3,0,21.8C252,138.8,252,132.1,252,125z"/>
		<path fill="#9C1C20" d="M248.7,90c4.9,2.3,9.9,4.3,14.6,7c1.1,0.6,1,3.4,1.4,5.2c-1.8-0.2-3.9,0.2-5.2-0.8
			c-4-2.9-7.6-6.2-11.3-9.3C248.3,91.5,248.5,90.7,248.7,90z"/>
		<path fill="#9C1C20" d="M215.8,115c-1.1-9.1,1.8-13.4,11.2-17.7C222.2,102.1,223.5,110.7,215.8,115z"/>
		<path fill="#9C1C20" d="M232.3,75.4c-1.8-4.5-4-9-5.4-13.7c-0.5-1.7,0.7-3.9,1.1-5.8c1.5,1.1,4,2.1,4.3,3.5
			c1.1,5.1,1.5,10.3,2.1,15.5C233.7,75,233,75.2,232.3,75.4z"/>
		<path fill="#9C1C20" d="M290.9,115.8c-4.4-6.9-8-12.6-12.1-19.2C289.3,100.6,293.9,107.2,290.9,115.8z"/>
		<path fill="#9C1C20" d="M244.2,97.1c1.7,4.7,3.7,9.3,4.9,14.1c0.3,1.2-1.7,3.1-2.7,4.6c-1.1-1.2-2.9-2.4-3.1-3.7
			c-0.7-4.8-0.7-9.6-1.1-14.4C242.9,97.4,243.5,97.2,244.2,97.1z"/>
		<path fill="#9C1C20" d="M233.6,100c0,6.8,0,12.3,0,18.9C227.5,113.9,227.7,109,233.6,100z"/>
		<path fill="#9C1C20" d="M253.7,64.4c8.9-7.1,14.2-7.6,19.8-1C266.6,63.7,261,64,253.7,64.4z"/>
		<path fill="#9C1C20" d="M194.5,94.8c-3.4,2.1-6.6,4.4-10.1,6.1c-1.2,0.6-3.1,0-4.7-0.1c0.6-1.7,0.7-4.5,1.8-4.9
			c4.1-1.5,8.4-2.2,12.6-3.2C194.1,93.5,194.3,94.2,194.5,94.8z"/>
		<path fill="#9C1C20" d="M243.2,85.8c-3.3,2.6-5.2,5.3-6.7,5.1c-2-0.2-3.8-2.7-5.7-4.3c1.5-1.7,2.9-4.6,4.5-4.7
			C237.3,81.7,239.5,83.8,243.2,85.8z"/>
		<path fill="#9C1C20" d="M244.7,55.8c3.2-2.5,6.3-5.3,9.8-7.3c1.2-0.7,3.5,0.6,5.2,1c-1,1.5-1.7,3.7-3.1,4.3
			c-3.4,1.5-7.1,2.3-10.7,3.4C245.6,56.8,245.2,56.3,244.7,55.8z"/>
	</g>
	<g>
		<path fill="#9C1C20" d="M272.5,369.6c-6.5-7.9-13.1-15.7-20.1-24.2C261.3,352.2,268.6,359.4,272.5,369.6z"/>
		<path fill="#9C1C20" d="M265.6,342.7c-9-4.1-17.9-8.2-25.8-11.8C248.7,332,258.3,334.8,265.6,342.7z"/>
		<path fill="#9C1C20" d="M215.4,328.5c-8.1,0.9-16.9,1.9-25.6,2.9C192.9,327.5,207.6,326,215.4,328.5z"/>
		<path fill="#9C1C20" d="M241.7,384.7c-2-9.7-3.9-18.7-5.7-27.3C240.2,363.5,243.6,378.3,241.7,384.7z"/>
		<path fill="#9C1C20" d="M209,362.2c-1-6.6,3.7-17,10.1-23.5C216,346,212.5,354.1,209,362.2z"/>
		<path fill="#9C1C20" d="M221.6,319.4c-6.7-4.8-13.8-9.9-21-15.1C209.8,306.7,216.9,311.9,221.6,319.4z"/>
		<path fill="#9C1C20" d="M228.1,342.7c0,7.4,0,15.3,0,23.9C225.5,363.2,225.8,351.4,228.1,342.7z"/>
		<path fill="#9C1C20" d="M221.2,291.2c4.7,4.4,7.8,15.6,7.3,24.9C226.1,308,223.8,299.9,221.2,291.2z"/>
		<path fill="#9C1C20" d="M187.3,356c1.4-6.5,9.7-13.8,16.3-14.7C198.6,345.8,192.9,350.9,187.3,356z"/>
		<path fill="#9C1C20" d="M206.4,320.5c-7.3-2.4-14.6-4.9-21.9-7.3c0.1-0.4,0.3-0.8,0.4-1.2C192.8,312.6,199.7,316.3,206.4,320.5z"
			/>
		<path fill="#9C1C20" d="M236.1,339.2c6.5,4.6,12.1,9.8,13.4,18.1C245,351.4,240.6,345.4,236.1,339.2z"/>
		<path fill="#9C1C20" d="M247.2,322.8c7.8-2.1,14.8-2.9,21.6,1.3C261.8,323.7,254.9,323.3,247.2,322.8z"/>
		<path fill="#9C1C20" d="M217,360.7c0,8.3,0,16.6,0,25C213.9,377.3,215.3,368.9,217,360.7z"/>
		<path fill="#9C1C20" d="M234.9,309.1c1.6-6.8,7.1-12.7,12.6-13C243.3,300.5,238.8,305.1,234.9,309.1z"/>
		<path fill="#9C1C20" d="M264.1,331.2c6.8,2.3,12.1,5.2,14.4,11.9C273.9,339.3,269.2,335.5,264.1,331.2z"/>
		<path fill="#9C1C20" d="M252.7,310c-5.7,3.8-10.9,7.2-15.6,10.3C238.2,316,246.4,310,252.7,310z"/>
		<path fill="#9C1C20" d="M179.1,343.2c4.2-3.9,9.3-5.3,15.7-5.7c-5.6,2.5-10.5,4.8-15.4,7C179.3,344.1,179.2,343.6,179.1,343.2z"/>
		<path fill="#9C1C20" d="M199.3,363.1c-1.4,4.8-2.9,9.6-4.3,14.4c-0.4-0.1-0.8-0.2-1.2-0.4C193.3,371.8,195.9,367.3,199.3,363.1z"
			/>
		<path fill="#9C1C20" d="M253.2,368.6c2,3.2,4,6.5,6,9.7c-0.6,0.3-1.1,0.7-1.7,1c-1.8-3.3-3.6-6.6-5.4-9.9
			C252.5,369.1,252.8,368.9,253.2,368.6z"/>
	</g>
	<g>
		<path fill="#9C1C20" d="M155.5,92.6c-8.5,6-16.7,11.7-23.8,16.7C133.8,103,146.4,93.3,155.5,92.6z"/>
		<path fill="#9C1C20" d="M114.5,146.9c-2.7,6.8-5.4,13.7-8.1,20.5c-2.4-8.9,2.8-14.8,6.9-21.2C113.7,146.5,114.1,146.7,114.5,146.9
			z"/>
		<path fill="#9C1C20" d="M103.4,113.8c-12.1-0.1-19.1-1.6-22.4-4.6C85.4,107.2,92.1,108.5,103.4,113.8z"/>
		<path fill="#9C1C20" d="M123.7,82.3c-1.9,8.4-3.8,16.7-5.3,23.7C115.3,98.7,117.5,87,123.7,82.3z"/>
		<path fill="#9C1C20" d="M98.1,151c1.5-10,8.5-15.6,16.5-21.6C108.8,137,103.5,144,98.1,151z"/>
		<path fill="#9C1C20" d="M160.4,121.4c-9.1-0.4-18.3-0.7-27.4-1.1c9.2-1.8,18.4-3.8,27.6-0.3C160.5,120.4,160.4,120.9,160.4,121.4z
			"/>
		<path fill="#9C1C20" d="M132,146.8c3.7,5.8,7.5,11.6,11.2,17.3c-0.5,0.3-1.1,0.6-1.6,1C134.8,161.1,133.3,154,132,146.8z"/>
		<path fill="#9C1C20" d="M122.1,136.1c1.4,8.3,2.6,16.3,3.9,24.2C121.7,157.6,119.7,145.7,122.1,136.1z"/>
		<path fill="#9C1C20" d="M97.5,134.9c-5.1,3.9-10.3,7.8-16.2,12.2C82.1,141,87,137.4,97.5,134.9z"/>
		<path fill="#9C1C20" d="M133.7,131.2c6.7,4.1,13.4,8.2,20.1,12.3C144.7,143.3,139.3,137,133.7,131.2z"/>
		<path fill="#9C1C20" d="M107.5,121.3c-7.8,1.6-15.5,3.3-23.3,4.9C91.2,120.3,99.4,120.6,107.5,121.3z"/>
		<path fill="#9C1C20" d="M100.4,94.3c4.1,6.1,8.2,12.2,12.7,18.7C106.3,108.2,101.1,102.8,100.4,94.3z"/>
		<path fill="#9C1C20" d="M152,105.8c8-4.9,12.3-5.3,16.5-1.1C162.9,105.1,158.1,105.4,152,105.8z"/>
		<path fill="#9C1C20" d="M144.8,84.2c-3.5,3.5-7,7.1-11.5,11.7c2.2-6.6,4.2-11.5,10-13.1C143.8,83.2,144.3,83.7,144.8,84.2z"/>
		<path fill="#9C1C20" d="M155.9,158.5c-5.5-0.4-8-4.9-10.5-9.5c3.9,2.6,7.8,5.1,11.8,7.7C156.7,157.3,156.3,157.9,155.9,158.5z"/>
		<path fill="#9C1C20" d="M107.9,81.8c3.9,4.3,2.2,9.4,3.6,14.2C107.1,91.5,105.8,86.8,107.9,81.8z"/>
		<path fill="#9C1C20" d="M125.4,128.1c1.8,2.7,3.7,5.3,5.3,8.1c0.4,0.7-0.3,2-0.5,3.1c-0.8-0.4-2.1-0.6-2.4-1.3
			c-1.4-3-2.4-6.2-3.6-9.3C124.5,128.5,125,128.3,125.4,128.1z"/>
		<path fill="#9C1C20" d="M148.4,130.9c4.3-0.1,8.8-1,11.7,2.6c-0.2,0.6-0.4,1.2-0.6,1.8C155.8,133.8,152.1,132.3,148.4,130.9z"/>
		<path fill="#9C1C20" d="M93.8,103.7c-2.4-3-4.9-6.1-7.3-9.1c0.6-0.5,1.3-1,1.9-1.5c4.3,1.6,4.4,6.5,6.7,9.6
			C94.7,103,94.3,103.3,93.8,103.7z"/>
		<path fill="#9C1C20" d="M165.4,114.6c3.9,0.8,7.7,1.6,11.6,2.4c-0.2,1-0.5,1.9-0.7,2.9c-3.8-1.1-7.7-2.2-11.5-3.3
			C165.1,115.9,165.3,115.2,165.4,114.6z"/>
		<path fill="#9C1C20" d="M123.2,113.2c0.6-4,1.2-8,1.8-12c1,0.2,2,0.3,3,0.5c-1,3.9-2,7.9-3,11.8
			C124.4,113.4,123.8,113.3,123.2,113.2z"/>
		<path fill="#9C1C20" d="M137.4,113.8c2.7-3.7,5.8-6.3,10.2-5c0.2,0.7,0.4,1.4,0.6,2.1C144.6,111.8,141,112.8,137.4,113.8z"/>
		<path fill="#9C1C20" d="M101.7,129.6c2.1-4.2,6.3-3.6,10.6-2.7c-3.2,1.5-6.4,3.1-9.6,4.6C102.3,130.9,102,130.3,101.7,129.6z"/>
	</g>
	<g>
		<path fill="#9C1C20" d="M375.4,122.9c5.4,6.3,11.6,12.1,12.8,21C381.4,138.4,379.4,130,375.4,122.9z"/>
		<path fill="#9C1C20" d="M388,76.4c-6,3-12,6-17.7,8.9C372.6,79.5,381.6,74.1,388,76.4z"/>
		<path fill="#9C1C20" d="M338.2,126.9c-2.5,6-5,11.9-7.5,17.9C328.2,139.8,331.6,132.3,338.2,126.9z"/>
		<path fill="#9C1C20" d="M326.6,107.4c-5.8,1.5-11.7,2.9-17.5,4.4c-0.2-0.7-0.3-1.4-0.5-2.2C313.7,105.4,320.2,106.5,326.6,107.4z"
			/>
		<path fill="#9C1C20" d="M397.5,99.4c-5.8,1-11.6,2-17.5,3c-0.1-0.6-0.3-1.2-0.4-1.8c5.7-1.5,11.4-3,17.1-4.6
			C397,97.2,397.3,98.3,397.5,99.4z"/>
		<path fill="#9C1C20" d="M365.1,73.5c-2.6,6.6-4.7,11.7-7.1,17.8C357,82.5,359.1,76.3,365.1,73.5z"/>
		<path fill="#9C1C20" d="M336.6,87.5c-4.6-4.3-8.8-8.2-13.1-12.2c0.4-0.4,0.7-0.8,1.1-1.1C329.5,74.9,334.9,80.7,336.6,87.5z"/>
		<path fill="#9C1C20" d="M355.7,135.8c3.7,5.5,6.8,11,5.4,17.5c-0.7,0.1-1.4,0.3-2.1,0.4C357.9,147.8,356.8,141.8,355.7,135.8z"/>
		<path fill="#9C1C20" d="M363,117.3c3,4.7,7.4,8.7,7.6,14.7c-0.8,0.4-1.5,0.7-2.3,1.1c-2.2-5.1-4.5-10.1-6.7-15.2
			C362.1,117.6,362.6,117.5,363,117.3z"/>
		<path fill="#9C1C20" d="M349.6,92.2c-2.7-4.8-5.4-9.6-8.9-15.7C346.7,78.5,349.2,83.2,349.6,92.2z"/>
		<path fill="#9C1C20" d="M329.5,92.5c5.8,0,9.3,4.4,12.9,8.6c-4.7-2.1-9.3-4.2-14-6.3C328.8,94.1,329.1,93.3,329.5,92.5z"/>
		<path fill="#9C1C20" d="M385.3,118.5c-4.8-3-9.1-5.6-13.4-8.3C378.1,108.9,384.8,112.5,385.3,118.5z"/>
		<path fill="#9C1C20" d="M348.5,134.5c-2.3-5.2,1-9.3,3.8-13.6c-0.5,4.6-1,9.2-1.4,13.8C350,134.7,349.3,134.6,348.5,134.5z"/>
		<path fill="#9C1C20" d="M366.3,99.4c2.6-4.4,5.6-8.1,10.9-8c0.4,0.7,0.7,1.3,1.1,2C374.2,95.4,370.3,97.4,366.3,99.4z"/>
		<path fill="#9C1C20" d="M339.6,156.3c1.1-4.2,2.2-8.3,3.3-12.5c0.6,0.1,1.2,0.3,1.8,0.4c-0.6,4.3-1.3,8.6-1.9,12.9
			C341.8,156.9,340.7,156.6,339.6,156.3z"/>
		<path fill="#9C1C20" d="M376,155.2c-1.7-5.6-3.1-10-4.8-15.4C376.9,145.1,378.7,149.8,376,155.2z"/>
		<path fill="#9C1C20" d="M322.5,122.3c-3.5,2.4-7.1,4.8-10.6,7.2c-0.4-0.6-0.7-1.2-1.1-1.8C312.9,123,317.5,122.4,322.5,122.3z"/>
		<path fill="#9C1C20" d="M329.3,116.8c2.7-4.7,7.6-4.5,12.5-4.4c-3.9,2.1-7.7,4.2-11.6,6.3C329.9,118.1,329.6,117.5,329.3,116.8z"
			/>
		<path fill="#9C1C20" d="M321.6,92.9c-4-1.7-7.9-3.5-11.9-5.2c0.4-0.8,0.8-1.6,1.1-2.4c4.8,0.2,8,3.5,11.3,6.4
			C322,92.1,321.8,92.5,321.6,92.9z"/>
		<path fill="#9C1C20" d="M388.5,124.1c4.6,2.3,8.5,5,9.1,10.2c-0.7,0.4-1.3,0.9-2,1.3C393.2,131.7,390.8,127.9,388.5,124.1z"/>
		<path fill="#9C1C20" d="M388.6,108.1c3.7,1.4,7.4,2.9,11.1,4.3c-0.3,0.7-0.6,1.5-1,2.2c-4.6,0.6-7.1-3.6-10.8-5.1
			C388.2,109,388.4,108.6,388.6,108.1z"/>
		<path fill="#9C1C20" d="M350.2,64.8c4,3,2.1,7.5,1.4,11.8c-1.2-3.7-2.4-7.4-3.6-11.1C348.7,65.3,349.5,65,350.2,64.8z"/>
		<path fill="#9C1C20" d="M396.4,88.6c-3.6,0.8-7.2,1.6-10.8,2.4c-0.2-0.6-0.4-1.2-0.6-1.8c3.5-1.2,7-2.4,10.5-3.6
			C395.9,86.6,396.1,87.6,396.4,88.6z"/>
	</g>
</g>
</svg>
