<?xml version="1.0" encoding="utf-8"?>
<!-- Generator: Adobe Illustrator 18.0.0, SVG Export Plug-In . SVG Version: 6.00 Build 0)  -->
<!DOCTYPE svg PUBLIC "-//W3C//DTD SVG 1.1//EN" "http://www.w3.org/Graphics/SVG/1.1/DTD/svg11.dtd">
<svg version="1.1" id="Layer_1" xmlns="http://www.w3.org/2000/svg" xmlns:xlink="http://www.w3.org/1999/xlink" x="0px" y="0px"
	 viewBox="23 23 454 454" enable-background="new 23 23 454 454" xml:space="preserve">
<g>
	<path fill="#9D1C20" d="M468.8,63.5c-10-21.3-27-34-50.3-37.8c-0.8-0.3-1.8-0.5-2.5-0.8c-110.8,0-221.5,0-332.3,0
		c-7.3,2.2-14.8,3.5-21.5,6.7c-20.5,9.8-32.5,26.5-36.5,48.7c-0.3,1-0.5,2.3-0.8,3.3c0,110.7,0,221.5,0,332.3c2,6.7,3.3,14,6.3,20.3
		c10,21.3,27,34,50.3,37.8c0.7,0.3,1.8,0.5,2.5,0.8c110.7,0,221.5,0,332.3,0c7.3-2.3,14.8-3.5,21.5-6.8
		c20.5-9.7,32.5-26.5,36.5-48.8c0.3-1,0.5-2.2,0.8-3.3c0-110.8,0-221.5,0-332.3C473,77,471.8,70,468.8,63.5z M281.3,277
		c-17.5,0.8-35.3,0.3-52.8,0.3c-1.7,0-3.5,0-5.8,0c0,2,0,3.8,0,5.3c0,28,0,56.3,0,84.3c0,11-5,15.8-15.8,15.8c-7.5,0-15.2,0-22.7,0
		c-8.5,0-14-5.5-14-14c0-78.5,0-157,0-235.5c0-8.8,5.5-14.3,14.2-14.3c31,0,62-0.3,93,0c45.8,0.5,81,38,78.8,83.2
		C354.3,242.3,321.3,275.5,281.3,277z"/>
	<path fill="#9D1C20" d="M276.5,173.3c-14.8-0.2-29.5,0-44.3,0c-3.3,0-6.3,0-9.8,0c0,17.8,0,35,0,52.8c17,0,33.7,0,50.2,0
		c2,0,4,0,6.3-0.3c8.8-1,15.8-5,20.5-12.7C309.8,195.3,297.5,173.5,276.5,173.3z"/>
</g>
</svg>
