<?xml version="1.0" encoding="utf-8"?>
<!-- Generator: Adobe Illustrator 18.0.0, SVG Export Plug-In . SVG Version: 6.00 Build 0)  -->
<!DOCTYPE svg PUBLIC "-//W3C//DTD SVG 1.1//EN" "http://www.w3.org/Graphics/SVG/1.1/DTD/svg11.dtd">
<svg version="1.1" id="Layer_1" xmlns="http://www.w3.org/2000/svg" xmlns:xlink="http://www.w3.org/1999/xlink" x="0px" y="0px"
	 viewBox="47 90 406 320" enable-background="new 47 90 406 320" xml:space="preserve">
<g>
	<g>
		<g>
			<g>
				<path fill="#9D1C20" d="M224.8,266.5c47-47,94.3-94.3,141-141c-52,0-104.8,0-157.7,0c0.8,1.3,1.3,2.3,1.5,3.2
					c3.5,9,7.5,17.8,10.5,27c3.8,11.5,4.8,23.5,4.8,35.8C224.8,216.8,224.8,242,224.8,266.5z"/>
				<path fill="#9D1C20" d="M444.5,369.8c-11-20.3-16-42-16-65c0-21.8,0-43.5,0-65.5v-2.8c-45.3,45.3-90.8,90.8-135.8,135.8h152.8
					C445.3,371,444.8,370.3,444.5,369.8z"/>
				<path fill="#9D1C20" d="M450,96.8c-4.5,2.3-8.3,4.5-12.5,6c-2,0.7-4.8,0.7-6.5,0c-5-2-10-4.8-14.8-7.3c-2.3-1.3-4.3-1.5-6.8,0
					c-4.3,2.5-9,4.5-13.5,6.8c-3.3,1.8-6,2-9.5,0c-4.7-2.7-9.7-5-14.7-7.3c-1.3-0.5-3-0.5-4.3,0c-5.3,2.5-10.5,5-15.5,7.8
					c-2.5,1.5-5,1.5-7.5,0c-5-2.8-10.3-5.3-15.5-7.8c-1.3-0.5-3-0.5-4.3,0c-5.3,2.5-10.8,5.3-16,7.8c-2.5,1.3-4.5,1.3-7,0
					c-5-2.8-10.3-5-15.3-7.8c-1.8-1-3.3-1.3-5.3,0c-4.8,2.8-9.8,4.8-14.5,7.5c-3,1.5-5.5,1.8-8.5,0c-5-2.8-10-5.3-15.3-7.8
					c-1-0.5-2.7-0.5-4,0c-5.3,2.5-10.5,5-15.5,7.8c-2.8,1.5-5.3,1.5-8,0c-3.8-2-8-4-12-6c0,6.3,0,12,0,17.7c82.5,0,164.5,0,246.5,0
					C450,108.5,450,102.8,450,96.8z"/>
				<path fill="#9D1C20" d="M203.5,383.3c0,6,0,11.8,0,17.8c4-2,7.8-3.8,11.3-5.8c3.3-1.7,6-1.7,9,0c4.5,2.5,9.5,4.8,14,7.3
					c2,1,3.8,1.3,5.8,0c5-2.8,10-5.5,15.3-7.5c2-0.8,4.8-0.8,6.5,0c5.5,2.3,10.8,5.3,16.3,8c1,0.5,2.8,0.5,4,0
					c5.3-2.5,10.5-5,15.5-7.8c2.7-1.5,5.2-1.5,8,0c5,2.5,10,5,15,7.5c2,1,3.5,1,5.3,0c5-2.5,10-5,15-7.5c2.5-1.5,5-1.5,7.5,0
					c5,2.8,10.3,5,15.3,7.8c1.8,1,3.3,1,5,0c5.3-2.8,10.5-5.3,15.5-7.8c2.5-1.3,4.5-1.3,7,0c5.3,2.8,10.5,5.5,16,7.8
					c1.3,0.5,3,0.5,4.3,0c5-2.3,10-4.8,15-7.5c3-1.8,5.8-1.5,8.8,0c3.8,2,7.5,3.8,11.5,5.8c0-6.3,0-12,0-17.8
					C367.5,383.3,285.5,383.3,203.5,383.3z"/>
				<path fill="#9D1C20" d="M315.8,244.3c2.5,4,5.3,8,7.8,11.7c2-2,4-3.8,6-5.8c-4.3-2.7-8-5.5-12-8c-0.5-0.3-1.3-0.3-2-0.5
					C315.5,242.8,315.3,243.8,315.8,244.3z"/>
				<path fill="#9D1C20" d="M274.5,372.3c1.3,0,2.5-0.8,3.3-1.8c49.8-49.8,99.5-99.5,149-149.3c1-1,1.5-2.8,1.8-4
					c0.3-8.8,0-17.8,0-26.5c0-22,5.3-43,15.5-62.5c0.5-0.7,0.8-1.7,1.3-2.7c-0.5-0.3-0.8-0.3-1.3-0.3c-20,0-40,0-60,0
					c-1.3,0-2.8,1-3.5,1.8c-51.5,51.2-102.8,102.8-154,154.3c-1,1-1.7,3-1.7,4.5c-0.3,6.8,0,13.8,0,20.5c0,22.3-5.3,43-15.5,62.7
					c-0.5,0.8-0.8,1.8-1.3,2.5c0.5,0.3,0.8,0.3,0.8,0.3C230.5,372.3,252.5,372.3,274.5,372.3z M357,185.5c5,5,9.8,9.8,15.5,15.5
					c1.8-2,3-3.5,4.3-5.3c1.8-2.7,1.3-5-1-7.3c-3.5-3.5-7.2-7-10.8-10.3c2.8-2.7,5-5.2,7.8-7.7c5.5,6.7,14.5,11,15.8,21.5
					c10.5,1,14.5,10.3,21.5,15.8c-2.8,2.8-5,5-8,8c-3-3-6-6.3-9-9.5c-4.5-4.5-6.5-4.5-11,0c-0.5,0.5-1,1.3-1.8,1.7
					c5,4.8,10.3,9.8,15.5,14.5c-3.3,3.3-5.5,5.8-7.8,8c-13-12.7-25.5-25.5-38-38C352,190.3,354.5,188,357,185.5z M327,215.3
					c4.8-5,9.5-9.8,14.5-14.5c2.8-2.7,5.5-2.7,8.3-0.2c3.8,3.5,7.2,7.3,11,11c-2.8,2.5-5,5-8,7.8c-2.2-2.5-4.5-5-6.7-7.8
					c-2.5,2.8-4.8,5.3-6.8,7.5c7.2,7.3,14.7,14.5,22,21.7c1.8-1.7,4.3-4.2,6.8-7c-2-2-4.7-4.3-7.2-6.5c3-3,5.5-5.3,8.3-8
					c3.8,3.8,7.5,7.5,11,11.5c2.3,2.3,2,5.3-0.3,7.5c-5,5-9.8,10-15,15c-2.5,2.5-5.5,2.5-8-0.2c-10-9.8-19.7-19.8-29.7-29.5
					C324.5,220.8,324.5,218,327,215.3z M304.8,237.5c2.3-2.3,4.5-4.5,6.8-6.8c2-2,4.3-2.3,6.8-1c12,6.3,29,20,38.7,31
					c-2.5,2.5-4.7,4.8-7.5,7.5c-3.5-4-7-7.8-10.3-11.5c-3,3-5.5,5.5-8,8c3.5,3.3,7.2,6.8,10.8,10.3c-3,2.8-5.5,5-8.3,7.8
					c-5.3-5.8-11.3-11.8-16.8-18.3c-4.8-6-8.5-12.5-12.8-18.8C301.5,242.5,301.8,240.5,304.8,237.5z M276.3,267.3
					c1.3-0.3,3,0,4.3,0.5c6.3,2,12.3,4,18.5,6c1,0.3,2,0.5,3.8,1.3c-6.3-6.3-12-11.8-17.5-17.5c2.8-2.8,5-5,7.5-7.8
					c0.8,0.5,1.3,1,1.8,1.5c10.3,10.3,20.8,20.8,31,31c0.5,0.5,1,1,1.5,1.5c1.8,2,2,4.3,0.5,6.5s-3.5,3-6,2.3
					c-6.5-2.3-13.3-4.3-19.8-6.5c-1-0.3-2-0.8-4-1.3c6.3,6.3,12,12,17.8,17.8c-2.5,2.8-5,5-7.5,7.5c-0.5-0.3-1-0.5-1.3-1
					c-10.8-10.8-21.5-21.5-32.3-32.3C270.8,273.3,271.8,268.3,276.3,267.3z M247.8,294.5c4.5-4.5,9.3-9.3,13.8-13.8c3.3-3,5.8-3,9,0
					c2.3,2.3,4.5,4.3,7,6.8c-3,2.5-5.5,4.8-8.3,7.3c-0.8-0.8-2-1.8-3.3-3c-2.5,2.5-4.8,4.8-7.3,7.3c2.5,2.3,5,4.8,8,7.3
					c2.8-2.8,6-6.3,9.3-9.5c3.8-3.8,6.3-3.8,10,0c4.5,4.5,9,8.8,13.3,13.3c3,3.3,3.3,5.8,0,9c-4.5,4.8-9.3,9.3-13.8,13.8
					c-3.3,3.3-5.8,3.3-9,0c-2-2-4-4-6-6c-0.3-0.3-0.5-0.5-0.8-1c2.5-2.3,5-4.5,7.8-7c0.8,0.8,2,1.8,3.3,3c2.5-2.5,5-5,7.3-7.5
					c-2.3-2.3-4.8-4.5-7.5-7.3c-3.3,3.3-6.5,6.5-10,10c-3.8,3.8-6.3,3.8-10,0c-4.5-4.5-9-8.8-13.3-13.3
					C244.5,300.3,244.5,297.8,247.8,294.5z"/>
			</g>
		</g>
	</g>
	<g>
		<path fill="#9D1C20" d="M173,181.5c1.3,4.8,2.5,9.2,3.8,14.2c-15.8,4-31.5,7.8-47,11.8c0,6.7,0,13.3,0,19.8c21.5,0,43,0,64.5,0
			c0,10.8,0,21.5,0,32.3c-48,0-96,0-144.3,0c0-10.8,0-21.3,0-32.3c21.5,0,43,0,64.5,0c0-10.5,0-21,0-31.5c10.5-2.5,20.8-5,31.3-7.5
			c8.3-2,16.8-4,25-6c0.5,0,0.8-0.3,1.3-0.5C172.3,181.5,172.5,181.5,173,181.5z"/>
		<path fill="#9D1C20" d="M59.8,271.8c41.3,0,82.3,0,123.8,0c-0.5,4.3-1,8.3-1.7,12.3c-2.5,18-5,36-7.8,54.3c-2.5,18-5,36-7.8,54
			c-1.3,9-7,13.5-16.3,13.8c-19.3,0-38.5,0-57.5,0c-8.8,0-14.7-4.8-16-13.5c-2.5-17.2-5-34.2-7.3-51.5c-2.5-18.3-5.3-36.5-7.8-54.5
			C61.3,281.3,60.5,276.5,59.8,271.8z"/>
	</g>
</g>
</svg>
