<?xml version="1.0" encoding="utf-8"?>
<!-- Generator: Adobe Illustrator 18.0.0, SVG Export Plug-In . SVG Version: 6.00 Build 0)  -->
<!DOCTYPE svg PUBLIC "-//W3C//DTD SVG 1.1//EN" "http://www.w3.org/Graphics/SVG/1.1/DTD/svg11.dtd">
<svg version="1.1" id="Layer_1" xmlns="http://www.w3.org/2000/svg" xmlns:xlink="http://www.w3.org/1999/xlink" x="0px" y="0px"
	 viewBox="58 58 384 384" enable-background="new 58 58 384 384" xml:space="preserve">
<g>
	<path fill="#9D1C20" d="M261,62.5c7,1,14.3,1.8,21.3,3c43.3,7.8,79.5,28.3,108.5,61c26.5,30,42,65,45.8,104.8
		c4.8,48.5-7.5,92.5-36.7,131.3c-28,37-64.8,61-110.3,70.5c-56.3,11.8-107.8,0.3-153.3-34.5c-36.8-28-59.8-65-69.5-110.3
		c-1.8-7.8-2.3-15.8-3.3-23.5c-0.3-1.3-0.5-2.5-0.7-4c0-7.3,0-14.8,0-22c0.3-2.8,0.5-5.3,1-8c4.5-40.2,20-76,47-106
		c29-32,64.8-52,107.3-59.5c7-1.3,14.3-2,21.3-3C246.3,62.5,253.8,62.5,261,62.5z M423.5,250c0-95.5-77.8-173.5-173.5-173.8
		c-95.5,0-173.5,77.8-173.8,173.5c0,95.5,77.7,173.5,173.5,173.8C345.5,423.5,423.5,345.8,423.5,250z"/>
	<path fill="#9D1C20" d="M291,157.8c-3.8,0-6.8,0-10,0c-1,8.3-2.3,16.5-3,24.8c-2,21.3-4,42.5-5.5,63.8c-0.5,7.8-0.3,15.5-0.5,23.5
		c-0.5,10.8,4.3,19,12.5,25c6.3,4.3,13.3,7.8,19.8,11.5c0.3-0.3,0.5-0.5,0.8-1c0,1.3,0,2.5,0,3.5c-1.5,29.5-3,59-4.5,88.5
		c0,2-0.8,2.8-2.5,3.3c-27.5,8.5-55,10-83,3.5c-2-0.5-2.7-1.3-2.7-3.3c-1.3-24.7-2.5-49.5-3.8-74.3c-0.5-9.8-1-19.5-1.5-29.2
		c1.3-0.5,2-1,3-1.3c19.3-5.3,30.3-19,36.8-36.8c6-16.8,8-34,3.5-51.5c-4.5-18-14.2-32.8-30.3-43c-16.5-10.5-33.3-9.8-48.8,2
		c-19,14.3-28.8,33.3-29.5,56.5c-0.5,17.3,2.8,34,12,49c6.5,11,15.5,19,28,22.8c1.5,0.5,3,1,4.5,1.5c0.3,0,0.5,0.3,0.8,0.5
		c-1.7,31.5-3.3,63-5,94.5c-42-17.5-92.3-71-90-146.5c2.3-79,62.3-142,136.5-152C311,81.7,383.8,135,403,209.5
		c19.7,76-19,146.3-73.5,176.5c-0.3-4-0.5-8-0.8-12c-1.3-22-2.2-44.2-3.5-66.3c-0.3-2.3,0.8-3.3,2.8-3.8c8.5-2.3,15.5-7,21.8-13
		c5.8-5.5,9-12,8.5-19.8c-1-21-1.8-42-3.3-62.7c-1.3-17-3.5-33.8-5.5-50.8c-2.5,0-5,0-7.8,0c0,35.3,0,70.5,0,105.8
		c-3.5,0-6.5,0-9.7,0c0-35.3,0-70.5,0-105.8c-3.8,0-7.3,0-11,0c0,35.3,0,70.3,0,105.8c-3.3,0-6.3,0-9.8,0c0-35.3,0-70.5,0-105.8
		c-3.8,0-7,0-10.8,0c0,35.3,0,70.5,0,105.8c-3.3,0-6.3,0-9.8,0C291,228.5,291,193.3,291,157.8z"/>
	<path fill="#9D1C20" d="M152,234.3c0.5-8.8,2.8-19.8,9.3-29.3c0.8-1,2.3-1.8,3.5-2.5c0.3,1.5,1,3,0.5,4.3c-7.3,27-1.5,51.3,15.5,73
		c0.8,0.8,0.8,2,1.3,3c-1.3,0-2.7,0.5-3.5,0c-4.2-3-8.8-6-12.3-9.5C158,265.3,151.8,248.3,152,234.3z"/>
</g>
</svg>
