<?xml version="1.0" encoding="utf-8"?>
<!-- Generator: Adobe Illustrator 18.0.0, SVG Export Plug-In . SVG Version: 6.00 Build 0)  -->
<!DOCTYPE svg PUBLIC "-//W3C//DTD SVG 1.1//EN" "http://www.w3.org/Graphics/SVG/1.1/DTD/svg11.dtd">
<svg version="1.1" id="Layer_1" xmlns="http://www.w3.org/2000/svg" xmlns:xlink="http://www.w3.org/1999/xlink" x="0px" y="0px"
	 viewBox="0 0 500 500" enable-background="new 0 0 500 500" xml:space="preserve">
<g>
	<g>
		<path fill="#9C1C20" d="M144.5,333.3c13.7-0.4,28.5-3.9,38.9-4.2c3.5-0.1,6.7,0.4,9.5,1.3c3.3,0.3,6.6,0.6,10,0.6
			c4.4,0.1,8.7,0,13.1-0.1c3.6-0.1,7.3-0.3,10.9-0.5c2.2-0.2,4.4-0.8,6.6-0.9c4.9-0.2,9.9-0.3,14.8-0.4c5.9-0.1,11.9-0.2,17.8-0.4
			c2.7-0.1,5.5-0.6,8.2-0.5c6.7,0.2,13.4,0.5,20.1,0.9c4.2,0.3,8.5,0.8,12.7,1.4c7,1,13.9,2.2,21,3.1c3.5,0.4,7,0.4,10.6,0.4
			c1.4,0,3-0.1,3.8-1.6c2.7,0.4,4.7,0.1,5.2-2.1c0.2,0,0.4,0,0.5,0c4.2,0.3,8.3,0.3,12.5-0.2c2.4-0.3,4.8-0.8,6.9-2.1
			c3.2-2,3.2-5.9,0-7.9c-0.3-0.2-0.6-0.4-0.9-0.6c4.9-5.6,9.5-11.4,13.6-17.5c0.1-0.2,0.4-0.4,0.6-0.4c1.2,0,1.9-0.7,2.5-1.5
			c2-2.6,3.7-5.3,4.7-8.5c0.2-0.5,0.2-1,0.5-1.5c1.4-1.9,2.8-3.9,4.2-5.8c0.8-1.1,1.7-2.1,2.6-3.2c0.1-0.1,0.1-0.3,0.2-0.4
			c0.7-1.2,1.4-2.4,1.6-3.9c0.1-1.3,0.6-2.5,0.8-3.8c0.4-2.6-0.5-5.2-0.6-7.8c0-0.1-0.1-0.1-0.1-0.2c-0.4-1-0.9-2-1.3-3
			c-0.9-2.2-1.9-4.4-2.8-6.5c-0.1-0.3-0.4-0.6-0.5-1c-0.5-1.4-1-2.8-1.5-4.2c-0.5-1.3-1.4-2.5-1.7-3.9c-0.6-2.4-2-4.3-3.4-6.2
			c-1.4-1.8-3-3.5-4.6-5.1c-0.8-0.8-1.7-1.4-2.6-2.1c-1.4-1.1-2.8-2.3-4.3-3.3c-1.3-0.9-2.8-1.7-3.8-3c-0.2-0.2-0.4-0.3-0.7-0.5
			c-1.6-1.2-3.2-2.4-4.8-3.5c-0.9-0.7-1.9-1.4-2.8-2.2c-1.1-0.9-2.2-1.7-3.3-2.6c-0.9-0.7-1.8-1.5-2.8-2.2c-1.4-1-2.9-2-4.3-3
			c-0.9-0.7-1.8-1.5-2.7-2.2c-0.8-0.6-1.6-1.3-2.4-2c-0.4-0.4-0.6-1-1-1.4c-1.5-1.3-2.3-3-3.3-4.6c-0.4-0.7-0.9-1.4-1.1-2.1
			c-0.4-1.3-0.7-2.7-1.1-4.1c-0.2-0.6-0.3-1.3-0.4-1.9c-0.3-0.9-0.7-1.7-0.9-2.6c-0.4-1.5-0.7-2.9-1-4.4c-0.4-1.6-0.8-3.1-1.2-4.6
			c-0.1-0.5-0.4-1-0.5-1.5c-0.3-1.2-0.6-2.3-0.8-3.5c-0.2-0.9-0.4-1.8-0.7-2.6c-0.2-0.8-0.5-1.7-0.8-2.5c-0.2-0.8-0.5-1.7-0.7-2.5
			c-0.4-1.6-0.7-3.3-1.1-5c-0.1-0.6-0.1-1.3-0.4-1.8c-0.9-1.6-1.1-3.5-1.3-5.3c-0.1-1.8,0.2-3.5,0.3-5.3c0-0.1,0.1-0.3,0.1-0.4
			c0.1-0.5,0.4-1,0.4-1.6c0-3-0.1-6,0.1-9c0.1-1.7-0.4-3.1-1.3-4.5c-0.8-1.3-1.3-2.8-1.5-4.4c-0.2-1.2,0-2.4-0.5-3.7
			c-0.4-1.3-0.3-2.8-0.6-4.2c-0.4-2,0.2-4.1-0.4-6.1c-0.3-1.1-0.4-2.3-0.7-3.5c-0.1-0.6-0.3-1.2-0.6-1.7c-0.6-0.9-1.4-1.7-2.1-2.5
			c-0.6-0.7-1.4-1-2.3-1c-1.9,0-3.7,0-5.6,0c-0.3,0-0.7-0.1-1-0.2c-0.5-0.1-1-0.3-1.5-0.4c-2.8-0.2-5.6-0.3-8.4-0.4
			c-0.2,0-0.4-0.1-0.5-0.1c-1.5-0.7-2.9-1.4-4.4-2c-0.9-0.3-1.7-0.7-2.4-1.4c-0.5-0.5-1.3-0.9-1.9-1.3c-1-0.6-2.1-1.2-3.1-1.8
			c-0.7-0.4-1.4-0.8-2.1-1.2c-0.4-0.3-0.9-0.5-1.3-0.8c-0.3-0.2-0.6-0.6-1-0.8c-1-0.3-2-0.8-3-0.8c-1.9,0-3.2-0.8-4.5-2.1
			c-0.9-0.9-2.2-1.4-3.5-1.7c-1.4-0.4-2.8-0.4-4.1-0.5c-0.2,0-0.4-0.3-0.6-0.4c-0.8-0.5-1.6-1-2.4-1.5c-0.5-0.3-1.3-0.6-1.4-1.1
			c-0.2-0.9-0.3-2,0-2.8c0.5-1.4,0.8-2.7,0.8-4.2c0-0.3,0.1-0.6,0.2-0.9c0.1-0.4,0.3-0.9,0.3-1.3c0-0.7,0.3-1.1,0.7-1.6
			c0.7-0.9,1.4-1.9,1.7-2.9c0.5-1.7,0.7-3.5,1-5.2c0-0.1,0.1-0.2,0.1-0.3c0.4-1.4,1-2.8,1.3-4.2c0.3-1.6,0.3-3.2,0.4-4.7
			c0.1-1.6,0-3.3,0-4.9c0-1.1-0.9-2-2-2.3c-0.3-0.1-0.6-0.3-0.7-0.5c-0.3-1.1-0.5-2.2-0.6-3.3c-0.1-0.8,0-1.5,0-2.3
			c-0.1-2.6-0.2-5.2-0.4-7.8c0-0.2-0.1-0.4-0.1-0.5c-0.3-0.8-0.8-1.7-0.9-2.5c-0.1-1.3-0.5-2.4-1-3.5c-0.8-1.8-1.7-3.4-3.1-4.8
			c-1.3-1.2-2.5-2.5-3.8-3.6c-1.1-1.1-2.3-2.1-3.5-3.1c-0.5-0.4-1-0.9-1.6-1.1c-2.1-0.8-4-2.2-6.3-2.6c-0.5-0.1-1-0.3-1.5-0.5
			c-0.8-0.2-1.7-0.7-2.5-0.7c-3.2-0.1-6.4,0-9.6,0c-0.4,0-0.8,0.1-1.2,0.2c-0.7,0.2-1.4,0.5-2.2,0.7c-0.8,0.2-1.6,0.4-2.3,0.7
			c-1.2,0.5-2.3,1.1-3.4,1.7c-1.6,1-3.2,2-4.7,3.1c-0.8,0.6-1.6,1.4-2.4,2c-0.5,0.4-1,0.7-1.4,1.1c-0.7,0.8-1.2,1.8-1.9,2.4
			c-1.1,1-1.6,2.2-2.4,3.4c-1.9,2.7-2.4,5.9-3.3,8.9c-0.4,1.4-0.3,3-0.4,4.5c0,0.5,0.1,1,0,1.5c-0.4,1.2-0.4,2.3,0,3.5
			c0.2,0.7,0,1.6,0,2.4c0,0.6-0.2,0.9-0.7,1.2c-1.4,0.9-2.5,2.2-2.6,3.9c-0.1,3.1-0.3,6.3,0.8,9.4c0.6,1.7,1.1,3.5,1.7,5.3
			c0.2,0.6,0.2,1.1,0.4,1.7c0.2,0.8,0.6,1.7,0.8,2.5c0.3,1.2,0.7,2.2,1.9,2.8c0.3,0.1,0.5,0.6,0.6,0.9c0.3,1.1,0.3,2.2,0.7,3.3
			c0.4,1.2,0.9,2.4,1.4,3.6c0.8,1.9,1.6,3.7,2.4,5.6c0.5,1.2-0.2,2.7-1.5,3c-1.2,0.3-2.4,0.8-3.5,1.1c-1.8,0.6-3.5,1.1-5.3,1.7
			c-0.5,0.2-1.1,0.5-1.6,0.5c-2.2,0.3-4,1.4-6,2.2c-1.3,0.5-2.7,1-4,1.5c-0.2,0.1-0.4,0.1-0.6,0.2c-1.3,0.6-2.5,1.3-3.9,1.8
			c-1.5,0.6-3,1.1-4.5,1.6c-1.2,0.4-2.4,0.7-3.5,1.2c-1.2,0.5-2.5,1.1-3.7,1.6c-0.8,0.4-1.7,0.7-2.4,1.2c-1.1,0.8-2.1,1.6-3.1,2.6
			c-1.1,1.2-2.1,2.4-3.1,3.7c-0.8,1.2-1.5,2.4-2.3,3.7c-0.7,1.2-1.4,2.3-2,3.5c-0.7,1.3-1.1,2.7-1.7,4.1c-0.5,1.1-0.9,2.2-1.4,3.4
			c-0.2,0.7-0.4,1.3-0.6,2c-0.2,0.8-0.5,1.5-0.7,2.3c-0.2,1-0.4,1.9-0.7,2.9c-0.3,1.2-0.6,2.3-0.8,3.5c-0.1,0.2,0,0.5-0.1,0.7
			c-0.3,1.3-0.6,2.6-0.8,3.9c-0.3,1.6-0.4,3.1-0.6,4.7c0,0.1-0.1,0.2-0.1,0.3c-0.1,0.5-0.3,1-0.4,1.6c-0.1,0.3,0,0.6-0.1,0.9
			c-0.3,1.4-0.6,2.7-0.8,4.1c-0.2,1.4-0.3,2.9-0.4,4.3c0,0.1,0,0.2-0.1,0.4c-0.2,0.7-0.3,1.5-0.5,2.2c-0.2,1.3-0.4,2.6-0.6,3.9
			c-0.3,1.4-0.6,2.7-0.8,4.1c-0.2,1.4-0.3,2.9-0.4,4.3c0,0.2-0.1,0.3-0.2,0.5c-0.1,0.5-0.3,0.9-0.4,1.4c-0.2,1.1-0.3,2.3-0.4,3.5
			c0,0.1-0.1,0.2-0.1,0.3c-0.3,1-0.7,1.9-0.9,2.9c-0.4,1.5-0.8,2.9-1.1,4.4c-0.1,0.6-0.1,1.3-0.3,1.9c-0.3,0.9-0.7,1.7-1,2.6
			c-0.4,1.3-0.7,2.7-1,4.1c-0.3,1.7-1.4,2.9-2.3,4.2c-0.7,1.2-1.9,2.1-2.7,3.3c-1,1.4-1.9,2.8-2.8,4.2c-1,1.5-2.1,2.9-3,4.5
			c-0.9,1.5-1.7,3.1-2.4,4.7c-0.9,2.1-1.8,4.2-2.6,6.3c-0.7,1.9-1.4,3.7-2,5.6c-0.2,0.7-0.2,1.5-0.5,2.2c-0.4,1.3-0.9,2.5-1.4,3.7
			c-0.2,0.5-0.3,1.2-0.6,1.6c-1.1,1.4-1.1,3.2-1.8,4.8c-0.3,0.7-0.3,1.8-0.8,2.2c-1.1,0.9-2.3,1.5-3.9,1.5c-3.1-0.1-6.2-0.1-9.4,0
			c-1.3,0-2.6,0.4-3.8,0.6c-0.1,0-0.1,0.1-0.2,0.1c-2.5,1-4,3.1-5.4,5.2c-1,1.5-1.4,3.3-2,5c-0.4,1.2-0.5,2.5-1.1,3.5
			c-0.7,1.2,0,1.6,0.5,2.4c1.1,1.5,2.9,2.9,1.5,5.2c-0.1,0.1,0,0.2,0,0.4c0,1.7,0.5,3.3,1.7,4.6c0.6,0.7,0.9,1.3,0.5,2.2
			c-0.3,0.6-0.2,1.5,0.1,2.1c0.7,1.5,1.6,3,2.3,4.5c0.3,0.7,0.6,1.4,0.8,2.2c0.1,0.6,0.1,1.3,0,2c-0.2,5.1,0.2,10.1,1.8,14.9
			C111.4,305.9,114.4,332.7,144.5,333.3z M188.1,200.4c-0.1,1.6-0.2,3.2-0.4,4.7c-0.2,1.1-0.6,2.2-1,3.3c0,0.1-0.1,0.2-0.1,0.3
			c-0.1,1.3-0.2,2.6-0.4,3.8c-0.1,0.5-0.3,1-0.4,1.6c0,0.2-0.1,0.3-0.1,0.5c-0.1,1.3-0.2,2.6-0.4,3.8c-0.2,1.3-0.7,2.7-1,4
			c-0.1,0.3,0,0.7-0.1,1c-0.7,2.2-1.6,4.3-3,6.2c-0.6,0.8-1.1,1.8-1.7,2.7c-0.5,0.7-1.2,1.3-1.8,1.9c-2.1,1.9-4.6,3.2-7,4.7
			c-0.3,0.2-0.8,0.2-1.2,0.2c-1.1,0-2.1,0.2-3.1,0.8c-0.5,0.3-1.1,0.3-1.6,0.5c-1.3,0.6-2.6,1.2-3.9,1.8c-0.8,0.3-1.6,0.5-2.4,0.7
			c-0.2,0-0.7-0.2-0.8-0.4c-0.1-0.3-0.1-0.8,0.1-1.1c0.9-1.3,1.9-2.5,2.8-3.8c0.8-1.1,1.5-2.4,2.3-3.5c1-1.5,2.1-2.9,3.2-4.4
			c0.9-1.2,1.7-2.5,2.6-3.8c0.6-0.8,1.3-1.5,1.7-2.4c0.9-1.8,1.6-3.6,2.5-5.4c0.8-1.6,0.5-3.4,1-4.9c0.6-1.8,0-3.7,0.8-5.4
			c0.1-0.1,0.1-0.3,0-0.5c-0.1-1.6,0.5-3,1-4.5c0.2-0.6,0.4-1.3,0.4-2c0.1-1.7,0.9-3.1,1.4-4.7c0.4-1.1,0.7-2.3,1.1-3.4
			c0.3-1,0.7-2,1.1-2.9c0.7-1.6,1.5-3.3,2.2-4.9c0.2-0.5,0.4-1,0.7-1.4c0.4-0.6,1.2-0.5,1.6,0.1c1.3,1.7,1.8,3.7,2.6,5.6
			c1.2,3,1.5,6,1.4,9.1C188.1,199.1,188.1,199.7,188.1,200.4z M354.7,247.4c-0.1,0.7-0.6,0.7-1.2,0.7c-2.1,0-4.3,0-6.4,0
			c-1.8,0-3.6-0.1-5.4,0c-1.3,0.1-2.5,0.5-3.8,0.8c-1,0.2-2,0.4-3,0.7c-1.3,0.3-2.5,0.6-3.8,0.9c-0.1,0-0.2,0-0.3,0
			c-3.1,0.1-6.2,0.3-9.3,0.4c-1.1,0-1.1-1-1.3-1.6c-0.5-1.2-0.4-2.5-0.7-3.6c-0.9-3.4-0.2-6.7-0.5-10.1c-0.2-3.2,0.1-6.4-0.5-9.6
			c-0.4-2.2-0.2-4.3-0.4-6.5c-0.1-1.2-0.3-2.4-0.3-3.5c0-0.4,0.3-0.9,0.6-1.1c0.5-0.3,1,0,1.2,0.6c0.7,1.5,1.5,2.9,2.1,4.4
			c0.5,1.3,0.7,2.7,1.2,4.1c0.3,0.9,0.8,1.8,1.3,2.6c0.4,0.7,1,1.4,1.6,2c1,1.1,1.9,2.2,3,3.1c1.5,1.3,3.1,2.5,4.7,3.7
			c1.3,1,2.7,2,4.1,2.9c1.2,0.8,2.5,1.5,3.7,2.1c1.6,0.8,3.3,1.5,5,2.2c0.6,0.3,1.3,0.6,1.9,0.9c1.3,0.6,2.6,1.3,3.9,1.9
			c0.5,0.2,1,0.4,1.6,0.5C354.7,246.3,354.8,246.8,354.7,247.4z"/>
		<path fill="#9C1C20" d="M144.5,333.3c13.7-0.4,28.5-3.9,38.9-4.2c3.5-0.1,6.7,0.4,9.5,1.3c3.3,0.3,6.6,0.6,10,0.6
			c4.4,0.1,8.7,0,13.1-0.1c3.6-0.1,7.3-0.3,10.9-0.5c2.2-0.2,4.4-0.8,6.6-0.9c4.9-0.2,9.9-0.3,14.8-0.4c5.9-0.1,11.9-0.2,17.8-0.4
			c2.7-0.1,5.5-0.6,8.2-0.5c6.7,0.2,13.4,0.5,20.1,0.9c4.2,0.3,8.5,0.8,12.7,1.4c7,1,13.9,2.2,21,3.1c3.5,0.4,7,0.4,10.6,0.4
			c1.4,0,3-0.1,3.8-1.6c2.7,0.4,4.7,0.1,5.2-2.1c0.2,0,0.4,0,0.5,0c4.2,0.3,8.3,0.3,12.5-0.2c2.4-0.3,4.8-0.8,6.9-2.1
			c3.2-2,3.2-5.9,0-7.9c-0.3-0.2-0.6-0.4-0.9-0.6c4.9-5.6,9.5-11.4,13.6-17.5c0.1-0.2,0.4-0.4,0.6-0.4c1.2,0,1.9-0.7,2.5-1.5
			c2-2.6,3.7-5.3,4.7-8.5c0.2-0.5,0.2-1,0.5-1.5c1.4-1.9,2.8-3.9,4.2-5.8c0.8-1.1,1.7-2.1,2.6-3.2c0.1-0.1,0.1-0.3,0.2-0.4
			c0.7-1.2,1.4-2.4,1.6-3.9c0.1-1.3,0.6-2.5,0.8-3.8c0.4-2.6-0.5-5.2-0.6-7.8c0-0.1-0.1-0.1-0.1-0.2c-0.4-1-0.9-2-1.3-3
			c-0.9-2.2-1.9-4.4-2.8-6.5c-0.1-0.3-0.4-0.6-0.5-1c-0.5-1.4-1-2.8-1.5-4.2c-0.5-1.3-1.4-2.5-1.7-3.9c-0.6-2.4-2-4.3-3.4-6.2
			c-1.4-1.8-3-3.5-4.6-5.1c-0.8-0.8-1.7-1.4-2.6-2.1c-1.4-1.1-2.8-2.3-4.3-3.3c-1.3-0.9-2.8-1.7-3.8-3c-0.2-0.2-0.4-0.3-0.7-0.5
			c-1.6-1.2-3.2-2.4-4.8-3.5c-0.9-0.7-1.9-1.4-2.8-2.2c-1.1-0.9-2.2-1.7-3.3-2.6c-0.9-0.7-1.8-1.5-2.8-2.2c-1.4-1-2.9-2-4.3-3
			c-0.9-0.7-1.8-1.5-2.7-2.2c-0.8-0.6-1.6-1.3-2.4-2c-0.4-0.4-0.6-1-1-1.4c-1.5-1.3-2.3-3-3.3-4.6c-0.4-0.7-0.9-1.4-1.1-2.1
			c-0.4-1.3-0.7-2.7-1.1-4.1c-0.2-0.6-0.3-1.3-0.4-1.9c-0.3-0.9-0.7-1.7-0.9-2.6c-0.4-1.5-0.7-2.9-1-4.4c-0.4-1.6-0.8-3.1-1.2-4.6
			c-0.1-0.5-0.4-1-0.5-1.5c-0.3-1.2-0.6-2.3-0.8-3.5c-0.2-0.9-0.4-1.8-0.7-2.6c-0.2-0.8-0.5-1.7-0.8-2.5c-0.2-0.8-0.5-1.7-0.7-2.5
			c-0.4-1.6-0.7-3.3-1.1-5c-0.1-0.6-0.1-1.3-0.4-1.8c-0.9-1.6-1.1-3.5-1.3-5.3c-0.1-1.8,0.2-3.5,0.3-5.3c0-0.1,0.1-0.3,0.1-0.4
			c0.1-0.5,0.4-1,0.4-1.6c0-3-0.1-6,0.1-9c0.1-1.7-0.4-3.1-1.3-4.5c-0.8-1.3-1.3-2.8-1.5-4.4c-0.2-1.2,0-2.4-0.5-3.7
			c-0.4-1.3-0.3-2.8-0.6-4.2c-0.4-2,0.2-4.1-0.4-6.1c-0.3-1.1-0.4-2.3-0.7-3.5c-0.1-0.6-0.3-1.2-0.6-1.7c-0.6-0.9-1.4-1.7-2.1-2.5
			c-0.6-0.7-1.4-1-2.3-1c-1.9,0-3.7,0-5.6,0c-0.3,0-0.7-0.1-1-0.2c-0.5-0.1-1-0.3-1.5-0.4c-2.8-0.2-5.6-0.3-8.4-0.4
			c-0.2,0-0.4-0.1-0.5-0.1c-1.5-0.7-2.9-1.4-4.4-2c-0.9-0.3-1.7-0.7-2.4-1.4c-0.5-0.5-1.3-0.9-1.9-1.3c-1-0.6-2.1-1.2-3.1-1.8
			c-0.7-0.4-1.4-0.8-2.1-1.2c-0.4-0.3-0.9-0.5-1.3-0.8c-0.3-0.2-0.6-0.6-1-0.8c-1-0.3-2-0.8-3-0.8c-1.9,0-3.2-0.8-4.5-2.1
			c-0.9-0.9-2.2-1.4-3.5-1.7c-1.4-0.4-2.8-0.4-4.1-0.5c-0.2,0-0.4-0.3-0.6-0.4c-0.8-0.5-1.6-1-2.4-1.5c-0.5-0.3-1.3-0.6-1.4-1.1
			c-0.2-0.9-0.3-2,0-2.8c0.5-1.4,0.8-2.7,0.8-4.2c0-0.3,0.1-0.6,0.2-0.9c0.1-0.4,0.3-0.9,0.3-1.3c0-0.7,0.3-1.1,0.7-1.6
			c0.7-0.9,1.4-1.9,1.7-2.9c0.5-1.7,0.7-3.5,1-5.2c0-0.1,0.1-0.2,0.1-0.3c0.4-1.4,1-2.8,1.3-4.2c0.3-1.6,0.3-3.2,0.4-4.7
			c0.1-1.6,0-3.3,0-4.9c0-1.1-0.9-2-2-2.3c-0.3-0.1-0.6-0.3-0.7-0.5c-0.3-1.1-0.5-2.2-0.6-3.3c-0.1-0.8,0-1.5,0-2.3
			c-0.1-2.6-0.2-5.2-0.4-7.8c0-0.2-0.1-0.4-0.1-0.5c-0.3-0.8-0.8-1.7-0.9-2.5c-0.1-1.3-0.5-2.4-1-3.5c-0.8-1.8-1.7-3.4-3.1-4.8
			c-1.3-1.2-2.5-2.5-3.8-3.6c-1.1-1.1-2.3-2.1-3.5-3.1c-0.5-0.4-1-0.9-1.6-1.1c-2.1-0.8-4-2.2-6.3-2.6c-0.5-0.1-1-0.3-1.5-0.5
			c-0.8-0.2-1.7-0.7-2.5-0.7c-3.2-0.1-6.4,0-9.6,0c-0.4,0-0.8,0.1-1.2,0.2c-0.7,0.2-1.4,0.5-2.2,0.7c-0.8,0.2-1.6,0.4-2.3,0.7
			c-1.2,0.5-2.3,1.1-3.4,1.7c-1.6,1-3.2,2-4.7,3.1c-0.8,0.6-1.6,1.4-2.4,2c-0.5,0.4-1,0.7-1.4,1.1c-0.7,0.8-1.2,1.8-1.9,2.4
			c-1.1,1-1.6,2.2-2.4,3.4c-1.9,2.7-2.4,5.9-3.3,8.9c-0.4,1.4-0.3,3-0.4,4.5c0,0.5,0.1,1,0,1.5c-0.4,1.2-0.4,2.3,0,3.5
			c0.2,0.7,0,1.6,0,2.4c0,0.6-0.2,0.9-0.7,1.2c-1.4,0.9-2.5,2.2-2.6,3.9c-0.1,3.1-0.3,6.3,0.8,9.4c0.6,1.7,1.1,3.5,1.7,5.3
			c0.2,0.6,0.2,1.1,0.4,1.7c0.2,0.8,0.6,1.7,0.8,2.5c0.3,1.2,0.7,2.2,1.9,2.8c0.3,0.1,0.5,0.6,0.6,0.9c0.3,1.1,0.3,2.2,0.7,3.3
			c0.4,1.2,0.9,2.4,1.4,3.6c0.8,1.9,1.6,3.7,2.4,5.6c0.5,1.2-0.2,2.7-1.5,3c-1.2,0.3-2.4,0.8-3.5,1.1c-1.8,0.6-3.5,1.1-5.3,1.7
			c-0.5,0.2-1.1,0.5-1.6,0.5c-2.2,0.3-4,1.4-6,2.2c-1.3,0.5-2.7,1-4,1.5c-0.2,0.1-0.4,0.1-0.6,0.2c-1.3,0.6-2.5,1.3-3.9,1.8
			c-1.5,0.6-3,1.1-4.5,1.6c-1.2,0.4-2.4,0.7-3.5,1.2c-1.2,0.5-2.5,1.1-3.7,1.6c-0.8,0.4-1.7,0.7-2.4,1.2c-1.1,0.8-2.1,1.6-3.1,2.6
			c-1.1,1.2-2.1,2.4-3.1,3.7c-0.8,1.2-1.5,2.4-2.3,3.7c-0.7,1.2-1.4,2.3-2,3.5c-0.7,1.3-1.1,2.7-1.7,4.1c-0.5,1.1-0.9,2.2-1.4,3.4
			c-0.2,0.7-0.4,1.3-0.6,2c-0.2,0.8-0.5,1.5-0.7,2.3c-0.2,1-0.4,1.9-0.7,2.9c-0.3,1.2-0.6,2.3-0.8,3.5c-0.1,0.2,0,0.5-0.1,0.7
			c-0.3,1.3-0.6,2.6-0.8,3.9c-0.3,1.6-0.4,3.1-0.6,4.7c0,0.1-0.1,0.2-0.1,0.3c-0.1,0.5-0.3,1-0.4,1.6c-0.1,0.3,0,0.6-0.1,0.9
			c-0.3,1.4-0.6,2.7-0.8,4.1c-0.2,1.4-0.3,2.9-0.4,4.3c0,0.1,0,0.2-0.1,0.4c-0.2,0.7-0.3,1.5-0.5,2.2c-0.2,1.3-0.4,2.6-0.6,3.9
			c-0.3,1.4-0.6,2.7-0.8,4.1c-0.2,1.4-0.3,2.9-0.4,4.3c0,0.2-0.1,0.3-0.2,0.5c-0.1,0.5-0.3,0.9-0.4,1.4c-0.2,1.1-0.3,2.3-0.4,3.5
			c0,0.1-0.1,0.2-0.1,0.3c-0.3,1-0.7,1.9-0.9,2.9c-0.4,1.5-0.8,2.9-1.1,4.4c-0.1,0.6-0.1,1.3-0.3,1.9c-0.3,0.9-0.7,1.7-1,2.6
			c-0.4,1.3-0.7,2.7-1,4.1c-0.3,1.7-1.4,2.9-2.3,4.2c-0.7,1.2-1.9,2.1-2.7,3.3c-1,1.4-1.9,2.8-2.8,4.2c-1,1.5-2.1,2.9-3,4.5
			c-0.9,1.5-1.7,3.1-2.4,4.7c-0.9,2.1-1.8,4.2-2.6,6.3c-0.7,1.9-1.4,3.7-2,5.6c-0.2,0.7-0.2,1.5-0.5,2.2c-0.4,1.3-0.9,2.5-1.4,3.7
			c-0.2,0.5-0.3,1.2-0.6,1.6c-1.1,1.4-1.1,3.2-1.8,4.8c-0.3,0.7-0.3,1.8-0.8,2.2c-1.1,0.9-2.3,1.5-3.9,1.5c-3.1-0.1-6.2-0.1-9.4,0
			c-1.3,0-2.6,0.4-3.8,0.6c-0.1,0-0.1,0.1-0.2,0.1c-2.5,1-4,3.1-5.4,5.2c-1,1.5-1.4,3.3-2,5c-0.4,1.2-0.5,2.5-1.1,3.5
			c-0.7,1.2,0,1.6,0.5,2.4c1.1,1.5,2.9,2.9,1.5,5.2c-0.1,0.1,0,0.2,0,0.4c0,1.7,0.5,3.3,1.7,4.6c0.6,0.7,0.9,1.3,0.5,2.2
			c-0.3,0.6-0.2,1.5,0.1,2.1c0.7,1.5,1.6,3,2.3,4.5c0.3,0.7,0.6,1.4,0.8,2.2c0.1,0.6,0.1,1.3,0,2c-0.2,5.1,0.2,10.1,1.8,14.9
			C111.4,305.9,114.4,332.7,144.5,333.3z M188.1,200.4c-0.1,1.6-0.2,3.2-0.4,4.7c-0.2,1.1-0.6,2.2-1,3.3c0,0.1-0.1,0.2-0.1,0.3
			c-0.1,1.3-0.2,2.6-0.4,3.8c-0.1,0.5-0.3,1-0.4,1.6c0,0.2-0.1,0.3-0.1,0.5c-0.1,1.3-0.2,2.6-0.4,3.8c-0.2,1.3-0.7,2.7-1,4
			c-0.1,0.3,0,0.7-0.1,1c-0.7,2.2-1.6,4.3-3,6.2c-0.6,0.8-1.1,1.8-1.7,2.7c-0.5,0.7-1.2,1.3-1.8,1.9c-2.1,1.9-4.6,3.2-7,4.7
			c-0.3,0.2-0.8,0.2-1.2,0.2c-1.1,0-2.1,0.2-3.1,0.8c-0.5,0.3-1.1,0.3-1.6,0.5c-1.3,0.6-2.6,1.2-3.9,1.8c-0.8,0.3-1.6,0.5-2.4,0.7
			c-0.2,0-0.7-0.2-0.8-0.4c-0.1-0.3-0.1-0.8,0.1-1.1c0.9-1.3,1.9-2.5,2.8-3.8c0.8-1.1,1.5-2.4,2.3-3.5c1-1.5,2.1-2.9,3.2-4.4
			c0.9-1.2,1.7-2.5,2.6-3.8c0.6-0.8,1.3-1.5,1.7-2.4c0.9-1.8,1.6-3.6,2.5-5.4c0.8-1.6,0.5-3.4,1-4.9c0.6-1.8,0-3.7,0.8-5.4
			c0.1-0.1,0.1-0.3,0-0.5c-0.1-1.6,0.5-3,1-4.5c0.2-0.6,0.4-1.3,0.4-2c0.1-1.7,0.9-3.1,1.4-4.7c0.4-1.1,0.7-2.3,1.1-3.4
			c0.3-1,0.7-2,1.1-2.9c0.7-1.6,1.5-3.3,2.2-4.9c0.2-0.5,0.4-1,0.7-1.4c0.4-0.6,1.2-0.5,1.6,0.1c1.3,1.7,1.8,3.7,2.6,5.6
			c1.2,3,1.5,6,1.4,9.1C188.1,199.1,188.1,199.7,188.1,200.4z M354.7,247.4c-0.1,0.7-0.6,0.7-1.2,0.7c-2.1,0-4.3,0-6.4,0
			c-1.8,0-3.6-0.1-5.4,0c-1.3,0.1-2.5,0.5-3.8,0.8c-1,0.2-2,0.4-3,0.7c-1.3,0.3-2.5,0.6-3.8,0.9c-0.1,0-0.2,0-0.3,0
			c-3.1,0.1-6.2,0.3-9.3,0.4c-1.1,0-1.1-1-1.3-1.6c-0.5-1.2-0.4-2.5-0.7-3.6c-0.9-3.4-0.2-6.7-0.5-10.1c-0.2-3.2,0.1-6.4-0.5-9.6
			c-0.4-2.2-0.2-4.3-0.4-6.5c-0.1-1.2-0.3-2.4-0.3-3.5c0-0.4,0.3-0.9,0.6-1.1c0.5-0.3,1,0,1.2,0.6c0.7,1.5,1.5,2.9,2.1,4.4
			c0.5,1.3,0.7,2.7,1.2,4.1c0.3,0.9,0.8,1.8,1.3,2.6c0.4,0.7,1,1.4,1.6,2c1,1.1,1.9,2.2,3,3.1c1.5,1.3,3.1,2.5,4.7,3.7
			c1.3,1,2.7,2,4.1,2.9c1.2,0.8,2.5,1.5,3.7,2.1c1.6,0.8,3.3,1.5,5,2.2c0.6,0.3,1.3,0.6,1.9,0.9c1.3,0.6,2.6,1.3,3.9,1.9
			c0.5,0.2,1,0.4,1.6,0.5C354.7,246.3,354.8,246.8,354.7,247.4z"/>
	</g>
	<path fill="#9C1C20" d="M449.4,351.5V327h5.2v-23.9c-68.8-21.2-200.7-17.4-204.6-17.3c-3.9-0.1-135.7-4-204.6,17.3V327h5.2v24.4
		H34.8v7.8h8.1l0.6,107.5c0,0,70.3,13.5,206.4,13.5v0c0.1,0,0.1,0,0.2,0s0.1,0,0.2,0v0c136.1,0,206.4-13.5,206.4-13.5l0.6-107.5h8.1
		v-7.8H449.4z M59.2,443.5h-8.6v-74.2c0-2.4,1.9-4.3,4.3-4.3c2.4,0,4.3,1.9,4.3,4.3V443.5z M83.5,443.7H69.7v-71.6
		c0-3.8,3.1-6.9,6.9-6.9s6.9,3.1,6.9,6.9V443.7z M122.4,443.6H98.2v-66.4c0-6.7,5.4-12.1,12.1-12.1c6.7,0,12.1,5.4,12.1,12.1V443.6z
		 M169.6,443.6H139v-63.2c0-8.5,6.9-15.3,15.3-15.3s15.3,6.9,15.3,15.3V443.6z M221.8,443.5h-35.4v-60.8c0-9.8,7.9-17.7,17.7-17.7
		s17.7,7.9,17.7,17.7V443.5z M266.6,443.5h-35.4v-60.8c0-9.8,7.9-17.7,17.7-17.7c9.8,0,17.7,7.9,17.7,17.7V443.5z M313.6,443.5
		h-35.4v-60.8c0-9.8,7.9-17.7,17.7-17.7c9.8,0,17.7,7.9,17.7,17.7V443.5z M361,443.6h-30.6v-63.2c0-8.5,6.9-15.3,15.3-15.3
		s15.3,6.9,15.3,15.3V443.6z M401.8,443.6h-24.2v-66.4c0-6.7,5.4-12.1,12.1-12.1s12.1,5.4,12.1,12.1V443.6z M430.3,443.7h-13.8
		v-71.6c0-3.8,3.1-6.9,6.9-6.9s6.9,3.1,6.9,6.9V443.7z M449.4,443.5h-8.6v-74.2c0-2.4,1.9-4.3,4.3-4.3c2.4,0,4.3,1.9,4.3,4.3V443.5z
		"/>
</g>
</svg>
