<?xml version="1.0" encoding="utf-8"?>
<!-- Generator: Adobe Illustrator 18.0.0, SVG Export Plug-In . SVG Version: 6.00 Build 0)  -->
<!DOCTYPE svg PUBLIC "-//W3C//DTD SVG 1.1//EN" "http://www.w3.org/Graphics/SVG/1.1/DTD/svg11.dtd">
<svg version="1.1" id="Layer_1" xmlns="http://www.w3.org/2000/svg" xmlns:xlink="http://www.w3.org/1999/xlink" x="0px" y="0px"
	 viewBox="0 0 500 500" enable-background="new 0 0 500 500" xml:space="preserve">
<g>
	<g>
		<path fill="#9C1C20" d="M463.9,151.7c-142.9,0-285.1,0-427.7,0c0-9.6-0.2-18.9,0.1-28.2c0.1-4.3,3.9-5.7,7.4-7
			c29.1-10.8,58.3-21.7,87.4-32.5c37.8-14.1,75.6-28,113.3-42.2c4-1.5,7.4-1.4,11.4,0c66.9,25,133.8,49.9,200.7,74.7
			c5.2,1.9,7.7,5,7.5,10.6C463.6,135.1,463.9,143.2,463.9,151.7z"/>
		<path fill="#9C1C20" d="M181.8,192.4c-19.6,24.2-52.3,21.7-68.6,0.3c-15.3,17.1-33.4,22.3-54.5,12C44.7,197.9,35.6,181.8,37,168
			c142.2,0,284.4,0,426.6,0c2.2,12.8-7.6,29.5-21.7,36.9c-17.9,9.5-35.7,5.6-54.2-12c-19,23.1-51.1,21.7-68.7-0.4
			c-8.8,10.7-20,17-34.1,17.1c-14.1,0-25.4-6-34.5-17.1c-8.9,11.1-20.3,17.5-34.5,17.4C201.9,209.9,190.5,203.8,181.8,192.4z"/>
		<rect x="56.1" y="225.5" fill="#9C1C20" width="27.4" height="233.9"/>
		<rect x="416.5" y="225.5" fill="#9C1C20" width="27.4" height="233.9"/>
	</g>
	<g>
		<path fill="#9C1C20" d="M126.2,330.7c0-2.3-0.4-4.3-2.9-5.2c-2.5-0.9-4.1,0.4-5.4,2.3c0,43.9,0,87.7,0,131.6c1.9,0,3.8,0,5.7,0
			c2-1.3,2.6-3.1,2.6-5.4C126.2,412.8,126.2,371.8,126.2,330.7z"/>
		<path fill="#9C1C20" d="M376.4,327.2c-2.4,0.9-2.6,2.9-2.6,5.1c0,40.6,0,81.1,0,121.7c0,2.4,0.6,4.2,2.6,5.4c1.9,0,3.8,0,5.7,0
			c0-43.3,0-86.7,0-130C380.6,327.5,378.9,326.2,376.4,327.2z"/>
		<path fill="#9C1C20" d="M168.7,406.3c0-4.3-1.3-5.6-5.5-5.6c-8.8,0-17.5,0-26.3,0c-0.7,0-1.5,0.1-2.3,0.1c0,2.8,0,5.3,0,8.1
			c8.6,0,17.1,0,25.8,0c0,1.3,0,2.3,0,3.3c0,13.8,0,27.5,0,41.3c0,2.5,0.6,4.6,3,5.8c0.9,0,1.7,0,2.6,0c2.2-1.3,2.8-3.2,2.8-5.6
			C168.6,437.9,168.7,422.1,168.7,406.3z"/>
		<path fill="#9C1C20" d="M337.1,400.7c-4.6,0-5.8,1.2-5.8,5.8c0,15.6,0,31.1-0.1,46.7c0,2.6,0.6,4.7,2.8,6.2c0.9,0,1.7,0,2.6,0
			c2.3-1.2,3-3.3,3-5.8c-0.1-13.7,0-27.5,0-41.2c0-1,0-2,0-3.3c8.8,0,17.2,0,25.8,0c0-2.9,0-5.5,0-8.3c-0.9,0-1.7,0-2.5,0
			C354.3,400.7,345.7,400.7,337.1,400.7z"/>
		<path fill="#9C1C20" d="M202.2,381.6c-2.3-6.8-6.8-10.3-14-11c-8.8-0.9-17.5-2.1-26.4-3.3c0-11.7,0-23.3,0-35.4
			c1,1.3,1.7,2.3,2.5,3.2c2.6,3.1,6,4.9,10.1,4.9c7.8,0.1,15.6,0.2,23.5,0c8-0.2,14.1-6.8,14-14.6c-0.1-7.9-6.4-14.1-14.6-14.2
			c-4.4-0.1-8.8-0.1-13.2,0c-1.6,0-2.7-0.5-3.7-1.7c-7.3-8.5-14.6-16.9-22-25.3c-3.9-4.4-8.7-5.9-14.4-4.6
			c-7,1.7-10.8,6.9-10.8,14.6c0,27.9,0,55.7,0,83.6c0,1,0,2.1,0.2,3.1c0.7,5.9,5.6,11.1,11.5,12c9.8,1.4,19.6,2.7,29.4,4
			c2.1,0.3,3.4,0.9,4.2,3.2c3.4,10.1,7,20.1,10.6,30.1c2.4,6.6,8.8,10.3,15.2,9.2c9.3-1.7,14.4-10.1,11.3-19.1
			C211.2,407.4,206.6,394.5,202.2,381.6z"/>
		<path fill="#9C1C20" d="M366.8,294.6c0-0.9,0-1.7-0.1-2.6c-0.5-5.4-4.6-10.7-9.8-12.1c-5.7-1.6-10.8-0.3-14.8,4.2
			c-6.5,7.3-13.1,14.6-19.2,22.2c-3.2,4.1-6.7,6-11.9,5.4c-3.9-0.4-8-0.4-11.8,0.4c-7.2,1.4-11.8,8.3-11,15.8
			c0.7,7,6.9,12.5,14.6,12.6c6.5,0.1,13.1-0.2,19.6,0.1c6.6,0.3,11.7-2,15.3-7.6c0.1-0.1,0.3-0.1,0.5-0.1c0,11.6,0,23.1,0,34.7
			c-0.4,0.1-0.7,0.3-1.1,0.3c-8.7,1.1-17.4,2.3-26.1,3.2c-6.3,0.7-10.6,3.8-12.8,9.7c-4.7,13.2-9.4,26.4-13.8,39.6
			c-0.8,2.3-1,5.1-0.6,7.6c1.1,6.6,6.2,11,13,11.6c5.8,0.6,11.9-3.2,14.1-9.2c3.7-10.1,7.3-20.2,10.8-30.3c0.6-1.9,1.5-2.8,3.5-3
			c8.2-1,16.3-2.1,24.5-3.3c3-0.4,6.2-0.7,9-1.9c5.9-2.6,8.1-7.7,8.1-14C366.7,350.1,366.8,322.3,366.8,294.6z"/>
		<path fill="#9C1C20" d="M353,225.3c-12.1-0.3-22.3,9.6-22.5,21.8c-0.2,12.5,9.6,22.7,22.1,22.8c12.4,0.1,22.3-9.7,22.5-22.4
			C375.2,235.3,365.6,225.6,353,225.3z"/>
		<path fill="#9C1C20" d="M169.5,247.6c0-12.3-10-22.3-22.3-22.2c-12.4,0.1-22.2,10-22.2,22.3c0,12.4,10,22.3,22.3,22.3
			C159.6,269.9,169.5,259.9,169.5,247.6z"/>
		<path fill="#9C1C20" d="M325.5,357.3c2.1-0.3,3.2-1.7,3.3-3.7c0.1-2.1-0.8-3.7-3-4.2c-1.1-0.2-2.2-0.2-3.3-0.2
			c-48.5,0-96.9,0-145.4,0c-0.8,0-1.6,0-2.3,0.1c-2.5,0.3-4,2-4,4.2c0,2.3,1.5,3.8,4.2,3.9c0.9,0.1,1.7,0,2.6,0
			c24.1,0,48.1,0,72.2,0c24.2,0,48.5,0,72.7,0C323.4,357.4,324.5,357.4,325.5,357.3z"/>
	</g>
</g>
</svg>
