<?xml version="1.0" encoding="utf-8"?>
<!-- Generator: Adobe Illustrator 18.0.0, SVG Export Plug-In . SVG Version: 6.00 Build 0)  -->
<!DOCTYPE svg PUBLIC "-//W3C//DTD SVG 1.1//EN" "http://www.w3.org/Graphics/SVG/1.1/DTD/svg11.dtd">
<svg version="1.1" id="Layer_1" xmlns="http://www.w3.org/2000/svg" xmlns:xlink="http://www.w3.org/1999/xlink" x="0px" y="0px"
	 viewBox="50 111 400 278" enable-background="new 50 111 400 278" xml:space="preserve">
<g>
	<path fill="#9D1C20" d="M370,144.5c-3.3,1.5-6.5,3-9.5,4.3c-8,3.8-11,10-7.8,18c5.3,13,10.8,26,16.8,38.8
		c4.3,9.2,10.5,11.5,19.7,7.7c2.8-1,5.3-2.3,8.3-3.5c15.5,27.5,4.7,52.3-8,78c21-2.8,38,3,51,18.8c-3.8,5.5-9.2,6.5-14.7,6.8
		c-4.5,0.3-9,0.3-13.5,0c-7.3-0.3-13,2.3-17.3,8.3c-1.8,2.5-4,4.8-5.8,7.3c-4.3,6.3-10.3,9-17.8,9.5c-1.7,0-4,1-4.7,2.2
		c-9.3,13.5-22.8,18.8-38.3,20.3c-4.5,0.5-9,0.5-13.5,0.5c-48.8,0-97.7,0-146.5,0c-2,0-4.2,0-6.5,0c19.5-50.8-33.3-99.3-83.5-71.8
		c-1-5-2-9.8-3-15c-2.8,0-5.3-0.3-7.8,0c-5,0.5-7.3-2-8-6.8c-1.3-7.5-2.5-15-3.8-22.5c-1.5-9.2,0-11.3,9.3-12c0.7,0,1.8-0.3,3.2-0.5
		c-1.8-10-3.2-19.8-5-29.2c-2.2-11-4.2-22.2-6-33.5C53,137.3,70,117.3,103,116.8c18.8-0.2,37.5,0,56.3,0c53.3,0,106.5,0,159.5,0
		c11,0,21.5,1.5,31.5,6.5C359.5,127.8,366,134.8,370,144.5z M120.5,229.8c5.5,0.3,10,0.3,14.3,0.8c17.8,1.5,28.8,11.5,31.8,28.5
		c4.2,24.3,8.5,48.5,12.8,72.8c0.2,1.8,2,4.3,3.3,4.3c12.3,0.3,24.5,0.3,36.8,0.3c0-65,0-129.5,0-194.2c-1.8,0-3.3,0-4.8,0
		c-22.7,0-45.5,0-68,0c-16,0-26,10-26,26c0,12,0,24.3,0,36.3C120.5,212.8,120.5,221,120.5,229.8z M235.8,142.3c0,2.8,0,4.8,0,6.8
		c0,42,0,84,0,126c0,9.5-1,8.3,8.5,8.3c2,0,4,0,6,0.3c19,1.5,30,11.5,33.3,30.3c1,6.3,2.3,12.5,3.3,18.8c0.5,3,1.8,4.3,5,4.3
		c6-0.3,12,0,17.8,0c15.7,0,26-10.5,26-26.3c0-47,0-94,0-141.3c0-17-10-27-26.8-27c-16.5,0-33.3,0-49.8,0
		C251.3,142.3,244,142.3,235.8,142.3z M364.8,284.8c7.2,0,13.3-5.8,13.3-12.8c0.3-7.3-6-13.5-13.3-13.5s-13.3,5.8-13.3,13
		C351.3,278.5,357.3,284.5,364.8,284.8z"/>
	<path fill="#9D1C20" d="M108,383c-24.5-0.3-44-20-43.8-44.3c0.3-24.8,20-44.3,44.5-44.3c24.3,0,44.3,20.5,44,44.8
		C152.3,364.3,132.8,383.3,108,383z M108.3,319.8c-10.8,0-18.8,8.3-18.8,18.8c0,10.8,8.3,19.2,19,19.2s19.3-8.5,19-19.2
		C127.5,327.8,119.3,319.8,108.3,319.8z"/>
	<path fill="#9D1C20" d="M415.5,326.8c8.8-1,17.2-2,25.8-2.8c8.8,17.5-0.3,42.3-19.5,53.5c-19.5,11.5-45,5.5-58.8-14.5
		c6.8-3,8.8-12.2,17.2-13c1.8-0.3,3.8,0.5,5,1.5c8.3,7.5,18,8.8,26,2.8c8-6,9.7-16,4.7-25.8C416,328,415.8,327.5,415.5,326.8z"/>
	<path fill="#9D1C20" d="M364.3,161c4-1.8,7.2-3,11-4.8c6,13.8,11.8,27.3,17.8,41.5c-3.5,1.7-7,3.3-11,5
		C376,188.8,370.3,175.3,364.3,161z"/>
	<path fill="#9D1C20" d="M297,248.3c0.3,8.8,0.3,9,8,9c5.5,0,11,0,17.5,0c0,8.3,0,16.3-0.3,24c0,0.8-2.3,2-3.5,2.3
		c-12,0-24.2,0.3-36.3-0.3c-8-0.3-13.8-4.8-15.8-12.5c-4.3-16.7-8-33.5-11.5-50.5c-1.7-8.8,4.3-17.3,12.8-19c9-2,17.5,3,20,12
		c1.5,5,2.5,10.3,3.5,15.3c0.5,2.7,2,3.8,4.8,3.8c7.3-0.3,14.5,0,21.5,0c3.5,0,4.8,1,4.8,4.8c0,11.5,0.3,11.5-11.5,11.5
		C306.8,248.3,302,248.3,297,248.3z"/>
	<path fill="#9D1C20" d="M268,156.8c10.5,0,19.3,8,19.3,18.5c0.2,10.5-8.5,19.5-19,19.5c-10.5,0-18.8-8.5-19-18.8
		C249.3,165.3,257.5,156.8,268,156.8z"/>
</g>
</svg>
