<?xml version="1.0" encoding="utf-8"?>
<!-- Generator: Adobe Illustrator 18.0.0, SVG Export Plug-In . SVG Version: 6.00 Build 0)  -->
<!DOCTYPE svg PUBLIC "-//W3C//DTD SVG 1.1//EN" "http://www.w3.org/Graphics/SVG/1.1/DTD/svg11.dtd">
<svg version="1.1" id="Layer_1" xmlns="http://www.w3.org/2000/svg" xmlns:xlink="http://www.w3.org/1999/xlink" x="0px" y="0px"
	 viewBox="107 33 286 434" enable-background="new 107 33 286 434" xml:space="preserve">
<g>
	<path fill="#9D1C20" d="M322.8,36.5c9,3.8,11.8,10.5,11.5,20c-0.3,56.8-0.3,113.5,0,170c0,3-0.8,5-3.5,6.7c-13.8,10.3-16,30-5,43.2
		c1,1.3,2,2.3,3.3,3.8c-6.5,6.3-10.3,13.8-10.3,22.8s3.5,16.8,10.3,23c-5.5,5.5-9.3,11.7-10,19.5c-1.3,11.5,3,20.8,12,27.8
		c2.5,2,2.5,3.5,1.3,5.8c-3,5.5-7.8,8.3-14,8c-16.8,0-33.3,0-50,0c-30.8,0-61.5-0.3-92.3,0.3c-12.3,0.3-17.8-8.8-17.8-17.8
		c0.3-26.3,0-52.5,0-78.8c0-1.5,0-2.8,0-4.5c7.8,2,15.3,3.8,23.3,5.8c0,6,0,12,0,18.3c0,10,6,16,16,16c32.5,0,64.8,0,97.3,0
		c10.2,0,16.3-6.3,16.3-16.5c0-12.5,0.2-25,0-37.5c-0.5-26.7-12.3-47-35.5-60.5c-0.5-0.3-1.3-0.8-1.8-1c3.5-4,7.3-7.7,10-12.3
		c13.3-20.5,16.8-42.3,6.5-64.8c-9.3-20.5-29-30.8-51.5-28c-19.2,2.5-36.3,18.5-40.3,38.8c-4.8,24.3,0.8,45.7,18.5,63.5
		c0.5,0.5,1,1,1.5,1.5c0.3,0.3,0.3,0.5,0,0.3c-5.5,4-10.8,8.3-16,12c-1,0.8-3,1-4.2,0.5c-6.8-2.2-13.3-4.7-19.8-7.5
		c-6-2.5-11.5-6-17.5-8.3c-2.8-1.3-2.5-3-2.5-5c0-32.5,0-65,0-97.5c0-16,0.3-32,0-48c-0.3-9.3,3-15.7,11.8-19.5c5,0,10,0,15,0
		c4,7.5,7.3,15.5,11.7,22.8c3.3,5,9,7.5,15,7.5c23,0,45.7,0.3,68.8,0c6.7,0,12.8-3,16.3-8.8c4.2-6.8,7.3-14.3,11-21.3
		C312.8,36.5,317.8,36.5,322.8,36.5z M246,371.8c13.5,0,27.3,0,40.8,0c5.3,0,8.8-2.8,8.8-7.3c0.3-4.5-3.5-7.8-9-7.8
		c-27,0-54.3,0-81.3,0c-5.5,0-9,3.3-9,7.8c0.3,4.5,3.5,7.3,9,7.3C219,372,232.5,371.8,246,371.8z"/>
	<path fill="#9D1C20" d="M155.8,463.5c-3.8-2.5-5.5-6-5-10.5c1-12.3-3.5-23.3-10-33.3c-5-7.5-9.5-15.5-15-22.5
		c-11.5-14.8-14.3-31.5-13.3-49.5c1.8-29.8,3-59.8,1.8-89.5c-0.2-8.5,0-17,5-24.5c9.8-14.5,28-18.8,44.3-10
		c10,5.5,20,11.5,31.5,13.5c8.3,1.5,16.8,3,25,4.5c5.3,1,7.5,4,7.3,9.5c-0.8,9.2-5.3,16-13.5,20c-16.3,7.5-32.5,6.8-49,0.5
		c-6.3-2.3-11.8-5.3-15.5-11.3c-2.3-3.5-6.8-4-10-2c-3.5,2.3-4.5,6-2.5,9.8c0.8,1.5,1.5,3.3,2.8,4c4,3,4,6.8,4,11c0,29,0,58,0,87.2
		c0,15.5,9.8,27.8,24.7,30.8c2.8,0.5,5.5,0.5,8.3,0.5c37.8,0,75.3,0,113,0c1.5,0,3,0,4.5,0c0.3,0.5,0.3,0.8,0.5,1.3
		c-5.5,4.3-11.3,8.3-16.8,12.5c-2,1.5-4,2.5-6,3.8c-9.5,5-14,13-13.8,23.8c0,3.5-0.3,7,0,10.5c0.3,4.5-1.3,7.8-5.2,10
		C220.3,463.5,188,463.5,155.8,463.5z"/>
	<path fill="#9D1C20" d="M291,36.5c-1.8,3.8-3.3,7.8-5.5,11c-1.5,2-4.2,4-6.7,4c-21.8,0.3-43.3,0.3-65,0c-2.3,0-5.2-1.8-6.5-3.5
		c-2.5-3.5-3.8-7.5-5.8-11.5C231.5,36.5,261.3,36.5,291,36.5z"/>
	<path fill="#9D1C20" d="M221.8,226c8.5-5,17.3-7.3,26.5-6.5c23.3,2,41.3,17.5,46.3,40c1,4.5,1.3,9.3,1.3,14c0.3,12.3,0,24.5,0,37
		c-5,0-10,0-15.5,0c0-5.8,0-11.5,0-17.3c0-4,0-8,0-12c-0.3-5.3-3-8.3-7.5-8.3s-7.5,3-7.5,8.3c-0.3,8.5,0,17,0,25.5c0,1.3,0,2.5,0,4
		c-12.8,0-25.3,0-38,0c0-1-0.3-2-0.3-3c0-4,0.3-8,0-12c-0.5-8.8-0.2-16.8,7.3-23.8c6-5.5,7.5-13.8,8-21.8
		C243.3,238.8,236,230.3,221.8,226z"/>
	<path fill="#9D1C20" d="M213.3,172c12.8-3.3,24.3-8.5,34.3-16.3c0.8-0.5,2.5-0.7,3.5-0.5c9.5,4,19,8,29,12.3
		c-2.3,13-6.5,24.5-18,32.3c-12.5,8.3-29.5,5.3-39.2-6.7C218,187,215,180,213.3,172z"/>
	<path fill="#9D1C20" d="M360.8,272.5c-3.5,0-7.2,0-10.8,0c-9,0-16-6.5-16-15c-0.3-8.3,6.3-15.3,14.8-15.5c8-0.2,16-0.5,24.3,0
		c8.5,0.5,15,7.5,14.7,15.8c-0.3,8.5-7,14.8-15.8,15C368,272.5,364.5,272.5,360.8,272.5z"/>
	<path fill="#9D1C20" d="M356.8,318.8c-3.8-0.3-7.8-0.3-11.5-1c-7.5-1.8-12-8.5-11.3-16c0.8-7.8,6.8-13.8,14.5-14
		c5.5-0.3,11.3-0.3,16.7,0c8.3,0.5,14.5,7.3,14.5,15.3c0,8.3-6.8,15-15,15.3c-2.8,0-5.3,0-8,0C356.8,318.5,356.8,318.5,356.8,318.8z
		"/>
	<path fill="#9D1C20" d="M354.3,333.5c4.5-0.5,9.5,0.5,13.5,4.2c8.5,8.3,5,22.8-6.3,25.5c-4.7,1.3-10.3,1-15.3,0.3
		c-7.8-1.3-13-8.5-12.3-16c0.8-8.3,7-14,15.3-14.3C350.5,333.5,352,333.5,354.3,333.5z"/>
	<path fill="#9D1C20" d="M349.3,196.5c0-11.3,0-21.5,0-31.8c0-0.8,0.8-2,1.3-2.3c4.5-1.5,9-3.8,13.8-4.3c7-0.8,13.3,4.3,14.7,10.8
		c1.8,6.7-0.8,14-6.7,17.3C365,190,357.5,192.8,349.3,196.5z"/>
	<path fill="#9D1C20" d="M259.3,123.3c-12.5,15.3-27,27.8-47.3,33c0.8-13,5.3-23.5,16-30.8C237.5,119.5,250.3,118.5,259.3,123.3z"/>
	<path fill="#9D1C20" d="M211.8,288.5c0,7.5,0,14.8,0,22.3c-4.8,0-9.5,0-14.8,0c0-6.3,0-12.8,0-19.5
		C201.8,290.5,206.5,289.5,211.8,288.5z"/>
	<path fill="#9D1C20" d="M261.8,143.3c3.5-3.8,6.5-7.3,9.8-11c4.8,5.2,7,11.3,8.5,18.8C273.8,148.3,268,145.8,261.8,143.3z"/>
	<path fill="#9D1C20" d="M246,371.8c-13.5,0-27,0-40.5,0c-5.3,0-8.8-2.8-9-7.3c-0.3-4.5,3.5-7.8,9-7.8c27,0,54.3,0,81.3,0
		c5.5,0,9,3.3,9,7.8c-0.3,4.5-3.5,7.3-8.8,7.3C273.3,372,259.8,371.8,246,371.8z"/>
</g>
</svg>
