<?xml version="1.0" encoding="UTF-8"?>
<svg id="Layer_2" data-name="Layer 2" xmlns="http://www.w3.org/2000/svg" viewBox="0 0 508.04 516.75">
  <defs>
    <style>
      .cls-1 {
        fill: #9d1c20;
      }
    </style>
  </defs>
  <g id="Layer_2-2" data-name="Layer 2">
    <g>
      <path class="cls-1" d="M145.05,408.91c-12.37,8.99-24.47,17.77-36.52,26.52,.01,.01-108.81,81.26-108.54,81.32H168.81c1.28,.3,40.64-57.75,41.59-58.51,3.19-2.57,6.09-5.51,10.16-9.28-32.23-2.8-58.08-14.62-75.51-40.05Z"/>
      <path class="cls-1" d="M399.5,435.43c-12.05-8.75-32.27-22.36-41.02-33.89,0,0-.01,.01-.02,.02-3.93-8.7-9.33-18.78-11.25-28.93h0c-2.35-26.24-.51-52.44,1.24-78.63,1.1-16.41,2.83-32.79,4.02-49.2,.22-3.06-.41-6.31-1.25-9.31-21.47-76.83-43.06-153.62-64.44-230.47-1.4-5.03-3.73-5.71-8.17-4.54-7.64,2.01-12.35,7.15-13.48,14.45-1.9,12.26-2.69,24.69-3.95,37.04,.48,.15,.96,.29,1.43,.44,5.49-4.29,11.84-4.8,18.42-4.63,4.51,.11,7,2.01,7.97,6.51,10.57,48.8,21.23,97.58,31.87,146.37,.95,4.38,1.98,8.74,2.86,13.13,.5,2.52,.82,5.29-2.49,6.1-3.54,.86-4.64-1.78-5.24-4.52-5.73-26.25-11.42-52.52-17.14-78.78-5.82-26.73-11.67-53.45-17.48-80.06-9.39-2.09-14.32-.03-17.9,8.31-1.86,4.34-3.24,9.16-3.54,13.85-1.04,16.21-1.52,32.46-2.2,48.47,5.5-2.68,10.46-5.59,15.78-7.56,5.31-1.96,8.72,.48,9.29,6.14,1.49,14.88,2.78,29.78,4.18,44.67,2.2,23.49,4.44,46.98,6.64,70.48,.54,5.79,1,11.59,1.47,17.39,.2,2.47,.04,4.84-3.15,5.2-3.41,.38-4.2-1.91-4.46-4.65-1.2-12.57-2.4-25.14-3.6-37.71-2.2-23.16-4.41-46.32-6.6-69.48-.75-7.93-1.48-15.85-2.22-23.79-8.99,1.25-17.15,10.57-18,20.26-.2,2.31-.13,4.65-.17,6.98-.96,60.9-1.88,121.8-2.88,182.69-1-60.9-1.92-121.79-2.88-182.69-.04-2.33,.03-4.67-.17-6.98-.84-9.69-9-19.01-18-20.26-.74,7.94-1.47,15.87-2.22,23.79-2.2,23.16-4.4,46.32-6.6,69.48-1.2,12.57-2.4,25.14-3.6,37.71-.26,2.74-1.05,5.03-4.46,4.65-3.19-.36-3.35-2.73-3.15-5.2,.47-5.8,.93-11.6,1.47-17.39,2.2-23.49,4.44-46.98,6.64-70.48,1.4-14.89,2.69-29.79,4.18-44.67,.57-5.66,3.99-8.1,9.29-6.14,5.32,1.97,10.28,4.88,15.78,7.56-.68-16.01-1.15-32.25-2.2-48.47-.3-4.69-1.68-9.51-3.54-13.85-3.58-8.34-8.51-10.4-17.9-8.31-5.81,26.61-11.66,53.33-17.48,80.06-5.72,26.26-11.4,52.52-17.14,78.78-.6,2.75-1.7,5.38-5.24,4.52-3.32-.8-3-3.58-2.49-6.1,.87-4.39,1.9-8.75,2.86-13.13,10.64-48.79,21.3-97.57,31.87-146.37,.98-4.5,3.46-6.4,7.97-6.51,6.59-.16,12.93,.34,18.42,4.63,.48-.15,.96-.29,1.43-.44-1.26-12.36-2.06-24.79-3.95-37.04-1.13-7.29-5.84-12.44-13.48-14.45-4.44-1.17-6.77-.49-8.17,4.54-21.38,76.85-42.97,153.64-64.44,230.47-.84,2.99-1.47,6.24-1.25,9.31,1.19,16.41,2.92,32.78,4.02,49.2,1.88,28.04,3.85,56.1,.68,84.19-.2,1.78,.24,4.08,1.27,5.48,18.15,24.7,42.01,38.59,73.25,38.51,3.11,0,4.74-1.05,6.06-3.82,7.59-15.91,11.99-32.48,13.16-49.78,1.18,17.3,5.57,33.87,13.16,49.78,1.79,6.41,12.84,22.87,21.53,30.45-.41,.04-.82,.1-1.23,.13,4.07,3.78,6.96,6.71,10.16,9.28,.95,.76,40.31,58.81,41.59,58.51h168.81c.27-.06-108.55-81.31-108.54-81.32Z"/>
      <path class="cls-1" d="M233.13,430.18c.01-.05,.03-.1,.04-.15-31.69-.6-56.73-14.38-76.18-38.95-7.92,10.25-7.91,11.25-.03,20.49,.22,.25,.44,.5,.66,.75,16.34,18.51,37.54,26.61,61.53,28.67,3.27,.28,5.84-.11,7.91-1.29-.04,13.4,1.55,25.85-2.86,42.38,.11,5.78,2.49,9.72,1.42,15.43,9.93-18.12,6.32-23.03,6.77-34.68,.26-7.82-.7-15.6-.59-23.41,5.51,13.45,11.01,29.08,12.3,43.71,2,5.66,7.21,8.77,6.83,14.89,1.33-2.88,2.85-7.67,2.77-10.8-.15-9.49-5.56-15.57-8.55-24.4-3.75-10.56-7.68-22.33-12.02-32.65Z"/>
    </g>
  </g>
</svg>