<?xml version="1.0" encoding="utf-8"?>
<!-- Generator: Adobe Illustrator 18.0.0, SVG Export Plug-In . SVG Version: 6.00 Build 0)  -->
<!DOCTYPE svg PUBLIC "-//W3C//DTD SVG 1.1//EN" "http://www.w3.org/Graphics/SVG/1.1/DTD/svg11.dtd">
<svg version="1.1" id="Layer_1" xmlns="http://www.w3.org/2000/svg" xmlns:xlink="http://www.w3.org/1999/xlink" x="0px" y="0px"
	 viewBox="35 56 430 388" enable-background="new 35 56 430 388" xml:space="preserve">
<g>
	<path fill="#9D1C20" d="M462.5,208.5c0,6.8,0,13.3,0,20c-0.3,0.5-0.8,0.8-0.8,1.3c-3.3,10.3-10.3,16-21,17.3c-1,0-2,0.5-3.3,0.8
		c0.8,2,1.5,3.5,2.3,5.3c6,15.2,10.5,30.8,11,47c1,38.5,0.8,77.3,0.8,115.8c0,13.5-9.2,23.5-22,24c-10.3,0.5-20.8,0.5-31,0
		c-11.3-0.5-20.5-9.3-21.5-20.5c-0.8-8-0.5-16-0.5-24c0-1.5,0-3,0-4.5c-84.8,0-168.8,0-253.3,0c0,8.5,0,16.5,0,24.5
		c-0.3,15-9.8,24.5-24.8,24.8c-8,0-15.8,0-23.8,0c-17,0-26.5-9.3-26.5-26.5c0-32,0-64,0-95.8c0-20.3,3-40,9.7-59
		c1.3-3.7,2.8-7.5,4-10.8c-4-1.3-7.8-1.7-11.3-3.3c-7-3-10.5-9.5-13-16.3c0-6.8,0-13.3,0-20c0.3-0.5,0.5-1,0.8-1.5
		c3.2-10.3,10.7-15,21.3-13c5,1,10,2.5,14.7,3.8c2.5,0.8,5,1.3,7.5,2c7-17.3,13.8-33.8,20.8-50.3c8-19.5,26-31.5,47-31.5
		c3.8,0,7.8,0,12,0c0-2,0-3.5,0-5c0-12.3,0-24.3,0-36.5c0-11.5,5.3-16.8,16.8-16.8c47.8,0,95.7,0,143.5,0c11.3,0,16.5,5.3,16.8,16.5
		c0,12.3,0,24.5,0,37c0,1.5,0.3,3,0.3,4.8c4.3,0,8,0,12,0c20.5,0,38.5,12,46.3,31c6.5,15.5,12.8,31.3,19.2,46.8c0.5,1.3,1.3,2.8,2,4
		c6.3-1.7,12.2-3.8,18.3-5c4-0.8,8.3-1.5,12.2-0.8C456.5,195.3,460.3,201.5,462.5,208.5z M250,251.5c45.5,0,91,0,136.5,0
		c2.5,0,5,0,7.5-0.8c6.5-1.5,9.8-7,8.3-13.5c-0.5-1.7-1-3.5-1.8-5c-10.5-25.8-21-51.3-31.8-77c-5-12.3-15.3-19-28.5-19
		c-60.5,0-121,0-181.3,0c-13.5,0-22.8,6.8-28.3,18.8c-1.8,4-3.5,8.3-5,12.3C117,188.7,108,210.5,99.3,232c-5,12.5-0.5,19.5,13,19.5
		c1,0,2.3,0,3.2,0C160.3,251.5,205.3,251.5,250,251.5z M366.5,298.8c-9.7,0-19.7,0-29.5,0c-7.5,0-11.3,3.5-11.5,11
		c-0.3,8.8-0.3,17.8,0,26.5c0,7.5,3.5,11,11,11c20,0.3,40,0,60,0c7.5,0,10.8-3.8,11-11c0-8.8,0-17.5,0-26c0-8-3.5-11.5-11.8-11.5
		C386.3,298.8,376.5,298.8,366.5,298.8z M132.5,298.8c-10,0-20,0-29.8,0c-7.8,0-11.3,3.5-11.3,11c0,8.5,0,17.3,0,25.8
		c0,8.5,3.2,11.8,11.8,12c19.3,0,38.8,0,58,0c8.8,0,12-3.5,12.3-12c0-8.3,0-16.5,0-25s-3.5-11.8-11.7-11.8
		C151.8,298.8,142,298.8,132.5,298.8z M258,117.3c-4-10.2-8-20-11.8-29.5c-4-10-4-10-14.8-9.8c-2.3,0-3.5,0.8-4.3,2.8
		c-4.5,11.8-9.2,23.3-14,35c-0.2,0.5-0.2,1.3-0.2,2.3c3.3,0,6,0.2,9,0c1.3-0.3,2.8-1.5,3.3-2.5c2.8-6.3,2.5-6.5,9.5-6.5
		c0.8,0,1.5,0,2,0c5-1,8,0.8,8.5,6c0.3,2.5,1.8,3.3,4.3,3.3c6-0.2,12-0.2,17.8,0c2.5,0,4-0.8,5.3-3c2-3.5,4.2-6.8,6.5-10.5
		c2.8,4.3,4.8,7.7,7,11.3c0.5,1,1.7,2,2.8,2c3.5,0.2,7.3,0,11.7,0c-5.3-6.8-10-12.5-15-18.5c4.8-7,9.3-13.8,14-21.3
		c-3.8,0-6.5,0.3-9.3,0c-3-0.3-4.5,0.8-6,3.5c-1.5,3-3.5,5.5-5.8,9.3c-3.8-9.5-9-15.8-19.8-11.8c4,6,8,12,11.8,18
		c0.8,1,0.8,3.3,0.3,4.3C267,106.5,262.8,111.5,258,117.3z M177,86c3.5,0,6.5,0.3,9.5,0c3.3-0.2,4.8,0.8,4.5,4.3
		c-0.3,6.8,0,13.5,0,20.3c0,2.5,0,4.8,0,7c4.5,0,8,0,12,0c0-10.5,0-21,0-31.8c4.8,0,9.3,0,13.8,0c0-3,0-5.2,0-7.5
		c-13.3,0-26.3,0-39.8,0C177,80.8,177,83,177,86z M318,117.8c0-13.5,0-26.5,0-39.5c-4,0-7.5,0-11.3,0c0,13.3,0,26.3,0,39.5
		C310.5,117.8,314,117.8,318,117.8z"/>
	<path fill="#9D1C20" d="M240.5,100.5c-3.8,0-6.5,0-10.3,0c1.7-3.8,3.3-7.3,5.3-11.5C237.3,93.3,238.8,96.5,240.5,100.5z"/>
</g>
</svg>
