<?xml version="1.0" encoding="utf-8"?>
<!-- Generator: Adobe Illustrator 18.0.0, SVG Export Plug-In . SVG Version: 6.00 Build 0)  -->
<!DOCTYPE svg PUBLIC "-//W3C//DTD SVG 1.1//EN" "http://www.w3.org/Graphics/SVG/1.1/DTD/svg11.dtd">
<svg version="1.1" id="Layer_1" xmlns="http://www.w3.org/2000/svg" xmlns:xlink="http://www.w3.org/1999/xlink" x="0px" y="0px"
	 viewBox="0 17 500 466" enable-background="new 0 17 500 466" xml:space="preserve">
<g>
	<path fill="#9D1C20" d="M497,266.1c-1.1,2.1-1.8,4.6-3.2,6.4c-3.9,5.6-9.9,8.5-16.6,7.8c-8.1-1.1-13.1-5.6-15.5-13.1
		c-6-16.6-11.7-33.2-17.7-50.1c-3.9-11.3-7.8-22.2-12.7-33.5c0.7,4.6,1.4,9.2,2.5,13.4c7.1,37.1,14.5,74.5,21.9,111.6
		c2.1,10.9-3.5,16.6-13.1,15.5c-3.2-0.4-6.4,0-9.9,0c0,2.5,0,4.2,0,6.4c0,41,0,81.9,0,123.2c0,14.8-10.6,24.7-24.7,22.9
		c-10.9-1.4-18.7-10.2-18.7-22.2c0-12,0-24,0-36.4c0-29.3,0-59,0-88.3c0-1.8,0-3.5,0-5.3c-3.2,0-6,0-9.2,0c0,2.1,0,3.9,0,5.6
		c0,40.6,0,81.2,0,121.5c0,4.6-0.7,9.9-2.8,13.8c-4.2,8.8-14.1,12.7-23.7,10.6c-8.8-2.1-15.5-9.9-16.2-19.1
		c-0.4-2.1-0.4-4.6-0.4-6.7c0-39.9,0-79.8,0-119.7c0-1.8,0-3.9,0-6.4c-4.2,0-7.8,0-11.3,0c-9.5,0-13.8-4.9-12-14.5
		c8.1-41.7,16.2-83.3,24.4-125c0-0.7,0-1.4-0.4-2.1c-0.4,1.1-1.1,2.1-1.4,3.5c-9.5,26.8-19.1,54-29,80.9
		c-3.5,9.5-11.3,14.5-20.1,13.1c-11.7-2.1-18-12.7-14.1-24.7c4.6-13.4,9.2-26.5,13.8-39.5c8.8-25.4,17.7-50.8,27.2-76.3
		c4.2-12,11.7-21.9,23.7-27.2c4.2-1.8,8.5-2.8,13.1-2.8c22.2-0.4,44.8-0.4,67.1,0c15.9,0.4,26.5,9.2,33.5,22.6
		c4.6,8.8,8.1,18.7,11.3,28.2c11.7,32.5,22.9,65.3,34.2,97.8c0,0.4,0.4,0.4,0.7,0.7C497,261.2,497,263.7,497,266.1z"/>
	<path fill="#9D1C20" d="M2.7,187.1c0.4-11.3,0.7-22.9,0.7-34.2c0.4-18.4,8.1-32.5,24.7-40.2c6.4-2.8,13.4-4.2,20.5-4.2
		c31.1-0.4,62.1-0.4,93.2,0c27.2,0,45.2,18.7,45.2,45.5c0,43.4,0,86.5,0,129.9c0,8.1-3.2,14.1-10.6,17.7c-6.7,3.2-13.1,2.1-19.1-2.1
		c-5.6-4.2-7.1-10.6-7.1-17.3c0-21.9,0-43.8,0-65.7c0-20.1,0-40.2,0-60.4c0-1.8,0.4-3.5-0.4-4.6c-0.7-1.4-2.5-3.2-3.5-2.8
		c-1.1,0-2.8,1.8-3.2,3.2c-0.7,1.4-0.4,3.5-0.4,5.3c0,99.2,0.4,198.4,0.4,297.6c0,12.4-5.3,20.5-15.9,23.7
		c-13.1,3.9-26.8-5.6-27.5-19.1c0-2.1,0-4.2,0-6.4c0-54.4,0-109.1,0-163.5c0-1.8,0-3.9,0-6c-3.2,0-6,0-9.5,0c0,1.8,0,3.9,0,5.6
		c0,55.4,0,110.9,0,166.6c0,12-6,20.5-16.6,22.9c-12.7,3.2-25.8-6-26.8-19.1c0-2.1,0-4.6,0-6.7c0-98.9,0-197.7,0-296.2
		c0-3.2,1.4-7.8-3.5-7.8s-3.5,4.9-3.5,8.1c-0.4,41.7-0.4,83.3-0.7,125c0,3.2-0.4,6.4-1.1,9.5c-1.8,6.7-8.5,12-15.5,12.4
		c-7.4,0.7-14.5-3.5-17.7-10.2c-0.7-1.4-1.4-2.8-2.1-4.2C2.7,254.9,2.7,221,2.7,187.1z"/>
	<path fill="#9D1C20" d="M248.1,250.3c0,62.1,0,124.3,0,186.4c0,2.5,0,5.3-0.4,7.8c-1.4,6.4-7.4,10.6-14.1,10.2
		c-6.4-0.4-11.7-4.9-12.7-11.3c-0.4-2.1-0.4-4.2-0.4-6.4c0-125,0-249.6,0-374.6c0-2.1,0-4.6,0.7-6.7c1.4-6.7,7.8-11.3,14.5-10.6
		c6.7,0.7,12,6,12.7,12.7c0,1.8,0,3.9,0,5.6C248.1,126,248.1,188.1,248.1,250.3z"/>
	<path fill="#9D1C20" d="M95.3,21.1c20.8,0,37.8,16.9,37.8,37.8c0,20.5-16.9,37.4-37.4,37.8C75.1,97,57.8,79.4,57.8,58.9
		C57.8,37.7,74.8,21.1,95.3,21.1z"/>
	<path fill="#9D1C20" d="M347,60c0-20.5,16.6-37.4,37.4-37.4c20.5,0,37.1,16.6,37.4,37.1S405.2,97,384.8,97.4
		C363.9,97.4,347,80.8,347,60z"/>
</g>
</svg>
