<?xml version="1.0" encoding="utf-8"?>
<!-- Generator: Adobe Illustrator 18.0.0, SVG Export Plug-In . SVG Version: 6.00 Build 0)  -->
<!DOCTYPE svg PUBLIC "-//W3C//DTD SVG 1.1//EN" "http://www.w3.org/Graphics/SVG/1.1/DTD/svg11.dtd">
<svg version="1.1" id="Layer_1" xmlns="http://www.w3.org/2000/svg" xmlns:xlink="http://www.w3.org/1999/xlink" x="0px" y="0px"
	 viewBox="35 35 425.8 416.8" enable-background="new 35 35 425.8 416.8" xml:space="preserve">
<g>
	<g>
		<path fill="#9D1C20" d="M141.4,412c71,0,142.3,0,213.3,0c0,13.3,0,26.3,0,39.5c-71,0-142.3,0-213.3,0
			C141.4,438.2,141.4,425,141.4,412z"/>
		<path fill="#9D1C20" d="M227.4,365.2c-8,0-15.5,0-23,0c-0.5,0-1.3-0.5-1.8-1c-8.5-11.5-12.5-24.3-11.5-38.5
			c0.8-12.3,5.5-23.3,13.3-32.8c14.3-17.5,28-35.3,42-53c0.5-0.5,1-1,1.5-1.5c7.8,8.5,13.5,17.5,15.2,28.7c0.8,5.5,0.8,11,1,16.5
			c0.2,8.8,5.2,15.5,13,17.8c4.3,1.3,8.5,0.8,12.5-1.3c1.8-0.8,3.5-1.8,5.5-2.8c3.8,6.5,7,13,8.5,20.5c3.3,16.3,0,31-9.3,44.8
			c-1,1.5-2.3,2.2-4.2,2.2c-7-0.3-14,0-21.3,0c0.8-2.2,1.5-4.3,2-6.3c1.3-5.5-0.3-10.8-2.8-15.8c-4.3-8.5-10-16.3-16.3-23.8
			c-1.3-1.5-2.5-3-4-4.8c-2.5,3-5,5.5-7,8.5c-4.3,6-8.5,12-12.3,18C224.1,348.7,222.9,356.7,227.4,365.2z"/>
		<path fill="#9D1C20" d="M241.6,377.7c0,7.2,0,14.2,0,21.5c-12.8,0-25.3,0-38,0c0-7,0-14.3,0-21.5
			C216.1,377.7,228.6,377.7,241.6,377.7z"/>
		<path fill="#9D1C20" d="M292.4,399.2c-12.8,0-25.3,0-38,0c0-7,0-14.3,0-21.5c12.7,0,25.2,0,38,0C292.4,385,292.4,392,292.4,399.2z
			"/>
		<path fill="#9D1C20" d="M161.4,399.2c0-7.2,0-14.3,0-21.5c9.8,0,19.5,0,29.3,0c0,7,0,14.2,0,21.5
			C181.1,399.2,171.4,399.2,161.4,399.2z"/>
		<path fill="#9D1C20" d="M304.9,399.2c0-7.2,0-14.3,0-21.5c9.8,0,19.5,0,29.3,0c0,7.2,0,14.2,0,21.5
			C324.6,399.2,314.9,399.2,304.9,399.2z"/>
		<path fill="#9D1C20" d="M248.4,334.5c3.3,5.5,6.5,10.8,9.2,16c2,4,1.3,8-1.7,11.3s-7.5,4.3-11.7,2.8c-4-1.5-7-5.3-7-9.5
			c0-1,0.3-2.2,0.5-3.3C238.9,347.7,244.9,338.2,248.4,334.5z"/>
	</g>
	<g>
		<path fill="#9D1C20" d="M460.4,145.7c-142,0-283.3,0-424.8,0c0-9.5-0.3-18.8,0-28c0.3-4.3,3.8-5.8,7.2-7
			c29-10.8,58-21.5,86.8-32.3c37.5-14,75-27.8,112.5-42c4-1.5,7.5-1.5,11.3,0c66.5,24.8,133,49.5,199.5,74.3c5.3,2,7.8,5,7.5,10.5
			C460.1,129.5,460.4,137.5,460.4,145.7z"/>
		<path fill="#9D1C20" d="M180.1,186.2c-19.5,24-52,21.5-68.2,0.3c-15,17-33,22.3-54,12c-14-6.8-23-22.8-21.5-36.5
			c141.3,0,282.5,0,423.7,0c2.3,12.8-7.5,29.2-21.5,36.7c-17.8,9.5-35.5,5.5-53.8-12c-19,23-50.8,21.5-68.3-0.5
			c-8.8,10.8-19.8,17-33.8,17s-25.3-6-34.3-17c-8.8,11-20.3,17.5-34.3,17.3C200.1,203.7,188.9,197.5,180.1,186.2z"/>
		<rect x="35.4" y="219.2" fill="#9D1C20" width="27.3" height="232.3"/>
		<rect x="433.1" y="219.2" fill="#9D1C20" width="27.2" height="232.3"/>
	</g>
</g>
</svg>
