<svg width="35" height="32" viewBox="0 0 35 32" fill="none" xmlns="http://www.w3.org/2000/svg">
<path d="M26.8458 30.3254L26.8458 30.3254C29.8229 26.1983 32.4756 21.041 33.334 17.7605L33.8177 17.8871L33.334 17.7605C33.5887 16.7872 33.7406 15.6191 33.7771 14.5048C33.8138 13.3845 33.7326 12.3579 33.5434 11.6574L26.8458 30.3254ZM26.8458 30.3254L26.0076 31.4877L17.0555 31.4936L8.11415 31.4998L6.32368 28.8385C3.99834 25.3821 2.05511 21.6532 1.15467 18.9462L0.680413 19.1039M26.8458 30.3254L0.680413 19.1039M0.680413 19.1039L1.15467 18.9462C0.8597 18.0594 0.701248 17.4943 0.612028 16.854C0.521733 16.2061 0.5 15.4649 0.5 14.2231C0.5 12.8006 0.504917 12.1445 0.606551 11.619C0.704083 11.1147 0.892201 10.7235 1.33989 9.831L1.33991 9.83095M0.680413 19.1039L1.33991 9.83095M1.33991 9.83095C2.34074 7.83506 4.57822 5.59348 6.78792 4.39736L6.78796 4.39734M1.33991 9.83095L6.78796 4.39734M6.78796 4.39734C7.17719 4.1866 7.50379 4.00258 7.75293 3.82163C8.00382 3.63941 8.22491 3.42651 8.34861 3.13774C8.47504 2.84264 8.46925 2.54071 8.41331 2.24394C8.35895 1.95556 8.24697 1.6228 8.11104 1.2432C8.03435 1.029 7.96357 0.816825 7.9066 0.633658C7.9584 0.630682 8.01396 0.627708 8.07327 0.624749C8.55968 0.600481 9.26875 0.578459 10.1516 0.559918C11.9158 0.522867 14.3594 0.5 17.0713 0.5C19.7832 0.5 22.2269 0.522867 23.9911 0.559918C24.8739 0.578459 25.583 0.600481 26.0694 0.624749C26.1287 0.627708 26.1843 0.630682 26.2361 0.633658M6.78796 4.39734L26.2361 0.633658M26.2361 0.633658C26.1791 0.816828 26.1083 1.02901 26.0316 1.24321C25.8957 1.62269 25.7849 1.95307 25.7289 2.23759C25.6718 2.52723 25.6597 2.82436 25.7747 3.11383C25.8894 3.40295 26.1019 3.61132 26.3418 3.7839C26.5778 3.95362 26.8854 4.11983 27.2454 4.30522L26.2361 0.633658ZM31.187 7.53078C30.0449 6.19435 28.6463 5.02667 27.2454 4.30524L31.187 7.53078ZM31.187 7.53078C32.3314 8.86983 33.1885 10.3433 33.5434 11.6574L31.187 7.53078ZM7.43458 0.673994C7.43494 0.673918 7.43535 0.673835 7.43582 0.673744L7.43458 0.673994ZM26.7071 0.673801C26.7075 0.67387 26.7078 0.673934 26.7081 0.673994L26.7071 0.673801Z" stroke="#2F2B27"/>
<path d="M17.213 20.3869V19.913V18.7767V18.5447C17.213 18.1352 17.2146 17.851 17.2349 17.6404C17.2385 17.6036 17.2426 17.5691 17.2473 17.5365C17.2767 17.3358 17.3191 17.3048 17.3261 17.2996C17.3264 17.2994 17.3266 17.2993 17.3268 17.2991C17.3535 17.2781 17.4361 17.2342 17.6856 17.2046C17.7131 17.2014 17.7426 17.1983 17.7742 17.1954C18.0539 17.1702 18.4261 17.1668 18.9436 17.1664L17.213 20.3869ZM15.5217 18.7767C15.5302 18.7677 15.5392 18.7597 15.5481 18.7529L15.5515 18.7767L15.5489 18.7953C15.5476 18.7962 15.5462 18.7971 15.545 18.798C15.5371 18.7917 15.5292 18.7846 15.5217 18.7767ZM15.5491 18.7951L15.5516 18.7772L15.5537 18.7917C15.5521 18.7929 15.5506 18.794 15.5491 18.7951ZM15.5538 18.7916L15.5517 18.7768L15.5517 18.7767L15.5555 18.7496C15.5642 18.7544 15.5724 18.7606 15.5795 18.7675C15.5766 18.7708 15.5737 18.7738 15.5708 18.7767C15.565 18.7824 15.5592 18.7874 15.5538 18.7916ZM15.5554 18.7495L15.5516 18.7762L15.5483 18.7528C15.5483 18.7527 15.5484 18.7527 15.5485 18.7526C15.5503 18.7512 15.5521 18.7499 15.5539 18.7487C15.5544 18.7489 15.5549 18.7492 15.5554 18.7495ZM18.8021 18.7496C18.8108 18.7544 18.819 18.7606 18.8261 18.7675C18.8232 18.7708 18.8203 18.7738 18.8174 18.7767C18.8116 18.7824 18.8058 18.7874 18.8003 18.7916L18.7982 18.7768L18.7983 18.7767L18.8021 18.7496ZM18.8002 18.7917C18.7987 18.7929 18.7971 18.794 18.7956 18.7951L18.7982 18.7772L18.8002 18.7917ZM18.7955 18.7953C18.7941 18.7962 18.7928 18.7971 18.7915 18.798C18.7836 18.7917 18.7758 18.7846 18.7683 18.7767C18.7768 18.7677 18.7857 18.7597 18.7947 18.7529L18.7981 18.7767L18.7955 18.7953ZM18.802 18.7495L18.7982 18.7762L18.7948 18.7528C18.7949 18.7527 18.795 18.7527 18.7951 18.7526C18.7969 18.7512 18.7987 18.7499 18.8005 18.7487C18.801 18.7489 18.8015 18.7492 18.802 18.7495ZM15.5217 22.0232C15.5302 22.0142 15.5392 22.0063 15.5481 21.9995L15.5515 22.0232L15.5489 22.0418C15.5476 22.0428 15.5462 22.0437 15.545 22.0446C15.5371 22.0383 15.5292 22.0312 15.5217 22.0232ZM15.5491 22.0417L15.5516 22.0238L15.5537 22.0383C15.5521 22.0395 15.5506 22.0406 15.5491 22.0417ZM15.5538 22.0382L15.5517 22.0234L15.5517 22.0232L15.5555 21.9961C15.5642 22.001 15.5724 22.0071 15.5795 22.0141C15.5766 22.0174 15.5737 22.0204 15.5708 22.0232C15.565 22.029 15.5592 22.0339 15.5538 22.0382ZM15.5554 21.9961L15.5516 22.0228L15.5483 21.9994C15.5483 21.9993 15.5484 21.9992 15.5485 21.9992C15.5503 21.9978 15.5521 21.9965 15.5539 21.9952C15.5544 21.9955 15.5549 21.9958 15.5554 21.9961ZM18.7683 22.0232C18.7768 22.0142 18.7857 22.0063 18.7947 21.9995L18.7981 22.0232L18.7955 22.0418C18.7941 22.0428 18.7928 22.0437 18.7915 22.0446C18.7836 22.0383 18.7758 22.0312 18.7683 22.0232ZM18.7956 22.0417L18.7982 22.0238L18.8002 22.0383C18.7987 22.0395 18.7971 22.0406 18.7956 22.0417ZM18.8003 22.0382L18.7982 22.0234L18.7983 22.0232L18.8021 21.9961C18.8108 22.001 18.819 22.0071 18.8261 22.0141C18.8232 22.0174 18.8203 22.0204 18.8174 22.0232C18.8116 22.029 18.8058 22.0339 18.8003 22.0382ZM18.802 21.9961L18.7982 22.0228L18.7948 21.9994C18.7949 21.9993 18.795 21.9992 18.7951 21.9992C18.7969 21.9978 18.7987 21.9965 18.8005 21.9952C18.801 21.9955 18.8015 21.9958 18.802 21.9961Z" fill="#2F2B27" stroke="#2F2B27"/>
<line x1="4" y1="6.5" x2="30" y2="6.5" stroke="#2F2B27"/>
<line x1="1" y1="10.5" x2="33" y2="10.5" stroke="#2F2B27"/>
</svg>
