<svg width="22" height="22" viewBox="0 0 22 22" fill="none" xmlns="http://www.w3.org/2000/svg">
<path fill-rule="evenodd" clip-rule="evenodd" d="M5.86391 1.92632C4.5858 2.09811 3.81473 2.42484 3.24421 2.99445C2.67484 3.56436 2.34811 4.33526 2.17632 5.61353C2.00159 6.91358 2 8.62181 2 11C2 13.3782 2.00159 15.0867 2.17632 16.3867C2.34816 17.6653 2.67496 18.4357 3.24415 19.0045C3.81411 19.5745 4.58519 19.9016 5.86359 20.0736C7.16361 20.2484 8.87179 20.25 11.25 20.25C13.6282 20.25 15.3366 20.2484 16.6367 20.0736C17.9151 19.9016 18.6855 19.5746 19.2543 19.005C19.8241 18.4356 20.1516 17.6646 20.3236 16.3863C20.4984 15.0864 20.5 13.3782 20.5 11C20.5 8.62179 20.4984 6.91386 20.3236 5.61398C20.1516 4.33578 19.8247 3.56471 19.2545 2.99415C18.6851 2.42487 17.9146 2.09813 16.6363 1.92632C15.3364 1.75159 13.6282 1.75 11.25 1.75C8.8718 1.75 7.16384 1.75159 5.86391 1.92632ZM11.1926 0.25H11.3074C13.6157 0.249987 15.4248 0.249977 16.8362 0.439685C18.2808 0.633857 19.4207 1.03906 20.3153 1.93367C21.2102 2.82911 21.6159 3.96922 21.8102 5.41402C22 6.82546 22 8.63424 22 10.9426V11.0574C22 13.3658 22 15.1748 21.8102 16.5862C21.6159 18.0307 21.2105 19.1706 20.3155 20.0651C19.4214 20.9604 18.2813 21.3659 16.8366 21.5602C15.425 21.75 13.6158 21.75 11.3074 21.75H11.1926C8.88424 21.75 7.07521 21.75 5.66366 21.5602C4.2189 21.3659 3.07886 20.9604 2.18385 20.0655C1.28916 19.1713 0.883831 18.0311 0.689684 16.5865C0.499977 15.175 0.499987 13.3657 0.5 11.0574V10.9426C0.499987 8.63425 0.499977 6.82525 0.689684 5.41372C0.883856 3.96897 1.28905 2.82891 2.18349 1.93385C3.07895 1.03961 4.21938 0.633869 5.66409 0.439685C7.0755 0.249977 8.88426 0.249987 11.1926 0.25Z" fill="#2F2B27"/>
<path fill-rule="evenodd" clip-rule="evenodd" d="M21.3875 4.86375C21.6803 5.15666 21.6803 5.63153 21.3874 5.92441L14.3108 13.0001L20.2804 18.9697C20.5733 19.2626 20.5733 19.7375 20.2804 20.0304C19.9875 20.3233 19.5127 20.3233 19.2198 20.0304L13.2501 14.0607L6.17543 21.1354C6.17543 21.1354 4.50544 20.684 5.18941 20C5.87337 19.316 20.3268 4.86368 20.3268 4.86368C20.6197 4.5708 21.0946 4.57084 21.3875 4.86375Z" fill="#2F2B27"/>
<path d="M9.25 8C9.25 8.26522 9.14464 8.51957 8.95711 8.70711C8.76957 8.89464 8.51522 9 8.25 9C7.98478 9 7.73043 8.89464 7.54289 8.70711C7.35536 8.51957 7.25 8.26522 7.25 8C7.25 7.73478 7.35536 7.48043 7.54289 7.29289C7.73043 7.10536 7.98478 7 8.25 7C8.51522 7 8.76957 7.10536 8.95711 7.29289C9.14464 7.48043 9.25 7.73478 9.25 8Z" fill="#2F2B27"/>
<path fill-rule="evenodd" clip-rule="evenodd" d="M8.25 3.75C5.95456 3.75 4 5.49384 4 7.757C4 9.78336 5.24569 12.1751 7.31523 13.0596L7.31696 13.0604C7.61208 13.1856 7.9294 13.2502 8.25 13.2502C8.5706 13.2502 8.88792 13.1856 9.18304 13.0604L9.18477 13.0596C11.2543 12.1751 12.5 9.78336 12.5 7.757C12.5 5.49384 10.5454 3.75 8.25 3.75ZM5.5 7.757C5.5 6.42216 6.67944 5.25 8.25 5.25C9.82056 5.25 11 6.42216 11 7.757C11 9.30029 10.0121 11.0741 8.5962 11.6799C8.48667 11.7263 8.36894 11.7502 8.25 11.7502C8.13106 11.7502 8.01333 11.7263 7.9038 11.6799C6.48786 11.0741 5.5 9.30029 5.5 7.757Z" fill="#2F2B27"/>
</svg>
