<svg width="26" height="28" viewBox="0 0 26 28" fill="none" xmlns="http://www.w3.org/2000/svg">
<rect width="26" height="27.3668" rx="5" fill="#67B9BE"/>
<path d="M13 9.68359V15.6836M10 12.6836C12.3431 12.6836 16 12.6836 16 12.6836M15.4713 19.656L16.1465 20.1866C18.2565 21.8444 19.3114 22.6733 20.1557 22.2629C21 21.8525 21 20.5109 21 17.8276V11C21 8.17157 21 6.75736 20.1213 5.87868C19.2426 5 17.8284 5 15 5H11C8.17157 5 6.75736 5 5.87868 5.87868C5 6.75736 5 8.17157 5 11V17.8276C5 20.5109 5 21.8525 5.84429 22.2629C6.68859 22.6733 7.74355 21.8444 9.85346 20.1866L10.5287 19.656C11.7151 18.7239 12.3083 18.2578 13 18.2578C13.6917 18.2578 14.2849 18.7239 15.4713 19.656Z" stroke="white" stroke-width="1.4"/>
</svg>
