<svg width="20" height="20" viewBox="0 0 20 20" fill="none" xmlns="http://www.w3.org/2000/svg">
<path d="M19.0999 9.9999C19.0999 15.0257 15.0257 19.0999 9.9999 19.0999C4.97411 19.0999 0.899902 15.0257 0.899902 9.9999C0.899902 4.97411 4.97411 0.899902 9.9999 0.899902C15.0257 0.899902 19.0999 4.97411 19.0999 9.9999ZM9.9999 16.4999C10.9388 16.4999 11.6999 15.7388 11.6999 14.7999C11.6999 13.861 10.9388 13.0999 9.9999 13.0999C9.06102 13.0999 8.2999 13.861 8.2999 14.7999C8.2999 15.7388 9.06102 16.4999 9.9999 16.4999ZM9.9999 3.4999C9.06102 3.4999 8.2999 4.26102 8.2999 5.1999V9.9999C8.2999 10.9388 9.06102 11.6999 9.9999 11.6999C10.9388 11.6999 11.6999 10.9388 11.6999 9.9999V5.1999C11.6999 4.26102 10.9388 3.4999 9.9999 3.4999Z" fill="#7A6855" stroke="#7A6855"/>
</svg>
