<svg width="36" height="26" viewBox="0 0 36 26" fill="none" xmlns="http://www.w3.org/2000/svg">
<mask id="path-1-inside-1_1_925" fill="white">
<path fill-rule="evenodd" clip-rule="evenodd" d="M1.61372 0.749691C1.48555 0.892663 1.38062 1.07728 1.38062 1.16013C1.38062 1.24299 2.42637 4.77865 3.70451 9.01694C4.98265 13.2552 6.0284 16.78 6.0284 16.8493C6.0284 16.9188 5.36151 16.9757 4.5466 16.9757C2.64665 16.9757 2.59735 17.0426 3.1303 18.8977C3.32987 19.5925 3.49325 20.2417 3.49325 20.3403C3.49325 20.4722 3.05608 20.5302 1.84146 20.5596L0.189807 20.5997L0.0567121 20.9822C-0.13441 21.5316 0.176428 22.7778 0.70557 23.5839C1.2219 24.3706 2.3237 25.1474 3.21157 25.3508C4.08056 25.5497 31.9193 25.5497 32.7883 25.3508C33.6762 25.1474 34.778 24.3706 35.2943 23.5839C35.823 22.7785 36.1341 21.5317 35.9436 20.9822C35.8292 20.6521 35.7223 20.5939 35.1645 20.5572L34.5178 20.5147L34.4359 19.6289C34.2125 17.2156 32.474 15.4544 30.1642 15.3015L29.1598 15.235L29.0625 14.1105C28.9466 12.7696 28.4662 10.7059 27.8603 8.94588C27.2001 7.02897 25.494 3.62378 25.1034 3.44428C24.8347 3.32064 24.6053 3.39184 23.7216 3.87277C20.3728 5.69546 17.0387 8.52578 15.4376 10.9049C14.059 12.9534 13.3186 15.3173 13.0388 18.5634L12.8694 20.5286H11.8432C11.2788 20.5286 10.817 20.5093 10.817 20.4859C10.817 20.4623 10.9742 19.9026 11.1662 19.2423C11.5564 17.9001 11.6011 17.3973 11.3522 17.1462C11.2405 17.0335 10.6397 16.9757 9.58226 16.9757C8.12243 16.9757 7.98793 16.9538 8.05708 16.7269C10.4545 8.86317 12.648 1.41311 12.648 1.13427C12.648 0.886552 12.5396 0.71814 12.3136 0.61425C11.7008 0.332426 11.4326 0.641537 10.9712 2.16179C10.7403 2.9227 9.94506 5.55519 9.2041 8.01159C8.46299 10.468 7.82568 12.5093 7.78765 12.5476C7.74962 12.5859 7.7185 9.98904 7.7185 6.77685C7.7185 1.65684 7.69117 0.908864 7.49724 0.713023C7.20358 0.416845 6.82936 0.430489 6.54472 0.747843C6.33938 0.97694 6.3091 1.65556 6.27642 6.77301L6.23966 12.5402L4.48999 6.72782C3.49902 3.43604 2.63904 0.823166 2.50708 0.702649C2.19582 0.418409 1.89667 0.434185 1.61372 0.749691ZM20.3089 8.67173C18.4022 11.5751 17.1581 14.7196 16.3777 18.609C16.1855 19.5672 16.0282 20.3911 16.0282 20.44C16.0282 20.4887 15.6846 20.5286 15.2647 20.5286C14.5462 20.5286 14.4962 20.5056 14.4166 20.1378C14.2409 19.326 14.7414 15.8936 15.2623 14.339C15.7307 12.941 16.7822 11.2612 18.0497 9.88629C18.5692 9.3225 21.1254 7.1492 21.1908 7.21529C21.2155 7.24016 20.8187 7.89562 20.3089 8.67173ZM23.0016 7.84445C22.8948 8.21581 22.296 10.3102 21.6708 12.4989C20.9542 15.0079 20.3407 16.8652 20.0102 17.5255C19.5924 18.3605 19.475 18.7725 19.431 19.5568L19.3758 20.5409L18.4415 20.4992L17.507 20.4576L17.5525 20.0312C17.6364 19.2446 18.2915 16.5219 18.7282 15.1434C19.1671 13.7586 20.015 11.9166 20.9266 10.3671C21.4489 9.47954 23.0498 7.16938 23.1426 7.16938C23.1719 7.16938 23.1085 7.47309 23.0016 7.84445ZM24.7041 11.504C24.6603 13.0674 24.5854 14.5473 24.5378 14.7927C24.4539 15.2254 24.4253 15.2408 23.5847 15.3047C23.1081 15.341 22.6136 15.4163 22.4859 15.4722C22.3057 15.551 22.5103 14.6783 23.4 11.5725C24.4654 7.8527 24.5544 7.60967 24.665 8.11647C24.7305 8.41634 24.7481 9.94072 24.7041 11.504ZM27.1663 11.5723C27.4014 12.4798 27.6239 13.7727 27.6677 14.4857L27.7466 15.7676L27.3034 16.0134C26.8741 16.2516 26.8448 16.2493 26.3666 15.9423C25.9074 15.6475 25.8783 15.586 25.9488 15.057C25.9904 14.7444 26.0657 13.1518 26.1159 11.5178L26.2073 8.54709L26.4756 9.24391C26.6231 9.6272 26.9339 10.6749 27.1663 11.5723ZM25.133 16.9042C25.4106 17.0211 25.8544 17.3089 26.1193 17.5437C26.7303 18.0849 27.0628 18.0812 27.6891 17.5264C28.3622 16.93 28.9743 16.6914 29.8306 16.6914C31.5543 16.6914 32.9415 18.0339 32.9824 19.7414L32.9996 20.4576L26.9082 20.4947L20.8168 20.5316V19.8181C20.8168 17.6295 23.1376 16.0628 25.133 16.9042ZM9.6369 19.4272L9.32649 20.4576L7.19555 20.4968L5.06462 20.5359L4.83434 19.7152C4.70773 19.2636 4.57167 18.7824 4.5321 18.6456C4.46534 18.4148 4.6573 18.3969 7.20372 18.3969H9.94718L9.6369 19.4272ZM34.4784 22.0371C34.4784 22.3941 33.747 23.3165 33.2124 23.6337L32.577 24.0106L18.3064 24.0488C8.5758 24.0748 3.8593 24.039 3.481 23.9363C2.85031 23.7649 2.02765 23.0938 1.72554 22.5043C1.61329 22.2852 1.52147 22.0709 1.52147 22.028C1.52147 21.985 8.93678 21.9498 17.9999 21.9498C27.0631 21.9498 34.4784 21.9891 34.4784 22.0371Z"/>
</mask>
<path fill-rule="evenodd" clip-rule="evenodd" d="M1.61372 0.749691C1.48555 0.892663 1.38062 1.07728 1.38062 1.16013C1.38062 1.24299 2.42637 4.77865 3.70451 9.01694C4.98265 13.2552 6.0284 16.78 6.0284 16.8493C6.0284 16.9188 5.36151 16.9757 4.5466 16.9757C2.64665 16.9757 2.59735 17.0426 3.1303 18.8977C3.32987 19.5925 3.49325 20.2417 3.49325 20.3403C3.49325 20.4722 3.05608 20.5302 1.84146 20.5596L0.189807 20.5997L0.0567121 20.9822C-0.13441 21.5316 0.176428 22.7778 0.70557 23.5839C1.2219 24.3706 2.3237 25.1474 3.21157 25.3508C4.08056 25.5497 31.9193 25.5497 32.7883 25.3508C33.6762 25.1474 34.778 24.3706 35.2943 23.5839C35.823 22.7785 36.1341 21.5317 35.9436 20.9822C35.8292 20.6521 35.7223 20.5939 35.1645 20.5572L34.5178 20.5147L34.4359 19.6289C34.2125 17.2156 32.474 15.4544 30.1642 15.3015L29.1598 15.235L29.0625 14.1105C28.9466 12.7696 28.4662 10.7059 27.8603 8.94588C27.2001 7.02897 25.494 3.62378 25.1034 3.44428C24.8347 3.32064 24.6053 3.39184 23.7216 3.87277C20.3728 5.69546 17.0387 8.52578 15.4376 10.9049C14.059 12.9534 13.3186 15.3173 13.0388 18.5634L12.8694 20.5286H11.8432C11.2788 20.5286 10.817 20.5093 10.817 20.4859C10.817 20.4623 10.9742 19.9026 11.1662 19.2423C11.5564 17.9001 11.6011 17.3973 11.3522 17.1462C11.2405 17.0335 10.6397 16.9757 9.58226 16.9757C8.12243 16.9757 7.98793 16.9538 8.05708 16.7269C10.4545 8.86317 12.648 1.41311 12.648 1.13427C12.648 0.886552 12.5396 0.71814 12.3136 0.61425C11.7008 0.332426 11.4326 0.641537 10.9712 2.16179C10.7403 2.9227 9.94506 5.55519 9.2041 8.01159C8.46299 10.468 7.82568 12.5093 7.78765 12.5476C7.74962 12.5859 7.7185 9.98904 7.7185 6.77685C7.7185 1.65684 7.69117 0.908864 7.49724 0.713023C7.20358 0.416845 6.82936 0.430489 6.54472 0.747843C6.33938 0.97694 6.3091 1.65556 6.27642 6.77301L6.23966 12.5402L4.48999 6.72782C3.49902 3.43604 2.63904 0.823166 2.50708 0.702649C2.19582 0.418409 1.89667 0.434185 1.61372 0.749691ZM20.3089 8.67173C18.4022 11.5751 17.1581 14.7196 16.3777 18.609C16.1855 19.5672 16.0282 20.3911 16.0282 20.44C16.0282 20.4887 15.6846 20.5286 15.2647 20.5286C14.5462 20.5286 14.4962 20.5056 14.4166 20.1378C14.2409 19.326 14.7414 15.8936 15.2623 14.339C15.7307 12.941 16.7822 11.2612 18.0497 9.88629C18.5692 9.3225 21.1254 7.1492 21.1908 7.21529C21.2155 7.24016 20.8187 7.89562 20.3089 8.67173ZM23.0016 7.84445C22.8948 8.21581 22.296 10.3102 21.6708 12.4989C20.9542 15.0079 20.3407 16.8652 20.0102 17.5255C19.5924 18.3605 19.475 18.7725 19.431 19.5568L19.3758 20.5409L18.4415 20.4992L17.507 20.4576L17.5525 20.0312C17.6364 19.2446 18.2915 16.5219 18.7282 15.1434C19.1671 13.7586 20.015 11.9166 20.9266 10.3671C21.4489 9.47954 23.0498 7.16938 23.1426 7.16938C23.1719 7.16938 23.1085 7.47309 23.0016 7.84445ZM24.7041 11.504C24.6603 13.0674 24.5854 14.5473 24.5378 14.7927C24.4539 15.2254 24.4253 15.2408 23.5847 15.3047C23.1081 15.341 22.6136 15.4163 22.4859 15.4722C22.3057 15.551 22.5103 14.6783 23.4 11.5725C24.4654 7.8527 24.5544 7.60967 24.665 8.11647C24.7305 8.41634 24.7481 9.94072 24.7041 11.504ZM27.1663 11.5723C27.4014 12.4798 27.6239 13.7727 27.6677 14.4857L27.7466 15.7676L27.3034 16.0134C26.8741 16.2516 26.8448 16.2493 26.3666 15.9423C25.9074 15.6475 25.8783 15.586 25.9488 15.057C25.9904 14.7444 26.0657 13.1518 26.1159 11.5178L26.2073 8.54709L26.4756 9.24391C26.6231 9.6272 26.9339 10.6749 27.1663 11.5723ZM25.133 16.9042C25.4106 17.0211 25.8544 17.3089 26.1193 17.5437C26.7303 18.0849 27.0628 18.0812 27.6891 17.5264C28.3622 16.93 28.9743 16.6914 29.8306 16.6914C31.5543 16.6914 32.9415 18.0339 32.9824 19.7414L32.9996 20.4576L26.9082 20.4947L20.8168 20.5316V19.8181C20.8168 17.6295 23.1376 16.0628 25.133 16.9042ZM9.6369 19.4272L9.32649 20.4576L7.19555 20.4968L5.06462 20.5359L4.83434 19.7152C4.70773 19.2636 4.57167 18.7824 4.5321 18.6456C4.46534 18.4148 4.6573 18.3969 7.20372 18.3969H9.94718L9.6369 19.4272ZM34.4784 22.0371C34.4784 22.3941 33.747 23.3165 33.2124 23.6337L32.577 24.0106L18.3064 24.0488C8.5758 24.0748 3.8593 24.039 3.481 23.9363C2.85031 23.7649 2.02765 23.0938 1.72554 22.5043C1.61329 22.2852 1.52147 22.0709 1.52147 22.028C1.52147 21.985 8.93678 21.9498 17.9999 21.9498C27.0631 21.9498 34.4784 21.9891 34.4784 22.0371Z" fill="#2F2B27" stroke="#FFF9F4" stroke-width="0.6" mask="url(#path-1-inside-1_1_925)"/>
</svg>
