<svg width="42" height="53" viewBox="0 0 42 53" fill="none" xmlns="http://www.w3.org/2000/svg">
<g clip-path="url(#clip0_347_9307)">
<path fill-rule="evenodd" clip-rule="evenodd" d="M7.11412 52.6954C6.99979 52.5938 6.83464 52.4668 6.79653 52.3397C6.82193 51.2345 6.84734 50.1293 6.89816 49.0241C6.84734 48.1094 6.80923 47.2074 6.77112 46.3182C6.87275 46.1911 6.98708 46.0768 7.10142 45.9625C8.28286 45.9625 9.47701 45.9752 10.6585 46.0006C11.5858 46.0768 12.6911 46.4071 12.9705 47.3853C12.9578 47.525 12.9578 47.6648 12.9578 47.8172C12.78 48.5794 12.0432 48.8843 11.3318 49.0622C11.3318 49.0622 11.3318 49.0749 11.3318 49.0876C11.9542 49.2019 12.5894 49.4433 13.0341 49.8879C13.1103 50.0023 13.1738 50.1293 13.2627 50.2436C13.2881 50.358 13.3135 50.485 13.3517 50.612C13.3517 50.7518 13.3517 50.8788 13.3644 51.0186C13.2119 52.2635 11.8653 52.4668 10.8363 52.67C9.60405 52.67 8.35909 52.6827 7.11412 52.6954ZM14.1901 53.0003C13.9741 52.6827 13.7582 52.3779 13.5295 52.073C14.5712 50.6247 15.6002 49.1765 16.6546 47.741C16.426 47.4361 16.1973 47.1312 15.9813 46.839C16.337 46.5722 17.7217 45.6068 17.8742 45.683C18.5475 46.712 19.2335 47.7664 19.9195 48.8081C20.6436 49.7863 21.3804 50.7772 22.1045 51.7681C21.4439 52.1619 20.796 52.5684 20.1482 52.9876C19.2081 51.5648 18.2807 50.142 17.3533 48.7192C16.9595 49.2146 16.553 49.7101 16.1719 50.2055C15.5113 51.1329 14.8507 52.0603 14.1901 53.0003ZM22.9684 52.7082C22.8159 52.5938 22.6762 52.5049 22.5365 52.4033C22.5619 51.3743 22.5873 50.358 22.6381 49.3544C22.5873 48.3127 22.5619 47.2837 22.5365 46.2547C22.6508 46.1403 22.7651 46.0387 22.8922 45.9371C24.0355 45.9498 25.2042 45.9625 26.3603 45.9752C26.5635 46.0133 26.7795 46.0514 26.9955 46.0895C27.9228 46.4071 28.4818 46.9407 28.6088 47.9442C28.5834 48.4778 28.4818 48.897 28.1388 49.3417C27.7196 49.7609 27.1225 49.9896 26.5508 50.1547C25.9411 50.2055 25.3567 50.2563 24.7596 50.3326C24.7977 51.1202 24.8867 51.9205 24.9756 52.7082C24.3023 52.7082 23.629 52.7082 22.9684 52.7082ZM24.6834 49.8117C24.6834 48.6938 24.7088 47.5885 24.7342 46.4833C25.4202 46.5722 26.0046 46.7628 26.3984 47.3599C26.4492 47.4742 26.5 47.5885 26.5508 47.7029C26.6017 48.0205 26.6398 48.4016 26.5381 48.7065C26.3095 49.2908 25.687 49.6084 25.0899 49.7482C24.9502 49.7609 24.8104 49.7736 24.6834 49.8117ZM29.3838 52.7209C29.2567 52.5811 29.1297 52.4414 29.0281 52.3016C29.46 52.2254 29.8538 52.073 30.1206 51.7427C30.146 51.6664 30.1714 51.6029 30.2095 51.5394C30.2095 51.3997 30.2095 51.2726 30.2222 51.1456C30.0698 50.3453 29.5997 49.5195 29.2694 48.7827C29.2186 48.5667 29.1805 48.3508 29.1297 48.1475C29.117 47.9824 29.117 47.8172 29.117 47.6521C29.1932 47.1566 29.3457 46.8009 29.7014 46.4325C30.2984 46.0133 31.048 45.7973 31.7721 45.7973C31.8864 45.9244 32.0007 46.0514 32.1024 46.1911C31.7213 46.2928 31.4418 46.3817 31.1369 46.6612C31.0861 46.7374 31.048 46.8263 30.9971 46.9025C30.9463 47.2328 30.9971 47.5885 31.0988 47.9061C31.3656 48.5667 31.6196 49.2273 31.8864 49.9006C31.9499 50.3326 32.0643 50.7645 31.9499 51.1964C31.861 51.3489 31.7721 51.514 31.6959 51.6791C31.5815 51.7808 31.4672 51.8951 31.3656 51.9967C31.0099 52.2127 30.6414 52.3651 30.273 52.5176C29.9681 52.5811 29.676 52.6446 29.3838 52.7209ZM8.90535 49.0749C8.91805 48.211 8.93075 47.3472 8.94346 46.496C9.57864 46.5468 10.3282 46.6485 10.7474 47.1947C10.7855 47.3218 10.8363 47.4488 10.8998 47.5758C10.8998 47.7029 10.8998 47.8426 10.9125 47.9951C10.7474 48.8589 9.62946 49.0241 8.90535 49.0749ZM8.93075 52.0984C8.94346 51.2472 8.96886 50.3834 8.98157 49.5322C9.80731 49.5957 10.8998 49.7228 11.2555 50.5993C11.5223 51.9205 9.80731 52.0221 8.93075 52.0984Z" fill="black"/>
<path fill-rule="evenodd" clip-rule="evenodd" d="M17.0484 52.6057C16.4005 52.4025 15.9813 52.1103 16.0194 51.3608C16.1591 50.6621 17.0103 50.281 17.6581 50.535C18.0774 50.7637 18.2425 50.9415 18.3823 51.3862C18.3823 51.437 18.3823 51.4878 18.395 51.564C18.2933 52.3136 17.7598 52.5549 17.0484 52.6057Z" fill="#ED3237"/>
<path fill-rule="evenodd" clip-rule="evenodd" d="M7.97797 41.7318C7.81283 41.4269 7.43171 41.122 7.30468 40.8044C7.11412 40.5249 6.92356 40.2454 6.7203 39.9913C6.7076 39.877 6.7076 39.7627 6.7076 39.661C6.82193 39.5848 6.83464 39.5467 6.97438 39.5467C7.07601 39.5975 7.16493 39.661 7.26656 39.7246C7.26656 39.3943 7.27927 39.064 7.29197 38.7337C6.98708 38.721 6.68219 38.7083 6.3773 38.7083C6.25027 38.5304 6.14864 38.3526 6.0343 38.2001C8.53694 38.1747 11.0269 38.1747 13.5295 38.1747C13.339 37.8444 13.2881 37.4252 13.5168 37.1076C13.6057 37.0314 13.6947 36.9678 13.7963 36.9043C13.8725 36.8789 13.9614 36.8662 14.0631 36.8535C14.6474 36.8535 15.0667 37.1203 15.5621 37.4379C15.6637 37.5395 16.1846 37.8317 15.8416 37.9969C15.4224 37.6666 14.6347 37.1076 14.0885 37.4633C14.0122 37.5268 13.9487 37.6157 13.8979 37.692C13.8725 37.8571 13.8598 38.0223 13.8598 38.2001C20.0719 38.1874 26.2968 38.2001 32.5089 38.2128C32.5978 38.378 32.7122 38.5431 32.8265 38.721C32.5597 38.721 32.3183 38.721 32.0643 38.7337C32.0516 39.661 32.0389 40.5884 32.0389 41.5031C31.861 41.3888 31.6704 41.2617 31.5053 41.1474C31.4799 40.347 31.4799 39.5467 31.4799 38.7464C31.2258 38.7337 30.959 38.7337 30.6923 38.7337C30.6796 39.2799 30.6669 39.8516 30.6669 40.4233C30.6287 40.5503 30.489 40.6773 30.3747 40.7917C30.273 40.8171 30.1714 40.8425 30.0698 40.8679C29.7141 40.8298 29.3076 40.6773 29.0789 40.3597C29.0027 40.2327 28.9137 40.1311 28.8375 40.0167C28.8248 39.5848 28.8248 39.1656 28.8248 38.7464C28.5707 38.7337 28.3167 38.7337 28.0753 38.7337C28.0626 39.661 28.0626 40.5884 28.0626 41.5158C27.872 41.3888 27.6688 41.2617 27.4909 41.1347C27.4782 40.9441 27.4782 40.7663 27.4782 40.5884C26.9828 40.8298 26.5508 40.9441 26.0681 40.5757C25.8902 40.3597 25.4329 39.7754 25.5345 39.4578C25.7632 39.4197 26.0173 39.318 26.2332 39.2291C26.3349 39.0386 26.2968 38.9369 26.1951 38.7337C25.7251 38.7337 25.2551 38.7337 24.7977 38.7337C24.785 39.661 24.785 40.5884 24.785 41.5158C24.5945 41.3888 24.4166 41.249 24.2388 41.1093C24.2388 40.3089 24.2388 39.5213 24.2388 38.7337C23.9085 38.7337 23.5655 38.7337 23.2352 38.7337C23.2225 39.1402 23.2098 39.5594 23.2098 39.9913C23.1716 40.1438 22.9557 40.3216 22.8541 40.4487C23.0827 40.7155 23.3368 41.122 23.6417 41.3125C23.5655 41.4015 23.5019 41.4777 23.4384 41.5666C23.0319 41.0966 22.6508 40.5503 22.2316 40.093C22.1935 40.0167 22.0029 39.7754 22.0537 39.661C22.0791 39.6102 22.1045 39.5721 22.1299 39.5467C22.1808 39.534 22.2316 39.534 22.2824 39.534C22.384 39.5594 22.6508 39.7119 22.7016 39.661C22.7016 39.3434 22.7016 39.0386 22.7016 38.7337C22.2443 38.7337 21.7869 38.7337 21.3423 38.7337C21.3296 39.661 21.3296 40.5884 21.3296 41.5031C21.1518 41.3888 20.9739 41.2617 20.796 41.1347C20.7833 40.3343 20.7833 39.534 20.7833 38.7464C20.5293 38.7464 20.2879 38.7464 20.0465 38.7464C20.0465 39.6737 20.0465 40.6011 20.0465 41.5158C19.856 41.3888 19.6654 41.249 19.4749 41.122C19.4749 40.69 19.4749 40.2708 19.4749 39.8389C19.2081 39.8389 18.9413 39.8389 18.6999 39.8389C18.5983 39.9278 18.6237 40.1311 18.611 40.2708C18.5602 40.3216 18.4586 40.3089 18.395 40.3216C18.1029 40.0676 17.8234 39.7754 17.8234 39.3816C17.8615 39.3562 17.8869 39.3307 17.925 39.318C18.4204 39.2926 18.9286 39.3053 19.4495 39.3053C19.4495 39.1021 19.4622 38.9242 19.4749 38.7464C18.7253 38.7337 17.9758 38.7337 17.2517 38.7337C17.239 39.661 17.239 40.5884 17.239 41.5158C17.0357 41.3888 16.8452 41.2617 16.6673 41.1347C16.6546 40.8806 16.6546 40.6392 16.6546 40.4106C16.337 40.3979 16.0194 40.4106 15.7018 40.4106C15.6891 40.5249 15.6764 40.6519 15.6637 40.779C15.3334 40.9441 14.8888 40.2962 14.7745 40.0549C14.7745 39.8389 14.8888 39.8643 15.0921 39.8643C15.0921 39.4832 15.0921 39.1021 15.0921 38.7337C14.7364 38.7337 14.3934 38.7337 14.0504 38.7337C14.025 39.661 14.025 40.5884 14.025 41.5158C13.8344 41.3888 13.6438 41.2617 13.466 41.1347C13.4533 40.3343 13.4533 39.534 13.4533 38.7464C13.1738 38.7337 12.8943 38.7337 12.6402 38.7337C12.6275 39.661 12.6275 40.5884 12.6275 41.5158C12.4243 41.3888 12.2464 41.2617 12.0686 41.1347C12.0559 40.3343 12.0559 39.534 12.0559 38.7337C11.8018 38.7337 11.5604 38.7337 11.3191 38.7337C11.3064 39.661 11.2936 40.5884 11.2936 41.5031C11.1158 41.3888 10.9379 41.2617 10.7601 41.1347C10.7474 40.9568 10.7347 40.779 10.7347 40.6138C10.5822 40.69 10.4298 40.779 10.2774 40.8679C10.1249 40.8806 9.97246 40.9187 9.82002 40.9441C9.40079 40.8552 9.14672 40.6392 8.87994 40.3343C8.71479 40.3597 8.56235 40.3852 8.4099 40.4233C8.29557 40.3725 8.20664 40.347 8.10501 40.3216C8.00338 40.2454 7.92716 40.1819 7.83823 40.1184C7.7239 40.2708 7.50794 40.4106 7.43171 40.5757C7.68579 40.8679 7.96527 41.1728 8.24475 41.4777C8.14312 41.5666 8.0669 41.6428 7.97797 41.7318ZM9.55324 40.4995C9.27376 40.3597 9.33727 40.347 9.29916 40.0676C9.51513 39.3434 10.2138 39.5213 10.7347 39.8643C10.7347 39.9024 10.7347 39.9532 10.7347 39.9913C10.379 40.1946 9.95976 40.4487 9.55324 40.4995ZM8.13042 39.877C8.04149 39.8643 7.95257 39.8516 7.87634 39.8389C7.87634 39.4578 7.87634 39.0894 7.87634 38.7337C8.82912 38.7337 9.7819 38.7337 10.7474 38.7337C10.7347 39.0132 10.7093 39.2799 10.7093 39.5594C10.5314 39.3943 10.3536 39.2418 10.1884 39.0894C9.61676 38.9877 9.17213 39.0259 8.81642 39.534C8.77831 39.6102 8.7529 39.6992 8.7402 39.8008C8.57505 39.877 8.30827 39.8643 8.13042 39.877ZM15.6764 39.877C15.6764 39.5086 15.6764 39.1148 15.6764 38.7337C15.994 38.7337 16.3243 38.7337 16.6546 38.7337C16.6546 39.1021 16.6546 39.4959 16.6546 39.877C16.337 39.877 16.0067 39.877 15.6764 39.877ZM26.3095 40.3343C26.0427 40.1946 26.03 40.1311 26.157 39.877C26.3476 39.8262 26.6652 39.7373 26.8049 39.5975C26.8049 39.2926 26.5635 39.0132 26.5635 38.7337C26.8684 38.7337 27.1733 38.7337 27.4909 38.7337C27.4782 39.1148 27.4655 39.5086 27.4655 39.8897C27.402 39.9278 27.3258 39.9913 27.2622 40.0422C27.0336 40.1311 26.8303 40.22 26.6271 40.3216C26.5127 40.3216 26.3984 40.3216 26.3095 40.3343ZM29.5997 40.3725C29.4981 40.347 29.46 40.2962 29.3965 40.1819C29.3965 39.6992 29.3965 39.2164 29.3965 38.7337C29.6378 38.7337 29.8665 38.7337 30.1206 38.7337C30.1079 39.1402 30.1079 39.5594 30.1079 39.9913C30.0317 40.3089 29.8919 40.3089 29.5997 40.3725Z" fill="#ED3237"/>
<path fill-rule="evenodd" clip-rule="evenodd" d="M18.954 36.6251C18.5729 36.5361 18.2045 36.4726 17.8234 36.3964C17.4931 36.2821 17.1628 36.1804 16.8452 36.0661C16.3498 35.812 15.8543 35.5198 15.397 35.1895C15.0794 34.8719 14.7618 34.567 14.4569 34.2622C14.1393 33.8175 13.8598 33.3475 13.6184 32.852C13.3644 32.2042 13.1992 31.569 13.1103 30.8703C13.0595 25.8904 13.0341 20.9105 13.0087 15.9307C13.2881 15.9307 13.5803 15.9307 13.8598 15.9307C13.9233 20.9359 13.9869 25.9285 14.0631 30.9465C14.152 31.7341 14.4315 32.382 14.7872 33.0807C15.0286 33.3856 15.2572 33.6905 15.4986 33.9954C15.9559 34.5162 16.5784 34.8973 17.1882 35.2022C17.4042 35.2658 17.6074 35.3547 17.8234 35.4309C18.0648 35.4817 18.2934 35.5452 18.5475 35.5961C18.9286 35.6088 19.3224 35.6342 19.7162 35.6723C20.3514 35.5961 20.9993 35.4436 21.5964 35.2276C22.2951 34.91 22.9176 34.4527 23.4765 33.9192C23.6036 33.7286 23.7433 33.5635 23.8704 33.3983C24.0101 33.1569 24.1498 32.9029 24.3023 32.6615C24.5691 32.0771 24.7469 31.4292 24.8104 30.8067C24.8613 25.8523 24.8994 20.8978 24.9375 15.9434C25.2297 15.9434 25.5218 15.9434 25.814 15.9434C25.7886 20.8216 25.7886 25.7125 25.7886 30.6035C25.6616 32.2296 25.0518 33.6524 23.8704 34.8211C23.7052 34.9609 23.5401 35.1133 23.3749 35.2658C23.159 35.4055 22.943 35.5579 22.727 35.7104C21.7361 36.2312 20.6817 36.498 19.5765 36.6124C19.3732 36.6124 19.17 36.6124 18.954 36.6251Z" fill="#FAA831"/>
<path fill-rule="evenodd" clip-rule="evenodd" d="M19.081 29.7906C17.4295 29.5746 16.121 28.7362 15.3207 27.2753C15.181 26.9323 15.0412 26.5766 14.9396 26.2209C14.8634 25.6619 14.8126 25.0902 14.9015 24.5186C15.0793 23.4006 15.6637 22.5241 16.4768 21.7746C16.8579 21.5078 17.2517 21.2664 17.6582 21.0631C17.8996 20.9742 18.1409 20.9107 18.395 20.8345C18.9794 20.7455 19.5638 20.6947 20.1481 20.7964C21.1771 20.9742 22.0664 21.5332 22.7905 22.2827C22.8794 22.4224 22.9938 22.5622 23.1081 22.7019C23.5146 23.3498 23.7179 23.9977 23.8576 24.7599C23.8576 24.9124 23.8703 25.0648 23.883 25.2173C23.8703 25.4332 23.8576 25.6619 23.8449 25.8779C23.5908 27.5929 22.4094 28.9522 20.8087 29.5492C20.5801 29.6001 20.3514 29.6636 20.1354 29.7144C19.7797 29.7271 19.424 29.7525 19.081 29.7906Z" fill="#ED3237"/>
<path fill-rule="evenodd" clip-rule="evenodd" d="M5.86913 43.8406C5.27205 43.8152 4.70038 43.8025 4.11601 43.7898C4.11601 43.7644 4.11601 43.739 4.11601 43.7263C3.3919 43.5484 3.79842 42.5067 4.49712 42.6719C4.49712 40.1565 4.50983 37.6412 4.53523 35.1258C4.58605 34.9353 4.70038 34.7828 4.85283 34.6304C4.81472 34.5796 4.80201 34.5161 4.78931 34.4779C4.78931 34.3001 4.81472 34.262 4.91635 34.1349C4.57335 33.7919 4.87824 33.3854 5.22124 33.2203C5.33557 33.1949 5.46261 33.1695 5.57694 33.1441C6.08509 33.1441 6.4408 33.4108 6.4408 33.9444C6.38998 34.0079 6.35187 34.0841 6.32646 34.1604C6.33917 34.2112 6.36457 34.2747 6.38998 34.3382C6.38998 34.5796 6.22483 34.605 6.42809 34.7955C6.4662 34.9734 6.50431 35.1512 6.55513 35.3545C6.63135 35.3418 6.70757 35.3545 6.7965 35.3545C6.89813 33.4744 7.01246 31.6069 7.1395 29.7395C6.7965 29.5362 6.63135 29.2567 6.89813 28.8883C6.83461 28.5834 6.7838 28.2785 6.72028 27.9863C6.63135 27.9609 6.52972 27.9482 6.4535 27.9355C6.4535 27.4147 6.4535 26.8811 6.4535 26.3603C6.30105 26.2459 6.14861 26.1443 5.99616 26.03C5.86913 25.8521 5.74209 25.6743 5.64046 25.5091C5.53883 25.1915 5.51342 24.912 5.48802 24.5944C5.18313 24.5944 4.92905 24.4674 4.78931 24.1879C4.77661 24.1371 4.77661 24.0863 4.77661 24.0228C4.45901 23.8703 4.4336 23.7433 4.4336 23.4003C4.16683 23.2097 4.16683 23.1335 4.12872 22.8032C3.7476 22.5618 3.44271 22.2188 3.25216 21.7996C3.18864 21.6091 3.13782 21.4185 3.08701 21.2279C2.82023 21.2534 2.66779 21.2915 2.43912 21.4185C1.89286 20.8595 1.80393 20.2116 1.80393 19.4875C1.89286 19.1954 1.96908 18.9032 2.05801 18.611C1.96908 18.3823 1.89286 18.1409 1.80393 17.925C1.77852 17.6455 1.76582 17.366 1.75312 17.1119C1.77852 16.8706 1.80393 16.6419 1.85475 16.4132C1.24497 16.3751 0.635187 16.337 0.0254075 16.3116C0.0127037 15.7399 0 15.181 0 14.622C0.330297 14.622 0.673298 14.6347 1.029 14.6474C1.06711 14.5585 1.10523 14.4696 1.14334 14.3933C1.39741 14.1393 1.20686 13.9614 1.24497 13.6565C1.33389 13.4533 1.43552 13.2373 1.53715 13.0467C1.65149 12.8816 1.75312 12.7164 1.86745 12.5513C1.88015 12.5513 1.89286 12.5513 1.91826 12.5513C2.24856 13.0086 2.93456 13.72 2.46453 14.3171C2.52804 14.4314 2.59156 14.5585 2.66779 14.6728C2.97267 14.406 3.27756 14.1393 3.59516 13.8725C4.23035 13.4151 4.91635 13.0721 5.67857 12.9197C5.67857 12.6402 5.69128 12.348 5.70398 12.0686C6.21213 11.9542 6.55513 12.1956 6.96165 12.4243C7.11409 12.2718 6.92354 12.1829 6.84732 12.0177C6.84732 11.8145 6.86002 11.6366 6.92354 11.4461C7.1395 11.1031 7.35546 10.7601 7.59684 10.4298C7.60954 10.4298 7.62224 10.4298 7.63495 10.4298C7.83821 10.8236 8.05417 11.2301 8.25743 11.6239C8.25743 11.7637 8.25743 11.9034 8.27013 12.0431C8.21932 12.1321 8.1558 12.2464 8.11769 12.3607C8.19391 12.4624 8.27013 12.5767 8.35906 12.7037C9.10858 12.6402 9.92162 12.5386 10.6076 12.1956C11.4969 11.5731 12.3988 10.9506 13.3135 10.3408C14.2409 9.78188 15.1556 9.19751 16.1465 8.71476C16.4386 8.57502 16.7181 8.43528 17.023 8.30825C16.7308 7.95254 16.9468 7.73658 17.2644 7.49521C17.4549 7.41898 17.6582 7.33006 17.8742 7.25384C17.3914 4.87824 16.896 2.50264 16.4386 0.139741C16.4386 0.114334 16.4386 0.0889262 16.4513 0.050815C16.553 0.0254075 16.6673 0.0127037 16.7943 0C16.807 0.127037 16.8325 0.254075 16.8579 0.381112C16.8833 0.381112 16.9214 0.381112 16.9468 0.40652C17.4549 0.190556 17.925 0.177852 18.4585 0.152445C19.983 0.30489 21.2661 1.48634 22.8159 1.38471C23.07 1.3466 23.3622 1.18145 23.6035 1.06711C23.5019 1.46093 23.2733 1.77852 22.9811 2.07071C22.4729 2.31208 21.9139 2.48993 21.3296 2.43912C21.4566 2.69319 21.9139 2.7059 22.1553 2.74401C22.3332 2.7059 22.511 2.66779 22.6889 2.62967C22.8286 2.54075 23.0319 2.3756 23.1843 2.3756C23.1335 2.50264 23.07 2.62967 23.0192 2.75671C22.8413 2.90916 22.6762 3.0616 22.511 3.22675C22.1553 3.4046 21.7615 3.58245 21.3677 3.64597C21.0755 3.64597 20.796 3.64597 20.5165 3.65868C20.5165 3.7476 20.5165 3.82383 20.5292 3.91275C20.5038 4.11601 20.3641 4.29386 20.2498 4.45901C20.2879 4.54794 20.3387 4.62416 20.3895 4.72579C20.3768 4.78931 20.3641 4.86553 20.3641 4.94175C20.6944 5.13231 20.8214 5.4372 20.9612 5.7675C20.9231 6.08509 20.8214 6.22483 20.5928 6.4662C20.4657 6.51702 20.3387 6.54243 20.2879 6.66946C20.3006 6.66946 20.3133 6.66946 20.326 6.68217C20.326 6.88543 20.8341 7.08869 20.9358 7.29195C21.1263 7.35546 21.3169 7.43169 21.5201 7.49521C21.7488 7.66035 22.0664 8.01606 21.7742 8.29554C22.2951 8.54962 22.8413 8.79099 23.3749 9.05777C25.0264 9.93432 26.5508 11.065 28.1007 12.0813C28.2404 12.1575 28.3802 12.221 28.5199 12.2972C29.1424 12.4624 29.8538 12.7037 30.5017 12.6529C30.5779 12.5386 30.6414 12.4243 30.7176 12.3226C30.4636 11.878 30.5779 11.5858 30.7812 11.1285C30.9209 10.8617 31.0606 10.6203 31.2131 10.3663C31.5053 10.7982 32.0515 11.3698 31.988 11.9415C31.9245 12.0558 31.861 12.1702 31.7975 12.2845C31.8102 12.3226 31.8483 12.3607 31.8737 12.3988C32.0261 12.2972 32.1786 12.2083 32.3437 12.1067C32.4708 12.0686 32.5978 12.0304 32.7375 12.005C32.8646 12.005 33.0043 12.0177 33.1441 12.0304C33.1441 12.2972 33.1441 12.5894 33.1568 12.8816C33.4235 12.9324 33.6776 13.0086 33.9571 13.0721C34.3255 13.2881 34.7193 13.4914 35.1004 13.6946C35.4561 13.9868 35.8372 14.279 36.1675 14.6093C36.2184 14.6093 36.3835 14.3171 36.3835 14.2409C36.3327 14.1266 36.2692 14.0122 36.2311 13.9233C36.2311 13.6692 36.32 13.4533 36.3962 13.2119C36.5741 12.9705 36.7773 12.7164 36.9679 12.4878C37.1965 12.8435 37.4379 13.2119 37.6158 13.6184C37.6158 13.7073 37.6158 13.809 37.6158 13.9233C37.6031 13.9995 37.5904 14.0884 37.5777 14.1774C37.6539 14.3044 37.7555 14.4442 37.8444 14.5839C38.2001 14.5712 38.5431 14.5712 38.8861 14.5712C38.8607 15.1174 38.848 15.6764 38.8353 16.2354C38.6067 16.2354 37.1457 16.2354 36.9933 16.3878C37.1457 16.9468 37.1457 17.5312 36.9933 18.0901C36.9298 18.2553 36.8662 18.4331 36.8154 18.611C36.8917 18.8778 36.9806 19.1445 37.0568 19.4113C37.0568 19.6908 37.0568 19.9957 37.0187 20.2625C36.9552 20.453 36.879 20.6309 36.8281 20.8214C36.7011 20.9993 36.5741 21.1771 36.4724 21.3677C36.1802 21.2152 36.0786 21.1898 35.7483 21.1898C35.7102 21.355 35.6848 21.5328 35.6594 21.7107C35.4815 22.1553 35.1131 22.511 34.7447 22.7651C34.7447 23.0573 34.6685 23.1843 34.4652 23.3876C34.4652 23.5273 34.4525 23.6544 34.389 23.7941C34.3001 23.8449 34.2366 23.9084 34.1604 23.972C34.0968 24.2006 33.9317 24.4547 33.6903 24.5436C33.6014 24.5309 33.4998 24.5436 33.4235 24.5563C33.3727 25.1153 33.2457 25.5726 32.8773 26.0173C32.7375 26.1062 32.6105 26.2078 32.4962 26.3094C32.4835 26.843 32.4581 27.3893 32.4581 27.9355C32.3691 27.9355 32.2802 27.9355 32.204 27.9482C32.1151 28.2404 32.0515 28.5326 31.988 28.8375C32.204 29.1805 32.1913 29.5108 31.7848 29.7013C31.8991 31.5688 32.0261 33.4362 32.1405 35.3037C32.2167 35.3037 32.2929 35.3037 32.3818 35.3164C32.4072 35.0623 32.4199 34.8209 32.6105 34.6304C32.5851 34.5923 32.5597 34.5415 32.547 34.5034C32.547 34.3509 32.547 34.3001 32.5978 34.1477C32.3183 33.6141 32.674 33.1949 33.2203 33.0932C33.3346 33.1186 33.4489 33.1314 33.5633 33.1441C33.9698 33.2076 34.1858 33.5252 34.1349 33.9444C34.0968 33.9952 34.046 34.046 34.0206 34.1222C34.046 34.1731 34.0968 34.2366 34.1349 34.2874C34.1095 34.389 34.0841 34.4907 34.0714 34.605C34.2366 34.6812 34.3509 34.9226 34.4017 35.0877C34.4017 36.3835 34.4017 37.6793 34.4144 38.9878C34.4017 38.9878 34.389 39.0259 34.3763 39.0513C34.389 39.0513 34.4017 39.0513 34.4271 39.064C34.4398 40.2327 34.4525 41.4269 34.4652 42.6083C34.9861 42.6592 35.1639 42.7481 35.2275 43.2943C35.1767 43.4468 35.075 43.5611 34.9734 43.6882C34.7574 43.7136 34.5542 43.739 34.3382 43.7771C24.8358 43.7898 15.3588 43.8152 5.86913 43.8406ZM32.3564 15.6383C32.3564 15.3461 32.674 14.965 32.8138 14.7236C32.9027 14.5966 33.017 14.4696 33.1314 14.3425C33.1314 13.9868 33.1441 13.6311 33.1568 13.2881C33.7665 13.2881 34.389 13.6946 34.8845 13.9741C35.1385 14.1647 35.5832 14.5077 35.7229 14.7872C34.5669 14.9523 33.4616 15.2699 32.3564 15.6383ZM17.925 5.47531C17.7725 4.73849 17.6201 4.00168 17.4803 3.27756C17.7979 3.27756 18.1155 3.26486 18.4331 3.31568C18.3823 3.4046 18.3188 3.50623 18.268 3.62057C18.2553 3.7222 18.2553 3.84923 18.2553 3.97627C18.2807 4.0652 18.3061 4.14142 18.3442 4.24305C18.395 4.31927 18.4585 4.4082 18.5348 4.49712C18.4077 4.62416 18.3696 4.7639 18.395 4.96716C18.1791 5.1069 18.0774 5.28476 17.925 5.47531ZM5.05609 34.9099C5.04338 34.8845 5.04338 34.8464 5.04338 34.8337C5.11961 34.7447 5.20853 34.6431 5.29746 34.5669C5.24664 34.4525 5.18313 34.4144 5.20853 34.262C5.22124 34.2112 5.24664 34.1731 5.27205 34.1349C5.22124 34.0714 5.18313 34.0206 5.13231 33.9698C5.0942 33.5633 5.4372 33.4871 5.7675 33.4998C5.93265 33.5633 6.16131 33.7157 6.08509 33.9444C6.03428 34.0079 5.99616 34.0841 5.95805 34.1477C5.97076 34.1731 5.99616 34.1985 6.02157 34.2366C6.02157 34.2874 6.02157 34.3509 6.03428 34.4271C5.98346 34.4907 5.91994 34.5669 5.86913 34.6304C5.93265 34.7193 6.00887 34.7955 6.08509 34.8845C5.74209 34.8845 5.39909 34.8972 5.05609 34.9099ZM4.90364 35.3926C4.90364 35.3037 4.90364 35.2402 4.91635 35.1767C5.33557 35.1639 5.75479 35.1767 6.18672 35.1767C6.19942 35.2275 6.21213 35.291 6.22483 35.3672C5.7929 35.3672 5.34827 35.3799 4.90364 35.3926ZM32.8646 34.8845C32.89 34.7955 32.9281 34.732 32.9789 34.6558C33.0043 34.6177 33.0424 34.5796 33.0805 34.5415C33.017 34.5415 32.9281 34.4271 32.89 34.389C32.89 34.2366 32.9027 34.1858 33.0043 34.0968C32.8646 33.9571 32.7629 33.8428 32.8646 33.6395C33.017 33.4871 33.1441 33.4871 33.3473 33.4489C33.6268 33.4998 33.8174 33.6395 33.7919 33.9571C33.7411 34.0079 33.6649 34.0714 33.6649 34.1604C33.7919 34.2493 33.6776 34.4271 33.6395 34.5161C33.7157 34.6304 33.8174 34.7447 33.919 34.8718C33.5506 34.8718 33.2076 34.8718 32.8646 34.8845ZM33.3346 35.3672C33.1314 35.3418 32.9154 35.3291 32.7121 35.3291C32.7121 35.2656 32.7121 35.2021 32.7248 35.1385C33.1568 35.1385 33.6014 35.1512 34.0333 35.1767C34.0333 35.2275 34.0333 35.2783 34.0333 35.3545C33.8046 35.3418 33.5633 35.3545 33.3346 35.3672ZM6.30105 43.4722C5.64046 43.4468 4.97987 43.4468 4.33197 43.4468C4.15412 43.3833 4.11601 43.3325 4.11601 43.1546C4.14142 43.1038 4.17953 43.0657 4.23035 43.0403C14.406 43.0276 24.5817 43.0149 34.7574 43.0149C34.8591 43.1038 34.8591 43.2308 34.7828 43.3452C34.6685 43.3579 34.5669 43.3833 34.4525 43.4087C25.0645 43.4214 15.6764 43.4468 6.30105 43.4722ZM31.1623 12.1321C30.9336 11.9923 30.8828 11.7891 30.9844 11.4969C31.0606 11.3317 31.1242 11.1666 31.2131 11.0141C31.2258 11.0141 31.2512 11.0141 31.2766 11.0141C31.4163 11.2428 31.5053 11.4588 31.5942 11.7128C31.5561 12.0177 31.4672 12.094 31.1623 12.1321ZM31.1369 12.7418C31.0733 12.7164 30.9971 12.7037 30.9463 12.691C30.9463 12.564 30.9717 12.5005 31.0733 12.4243C31.2512 12.4243 31.7848 12.3734 31.5688 12.7037C31.4163 12.7164 31.2766 12.7291 31.1369 12.7418ZM36.8535 14.0757C36.5614 13.9233 36.536 13.7581 36.7011 13.4024C36.7773 13.3008 36.8408 13.1992 36.9298 13.1103C36.9552 13.1357 36.9933 13.1738 37.0314 13.2119C37.2347 13.6184 37.4252 13.9614 36.8535 14.0757ZM36.6376 14.6601C36.6249 14.6347 36.6122 14.6093 36.6122 14.5839C36.6503 14.5077 36.6884 14.4569 36.7392 14.406C36.9298 14.3933 37.1076 14.3806 37.2855 14.3806C37.349 14.4442 37.4125 14.5077 37.4379 14.6093C37.1584 14.622 36.8917 14.6347 36.6376 14.6601ZM32.0896 16.5149C32.0769 16.4895 32.0642 16.4767 32.0642 16.464C32.0896 16.337 32.1151 16.21 32.1405 16.0829C34.046 15.2953 36.0024 15.0285 38.0477 14.8888C37.8698 14.9904 37.6793 15.1047 37.5141 15.2318C37.0822 15.2699 36.6503 15.3207 36.2184 15.3842C35.634 15.4859 35.0369 15.6002 34.4525 15.7145C34.1095 15.8035 33.7792 15.8924 33.4489 15.994C32.9916 16.1592 32.5343 16.337 32.0896 16.5149ZM32.0261 17.3787C32.0261 17.2263 32.0261 17.0865 32.0261 16.9341C32.2802 16.807 32.547 16.68 32.8138 16.553C33.5633 16.2989 34.3382 16.0829 35.1131 15.8924C35.4815 15.8289 35.8627 15.7526 36.2311 15.6891C36.7138 15.6129 37.1965 15.5494 37.692 15.4986C37.8825 15.3715 38.3018 14.9904 38.5431 14.9904C38.5304 15.2953 38.505 15.6002 38.505 15.9051C37.7682 15.9813 37.0314 16.0448 36.3073 16.1337C34.8464 16.3624 33.36 16.7181 32.0261 17.3787ZM18.2426 6.89813C18.1791 6.83461 18.1536 6.59324 18.1536 6.49161C18.2553 6.51702 18.3569 6.55513 18.4458 6.59324C18.4458 6.73298 18.3823 6.86002 18.2426 6.89813ZM17.3914 2.75671C17.2517 2.10882 17.0992 1.43552 16.9976 0.787632C17.2009 0.647891 17.4549 1.21956 17.5185 1.3593C17.5947 1.75312 17.7598 2.46453 17.3914 2.75671ZM20.796 3.31568C20.6436 3.29027 20.4911 3.26486 20.3387 3.22675C20.2752 3.13782 20.1989 3.0489 20.1354 2.97267C20.1227 2.88375 20.0465 2.65508 19.9703 2.60427C19.983 2.43912 20.0084 2.27397 20.0338 2.10882C19.9703 1.65149 19.6146 1.27037 19.3986 0.889262C19.1826 0.889262 18.8396 1.76582 18.7507 2.0326C18.7507 2.22315 18.7507 2.42641 18.7888 2.62967C18.7507 2.68049 18.7126 2.7313 18.6872 2.78212C18.6745 2.84564 18.6745 2.90916 18.6745 2.98538C18.395 2.94727 18.1155 2.89645 17.8361 2.85834C17.9377 2.3883 18.052 1.94367 17.9504 1.46093C17.8742 1.16874 17.7217 0.889262 17.5947 0.609779C17.7598 0.444631 18.6237 0.558964 18.8651 0.571668C19.1572 0.635187 19.4748 0.711409 19.7416 0.825743C20.5165 1.21956 21.4058 1.65149 22.2697 1.76582C22.4475 1.75312 22.6508 1.74041 22.8413 1.72771C22.2315 2.22315 21.4058 2.0453 20.6817 1.93097C20.6817 2.28667 20.9612 2.52804 21.1771 2.78212C21.3423 2.84564 21.5328 2.90916 21.7107 2.99808C21.8377 3.01079 21.9521 3.02349 22.0791 3.0489C21.8631 3.27756 21.0501 3.30297 20.796 3.31568ZM19.3351 2.46453C19.0683 2.33749 19.0937 2.23586 19.0937 1.96908C19.1826 1.84204 19.2589 1.715 19.3478 1.58797C19.424 1.58797 19.6019 1.85475 19.64 1.90556C19.7416 2.23586 19.64 2.3883 19.3351 2.46453ZM19.2716 3.01079C19.1445 2.94727 19.0429 2.90916 19.0683 2.7313C19.2462 2.68049 19.424 2.68049 19.6273 2.66779C19.6527 2.69319 19.6781 2.7186 19.7162 2.74401C19.7162 3.02349 19.5002 2.98538 19.2716 3.01079ZM19.3351 4.39549C19.081 4.34468 18.9032 4.19223 18.738 4.02709C18.5983 3.59516 18.7888 3.3919 19.1699 3.23945C19.3478 3.23945 19.5384 3.23945 19.7289 3.26486C20.0465 3.46812 20.0465 3.53164 20.11 3.86194C20.0719 4.0652 19.8559 4.24305 19.6781 4.31927C19.5511 4.33197 19.4494 4.37009 19.3351 4.39549ZM19.3478 4.94175C19.1699 4.94175 18.9921 4.89094 18.8269 4.84012C18.8269 4.78931 18.8269 4.7512 18.8269 4.71309C18.8523 4.67498 18.8778 4.64957 18.9032 4.63686C19.2335 4.63686 19.5638 4.63686 19.9195 4.63686C20.0973 5.01798 19.4875 4.80201 19.3478 4.94175ZM19.3224 6.37728C18.8523 6.31376 17.9631 6.14861 18.3569 5.48802C18.7253 5.1069 19.5002 5.17042 19.983 5.23394C20.2498 5.31016 20.3895 5.39909 20.5165 5.65316C20.5165 5.70398 20.5165 5.7675 20.5292 5.84372C20.3133 6.30105 19.7797 6.32646 19.3224 6.37728ZM18.5475 7.16491C18.6618 6.99976 18.7761 6.83461 18.9032 6.68217C19.2208 6.66946 19.5384 6.66946 19.8686 6.66946C19.983 6.82191 20.0973 6.97435 20.2116 7.1395C19.6527 7.1395 19.0937 7.1522 18.5475 7.16491ZM17.4549 8.19391C17.3152 8.05417 17.2644 8.02876 17.366 7.86361C18.5348 7.33006 20.0973 7.31735 21.2788 7.78739C21.4185 7.86361 21.482 7.95254 21.4566 8.11769C21.2915 8.28284 20.5165 8.04147 20.3133 8.01606C19.7162 7.99065 19.1318 7.99065 18.5475 7.99065C18.1791 8.05417 17.8106 8.11769 17.4549 8.19391ZM11.319 12.221C11.3063 12.2083 11.2936 12.1956 11.2936 12.1956C11.6874 11.9161 12.0813 11.6366 12.4878 11.3698C13.0467 10.9633 13.6311 10.5822 14.2155 10.1884C14.7236 9.88351 15.2445 9.57862 15.7653 9.29914C16.4386 8.96884 17.1246 8.68936 17.8233 8.47339C18.0266 8.43528 18.2299 8.39717 18.4331 8.37176C19.1445 8.32095 19.8941 8.29554 20.6055 8.40987C21.2915 8.56232 21.9648 8.76558 22.6254 9.05777C22.727 9.10858 22.854 9.1721 22.9811 9.22291C23.6544 9.61673 24.3277 10.0233 25.0264 10.4298C25.8648 11.0014 26.7033 11.5858 27.5417 12.1702C27.3003 12.1194 27.0717 12.094 26.8303 12.0686C25.3567 11.6874 23.8576 11.2047 22.3713 10.849C21.2915 10.6838 20.2116 10.5822 19.1318 10.5695C18.4585 10.6203 17.8106 10.6711 17.1628 10.7347C15.1937 11.065 13.3008 11.8653 11.319 12.221ZM7.59684 14.1266C7.08869 14.0503 6.59324 13.9995 6.08509 13.9487C6.05968 13.4151 6.04698 12.8943 6.03428 12.3861C6.55513 12.4624 6.64406 12.6148 6.96165 13.034C7.35546 13.0467 7.76198 13.0594 8.18121 13.0721C10.5695 12.9324 12.8943 12.2464 15.181 11.5477C15.524 11.4461 15.867 11.3698 16.21 11.2809C16.6292 11.2047 17.0357 11.1285 17.4676 11.065C17.8869 11.0014 18.2934 10.9633 18.7126 10.9252C19.2081 10.9252 19.7035 10.9252 20.2116 10.9379C21.3423 11.0141 22.4856 11.2555 23.5908 11.5096C24.7215 11.8272 25.8648 12.1575 27.0082 12.4878C27.5798 12.5894 28.1388 12.7164 28.7105 12.8435C29.7776 12.9705 30.8193 13.1103 31.8864 12.9832C32.1151 12.6402 32.3564 12.3226 32.8138 12.3607C32.8011 12.8562 32.7756 13.3643 32.7629 13.8725C32.547 13.9233 32.331 13.9614 32.1023 13.9995C30.489 14.152 28.8756 14.0122 27.2622 13.7963C26.843 13.7073 26.4365 13.6311 26.03 13.5422C24.5563 13.1738 23.07 12.8054 21.5709 12.5513C21.1644 12.5132 20.7833 12.4624 20.3895 12.437C19.8559 12.4243 19.3224 12.4116 18.7888 12.4116C18.3442 12.437 17.8869 12.4878 17.4422 12.5259C15.3334 12.8435 13.2754 13.5295 11.1539 13.8725C10.5314 13.9487 9.93432 14.0122 9.32454 14.0884C8.74017 14.1012 8.1558 14.1139 7.59684 14.1266ZM7.59684 12.1829C7.01246 12.0431 7.33006 11.3826 7.57143 11.0523C7.58413 11.0395 7.59684 11.0523 7.62224 11.0523C7.74928 11.3698 8.18121 12.0558 7.59684 12.1829ZM7.43169 12.78C7.35546 12.7291 7.29195 12.7037 7.21572 12.6783C7.21572 12.6402 7.21572 12.6148 7.21572 12.5894C7.24113 12.5513 7.26654 12.5132 7.30465 12.4878C7.4698 12.4878 7.63495 12.437 7.8001 12.4878C7.8255 12.5386 7.91443 12.6656 7.88902 12.7291C7.73658 12.7418 7.58413 12.7546 7.43169 12.78ZM2.01989 14.7236C1.82934 14.6982 1.62608 14.6728 1.44823 14.6601C1.43552 14.6347 1.43552 14.622 1.43552 14.6093C1.46093 14.5585 1.51174 14.495 1.54986 14.4569C1.74041 14.4569 1.93097 14.4569 2.12152 14.4696C2.17234 14.5331 2.21045 14.6093 2.24856 14.6982C2.17234 14.6982 2.08341 14.7109 2.01989 14.7236ZM1.88015 14.1266C1.39741 13.936 1.6896 13.4914 1.90556 13.1865C1.91826 13.1865 1.93097 13.1865 1.95638 13.1865C2.12152 13.4533 2.43912 13.8598 2.07071 14.1012C2.00719 14.1012 1.93097 14.1139 1.88015 14.1266ZM6.4408 15.6891C5.99616 15.5367 5.55153 15.3842 5.11961 15.2318C4.45901 15.092 3.79842 14.9523 3.13782 14.8126C3.31568 14.622 3.49353 14.4314 3.68408 14.2536C3.91275 14.0884 4.14142 13.936 4.38279 13.7836C4.62416 13.6565 4.87824 13.5422 5.13231 13.4279C5.32287 13.3897 5.51342 13.3643 5.70398 13.3389C5.70398 13.6692 5.70398 14.0122 5.71668 14.3552C5.81831 14.4823 5.91994 14.6093 6.03428 14.749C6.13591 14.9142 6.51702 15.4477 6.51702 15.6764C6.49161 15.6764 6.4662 15.6764 6.4408 15.6891ZM6.69487 16.5403C6.27565 16.3751 5.85642 16.21 5.4372 16.0448C4.64957 15.8416 3.83653 15.6383 3.03619 15.4986C2.47723 15.4223 1.91826 15.3588 1.372 15.2953C1.19415 15.181 1.0036 15.0666 0.825743 14.9523C2.68049 14.9523 4.61146 15.3715 6.35187 15.9686C6.4662 16.0067 6.56783 16.0575 6.69487 16.121C6.72028 16.2481 6.75839 16.3878 6.7965 16.5276C6.75839 16.5276 6.72028 16.5276 6.69487 16.5403ZM6.83461 17.4295C6.63135 17.3279 6.42809 17.2263 6.22483 17.1373C5.53883 16.8706 4.80201 16.68 4.10331 16.4767C3.7476 16.3878 3.37919 16.3243 3.02349 16.2481C2.14693 16.1337 1.24497 16.0321 0.355705 15.9813C0.343001 15.6764 0.343001 15.3715 0.343001 15.0666C0.558964 15.0666 0.990892 15.435 1.16874 15.5494C1.56256 15.6383 2.01989 15.6764 2.41371 15.7145C3.86194 15.9305 5.57694 16.2227 6.84732 16.9849C6.84732 17.0611 6.87272 17.3787 6.83461 17.4295ZM18.2172 42.6973C13.7709 42.6846 9.33725 42.6719 4.90364 42.6592C4.90364 40.3344 4.90364 38.0223 4.91635 35.7229C5.64046 35.7229 6.35187 35.7229 7.08869 35.7229C7.21572 33.7792 7.34276 31.8356 7.4825 29.9046C7.4825 29.7522 7.4825 29.5997 7.4825 29.4727C7.27924 29.3965 7.06328 29.3202 7.17761 29.0535C7.21572 29.028 7.24113 29.0026 7.27924 28.9772C7.27924 28.5834 7.10139 28.0753 6.99976 27.6687C6.93624 27.6687 6.86002 27.6687 6.8092 27.6687C6.8092 27.1479 6.8092 26.6397 6.8092 26.1316C5.97076 25.8521 5.72939 24.9247 5.91994 24.1244C5.66587 24.1752 5.24664 24.3531 5.13231 23.9974C5.13231 23.9338 5.15772 23.8576 5.17042 23.8068C5.04338 23.7687 4.94175 23.6798 4.85283 23.5781C4.85283 23.4638 4.86553 23.3368 4.87824 23.2224C4.71309 23.1589 4.57335 23.1208 4.49712 22.943C4.50983 22.8159 4.53523 22.6889 4.56064 22.5745C4.0779 22.3078 3.78571 22.0918 3.54434 21.5964C3.53164 21.355 3.51894 21.139 3.51894 20.9231C3.35379 20.8722 3.18864 20.8468 3.02349 20.8214C2.84564 20.8468 2.68049 20.8722 2.51534 20.9231C2.29938 20.4657 2.18504 20.0592 2.22315 19.5511C2.31208 19.2335 2.40101 18.9286 2.50264 18.6237C2.12152 18.052 2.00719 17.1755 2.26127 16.5403C2.27397 16.5276 2.29938 16.5149 2.32478 16.5022C3.98897 16.6927 5.72939 17.2263 7.21572 18.0139C7.21572 17.7852 7.21572 17.5566 7.24113 17.3152C7.24113 16.9468 7.1395 16.553 7.08869 16.1973C6.92354 15.5621 6.56783 14.9523 6.19942 14.4314C6.19942 14.406 6.19942 14.3806 6.21213 14.3552C6.97435 14.3933 7.74928 14.4187 8.52421 14.4569C9.68025 14.4187 10.8363 14.279 11.9923 14.0884C13.3389 13.7581 14.6982 13.4279 16.0575 13.0849C16.9595 12.9705 17.8742 12.8308 18.7761 12.7418C20.326 12.7418 21.8758 12.8816 23.3749 13.2119C24.4166 13.466 25.4456 13.72 26.5 13.9868C26.9065 14.0503 27.3003 14.1266 27.7196 14.2155C28.3929 14.2663 29.0662 14.3298 29.7395 14.406C30.273 14.406 30.7939 14.406 31.3274 14.406C31.7339 14.3806 32.2548 14.279 32.6613 14.3425C32.4326 14.6982 32.204 15.0539 32.0261 15.4223C31.9372 15.6383 31.861 15.867 31.7848 16.0829C31.6958 16.7054 31.5561 17.3533 31.7085 17.9758C33.0932 17.1119 34.9226 16.7054 36.5105 16.4513C36.6376 16.4513 36.6757 16.6673 36.7011 16.7689C36.7773 17.3152 36.7138 18.0647 36.3835 18.5348C36.3835 18.8269 36.5614 19.1826 36.6503 19.4494C36.6503 19.64 36.6503 19.8178 36.663 19.9957C36.6122 20.3133 36.4851 20.6055 36.3581 20.8977C36.2311 20.8468 36.104 20.8087 36.0024 20.7833C35.761 20.7833 35.5705 20.8087 35.3672 20.8722C35.3672 21.1898 35.3672 21.5074 35.2275 21.7996C35.1385 21.9012 35.0623 22.0156 34.9734 22.1172C34.7574 22.2697 34.5288 22.4475 34.3001 22.5618C34.3255 22.6635 34.3509 22.7524 34.4017 22.854C34.2874 23.07 34.2366 23.1208 34.0079 23.197C34.0206 23.3114 34.0333 23.4257 34.046 23.5273C33.9444 23.6417 33.8555 23.7052 33.7411 23.7687C33.7411 23.9847 33.7792 24.0228 33.5633 24.1752C33.3727 24.1879 33.1568 24.1498 32.9789 24.0736C33.1186 24.7596 33.017 25.2931 32.5597 25.8267C32.4199 25.9283 32.2675 26.03 32.1023 26.0808C32.1023 26.5889 32.1023 27.1098 32.1023 27.6306C32.0388 27.6306 31.9626 27.6433 31.8991 27.656C31.7975 28.0626 31.7085 28.4564 31.6196 28.8629C31.6196 29.0535 31.8102 29.0662 31.7339 29.3202C31.6196 29.3583 31.5307 29.3965 31.4291 29.4346C31.5688 31.518 31.7085 33.6141 31.8483 35.7102C32.5597 35.6975 33.2965 35.6975 34.0206 35.6975C34.0333 37.9969 34.046 40.309 34.0714 42.6083C28.774 42.6337 23.4892 42.6719 18.2172 42.6973Z" fill="black"/>
<path d="M39.8135 11.1162C39.3943 11.1162 39.0386 11.256 38.7591 11.5481C38.4669 11.8276 38.3145 12.2214 38.3145 12.6153C38.3145 13.0091 38.4669 13.3775 38.7464 13.6697C39.0259 13.9491 39.407 14.1143 39.8135 14.1143C40.1946 14.1143 40.5757 13.9618 40.8679 13.6824C41.1601 13.4029 41.3125 13.0345 41.3125 12.6153C41.3125 12.2087 41.1601 11.8403 40.8806 11.5608C40.5884 11.2687 40.22 11.1162 39.8135 11.1162ZM39.8135 11.3322C40.1692 11.3322 40.4741 11.4719 40.7282 11.7133C40.9695 11.9674 41.0966 12.2723 41.0966 12.6407C41.0966 12.971 40.9568 13.2886 40.7155 13.5172C40.4614 13.7586 40.1438 13.8983 39.7881 13.8983C39.4705 13.8983 39.1529 13.7586 38.8988 13.5045C38.6575 13.2631 38.5304 12.9455 38.5304 12.6153C38.5304 12.2723 38.6702 11.9547 38.9242 11.7006C39.1656 11.4592 39.4578 11.3322 39.8135 11.3322ZM39.191 11.7514V13.4283H39.5594V12.7296H39.8135L40.1565 13.4283H40.5503L40.1819 12.6661C40.4233 12.6153 40.5503 12.4501 40.5503 12.2087C40.5503 11.9038 40.3216 11.7514 39.8389 11.7514H39.191ZM39.5594 11.9674H39.7754C40.0549 11.9674 40.1819 12.0563 40.1819 12.2468C40.1819 12.4247 40.0549 12.5009 39.8008 12.5009H39.5594V11.9674Z" fill="black"/>
</g>
<defs>
<clipPath id="clip0_347_9307">
<rect width="41.3126" height="53" fill="white"/>
</clipPath>
</defs>
</svg>
