<svg width="20" height="20" viewBox="0 0 20 20" fill="none" xmlns="http://www.w3.org/2000/svg">
<path fill-rule="evenodd" clip-rule="evenodd" d="M10 20C15.5228 20 20 15.5228 20 10C20 4.47715 15.5228 0 10 0C4.47715 0 0 4.47715 0 10C0 15.5228 4.47715 20 10 20ZM15.2126 7.30689C15.5662 6.88262 15.5088 6.25205 15.0846 5.89849C14.6603 5.54492 14.0297 5.60225 13.6762 6.02653L9.52266 11.0107C9.17594 11.4268 8.98102 11.6571 8.82541 11.7987L8.81946 11.8041L8.81305 11.7993C8.64526 11.6724 8.43029 11.4606 8.04733 11.0777L6.26261 9.29294C5.87208 8.90241 5.23892 8.90241 4.84839 9.29294C4.45787 9.68346 4.45787 10.3166 4.84839 10.7071L6.63311 12.4919L6.67394 12.5327L6.67395 12.5327C7.00045 12.8593 7.31453 13.1735 7.60677 13.3945C7.93413 13.6421 8.36285 13.8748 8.91226 13.8499C9.46167 13.825 9.86756 13.5544 10.1712 13.2782C10.4422 13.0317 10.7266 12.6903 11.0221 12.3355L11.0591 12.2911L15.2126 7.30689Z" fill="#7A6855"/>
</svg>
