<svg width="12" height="12" viewBox="0 0 12 12" fill="none" xmlns="http://www.w3.org/2000/svg">
<path fill-rule="evenodd" clip-rule="evenodd" d="M11.5856 1.28033C11.8785 0.987437 11.8785 0.512563 11.5856 0.21967C11.2927 -0.0732233 10.8178 -0.0732233 10.5249 0.21967L5.90266 4.84192L1.2804 0.21967C0.987511 -0.0732233 0.512636 -0.0732233 0.219744 0.21967C-0.0731497 0.512563 -0.0731497 0.987437 0.219744 1.28033L4.842 5.90258L0.21967 10.5249C-0.0732233 10.8178 -0.0732233 11.2927 0.21967 11.5856C0.512563 11.8785 0.987437 11.8785 1.28033 11.5856L5.90266 6.96324L10.525 11.5856C10.8179 11.8785 11.2927 11.8785 11.5856 11.5856C11.8785 11.2927 11.8785 10.8178 11.5856 10.5249L6.96331 5.90258L11.5856 1.28033Z" fill="black"/>
<path fill-rule="evenodd" clip-rule="evenodd" d="M11.5856 1.28033C11.8785 0.987437 11.8785 0.512563 11.5856 0.21967C11.2927 -0.0732233 10.8178 -0.0732233 10.5249 0.21967L5.90266 4.84192L1.2804 0.21967C0.987511 -0.0732233 0.512636 -0.0732233 0.219744 0.21967C-0.0731497 0.512563 -0.0731497 0.987437 0.219744 1.28033L4.842 5.90258L0.21967 10.5249C-0.0732233 10.8178 -0.0732233 11.2927 0.21967 11.5856C0.512563 11.8785 0.987437 11.8785 1.28033 11.5856L5.90266 6.96324L10.525 11.5856C10.8179 11.8785 11.2927 11.8785 11.5856 11.5856C11.8785 11.2927 11.8785 10.8178 11.5856 10.5249L6.96331 5.90258L11.5856 1.28033Z" fill="#2D2926" fill-opacity="0.2"/>
</svg>
