<svg width="21" height="22" viewBox="0 0 21 22" fill="none" xmlns="http://www.w3.org/2000/svg">
<path fill-rule="evenodd" clip-rule="evenodd" d="M20.2929 2.41414C20.6834 2.02361 20.6834 1.39045 20.2929 0.999924C19.9024 0.6094 19.2692 0.6094 18.8787 0.999924L10.2929 9.58571L1.70712 0.999924C1.3166 0.6094 0.683432 0.6094 0.292906 0.999924C-0.0976181 1.39045 -0.0976181 2.02361 0.292906 2.41414L8.8787 10.9999L0.292893 19.5857C-0.0976311 19.9763 -0.0976311 20.6094 0.292893 20.9999C0.683417 21.3905 1.31658 21.3905 1.70711 20.9999L10.2929 12.4141L18.8787 20.9999C19.2692 21.3905 19.9024 21.3905 20.2929 20.9999C20.6835 20.6094 20.6835 19.9763 20.2929 19.5857L11.7071 10.9999L20.2929 2.41414Z" fill="black"/>
<path fill-rule="evenodd" clip-rule="evenodd" d="M20.2929 2.41414C20.6834 2.02361 20.6834 1.39045 20.2929 0.999924C19.9024 0.6094 19.2692 0.6094 18.8787 0.999924L10.2929 9.58571L1.70712 0.999924C1.3166 0.6094 0.683432 0.6094 0.292906 0.999924C-0.0976181 1.39045 -0.0976181 2.02361 0.292906 2.41414L8.8787 10.9999L0.292893 19.5857C-0.0976311 19.9763 -0.0976311 20.6094 0.292893 20.9999C0.683417 21.3905 1.31658 21.3905 1.70711 20.9999L10.2929 12.4141L18.8787 20.9999C19.2692 21.3905 19.9024 21.3905 20.2929 20.9999C20.6835 20.6094 20.6835 19.9763 20.2929 19.5857L11.7071 10.9999L20.2929 2.41414Z" fill="#2F2B27" fill-opacity="0.2"/>
</svg>
