<svg width="38" height="40" viewBox="0 0 38 40" fill="none" xmlns="http://www.w3.org/2000/svg">
<path fill-rule="evenodd" clip-rule="evenodd" d="M14.7538 0.304068C14.485 0.471102 14.1842 0.761732 14.0852 0.950173C13.7665 1.55706 10.7222 13.1696 10.6227 14.1585C10.5561 14.8198 10.6827 16.4089 11.0333 19.3148C11.3119 21.6252 11.4937 23.7012 11.4371 23.928C11.3642 24.2199 10.8124 24.7304 9.55204 25.6718C7.87588 26.9237 7.74291 26.9931 7.31271 26.8403C6.68819 26.6185 5.73485 26.9209 5.3956 27.4484C5.25251 27.6709 5.09746 28.1362 5.05114 28.4825C4.97001 29.0878 4.87216 29.183 2.51289 30.9514C1.16325 31.9632 0.035989 32.9046 0.00792254 33.0435C-0.052658 33.344 0.245183 33.7499 0.526154 33.7499C0.635813 33.7499 1.81399 32.9343 3.144 31.9372C5.54376 30.1386 5.56676 30.1259 6.10815 30.2936C6.53636 30.4263 6.70997 30.5997 6.91426 31.0988C7.1144 31.5875 7.31838 31.7963 7.79505 32.0002C8.25255 32.1958 8.45899 32.3982 8.58091 32.7707C8.75422 33.2999 9.43916 33.9062 9.86369 33.9062C10.0003 33.9062 10.1822 34.0937 10.2678 34.323C10.4155 34.7187 10.3141 34.8521 8.27019 36.9523C7.08603 38.1692 6.11705 39.2684 6.11705 39.3948C6.11705 39.6942 6.42225 40 6.72086 40C6.85046 40 7.90732 39.0333 9.06939 37.8515L11.1823 35.7031H11.9589C12.6627 35.7031 12.7858 35.6471 13.2714 35.1073C13.737 34.5898 13.802 34.421 13.766 33.8241L13.7244 33.1371L16.1004 30.67C17.4071 29.3131 18.568 27.9743 18.6801 27.6951C18.7922 27.4159 18.936 27.1873 19 27.1873C19.064 27.1873 19.2078 27.4159 19.3199 27.6951C19.432 27.9743 20.5923 29.3125 21.8982 30.6686L24.2727 33.1341L24.232 33.9146C24.195 34.6257 24.2398 34.7444 24.736 35.2499C25.2341 35.7574 25.3468 35.8012 26.0579 35.7627L26.835 35.7207L28.9392 37.8603C30.0965 39.0372 31.1495 40 31.2791 40C31.5776 40 31.8829 39.6942 31.8829 39.3953C31.8829 39.2691 30.9396 38.1956 29.7866 37.0101L27.69 34.8546L28.4342 34.0288C30.5605 31.6694 32.2299 30.0067 32.3783 30.1002C32.4696 30.1577 33.6087 31.0024 34.9094 31.9774C36.2101 32.9522 37.3642 33.7499 37.4738 33.7499C37.7548 33.7499 38.0527 33.344 37.9921 33.0435C37.964 32.9046 36.8368 31.9628 35.4871 30.951L33.0332 29.1112L33.0191 28.4584C33.0013 27.6442 32.7084 27.07 32.1644 26.7834C31.6751 26.5256 30.7614 26.4939 30.3462 26.7203C30.1062 26.851 29.7668 26.661 28.3608 25.6081C27.1742 24.7191 26.6344 24.2144 26.5626 23.9266C26.5062 23.7004 26.6881 21.6252 26.9667 19.3148C27.3173 16.4089 27.4439 14.8198 27.3773 14.1585C27.2778 13.1696 24.2335 1.55706 23.9148 0.950173C23.6672 0.478759 22.8522 0.000626352 22.295 1.34176e-06C21.6251 -0.000936173 20.83 0.48954 20.5072 1.10283C20.2544 1.58284 20.2269 2.07472 20.2269 6.11353V10.5919L19.6135 10.9011C19.0021 11.2092 18.9979 11.2092 18.3865 10.9011L17.7731 10.5919V6.11353C17.7731 2.07472 17.7456 1.58284 17.4928 1.10283C16.96 0.0907838 15.6923 -0.278909 14.7538 0.304068ZM16.3621 1.4369C16.4969 1.57424 16.5461 2.8538 16.5461 6.21916V10.8139L16.1441 11.1361C15.4759 11.6716 15.3192 12.2986 15.3192 14.4365C15.3192 15.9982 15.3669 16.4321 15.5601 16.6292C15.6928 16.7642 15.8604 16.8746 15.9326 16.8746C16.0049 16.8746 16.1725 16.7642 16.3052 16.6292C16.4987 16.4318 16.5461 15.9962 16.5461 14.4148C16.5461 12.8021 16.592 12.3944 16.7999 12.1603C17.1283 11.7907 17.8076 11.7942 18.139 12.1674C18.3766 12.4347 18.3951 13.041 18.3545 19.1597L18.3098 25.8592L17.8738 26.7185C17.5766 27.3045 16.7232 28.3112 15.1919 29.8827C12.7186 32.4205 12.4039 32.5966 12.0196 31.6592C11.7653 31.0392 10.9738 30.3123 10.5529 30.3123C10.3555 30.3123 10.258 30.2038 10.258 29.9842C10.258 29.5594 9.31003 28.5936 8.89302 28.5936C8.65668 28.5936 8.57094 28.4953 8.57094 28.2243C8.57094 27.9364 8.92216 27.5926 10.1683 26.6612C11.9754 25.3102 12.5062 24.7423 12.6378 24.0187C12.6881 23.7418 12.5183 21.8199 12.2605 19.7475C11.5673 14.1758 11.5185 14.6944 13.3951 7.68059C14.2767 4.38554 15.0788 1.59065 15.1774 1.46956C15.3966 1.20049 16.1107 1.1808 16.3621 1.4369ZM22.8226 1.46956C22.9212 1.59065 23.7233 4.38554 24.6048 7.68059C26.4815 14.6944 26.4327 14.1758 25.7395 19.7475C25.4817 21.8199 25.311 23.7368 25.3602 24.0074C25.4919 24.7323 25.9211 25.2027 27.6856 26.5562C29.0312 27.5882 29.2393 27.8048 29.045 27.969C28.7154 28.2478 28.7602 28.865 29.1245 29.0636C29.3899 29.2083 29.5485 29.1211 30.2513 28.444C30.7011 28.0106 31.1747 27.6561 31.3038 27.6561C31.7023 27.6561 31.9532 28.0972 31.7943 28.5178C31.6126 28.9989 26.2473 34.6874 25.9754 34.6874C25.6978 34.6874 25.2881 34.2519 25.2881 33.9568C25.2881 33.8251 25.9783 32.9936 26.8218 32.1093C27.6653 31.2249 28.3555 30.4023 28.3555 30.2817C28.3555 29.9828 28.0431 29.6873 27.7273 29.6873C27.5842 29.6873 26.9371 30.2613 26.2894 30.9627L25.1117 32.2382L22.8882 29.9861C21.2932 28.3709 20.5266 27.4692 20.1773 26.7967L19.6902 25.8592L19.6455 19.1597C19.6049 13.041 19.6234 12.4347 19.861 12.1674C20.1826 11.8053 20.8004 11.7892 21.1734 12.1332C21.4295 12.3693 21.4539 12.7013 21.4539 15.9502C21.4539 18.9767 21.4899 19.5453 21.6948 19.7542C21.9976 20.0625 22.1372 20.0625 22.4399 19.7542C22.6446 19.5455 22.6808 18.9812 22.6808 15.999C22.6808 12.1947 22.6028 11.7347 21.8559 11.1361L21.4539 10.8139V6.21916C21.4539 2.8538 21.5031 1.57424 21.6379 1.4369C21.8893 1.1808 22.6034 1.20049 22.8226 1.46956ZM15.5601 18.3701C15.1192 18.8195 15.3889 19.9997 15.9326 19.9997C16.2116 19.9997 16.5461 19.4886 16.5461 19.0622C16.5461 18.6358 16.2116 18.1247 15.9326 18.1247C15.8604 18.1247 15.6928 18.2351 15.5601 18.3701ZM7.26731 28.5936C7.26731 29.0456 7.20596 29.1494 6.9138 29.1915C6.2606 29.2858 5.86307 28.6023 6.30768 28.1493C6.41259 28.0425 6.67132 27.9757 6.88282 28.0009C7.21149 28.04 7.26731 28.1262 7.26731 28.5936ZM8.94348 29.9328C9.27429 30.27 9.24546 30.5636 8.85391 30.843C8.24994 31.2739 7.63034 30.6345 8.0544 30.0178C8.32448 29.6248 8.61389 29.5972 8.94348 29.9328ZM10.7948 32.0922C10.7948 32.9057 9.82197 33.0669 9.66983 32.2786C9.57029 31.7628 9.77289 31.5402 10.2953 31.5914C10.7328 31.6344 10.7948 31.6966 10.7948 32.0922ZM12.4818 33.9062C12.4818 34.3582 12.4205 34.4619 12.1283 34.5041C11.4751 34.5984 11.0776 33.9149 11.5222 33.4619C11.6271 33.3551 11.8858 33.2883 12.0973 33.3135C12.426 33.3526 12.4818 33.4388 12.4818 33.9062Z" fill="#2F2B27"/>
</svg>
