<svg width="20" height="19" viewBox="0 0 20 19" fill="none" xmlns="http://www.w3.org/2000/svg">
<path d="M7.28816 1.9676C7.28816 1.9676 7.77185 1 9.70658 1C11.6413 1 12.125 1.96737 12.125 1.96737" stroke="#2D2926" stroke-width="1.5" stroke-linecap="round"/>
<path d="M1 4.7085H18.4126V4.7085C16.5427 4.7085 15.0268 6.22436 15.0268 8.09428V11.9638C15.0268 13.5039 15.0268 14.274 14.7991 14.8895C14.4278 15.8936 13.6362 16.6852 12.6321 17.0566C12.0165 17.2843 11.2464 17.2843 9.70631 17.2843V17.2843C8.16617 17.2843 7.39611 17.2843 6.78052 17.0566C5.77645 16.6852 4.98483 15.8936 4.61347 14.8895C4.38579 14.274 4.38579 13.5039 4.38579 11.9638V8.09428C4.38579 6.22436 2.86992 4.7085 1 4.7085V4.7085Z" stroke="#2D2926" stroke-width="1.5" stroke-linecap="round"/>
<path d="M7.16211 16.6697L7.16211 5.94131" stroke="#2D2926" stroke-width="1.5" stroke-linecap="round"/>
<path d="M12.25 16.6696L12.25 5.94119" stroke="#2D2926" stroke-width="1.5" stroke-linecap="round"/>
</svg>
