<svg width="28" height="27" viewBox="0 0 28 27" fill="none" xmlns="http://www.w3.org/2000/svg">
<path d="M13.8586 9.72218V22M13.8586 9.72218C13.8586 9.72218 13.8586 8.31232 13.8586 7.83333C13.8586 6.79007 14.7043 5.94436 15.7475 5.94436C16.7908 5.94436 17.6365 6.79007 17.6365 7.83333C17.6365 8.87648 16.7908 9.72218 15.7475 9.72218C15.1833 9.72218 13.8586 9.72218 13.8586 9.72218ZM13.8586 9.72218C13.8586 9.72218 13.8586 7.89274 13.8586 7.36103C13.8586 6.0571 12.8015 5 11.4975 5C10.1936 5 9.13646 6.0571 9.13646 7.36103C9.13646 8.66508 10.1936 9.72218 11.4975 9.72218C12.2699 9.72218 13.8586 9.72218 13.8586 9.72218ZM7.24749 13.5H20.4698M7.24749 13.5C6.20435 13.5 5.35864 12.6543 5.35864 11.611C5.35864 10.5679 6.20435 9.72218 7.24749 9.72218H20.4698C21.5129 9.72218 22.3586 10.5679 22.3586 11.611C22.3586 12.6543 21.5129 13.5 20.4698 13.5M7.24749 13.5V20.111C7.24749 21.1543 8.0932 22 9.13646 22H18.5808C19.6241 22 20.4698 21.1543 20.4698 20.111V13.5" stroke="#2D2926" stroke-linecap="round" stroke-linejoin="round"/>
</svg>
