<svg width="28" height="27" viewBox="0 0 28 27" fill="none" xmlns="http://www.w3.org/2000/svg">
<g clip-path="url(#clip0_406_12308)">
<path d="M26.7717 11.2003C26.4808 10.9763 26.142 10.8227 25.7819 10.7514C25.4218 10.6802 25.05 10.6932 24.6958 10.7895L18.9578 12.1034C19.2056 11.6797 19.3361 11.1977 19.336 10.7069C19.336 9.96613 19.0418 9.25573 18.518 8.73193C17.9943 8.20813 17.284 7.91383 16.5433 7.91383H10.7181C10.29 7.91253 9.86585 7.99623 9.47045 8.16013C9.07495 8.32393 8.71585 8.56453 8.41395 8.86813L5.64455 11.6379H2.11405C1.74365 11.6379 1.38855 11.785 1.12665 12.047C0.864751 12.3089 0.717651 12.6641 0.717651 13.0345V17.6896C0.717651 18.06 0.864751 18.4152 1.12665 18.6771C1.38855 18.939 1.74365 19.0862 2.11405 19.0862H14.216C14.2552 19.0864 14.2943 19.0817 14.3323 19.0722L21.7797 17.2101C21.8034 17.204 21.8268 17.1962 21.8495 17.1869L26.3668 15.262L26.3924 15.2503C26.7563 15.0684 27.068 14.7968 27.298 14.4611C27.528 14.1254 27.6688 13.7367 27.7071 13.3315C27.7454 12.9264 27.6799 12.5182 27.5169 12.1453C27.3539 11.7725 27.0986 11.4473 26.7752 11.2003H26.7717ZM1.64855 17.6896V13.0345C1.64855 12.911 1.69765 12.7926 1.78485 12.7053C1.87215 12.618 1.99055 12.5689 2.11405 12.5689H5.37225V18.1551H2.11405C1.99055 18.1551 1.87215 18.1061 1.78485 18.0188C1.69765 17.9315 1.64855 17.8131 1.64855 17.6896ZM25.9839 14.4112L21.5144 16.3163L14.159 18.1551H6.30315V12.2966L9.07265 9.52683C9.28815 9.30993 9.54455 9.13803 9.82695 9.02093C10.1095 8.90383 10.4123 8.84403 10.7181 8.84483H16.5433C17.0371 8.84483 17.5106 9.04103 17.8598 9.39023C18.2089 9.73943 18.4051 10.213 18.4051 10.7069C18.4051 11.2007 18.2089 11.6744 17.8598 12.0236C17.5106 12.3728 17.0371 12.5689 16.5433 12.5689H13.2851C13.1616 12.5689 13.0432 12.618 12.9559 12.7053C12.8686 12.7926 12.8196 12.911 12.8196 13.0345C12.8196 13.1579 12.8686 13.2763 12.9559 13.3636C13.0432 13.4509 13.1616 13.5 13.2851 13.5H17.0087C17.044 13.5001 17.0791 13.4962 17.1135 13.4883L24.9099 11.6949H24.9285C25.2778 11.6023 25.6491 11.642 25.971 11.8063C26.2929 11.9707 26.5427 12.2482 26.6726 12.5855C26.8024 12.9229 26.8031 13.2963 26.6745 13.6341C26.5459 13.9719 26.2971 14.2503 25.9758 14.4159L25.9839 14.4112Z" fill="#393939"/>
</g>
<defs>
<clipPath id="clip0_406_12308">
<rect width="27" height="27" fill="white" transform="translate(0.717651)"/>
</clipPath>
</defs>
</svg>
