<svg width="28" height="12" viewBox="0 0 28 12" fill="none" xmlns="http://www.w3.org/2000/svg">
<path d="M26.554 3.28656C26.2631 3.06257 25.9243 2.90893 25.5642 2.83766C25.2041 2.76639 24.8323 2.77942 24.4781 2.87574L18.7401 4.18966C18.9879 3.76596 19.1184 3.28395 19.1183 2.79311C19.1183 2.05234 18.8241 1.3419 18.3003 0.818092C17.7766 0.294285 17.0663 1.36468e-05 16.3256 1.36468e-05H10.5004C10.0723 -0.00122954 9.64824 0.0824774 9.25275 0.246287C8.85726 0.410097 8.49819 0.650755 8.19635 0.954321L5.42687 3.72414H1.89637C1.52603 3.72414 1.17086 3.87128 0.908988 4.13318C0.647118 4.39509 0.5 4.7503 0.5 5.12069V9.77585C0.5 10.1462 0.647118 10.5015 0.908988 10.7634C1.17086 11.0253 1.52603 11.1724 1.89637 11.1724H13.9983C14.0375 11.1727 14.0766 11.168 14.1146 11.1584L21.562 9.29637C21.5857 9.29019 21.6091 9.28242 21.6318 9.2731L26.1491 7.34819L26.1747 7.33655C26.5386 7.1546 26.8503 6.88299 27.0803 6.5473C27.3103 6.21162 27.4511 5.8229 27.4894 5.41776C27.5277 5.01263 27.4622 4.60441 27.2992 4.23156C27.1362 3.85871 26.8809 3.5335 26.5575 3.28656H26.554ZM1.43092 9.77585V5.12069C1.43092 4.99723 1.47996 4.87882 1.56725 4.79152C1.65454 4.70422 1.77293 4.65518 1.89637 4.65518H5.15458V10.2414H1.89637C1.77293 10.2414 1.65454 10.1923 1.56725 10.105C1.47996 10.0177 1.43092 9.89932 1.43092 9.77585ZM25.7662 6.49746L21.2967 8.40258L13.9413 10.2414H6.0855V4.38285L8.85497 1.61303C9.07049 1.39615 9.3269 1.2242 9.60934 1.10714C9.89178 0.990071 10.1946 0.930218 10.5004 0.931046H16.3256C16.8194 0.931046 17.2929 1.12723 17.6421 1.47643C17.9912 1.82564 18.1874 2.29926 18.1874 2.79311C18.1874 3.28696 17.9912 3.76058 17.6421 4.10979C17.2929 4.45899 16.8194 4.65518 16.3256 4.65518H13.0674C12.9439 4.65518 12.8255 4.70422 12.7382 4.79152C12.6509 4.87882 12.6019 4.99723 12.6019 5.12069C12.6019 5.24415 12.6509 5.36256 12.7382 5.44986C12.8255 5.53716 12.9439 5.58621 13.0674 5.58621H16.791C16.8263 5.58637 16.8614 5.58246 16.8958 5.57457L24.6922 3.78117H24.7108C25.0601 3.68853 25.4314 3.7282 25.7533 3.89257C26.0752 4.05695 26.325 4.33444 26.4549 4.67178C26.5847 5.00912 26.5854 5.38253 26.4568 5.72035C26.3282 6.05816 26.0794 6.33656 25.7581 6.50211L25.7662 6.49746Z" fill="#E5DECF"/>
</svg>
