<svg width="22" height="22" viewBox="0 0 22 22" fill="none" xmlns="http://www.w3.org/2000/svg">
<path fill-rule="evenodd" clip-rule="evenodd" d="M5.36391 1.92632C4.0858 2.09811 3.31473 2.42484 2.74421 2.99445C2.17484 3.56436 1.84811 4.33526 1.67632 5.61353C1.50159 6.91358 1.5 8.62181 1.5 11C1.5 13.3782 1.50159 15.0867 1.67632 16.3867C1.84816 17.6653 2.17496 18.4357 2.74415 19.0045C3.31411 19.5745 4.08519 19.9016 5.36359 20.0736C6.66361 20.2484 8.37179 20.25 10.75 20.25C13.1282 20.25 14.8366 20.2484 16.1367 20.0736C17.4151 19.9016 18.1855 19.5746 18.7543 19.005C19.3241 18.4356 19.6516 17.6646 19.8236 16.3863C19.9984 15.0864 20 13.3782 20 11C20 8.62179 19.9984 6.91386 19.8236 5.61398C19.6516 4.33578 19.3247 3.56471 18.7545 2.99415C18.1851 2.42487 17.4146 2.09813 16.1363 1.92632C14.8364 1.75159 13.1282 1.75 10.75 1.75C8.3718 1.75 6.66384 1.75159 5.36391 1.92632ZM10.6926 0.25H10.8074C13.1157 0.249987 14.9248 0.249977 16.3362 0.439685C17.7808 0.633857 18.9207 1.03906 19.8153 1.93367C20.7102 2.82911 21.1159 3.96922 21.3102 5.41402C21.5 6.82546 21.5 8.63424 21.5 10.9426V11.0574C21.5 13.3658 21.5 15.1748 21.3102 16.5862C21.1159 18.0307 20.7105 19.1706 19.8155 20.0651C18.9214 20.9604 17.7813 21.3659 16.3366 21.5602C14.925 21.75 13.1158 21.75 10.8074 21.75H10.6926C8.38424 21.75 6.57521 21.75 5.16366 21.5602C3.7189 21.3659 2.57886 20.9604 1.68385 20.0655C0.789163 19.1713 0.383831 18.0311 0.189684 16.5865C-2.27988e-05 15.175 -1.2663e-05 13.3657 2.11563e-07 11.0574V10.9426C-1.2663e-05 8.63425 -2.27988e-05 6.82525 0.189684 5.41372C0.383856 3.96897 0.789045 2.82891 1.68349 1.93385C2.57895 1.03961 3.71938 0.633869 5.16409 0.439685C6.5755 0.249977 8.38426 0.249987 10.6926 0.25Z" fill="white"/>
<path fill-rule="evenodd" clip-rule="evenodd" d="M20.8875 4.86375C21.1803 5.15666 21.1803 5.63153 20.8874 5.92441L13.8108 13.0001L19.7804 18.9697C20.0733 19.2626 20.0733 19.7375 19.7804 20.0304C19.4875 20.3233 19.0127 20.3233 18.7198 20.0304L12.7501 14.0607L5.67543 21.1354C5.67543 21.1354 4.00544 20.684 4.68941 20C5.37337 19.316 19.8268 4.86368 19.8268 4.86368C20.1197 4.5708 20.5946 4.57084 20.8875 4.86375Z" fill="white"/>
<path d="M8.75 8C8.75 8.26522 8.64464 8.51957 8.45711 8.70711C8.26957 8.89464 8.01522 9 7.75 9C7.48478 9 7.23043 8.89464 7.04289 8.70711C6.85536 8.51957 6.75 8.26522 6.75 8C6.75 7.73478 6.85536 7.48043 7.04289 7.29289C7.23043 7.10536 7.48478 7 7.75 7C8.01522 7 8.26957 7.10536 8.45711 7.29289C8.64464 7.48043 8.75 7.73478 8.75 8Z" fill="white"/>
<path fill-rule="evenodd" clip-rule="evenodd" d="M7.75 3.75C5.45456 3.75 3.5 5.49384 3.5 7.757C3.5 9.78336 4.74569 12.1751 6.81523 13.0596L6.81696 13.0604C7.11208 13.1856 7.4294 13.2502 7.75 13.2502C8.0706 13.2502 8.38792 13.1856 8.68304 13.0604L8.68477 13.0596C10.7543 12.1751 12 9.78336 12 7.757C12 5.49384 10.0454 3.75 7.75 3.75ZM5 7.757C5 6.42216 6.17944 5.25 7.75 5.25C9.32056 5.25 10.5 6.42216 10.5 7.757C10.5 9.30029 9.51214 11.0741 8.0962 11.6799C7.98667 11.7263 7.86894 11.7502 7.75 11.7502C7.63106 11.7502 7.51333 11.7263 7.4038 11.6799C5.98786 11.0741 5 9.30029 5 7.757Z" fill="white"/>
</svg>
