<svg width="26" height="25" viewBox="0 0 26 25" fill="none" xmlns="http://www.w3.org/2000/svg">
<path d="M1.32712 7.0558C1.38559 5.7783 1.58561 4.95439 1.85613 4.25502L1.85976 4.24536C2.12783 3.53369 2.54776 2.88898 3.09034 2.35611L3.09795 2.34864L3.10543 2.34102C3.63874 1.79775 4.28367 1.37823 4.99472 1.11088L5.00699 1.10618C5.70476 0.834829 6.52706 0.635544 7.80562 0.577091M1.32712 7.0558C1.26566 8.42074 1.25 8.84385 1.25 12.3828C1.25 15.9227 1.2648 16.3448 1.32709 17.71M1.32712 7.0558L1.32712 7.4001M1.86088 20.5209C2.12823 21.232 2.54775 21.8769 3.09102 22.4102L3.09862 22.4177L3.10609 22.4253C3.63899 22.9679 4.28371 23.3878 4.99539 23.6559L5.00602 23.6599C5.70442 23.9308 6.52713 24.1301 7.80562 24.1886M1.86088 20.5209L1.85618 20.5087C1.58483 19.8109 1.38554 18.9886 1.32709 17.71M1.86088 20.5209L1.84485 20.4365M1.32709 17.71L1.34803 17.8203M1.32709 17.71L1.32709 17.3649M1.84485 20.4365L1.34803 17.8203M1.84485 20.4365C1.63384 19.8791 1.41656 19.1013 1.34803 17.8203M1.84485 20.4365C1.85225 20.4561 1.85964 20.4754 1.86702 20.4944C2.13462 21.2158 2.55861 21.869 3.10852 22.4071C3.64639 22.9569 4.29934 23.3808 5.02049 23.6483C5.59922 23.8738 6.41469 24.1094 7.80543 24.1731C9.20891 24.237 9.64252 24.25 13.1328 24.25C16.6231 24.25 17.0571 24.237 18.4606 24.1731C19.8531 24.1093 20.6676 23.8724 21.2443 23.6487C21.9658 23.3812 22.6191 22.9572 23.1572 22.407C23.7069 21.8692 24.1308 21.2163 24.3984 20.4952C24.6238 19.9164 24.8594 19.101 24.9231 17.7102C24.987 16.3067 25 15.8723 25 12.3828C25 8.8934 24.987 8.45855 24.9231 7.05506C24.8589 5.65533 24.6199 4.83961 24.3952 4.2624C24.1014 3.50403 23.7289 2.93047 23.1562 2.35784C22.5848 1.78749 22.0127 1.41474 21.2538 1.12068C20.6746 0.894209 19.8583 0.656633 18.4606 0.592581C18.3391 0.587049 18.2248 0.581899 18.1152 0.577105M1.34803 17.8203C1.34609 17.7841 1.34427 17.7476 1.34258 17.7106C1.33704 17.589 1.33189 17.4746 1.32709 17.3649M7.80562 0.577091C9.17088 0.514802 9.59385 0.5 13.1328 0.5C16.6718 0.5 17.0946 0.515647 18.4595 0.577105M7.80562 0.577091L8.15081 0.577092M18.4595 0.577105L18.1152 0.577105M18.4595 0.577105C19.7372 0.635545 20.5612 0.835545 21.2607 1.10608L21.2703 1.10976C21.982 1.37783 22.6267 1.79776 23.1595 2.34034L23.1669 2.34787L23.1745 2.35527C23.7171 2.88819 24.137 3.53307 24.4049 4.24494L24.4095 4.25699C24.6808 4.95476 24.8801 5.77707 24.9386 7.05562M8.15081 0.577092L18.1152 0.577105M8.15081 0.577092C9.30688 0.526542 9.94586 0.515661 13.1328 0.515661C16.3201 0.515661 16.9589 0.526544 18.1152 0.577105M8.15081 0.577092C8.04109 0.581889 7.92671 0.587044 7.80506 0.592581C6.41259 0.656395 5.59808 0.893298 5.02139 1.11697C4.29713 1.38546 3.64164 1.8117 3.10244 2.36483C2.53516 2.93445 2.16384 3.50527 1.87072 4.26174C1.64424 4.84101 1.40662 5.65767 1.34256 7.05543C1.33705 7.17669 1.33191 7.29071 1.32712 7.4001M24.9386 17.71C24.8801 18.9885 24.6808 19.8113 24.41 20.5097L24.4059 20.5203C24.1378 21.232 23.7179 21.8767 23.1753 22.4095L23.1677 22.417L23.1602 22.4246C22.6269 22.9679 21.982 23.3874 21.2709 23.6548L21.2587 23.6595C20.5609 23.9308 19.7386 24.1301 18.46 24.1886M1.32709 17.3649C1.27654 16.2088 1.26566 15.5698 1.26566 12.3828C1.26566 9.19488 1.27653 8.5568 1.32712 7.4001M1.32709 17.3649L1.32712 7.4001M11.0194 17.4851C11.6894 17.7627 12.4076 17.9055 13.1328 17.9055C14.5975 17.9055 16.0023 17.3237 17.038 16.288C18.0737 15.2523 18.6555 13.8475 18.6555 12.3828C18.6555 10.9181 18.0737 9.5134 17.038 8.47769C16.0023 7.44198 14.5975 6.86013 13.1328 6.86013C12.4076 6.86013 11.6894 7.00298 11.0194 7.28052C10.3493 7.55806 9.74053 7.96486 9.2277 8.47769C8.71487 8.99052 8.30807 9.59934 8.03053 10.2694C7.75299 10.9394 7.61014 11.6576 7.61014 12.3828C7.61014 13.1081 7.75299 13.8262 8.03053 14.4963C8.30807 15.1663 8.71487 15.7751 9.2277 16.288C9.74053 16.8008 10.3493 17.2076 11.0194 17.4851ZM9.21539 8.46539C10.2544 7.42642 11.6635 6.84273 13.1328 6.84273C14.6022 6.84273 16.0113 7.42642 17.0503 8.46539C18.0892 9.50436 18.6729 10.9135 18.6729 12.3828C18.6729 13.8522 18.0892 15.2613 17.0503 16.3003C16.0113 17.3392 14.6022 17.9229 13.1328 17.9229C11.6635 17.9229 10.2544 17.3392 9.21539 16.3003C8.17642 15.2613 7.59274 13.8522 7.59274 12.3828C7.59274 10.9135 8.17642 9.50436 9.21539 8.46539ZM21.7925 5.55287C21.7925 5.97342 21.6255 6.37674 21.3281 6.67411C21.0307 6.97149 20.6274 7.13855 20.2068 7.13855C19.7863 7.13855 19.383 6.97149 19.0856 6.67411C18.7882 6.37674 18.6212 5.97342 18.6212 5.55287C18.6212 5.13232 18.7882 4.72899 19.0856 4.43162C19.383 4.13425 19.7863 3.96718 20.2068 3.96718C20.6274 3.96718 21.0307 4.13425 21.3281 4.43162C21.6255 4.72899 21.7925 5.13232 21.7925 5.55287Z" stroke="#595552" stroke-linejoin="round"/>
</svg>
