<svg width="24" height="24" viewBox="0 0 24 24" fill="none" xmlns="http://www.w3.org/2000/svg">
<path d="M11.9969 8.54785C9.88527 8.54785 8.16201 10.2711 8.16201 12.3828C8.16201 14.4945 9.88527 16.2178 11.9969 16.2178C14.1085 16.2178 15.8318 14.4945 15.8318 12.3828C15.8318 10.2711 14.1085 8.54785 11.9969 8.54785ZM23.4987 12.3828C23.4987 10.7947 23.5131 9.22105 23.4239 7.63586C23.3347 5.79461 22.9147 4.16051 21.5683 2.8141C20.2191 1.46481 18.5879 1.04765 16.7467 0.958469C15.1586 0.869283 13.585 0.883668 11.9998 0.883668C10.4117 0.883668 8.83808 0.869283 7.25292 0.958469C5.41171 1.04765 3.77763 1.46769 2.43125 2.8141C1.08199 4.16338 0.664838 5.79461 0.575655 7.63586C0.486471 9.22393 0.500856 10.7976 0.500856 12.3828C0.500856 13.968 0.486471 15.5446 0.575655 17.1298C0.664838 18.971 1.08486 20.6051 2.43125 21.9515C3.78051 23.3008 5.41171 23.718 7.25292 23.8072C8.84096 23.8963 10.4146 23.882 11.9998 23.882C13.5878 23.882 15.1615 23.8963 16.7467 23.8072C18.5879 23.718 20.2219 23.2979 21.5683 21.9515C22.9176 20.6022 23.3347 18.971 23.4239 17.1298C23.516 15.5446 23.4987 13.9709 23.4987 12.3828ZM11.9969 18.2834C8.73164 18.2834 6.09641 15.6481 6.09641 12.3828C6.09641 9.11748 8.73164 6.4822 11.9969 6.4822C15.2622 6.4822 17.8974 9.11748 17.8974 12.3828C17.8974 15.6481 15.2622 18.2834 11.9969 18.2834ZM18.1391 7.61859C17.3767 7.61859 16.761 7.00293 16.761 6.24054C16.761 5.47815 17.3767 4.86248 18.1391 4.86248C18.9014 4.86248 19.5171 5.47815 19.5171 6.24054C19.5173 6.42157 19.4818 6.60087 19.4127 6.76817C19.3435 6.93546 19.242 7.08747 19.114 7.21548C18.986 7.34349 18.834 7.44499 18.6667 7.51416C18.4994 7.58333 18.3201 7.61882 18.1391 7.61859Z" fill="white"/>
</svg>
