<svg width="19" height="21" viewBox="0 0 19 21" fill="none" xmlns="http://www.w3.org/2000/svg">
<path d="M16.8612 15.5C17.6072 15.9561 18 16.4734 18 17C18 17.5266 17.6072 18.0439 16.8612 18.5C16.1152 18.9561 15.0422 19.3348 13.75 19.5981C12.4578 19.8614 10.9921 20 9.5 20C8.00794 20 6.54216 19.8614 5.25 19.5981C3.95784 19.3348 2.88482 18.9561 2.13878 18.5C1.39275 18.0439 1 17.5266 1 17C1 16.4734 1.39275 15.9561 2.13878 15.5" stroke="#222222" stroke-linecap="round"/>
<path d="M17 8.5C17 13.518 11.5117 16.9027 9.92489 17.7764C9.65683 17.924 9.34317 17.924 9.07511 17.7764C7.48831 16.9027 2 13.518 2 8.5C2 4 5.63401 1 9.5 1C13.5 1 17 4 17 8.5Z" stroke="#222222"/>
<circle cx="9.5" cy="8.5" r="3.5" stroke="#222222"/>
</svg>
