<svg width="30" height="40" viewBox="0 0 30 40" fill="none" xmlns="http://www.w3.org/2000/svg">
<path d="M2.61215 39.4153H4.84258L4.88584 31.6252C4.9291 23.8362 4.9291 23.8352 5.27236 23.4927C5.47398 23.2914 5.9845 23.0765 6.50908 22.972L7.40238 22.794L8.37876 20.3874L10.6859 14.6488C11.0583 13.7242 11.4127 12.5933 11.4734 12.1356C11.6454 10.8416 11.9063 10.4009 13.1838 9.24611L14.3718 8.17205L14.4137 4.66322L14.4555 1.15438L14.8459 0.945963C17.1891 -0.304998 20.5369 2.0029 22.4094 3.13289C22.275 4.69929 17.0524 4.95194 15.6268 5.62238L15.627 6.89129V8.16021L16.8721 9.29693C17.9225 10.2558 18.1547 10.5591 18.3557 11.2349C18.4867 11.6754 18.594 12.2217 18.594 12.4485C18.594 12.6754 19.4961 15.0959 20.5985 17.8276L22.6029 22.7942L23.4956 22.972C25.0882 23.2896 25.0676 23.2309 25.1221 27.5855L25.1532 36.3866V39.4153H27.3879M18.6373 39.4153H15.1017H11.5664M19.6872 39.4153L19.6846 36.9601C19.6807 33.4686 19.2653 31.8639 17.9259 30.1666C17.1829 29.2251 15.3516 27.7239 14.946 27.7239C14.4429 27.7239 12.2473 29.802 11.5828 30.9069C10.7074 32.3627 10.4622 33.5149 10.3613 36.6484L10.2722 39.4153H19.6872Z" stroke="black" stroke-width="0.8"/>
<path d="M11.8649 21.5845L17.8649 21.5845" stroke="black" stroke-width="0.8" stroke-linecap="round"/>
</svg>
