<svg width="21" height="24" viewBox="0 0 21 24" fill="none" xmlns="http://www.w3.org/2000/svg">
<path fill-rule="evenodd" clip-rule="evenodd" d="M10.9008 22.9089C12.7423 21.9774 20.3033 17.7136 20.3033 10.4989C20.3033 5.08474 15.9142 0.695679 10.5 0.695679C5.08584 0.695679 0.696777 5.08474 0.696777 10.4989C0.696777 17.7136 8.25778 21.9774 10.0993 22.9089C10.3535 23.0374 10.6466 23.0374 10.9008 22.9089ZM10.5001 16.1011C13.5939 16.1011 16.1019 13.593 16.1019 10.4992C16.1019 7.4054 13.5939 4.89737 10.5001 4.89737C7.40627 4.89737 4.89824 7.4054 4.89824 10.4992C4.89824 13.593 7.40627 16.1011 10.5001 16.1011Z" fill="white"/>
</svg>
