<svg width="24" height="24" viewBox="0 0 24 24" fill="none" xmlns="http://www.w3.org/2000/svg">
<path d="M11.6 17.6C9.14871 17.6 7.92307 17.6 7.16127 16.8382C6.39999 16.0775 6.39999 14.8513 6.39999 12.4C6.39999 9.94873 6.39999 8.72309 7.16127 7.96129C7.92359 7.20001 9.14871 7.20001 11.6 7.20001C14.0513 7.20001 15.2769 7.20001 16.0382 7.96129C16.8 8.72361 16.8 9.94873 16.8 12.4C16.8 14.8513 16.8 16.0769 16.0382 16.8382C15.2774 17.6 14.0513 17.6 11.6 17.6Z" stroke="#F15328"/>
<path d="M8 10.7541C8 9.67477 8.89543 8.79999 10 8.79999C11.1046 8.79999 12 9.67477 12 10.7541C12 11.8251 11.3617 13.0749 10.3657 13.5219C10.25 13.5734 10.1257 13.6 10 13.6C9.87434 13.6 9.74996 13.5734 9.63429 13.5219C8.63829 13.0749 8 11.8251 8 10.7541Z" stroke="#F15328"/>
<path d="M15.2464 17.1536C15.4417 17.3488 15.7583 17.3488 15.9535 17.1536C16.1488 16.9583 16.1488 16.6417 15.9535 16.4464L15.2464 17.1536ZM8.06551 16.8284L7.69386 17.1628L8.36283 17.9061L8.73448 17.5716L8.06551 16.8284ZM16.7345 10.3717L17.1061 10.0372L16.4372 9.29387L16.0655 9.62835L16.7345 10.3717ZM12.0464 13.9536L15.2464 17.1536L15.9535 16.4464L12.7535 13.2464L12.0464 13.9536ZM12.0655 13.2284L8.06551 16.8284L8.73448 17.5716L12.7345 13.9716L12.0655 13.2284ZM12.4 13.6C12.7345 13.9716 12.7345 13.9716 12.7345 13.9716C12.7345 13.9716 12.7345 13.9716 12.7346 13.9715C12.7347 13.9715 12.7348 13.9714 12.7349 13.9713C12.7352 13.971 12.7356 13.9706 12.7362 13.9701C12.7373 13.9691 12.7389 13.9676 12.7412 13.9656C12.7456 13.9617 12.7522 13.9557 12.7608 13.9479C12.7781 13.9324 12.8037 13.9093 12.8369 13.8794C12.9033 13.8197 13.0001 13.7326 13.1215 13.6233C13.3643 13.4048 13.7056 13.0976 14.0998 12.7428C14.8883 12.0332 15.8883 11.1332 16.7345 10.3717L16.0655 9.62835C15.2193 10.3899 14.2193 11.2899 13.4309 11.9995C13.0366 12.3543 12.6953 12.6615 12.4525 12.88C12.3311 12.9893 12.2344 13.0764 12.168 13.1361C12.1348 13.166 12.1092 13.1891 12.0918 13.2047C12.0832 13.2125 12.0766 13.2184 12.0722 13.2224C12.07 13.2243 12.0683 13.2258 12.0672 13.2268C12.0666 13.2273 12.0662 13.2277 12.0659 13.228C12.0658 13.2281 12.0657 13.2282 12.0656 13.2283C12.0656 13.2283 12.0656 13.2283 12.0655 13.2283C12.0655 13.2283 12.0655 13.2284 12.4 13.6Z" fill="#F15328"/>
<mask id="path-5-inside-1_29_163" fill="white">
<path d="M10.4 10.8C10.4 10.9061 10.3579 11.0079 10.2828 11.0829C10.2078 11.1579 10.1061 11.2 10 11.2C9.89392 11.2 9.79218 11.1579 9.71716 11.0829C9.64215 11.0079 9.60001 10.9061 9.60001 10.8C9.60001 10.6939 9.64215 10.5922 9.71716 10.5172C9.79218 10.4422 9.89392 10.4 10 10.4C10.1061 10.4 10.2078 10.4422 10.2828 10.5172C10.3579 10.5922 10.4 10.6939 10.4 10.8Z"/>
</mask>
<path d="M10.4 10.8C10.4 10.9061 10.3579 11.0079 10.2828 11.0829C10.2078 11.1579 10.1061 11.2 10 11.2C9.89392 11.2 9.79218 11.1579 9.71716 11.0829C9.64215 11.0079 9.60001 10.9061 9.60001 10.8C9.60001 10.6939 9.64215 10.5922 9.71716 10.5172C9.79218 10.4422 9.89392 10.4 10 10.4C10.1061 10.4 10.2078 10.4422 10.2828 10.5172C10.3579 10.5922 10.4 10.6939 10.4 10.8Z" fill="#F15328"/>
<path d="M9.60001 10.8H10.6H9.60001ZM10 10.4V11.4V10.4ZM9.40001 10.8C9.40001 10.6409 9.46322 10.4883 9.57574 10.3758L10.99 11.79C11.2525 11.5274 11.4 11.1713 11.4 10.8H9.40001ZM9.57574 10.3758C9.68826 10.2632 9.84088 10.2 10 10.2V12.2C10.3713 12.2 10.7274 12.0525 10.99 11.79L9.57574 10.3758ZM10 10.2C10.1591 10.2 10.3117 10.2632 10.4243 10.3758L9.01006 11.79C9.27261 12.0525 9.6287 12.2 10 12.2V10.2ZM10.4243 10.3758C10.5368 10.4883 10.6 10.6409 10.6 10.8H8.60001C8.60001 11.1713 8.74751 11.5274 9.01006 11.79L10.4243 10.3758ZM10.6 10.8C10.6 10.9592 10.5368 11.1118 10.4243 11.2243L9.01006 9.81007C8.74751 10.0726 8.60001 10.4287 8.60001 10.8H10.6ZM10.4243 11.2243C10.3117 11.3368 10.1591 11.4 10 11.4V9.40002C9.6287 9.40002 9.27261 9.54752 9.01006 9.81007L10.4243 11.2243ZM10 11.4C9.84088 11.4 9.68826 11.3368 9.57574 11.2243L10.99 9.81007C10.7274 9.54752 10.3713 9.40002 10 9.40002V11.4ZM9.57574 11.2243C9.46322 11.1118 9.40001 10.9592 9.40001 10.8H11.4C11.4 10.4287 11.2525 10.0726 10.99 9.81007L9.57574 11.2243Z" fill="#F15328" mask="url(#path-5-inside-1_29_163)"/>
<rect x="0.5" y="0.5" width="23" height="23" rx="11.5" stroke="#F15328"/>
</svg>
