<svg width="24" height="24" viewBox="0 0 24 24" fill="none" xmlns="http://www.w3.org/2000/svg">
<path d="M6.66669 8.00002C6.66669 7.26364 7.26364 6.66669 8.00002 6.66669H9.33335C10.0697 6.66669 10.6667 7.26364 10.6667 8.00002V9.33335C10.6667 10.0697 10.0697 10.6667 9.33335 10.6667H8.00002C7.26364 10.6667 6.66669 10.0697 6.66669 9.33335V8.00002Z" stroke="#F15328" stroke-width="2" stroke-linecap="round" stroke-linejoin="round"/>
<path d="M13.3334 8.00002C13.3334 7.26364 13.9303 6.66669 14.6667 6.66669H16C16.7364 6.66669 17.3334 7.26364 17.3334 8.00002V9.33335C17.3334 10.0697 16.7364 10.6667 16 10.6667H14.6667C13.9303 10.6667 13.3334 10.0697 13.3334 9.33335V8.00002Z" stroke="#F15328" stroke-width="2" stroke-linecap="round" stroke-linejoin="round"/>
<path d="M6.66669 14.6667C6.66669 13.9303 7.26364 13.3334 8.00002 13.3334H9.33335C10.0697 13.3334 10.6667 13.9303 10.6667 14.6667V16C10.6667 16.7364 10.0697 17.3334 9.33335 17.3334H8.00002C7.26364 17.3334 6.66669 16.7364 6.66669 16V14.6667Z" stroke="#F15328" stroke-width="2" stroke-linecap="round" stroke-linejoin="round"/>
<path d="M13.3334 14.6667C13.3334 13.9303 13.9303 13.3334 14.6667 13.3334H16C16.7364 13.3334 17.3334 13.9303 17.3334 14.6667V16C17.3334 16.7364 16.7364 17.3334 16 17.3334H14.6667C13.9303 17.3334 13.3334 16.7364 13.3334 16V14.6667Z" stroke="#F15328" stroke-width="2" stroke-linecap="round" stroke-linejoin="round"/>
<rect x="0.5" y="0.5" width="23" height="23" rx="11.5" stroke="#F15328"/>
</svg>
