<svg width="324" height="324" viewBox="0 0 324 324" fill="none" xmlns="http://www.w3.org/2000/svg">
<g opacity="0.2">
<rect width="324" height="324" rx="162" fill="#FFD8C7"/>
</g>
<g opacity="0.3">
<rect x="44" y="43.9999" width="235.636" height="235.636" rx="117.818" fill="#FAD8C9"/>
</g>
<g opacity="0.55">
<rect x="87" y="86.9999" width="149.727" height="149.727" rx="74.8636" fill="#FBD9CA"/>
</g>
<path fill-rule="evenodd" clip-rule="evenodd" d="M205.774 148.047L210.317 151.149C216.192 142.494 219.623 132.408 220.223 121.964C220.824 111.52 218.582 101.109 213.738 91.8371L212.748 90.0001L207.952 92.7061L208.876 94.3891C213.254 102.779 215.278 112.198 214.732 121.646C214.185 131.094 211.09 140.218 205.774 148.047ZM223 234.375V229.59H195.61L194.978 226.665C187.811 225.455 181.723 221.069 178.213 215.004H143.778L147.331 198.559H175.41C176.61 192.144 180.363 186.628 185.573 183.104L178.593 150.775C178.326 149.545 177.645 148.444 176.664 147.655C175.684 146.866 174.462 146.438 173.203 146.441H165.272V131.096C168.129 130.561 170.712 129.049 172.578 126.82C174.444 124.591 175.478 121.782 175.502 118.875C175.552 117.173 175.26 115.478 174.643 113.891C174.026 112.304 173.097 110.857 171.911 109.635C170.725 108.413 169.306 107.442 167.737 106.779C166.169 106.116 164.483 105.774 162.78 105.774C161.078 105.774 159.392 106.116 157.824 106.779C156.255 107.442 154.836 108.413 153.65 109.635C152.464 110.857 151.535 112.304 150.918 113.891C150.301 115.478 150.009 117.173 150.059 118.875C150.08 121.692 151.048 124.419 152.808 126.618C154.568 128.817 157.017 130.36 159.761 130.997V146.43H151.786C150.528 146.43 149.307 146.861 148.328 147.652C147.349 148.442 146.671 149.545 146.407 150.775L129.368 229.59H102V234.375H223ZM152.083 176.636H172.917L176.481 193.059H148.53L152.083 176.636ZM153.249 171.136L156.219 157.441H168.77L171.729 171.136H153.249ZM184.368 229.601H140.621L142.579 220.504H182.399L184.368 229.601ZM132.241 118.705C132.209 124.68 133.946 130.529 137.233 135.518L132.646 138.543C128.758 132.648 126.704 125.734 126.741 118.673C126.778 111.612 128.906 104.72 132.855 98.8661L137.409 101.946C134.07 106.9 132.272 112.731 132.241 118.705ZM192.376 99.2291C196.214 105.062 198.257 111.893 198.25 118.875C198.259 126 196.128 132.963 192.134 138.862L187.58 135.804C190.917 130.854 192.717 125.029 192.752 119.059C192.787 113.09 191.057 107.243 187.778 102.254L192.376 99.2291ZM110.196 120.477C110.494 130.163 113.471 139.577 118.797 147.673L114.221 150.709C108.329 141.762 105.034 131.355 104.704 120.647C104.374 109.938 107.021 99.3486 112.351 90.0551L117.114 92.8051C112.294 101.212 109.899 110.791 110.196 120.477Z" fill="#7A6855"/>
<g clip-path="url(#clip0_1023_24855)">
<path d="M214.133 188.853C212.278 186.994 210.073 185.519 207.646 184.514C205.219 183.509 202.617 182.993 199.99 182.997C188.943 182.997 179.988 191.952 179.988 202.998C179.988 208.522 182.228 213.523 185.848 217.143C187.704 219.003 189.908 220.478 192.336 221.483C194.763 222.488 197.365 223.004 199.992 223C211.038 223 219.993 214.045 219.993 202.998C219.993 197.475 217.753 192.473 214.133 188.853ZM211.563 214.565C210.045 216.087 208.242 217.294 206.256 218.116C204.27 218.939 202.141 219.361 199.992 219.358C190.953 219.358 183.627 212.032 183.627 202.993C183.624 200.844 184.046 198.715 184.869 196.729C185.691 194.743 186.898 192.94 188.42 191.422C189.938 189.9 191.741 188.693 193.727 187.87C195.712 187.048 197.841 186.626 199.99 186.628C209.027 186.628 216.353 193.955 216.353 202.992C216.356 205.141 215.934 207.27 215.111 209.255C214.289 211.241 213.082 213.044 211.56 214.562L211.563 214.565Z" fill="#7A6855"/>
<path d="M202.562 203L208.987 196.575C209.304 196.23 209.475 195.775 209.465 195.306C209.454 194.838 209.264 194.391 208.932 194.06C208.6 193.728 208.154 193.538 207.685 193.528C207.216 193.518 206.762 193.69 206.417 194.007L206.418 194.005L199.993 200.43L193.568 194.005C193.223 193.688 192.768 193.517 192.3 193.527C191.831 193.537 191.384 193.728 191.053 194.06C190.721 194.391 190.531 194.838 190.521 195.307C190.511 195.775 190.683 196.23 191 196.575L190.998 196.573L197.423 202.998L190.998 209.423C190.817 209.589 190.672 209.79 190.571 210.014C190.47 210.237 190.415 210.479 190.41 210.724C190.404 210.969 190.449 211.213 190.54 211.441C190.631 211.668 190.768 211.875 190.941 212.049C191.115 212.222 191.321 212.359 191.549 212.45C191.777 212.542 192.02 212.586 192.266 212.581C192.511 212.576 192.753 212.521 192.976 212.42C193.2 212.319 193.401 212.174 193.567 211.993L193.568 211.992L199.993 205.567L206.418 211.992C206.584 212.173 206.785 212.318 207.008 212.419C207.232 212.52 207.473 212.575 207.719 212.58C207.964 212.586 208.208 212.541 208.435 212.45C208.663 212.359 208.87 212.222 209.043 212.049C209.217 211.875 209.354 211.669 209.445 211.441C209.537 211.213 209.581 210.97 209.576 210.724C209.571 210.479 209.516 210.237 209.415 210.014C209.314 209.79 209.169 209.589 208.988 209.423L208.987 209.422L202.562 203Z" fill="#7A6855"/>
</g>
<defs>
<clipPath id="clip0_1023_24855">
<rect width="40" height="40" fill="white" transform="translate(180 183)"/>
</clipPath>
</defs>
</svg>
