<svg width="324" height="324" viewBox="0 0 324 324" fill="none" xmlns="http://www.w3.org/2000/svg">
<g opacity="0.2">
<rect width="324" height="324" rx="162" fill="#FFD8C7"/>
</g>
<g opacity="0.3">
<rect x="44" y="43.9999" width="235.636" height="235.636" rx="117.818" fill="#FAD8C9"/>
</g>
<g opacity="0.55">
<rect x="87" y="86.9999" width="149.727" height="149.727" rx="74.8636" fill="#FBD9CA"/>
</g>
<path d="M112.438 139.172L109.447 139.409L109.455 139.513L109.471 139.616L112.438 139.172ZM91.0195 209.299L89.1454 206.956L88.1993 207.713L88.0442 208.915L91.0195 209.299ZM161.99 89.6005L162.078 92.5992L164.99 92.5138V89.6005H161.99ZM161.99 89.5999L162.078 86.6012L158.99 86.5114V89.5999H161.99ZM162 89.6002L161.913 92.5989L162 92.6015L162.088 92.5989L162 89.6002ZM162.01 89.5999H165.01V86.5114L161.923 86.6012L162.01 89.5999ZM162.01 89.6005H159.01V92.5138L161.922 92.5992L162.01 89.6005ZM211.563 139.172L214.53 139.616L214.545 139.513L214.553 139.409L211.563 139.172ZM232.981 209.299L235.956 208.915L235.801 207.713L234.855 206.956L232.981 209.299ZM162.01 221.71L161.937 218.711L159.01 218.782V221.71H162.01ZM162.01 221.711L161.939 224.71L165.01 224.782V221.711H162.01ZM162 221.71L162.071 218.711L162 218.71L161.929 218.711L162 221.71ZM161.99 221.711H158.99V224.782L162.061 224.71L161.99 221.711ZM161.99 221.71H164.99V218.782L162.063 218.711L161.99 221.71ZM112.438 139.172C109.471 139.616 109.47 139.615 109.47 139.615C109.47 139.615 109.47 139.614 109.47 139.615C109.47 139.615 109.47 139.616 109.471 139.617C109.471 139.62 109.472 139.626 109.473 139.635C109.476 139.653 109.48 139.682 109.485 139.721C109.497 139.801 109.513 139.924 109.534 140.089C109.576 140.418 109.636 140.914 109.702 141.558C109.835 142.846 109.995 144.727 110.102 147.06C110.315 151.732 110.309 158.188 109.438 165.322C107.685 179.686 102.497 196.275 89.1454 206.956L92.8936 211.642C108.042 199.523 113.563 181.048 115.394 166.049C116.315 158.502 116.32 151.7 116.096 146.787C115.983 144.327 115.813 142.332 115.67 140.943C115.599 140.248 115.534 139.705 115.486 139.33C115.462 139.142 115.442 138.997 115.428 138.896C115.421 138.846 115.416 138.806 115.412 138.778C115.41 138.764 115.408 138.753 115.407 138.745C115.406 138.74 115.406 138.737 115.405 138.734C115.405 138.733 115.405 138.731 115.405 138.731C115.405 138.729 115.404 138.728 112.438 139.172ZM161.902 86.6018C148.102 87.0068 137.772 90.4264 130.086 95.5034C122.402 100.579 117.542 107.192 114.491 113.7C111.449 120.186 110.195 126.584 109.694 131.332C109.443 133.714 109.379 135.701 109.378 137.106C109.378 137.809 109.394 138.368 109.411 138.759C109.419 138.954 109.427 139.108 109.434 139.218C109.437 139.272 109.44 139.316 109.442 139.348C109.443 139.364 109.444 139.377 109.445 139.387C109.446 139.392 109.446 139.397 109.446 139.4C109.446 139.402 109.447 139.404 109.447 139.405C109.447 139.407 109.447 139.409 112.438 139.172C115.428 138.936 115.428 138.937 115.428 138.938C115.428 138.938 115.428 138.94 115.429 138.94C115.429 138.941 115.429 138.941 115.429 138.94C115.428 138.938 115.428 138.934 115.428 138.927C115.427 138.913 115.425 138.888 115.423 138.851C115.418 138.779 115.412 138.663 115.405 138.507C115.392 138.194 115.378 137.72 115.378 137.107C115.379 135.881 115.435 134.105 115.661 131.962C116.115 127.66 117.245 121.958 119.923 116.247C122.591 110.557 126.785 104.875 133.393 100.51C140.001 96.1453 149.203 92.977 162.078 92.5992L161.902 86.6018ZM164.99 89.6005V89.5999H158.99V89.6005H164.99ZM161.903 92.5987C161.909 92.5988 161.904 92.5987 161.913 92.5989L162.088 86.6015C162.086 86.6015 162.085 86.6014 162.084 86.6014C162.082 86.6013 162.08 86.6013 162.078 86.6012L161.903 92.5987ZM161.923 86.6012C161.919 86.6013 161.916 86.6014 161.913 86.6015L162.088 92.5989C162.091 92.5988 162.094 92.5987 162.097 92.5987L161.923 86.6012ZM165.01 89.6005V89.5999H159.01V89.6005H165.01ZM161.922 92.5992C174.797 92.977 184 96.1453 190.607 100.51C197.216 104.875 201.409 110.557 204.077 116.247C206.755 121.958 207.885 127.66 208.339 131.962C208.565 134.105 208.621 135.881 208.622 137.107C208.622 137.72 208.608 138.194 208.595 138.507C208.588 138.663 208.582 138.779 208.578 138.851C208.575 138.888 208.574 138.913 208.573 138.927C208.572 138.934 208.572 138.938 208.572 138.94C208.572 138.941 208.572 138.941 208.572 138.94C208.572 138.94 208.572 138.938 208.572 138.938C208.572 138.937 208.572 138.936 211.563 139.172C214.553 139.409 214.553 139.407 214.554 139.405C214.554 139.404 214.554 139.402 214.554 139.4C214.554 139.397 214.555 139.392 214.555 139.387C214.556 139.377 214.557 139.364 214.558 139.348C214.56 139.316 214.563 139.272 214.566 139.218C214.573 139.108 214.581 138.954 214.59 138.759C214.606 138.368 214.622 137.809 214.622 137.106C214.621 135.701 214.557 133.714 214.306 131.332C213.805 126.584 212.551 120.186 209.509 113.7C206.458 107.192 201.598 100.579 193.914 95.5034C186.228 90.4264 175.898 87.0068 162.098 86.6018L161.922 92.5992ZM211.563 139.172C208.596 138.728 208.596 138.729 208.595 138.731C208.595 138.731 208.595 138.733 208.595 138.734C208.594 138.737 208.594 138.74 208.593 138.745C208.592 138.753 208.59 138.764 208.588 138.778C208.584 138.806 208.579 138.846 208.572 138.896C208.558 138.997 208.538 139.142 208.514 139.33C208.466 139.705 208.401 140.248 208.33 140.943C208.187 142.332 208.017 144.327 207.905 146.787C207.68 151.7 207.685 158.502 208.606 166.049C210.437 181.048 215.958 199.523 231.107 211.642L234.855 206.956C221.504 196.275 216.315 179.686 214.562 165.322C213.691 158.188 213.685 151.732 213.898 147.06C214.005 144.727 214.165 142.846 214.298 141.558C214.365 140.914 214.424 140.418 214.466 140.089C214.487 139.924 214.504 139.801 214.515 139.721C214.52 139.682 214.524 139.653 214.527 139.635C214.528 139.626 214.529 139.62 214.53 139.617C214.53 139.616 214.53 139.615 214.53 139.615C214.53 139.614 214.53 139.615 214.53 139.615C214.53 139.615 214.53 139.616 211.563 139.172ZM230.005 209.683C229.925 209.061 230.508 209.322 228.861 210.289C227.415 211.137 225.075 211.994 221.915 212.802C215.658 214.402 207.054 215.602 198.215 216.485C180.586 218.246 162.594 218.695 161.937 218.711L162.082 224.709C162.772 224.693 180.949 224.24 198.811 222.455C207.718 221.565 216.69 220.331 223.401 218.615C226.726 217.765 229.718 216.743 231.897 215.464C233.876 214.303 236.378 212.189 235.956 208.915L230.005 209.683ZM165.01 221.711V221.71H159.01V221.711H165.01ZM161.929 224.71C161.932 224.71 161.935 224.71 161.936 224.71C161.937 224.71 161.938 224.71 161.938 224.71C161.938 224.71 161.939 224.71 161.939 224.71C161.939 224.71 161.939 224.71 161.939 224.71C161.939 224.71 161.939 224.71 161.939 224.71C161.939 224.71 161.939 224.71 161.939 224.71C161.939 224.71 161.939 224.71 161.939 224.71C161.939 224.71 161.939 224.71 161.939 224.71C161.939 224.71 161.939 224.71 161.939 224.71C161.939 224.71 161.939 224.71 162.01 221.711C162.081 218.711 162.081 218.711 162.081 218.711C162.081 218.711 162.081 218.711 162.081 218.711C162.081 218.711 162.081 218.711 162.081 218.711C162.081 218.711 162.081 218.711 162.081 218.711C162.081 218.711 162.081 218.711 162.081 218.711C162.081 218.711 162.081 218.711 162.081 218.711C162.081 218.711 162.081 218.711 162.081 218.711C162.08 218.711 162.08 218.711 162.08 218.711C162.08 218.711 162.079 218.711 162.078 218.711C162.077 218.711 162.075 218.711 162.071 218.711L161.929 224.71ZM161.929 218.711C161.926 218.711 161.924 218.711 161.922 218.711C161.922 218.711 161.921 218.711 161.921 218.711C161.92 218.711 161.92 218.711 161.92 218.711C161.92 218.711 161.92 218.711 161.92 218.711C161.92 218.711 161.92 218.711 161.92 218.711C161.92 218.711 161.92 218.711 161.92 218.711C161.92 218.711 161.92 218.711 161.92 218.711C161.92 218.711 161.92 218.711 161.92 218.711C161.92 218.711 161.92 218.711 161.92 218.711C161.92 218.711 161.92 218.711 161.99 221.711C162.061 224.71 162.061 224.71 162.061 224.71C162.061 224.71 162.061 224.71 162.061 224.71C162.061 224.71 162.061 224.71 162.061 224.71C162.061 224.71 162.061 224.71 162.061 224.71C162.061 224.71 162.061 224.71 162.061 224.71C162.061 224.71 162.061 224.71 162.061 224.71C162.061 224.71 162.061 224.71 162.061 224.71C162.061 224.71 162.061 224.71 162.061 224.71C162.062 224.71 162.063 224.71 162.063 224.71C162.065 224.71 162.068 224.71 162.071 224.71L161.929 218.711ZM164.99 221.711V221.71H158.99V221.711H164.99ZM88.0442 208.915C87.6218 212.189 90.1241 214.303 92.1027 215.464C94.2827 216.743 97.2745 217.765 100.599 218.615C107.31 220.331 116.282 221.565 125.189 222.455C143.051 224.24 161.229 224.693 161.918 224.709L162.063 218.711C161.406 218.695 143.414 218.246 125.785 216.485C116.947 215.602 108.342 214.402 102.085 212.802C98.9254 211.994 96.5849 211.137 95.1391 210.289C93.4919 209.322 94.0751 209.061 93.9949 209.683L88.0442 208.915Z" fill="#7A6855"/>
<path d="M161.952 223.695L162.1 223.702L162.248 223.695L179.832 222.825C179.713 224.307 179.409 225.772 178.925 227.186C178.127 229.519 176.854 231.663 175.188 233.481C173.522 235.3 171.498 236.755 169.243 237.754C166.988 238.754 164.551 239.276 162.084 239.289C159.618 239.302 157.175 238.805 154.91 237.83C152.644 236.854 150.605 235.421 148.92 233.62C147.235 231.819 145.94 229.689 145.116 227.364C144.611 225.936 144.272 224.373 144.124 222.816L161.952 223.695Z" stroke="#7A6855" stroke-width="6"/>
<path d="M122.782 130.431C124.279 116.959 136.911 93.2263 175.463 106.077" stroke="#7A6855" stroke-width="6" stroke-linecap="round"/>
<path d="M169.763 89.7727C169.763 87.7112 168.944 85.7342 167.487 84.2766C166.029 82.8189 164.052 82 161.99 82C159.929 82 157.952 82.8189 156.494 84.2766C155.037 85.7342 154.218 87.7112 154.218 89.7727L161.99 89.7727H169.763Z" stroke="#7A6855" stroke-width="6" stroke-linecap="round"/>
</svg>
