<svg width="104" height="104" viewBox="0 0 104 104" fill="none" xmlns="http://www.w3.org/2000/svg">
<g filter="url(#filter0_d_1351_3456)">
<g filter="url(#filter1_d_1351_3456)">
<rect x="30" y="25" width="44" height="44" rx="22" fill="#7A6855"/>
<path d="M57.0452 45.4746L51.1836 41.5669C49.9653 40.7546 48.3333 41.628 48.3333 43.0923V50.9077C48.3333 52.372 49.9653 53.2454 51.1836 52.4331L57.0452 48.5254C58.1337 47.7998 58.1337 46.2002 57.0452 45.4746Z" stroke="#E5DECF" stroke-width="2" stroke-linecap="round" stroke-linejoin="round"/>
<path d="M68.5 47C68.5 56.1127 61.1127 63.5 52 63.5C42.8873 63.5 35.5 56.1127 35.5 47C35.5 37.8873 42.8873 30.5 52 30.5C61.1127 30.5 68.5 37.8873 68.5 47Z" stroke="#E5DECF" stroke-width="2" stroke-linecap="round" stroke-linejoin="round"/>
</g>
</g>
<defs>
<filter id="filter0_d_1351_3456" x="0" y="0" width="104" height="104" filterUnits="userSpaceOnUse" color-interpolation-filters="sRGB">
<feFlood flood-opacity="0" result="BackgroundImageFix"/>
<feColorMatrix in="SourceAlpha" type="matrix" values="0 0 0 0 0 0 0 0 0 0 0 0 0 0 0 0 0 0 127 0" result="hardAlpha"/>
<feOffset dy="5"/>
<feGaussianBlur stdDeviation="15"/>
<feComposite in2="hardAlpha" operator="out"/>
<feColorMatrix type="matrix" values="0 0 0 0 0 0 0 0 0 0 0 0 0 0 0 0 0 0 0.15 0"/>
<feBlend mode="normal" in2="BackgroundImageFix" result="effect1_dropShadow_1351_3456"/>
<feBlend mode="normal" in="SourceGraphic" in2="effect1_dropShadow_1351_3456" result="shape"/>
</filter>
<filter id="filter1_d_1351_3456" x="0" y="0" width="104" height="104" filterUnits="userSpaceOnUse" color-interpolation-filters="sRGB">
<feFlood flood-opacity="0" result="BackgroundImageFix"/>
<feColorMatrix in="SourceAlpha" type="matrix" values="0 0 0 0 0 0 0 0 0 0 0 0 0 0 0 0 0 0 127 0" result="hardAlpha"/>
<feOffset dy="5"/>
<feGaussianBlur stdDeviation="15"/>
<feComposite in2="hardAlpha" operator="out"/>
<feColorMatrix type="matrix" values="0 0 0 0 0 0 0 0 0 0 0 0 0 0 0 0 0 0 0.15 0"/>
<feBlend mode="normal" in2="BackgroundImageFix" result="effect1_dropShadow_1351_3456"/>
<feBlend mode="normal" in="SourceGraphic" in2="effect1_dropShadow_1351_3456" result="shape"/>
</filter>
</defs>
</svg>
