<svg width="16" height="19" viewBox="0 0 16 19" fill="none" xmlns="http://www.w3.org/2000/svg">
<path d="M8.77299 1.56746L14.7577 3.16337C15.1954 3.28011 15.5 3.67656 15.5 4.12961V10.1502C15.5 12.1563 14.4974 14.0297 12.8282 15.1425L8.5547 17.9915C8.2188 18.2155 7.7812 18.2155 7.4453 17.9915L3.1718 15.1425C1.50261 14.0297 0.5 12.1563 0.5 10.1502V4.12961C0.5 3.67656 0.804584 3.28011 1.24234 3.16337L7.22701 1.56746C7.73349 1.4324 8.26651 1.4324 8.77299 1.56746Z" stroke="#E5DECF" stroke-linecap="round"/>
<path d="M5.5 9.36133L7.32322 11.1846C7.42085 11.2822 7.57915 11.2822 7.67678 11.1846L11 7.86133" stroke="#E5DECF" stroke-linecap="round"/>
</svg>
