<svg width="22" height="19" viewBox="0 0 22 19" fill="none" xmlns="http://www.w3.org/2000/svg">
<path d="M1.32698 2.81039L1.77248 3.03739L1.32698 2.81039ZM1.76377 18.2329L2.1124 18.5913H2.1124L1.76377 18.2329ZM18.972 14.8338L18.745 14.3883L18.972 14.8338ZM20.283 13.5228L20.7285 13.7498L20.283 13.5228ZM20.283 2.81039L20.7285 2.5834V2.5834L20.283 2.81039ZM18.972 1.49934L18.745 1.94485V1.94485L18.972 1.49934ZM2.63803 1.49934L2.86502 1.94485L2.63803 1.49934ZM4.63082 15.444L4.97945 15.8024L4.63082 15.444ZM1.5 5.97236C1.5 5.12403 1.50039 4.51786 1.53921 4.04269C1.57756 3.57335 1.65089 3.27602 1.77248 3.03739L0.881477 2.5834C0.676087 2.9865 0.585932 3.43008 0.542533 3.96125C0.499611 4.48659 0.5 5.14053 0.5 5.97236H1.5ZM1.5 8.80238V5.97236H0.5V8.80238H1.5ZM0.5 8.80238V15.1608H1.5V8.80238H0.5ZM0.5 15.1608V15.1608H1.5V15.1608H0.5ZM0.5 15.1608V17.9103H1.5V15.1608H0.5ZM0.5 17.9103C0.5 18.7503 1.51025 19.177 2.1124 18.5913L1.41514 17.8745C1.41816 17.8715 1.42874 17.8644 1.44365 17.862C1.45591 17.86 1.46447 17.8621 1.46945 17.8642C1.47443 17.8663 1.48194 17.871 1.48906 17.8812C1.49772 17.8936 1.5 17.9061 1.5 17.9103H0.5ZM2.1124 18.5913L4.97945 15.8024L4.28219 15.0856L1.41514 17.8745L2.1124 18.5913ZM15.81 14.6608H5.32808V15.6608H15.81V14.6608ZM18.745 14.3883C18.5064 14.5099 18.209 14.5833 17.7397 14.6216C17.2645 14.6604 16.6583 14.6608 15.81 14.6608V15.6608C16.6418 15.6608 17.2958 15.6612 17.8211 15.6183C18.3523 15.5749 18.7959 15.4847 19.199 15.2793L18.745 14.3883ZM19.8375 13.2958C19.5979 13.7662 19.2154 14.1487 18.745 14.3883L19.199 15.2793C19.8576 14.9438 20.393 14.4084 20.7285 13.7498L19.8375 13.2958ZM20.11 10.3608C20.11 11.2092 20.1096 11.8153 20.0708 12.2905C20.0325 12.7598 19.9591 13.0572 19.8375 13.2958L20.7285 13.7498C20.9339 13.3467 21.0241 12.9031 21.0675 12.3719C21.1104 11.8466 21.11 11.1927 21.11 10.3608H20.11ZM20.11 5.97236V10.3608H21.11V5.97236H20.11ZM19.8375 3.03739C19.9591 3.27602 20.0325 3.57335 20.0708 4.04269C20.1096 4.51786 20.11 5.12403 20.11 5.97236H21.11C21.11 5.14053 21.1104 4.48659 21.0675 3.96125C21.0241 3.43008 20.9339 2.9865 20.7285 2.5834L19.8375 3.03739ZM18.745 1.94485C19.2154 2.18453 19.5979 2.56698 19.8375 3.03739L20.7285 2.5834C20.393 1.92483 19.8576 1.3894 19.199 1.05384L18.745 1.94485ZM15.81 1.67236C16.6584 1.67236 17.2645 1.67275 17.7397 1.71158C18.209 1.74992 18.5064 1.82326 18.745 1.94485L19.199 1.05384C18.7959 0.84845 18.3523 0.758295 17.8211 0.714896C17.2958 0.671974 16.6419 0.672363 15.81 0.672363V1.67236ZM5.8 1.67236H15.81V0.672363H5.8V1.67236ZM2.86502 1.94485C3.10366 1.82326 3.40099 1.74992 3.87032 1.71158C4.34549 1.67275 4.95167 1.67236 5.8 1.67236V0.672363C4.96817 0.672363 4.31423 0.671974 3.78889 0.714896C3.25771 0.758295 2.81413 0.84845 2.41103 1.05384L2.86502 1.94485ZM1.77248 3.03739C2.01217 2.56698 2.39462 2.18453 2.86502 1.94485L2.41103 1.05384C1.75247 1.3894 1.21703 1.92483 0.881477 2.5834L1.77248 3.03739ZM4.97945 15.8024C5.07279 15.7116 5.19787 15.6608 5.32808 15.6608V14.6608C4.93744 14.6608 4.56221 14.8132 4.28219 15.0856L4.97945 15.8024Z" fill="#E5DECF"/>
<path d="M6.22949 6.25903L15.3808 6.25903" stroke="#E5DECF" stroke-linecap="round" stroke-linejoin="round"/>
<path d="M6.22949 10.0741L12.7662 10.0741" stroke="#E5DECF" stroke-linecap="round" stroke-linejoin="round"/>
</svg>
