<svg width="24" height="24" viewBox="0 0 24 24" fill="none" xmlns="http://www.w3.org/2000/svg">
<path d="M9.78925 12.8946C9.9241 12.6254 10 12.3216 10 12C10 11.6784 9.9241 11.3746 9.78925 11.1054M9.78925 12.8946C9.46089 13.5501 8.78299 14 8 14C6.89543 14 6 13.1046 6 12C6 10.8954 6.89543 10 8 10C8.78299 10 9.46089 10.4499 9.78925 11.1054M9.78925 12.8946L14.2108 15.1054M9.78925 11.1054L14.2108 8.89462M14.2108 8.89462C14.5391 9.55006 15.217 10 16 10C17.1046 10 18 9.10457 18 8C18 6.89543 17.1046 6 16 6C14.8954 6 14 6.89543 14 8C14 8.32158 14.0759 8.62543 14.2108 8.89462ZM14.2108 15.1054C14.0759 15.3746 14 15.6784 14 16C14 17.1046 14.8954 18 16 18C17.1046 18 18 17.1046 18 16C18 14.8954 17.1046 14 16 14C15.217 14 14.5391 14.4499 14.2108 15.1054Z" stroke="#F15328" stroke-width="2" stroke-linecap="round" stroke-linejoin="round"/>
<rect x="0.5" y="0.5" width="23" height="23" rx="11.5" stroke="#F15328"/>
</svg>
