<svg width="324" height="324" viewBox="0 0 324 324" fill="none" xmlns="http://www.w3.org/2000/svg">
<g opacity="0.2">
<rect width="324" height="324" rx="162" fill="#FFD8C7"/>
</g>
<g opacity="0.3">
<rect x="44" y="44" width="235.636" height="235.636" rx="117.818" fill="#FAD8C9"/>
</g>
<g opacity="0.55">
<rect x="87" y="87" width="149.727" height="149.727" rx="74.8636" fill="#FBD9CA"/>
</g>
<path d="M247.828 216.901H66.2626C61.302 216.901 57 220.647 57 225.6C57 234.254 64.5536 241 73.5252 241H240.565C249.537 241 257.09 234.254 257.09 225.6C257.09 220.647 252.788 216.901 247.828 216.901Z" stroke="#7A6855" stroke-width="4"/>
<path d="M153.944 155.889L182.442 175.618C184.144 176.796 185.159 178.734 185.159 180.804V195.131C185.159 196.002 184.453 196.708 183.582 196.708H124.306C123.436 196.708 122.729 196.002 122.729 195.131V180.804C122.729 178.734 123.745 176.796 125.447 175.618L153.944 155.889ZM153.944 155.889L182.442 136.16C184.144 134.982 185.159 133.044 185.159 130.974V116.647C185.159 115.776 184.453 115.07 183.582 115.07H124.306C123.436 115.07 122.729 115.776 122.729 116.647V130.974C122.729 133.044 123.745 134.982 125.447 136.16L153.944 155.889Z" stroke="#7A6855" stroke-width="6" stroke-linecap="round" stroke-linejoin="round"/>
<path d="M170.752 196.708V189.848C170.752 188.151 169.842 186.583 168.368 185.741L154.179 177.633C154.033 177.55 153.855 177.55 153.709 177.633L139.52 185.741C138.046 186.583 137.136 188.151 137.136 189.848V196.708" stroke="#7A6855" stroke-width="6" stroke-linecap="round" stroke-linejoin="round"/>
<path fill-rule="evenodd" clip-rule="evenodd" d="M202.688 88.2559H104.101C85.1511 88.2559 75.6762 88.2559 69.7893 94.1428C63.9023 100.03 63.9023 109.505 63.9023 128.454V214.901V218.901H67.9023H240.796H244.796V214.901V138.982C243.486 139.247 242.151 139.445 240.796 139.57V214.901H67.9023V128.454C67.9023 118.866 67.9108 112.078 68.6025 106.933C69.2788 101.903 70.5413 99.0476 72.6177 96.9712C74.6941 94.8948 77.5497 93.6323 82.5795 92.9561C87.7243 92.2644 94.5129 92.2559 104.101 92.2559H201.319C201.701 90.8893 202.159 89.5544 202.688 88.2559Z" fill="#7A6855"/>
<path d="M236.707 127.474C233.327 127.474 229.981 126.808 226.858 125.515C223.735 124.221 220.898 122.325 218.508 119.936C216.118 117.546 214.223 114.708 212.929 111.586C211.636 108.463 210.97 105.117 210.97 101.737C210.97 98.3571 211.636 95.0103 212.929 91.8878C214.223 88.7653 216.118 85.928 218.508 83.5382C220.898 81.1483 223.735 79.2525 226.858 77.9591C229.981 76.6657 233.327 76 236.707 76C240.087 76 243.434 76.6657 246.556 77.9591C249.679 79.2525 252.516 81.1483 254.906 83.5382C257.296 85.928 259.191 88.7653 260.485 91.8878C261.778 95.0103 262.444 98.3571 262.444 101.737C262.444 105.117 261.778 108.463 260.485 111.586C259.191 114.708 257.296 117.546 254.906 119.936C252.516 122.325 249.679 124.221 246.556 125.515C243.434 126.808 240.087 127.474 236.707 127.474L236.707 127.474Z" stroke="#7A6855" stroke-width="4" stroke-linecap="round"/>
<path d="M236.99 97.0642V117.239" stroke="#7A6855" stroke-width="4" stroke-linecap="round"/>
<circle cx="3.06391" cy="3.06391" r="3.06391" transform="matrix(-1 0 0 1 240.23 85.8047)" fill="#7A6855"/>
</svg>
