<svg width="324" height="324" viewBox="0 0 324 324" fill="none" xmlns="http://www.w3.org/2000/svg">
<g opacity="0.2">
<rect width="324" height="324" rx="162" fill="#FFD8C7"/>
</g>
<g opacity="0.3">
<rect x="44" y="43.9999" width="235.636" height="235.636" rx="117.818" fill="#FAD8C9"/>
</g>
<g opacity="0.55">
<rect x="87" y="87" width="149.727" height="149.727" rx="74.8636" fill="#FBD9CA"/>
</g>
<path d="M153.34 84.0821L153.341 84.0812C157.186 77.4177 166.805 77.4129 170.661 84.0835L248.366 218.668C249.244 220.188 249.706 221.913 249.706 223.668C249.706 225.423 249.244 227.148 248.366 228.668C247.488 230.188 246.226 231.45 244.706 232.328C243.186 233.206 241.461 233.668 239.706 233.668H84.2942C82.5388 233.668 80.8144 233.206 79.2943 232.328C77.7741 231.45 76.5118 230.188 75.6341 228.668C74.7565 227.148 74.2944 225.423 74.2944 223.668C74.2944 221.913 74.7565 220.188 75.6342 218.668L153.34 84.0821Z" stroke="#7A6855" stroke-width="7"/>
<path d="M168.364 191.636C166.676 189.948 164.387 189 162 189C159.613 189 157.324 189.948 155.636 191.636C153.948 193.324 153 195.613 153 198C153 200.387 153.948 202.676 155.636 204.364C157.324 206.052 159.613 207 162 207C164.387 207 166.676 206.052 168.364 204.364C170.052 202.676 171 200.387 171 198C171 195.613 170.052 193.324 168.364 191.636Z" fill="#7A6855"/>
<path d="M168.364 128.636C166.676 126.948 164.387 126 162 126C159.613 126 157.324 126.948 155.636 128.636C153.948 130.324 153 132.613 153 135V171C153 173.387 153.948 175.676 155.636 177.364C157.324 179.052 159.613 180 162 180C164.387 180 166.676 179.052 168.364 177.364C170.052 175.676 171 173.387 171 171V135C171 132.613 170.052 130.324 168.364 128.636Z" fill="#7A6855"/>
</svg>
