<svg width="37" height="37" viewBox="0 0 37 37" fill="none" xmlns="http://www.w3.org/2000/svg">
<path d="M12.6391 3.91684C12.6391 3.91684 13.6113 1.97192 17.5002 1.97192C21.3891 1.97192 22.3613 3.91637 22.3613 3.91637" stroke="white" stroke-width="2.2" stroke-linecap="round"/>
<path d="M0 9.75024H35V9.75024C32.0532 9.75024 30.5798 9.75024 29.5774 10.5483C29.361 10.7206 29.1648 10.9168 28.9925 11.1332C28.1944 12.1356 28.1944 13.609 28.1944 16.5558V27.6947C28.1944 31.1517 28.1944 32.8801 27.1205 33.9541C26.0466 35.028 24.3181 35.028 20.8611 35.028H14.1389C10.6819 35.028 8.95344 35.028 7.8795 33.9541C6.80556 32.8801 6.80556 31.1517 6.80556 27.6947V16.5558C6.80556 13.609 6.80556 12.1356 6.00755 11.1332C5.83525 10.9168 5.63901 10.7206 5.42258 10.5483C4.42016 9.75024 2.94677 9.75024 0 9.75024V9.75024Z" stroke="white" stroke-width="2.2" stroke-linecap="round"/>
<path d="M13.6113 29.9319L13.6113 13.6387" stroke="white" stroke-width="2.2" stroke-linecap="round"/>
<path d="M21.3887 29.9319L21.3887 13.6387" stroke="white" stroke-width="2.2" stroke-linecap="round"/>
</svg>
