<svg width="18" height="23" viewBox="0 0 18 23" fill="none" xmlns="http://www.w3.org/2000/svg">
<path d="M4.67676 12.479L13.3238 12.479" stroke="#E5DECF" stroke-linecap="round"/>
<path d="M4.67676 16.1851L9.61794 16.1851" stroke="#E5DECF" stroke-linecap="round"/>
<path d="M0.970703 3.76133C0.970703 2.92125 0.970703 2.50121 1.13419 2.18034C1.278 1.8981 1.50747 1.66863 1.78972 1.52482C2.11058 1.36133 2.53062 1.36133 3.3707 1.36133H9.85894C10.2258 1.36133 10.4093 1.36133 10.5819 1.40277C10.735 1.43952 10.8813 1.50012 11.0155 1.58237C11.1669 1.67513 11.2966 1.80484 11.556 2.06427L16.3266 6.83486C16.586 7.09428 16.7157 7.224 16.8085 7.37537C16.8907 7.50958 16.9513 7.6559 16.9881 7.80895C17.0295 7.98158 17.0295 8.16503 17.0295 8.53191V19.9613C17.0295 20.8014 17.0295 21.2214 16.866 21.5423C16.7222 21.8246 16.4928 22.054 16.2105 22.1978C15.8896 22.3613 15.4696 22.3613 14.6295 22.3613H3.3707C2.53062 22.3613 2.11058 22.3613 1.78972 22.1978C1.50747 22.054 1.278 21.8246 1.13419 21.5423C0.970703 21.2214 0.970703 20.8014 0.970703 19.9613V3.76133Z" stroke="#E5DECF"/>
<path d="M9.61768 1.36133V6.37309C9.61768 7.21317 9.61768 7.63321 9.78117 7.95408C9.92498 8.23632 10.1544 8.46579 10.4367 8.6096C10.7576 8.77309 11.1776 8.77309 12.0177 8.77309H17.0294" stroke="#E5DECF"/>
</svg>
