<svg width="30" height="24" viewBox="0 0 30 24" fill="none" xmlns="http://www.w3.org/2000/svg">
<path d="M29.6266 2.94025C28.5508 3.40431 27.3801 3.7383 26.1742 3.86837C27.4262 3.12459 28.3637 1.94954 28.8109 0.563686C27.6361 1.26255 26.3491 1.75261 25.007 2.01212C24.4461 1.41245 23.7677 0.934725 23.014 0.608713C22.2604 0.2827 21.4477 0.115388 20.6266 0.117202C17.3043 0.117202 14.6324 2.81017 14.6324 6.11486C14.6324 6.57892 14.6887 7.04298 14.7801 7.48947C9.80547 7.22931 5.36875 4.85275 2.41914 1.21408C1.88169 2.13206 1.60005 3.17729 1.60352 4.24103C1.60352 6.32228 2.66172 8.15744 4.27539 9.23673C3.32443 9.19928 2.39574 8.9379 1.56484 8.47384V8.54767C1.56484 11.4621 3.625 13.8774 6.3707 14.4328C5.85517 14.5667 5.32483 14.6352 4.79219 14.6367C4.40195 14.6367 4.03281 14.5981 3.66016 14.5453C4.41953 16.9219 6.63086 18.6481 9.26406 18.7043C7.20391 20.318 4.62344 21.2672 1.82148 21.2672C1.31875 21.2672 0.854687 21.2496 0.373047 21.1934C3.03086 22.8985 6.18437 23.8828 9.58047 23.8828C20.6055 23.8828 26.6383 14.7492 26.6383 6.8215C26.6383 6.56134 26.6383 6.30119 26.6207 6.04103C27.7879 5.18673 28.8109 4.12853 29.6266 2.94025Z" fill="white"/>
</svg>
