<svg width="28" height="27" viewBox="0 0 28 27" fill="none" xmlns="http://www.w3.org/2000/svg">
<path d="M22.0767 13.5V19.0261C22.0767 20.8994 22.0767 21.8361 21.4909 22.418C20.9051 23 19.9623 23 18.0767 23H7.73286C6.26586 23 5.07666 21.8185 5.07666 20.3611M5.07666 20.3611C5.07666 18.9037 6.26586 17.7222 7.73286 17.7222H18.0767C19.9623 17.7222 20.9051 17.7222 21.4909 17.1403C22.0767 16.5583 22.0767 15.6216 22.0767 13.7484V7.97386C22.0767 6.10048 22.0767 5.16384 21.4909 4.58187C20.9051 4 19.9623 4 18.0767 4H9.07666C7.19106 4 6.24826 4 5.66246 4.58187C5.07666 5.16384 5.07666 6.10048 5.07666 7.97386V20.3611Z" stroke="#393939"/>
<path d="M10.3892 11.4375L11.8071 12.8553C12.1976 13.2459 12.8308 13.2459 13.2213 12.8553L16.7642 9.3125" stroke="#393939" stroke-linecap="round"/>
</svg>
