<svg width="18" height="14" viewBox="0 0 18 14" fill="none" xmlns="http://www.w3.org/2000/svg">
<path d="M11.5 1.16675V2.83341M11.5 6.16675V7.83341M11.5 11.1667V12.8334M3.16667 1.16675C2.24619 1.16675 1.5 1.91294 1.5 2.83341V5.33341C2.42047 5.33341 3.16667 6.07961 3.16667 7.00008C3.16667 7.92056 2.42047 8.66675 1.5 8.66675V11.1667C1.5 12.0872 2.24619 12.8334 3.16667 12.8334H14.8333C15.7538 12.8334 16.5 12.0872 16.5 11.1667V8.66675C15.5795 8.66675 14.8333 7.92056 14.8333 7.00008C14.8333 6.07961 15.5795 5.33341 16.5 5.33341V2.83341C16.5 1.91294 15.7538 1.16675 14.8333 1.16675H3.16667Z" stroke="#E5DECF" stroke-width="2" stroke-linecap="round" stroke-linejoin="round"/>
</svg>
