<svg width="29" height="20" viewBox="0 0 29 20" fill="none" xmlns="http://www.w3.org/2000/svg">
<path fill-rule="evenodd" clip-rule="evenodd" d="M25.2437 0.574991C26.4276 0.891916 27.3581 1.82232 27.675 3.00626C28.2477 5.15002 28.25 9.62545 28.25 9.62545C28.25 9.62545 28.25 14.1009 27.675 16.2447C27.3581 17.4286 26.4276 18.359 25.2437 18.6759C23.1 19.2509 14.5 19.2509 14.5 19.2509C14.5 19.2509 5.90002 19.2509 3.75625 18.6759C2.57232 18.359 1.64192 17.4286 1.32499 16.2447C0.75 14.1009 0.75 9.62545 0.75 9.62545C0.75 9.62545 0.75 5.15002 1.32499 3.00626C1.64192 1.82232 2.57232 0.891916 3.75625 0.574991C5.90002 1.72116e-07 14.5 0 14.5 0C14.5 0 23.1 1.72116e-07 25.2437 0.574991ZM18.8917 9.62583L11.7474 13.7503V5.50126L18.8917 9.62583Z" fill="#595552"/>
</svg>
