<svg width="28" height="20" viewBox="0 0 28 20" fill="none" xmlns="http://www.w3.org/2000/svg">
<path fill-rule="evenodd" clip-rule="evenodd" d="M24.6197 1.28684C25.8036 1.60377 26.7341 2.53417 27.051 3.71811C27.6237 5.86187 27.626 10.3373 27.626 10.3373C27.626 10.3373 27.626 14.8127 27.051 16.9565C26.7341 18.1405 25.8036 19.0709 24.6197 19.3877C22.476 19.9627 13.8759 19.9627 13.8759 19.9627C13.8759 19.9627 5.276 19.9627 3.13223 19.3877C1.9483 19.0709 1.01789 18.1405 0.700968 16.9565C0.125977 14.8127 0.125977 10.3373 0.125977 10.3373C0.125977 10.3373 0.125977 5.86187 0.700968 3.71811C1.01789 2.53417 1.9483 1.60377 3.13223 1.28684C5.276 0.711853 13.8759 0.711853 13.8759 0.711853C13.8759 0.711853 22.476 0.711853 24.6197 1.28684ZM18.2677 10.3377L11.1233 14.4622V6.21312L18.2677 10.3377Z" fill="white"/>
</svg>
